ISO-10303-21;
HEADER;
FILE_DESCRIPTION (( 'STEP AP214' ),
    '1' );
FILE_NAME ('SMD100F-2018-2.STEP',
    '2022-12-27T13:45:55',
    ( '' ),
    ( '' ),
    'SwSTEP 2.0',
    'SolidWorks 2022',
    '' );
FILE_SCHEMA (( 'AUTOMOTIVE_DESIGN' ));
ENDSEC;

DATA;
#1 = LINE ( 'NONE', #820, #187 ) ;
#2 = VERTEX_POINT ( 'NONE', #814 ) ;
#3 = ADVANCED_FACE ( 'NONE', ( #669 ), #397, .T. ) ;
#4 = DIRECTION ( 'NONE',  ( 0.000000000000000000, -1.000000000000000000, 0.000000000000000000 ) ) ;
#5 = AXIS2_PLACEMENT_3D ( 'NONE', #141, #4, #70 ) ;
#6 = LINE ( 'NONE', #891, #460 ) ;
#7 = DIRECTION ( 'NONE',  ( 0.000000000000000000, -0.000000000000000000, -1.000000000000000000 ) ) ;
#8 = CARTESIAN_POINT ( 'NONE',  ( 2.029999999999999805, -0.1099999999999998757, 2.464999999999999858 ) ) ;
#9 = EDGE_LOOP ( 'NONE', ( #283, #840, #705, #899 ) ) ;
#10 = EDGE_CURVE ( 'NONE', #649, #717, #253, .T. ) ;
#11 = DIRECTION ( 'NONE',  ( 1.000000000000000000, 0.000000000000000000, -0.000000000000000000 ) ) ;
#12 = ORIENTED_EDGE ( 'NONE', *, *, #657, .F. ) ;
#13 = EDGE_CURVE ( 'NONE', #656, #567, #878, .T. ) ;
#14 = ORIENTED_EDGE ( 'NONE', *, *, #496, .T. ) ;
#15 = LINE ( 'NONE', #372, #95 ) ;
#16 = ORIENTED_EDGE ( 'NONE', *, *, #69, .T. ) ;
#17 = AXIS2_PLACEMENT_3D ( 'NONE', #327, #452, #173 ) ;
#18 =( GEOMETRIC_REPRESENTATION_CONTEXT ( 3 ) GLOBAL_UNCERTAINTY_ASSIGNED_CONTEXT ( ( #901 ) ) GLOBAL_UNIT_ASSIGNED_CONTEXT ( ( #209, #212, #136 ) ) REPRESENTATION_CONTEXT ( 'NONE', 'WORKASPACE' ) );
#19 = ORIENTED_EDGE ( 'NONE', *, *, #340, .T. ) ;
#20 = VECTOR ( 'NONE', #646, 1000.000000000000000 ) ;
#21 = DIRECTION ( 'NONE',  ( 0.000000000000000000, 1.000000000000000000, 0.000000000000000000 ) ) ;
#22 = ORIENTED_EDGE ( 'NONE', *, *, #408, .T. ) ;
#23 = ORIENTED_EDGE ( 'NONE', *, *, #193, .T. ) ;
#24 = ADVANCED_FACE ( 'NONE', ( #604 ), #121, .F. ) ;
#25 = CARTESIAN_POINT ( 'NONE',  ( 2.540000000000000480, -0.7600000000000000089, -2.000000000000000888 ) ) ;
#26 = DIRECTION ( 'NONE',  ( 0.000000000000000000, -0.000000000000000000, -1.000000000000000000 ) ) ;
#27 = ORIENTED_EDGE ( 'NONE', *, *, #616, .T. ) ;
#28 = CARTESIAN_POINT ( 'NONE',  ( -2.180000000000000604, -0.7600000000000000089, -2.000000000000000888 ) ) ;
#29 = VERTEX_POINT ( 'NONE', #385 ) ;
#30 = DIRECTION ( 'NONE',  ( -0.000000000000000000, -0.000000000000000000, 1.000000000000000000 ) ) ;
#31 = EDGE_CURVE ( 'NONE', #643, #598, #453, .T. ) ;
#32 = CARTESIAN_POINT ( 'NONE',  ( -2.540000000000000480, 0.000000000000000000, -2.464999999999999858 ) ) ;
#33 = ORIENTED_EDGE ( 'NONE', *, *, #10, .F. ) ;
#34 = VECTOR ( 'NONE', #903, 1000.000000000000000 ) ;
#35 = STYLED_ITEM ( 'NONE', ( #630 ), #726 ) ;
#36 = FACE_OUTER_BOUND ( 'NONE', #513, .T. ) ;
#37 = CARTESIAN_POINT ( 'NONE',  ( -2.180000000000000604, -0.7600000000000000089, 2.464999999999999858 ) ) ;
#38 = FACE_OUTER_BOUND ( 'NONE', #155, .T. ) ;
#39 = ADVANCED_FACE ( 'NONE', ( #873 ), #186, .F. ) ;
#40 = ORIENTED_EDGE ( 'NONE', *, *, #783, .T. ) ;
#41 = DIRECTION ( 'NONE',  ( 0.000000000000000000, -0.000000000000000000, -1.000000000000000000 ) ) ;
#42 = DIRECTION ( 'NONE',  ( 0.000000000000000000, 0.000000000000000000, 1.000000000000000000 ) ) ;
#43 = LINE ( 'NONE', #804, #867 ) ;
#44 = CARTESIAN_POINT ( 'NONE',  ( 2.540000000000000480, -0.2600000000000000089, 1.999999999999998668 ) ) ;
#45 = VERTEX_POINT ( 'NONE', #189 ) ;
#46 = DIRECTION ( 'NONE',  ( 1.000000000000000000, 0.000000000000000000, 0.000000000000000000 ) ) ;
#47 = DIRECTION ( 'NONE',  ( 0.000000000000000000, -0.000000000000000000, -1.000000000000000000 ) ) ;
#48 = DIRECTION ( 'NONE',  ( 1.000000000000000000, 0.000000000000000000, -0.000000000000000000 ) ) ;
#49 = CARTESIAN_POINT ( 'NONE',  ( 0.000000000000000000, 0.4000000000000000777, 2.464999999999999858 ) ) ;
#50 = EDGE_LOOP ( 'NONE', ( #87, #191, #159, #14, #12, #712, #687, #40 ) ) ;
#51 = FACE_OUTER_BOUND ( 'NONE', #169, .T. ) ;
#52 = VECTOR ( 'NONE', #234, 1000.000000000000000 ) ;
#53 = DIRECTION ( 'NONE',  ( 0.000000000000000000, 1.000000000000000000, 0.000000000000000000 ) ) ;
#54 = CARTESIAN_POINT ( 'NONE',  ( -2.540000000000000480, 0.4600000000000000755, -2.464999999999999858 ) ) ;
#55 = DIRECTION ( 'NONE',  ( -0.000000000000000000, 0.000000000000000000, 1.000000000000000000 ) ) ;
#56 = ORIENTED_EDGE ( 'NONE', *, *, #415, .F. ) ;
#57 = CARTESIAN_POINT ( 'NONE',  ( 2.029999999999999805, -0.1099999999999998757, -2.464999999999999858 ) ) ;
#58 =( LENGTH_UNIT ( ) NAMED_UNIT ( * ) SI_UNIT ( .MILLI., .METRE. ) );
#59 = EDGE_CURVE ( 'NONE', #529, #661, #263, .T. ) ;
#60 = CARTESIAN_POINT ( 'NONE',  ( -2.180000000000000604, 0.000000000000000000, -2.464999999999999858 ) ) ;
#61 = FILL_AREA_STYLE_COLOUR ( '', #562 ) ;
#62 = ORIENTED_EDGE ( 'NONE', *, *, #813, .T. ) ;
#63 = LINE ( 'NONE', #471, #534 ) ;
#64 = EDGE_CURVE ( 'NONE', #753, #680, #746, .T. ) ;
#65 = ORIENTED_EDGE ( 'NONE', *, *, #316, .F. ) ;
#66 = VECTOR ( 'NONE', #489, 1000.000000000000000 ) ;
#67 = DIRECTION ( 'NONE',  ( 0.000000000000000000, -0.000000000000000000, 1.000000000000000000 ) ) ;
#68 = PRESENTATION_LAYER_ASSIGNMENT (  '', '', ( #35 ) ) ;
#69 = EDGE_CURVE ( 'NONE', #524, #723, #818, .T. ) ;
#70 = DIRECTION ( 'NONE',  ( 0.000000000000000000, -0.000000000000000000, -1.000000000000000000 ) ) ;
#71 = EDGE_CURVE ( 'NONE', #666, #273, #43, .T. ) ;
#72 = VERTEX_POINT ( 'NONE', #180 ) ;
#73 = CARTESIAN_POINT ( 'NONE',  ( 2.179999999999999716, -0.2600000000000000089, 2.464999999999999858 ) ) ;
#74 = CARTESIAN_POINT ( 'NONE',  ( 2.029999999999999805, 0.04000000000000010492, 2.464999999999999858 ) ) ;
#75 = DIRECTION ( 'NONE',  ( 1.000000000000000000, 0.000000000000000000, 0.000000000000000000 ) ) ;
#76 = VECTOR ( 'NONE', #821, 1000.000000000000000 ) ;
#77 = EDGE_CURVE ( 'NONE', #232, #721, #617, .T. ) ;
#78 = DIRECTION ( 'NONE',  ( 0.000000000000000000, -1.000000000000000000, 0.000000000000000000 ) ) ;
#79 = DIRECTION ( 'NONE',  ( 1.000000000000000000, 0.000000000000000000, 0.000000000000000000 ) ) ;
#80 = EDGE_LOOP ( 'NONE', ( #572, #188, #859, #176 ) ) ;
#81 = AXIS2_PLACEMENT_3D ( 'NONE', #207, #421, #67 ) ;
#82 = VECTOR ( 'NONE', #450, 1000.000000000000000 ) ;
#83 = CARTESIAN_POINT ( 'NONE',  ( 0.000000000000000000, 0.000000000000000000, 2.464999999999999858 ) ) ;
#84 = EDGE_CURVE ( 'NONE', #297, #2, #888, .T. ) ;
#85 = ORIENTED_EDGE ( 'NONE', *, *, #710, .T. ) ;
#86 = CARTESIAN_POINT ( 'NONE',  ( -3.244069492476312572E-17, 0.7600000000000001199, -2.464999999999999858 ) ) ;
#87 = ORIENTED_EDGE ( 'NONE', *, *, #10, .T. ) ;
#88 = DIRECTION ( 'NONE',  ( 1.000000000000000000, 0.000000000000000000, 0.000000000000000000 ) ) ;
#89 = FACE_OUTER_BOUND ( 'NONE', #400, .T. ) ;
#90 = ORIENTED_EDGE ( 'NONE', *, *, #801, .F. ) ;
#91 = ORIENTED_EDGE ( 'NONE', *, *, #752, .T. ) ;
#92 = DIRECTION ( 'NONE',  ( 0.000000000000000000, 0.000000000000000000, -1.000000000000000000 ) ) ;
#93 = CARTESIAN_POINT ( 'NONE',  ( 0.000000000000000000, -0.7600000000000000089, 2.464999999999999858 ) ) ;
#94 = ORIENTED_EDGE ( 'NONE', *, *, #399, .F. ) ;
#95 = VECTOR ( 'NONE', #841, 1000.000000000000000 ) ;
#96 = VECTOR ( 'NONE', #515, 1000.000000000000000 ) ;
#97 = ADVANCED_FACE ( 'NONE', ( #329 ), #256, .T. ) ;
#98 = ORIENTED_EDGE ( 'NONE', *, *, #59, .T. ) ;
#99 = FACE_OUTER_BOUND ( 'NONE', #862, .T. ) ;
#100 = CARTESIAN_POINT ( 'NONE',  ( 2.540000000000000036, 0.1000000000000001860, 2.464999999999999858 ) ) ;
#101 = VERTEX_POINT ( 'NONE', #467 ) ;
#102 = ORIENTED_EDGE ( 'NONE', *, *, #876, .T. ) ;
#103 = EDGE_CURVE ( 'NONE', #113, #567, #751, .T. ) ;
#104 = CYLINDRICAL_SURFACE ( 'NONE', #725, 0.2999999999999999334 ) ;
#105 = LINE ( 'NONE', #869, #76 ) ;
#106 = CARTESIAN_POINT ( 'NONE',  ( -2.180000000000000604, 0.000000000000000000, 2.464999999999999858 ) ) ;
#107 = ORIENTED_EDGE ( 'NONE', *, *, #626, .F. ) ;
#108 = DIRECTION ( 'NONE',  ( 1.000000000000000000, 0.000000000000000000, 0.000000000000000000 ) ) ;
#109 = LINE ( 'NONE', #599, #653 ) ;
#110 = EDGE_CURVE ( 'NONE', #441, #524, #683, .T. ) ;
#111 = CARTESIAN_POINT ( 'NONE',  ( 0.000000000000000000, 0.04000000000000010492, 2.464999999999999858 ) ) ;
#112 = CARTESIAN_POINT ( 'NONE',  ( 2.540000000000000036, 0.4000000000000000777, -2.464999999999999858 ) ) ;
#113 = VERTEX_POINT ( 'NONE', #822 ) ;
#114 = VECTOR ( 'NONE', #570, 1000.000000000000000 ) ;
#115 = VECTOR ( 'NONE', #271, 1000.000000000000000 ) ;
#116 =( NAMED_UNIT ( * ) PLANE_ANGLE_UNIT ( ) SI_UNIT ( $, .RADIAN. ) );
#117 = DIRECTION ( 'NONE',  ( -1.000000000000000000, -0.000000000000000000, -0.000000000000000000 ) ) ;
#118 = SURFACE_STYLE_FILL_AREA ( #454 ) ;
#119 = ADVANCED_FACE ( 'NONE', ( #449 ), #734, .T. ) ;
#120 = ORIENTED_EDGE ( 'NONE', *, *, #511, .F. ) ;
#121 = PLANE ( 'NONE',  #274 ) ;
#122 = ORIENTED_EDGE ( 'NONE', *, *, #545, .T. ) ;
#123 = CARTESIAN_POINT ( 'NONE',  ( -2.240000000000000657, 0.7600000000000000089, 2.464999999999999858 ) ) ;
#124 = CARTESIAN_POINT ( 'NONE',  ( 0.000000000000000000, 0.4000000000000000777, 2.464999999999999858 ) ) ;
#125 = CARTESIAN_POINT ( 'NONE',  ( 2.179999999999999716, 0.000000000000000000, 1.999999999999998668 ) ) ;
#126 = DIRECTION ( 'NONE',  ( -1.000000000000000000, -0.000000000000000000, -0.000000000000000000 ) ) ;
#127 = ORIENTED_EDGE ( 'NONE', *, *, #84, .T. ) ;
#128 = EDGE_CURVE ( 'NONE', #508, #113, #277, .T. ) ;
#129 = VECTOR ( 'NONE', #615, 1000.000000000000000 ) ;
#130 = PRESENTATION_STYLE_ASSIGNMENT (( #548 ) ) ;
#131 = FACE_OUTER_BOUND ( 'NONE', #369, .T. ) ;
#132 = PLANE ( 'NONE',  #856 ) ;
#133 = VERTEX_POINT ( 'NONE', #549 ) ;
#134 = CARTESIAN_POINT ( 'NONE',  ( -2.180000000000000604, -0.2600000000000000089, 2.464999999999999858 ) ) ;
#135 = CARTESIAN_POINT ( 'NONE',  ( 2.029999999999999805, 0.04000000000000010492, 2.464999999999999858 ) ) ;
#136 =( NAMED_UNIT ( * ) SI_UNIT ( $, .STERADIAN. ) SOLID_ANGLE_UNIT ( ) );
#137 = EDGE_CURVE ( 'NONE', #113, #536, #765, .T. ) ;
#138 = UNCERTAINTY_MEASURE_WITH_UNIT (LENGTH_MEASURE( 1.000000000000000082E-05 ), #58, 'distance_accuracy_value', 'NONE');
#139 = ORIENTED_EDGE ( 'NONE', *, *, #719, .F. ) ;
#140 = CIRCLE ( 'NONE', #650, 0.2999999999999999334 ) ;
#141 = CARTESIAN_POINT ( 'NONE',  ( 2.540000000000000480, -0.2600000000000000089, 0.000000000000000000 ) ) ;
#142 = VECTOR ( 'NONE', #269, 1000.000000000000000 ) ;
#143 = VECTOR ( 'NONE', #42, 1000.000000000000000 ) ;
#144 = ADVANCED_FACE ( 'NONE', ( #423 ), #281, .F. ) ;
#145 = DIRECTION ( 'NONE',  ( 2.853163611803958777E-16, -1.000000000000000000, 0.000000000000000000 ) ) ;
#146 = PLANE ( 'NONE',  #497 ) ;
#147 = ORIENTED_EDGE ( 'NONE', *, *, #193, .F. ) ;
#148 = FACE_OUTER_BOUND ( 'NONE', #794, .T. ) ;
#149 = LINE ( 'NONE', #195, #142 ) ;
#150 = AXIS2_PLACEMENT_3D ( 'NONE', #750, #47, #328 ) ;
#151 = EDGE_CURVE ( 'NONE', #278, #436, #480, .T. ) ;
#152 = DIRECTION ( 'NONE',  ( -1.000000000000000000, -0.000000000000000000, -0.000000000000000000 ) ) ;
#153 = DIRECTION ( 'NONE',  ( -0.000000000000000000, 0.000000000000000000, -1.000000000000000000 ) ) ;
#154 = VECTOR ( 'NONE', #594, 1000.000000000000000 ) ;
#155 = EDGE_LOOP ( 'NONE', ( #56, #606, #291, #506 ) ) ;
#156 = DIRECTION ( 'NONE',  ( 1.000000000000000000, 0.000000000000000000, 0.000000000000000000 ) ) ;
#157 = VECTOR ( 'NONE', #728, 1000.000000000000000 ) ;
#158 = LINE ( 'NONE', #633, #129 ) ;
#159 = ORIENTED_EDGE ( 'NONE', *, *, #492, .F. ) ;
#160 = LINE ( 'NONE', #860, #317 ) ;
#161 = ORIENTED_EDGE ( 'NONE', *, *, #519, .T. ) ;
#162 = ORIENTED_EDGE ( 'NONE', *, *, #59, .F. ) ;
#163 = LINE ( 'NONE', #167, #157 ) ;
#164 = DIRECTION ( 'NONE',  ( -1.000000000000000000, 0.000000000000000000, 0.000000000000000000 ) ) ;
#165 = EDGE_CURVE ( 'NONE', #649, #29, #416, .T. ) ;
#166 = VERTEX_POINT ( 'NONE', #900 ) ;
#167 = CARTESIAN_POINT ( 'NONE',  ( 2.540000000000000480, -0.2600000000000000089, -2.000000000000001332 ) ) ;
#168 = LINE ( 'NONE', #100, #303 ) ;
#169 = EDGE_LOOP ( 'NONE', ( #851, #446, #732, #350 ) ) ;
#170 = EDGE_CURVE ( 'NONE', #101, #529, #629, .T. ) ;
#171 = AXIS2_PLACEMENT_3D ( 'NONE', #638, #7, #221 ) ;
#172 = VERTEX_POINT ( 'NONE', #696 ) ;
#173 = DIRECTION ( 'NONE',  ( 0.000000000000000000, 1.000000000000000000, -8.673617379884034486E-16 ) ) ;
#174 = LINE ( 'NONE', #381, #96 ) ;
#175 = ORIENTED_EDGE ( 'NONE', *, *, #170, .T. ) ;
#176 = ORIENTED_EDGE ( 'NONE', *, *, #356, .T. ) ;
#177 = ADVANCED_FACE ( 'NONE', ( #827 ), #702, .F. ) ;
#178 = DIRECTION ( 'NONE',  ( 0.000000000000000000, 0.000000000000000000, 1.000000000000000000 ) ) ;
#179 = CARTESIAN_POINT ( 'NONE',  ( 0.000000000000000000, 0.000000000000000000, 2.464999999999999858 ) ) ;
#180 = CARTESIAN_POINT ( 'NONE',  ( 2.540000000000000036, 0.1000000000000001860, 2.464999999999999858 ) ) ;
#181 = CARTESIAN_POINT ( 'NONE',  ( -2.030000000000000693, 0.2500000000000001110, 2.464999999999999858 ) ) ;
#182 = VERTEX_POINT ( 'NONE', #481 ) ;
#183 = EDGE_CURVE ( 'NONE', #717, #567, #203, .T. ) ;
#184 = CARTESIAN_POINT ( 'NONE',  ( 2.540000000000000480, -0.2600000000000000089, 0.000000000000000000 ) ) ;
#185 = LINE ( 'NONE', #456, #512 ) ;
#186 = PLANE ( 'NONE',  #574 ) ;
#187 = VECTOR ( 'NONE', #566, 1000.000000000000000 ) ;
#188 = ORIENTED_EDGE ( 'NONE', *, *, #881, .F. ) ;
#189 = CARTESIAN_POINT ( 'NONE',  ( 2.179999999999999716, -0.2600000000000000089, -2.464999999999999858 ) ) ;
#190 =( LENGTH_UNIT ( ) NAMED_UNIT ( * ) SI_UNIT ( .MILLI., .METRE. ) );
#191 = ORIENTED_EDGE ( 'NONE', *, *, #217, .F. ) ;
#192 = DIRECTION ( 'NONE',  ( -0.000000000000000000, 0.000000000000000000, -1.000000000000000000 ) ) ;
#193 = EDGE_CURVE ( 'NONE', #753, #740, #348, .T. ) ;
#194 = EDGE_LOOP ( 'NONE', ( #304, #252, #366, #323 ) ) ;
#195 = CARTESIAN_POINT ( 'NONE',  ( -2.540000000000000480, 0.000000000000000000, 1.999999999999998668 ) ) ;
#196 = CARTESIAN_POINT ( 'NONE',  ( 2.540000000000000480, -0.2600000000000000089, -2.464999999999999858 ) ) ;
#197 = CARTESIAN_POINT ( 'NONE',  ( 2.540000000000000480, -0.2600000000000000089, 2.464999999999999858 ) ) ;
#198 = CARTESIAN_POINT ( 'NONE',  ( 2.540000000000000480, -0.2600000000000000089, -2.000000000000001332 ) ) ;
#199 = EDGE_CURVE ( 'NONE', #166, #721, #557, .T. ) ;
#200 = ORIENTED_EDGE ( 'NONE', *, *, #789, .F. ) ;
#201 = LINE ( 'NONE', #293, #114 ) ;
#202 = AXIS2_PLACEMENT_3D ( 'NONE', #339, #11, #295 ) ;
#203 = LINE ( 'NONE', #73, #461 ) ;
#204 = SURFACE_STYLE_FILL_AREA ( #834 ) ;
#205 = EDGE_CURVE ( 'NONE', #885, #796, #354, .T. ) ;
#206 = APPLICATION_CONTEXT ( 'automotive_design' ) ;
#207 = CARTESIAN_POINT ( 'NONE',  ( 0.000000000000000000, -0.7600000000000000089, 2.464999999999999858 ) ) ;
#208 = PLANE ( 'NONE',  #5 ) ;
#209 =( LENGTH_UNIT ( ) NAMED_UNIT ( * ) SI_UNIT ( .MILLI., .METRE. ) );
#210 = VECTOR ( 'NONE', #563, 1000.000000000000000 ) ;
#211 = DIRECTION ( 'NONE',  ( -1.000000000000000000, -0.000000000000000000, -0.000000000000000000 ) ) ;
#212 =( NAMED_UNIT ( * ) PLANE_ANGLE_UNIT ( ) SI_UNIT ( $, .RADIAN. ) );
#213 = AXIS2_PLACEMENT_3D ( 'NONE', #459, #254, #618 ) ;
#214 = CARTESIAN_POINT ( 'NONE',  ( 2.540000000000000036, 7.247035573982055590E-16, 2.464999999999999858 ) ) ;
#215 = EDGE_LOOP ( 'NONE', ( #331, #412, #660, #802 ) ) ;
#216 = CARTESIAN_POINT ( 'NONE',  ( -2.180000000000000604, 0.000000000000000000, 1.999999999999998668 ) ) ;
#217 = EDGE_CURVE ( 'NONE', #628, #717, #632, .T. ) ;
#218 = CARTESIAN_POINT ( 'NONE',  ( 2.540000000000000480, -0.7600000000000000089, -2.000000000000000888 ) ) ;
#219 = PRODUCT ( 'SMD100F-2018-2', 'SMD100F-2018-2', '', ( #417 ) ) ;
#220 = ORIENTED_EDGE ( 'NONE', *, *, #292, .F. ) ;
#221 = DIRECTION ( 'NONE',  ( 1.000000000000000000, 0.000000000000000000, 0.000000000000000000 ) ) ;
#222 = DIRECTION ( 'NONE',  ( 1.000000000000000000, 0.000000000000000000, 0.000000000000000000 ) ) ;
#223 = CARTESIAN_POINT ( 'NONE',  ( 2.179999999999999716, 0.000000000000000000, 2.464999999999999858 ) ) ;
#224 = DIRECTION ( 'NONE',  ( 0.000000000000000000, -1.000000000000000000, 0.000000000000000000 ) ) ;
#225 = ADVANCED_FACE ( 'NONE', ( #418 ), #208, .T. ) ;
#226 = MECHANICAL_DESIGN_GEOMETRIC_PRESENTATION_REPRESENTATION (  '', ( #370 ), #590 ) ;
#227 = CARTESIAN_POINT ( 'NONE',  ( -2.540000000000000480, -0.7600000000000000089, 1.999999999999998668 ) ) ;
#228 = DIRECTION ( 'NONE',  ( -4.268512490100410663E-17, 1.000000000000000000, 0.000000000000000000 ) ) ;
#229 = ORIENTED_EDGE ( 'NONE', *, *, #183, .F. ) ;
#230 = FACE_OUTER_BOUND ( 'NONE', #432, .T. ) ;
#231 = VECTOR ( 'NONE', #777, 1000.000000000000000 ) ;
#232 = VERTEX_POINT ( 'NONE', #410 ) ;
#233 = EDGE_CURVE ( 'NONE', #494, #232, #351, .T. ) ;
#234 = DIRECTION ( 'NONE',  ( 0.000000000000000000, -1.000000000000000000, 0.000000000000000000 ) ) ;
#235 = ORIENTED_EDGE ( 'NONE', *, *, #170, .F. ) ;
#236 = PLANE ( 'NONE',  #868 ) ;
#237 = ORIENTED_EDGE ( 'NONE', *, *, #597, .F. ) ;
#238 = CARTESIAN_POINT ( 'NONE',  ( -2.540000000000000480, -0.2600000000000000089, -2.000000000000001332 ) ) ;
#239 = DIRECTION ( 'NONE',  ( 0.000000000000000000, 0.000000000000000000, -1.000000000000000000 ) ) ;
#240 = ORIENTED_EDGE ( 'NONE', *, *, #233, .F. ) ;
#241 = VERTEX_POINT ( 'NONE', #134 ) ;
#242 = PRESENTATION_LAYER_ASSIGNMENT (  '', '', ( #370 ) ) ;
#243 = DIRECTION ( 'NONE',  ( 0.000000000000000000, 1.000000000000000000, 0.000000000000000000 ) ) ;
#244 = VERTEX_POINT ( 'NONE', #285 ) ;
#245 = VECTOR ( 'NONE', #211, 1000.000000000000000 ) ;
#246 = EDGE_CURVE ( 'NONE', #2, #661, #63, .T. ) ;
#247 = ORIENTED_EDGE ( 'NONE', *, *, #837, .F. ) ;
#248 = CARTESIAN_POINT ( 'NONE',  ( -2.240000000000000657, 0.4600000000000000755, 2.464999999999999858 ) ) ;
#249 = DIRECTION ( 'NONE',  ( 0.000000000000000000, -0.000000000000000000, 1.000000000000000000 ) ) ;
#250 = DIRECTION ( 'NONE',  ( 0.000000000000000000, -1.000000000000000000, 0.000000000000000000 ) ) ;
#251 = CARTESIAN_POINT ( 'NONE',  ( -2.540000000000000480, -0.2600000000000000089, 0.000000000000000000 ) ) ;
#252 = ORIENTED_EDGE ( 'NONE', *, *, #408, .F. ) ;
#253 = LINE ( 'NONE', #738, #154 ) ;
#254 = DIRECTION ( 'NONE',  ( 1.000000000000000000, 0.000000000000000000, -0.000000000000000000 ) ) ;
#255 = ORIENTED_EDGE ( 'NONE', *, *, #842, .F. ) ;
#256 = PLANE ( 'NONE',  #357 ) ;
#257 = CARTESIAN_POINT ( 'NONE',  ( -2.180000000000000604, -0.2600000000000000089, 1.999999999999998668 ) ) ;
#258 = AXIS2_PLACEMENT_3D ( 'NONE', #308, #290, #490 ) ;
#259 = ORIENTED_EDGE ( 'NONE', *, *, #710, .F. ) ;
#260 = VECTOR ( 'NONE', #403, 1000.000000000000000 ) ;
#261 = VECTOR ( 'NONE', #396, 1000.000000000000000 ) ;
#262 = ADVANCED_FACE ( 'NONE', ( #131 ), #689, .F. ) ;
#263 = LINE ( 'NONE', #463, #838 ) ;
#264 = CARTESIAN_POINT ( 'NONE',  ( 2.179999999999999716, -0.1099999999999998757, 2.464999999999999858 ) ) ;
#265 = ORIENTED_EDGE ( 'NONE', *, *, #340, .F. ) ;
#266 = DIRECTION ( 'NONE',  ( -1.000000000000000000, -0.000000000000000000, -0.000000000000000000 ) ) ;
#267 = ADVANCED_FACE ( 'NONE', ( #792 ), #362, .T. ) ;
#268 = VERTEX_POINT ( 'NONE', #504 ) ;
#269 = DIRECTION ( 'NONE',  ( 0.000000000000000000, -1.000000000000000000, 0.000000000000000000 ) ) ;
#270 = DIRECTION ( 'NONE',  ( 0.000000000000000000, 0.000000000000000000, 1.000000000000000000 ) ) ;
#271 = DIRECTION ( 'NONE',  ( 1.000000000000000000, 4.268512490100410663E-17, 0.000000000000000000 ) ) ;
#272 = EDGE_CURVE ( 'NONE', #796, #182, #571, .T. ) ;
#273 = VERTEX_POINT ( 'NONE', #716 ) ;
#274 = AXIS2_PLACEMENT_3D ( 'NONE', #315, #674, #808 ) ;
#275 = VECTOR ( 'NONE', #784, 1000.000000000000000 ) ;
#276 = SURFACE_STYLE_FILL_AREA ( #409 ) ;
#277 = LINE ( 'NONE', #559, #245 ) ;
#278 = VERTEX_POINT ( 'NONE', #227 ) ;
#279 = CARTESIAN_POINT ( 'NONE',  ( 2.540000000000000036, 7.247035573982055590E-16, 2.464999999999999858 ) ) ;
#280 = ORIENTED_EDGE ( 'NONE', *, *, #399, .T. ) ;
#281 = PLANE ( 'NONE',  #81 ) ;
#282 = DIRECTION ( 'NONE',  ( -0.000000000000000000, 0.000000000000000000, 1.000000000000000000 ) ) ;
#283 = ORIENTED_EDGE ( 'NONE', *, *, #287, .T. ) ;
#284 = VECTOR ( 'NONE', #634, 1000.000000000000000 ) ;
#285 = CARTESIAN_POINT ( 'NONE',  ( 2.540000000000000036, 0.1000000000000001860, -2.464999999999999858 ) ) ;
#286 = PRESENTATION_LAYER_ASSIGNMENT (  '', '', ( #518 ) ) ;
#287 = EDGE_CURVE ( 'NONE', #536, #880, #439, .T. ) ;
#288 = CARTESIAN_POINT ( 'NONE',  ( 0.000000000000000000, -0.2600000000000000089, -2.464999999999999858 ) ) ;
#289 = ORIENTED_EDGE ( 'NONE', *, *, #531, .T. ) ;
#290 = DIRECTION ( 'NONE',  ( 0.000000000000000000, -8.673617379884034486E-16, -1.000000000000000000 ) ) ;
#291 = ORIENTED_EDGE ( 'NONE', *, *, #748, .F. ) ;
#292 = EDGE_CURVE ( 'NONE', #297, #529, #160, .T. ) ;
#293 = CARTESIAN_POINT ( 'NONE',  ( 2.540000000000000036, 7.247035573982055590E-16, 2.464999999999999858 ) ) ;
#294 = ORIENTED_EDGE ( 'NONE', *, *, #525, .T. ) ;
#295 = DIRECTION ( 'NONE',  ( -0.000000000000000000, 0.000000000000000000, -1.000000000000000000 ) ) ;
#296 = DIRECTION ( 'NONE',  ( 0.000000000000000000, -0.000000000000000000, 1.000000000000000000 ) ) ;
#297 = VERTEX_POINT ( 'NONE', #367 ) ;
#298 = EDGE_CURVE ( 'NONE', #241, #666, #788, .T. ) ;
#299 = ORIENTED_EDGE ( 'NONE', *, *, #287, .F. ) ;
#300 = CARTESIAN_POINT ( 'NONE',  ( 2.540000000000000480, -0.7600000000000000089, 1.999999999999998668 ) ) ;
#301 = AXIS2_PLACEMENT_3D ( 'NONE', #831, #835, #833 ) ;
#302 = VERTEX_POINT ( 'NONE', #645 ) ;
#303 = VECTOR ( 'NONE', #320, 1000.000000000000000 ) ;
#304 = ORIENTED_EDGE ( 'NONE', *, *, #551, .F. ) ;
#305 = LINE ( 'NONE', #729, #420 ) ;
#306 = ORIENTED_EDGE ( 'NONE', *, *, #657, .T. ) ;
#307 = EDGE_LOOP ( 'NONE', ( #745, #383, #240, #391 ) ) ;
#308 = CARTESIAN_POINT ( 'NONE',  ( 2.540000000000000480, -1.734723475976808672E-15, -2.000000000000001776 ) ) ;
#309 = CARTESIAN_POINT ( 'NONE',  ( -1.820000000000000506, 0.04000000000000010492, -2.464999999999999858 ) ) ;
#310 = ORIENTED_EDGE ( 'NONE', *, *, #345, .F. ) ;
#311 = CARTESIAN_POINT ( 'NONE',  ( -2.540000000000000480, -0.2600000000000000089, 2.464999999999999858 ) ) ;
#312 = ORIENTED_EDGE ( 'NONE', *, *, #128, .T. ) ;
#313 = COLOUR_RGB ( '',0.8431372549019607865, 0.8431372549019607865, 0.8431372549019607865 ) ;
#314 = CARTESIAN_POINT ( 'NONE',  ( -2.540000000000000480, 0.4600000000000000755, 2.464999999999999858 ) ) ;
#315 = CARTESIAN_POINT ( 'NONE',  ( 0.000000000000000000, 0.04000000000000010492, 2.464999999999999858 ) ) ;
#316 = EDGE_CURVE ( 'NONE', #598, #863, #15, .T. ) ;
#317 = VECTOR ( 'NONE', #88, 1000.000000000000000 ) ;
#318 = COLOUR_RGB ( '',0.8431372549019607865, 0.8431372549019607865, 0.8431372549019607865 ) ;
#319 = VERTEX_POINT ( 'NONE', #238 ) ;
#320 = DIRECTION ( 'NONE',  ( 0.000000000000000000, -0.000000000000000000, 1.000000000000000000 ) ) ;
#321 = DIRECTION ( 'NONE',  ( -0.000000000000000000, -0.000000000000000000, -1.000000000000000000 ) ) ;
#322 = LINE ( 'NONE', #49, #260 ) ;
#323 = ORIENTED_EDGE ( 'NONE', *, *, #298, .F. ) ;
#324 = DIRECTION ( 'NONE',  ( -0.000000000000000000, 0.000000000000000000, -1.000000000000000000 ) ) ;
#325 = EDGE_LOOP ( 'NONE', ( #237, #434, #501, #102 ) ) ;
#326 = EDGE_CURVE ( 'NONE', #643, #278, #568, .T. ) ;
#327 = CARTESIAN_POINT ( 'NONE',  ( 2.540000000000000480, -1.734723475976808672E-15, -2.000000000000001776 ) ) ;
#328 = DIRECTION ( 'NONE',  ( 1.000000000000000000, -9.035018104045872913E-16, 0.000000000000000000 ) ) ;
#329 = FACE_OUTER_BOUND ( 'NONE', #654, .T. ) ;
#330 = VECTOR ( 'NONE', #692, 1000.000000000000000 ) ;
#331 = ORIENTED_EDGE ( 'NONE', *, *, #353, .T. ) ;
#332 = AXIS2_PLACEMENT_3D ( 'NONE', #223, #573, #376 ) ;
#333 = FACE_OUTER_BOUND ( 'NONE', #337, .T. ) ;
#334 = PLANE ( 'NONE',  #530 ) ;
#335 = CARTESIAN_POINT ( 'NONE',  ( 2.540000000000000480, 0.000000000000000000, 1.999999999999998668 ) ) ;
#336 = CARTESIAN_POINT ( 'NONE',  ( -1.820000000000000506, 0.000000000000000000, -2.464999999999999858 ) ) ;
#337 = EDGE_LOOP ( 'NONE', ( #589, #844, #395, #644, #62, #787, #247, #280 ) ) ;
#338 = LINE ( 'NONE', #476, #330 ) ;
#339 = CARTESIAN_POINT ( 'NONE',  ( -2.540000000000000480, 0.000000000000000000, 2.464999999999999858 ) ) ;
#340 = EDGE_CURVE ( 'NONE', #680, #241, #380, .T. ) ;
#341 = ORIENTED_EDGE ( 'NONE', *, *, #865, .F. ) ;
#342 = LINE ( 'NONE', #288, #576 ) ;
#343 = CARTESIAN_POINT ( 'NONE',  ( 2.179999999999999716, -0.1099999999999998757, -2.464999999999999858 ) ) ;
#344 = PRODUCT_DEFINITION_FORMATION_WITH_SPECIFIED_SOURCE ( 'ANY', '', #219, .NOT_KNOWN. ) ;
#345 = EDGE_CURVE ( 'NONE', #182, #536, #509, .T. ) ;
#346 = ORIENTED_EDGE ( 'NONE', *, *, #31, .F. ) ;
#347 = VECTOR ( 'NONE', #250, 1000.000000000000000 ) ;
#348 = LINE ( 'NONE', #60, #593 ) ;
#349 = PRODUCT_DEFINITION_CONTEXT ( 'detailed design', #720, 'design' ) ;
#350 = ORIENTED_EDGE ( 'NONE', *, *, #217, .T. ) ;
#351 = LINE ( 'NONE', #761, #34 ) ;
#352 = EDGE_LOOP ( 'NONE', ( #488, #890, #622, #147, #462, #19, #510, #672 ) ) ;
#353 = EDGE_CURVE ( 'NONE', #643, #666, #651, .T. ) ;
#354 = LINE ( 'NONE', #694, #668 ) ;
#355 = CIRCLE ( 'NONE', #150, 0.2999999999999999334 ) ;
#356 = EDGE_CURVE ( 'NONE', #796, #880, #163, .T. ) ;
#357 = AXIS2_PLACEMENT_3D ( 'NONE', #611, #884, #538 ) ;
#358 = CARTESIAN_POINT ( 'NONE',  ( -2.180000000000000604, -0.2600000000000000089, 2.464999999999999858 ) ) ;
#359 = CYLINDRICAL_SURFACE ( 'NONE', #535, 0.1499999999999999667 ) ;
#360 = CIRCLE ( 'NONE', #596, 0.2999999999999999334 ) ;
#361 = ORIENTED_EDGE ( 'NONE', *, *, #246, .T. ) ;
#362 = PLANE ( 'NONE',  #483 ) ;
#363 = ORIENTED_EDGE ( 'NONE', *, *, #394, .F. ) ;
#364 = ADVANCED_FACE ( 'NONE', ( #99 ), #658, .T. ) ;
#365 = PRODUCT_DEFINITION_SHAPE ( 'NONE', 'NONE',  #688 ) ;
#366 = ORIENTED_EDGE ( 'NONE', *, *, #71, .F. ) ;
#367 = CARTESIAN_POINT ( 'NONE',  ( -2.030000000000000693, 0.4000000000000000777, 2.464999999999999858 ) ) ;
#368 = DIRECTION ( 'NONE',  ( 1.000000000000000000, 0.000000000000000000, 0.000000000000000000 ) ) ;
#369 = EDGE_LOOP ( 'NONE', ( #870, #585, #503, #22, #569, #819, #16, #817 ) ) ;
#370 = STYLED_ITEM ( 'NONE', ( #130 ), #791 ) ;
#371 = ORIENTED_EDGE ( 'NONE', *, *, #246, .F. ) ;
#372 = CARTESIAN_POINT ( 'NONE',  ( -2.180000000000000604, -3.872770160118223416E-15, -2.000000000000002220 ) ) ;
#373 = AXIS2_PLACEMENT_3D ( 'NONE', #106, #48, #192 ) ;
#374 = LINE ( 'NONE', #793, #20 ) ;
#375 = VECTOR ( 'NONE', #21, 1000.000000000000000 ) ;
#376 = DIRECTION ( 'NONE',  ( -0.000000000000000000, 0.000000000000000000, -1.000000000000000000 ) ) ;
#377 = CIRCLE ( 'NONE', #484, 0.1499999999999999667 ) ;
#378 = AXIS2_PLACEMENT_3D ( 'NONE', #733, #153, #164 ) ;
#379 = VERTEX_POINT ( 'NONE', #774 ) ;
#380 = LINE ( 'NONE', #857, #52 ) ;
#381 = CARTESIAN_POINT ( 'NONE',  ( -1.820000000000000506, 0.04000000000000010492, 2.464999999999999858 ) ) ;
#382 = ORIENTED_EDGE ( 'NONE', *, *, #648, .F. ) ;
#383 = ORIENTED_EDGE ( 'NONE', *, *, #752, .F. ) ;
#384 = ADVANCED_FACE ( 'NONE', ( #148 ), #426, .T. ) ;
#385 = CARTESIAN_POINT ( 'NONE',  ( 2.179999999999999716, -0.1099999999999998757, -2.464999999999999858 ) ) ;
#386 = EDGE_LOOP ( 'NONE', ( #306, #122, #259, #200 ) ) ;
#387 = DIRECTION ( 'NONE',  ( 0.000000000000000000, 0.000000000000000000, 1.000000000000000000 ) ) ;
#388 = DIRECTION ( 'NONE',  ( -0.000000000000000000, -0.000000000000000000, -1.000000000000000000 ) ) ;
#389 = CARTESIAN_POINT ( 'NONE',  ( 2.179999999999999716, -0.2600000000000000089, 2.464999999999999858 ) ) ;
#390 = AXIS2_PLACEMENT_3D ( 'NONE', #184, #447, #41 ) ;
#391 = ORIENTED_EDGE ( 'NONE', *, *, #789, .T. ) ;
#392 = CARTESIAN_POINT ( 'NONE',  ( -2.030000000000000693, 0.4000000000000000777, 2.464999999999999858 ) ) ;
#393 = DIRECTION ( 'NONE',  ( -1.000000000000000000, 0.000000000000000000, 0.000000000000000000 ) ) ;
#394 = EDGE_CURVE ( 'NONE', #524, #133, #811, .T. ) ;
#395 = ORIENTED_EDGE ( 'NONE', *, *, #205, .F. ) ;
#396 = DIRECTION ( 'NONE',  ( 0.000000000000000000, 0.000000000000000000, -1.000000000000000000 ) ) ;
#397 = PLANE ( 'NONE',  #373 ) ;
#398 =( NAMED_UNIT ( * ) PLANE_ANGLE_UNIT ( ) SI_UNIT ( $, .RADIAN. ) );
#399 = EDGE_CURVE ( 'NONE', #656, #508, #845, .T. ) ;
#400 = EDGE_LOOP ( 'NONE', ( #584, #517, #749, #640 ) ) ;
#401 = FACE_OUTER_BOUND ( 'NONE', #50, .T. ) ;
#402 = DIRECTION ( 'NONE',  ( 0.000000000000000000, 1.000000000000000000, 0.000000000000000000 ) ) ;
#403 = DIRECTION ( 'NONE',  ( 1.000000000000000000, 0.000000000000000000, 0.000000000000000000 ) ) ;
#404 = AXIS2_PLACEMENT_3D ( 'NONE', #623, #555, #763 ) ;
#405 = ORIENTED_EDGE ( 'NONE', *, *, #13, .T. ) ;
#406 = VECTOR ( 'NONE', #126, 1000.000000000000000 ) ;
#407 = CARTESIAN_POINT ( 'NONE',  ( 0.000000000000000000, 0.4000000000000000777, 2.464999999999999858 ) ) ;
#408 = EDGE_CURVE ( 'NONE', #273, #602, #711, .T. ) ;
#409 = FILL_AREA_STYLE ('',( #737 ) ) ;
#410 = CARTESIAN_POINT ( 'NONE',  ( -1.820000000000000506, 0.04000000000000010492, 2.464999999999999858 ) ) ;
#411 = DIRECTION ( 'NONE',  ( -0.000000000000000000, 0.000000000000000000, 1.000000000000000000 ) ) ;
#412 = ORIENTED_EDGE ( 'NONE', *, *, #71, .T. ) ;
#413 = DIRECTION ( 'NONE',  ( 1.000000000000000000, 0.000000000000000000, 0.000000000000000000 ) ) ;
#414 =( NAMED_UNIT ( * ) SI_UNIT ( $, .STERADIAN. ) SOLID_ANGLE_UNIT ( ) );
#415 = EDGE_CURVE ( 'NONE', #680, #297, #742, .T. ) ;
#416 = LINE ( 'NONE', #343, #284 ) ;
#417 = PRODUCT_CONTEXT ( 'NONE', #206, 'mechanical' ) ;
#418 = FACE_OUTER_BOUND ( 'NONE', #80, .T. ) ;
#419 = VECTOR ( 'NONE', #387, 1000.000000000000000 ) ;
#420 = VECTOR ( 'NONE', #239, 1000.000000000000000 ) ;
#421 = DIRECTION ( 'NONE',  ( 0.000000000000000000, 1.000000000000000000, 0.000000000000000000 ) ) ;
#422 = ADVANCED_FACE ( 'NONE', ( #736 ), #662, .T. ) ;
#423 = FACE_OUTER_BOUND ( 'NONE', #520, .T. ) ;
#424 = CARTESIAN_POINT ( 'NONE',  ( 2.540000000000000036, 0.4000000000000000777, 2.464999999999999858 ) ) ;
#425 = EDGE_CURVE ( 'NONE', #133, #379, #608, .T. ) ;
#426 = PLANE ( 'NONE',  #561 ) ;
#427 = LINE ( 'NONE', #624, #115 ) ;
#428 = ORIENTED_EDGE ( 'NONE', *, *, #551, .T. ) ;
#429 = VECTOR ( 'NONE', #92, 1000.000000000000000 ) ;
#430 = DIRECTION ( 'NONE',  ( 0.000000000000000000, -0.000000000000000000, -1.000000000000000000 ) ) ;
#431 = CARTESIAN_POINT ( 'NONE',  ( -2.180000000000000604, 0.2500000000000001110, -2.464999999999999858 ) ) ;
#432 = EDGE_LOOP ( 'NONE', ( #299, #540, #546, #229, #33, #759, #647, #866 ) ) ;
#433 = LINE ( 'NONE', #713, #782 ) ;
#434 = ORIENTED_EDGE ( 'NONE', *, *, #425, .T. ) ;
#435 = DIRECTION ( 'NONE',  ( 1.000000000000000000, 0.000000000000000000, 0.000000000000000000 ) ) ;
#436 = VERTEX_POINT ( 'NONE', #682 ) ;
#437 = CARTESIAN_POINT ( 'NONE',  ( 2.540000000000000036, 7.247035573982055590E-16, -2.464999999999999858 ) ) ;
#438 = EDGE_LOOP ( 'NONE', ( #161, #428, #265, #451, #691, #235, #139, #701 ) ) ;
#439 = LINE ( 'NONE', #578, #275 ) ;
#440 = FACE_OUTER_BOUND ( 'NONE', #619, .T. ) ;
#441 = VERTEX_POINT ( 'NONE', #314 ) ;
#442 = EDGE_LOOP ( 'NONE', ( #790, #785, #341, #478 ) ) ;
#443 = DIRECTION ( 'NONE',  ( -1.000000000000000000, -0.000000000000000000, -0.000000000000000000 ) ) ;
#444 = VECTOR ( 'NONE', #145, 1000.000000000000000 ) ;
#445 = ADVANCED_FACE ( 'NONE', ( #51 ), #586, .T. ) ;
#446 = ORIENTED_EDGE ( 'NONE', *, *, #13, .F. ) ;
#447 = DIRECTION ( 'NONE',  ( 0.000000000000000000, -1.000000000000000000, 0.000000000000000000 ) ) ;
#448 = DIRECTION ( 'NONE',  ( -0.000000000000000000, 0.000000000000000000, 1.000000000000000000 ) ) ;
#449 = FACE_OUTER_BOUND ( 'NONE', #194, .T. ) ;
#450 = DIRECTION ( 'NONE',  ( 1.000000000000000000, 4.268512490100410663E-17, 0.000000000000000000 ) ) ;
#451 = ORIENTED_EDGE ( 'NONE', *, *, #415, .T. ) ;
#452 = DIRECTION ( 'NONE',  ( 0.000000000000000000, -8.673617379884034486E-16, -1.000000000000000000 ) ) ;
#453 = LINE ( 'NONE', #37, #610 ) ;
#454 = FILL_AREA_STYLE ('',( #61 ) ) ;
#455 = ORIENTED_EDGE ( 'NONE', *, *, #748, .T. ) ;
#456 = CARTESIAN_POINT ( 'NONE',  ( 2.539999999999999591, 0.7600000000000002309, 2.464999999999999858 ) ) ;
#457 = ADVANCED_FACE ( 'NONE', ( #667 ), #104, .T. ) ;
#458 = CARTESIAN_POINT ( 'NONE',  ( -2.180000000000000604, 0.2500000000000001110, 2.464999999999999858 ) ) ;
#459 = CARTESIAN_POINT ( 'NONE',  ( -1.820000000000000506, 0.000000000000000000, 2.464999999999999858 ) ) ;
#460 = VECTOR ( 'NONE', #224, 1000.000000000000000 ) ;
#461 = VECTOR ( 'NONE', #892, 1000.000000000000000 ) ;
#462 = ORIENTED_EDGE ( 'NONE', *, *, #64, .T. ) ;
#463 = CARTESIAN_POINT ( 'NONE',  ( 2.540000000000000036, 0.4000000000000000777, 2.464999999999999858 ) ) ;
#464 = ORIENTED_EDGE ( 'NONE', *, *, #531, .F. ) ;
#465 = CARTESIAN_POINT ( 'NONE',  ( -2.540000000000000480, -0.2600000000000000089, 0.000000000000000000 ) ) ;
#466 = DIRECTION ( 'NONE',  ( -0.000000000000000000, -0.000000000000000000, -1.000000000000000000 ) ) ;
#467 = CARTESIAN_POINT ( 'NONE',  ( 2.539999999999999591, 0.7600000000000002309, 2.464999999999999858 ) ) ;
#468 = DIRECTION ( 'NONE',  ( 0.000000000000000000, 0.000000000000000000, 1.000000000000000000 ) ) ;
#469 = ORIENTED_EDGE ( 'NONE', *, *, #199, .T. ) ;
#470 = CARTESIAN_POINT ( 'NONE',  ( -2.540000000000000480, 0.4600000000000000755, -2.464999999999999858 ) ) ;
#471 = CARTESIAN_POINT ( 'NONE',  ( -0.000000000000000000, 0.4000000000000000777, -2.464999999999999858 ) ) ;
#472 = LINE ( 'NONE', #251, #883 ) ;
#473 = VECTOR ( 'NONE', #485, 1000.000000000000000 ) ;
#474 = ORIENTED_EDGE ( 'NONE', *, *, #639, .F. ) ;
#475 = ADVANCED_FACE ( 'NONE', ( #36 ), #146, .F. ) ;
#476 = CARTESIAN_POINT ( 'NONE',  ( -2.540000000000000480, -1.734723475976808672E-15, -2.000000000000001776 ) ) ;
#477 = CARTESIAN_POINT ( 'NONE',  ( 2.179999999999999716, -0.7600000000000000089, 2.464999999999999858 ) ) ;
#478 = ORIENTED_EDGE ( 'NONE', *, *, #545, .F. ) ;
#479 = DIRECTION ( 'NONE',  ( 1.000000000000000000, 0.000000000000000000, 0.000000000000000000 ) ) ;
#480 = LINE ( 'NONE', #770, #685 ) ;
#481 = CARTESIAN_POINT ( 'NONE',  ( 2.540000000000000480, -0.7600000000000000089, -2.000000000000000888 ) ) ;
#482 = CARTESIAN_POINT ( 'NONE',  ( -2.180000000000000604, -0.2600000000000000089, -2.464999999999999858 ) ) ;
#483 = AXIS2_PLACEMENT_3D ( 'NONE', #83, #498, #435 ) ;
#484 = AXIS2_PLACEMENT_3D ( 'NONE', #700, #448, #222 ) ;
#485 = DIRECTION ( 'NONE',  ( -0.000000000000000000, -0.000000000000000000, -1.000000000000000000 ) ) ;
#486 = SURFACE_STYLE_USAGE ( .BOTH. , #896 ) ;
#487 = ADVANCED_FACE ( 'NONE', ( #333 ), #773, .T. ) ;
#488 = ORIENTED_EDGE ( 'NONE', *, *, #31, .T. ) ;
#489 = DIRECTION ( 'NONE',  ( 2.853163611803958777E-16, -1.000000000000000000, 0.000000000000000000 ) ) ;
#490 = DIRECTION ( 'NONE',  ( 0.000000000000000000, 1.000000000000000000, -8.673617379884034486E-16 ) ) ;
#491 = DIRECTION ( 'NONE',  ( 1.000000000000000000, 0.000000000000000000, 0.000000000000000000 ) ) ;
#492 = EDGE_CURVE ( 'NONE', #72, #628, #201, .T. ) ;
#493 = CARTESIAN_POINT ( 'NONE',  ( 2.540000000000000480, 0.000000000000000000, 1.999999999999998668 ) ) ;
#494 = VERTEX_POINT ( 'NONE', #707 ) ;
#495 = LINE ( 'NONE', #780, #66 ) ;
#496 = EDGE_CURVE ( 'NONE', #72, #268, #140, .T. ) ;
#497 = AXIS2_PLACEMENT_3D ( 'NONE', #407, #547, #826 ) ;
#498 = DIRECTION ( 'NONE',  ( -0.000000000000000000, 0.000000000000000000, 1.000000000000000000 ) ) ;
#499 = CARTESIAN_POINT ( 'NONE',  ( 2.029999999999999805, -0.1099999999999998757, 2.464999999999999858 ) ) ;
#500 = VECTOR ( 'NONE', #690, 1000.000000000000000 ) ;
#501 = ORIENTED_EDGE ( 'NONE', *, *, #719, .T. ) ;
#502 = LINE ( 'NONE', #437, #613 ) ;
#503 = ORIENTED_EDGE ( 'NONE', *, *, #565, .F. ) ;
#504 = CARTESIAN_POINT ( 'NONE',  ( 2.240000000000000213, 0.4000000000000000777, 2.464999999999999858 ) ) ;
#505 = FACE_OUTER_BOUND ( 'NONE', #325, .T. ) ;
#506 = ORIENTED_EDGE ( 'NONE', *, *, #84, .F. ) ;
#507 = CARTESIAN_POINT ( 'NONE',  ( -0.000000000000000000, 0.04000000000000010492, -2.464999999999999858 ) ) ;
#508 = VERTEX_POINT ( 'NONE', #636 ) ;
#509 = LINE ( 'NONE', #25, #781 ) ;
#510 = ORIENTED_EDGE ( 'NONE', *, *, #298, .T. ) ;
#511 = EDGE_CURVE ( 'NONE', #319, #436, #338, .T. ) ;
#512 = VECTOR ( 'NONE', #466, 1000.000000000000000 ) ;
#513 = EDGE_LOOP ( 'NONE', ( #220, #127, #361, #162 ) ) ;
#514 = CARTESIAN_POINT ( 'NONE',  ( -2.030000000000000693, 0.2500000000000001110, 2.464999999999999858 ) ) ;
#515 = DIRECTION ( 'NONE',  ( -0.000000000000000000, -0.000000000000000000, -1.000000000000000000 ) ) ;
#516 = VECTOR ( 'NONE', #324, 1000.000000000000000 ) ;
#517 = ORIENTED_EDGE ( 'NONE', *, *, #199, .F. ) ;
#518 = STYLED_ITEM ( 'NONE', ( #815 ), #706 ) ;
#519 = EDGE_CURVE ( 'NONE', #441, #602, #6, .T. ) ;
#520 = EDGE_LOOP ( 'NONE', ( #855, #346, #575, #839 ) ) ;
#521 = DIRECTION ( 'NONE',  ( 0.000000000000000000, 0.000000000000000000, -1.000000000000000000 ) ) ;
#522 = LINE ( 'NONE', #336, #500 ) ;
#523 = APPLICATION_PROTOCOL_DEFINITION ( 'draft international standard', 'automotive_design', 1998, #720 ) ;
#524 = VERTEX_POINT ( 'NONE', #470 ) ;
#525 = EDGE_CURVE ( 'NONE', #244, #885, #495, .T. ) ;
#526 = CARTESIAN_POINT ( 'NONE',  ( 2.179999999999999716, -0.2600000000000000089, 2.464999999999999858 ) ) ;
#527 = CARTESIAN_POINT ( 'NONE',  ( 2.540000000000000480, -0.2600000000000000089, 1.999999999999998668 ) ) ;
#528 = CARTESIAN_POINT ( 'NONE',  ( -2.240000000000000657, 0.4600000000000000755, 2.464999999999999858 ) ) ;
#529 = VERTEX_POINT ( 'NONE', #424 ) ;
#530 = AXIS2_PLACEMENT_3D ( 'NONE', #179, #803, #877 ) ;
#531 = EDGE_CURVE ( 'NONE', #723, #740, #342, .T. ) ;
#532 = ORIENTED_EDGE ( 'NONE', *, *, #77, .F. ) ;
#533 = FACE_OUTER_BOUND ( 'NONE', #810, .T. ) ;
#534 = VECTOR ( 'NONE', #757, 1000.000000000000000 ) ;
#535 = AXIS2_PLACEMENT_3D ( 'NONE', #8, #778, #722 ) ;
#536 = VERTEX_POINT ( 'NONE', #714 ) ;
#537 = APPLICATION_PROTOCOL_DEFINITION ( 'draft international standard', 'automotive_design', 1998, #206 ) ;
#538 = DIRECTION ( 'NONE',  ( -2.853163611803958777E-16, 1.000000000000000000, 0.000000000000000000 ) ) ;
#539 =( NAMED_UNIT ( * ) SI_UNIT ( $, .STERADIAN. ) SOLID_ANGLE_UNIT ( ) );
#540 = ORIENTED_EDGE ( 'NONE', *, *, #137, .F. ) ;
#541 = DIRECTION ( 'NONE',  ( -2.853163611803958777E-16, 1.000000000000000000, 0.000000000000000000 ) ) ;
#542 = CARTESIAN_POINT ( 'NONE',  ( 2.539999999999999591, 0.7600000000000002309, -2.464999999999999858 ) ) ;
#543 = DIRECTION ( 'NONE',  ( 0.000000000000000000, 0.000000000000000000, -1.000000000000000000 ) ) ;
#544 = DIRECTION ( 'NONE',  ( -0.000000000000000000, 0.000000000000000000, -1.000000000000000000 ) ) ;
#545 = EDGE_CURVE ( 'NONE', #268, #302, #1, .T. ) ;
#546 = ORIENTED_EDGE ( 'NONE', *, *, #103, .T. ) ;
#547 = DIRECTION ( 'NONE',  ( 0.000000000000000000, 1.000000000000000000, 0.000000000000000000 ) ) ;
#548 = SURFACE_STYLE_USAGE ( .BOTH. , #756 ) ;
#549 = CARTESIAN_POINT ( 'NONE',  ( -2.240000000000000657, 0.7600000000000000089, -2.464999999999999858 ) ) ;
#550 = CARTESIAN_POINT ( 'NONE',  ( -2.540000000000000480, -0.2600000000000000089, -2.464999999999999858 ) ) ;
#551 = EDGE_CURVE ( 'NONE', #602, #241, #158, .T. ) ;
#552 = VECTOR ( 'NONE', #402, 1000.000000000000000 ) ;
#553 = ORIENTED_EDGE ( 'NONE', *, *, #648, .T. ) ;
#554 = CARTESIAN_POINT ( 'NONE',  ( 0.000000000000000000, 0.000000000000000000, 0.000000000000000000 ) ) ;
#555 = DIRECTION ( 'NONE',  ( 0.000000000000000000, 0.000000000000000000, -1.000000000000000000 ) ) ;
#556 = EDGE_CURVE ( 'NONE', #598, #436, #843, .T. ) ;
#557 = LINE ( 'NONE', #135, #210 ) ;
#558 = EDGE_CURVE ( 'NONE', #29, #166, #758, .T. ) ;
#559 = CARTESIAN_POINT ( 'NONE',  ( 2.540000000000000480, -0.7600000000000000089, 1.999999999999998668 ) ) ;
#560 = CLOSED_SHELL ( 'NONE', ( #588, #775, #487, #902, #582, #848, #671, #24, #762, #771, #422, #225, #39, #445 ) ) ;
#561 = AXIS2_PLACEMENT_3D ( 'NONE', #704, #78, #430 ) ;
#562 = COLOUR_RGB ( '',0.8431372549019607865, 0.8431372549019607865, 0.8431372549019607865 ) ;
#563 = DIRECTION ( 'NONE',  ( -0.000000000000000000, -0.000000000000000000, 1.000000000000000000 ) ) ;
#564 = LINE ( 'NONE', #836, #812 ) ;
#565 = EDGE_CURVE ( 'NONE', #273, #278, #149, .T. ) ;
#566 = DIRECTION ( 'NONE',  ( -0.000000000000000000, 0.000000000000000000, -1.000000000000000000 ) ) ;
#567 = VERTEX_POINT ( 'NONE', #755 ) ;
#568 = LINE ( 'NONE', #300, #854 ) ;
#569 = ORIENTED_EDGE ( 'NONE', *, *, #519, .F. ) ;
#570 = DIRECTION ( 'NONE',  ( 2.853163611803958777E-16, -1.000000000000000000, 0.000000000000000000 ) ) ;
#571 = LINE ( 'NONE', #583, #708 ) ;
#572 = ORIENTED_EDGE ( 'NONE', *, *, #824, .T. ) ;
#573 = DIRECTION ( 'NONE',  ( 1.000000000000000000, 0.000000000000000000, -0.000000000000000000 ) ) ;
#574 = AXIS2_PLACEMENT_3D ( 'NONE', #335, #521, #665 ) ;
#575 = ORIENTED_EDGE ( 'NONE', *, *, #326, .T. ) ;
#576 = VECTOR ( 'NONE', #75, 1000.000000000000000 ) ;
#577 = MECHANICAL_DESIGN_GEOMETRIC_PRESENTATION_REPRESENTATION (  '', ( #35 ), #18 ) ;
#578 = CARTESIAN_POINT ( 'NONE',  ( 2.179999999999999716, -3.872770160118223416E-15, -2.000000000000002220 ) ) ;
#579 = ORIENTED_EDGE ( 'NONE', *, *, #881, .T. ) ;
#580 = DIRECTION ( 'NONE',  ( 2.853163611803958777E-16, -1.000000000000000000, 0.000000000000000000 ) ) ;
#581 = ORIENTED_EDGE ( 'NONE', *, *, #601, .T. ) ;
#582 = ADVANCED_FACE ( 'NONE', ( #595 ), #236, .F. ) ;
#583 = CARTESIAN_POINT ( 'NONE',  ( 2.540000000000000480, -1.734723475976808672E-15, -2.000000000000001776 ) ) ;
#584 = ORIENTED_EDGE ( 'NONE', *, *, #783, .F. ) ;
#585 = ORIENTED_EDGE ( 'NONE', *, *, #151, .F. ) ;
#586 = PLANE ( 'NONE',  #390 ) ;
#587 = CYLINDRICAL_SURFACE ( 'NONE', #378, 0.2999999999999999334 ) ;
#588 = ADVANCED_FACE ( 'NONE', ( #230 ), #718, .F. ) ;
#589 = ORIENTED_EDGE ( 'NONE', *, *, #842, .T. ) ;
#590 =( GEOMETRIC_REPRESENTATION_CONTEXT ( 3 ) GLOBAL_UNCERTAINTY_ASSIGNED_CONTEXT ( ( #138 ) ) GLOBAL_UNIT_ASSIGNED_CONTEXT ( ( #58, #693, #414 ) ) REPRESENTATION_CONTEXT ( 'NONE', 'WORKASPACE' ) );
#591 = ORIENTED_EDGE ( 'NONE', *, *, #681, .F. ) ;
#592 = LINE ( 'NONE', #673, #143 ) ;
#593 = VECTOR ( 'NONE', #621, 1000.000000000000000 ) ;
#594 = DIRECTION ( 'NONE',  ( 0.000000000000000000, -1.000000000000000000, 0.000000000000000000 ) ) ;
#595 = FACE_OUTER_BOUND ( 'NONE', #846, .T. ) ;
#596 = AXIS2_PLACEMENT_3D ( 'NONE', #528, #55, #889 ) ;
#597 = EDGE_CURVE ( 'NONE', #133, #864, #655, .T. ) ;
#598 = VERTEX_POINT ( 'NONE', #28 ) ;
#599 = CARTESIAN_POINT ( 'NONE',  ( 2.540000000000000480, -0.7600000000000000089, 2.464999999999999858 ) ) ;
#600 = ORIENTED_EDGE ( 'NONE', *, *, #110, .F. ) ;
#601 = EDGE_CURVE ( 'NONE', #864, #661, #502, .T. ) ;
#602 = VERTEX_POINT ( 'NONE', #311 ) ;
#603 = PLANE ( 'NONE',  #635 ) ;
#604 = FACE_OUTER_BOUND ( 'NONE', #631, .T. ) ;
#605 = CYLINDRICAL_SURFACE ( 'NONE', #686, 0.1499999999999999667 ) ;
#606 = ORIENTED_EDGE ( 'NONE', *, *, #64, .F. ) ;
#607 =( GEOMETRIC_REPRESENTATION_CONTEXT ( 3 ) GLOBAL_UNCERTAINTY_ASSIGNED_CONTEXT ( ( #832 ) ) GLOBAL_UNIT_ASSIGNED_CONTEXT ( ( #609, #116, #663 ) ) REPRESENTATION_CONTEXT ( 'NONE', 'WORKASPACE' ) );
#608 = LINE ( 'NONE', #123, #853 ) ;
#609 =( LENGTH_UNIT ( ) NAMED_UNIT ( * ) SI_UNIT ( .MILLI., .METRE. ) );
#610 = VECTOR ( 'NONE', #321, 1000.000000000000000 ) ;
#611 = CARTESIAN_POINT ( 'NONE',  ( 2.540000000000000036, 7.247035573982055590E-16, 2.464999999999999858 ) ) ;
#612 = DIRECTION ( 'NONE',  ( 0.000000000000000000, -1.000000000000000000, 0.000000000000000000 ) ) ;
#613 = VECTOR ( 'NONE', #580, 1000.000000000000000 ) ;
#614 = ORIENTED_EDGE ( 'NONE', *, *, #616, .F. ) ;
#615 = DIRECTION ( 'NONE',  ( 1.000000000000000000, 0.000000000000000000, 0.000000000000000000 ) ) ;
#616 = EDGE_CURVE ( 'NONE', #776, #166, #786, .T. ) ;
#617 = LINE ( 'NONE', #111, #897 ) ;
#618 = DIRECTION ( 'NONE',  ( -0.000000000000000000, 0.000000000000000000, -1.000000000000000000 ) ) ;
#619 = EDGE_LOOP ( 'NONE', ( #310, #255, #312, #806 ) ) ;
#620 = DIRECTION ( 'NONE',  ( -0.000000000000000000, 0.000000000000000000, 1.000000000000000000 ) ) ;
#621 = DIRECTION ( 'NONE',  ( 0.000000000000000000, -1.000000000000000000, 0.000000000000000000 ) ) ;
#622 = ORIENTED_EDGE ( 'NONE', *, *, #801, .T. ) ;
#623 = CARTESIAN_POINT ( 'NONE',  ( 2.540000000000000480, 0.000000000000000000, 1.999999999999998668 ) ) ;
#624 = CARTESIAN_POINT ( 'NONE',  ( -3.244069492476312572E-17, 0.7600000000000001199, 2.464999999999999858 ) ) ;
#625 = VECTOR ( 'NONE', #743, 1000.000000000000000 ) ;
#626 = EDGE_CURVE ( 'NONE', #29, #45, #433, .T. ) ;
#627 = UNCERTAINTY_MEASURE_WITH_UNIT (LENGTH_MEASURE( 1.000000000000000082E-05 ), #190, 'distance_accuracy_value', 'NONE');
#628 = VERTEX_POINT ( 'NONE', #879 ) ;
#629 = LINE ( 'NONE', #279, #444 ) ;
#630 = PRESENTATION_STYLE_ASSIGNMENT (( #486 ) ) ;
#631 = EDGE_LOOP ( 'NONE', ( #27, #469, #532, #91 ) ) ;
#632 = LINE ( 'NONE', #197, #767 ) ;
#633 = CARTESIAN_POINT ( 'NONE',  ( 0.000000000000000000, -0.2600000000000000089, 2.464999999999999858 ) ) ;
#634 = DIRECTION ( 'NONE',  ( -0.000000000000000000, 0.000000000000000000, -1.000000000000000000 ) ) ;
#635 = AXIS2_PLACEMENT_3D ( 'NONE', #124, #53, #249 ) ;
#636 = CARTESIAN_POINT ( 'NONE',  ( 2.540000000000000480, -0.7600000000000000089, 1.999999999999998668 ) ) ;
#637 = VECTOR ( 'NONE', #886, 1000.000000000000000 ) ;
#638 = CARTESIAN_POINT ( 'NONE',  ( -2.240000000000000657, 0.4600000000000000755, -2.464999999999999858 ) ) ;
#639 = EDGE_CURVE ( 'NONE', #172, #776, #522, .T. ) ;
#640 = ORIENTED_EDGE ( 'NONE', *, *, #165, .F. ) ;
#641 = DIRECTION ( 'NONE',  ( 1.000000000000000000, 2.853163611803958777E-16, -0.000000000000000000 ) ) ;
#642 = PLANE ( 'NONE',  #727 ) ;
#643 = VERTEX_POINT ( 'NONE', #684 ) ;
#644 = ORIENTED_EDGE ( 'NONE', *, *, #525, .F. ) ;
#645 = CARTESIAN_POINT ( 'NONE',  ( 2.240000000000000213, 0.4000000000000000777, -2.464999999999999858 ) ) ;
#646 = DIRECTION ( 'NONE',  ( -0.000000000000000000, -0.000000000000000000, -1.000000000000000000 ) ) ;
#647 = ORIENTED_EDGE ( 'NONE', *, *, #626, .T. ) ;
#648 = EDGE_CURVE ( 'NONE', #863, #319, #874, .T. ) ;
#649 = VERTEX_POINT ( 'NONE', #264 ) ;
#650 = AXIS2_PLACEMENT_3D ( 'NONE', #847, #620, #413 ) ;
#651 = LINE ( 'NONE', #216, #375 ) ;
#652 = CARTESIAN_POINT ( 'NONE',  ( 2.540000000000000480, -0.2600000000000000089, -2.000000000000001332 ) ) ;
#653 = VECTOR ( 'NONE', #872, 1000.000000000000000 ) ;
#654 = EDGE_LOOP ( 'NONE', ( #779, #871, #175, #98 ) ) ;
#655 = LINE ( 'NONE', #86, #82 ) ;
#656 = VERTEX_POINT ( 'NONE', #44 ) ;
#657 = EDGE_CURVE ( 'NONE', #494, #268, #322, .T. ) ;
#658 = PLANE ( 'NONE',  #258 ) ;
#659 = DIRECTION ( 'NONE',  ( -1.000000000000000000, -4.268512490100410663E-17, 0.000000000000000000 ) ) ;
#660 = ORIENTED_EDGE ( 'NONE', *, *, #565, .T. ) ;
#661 = VERTEX_POINT ( 'NONE', #112 ) ;
#662 = PLANE ( 'NONE',  #17 ) ;
#663 =( NAMED_UNIT ( * ) SI_UNIT ( $, .STERADIAN. ) SOLID_ANGLE_UNIT ( ) );
#664 = ADVANCED_FACE ( 'NONE', ( #38 ), #605, .F. ) ;
#665 = DIRECTION ( 'NONE',  ( -1.000000000000000000, 0.000000000000000000, -0.000000000000000000 ) ) ;
#666 = VERTEX_POINT ( 'NONE', #257 ) ;
#667 = FACE_OUTER_BOUND ( 'NONE', #715, .T. ) ;
#668 = VECTOR ( 'NONE', #270, 1000.000000000000000 ) ;
#669 = FACE_OUTER_BOUND ( 'NONE', #352, .T. ) ;
#670 = SURFACE_STYLE_USAGE ( .BOTH. , #739 ) ;
#671 = ADVANCED_FACE ( 'NONE', ( #747 ), #679, .F. ) ;
#672 = ORIENTED_EDGE ( 'NONE', *, *, #353, .F. ) ;
#673 = CARTESIAN_POINT ( 'NONE',  ( 2.540000000000000480, -0.2600000000000000089, 0.000000000000000000 ) ) ;
#674 = DIRECTION ( 'NONE',  ( 0.000000000000000000, 1.000000000000000000, 0.000000000000000000 ) ) ;
#675 = ORIENTED_EDGE ( 'NONE', *, *, #556, .T. ) ;
#676 = DIRECTION ( 'NONE',  ( 0.000000000000000000, -0.000000000000000000, -1.000000000000000000 ) ) ;
#677 = FACE_OUTER_BOUND ( 'NONE', #386, .T. ) ;
#678 = DIRECTION ( 'NONE',  ( 1.000000000000000000, 0.000000000000000000, 0.000000000000000000 ) ) ;
#679 = PLANE ( 'NONE',  #213 ) ;
#680 = VERTEX_POINT ( 'NONE', #744 ) ;
#681 = EDGE_CURVE ( 'NONE', #379, #441, #360, .T. ) ;
#682 = CARTESIAN_POINT ( 'NONE',  ( -2.540000000000000480, -0.7600000000000000089, -2.000000000000000888 ) ) ;
#683 = LINE ( 'NONE', #54, #829 ) ;
#684 = CARTESIAN_POINT ( 'NONE',  ( -2.180000000000000604, -0.7600000000000000089, 1.999999999999998668 ) ) ;
#685 = VECTOR ( 'NONE', #895, 1000.000000000000000 ) ;
#686 = AXIS2_PLACEMENT_3D ( 'NONE', #181, #544, #393 ) ;
#687 = ORIENTED_EDGE ( 'NONE', *, *, #77, .T. ) ;
#688 = PRODUCT_DEFINITION ( 'UNKNOWN', '', #344, #349 ) ;
#689 = PLANE ( 'NONE',  #202 ) ;
#690 = DIRECTION ( 'NONE',  ( 0.000000000000000000, -1.000000000000000000, 0.000000000000000000 ) ) ;
#691 = ORIENTED_EDGE ( 'NONE', *, *, #292, .T. ) ;
#692 = DIRECTION ( 'NONE',  ( 0.000000000000000000, -1.000000000000000000, 8.673617379884035472E-16 ) ) ;
#693 =( NAMED_UNIT ( * ) PLANE_ANGLE_UNIT ( ) SI_UNIT ( $, .RADIAN. ) );
#694 = CARTESIAN_POINT ( 'NONE',  ( 2.540000000000000480, -0.2600000000000000089, 0.000000000000000000 ) ) ;
#695 = ADVANCED_FACE ( 'NONE', ( #533 ), #132, .F. ) ;
#696 = CARTESIAN_POINT ( 'NONE',  ( -1.820000000000000506, 0.4000000000000000777, -2.464999999999999858 ) ) ;
#697 = AXIS2_PLACEMENT_3D ( 'NONE', #57, #282, #491 ) ;
#698 = CIRCLE ( 'NONE', #816, 0.1499999999999999667 ) ;
#699 = DIRECTION ( 'NONE',  ( -1.000000000000000000, -0.000000000000000000, -0.000000000000000000 ) ) ;
#700 = CARTESIAN_POINT ( 'NONE',  ( -2.030000000000000693, 0.2500000000000001110, -2.464999999999999858 ) ) ;
#701 = ORIENTED_EDGE ( 'NONE', *, *, #681, .T. ) ;
#702 = PLANE ( 'NONE',  #404 ) ;
#703 = EDGE_CURVE ( 'NONE', #723, #319, #472, .T. ) ;
#704 = CARTESIAN_POINT ( 'NONE',  ( 2.540000000000000480, -0.2600000000000000089, 0.000000000000000000 ) ) ;
#705 = ORIENTED_EDGE ( 'NONE', *, *, #272, .T. ) ;
#706 = MANIFOLD_SOLID_BREP ( 'Cut-Extrude1[2]', #560 ) ;
#707 = CARTESIAN_POINT ( 'NONE',  ( -1.820000000000000506, 0.4000000000000000777, 2.464999999999999858 ) ) ;
#708 = VECTOR ( 'NONE', #849, 1000.000000000000000 ) ;
#709 =( GEOMETRIC_REPRESENTATION_CONTEXT ( 3 ) GLOBAL_UNCERTAINTY_ASSIGNED_CONTEXT ( ( #627 ) ) GLOBAL_UNIT_ASSIGNED_CONTEXT ( ( #190, #398, #539 ) ) REPRESENTATION_CONTEXT ( 'NONE', 'WORKASPACE' ) );
#710 = EDGE_CURVE ( 'NONE', #172, #302, #564, .T. ) ;
#711 = LINE ( 'NONE', #465, #419 ) ;
#712 = ORIENTED_EDGE ( 'NONE', *, *, #233, .T. ) ;
#713 = CARTESIAN_POINT ( 'NONE',  ( 2.179999999999999716, 0.000000000000000000, -2.464999999999999858 ) ) ;
#714 = CARTESIAN_POINT ( 'NONE',  ( 2.179999999999999716, -0.7600000000000000089, -2.000000000000000888 ) ) ;
#715 = EDGE_LOOP ( 'NONE', ( #591, #735, #363, #600 ) ) ;
#716 = CARTESIAN_POINT ( 'NONE',  ( -2.540000000000000480, -0.2600000000000000089, 1.999999999999998668 ) ) ;
#717 = VERTEX_POINT ( 'NONE', #389 ) ;
#718 = PLANE ( 'NONE',  #332 ) ;
#719 = EDGE_CURVE ( 'NONE', #379, #101, #427, .T. ) ;
#720 = APPLICATION_CONTEXT ( 'automotive_design' ) ;
#721 = VERTEX_POINT ( 'NONE', #74 ) ;
#722 = DIRECTION ( 'NONE',  ( 1.000000000000000000, 0.000000000000000000, 0.000000000000000000 ) ) ;
#723 = VERTEX_POINT ( 'NONE', #550 ) ;
#724 = ORIENTED_EDGE ( 'NONE', *, *, #69, .F. ) ;
#725 = AXIS2_PLACEMENT_3D ( 'NONE', #248, #178, #108 ) ;
#726 = MANIFOLD_SOLID_BREP ( 'Cut-Extrude1[1]', #766 ) ;
#727 = AXIS2_PLACEMENT_3D ( 'NONE', #850, #228, #659 ) ;
#728 = DIRECTION ( 'NONE',  ( -1.000000000000000000, -0.000000000000000000, -0.000000000000000000 ) ) ;
#729 = CARTESIAN_POINT ( 'NONE',  ( -2.180000000000000604, -0.2600000000000000089, 2.464999999999999858 ) ) ;
#730 = ORIENTED_EDGE ( 'NONE', *, *, #394, .T. ) ;
#731 = DIRECTION ( 'NONE',  ( 1.000000000000000000, 0.000000000000000000, 0.000000000000000000 ) ) ;
#732 = ORIENTED_EDGE ( 'NONE', *, *, #837, .T. ) ;
#733 = CARTESIAN_POINT ( 'NONE',  ( 2.240000000000000213, 0.1000000000000001027, 2.464999999999999858 ) ) ;
#734 = PLANE ( 'NONE',  #301 ) ;
#735 = ORIENTED_EDGE ( 'NONE', *, *, #425, .F. ) ;
#736 = FACE_OUTER_BOUND ( 'NONE', #9, .T. ) ;
#737 = FILL_AREA_STYLE_COLOUR ( '', #313 ) ;
#738 = CARTESIAN_POINT ( 'NONE',  ( 2.179999999999999716, 0.000000000000000000, 2.464999999999999858 ) ) ;
#739 = SURFACE_SIDE_STYLE ('',( #118 ) ) ;
#740 = VERTEX_POINT ( 'NONE', #482 ) ;
#741 = LINE ( 'NONE', #526, #261 ) ;
#742 = CIRCLE ( 'NONE', #882, 0.1499999999999999667 ) ;
#743 = DIRECTION ( 'NONE',  ( 0.000000000000000000, -0.000000000000000000, 1.000000000000000000 ) ) ;
#744 = CARTESIAN_POINT ( 'NONE',  ( -2.180000000000000604, 0.2500000000000001110, 2.464999999999999858 ) ) ;
#745 = ORIENTED_EDGE ( 'NONE', *, *, #639, .T. ) ;
#746 = LINE ( 'NONE', #458, #625 ) ;
#747 = FACE_OUTER_BOUND ( 'NONE', #307, .T. ) ;
#748 = EDGE_CURVE ( 'NONE', #2, #753, #377, .T. ) ;
#749 = ORIENTED_EDGE ( 'NONE', *, *, #558, .F. ) ;
#750 = CARTESIAN_POINT ( 'NONE',  ( 2.240000000000000213, 0.1000000000000001027, -2.464999999999999858 ) ) ;
#751 = LINE ( 'NONE', #125, #552 ) ;
#752 = EDGE_CURVE ( 'NONE', #232, #776, #174, .T. ) ;
#753 = VERTEX_POINT ( 'NONE', #431 ) ;
#754 = AXIS2_PLACEMENT_3D ( 'NONE', #554, #830, #479 ) ;
#755 = CARTESIAN_POINT ( 'NONE',  ( 2.179999999999999716, -0.2600000000000000089, 1.999999999999998668 ) ) ;
#756 = SURFACE_SIDE_STYLE ('',( #276 ) ) ;
#757 = DIRECTION ( 'NONE',  ( 1.000000000000000000, 0.000000000000000000, 0.000000000000000000 ) ) ;
#758 = CIRCLE ( 'NONE', #697, 0.1499999999999999667 ) ;
#759 = ORIENTED_EDGE ( 'NONE', *, *, #165, .T. ) ;
#760 = ADVANCED_FACE ( 'NONE', ( #505 ), #642, .T. ) ;
#761 = CARTESIAN_POINT ( 'NONE',  ( -1.820000000000000506, 0.000000000000000000, 2.464999999999999858 ) ) ;
#762 = ADVANCED_FACE ( 'NONE', ( #798 ), #587, .T. ) ;
#763 = DIRECTION ( 'NONE',  ( -1.000000000000000000, 0.000000000000000000, -0.000000000000000000 ) ) ;
#764 = ORIENTED_EDGE ( 'NONE', *, *, #597, .T. ) ;
#765 = LINE ( 'NONE', #477, #473 ) ;
#766 = CLOSED_SHELL ( 'NONE', ( #3, #262, #144, #267, #695, #475, #97, #760, #664, #457, #364, #384, #119, #177 ) ) ;
#767 = VECTOR ( 'NONE', #699, 1000.000000000000000 ) ;
#768 = MECHANICAL_DESIGN_GEOMETRIC_PRESENTATION_REPRESENTATION (  '', ( #518 ), #709 ) ;
#769 = AXIS2_PLACEMENT_3D ( 'NONE', #93, #243, #296 ) ;
#770 = CARTESIAN_POINT ( 'NONE',  ( -2.540000000000000480, -0.7600000000000000089, 2.464999999999999858 ) ) ;
#771 = ADVANCED_FACE ( 'NONE', ( #89 ), #359, .F. ) ;
#772 = ORIENTED_EDGE ( 'NONE', *, *, #103, .F. ) ;
#773 = PLANE ( 'NONE',  #797 ) ;
#774 = CARTESIAN_POINT ( 'NONE',  ( -2.240000000000000657, 0.7600000000000000089, 2.464999999999999858 ) ) ;
#775 = ADVANCED_FACE ( 'NONE', ( #440 ), #861, .F. ) ;
#776 = VERTEX_POINT ( 'NONE', #309 ) ;
#777 = DIRECTION ( 'NONE',  ( 0.000000000000000000, -1.000000000000000000, 0.000000000000000000 ) ) ;
#778 = DIRECTION ( 'NONE',  ( 0.000000000000000000, -0.000000000000000000, 1.000000000000000000 ) ) ;
#779 = ORIENTED_EDGE ( 'NONE', *, *, #601, .F. ) ;
#780 = CARTESIAN_POINT ( 'NONE',  ( 2.540000000000000036, 7.247035573982055590E-16, -2.464999999999999858 ) ) ;
#781 = VECTOR ( 'NONE', #152, 1000.000000000000000 ) ;
#782 = VECTOR ( 'NONE', #612, 1000.000000000000000 ) ;
#783 = EDGE_CURVE ( 'NONE', #721, #649, #698, .T. ) ;
#784 = DIRECTION ( 'NONE',  ( -0.000000000000000000, 1.000000000000000000, -8.673617379884034486E-16 ) ) ;
#785 = ORIENTED_EDGE ( 'NONE', *, *, #813, .F. ) ;
#786 = LINE ( 'NONE', #507, #898 ) ;
#787 = ORIENTED_EDGE ( 'NONE', *, *, #492, .T. ) ;
#788 = LINE ( 'NONE', #358, #429 ) ;
#789 = EDGE_CURVE ( 'NONE', #494, #172, #374, .T. ) ;
#790 = ORIENTED_EDGE ( 'NONE', *, *, #496, .F. ) ;
#791 = ADVANCED_BREP_SHAPE_REPRESENTATION ( 'SMD100F-2018-2', ( #726, #706, #754 ), #607 ) ;
#792 = FACE_OUTER_BOUND ( 'NONE', #438, .T. ) ;
#793 = CARTESIAN_POINT ( 'NONE',  ( -1.820000000000000506, 0.4000000000000000777, 2.464999999999999858 ) ) ;
#794 = EDGE_LOOP ( 'NONE', ( #553, #799, #289, #90 ) ) ;
#795 = DIRECTION ( 'NONE',  ( -0.000000000000000000, 0.000000000000000000, 1.000000000000000000 ) ) ;
#796 = VERTEX_POINT ( 'NONE', #652 ) ;
#797 = AXIS2_PLACEMENT_3D ( 'NONE', #214, #641, #541 ) ;
#798 = FACE_OUTER_BOUND ( 'NONE', #442, .T. ) ;
#799 = ORIENTED_EDGE ( 'NONE', *, *, #703, .F. ) ;
#800 = CARTESIAN_POINT ( 'NONE',  ( 0.000000000000000000, 0.000000000000000000, -2.464999999999999858 ) ) ;
#801 = EDGE_CURVE ( 'NONE', #863, #740, #305, .T. ) ;
#802 = ORIENTED_EDGE ( 'NONE', *, *, #326, .F. ) ;
#803 = DIRECTION ( 'NONE',  ( -0.000000000000000000, 0.000000000000000000, 1.000000000000000000 ) ) ;
#804 = CARTESIAN_POINT ( 'NONE',  ( 2.540000000000000480, -0.2600000000000000089, 1.999999999999998668 ) ) ;
#805 = SHAPE_DEFINITION_REPRESENTATION ( #365, #791 ) ;
#806 = ORIENTED_EDGE ( 'NONE', *, *, #137, .T. ) ;
#807 = CARTESIAN_POINT ( 'NONE',  ( -2.180000000000000604, -0.2600000000000000089, -2.000000000000001332 ) ) ;
#808 = DIRECTION ( 'NONE',  ( 0.000000000000000000, -0.000000000000000000, 1.000000000000000000 ) ) ;
#809 = CARTESIAN_POINT ( 'NONE',  ( 0.000000000000000000, 0.000000000000000000, -2.464999999999999858 ) ) ;
#810 = EDGE_LOOP ( 'NONE', ( #464, #724, #730, #764, #581, #371, #455, #23 ) ) ;
#811 = CIRCLE ( 'NONE', #171, 0.2999999999999999334 ) ;
#812 = VECTOR ( 'NONE', #79, 1000.000000000000000 ) ;
#813 = EDGE_CURVE ( 'NONE', #244, #72, #168, .T. ) ;
#814 = CARTESIAN_POINT ( 'NONE',  ( -2.030000000000000693, 0.4000000000000000777, -2.464999999999999858 ) ) ;
#815 = PRESENTATION_STYLE_ASSIGNMENT (( #670 ) ) ;
#816 = AXIS2_PLACEMENT_3D ( 'NONE', #499, #26, #368 ) ;
#817 = ORIENTED_EDGE ( 'NONE', *, *, #703, .T. ) ;
#818 = LINE ( 'NONE', #32, #347 ) ;
#819 = ORIENTED_EDGE ( 'NONE', *, *, #110, .T. ) ;
#820 = CARTESIAN_POINT ( 'NONE',  ( 2.240000000000000213, 0.4000000000000000777, 2.464999999999999858 ) ) ;
#821 = DIRECTION ( 'NONE',  ( -1.000000000000000000, -0.000000000000000000, -0.000000000000000000 ) ) ;
#822 = CARTESIAN_POINT ( 'NONE',  ( 2.179999999999999716, -0.7600000000000000089, 1.999999999999998668 ) ) ;
#823 = DIRECTION ( 'NONE',  ( 1.000000000000000000, 0.000000000000000000, 0.000000000000000000 ) ) ;
#824 = EDGE_CURVE ( 'NONE', #880, #45, #741, .T. ) ;
#825 = ORIENTED_EDGE ( 'NONE', *, *, #558, .T. ) ;
#826 = DIRECTION ( 'NONE',  ( 0.000000000000000000, -0.000000000000000000, 1.000000000000000000 ) ) ;
#827 = FACE_OUTER_BOUND ( 'NONE', #215, .T. ) ;
#828 = FILL_AREA_STYLE_COLOUR ( '', #318 ) ;
#829 = VECTOR ( 'NONE', #543, 1000.000000000000000 ) ;
#830 = DIRECTION ( 'NONE',  ( 0.000000000000000000, 0.000000000000000000, 1.000000000000000000 ) ) ;
#831 = CARTESIAN_POINT ( 'NONE',  ( 2.540000000000000480, -0.2600000000000000089, 0.000000000000000000 ) ) ;
#832 = UNCERTAINTY_MEASURE_WITH_UNIT (LENGTH_MEASURE( 1.000000000000000082E-05 ), #609, 'distance_accuracy_value', 'NONE');
#833 = DIRECTION ( 'NONE',  ( 0.000000000000000000, -0.000000000000000000, -1.000000000000000000 ) ) ;
#834 = FILL_AREA_STYLE ('',( #828 ) ) ;
#835 = DIRECTION ( 'NONE',  ( 0.000000000000000000, -1.000000000000000000, 0.000000000000000000 ) ) ;
#836 = CARTESIAN_POINT ( 'NONE',  ( -0.000000000000000000, 0.4000000000000000777, -2.464999999999999858 ) ) ;
#837 = EDGE_CURVE ( 'NONE', #656, #628, #592, .T. ) ;
#838 = VECTOR ( 'NONE', #388, 1000.000000000000000 ) ;
#839 = ORIENTED_EDGE ( 'NONE', *, *, #151, .T. ) ;
#840 = ORIENTED_EDGE ( 'NONE', *, *, #356, .F. ) ;
#841 = DIRECTION ( 'NONE',  ( -0.000000000000000000, 1.000000000000000000, -8.673617379884034486E-16 ) ) ;
#842 = EDGE_CURVE ( 'NONE', #508, #182, #109, .T. ) ;
#843 = LINE ( 'NONE', #218, #637 ) ;
#844 = ORIENTED_EDGE ( 'NONE', *, *, #272, .F. ) ;
#845 = LINE ( 'NONE', #493, #231 ) ;
#846 = EDGE_LOOP ( 'NONE', ( #579, #107, #825, #614, #474, #85, #875, #294 ) ) ;
#847 = CARTESIAN_POINT ( 'NONE',  ( 2.240000000000000213, 0.1000000000000001027, 2.464999999999999858 ) ) ;
#848 = ADVANCED_FACE ( 'NONE', ( #677 ), #603, .T. ) ;
#849 = DIRECTION ( 'NONE',  ( 0.000000000000000000, -1.000000000000000000, 8.673617379884035472E-16 ) ) ;
#850 = CARTESIAN_POINT ( 'NONE',  ( -3.244069492476312572E-17, 0.7600000000000001199, 2.464999999999999858 ) ) ;
#851 = ORIENTED_EDGE ( 'NONE', *, *, #183, .T. ) ;
#852 = VECTOR ( 'NONE', #266, 1000.000000000000000 ) ;
#853 = VECTOR ( 'NONE', #30, 1000.000000000000000 ) ;
#854 = VECTOR ( 'NONE', #443, 1000.000000000000000 ) ;
#855 = ORIENTED_EDGE ( 'NONE', *, *, #556, .F. ) ;
#856 = AXIS2_PLACEMENT_3D ( 'NONE', #809, #411, #823 ) ;
#857 = CARTESIAN_POINT ( 'NONE',  ( -2.180000000000000604, 0.000000000000000000, 2.464999999999999858 ) ) ;
#858 = EDGE_LOOP ( 'NONE', ( #894, #94, #405, #772 ) ) ;
#859 = ORIENTED_EDGE ( 'NONE', *, *, #205, .T. ) ;
#860 = CARTESIAN_POINT ( 'NONE',  ( 0.000000000000000000, 0.4000000000000000777, 2.464999999999999858 ) ) ;
#861 = PLANE ( 'NONE',  #769 ) ;
#862 = EDGE_LOOP ( 'NONE', ( #675, #120, #382, #65 ) ) ;
#863 = VERTEX_POINT ( 'NONE', #807 ) ;
#864 = VERTEX_POINT ( 'NONE', #542 ) ;
#865 = EDGE_CURVE ( 'NONE', #302, #244, #355, .T. ) ;
#866 = ORIENTED_EDGE ( 'NONE', *, *, #824, .F. ) ;
#867 = VECTOR ( 'NONE', #117, 1000.000000000000000 ) ;
#868 = AXIS2_PLACEMENT_3D ( 'NONE', #800, #795, #731 ) ;
#869 = CARTESIAN_POINT ( 'NONE',  ( 2.540000000000000480, -0.2600000000000000089, -2.464999999999999858 ) ) ;
#870 = ORIENTED_EDGE ( 'NONE', *, *, #511, .T. ) ;
#871 = ORIENTED_EDGE ( 'NONE', *, *, #876, .F. ) ;
#872 = DIRECTION ( 'NONE',  ( -0.000000000000000000, -0.000000000000000000, -1.000000000000000000 ) ) ;
#873 = FACE_OUTER_BOUND ( 'NONE', #858, .T. ) ;
#874 = LINE ( 'NONE', #198, #406 ) ;
#875 = ORIENTED_EDGE ( 'NONE', *, *, #865, .T. ) ;
#876 = EDGE_CURVE ( 'NONE', #101, #864, #185, .T. ) ;
#877 = DIRECTION ( 'NONE',  ( 1.000000000000000000, 0.000000000000000000, 0.000000000000000000 ) ) ;
#878 = LINE ( 'NONE', #527, #852 ) ;
#879 = CARTESIAN_POINT ( 'NONE',  ( 2.540000000000000036, -0.2600000000000000089, 2.464999999999999858 ) ) ;
#880 = VERTEX_POINT ( 'NONE', #887 ) ;
#881 = EDGE_CURVE ( 'NONE', #885, #45, #105, .T. ) ;
#882 = AXIS2_PLACEMENT_3D ( 'NONE', #514, #676, #46 ) ;
#883 = VECTOR ( 'NONE', #468, 1000.000000000000000 ) ;
#884 = DIRECTION ( 'NONE',  ( 1.000000000000000000, 2.853163611803958777E-16, -0.000000000000000000 ) ) ;
#885 = VERTEX_POINT ( 'NONE', #196 ) ;
#886 = DIRECTION ( 'NONE',  ( -1.000000000000000000, -0.000000000000000000, -0.000000000000000000 ) ) ;
#887 = CARTESIAN_POINT ( 'NONE',  ( 2.179999999999999716, -0.2600000000000000089, -2.000000000000001332 ) ) ;
#888 = LINE ( 'NONE', #392, #516 ) ;
#889 = DIRECTION ( 'NONE',  ( 1.000000000000000000, 0.000000000000000000, 0.000000000000000000 ) ) ;
#890 = ORIENTED_EDGE ( 'NONE', *, *, #316, .T. ) ;
#891 = CARTESIAN_POINT ( 'NONE',  ( -2.540000000000000480, 0.000000000000000000, 2.464999999999999858 ) ) ;
#892 = DIRECTION ( 'NONE',  ( 0.000000000000000000, 0.000000000000000000, -1.000000000000000000 ) ) ;
#893 = PRODUCT_RELATED_PRODUCT_CATEGORY ( 'part', '', ( #219 ) ) ;
#894 = ORIENTED_EDGE ( 'NONE', *, *, #128, .F. ) ;
#895 = DIRECTION ( 'NONE',  ( -0.000000000000000000, -0.000000000000000000, -1.000000000000000000 ) ) ;
#896 = SURFACE_SIDE_STYLE ('',( #204 ) ) ;
#897 = VECTOR ( 'NONE', #678, 1000.000000000000000 ) ;
#898 = VECTOR ( 'NONE', #156, 1000.000000000000000 ) ;
#899 = ORIENTED_EDGE ( 'NONE', *, *, #345, .T. ) ;
#900 = CARTESIAN_POINT ( 'NONE',  ( 2.029999999999999805, 0.04000000000000010492, -2.464999999999999858 ) ) ;
#901 = UNCERTAINTY_MEASURE_WITH_UNIT (LENGTH_MEASURE( 1.000000000000000082E-05 ), #209, 'distance_accuracy_value', 'NONE');
#902 = ADVANCED_FACE ( 'NONE', ( #401 ), #334, .T. ) ;
#903 = DIRECTION ( 'NONE',  ( 0.000000000000000000, -1.000000000000000000, 0.000000000000000000 ) ) ;
ENDSEC;
END-ISO-10303-21;
