%TF.GenerationSoftware,KiCad,Pcbnew,9.0.7*%
%TF.CreationDate,2026-04-18T10:06:18-03:00*%
%TF.ProjectId,mini-vehiculo-exploracion-pcb,6d696e69-2d76-4656-9869-63756c6f2d65,rev?*%
%TF.SameCoordinates,Original*%
%TF.FileFunction,Paste,Top*%
%TF.FilePolarity,Positive*%
%FSLAX46Y46*%
G04 Gerber Fmt 4.6, Leading zero omitted, Abs format (unit mm)*
G04 Created by KiCad (PCBNEW 9.0.7) date 2026-04-18 10:06:18*
%MOMM*%
%LPD*%
G01*
G04 APERTURE LIST*
G04 Aperture macros list*
%AMRoundRect*
0 Rectangle with rounded corners*
0 $1 Rounding radius*
0 $2 $3 $4 $5 $6 $7 $8 $9 X,Y pos of 4 corners*
0 Add a 4 corners polygon primitive as box body*
4,1,4,$2,$3,$4,$5,$6,$7,$8,$9,$2,$3,0*
0 Add four circle primitives for the rounded corners*
1,1,$1+$1,$2,$3*
1,1,$1+$1,$4,$5*
1,1,$1+$1,$6,$7*
1,1,$1+$1,$8,$9*
0 Add four rect primitives between the rounded corners*
20,1,$1+$1,$2,$3,$4,$5,0*
20,1,$1+$1,$4,$5,$6,$7,0*
20,1,$1+$1,$6,$7,$8,$9,0*
20,1,$1+$1,$8,$9,$2,$3,0*%
G04 Aperture macros list end*
%ADD10RoundRect,0.250000X0.475000X-0.337500X0.475000X0.337500X-0.475000X0.337500X-0.475000X-0.337500X0*%
%ADD11R,1.600000X1.400000*%
%ADD12R,1.295400X0.863600*%
%ADD13RoundRect,0.250000X-0.475000X0.337500X-0.475000X-0.337500X0.475000X-0.337500X0.475000X0.337500X0*%
%ADD14R,0.900000X0.900000*%
%ADD15R,1.500000X0.900000*%
%ADD16R,0.900000X1.500000*%
%ADD17RoundRect,0.250000X0.450000X-0.350000X0.450000X0.350000X-0.450000X0.350000X-0.450000X-0.350000X0*%
%ADD18RoundRect,0.250000X-0.337500X-0.475000X0.337500X-0.475000X0.337500X0.475000X-0.337500X0.475000X0*%
%ADD19RoundRect,0.250000X-0.450000X0.350000X-0.450000X-0.350000X0.450000X-0.350000X0.450000X0.350000X0*%
%ADD20R,1.600000X1.540000*%
%ADD21R,3.800000X5.060000*%
%ADD22RoundRect,0.243750X-0.456250X0.243750X-0.456250X-0.243750X0.456250X-0.243750X0.456250X0.243750X0*%
%ADD23R,1.778000X1.270000*%
%ADD24R,1.447800X1.066800*%
%ADD25R,0.400000X0.400000*%
%ADD26R,1.475000X0.450000*%
%ADD27R,0.675000X0.250000*%
%ADD28R,0.250000X0.575000*%
%ADD29R,4.600000X1.500000*%
%ADD30R,1.250000X0.600000*%
%ADD31R,1.104900X1.498600*%
%ADD32R,0.700000X1.600000*%
%ADD33R,2.300000X0.630000*%
%ADD34R,0.558800X0.977900*%
%ADD35R,0.600000X1.074000*%
%ADD36R,0.300000X1.150000*%
%ADD37R,1.500000X1.500000*%
%ADD38R,0.400000X1.200000*%
%ADD39R,2.200000X1.150000*%
%ADD40RoundRect,0.250000X0.350000X0.450000X-0.350000X0.450000X-0.350000X-0.450000X0.350000X-0.450000X0*%
%ADD41R,0.400000X1.050000*%
G04 APERTURE END LIST*
D10*
X88870000Y-90687500D03*
X88870000Y-88612500D03*
D11*
X152673540Y-70390540D03*
X144673540Y-70390540D03*
X152673540Y-65890540D03*
X144673540Y-65890540D03*
D12*
X145673540Y-61269940D03*
X145673540Y-63530540D03*
D10*
X90850000Y-66450000D03*
X90850000Y-64375000D03*
D13*
X149173540Y-61455540D03*
X149173540Y-63530540D03*
D14*
X128210000Y-57180000D03*
X128210000Y-58580000D03*
X128210000Y-59980000D03*
X129610000Y-57180000D03*
X129610000Y-58580000D03*
X129610000Y-59980000D03*
X131010000Y-57180000D03*
X131010000Y-58580000D03*
X131010000Y-59980000D03*
D15*
X122360000Y-50860000D03*
X122360000Y-52130000D03*
X122360000Y-53400000D03*
X122360000Y-54670000D03*
X122360000Y-55940000D03*
X122360000Y-57210000D03*
X122360000Y-58480000D03*
X122360000Y-59750000D03*
X122360000Y-61020000D03*
X122360000Y-62290000D03*
X122360000Y-63560000D03*
X122360000Y-64830000D03*
X122360000Y-66100000D03*
X122360000Y-67370000D03*
D16*
X124125000Y-68620000D03*
X125395000Y-68620000D03*
X126665000Y-68620000D03*
X127935000Y-68620000D03*
X129205000Y-68620000D03*
X130475000Y-68620000D03*
X131745000Y-68620000D03*
X133015000Y-68620000D03*
X134285000Y-68620000D03*
X135555000Y-68620000D03*
X136825000Y-68620000D03*
X138095000Y-68620000D03*
D15*
X139860000Y-67370000D03*
X139860000Y-66100000D03*
X139860000Y-64830000D03*
X139860000Y-63560000D03*
X139860000Y-62290000D03*
X139860000Y-61020000D03*
X139860000Y-59750000D03*
X139860000Y-58480000D03*
X139860000Y-57210000D03*
X139860000Y-55940000D03*
X139860000Y-54670000D03*
X139860000Y-53400000D03*
X139860000Y-52130000D03*
X139860000Y-50860000D03*
D17*
X158610000Y-54442500D03*
X158610000Y-52442500D03*
D18*
X105462500Y-74000000D03*
X107537500Y-74000000D03*
D19*
X96382500Y-89420000D03*
X96382500Y-91420000D03*
D10*
X96320000Y-55907500D03*
X96320000Y-53832500D03*
D20*
X127352500Y-96000000D03*
X125222500Y-96000000D03*
D21*
X126287500Y-92100000D03*
D22*
X148410000Y-55065000D03*
X148410000Y-56940000D03*
D23*
X106100000Y-53527600D03*
X106100000Y-56372400D03*
D19*
X119061250Y-103895000D03*
X119061250Y-105895000D03*
D13*
X109140000Y-58142500D03*
X109140000Y-60217500D03*
X172313000Y-80480000D03*
X172313000Y-82555000D03*
D10*
X163610000Y-54480000D03*
X163610000Y-52405000D03*
X89200000Y-74000000D03*
X89200000Y-71925000D03*
D17*
X164170000Y-70472500D03*
X164170000Y-68472500D03*
X152673540Y-63530540D03*
X152673540Y-61530540D03*
D10*
X156050000Y-70517500D03*
X156050000Y-68442500D03*
D19*
X103420000Y-53870000D03*
X103420000Y-55870000D03*
D20*
X113855000Y-105230000D03*
X111725000Y-105230000D03*
D21*
X112790000Y-101330000D03*
D13*
X161800000Y-81962500D03*
X161800000Y-84037500D03*
D10*
X127083375Y-86500000D03*
X127083375Y-84425000D03*
D24*
X106100000Y-58712900D03*
X106100000Y-60567100D03*
D25*
X93780000Y-90720000D03*
X93780000Y-91520000D03*
X93780000Y-92320000D03*
X93780000Y-93120000D03*
X91380000Y-93120000D03*
X91380000Y-92320000D03*
X91380000Y-91520000D03*
X91380000Y-90720000D03*
D19*
X167130000Y-52480000D03*
X167130000Y-54480000D03*
D17*
X90124000Y-79000000D03*
X90124000Y-77000000D03*
X150910000Y-56940000D03*
X150910000Y-54940000D03*
D26*
X164212000Y-80130000D03*
X164212000Y-80780000D03*
X164212000Y-81430000D03*
X164212000Y-82080000D03*
X164212000Y-82730000D03*
X164212000Y-83380000D03*
X164212000Y-84030000D03*
X170088000Y-84030000D03*
X170088000Y-83380000D03*
X170088000Y-82730000D03*
X170088000Y-82080000D03*
X170088000Y-81430000D03*
X170088000Y-80780000D03*
X170088000Y-80130000D03*
D13*
X121083375Y-84425000D03*
X121083375Y-86500000D03*
D19*
X94312000Y-68250000D03*
X94312000Y-70250000D03*
D13*
X119183540Y-51475540D03*
X119183540Y-53550540D03*
D19*
X92130000Y-53880000D03*
X92130000Y-55880000D03*
D27*
X96124000Y-72500000D03*
D28*
X95312000Y-72438000D03*
X94812000Y-72438000D03*
X94312000Y-72438000D03*
X93812000Y-72438000D03*
D27*
X93000000Y-72500000D03*
X93000000Y-73000000D03*
X93000000Y-73500000D03*
X93000000Y-74000000D03*
X93000000Y-74500000D03*
X93000000Y-75000000D03*
X93000000Y-75500000D03*
X93000000Y-76000000D03*
X93000000Y-76500000D03*
X93000000Y-77000000D03*
D28*
X93812000Y-77063000D03*
X94312000Y-77063000D03*
X94812000Y-77063000D03*
X95312000Y-77063000D03*
D27*
X96124000Y-77000000D03*
X96124000Y-76500000D03*
X96124000Y-76000000D03*
X96124000Y-75500000D03*
X96125000Y-75000000D03*
X96125000Y-74500000D03*
X96124000Y-74000000D03*
X96124000Y-73500000D03*
X96124000Y-73000000D03*
D13*
X115683540Y-51475540D03*
X115683540Y-53550540D03*
X121290000Y-99462500D03*
X121290000Y-101537500D03*
D29*
X106031250Y-100330000D03*
X106031250Y-105230000D03*
D13*
X161030000Y-52442500D03*
X161030000Y-54517500D03*
D30*
X122290000Y-104000000D03*
X122290000Y-104950000D03*
X122290000Y-105900000D03*
X124790000Y-105900000D03*
X124790000Y-104950000D03*
X124790000Y-104000000D03*
D31*
X111440000Y-63000000D03*
X108557100Y-63000000D03*
D17*
X96312000Y-82250000D03*
X96312000Y-80250000D03*
D19*
X128792500Y-99537500D03*
X128792500Y-101537500D03*
X99124000Y-75000000D03*
X99124000Y-77000000D03*
X158550000Y-68480000D03*
X158550000Y-70480000D03*
D32*
X107537500Y-68850000D03*
X102037500Y-68850000D03*
X102037500Y-71150000D03*
X107537500Y-71150000D03*
D13*
X117790000Y-99462500D03*
X117790000Y-101537500D03*
X169170000Y-68435000D03*
X169170000Y-70510000D03*
D33*
X113302500Y-95500000D03*
X116402500Y-95500000D03*
D34*
X101120001Y-53494750D03*
X100170000Y-53494750D03*
X99219999Y-53494750D03*
X99219999Y-56225250D03*
X100170000Y-56225250D03*
X101120001Y-56225250D03*
D10*
X127290000Y-105937500D03*
X127290000Y-103862500D03*
D35*
X103340000Y-50418500D03*
X102540000Y-50418500D03*
D36*
X101390000Y-50380000D03*
X100390000Y-50380000D03*
X99890000Y-50380000D03*
X98890000Y-50380000D03*
D35*
X96940000Y-50418500D03*
X97740000Y-50418500D03*
D36*
X98390000Y-50380000D03*
X99390000Y-50380000D03*
X100890000Y-50380000D03*
X101890000Y-50380000D03*
D37*
X105260000Y-49805000D03*
X95020000Y-49805000D03*
X105260000Y-45875000D03*
X95020000Y-45875000D03*
D19*
X112183540Y-51550540D03*
X112183540Y-53550540D03*
D18*
X100462500Y-66000000D03*
X102537500Y-66000000D03*
D38*
X123193375Y-86500000D03*
X123843375Y-86500000D03*
X124493375Y-86500000D03*
X124493375Y-84600000D03*
X123193375Y-84600000D03*
D39*
X125290000Y-101537500D03*
X125290000Y-99337500D03*
D17*
X166670000Y-70472500D03*
X166670000Y-68472500D03*
X161050000Y-70480000D03*
X161050000Y-68480000D03*
X93812000Y-82250000D03*
X93812000Y-80250000D03*
X96382500Y-95420000D03*
X96382500Y-93420000D03*
D13*
X88882500Y-92707500D03*
X88882500Y-94782500D03*
D40*
X121680000Y-93460000D03*
X119680000Y-93460000D03*
D11*
X119200000Y-60420000D03*
X111200000Y-60420000D03*
X119200000Y-55920000D03*
X111200000Y-55920000D03*
D10*
X94312000Y-66487500D03*
X94312000Y-64412500D03*
X109140000Y-55787500D03*
X109140000Y-53712500D03*
D41*
X120527500Y-91670000D03*
X121177500Y-91670000D03*
X121827500Y-91670000D03*
X121827500Y-89570000D03*
X121177500Y-89570000D03*
X120527500Y-89570000D03*
M02*
