M48
; DRILL file {KiCad 9.0.7} date 2026-03-28T23:30:28-0300
; FORMAT={-:-/ absolute / metric / decimal}
; #@! TF.CreationDate,2026-03-28T23:30:28-03:00
; #@! TF.GenerationSoftware,Kicad,Pcbnew,9.0.7
; #@! TF.FileFunction,Plated,1,2,PTH
FMAT,2
METRIC
; #@! TA.AperFunction,Plated,PTH,ViaDrill
T1C0.300
; #@! TA.AperFunction,Plated,PTH,ComponentDrill
T2C0.300
; #@! TA.AperFunction,Plated,PTH,ComponentDrill
T3C0.500
; #@! TA.AperFunction,Plated,PTH,ComponentDrill
T4C0.730
; #@! TA.AperFunction,Plated,PTH,ComponentDrill
T5C1.000
; #@! TA.AperFunction,Plated,PTH,ComponentDrill
T6C1.100
; #@! TA.AperFunction,Plated,PTH,ComponentDrill
T7C3.200
%
G90
G05
T1
X56.02Y-48.19
X56.02Y-50.73
X56.02Y-53.27
X56.95Y-107.76
X56.95Y-110.3
X56.95Y-112.84
X56.95Y-115.38
X56.95Y-117.92
X56.95Y-120.46
X56.95Y-123.0
X56.95Y-125.54
X56.95Y-128.08
X58.58Y-49.74
X58.58Y-52.28
X58.58Y-54.82
X59.74Y-107.65
X59.74Y-110.19
X59.74Y-112.73
X59.74Y-115.27
X59.74Y-117.81
X59.74Y-120.35
X59.74Y-122.89
X59.74Y-125.43
X59.74Y-127.97
X60.83Y-50.41
X60.83Y-52.95
X62.29Y-112.73
X62.29Y-115.27
X62.29Y-117.81
X62.34Y-120.36
X62.34Y-122.9
X62.34Y-125.44
X62.34Y-127.98
X62.34Y-130.52
X63.03Y-47.92
X63.03Y-50.46
X63.03Y-53.0
X64.87Y-112.73
X64.87Y-115.27
X64.87Y-117.81
X64.88Y-120.36
X64.88Y-122.9
X64.88Y-125.44
X64.88Y-127.98
X64.88Y-130.52
X64.88Y-133.06
X64.88Y-135.83
X65.69Y-40.89
X65.69Y-43.43
X65.69Y-45.97
X65.69Y-48.17
X65.69Y-50.71
X65.7Y-52.75
X67.42Y-120.36
X67.42Y-122.9
X67.42Y-125.44
X67.42Y-127.98
X67.42Y-130.52
X67.42Y-133.06
X67.42Y-135.83
X68.76Y-40.91
X68.76Y-43.45
X68.76Y-45.99
X68.76Y-48.19
X68.76Y-50.73
X68.76Y-53.27
X69.96Y-120.36
X69.96Y-122.9
X69.96Y-125.44
X69.96Y-127.98
X69.96Y-130.52
X69.96Y-133.06
X69.96Y-135.83
X71.79Y-40.91
X71.79Y-43.45
X71.79Y-45.99
X71.79Y-48.19
X71.79Y-50.73
X71.79Y-53.27
X72.5Y-120.36
X72.5Y-122.9
X72.5Y-125.44
X72.5Y-127.98
X72.5Y-130.52
X72.5Y-133.06
X72.5Y-135.83
X75.04Y-120.36
X75.04Y-122.9
X75.04Y-125.44
X75.04Y-127.98
X75.04Y-130.52
X75.04Y-133.06
X75.04Y-135.83
X75.2Y-40.91
X75.2Y-43.45
X75.2Y-45.99
X75.2Y-48.19
X75.2Y-50.73
X75.2Y-53.27
X77.0Y-62.3
X77.05Y-60.15
X77.58Y-120.36
X77.58Y-122.9
X77.58Y-125.44
X77.58Y-127.98
X77.58Y-130.52
X77.58Y-133.06
X77.58Y-135.83
X78.32Y-40.89
X78.32Y-43.43
X78.32Y-45.97
X78.32Y-48.17
X78.32Y-50.71
X78.32Y-53.25
X80.12Y-120.36
X80.12Y-122.9
X80.12Y-125.44
X80.12Y-127.98
X80.12Y-130.52
X80.12Y-133.06
X80.12Y-135.83
X81.1Y-112.59
X82.31Y-40.89
X82.31Y-43.43
X82.31Y-45.97
X82.66Y-120.36
X82.66Y-122.9
X82.66Y-125.44
X82.66Y-127.98
X82.66Y-130.52
X82.66Y-133.06
X82.66Y-135.83
X85.2Y-120.36
X85.2Y-122.9
X85.2Y-125.44
X85.2Y-127.98
X85.2Y-130.52
X85.2Y-133.06
X85.2Y-135.83
X86.13Y-40.86
X86.13Y-43.4
X86.13Y-45.94
X87.64Y-82.51
X87.64Y-85.05
X87.64Y-87.59
X87.64Y-90.13
X87.68Y-67.9
X87.68Y-70.44
X87.68Y-72.98
X87.68Y-75.52
X87.68Y-78.06
X87.68Y-80.6
X87.77Y-130.52
X87.77Y-133.06
X87.77Y-135.6
X89.75Y-70.55
X89.75Y-73.09
X89.75Y-75.63
X89.75Y-78.17
X89.75Y-80.71
X89.8Y-85.07
X89.8Y-87.61
X89.8Y-90.15
X89.8Y-92.69
X89.8Y-95.23
X89.81Y-82.5
X90.05Y-57.55
X90.05Y-60.09
X90.05Y-62.63
X90.3Y-40.86
X90.3Y-43.4
X90.3Y-45.94
X92.33Y-48.84
X92.33Y-49.85
X92.65Y-57.66
X92.65Y-60.2
X92.65Y-62.74
X92.65Y-65.28
X92.7Y-112.14
X92.7Y-114.68
X92.7Y-117.22
X92.72Y-82.51
X92.72Y-85.05
X92.72Y-87.59
X92.72Y-90.13
X92.72Y-92.67
X92.72Y-95.21
X92.74Y-69.9
X92.74Y-72.44
X92.74Y-74.98
X92.74Y-77.52
X92.74Y-80.06
X92.8Y-126.4
X92.8Y-127.3
X93.29Y-48.82
X93.29Y-49.82
X93.41Y-40.8
X93.41Y-43.34
X93.41Y-45.88
X93.87Y-127.28
X93.88Y-126.37
X94.36Y-48.79
X94.36Y-49.82
X94.72Y-59.66
X94.72Y-62.2
X94.72Y-64.74
X94.72Y-67.28
X94.8Y-127.31
X94.83Y-126.37
X95.26Y-82.51
X95.26Y-85.05
X95.26Y-87.59
X95.26Y-90.13
X95.26Y-92.67
X95.26Y-95.21
X95.3Y-77.55
X95.3Y-80.09
X96.57Y-108.73
X97.07Y-64.31
X97.5Y-94.05
X100.34Y-85.05
X100.34Y-87.59
X100.34Y-90.13
X100.34Y-92.67
X100.34Y-95.21
X100.56Y-66.48
X101.45Y-80.1
X102.04Y-109.32
X102.11Y-82.68
X102.88Y-87.59
X102.88Y-90.13
X102.88Y-92.67
X102.88Y-95.21
X104.94Y-85.51
X105.42Y-90.13
X105.42Y-92.67
X105.65Y-82.2
X105.7Y-103.29
X105.86Y-68.77
X106.19Y-127.36
X106.21Y-126.47
X106.53Y-107.45
X107.14Y-126.47
X107.17Y-127.37
X107.45Y-87.84
X107.54Y-90.54
X107.69Y-41.07
X107.69Y-43.61
X107.69Y-46.15
X107.73Y-114.11
X107.73Y-116.54
X107.73Y-119.08
X108.15Y-126.45
X108.15Y-127.35
X108.22Y-48.72
X108.22Y-49.65
X108.23Y-50.53
X108.39Y-131.42
X108.39Y-133.96
X108.39Y-136.5
X109.31Y-58.26
X109.31Y-60.8
X109.31Y-63.34
X109.34Y-48.72
X109.34Y-49.65
X109.34Y-50.53
X110.02Y-106.78
X110.02Y-109.32
X110.02Y-111.86
X110.02Y-114.29
X110.02Y-116.83
X110.14Y-41.18
X110.14Y-43.72
X110.14Y-46.26
X111.29Y-131.42
X111.29Y-133.96
X111.29Y-136.5
X112.71Y-105.65
X112.71Y-108.19
X112.71Y-110.73
X112.71Y-113.16
X112.71Y-115.7
X112.84Y-41.9
X112.84Y-44.44
X112.84Y-46.98
X112.84Y-49.52
X112.84Y-52.06
X112.85Y-54.27
X112.85Y-56.81
X112.85Y-59.35
X112.85Y-61.89
X112.85Y-64.43
X112.85Y-66.77
X112.85Y-69.31
X112.85Y-71.85
X112.85Y-74.39
X112.85Y-76.93
X114.19Y-131.38
X114.19Y-133.92
X114.19Y-136.46
X115.36Y-66.76
X115.36Y-69.3
X115.36Y-71.84
X115.36Y-74.38
X115.36Y-76.92
X115.37Y-54.47
X115.37Y-57.01
X115.37Y-59.55
X115.37Y-62.09
X115.37Y-64.63
X115.43Y-41.71
X115.43Y-44.25
X115.43Y-46.79
X115.43Y-49.33
X115.43Y-51.87
X115.64Y-105.65
X115.64Y-108.19
X115.64Y-110.73
X115.64Y-113.16
X115.64Y-115.7
X115.72Y-101.03
X118.08Y-105.65
X118.08Y-108.19
X118.08Y-110.73
X118.08Y-113.16
X118.08Y-115.7
X118.24Y-51.6
X118.24Y-54.14
X118.24Y-56.68
X118.24Y-59.22
X118.24Y-61.76
X118.24Y-64.22
X118.24Y-66.76
X118.24Y-69.3
X118.24Y-71.84
X118.24Y-74.38
X120.4Y-108.19
X120.4Y-110.73
X120.4Y-113.27
X120.4Y-115.7
X120.4Y-118.24
X121.12Y-64.16
X121.12Y-66.7
X121.12Y-69.24
X121.12Y-71.78
X121.12Y-74.32
X121.17Y-51.59
X121.17Y-54.13
X121.17Y-56.67
X121.17Y-59.21
X121.17Y-61.75
X122.65Y-108.19
X122.65Y-110.73
X122.65Y-113.27
X122.65Y-115.7
X122.65Y-118.24
X122.65Y-120.78
X122.65Y-123.11
X122.65Y-125.65
X122.65Y-128.19
T2
X96.6Y-113.9
X96.6Y-115.2
X96.6Y-116.5
X97.9Y-113.9
X97.9Y-115.2
X97.9Y-116.5
X99.2Y-113.9
X99.2Y-115.2
X99.2Y-116.5
X99.44Y-59.7
X99.44Y-61.0
X99.44Y-62.3
X100.5Y-113.9
X100.5Y-115.2
X100.5Y-116.5
X100.74Y-59.7
X100.74Y-61.0
X100.74Y-62.3
X101.8Y-113.9
X101.8Y-115.2
X101.8Y-116.5
X102.04Y-59.7
X102.04Y-61.0
X102.04Y-62.3
X103.1Y-113.9
X103.1Y-115.2
X103.1Y-116.5
X103.34Y-59.7
X103.34Y-61.0
X103.34Y-62.3
X104.64Y-59.7
X104.64Y-61.0
X104.64Y-62.3
X105.94Y-59.7
X105.94Y-61.0
X105.94Y-62.3
T3
X57.34Y-44.2
X57.34Y-134.2
X58.043Y-42.503
X58.043Y-45.897
X58.043Y-132.503
X58.043Y-135.897
X59.74Y-41.8
X59.74Y-46.6
X59.74Y-131.8
X59.74Y-136.6
X61.437Y-42.503
X61.437Y-45.897
X61.437Y-132.503
X61.437Y-135.897
X62.14Y-44.2
X62.14Y-134.2
X117.1Y-44.0
X117.1Y-134.0
X117.803Y-42.303
X117.803Y-45.697
X117.803Y-132.303
X117.803Y-135.697
X119.5Y-41.6
X119.5Y-46.4
X119.5Y-131.6
X119.5Y-136.4
X121.197Y-42.303
X121.197Y-45.697
X121.197Y-132.303
X121.197Y-135.697
X121.9Y-44.0
X121.9Y-134.0
T4
X65.53Y-59.57
X65.53Y-67.51
X68.07Y-59.57
X68.07Y-67.51
X70.61Y-59.57
X70.61Y-67.51
X73.15Y-59.57
X73.15Y-67.51
T5
X121.12Y-77.43
X121.12Y-79.97
X121.12Y-82.51
X121.12Y-85.05
X121.12Y-87.59
X121.12Y-90.13
X121.12Y-92.67
X121.12Y-95.21
X121.12Y-101.51
X121.12Y-104.05
T6
X60.975Y-88.44
X60.975Y-90.98
X98.98Y-43.42
X99.27Y-134.38
X101.52Y-43.42
X101.81Y-134.38
T7
X59.74Y-44.2
X59.74Y-134.2
X119.5Y-44.0
X119.5Y-134.0
M30
