%TF.GenerationSoftware,KiCad,Pcbnew,9.0.7*%
%TF.CreationDate,2026-03-28T23:31:17-03:00*%
%TF.ProjectId,drivers-mini-vehiculo-pcb,64726976-6572-4732-9d6d-696e692d7665,rev?*%
%TF.SameCoordinates,Original*%
%TF.FileFunction,AssemblyDrawing,Top*%
%FSLAX46Y46*%
G04 Gerber Fmt 4.6, Leading zero omitted, Abs format (unit mm)*
G04 Created by KiCad (PCBNEW 9.0.7) date 2026-03-28 23:31:17*
%MOMM*%
%LPD*%
G01*
G04 APERTURE LIST*
%ADD10C,0.080000*%
%ADD11C,0.150000*%
%ADD12C,0.254000*%
%ADD13C,0.100000*%
%ADD14C,0.127000*%
%ADD15C,0.200000*%
G04 APERTURE END LIST*
D10*
X77219530Y-67708928D02*
X77243340Y-67732737D01*
X77243340Y-67732737D02*
X77267149Y-67804166D01*
X77267149Y-67804166D02*
X77267149Y-67851785D01*
X77267149Y-67851785D02*
X77243340Y-67923213D01*
X77243340Y-67923213D02*
X77195720Y-67970832D01*
X77195720Y-67970832D02*
X77148101Y-67994642D01*
X77148101Y-67994642D02*
X77052863Y-68018451D01*
X77052863Y-68018451D02*
X76981435Y-68018451D01*
X76981435Y-68018451D02*
X76886197Y-67994642D01*
X76886197Y-67994642D02*
X76838578Y-67970832D01*
X76838578Y-67970832D02*
X76790959Y-67923213D01*
X76790959Y-67923213D02*
X76767149Y-67851785D01*
X76767149Y-67851785D02*
X76767149Y-67804166D01*
X76767149Y-67804166D02*
X76790959Y-67732737D01*
X76790959Y-67732737D02*
X76814768Y-67708928D01*
X77267149Y-67232737D02*
X77267149Y-67518451D01*
X77267149Y-67375594D02*
X76767149Y-67375594D01*
X76767149Y-67375594D02*
X76838578Y-67423213D01*
X76838578Y-67423213D02*
X76886197Y-67470832D01*
X76886197Y-67470832D02*
X76910006Y-67518451D01*
X76981435Y-66947023D02*
X76957625Y-66994642D01*
X76957625Y-66994642D02*
X76933816Y-67018452D01*
X76933816Y-67018452D02*
X76886197Y-67042261D01*
X76886197Y-67042261D02*
X76862387Y-67042261D01*
X76862387Y-67042261D02*
X76814768Y-67018452D01*
X76814768Y-67018452D02*
X76790959Y-66994642D01*
X76790959Y-66994642D02*
X76767149Y-66947023D01*
X76767149Y-66947023D02*
X76767149Y-66851785D01*
X76767149Y-66851785D02*
X76790959Y-66804166D01*
X76790959Y-66804166D02*
X76814768Y-66780357D01*
X76814768Y-66780357D02*
X76862387Y-66756547D01*
X76862387Y-66756547D02*
X76886197Y-66756547D01*
X76886197Y-66756547D02*
X76933816Y-66780357D01*
X76933816Y-66780357D02*
X76957625Y-66804166D01*
X76957625Y-66804166D02*
X76981435Y-66851785D01*
X76981435Y-66851785D02*
X76981435Y-66947023D01*
X76981435Y-66947023D02*
X77005244Y-66994642D01*
X77005244Y-66994642D02*
X77029054Y-67018452D01*
X77029054Y-67018452D02*
X77076673Y-67042261D01*
X77076673Y-67042261D02*
X77171911Y-67042261D01*
X77171911Y-67042261D02*
X77219530Y-67018452D01*
X77219530Y-67018452D02*
X77243340Y-66994642D01*
X77243340Y-66994642D02*
X77267149Y-66947023D01*
X77267149Y-66947023D02*
X77267149Y-66851785D01*
X77267149Y-66851785D02*
X77243340Y-66804166D01*
X77243340Y-66804166D02*
X77219530Y-66780357D01*
X77219530Y-66780357D02*
X77171911Y-66756547D01*
X77171911Y-66756547D02*
X77076673Y-66756547D01*
X77076673Y-66756547D02*
X77029054Y-66780357D01*
X77029054Y-66780357D02*
X77005244Y-66804166D01*
X77005244Y-66804166D02*
X76981435Y-66851785D01*
D11*
X118549580Y-94463334D02*
X118597200Y-94510953D01*
X118597200Y-94510953D02*
X118644819Y-94653810D01*
X118644819Y-94653810D02*
X118644819Y-94749048D01*
X118644819Y-94749048D02*
X118597200Y-94891905D01*
X118597200Y-94891905D02*
X118501961Y-94987143D01*
X118501961Y-94987143D02*
X118406723Y-95034762D01*
X118406723Y-95034762D02*
X118216247Y-95082381D01*
X118216247Y-95082381D02*
X118073390Y-95082381D01*
X118073390Y-95082381D02*
X117882914Y-95034762D01*
X117882914Y-95034762D02*
X117787676Y-94987143D01*
X117787676Y-94987143D02*
X117692438Y-94891905D01*
X117692438Y-94891905D02*
X117644819Y-94749048D01*
X117644819Y-94749048D02*
X117644819Y-94653810D01*
X117644819Y-94653810D02*
X117692438Y-94510953D01*
X117692438Y-94510953D02*
X117740057Y-94463334D01*
X118644819Y-93891905D02*
X118597200Y-93987143D01*
X118597200Y-93987143D02*
X118549580Y-94034762D01*
X118549580Y-94034762D02*
X118454342Y-94082381D01*
X118454342Y-94082381D02*
X118168628Y-94082381D01*
X118168628Y-94082381D02*
X118073390Y-94034762D01*
X118073390Y-94034762D02*
X118025771Y-93987143D01*
X118025771Y-93987143D02*
X117978152Y-93891905D01*
X117978152Y-93891905D02*
X117978152Y-93749048D01*
X117978152Y-93749048D02*
X118025771Y-93653810D01*
X118025771Y-93653810D02*
X118073390Y-93606191D01*
X118073390Y-93606191D02*
X118168628Y-93558572D01*
X118168628Y-93558572D02*
X118454342Y-93558572D01*
X118454342Y-93558572D02*
X118549580Y-93606191D01*
X118549580Y-93606191D02*
X118597200Y-93653810D01*
X118597200Y-93653810D02*
X118644819Y-93749048D01*
X118644819Y-93749048D02*
X118644819Y-93891905D01*
X117978152Y-93130000D02*
X118644819Y-93130000D01*
X118073390Y-93130000D02*
X118025771Y-93082381D01*
X118025771Y-93082381D02*
X117978152Y-92987143D01*
X117978152Y-92987143D02*
X117978152Y-92844286D01*
X117978152Y-92844286D02*
X118025771Y-92749048D01*
X118025771Y-92749048D02*
X118121009Y-92701429D01*
X118121009Y-92701429D02*
X118644819Y-92701429D01*
X117978152Y-92225238D02*
X118644819Y-92225238D01*
X118073390Y-92225238D02*
X118025771Y-92177619D01*
X118025771Y-92177619D02*
X117978152Y-92082381D01*
X117978152Y-92082381D02*
X117978152Y-91939524D01*
X117978152Y-91939524D02*
X118025771Y-91844286D01*
X118025771Y-91844286D02*
X118121009Y-91796667D01*
X118121009Y-91796667D02*
X118644819Y-91796667D01*
X118740057Y-91558572D02*
X118740057Y-90796667D01*
X117644819Y-90368095D02*
X117644819Y-90272857D01*
X117644819Y-90272857D02*
X117692438Y-90177619D01*
X117692438Y-90177619D02*
X117740057Y-90130000D01*
X117740057Y-90130000D02*
X117835295Y-90082381D01*
X117835295Y-90082381D02*
X118025771Y-90034762D01*
X118025771Y-90034762D02*
X118263866Y-90034762D01*
X118263866Y-90034762D02*
X118454342Y-90082381D01*
X118454342Y-90082381D02*
X118549580Y-90130000D01*
X118549580Y-90130000D02*
X118597200Y-90177619D01*
X118597200Y-90177619D02*
X118644819Y-90272857D01*
X118644819Y-90272857D02*
X118644819Y-90368095D01*
X118644819Y-90368095D02*
X118597200Y-90463333D01*
X118597200Y-90463333D02*
X118549580Y-90510952D01*
X118549580Y-90510952D02*
X118454342Y-90558571D01*
X118454342Y-90558571D02*
X118263866Y-90606190D01*
X118263866Y-90606190D02*
X118025771Y-90606190D01*
X118025771Y-90606190D02*
X117835295Y-90558571D01*
X117835295Y-90558571D02*
X117740057Y-90510952D01*
X117740057Y-90510952D02*
X117692438Y-90463333D01*
X117692438Y-90463333D02*
X117644819Y-90368095D01*
X118644819Y-89082381D02*
X118644819Y-89653809D01*
X118644819Y-89368095D02*
X117644819Y-89368095D01*
X117644819Y-89368095D02*
X117787676Y-89463333D01*
X117787676Y-89463333D02*
X117882914Y-89558571D01*
X117882914Y-89558571D02*
X117930533Y-89653809D01*
X118644819Y-88749047D02*
X117978152Y-88225238D01*
X117978152Y-88749047D02*
X118644819Y-88225238D01*
X117644819Y-87653809D02*
X117644819Y-87558571D01*
X117644819Y-87558571D02*
X117692438Y-87463333D01*
X117692438Y-87463333D02*
X117740057Y-87415714D01*
X117740057Y-87415714D02*
X117835295Y-87368095D01*
X117835295Y-87368095D02*
X118025771Y-87320476D01*
X118025771Y-87320476D02*
X118263866Y-87320476D01*
X118263866Y-87320476D02*
X118454342Y-87368095D01*
X118454342Y-87368095D02*
X118549580Y-87415714D01*
X118549580Y-87415714D02*
X118597200Y-87463333D01*
X118597200Y-87463333D02*
X118644819Y-87558571D01*
X118644819Y-87558571D02*
X118644819Y-87653809D01*
X118644819Y-87653809D02*
X118597200Y-87749047D01*
X118597200Y-87749047D02*
X118549580Y-87796666D01*
X118549580Y-87796666D02*
X118454342Y-87844285D01*
X118454342Y-87844285D02*
X118263866Y-87891904D01*
X118263866Y-87891904D02*
X118025771Y-87891904D01*
X118025771Y-87891904D02*
X117835295Y-87844285D01*
X117835295Y-87844285D02*
X117740057Y-87796666D01*
X117740057Y-87796666D02*
X117692438Y-87749047D01*
X117692438Y-87749047D02*
X117644819Y-87653809D01*
X118073390Y-86749047D02*
X118025771Y-86844285D01*
X118025771Y-86844285D02*
X117978152Y-86891904D01*
X117978152Y-86891904D02*
X117882914Y-86939523D01*
X117882914Y-86939523D02*
X117835295Y-86939523D01*
X117835295Y-86939523D02*
X117740057Y-86891904D01*
X117740057Y-86891904D02*
X117692438Y-86844285D01*
X117692438Y-86844285D02*
X117644819Y-86749047D01*
X117644819Y-86749047D02*
X117644819Y-86558571D01*
X117644819Y-86558571D02*
X117692438Y-86463333D01*
X117692438Y-86463333D02*
X117740057Y-86415714D01*
X117740057Y-86415714D02*
X117835295Y-86368095D01*
X117835295Y-86368095D02*
X117882914Y-86368095D01*
X117882914Y-86368095D02*
X117978152Y-86415714D01*
X117978152Y-86415714D02*
X118025771Y-86463333D01*
X118025771Y-86463333D02*
X118073390Y-86558571D01*
X118073390Y-86558571D02*
X118073390Y-86749047D01*
X118073390Y-86749047D02*
X118121009Y-86844285D01*
X118121009Y-86844285D02*
X118168628Y-86891904D01*
X118168628Y-86891904D02*
X118263866Y-86939523D01*
X118263866Y-86939523D02*
X118454342Y-86939523D01*
X118454342Y-86939523D02*
X118549580Y-86891904D01*
X118549580Y-86891904D02*
X118597200Y-86844285D01*
X118597200Y-86844285D02*
X118644819Y-86749047D01*
X118644819Y-86749047D02*
X118644819Y-86558571D01*
X118644819Y-86558571D02*
X118597200Y-86463333D01*
X118597200Y-86463333D02*
X118549580Y-86415714D01*
X118549580Y-86415714D02*
X118454342Y-86368095D01*
X118454342Y-86368095D02*
X118263866Y-86368095D01*
X118263866Y-86368095D02*
X118168628Y-86415714D01*
X118168628Y-86415714D02*
X118121009Y-86463333D01*
X118121009Y-86463333D02*
X118073390Y-86558571D01*
X118740057Y-86177619D02*
X118740057Y-85415714D01*
X118644819Y-85177618D02*
X117644819Y-85177618D01*
X117644819Y-85177618D02*
X117644819Y-84796666D01*
X117644819Y-84796666D02*
X117692438Y-84701428D01*
X117692438Y-84701428D02*
X117740057Y-84653809D01*
X117740057Y-84653809D02*
X117835295Y-84606190D01*
X117835295Y-84606190D02*
X117978152Y-84606190D01*
X117978152Y-84606190D02*
X118073390Y-84653809D01*
X118073390Y-84653809D02*
X118121009Y-84701428D01*
X118121009Y-84701428D02*
X118168628Y-84796666D01*
X118168628Y-84796666D02*
X118168628Y-85177618D01*
X118644819Y-84177618D02*
X117978152Y-84177618D01*
X117644819Y-84177618D02*
X117692438Y-84225237D01*
X117692438Y-84225237D02*
X117740057Y-84177618D01*
X117740057Y-84177618D02*
X117692438Y-84129999D01*
X117692438Y-84129999D02*
X117644819Y-84177618D01*
X117644819Y-84177618D02*
X117740057Y-84177618D01*
X117978152Y-83701428D02*
X118644819Y-83701428D01*
X118073390Y-83701428D02*
X118025771Y-83653809D01*
X118025771Y-83653809D02*
X117978152Y-83558571D01*
X117978152Y-83558571D02*
X117978152Y-83415714D01*
X117978152Y-83415714D02*
X118025771Y-83320476D01*
X118025771Y-83320476D02*
X118121009Y-83272857D01*
X118121009Y-83272857D02*
X118644819Y-83272857D01*
X118740057Y-83034762D02*
X118740057Y-82272857D01*
X118644819Y-81606190D02*
X117644819Y-81606190D01*
X118597200Y-81606190D02*
X118644819Y-81701428D01*
X118644819Y-81701428D02*
X118644819Y-81891904D01*
X118644819Y-81891904D02*
X118597200Y-81987142D01*
X118597200Y-81987142D02*
X118549580Y-82034761D01*
X118549580Y-82034761D02*
X118454342Y-82082380D01*
X118454342Y-82082380D02*
X118168628Y-82082380D01*
X118168628Y-82082380D02*
X118073390Y-82034761D01*
X118073390Y-82034761D02*
X118025771Y-81987142D01*
X118025771Y-81987142D02*
X117978152Y-81891904D01*
X117978152Y-81891904D02*
X117978152Y-81701428D01*
X117978152Y-81701428D02*
X118025771Y-81606190D01*
X118644819Y-81129999D02*
X117978152Y-81129999D01*
X118168628Y-81129999D02*
X118073390Y-81082380D01*
X118073390Y-81082380D02*
X118025771Y-81034761D01*
X118025771Y-81034761D02*
X117978152Y-80939523D01*
X117978152Y-80939523D02*
X117978152Y-80844285D01*
X117978152Y-80606189D02*
X118644819Y-80368094D01*
X118644819Y-80368094D02*
X117978152Y-80129999D01*
D10*
X62167149Y-62981428D02*
X61929054Y-63148094D01*
X62167149Y-63267142D02*
X61667149Y-63267142D01*
X61667149Y-63267142D02*
X61667149Y-63076666D01*
X61667149Y-63076666D02*
X61690959Y-63029047D01*
X61690959Y-63029047D02*
X61714768Y-63005237D01*
X61714768Y-63005237D02*
X61762387Y-62981428D01*
X61762387Y-62981428D02*
X61833816Y-62981428D01*
X61833816Y-62981428D02*
X61881435Y-63005237D01*
X61881435Y-63005237D02*
X61905244Y-63029047D01*
X61905244Y-63029047D02*
X61929054Y-63076666D01*
X61929054Y-63076666D02*
X61929054Y-63267142D01*
X62167149Y-62505237D02*
X62167149Y-62790951D01*
X62167149Y-62648094D02*
X61667149Y-62648094D01*
X61667149Y-62648094D02*
X61738578Y-62695713D01*
X61738578Y-62695713D02*
X61786197Y-62743332D01*
X61786197Y-62743332D02*
X61810006Y-62790951D01*
X61667149Y-62338571D02*
X61667149Y-62029047D01*
X61667149Y-62029047D02*
X61857625Y-62195714D01*
X61857625Y-62195714D02*
X61857625Y-62124285D01*
X61857625Y-62124285D02*
X61881435Y-62076666D01*
X61881435Y-62076666D02*
X61905244Y-62052857D01*
X61905244Y-62052857D02*
X61952863Y-62029047D01*
X61952863Y-62029047D02*
X62071911Y-62029047D01*
X62071911Y-62029047D02*
X62119530Y-62052857D01*
X62119530Y-62052857D02*
X62143340Y-62076666D01*
X62143340Y-62076666D02*
X62167149Y-62124285D01*
X62167149Y-62124285D02*
X62167149Y-62267142D01*
X62167149Y-62267142D02*
X62143340Y-62314761D01*
X62143340Y-62314761D02*
X62119530Y-62338571D01*
D11*
X57306009Y-98043334D02*
X57353628Y-97900477D01*
X57353628Y-97900477D02*
X57401247Y-97852858D01*
X57401247Y-97852858D02*
X57496485Y-97805239D01*
X57496485Y-97805239D02*
X57639342Y-97805239D01*
X57639342Y-97805239D02*
X57734580Y-97852858D01*
X57734580Y-97852858D02*
X57782200Y-97900477D01*
X57782200Y-97900477D02*
X57829819Y-97995715D01*
X57829819Y-97995715D02*
X57829819Y-98376667D01*
X57829819Y-98376667D02*
X56829819Y-98376667D01*
X56829819Y-98376667D02*
X56829819Y-98043334D01*
X56829819Y-98043334D02*
X56877438Y-97948096D01*
X56877438Y-97948096D02*
X56925057Y-97900477D01*
X56925057Y-97900477D02*
X57020295Y-97852858D01*
X57020295Y-97852858D02*
X57115533Y-97852858D01*
X57115533Y-97852858D02*
X57210771Y-97900477D01*
X57210771Y-97900477D02*
X57258390Y-97948096D01*
X57258390Y-97948096D02*
X57306009Y-98043334D01*
X57306009Y-98043334D02*
X57306009Y-98376667D01*
X57829819Y-96948096D02*
X57306009Y-96948096D01*
X57306009Y-96948096D02*
X57210771Y-96995715D01*
X57210771Y-96995715D02*
X57163152Y-97090953D01*
X57163152Y-97090953D02*
X57163152Y-97281429D01*
X57163152Y-97281429D02*
X57210771Y-97376667D01*
X57782200Y-96948096D02*
X57829819Y-97043334D01*
X57829819Y-97043334D02*
X57829819Y-97281429D01*
X57829819Y-97281429D02*
X57782200Y-97376667D01*
X57782200Y-97376667D02*
X57686961Y-97424286D01*
X57686961Y-97424286D02*
X57591723Y-97424286D01*
X57591723Y-97424286D02*
X57496485Y-97376667D01*
X57496485Y-97376667D02*
X57448866Y-97281429D01*
X57448866Y-97281429D02*
X57448866Y-97043334D01*
X57448866Y-97043334D02*
X57401247Y-96948096D01*
X57163152Y-96614762D02*
X57163152Y-96233810D01*
X56829819Y-96471905D02*
X57686961Y-96471905D01*
X57686961Y-96471905D02*
X57782200Y-96424286D01*
X57782200Y-96424286D02*
X57829819Y-96329048D01*
X57829819Y-96329048D02*
X57829819Y-96233810D01*
X57163152Y-96043333D02*
X57163152Y-95662381D01*
X56829819Y-95900476D02*
X57686961Y-95900476D01*
X57686961Y-95900476D02*
X57782200Y-95852857D01*
X57782200Y-95852857D02*
X57829819Y-95757619D01*
X57829819Y-95757619D02*
X57829819Y-95662381D01*
X57782200Y-94948095D02*
X57829819Y-95043333D01*
X57829819Y-95043333D02*
X57829819Y-95233809D01*
X57829819Y-95233809D02*
X57782200Y-95329047D01*
X57782200Y-95329047D02*
X57686961Y-95376666D01*
X57686961Y-95376666D02*
X57306009Y-95376666D01*
X57306009Y-95376666D02*
X57210771Y-95329047D01*
X57210771Y-95329047D02*
X57163152Y-95233809D01*
X57163152Y-95233809D02*
X57163152Y-95043333D01*
X57163152Y-95043333D02*
X57210771Y-94948095D01*
X57210771Y-94948095D02*
X57306009Y-94900476D01*
X57306009Y-94900476D02*
X57401247Y-94900476D01*
X57401247Y-94900476D02*
X57496485Y-95376666D01*
X57829819Y-94471904D02*
X57163152Y-94471904D01*
X57353628Y-94471904D02*
X57258390Y-94424285D01*
X57258390Y-94424285D02*
X57210771Y-94376666D01*
X57210771Y-94376666D02*
X57163152Y-94281428D01*
X57163152Y-94281428D02*
X57163152Y-94186190D01*
X57163152Y-93948094D02*
X57829819Y-93709999D01*
X57163152Y-93471904D02*
X57829819Y-93709999D01*
X57829819Y-93709999D02*
X58067914Y-93805237D01*
X58067914Y-93805237D02*
X58115533Y-93852856D01*
X58115533Y-93852856D02*
X58163152Y-93948094D01*
X57925057Y-93329047D02*
X57925057Y-92567142D01*
X56829819Y-92471903D02*
X56829819Y-91900475D01*
X57829819Y-92186189D02*
X56829819Y-92186189D01*
X57782200Y-91186189D02*
X57829819Y-91281427D01*
X57829819Y-91281427D02*
X57829819Y-91471903D01*
X57829819Y-91471903D02*
X57782200Y-91567141D01*
X57782200Y-91567141D02*
X57686961Y-91614760D01*
X57686961Y-91614760D02*
X57306009Y-91614760D01*
X57306009Y-91614760D02*
X57210771Y-91567141D01*
X57210771Y-91567141D02*
X57163152Y-91471903D01*
X57163152Y-91471903D02*
X57163152Y-91281427D01*
X57163152Y-91281427D02*
X57210771Y-91186189D01*
X57210771Y-91186189D02*
X57306009Y-91138570D01*
X57306009Y-91138570D02*
X57401247Y-91138570D01*
X57401247Y-91138570D02*
X57496485Y-91614760D01*
X57829819Y-90709998D02*
X57163152Y-90709998D01*
X57353628Y-90709998D02*
X57258390Y-90662379D01*
X57258390Y-90662379D02*
X57210771Y-90614760D01*
X57210771Y-90614760D02*
X57163152Y-90519522D01*
X57163152Y-90519522D02*
X57163152Y-90424284D01*
X57829819Y-90090950D02*
X57163152Y-90090950D01*
X57258390Y-90090950D02*
X57210771Y-90043331D01*
X57210771Y-90043331D02*
X57163152Y-89948093D01*
X57163152Y-89948093D02*
X57163152Y-89805236D01*
X57163152Y-89805236D02*
X57210771Y-89709998D01*
X57210771Y-89709998D02*
X57306009Y-89662379D01*
X57306009Y-89662379D02*
X57829819Y-89662379D01*
X57306009Y-89662379D02*
X57210771Y-89614760D01*
X57210771Y-89614760D02*
X57163152Y-89519522D01*
X57163152Y-89519522D02*
X57163152Y-89376665D01*
X57163152Y-89376665D02*
X57210771Y-89281426D01*
X57210771Y-89281426D02*
X57306009Y-89233807D01*
X57306009Y-89233807D02*
X57829819Y-89233807D01*
X57829819Y-88757617D02*
X57163152Y-88757617D01*
X56829819Y-88757617D02*
X56877438Y-88805236D01*
X56877438Y-88805236D02*
X56925057Y-88757617D01*
X56925057Y-88757617D02*
X56877438Y-88709998D01*
X56877438Y-88709998D02*
X56829819Y-88757617D01*
X56829819Y-88757617D02*
X56925057Y-88757617D01*
X57163152Y-88281427D02*
X57829819Y-88281427D01*
X57258390Y-88281427D02*
X57210771Y-88233808D01*
X57210771Y-88233808D02*
X57163152Y-88138570D01*
X57163152Y-88138570D02*
X57163152Y-87995713D01*
X57163152Y-87995713D02*
X57210771Y-87900475D01*
X57210771Y-87900475D02*
X57306009Y-87852856D01*
X57306009Y-87852856D02*
X57829819Y-87852856D01*
X57829819Y-86948094D02*
X57306009Y-86948094D01*
X57306009Y-86948094D02*
X57210771Y-86995713D01*
X57210771Y-86995713D02*
X57163152Y-87090951D01*
X57163152Y-87090951D02*
X57163152Y-87281427D01*
X57163152Y-87281427D02*
X57210771Y-87376665D01*
X57782200Y-86948094D02*
X57829819Y-87043332D01*
X57829819Y-87043332D02*
X57829819Y-87281427D01*
X57829819Y-87281427D02*
X57782200Y-87376665D01*
X57782200Y-87376665D02*
X57686961Y-87424284D01*
X57686961Y-87424284D02*
X57591723Y-87424284D01*
X57591723Y-87424284D02*
X57496485Y-87376665D01*
X57496485Y-87376665D02*
X57448866Y-87281427D01*
X57448866Y-87281427D02*
X57448866Y-87043332D01*
X57448866Y-87043332D02*
X57401247Y-86948094D01*
X57829819Y-86329046D02*
X57782200Y-86424284D01*
X57782200Y-86424284D02*
X57686961Y-86471903D01*
X57686961Y-86471903D02*
X56829819Y-86471903D01*
X57925057Y-86186189D02*
X57925057Y-85424284D01*
X56829819Y-84995712D02*
X56829819Y-84900474D01*
X56829819Y-84900474D02*
X56877438Y-84805236D01*
X56877438Y-84805236D02*
X56925057Y-84757617D01*
X56925057Y-84757617D02*
X57020295Y-84709998D01*
X57020295Y-84709998D02*
X57210771Y-84662379D01*
X57210771Y-84662379D02*
X57448866Y-84662379D01*
X57448866Y-84662379D02*
X57639342Y-84709998D01*
X57639342Y-84709998D02*
X57734580Y-84757617D01*
X57734580Y-84757617D02*
X57782200Y-84805236D01*
X57782200Y-84805236D02*
X57829819Y-84900474D01*
X57829819Y-84900474D02*
X57829819Y-84995712D01*
X57829819Y-84995712D02*
X57782200Y-85090950D01*
X57782200Y-85090950D02*
X57734580Y-85138569D01*
X57734580Y-85138569D02*
X57639342Y-85186188D01*
X57639342Y-85186188D02*
X57448866Y-85233807D01*
X57448866Y-85233807D02*
X57210771Y-85233807D01*
X57210771Y-85233807D02*
X57020295Y-85186188D01*
X57020295Y-85186188D02*
X56925057Y-85138569D01*
X56925057Y-85138569D02*
X56877438Y-85090950D01*
X56877438Y-85090950D02*
X56829819Y-84995712D01*
X57829819Y-83709998D02*
X57829819Y-84281426D01*
X57829819Y-83995712D02*
X56829819Y-83995712D01*
X56829819Y-83995712D02*
X56972676Y-84090950D01*
X56972676Y-84090950D02*
X57067914Y-84186188D01*
X57067914Y-84186188D02*
X57115533Y-84281426D01*
X57829819Y-83376664D02*
X57163152Y-82852855D01*
X57163152Y-83376664D02*
X57829819Y-82852855D01*
X56829819Y-82281426D02*
X56829819Y-82186188D01*
X56829819Y-82186188D02*
X56877438Y-82090950D01*
X56877438Y-82090950D02*
X56925057Y-82043331D01*
X56925057Y-82043331D02*
X57020295Y-81995712D01*
X57020295Y-81995712D02*
X57210771Y-81948093D01*
X57210771Y-81948093D02*
X57448866Y-81948093D01*
X57448866Y-81948093D02*
X57639342Y-81995712D01*
X57639342Y-81995712D02*
X57734580Y-82043331D01*
X57734580Y-82043331D02*
X57782200Y-82090950D01*
X57782200Y-82090950D02*
X57829819Y-82186188D01*
X57829819Y-82186188D02*
X57829819Y-82281426D01*
X57829819Y-82281426D02*
X57782200Y-82376664D01*
X57782200Y-82376664D02*
X57734580Y-82424283D01*
X57734580Y-82424283D02*
X57639342Y-82471902D01*
X57639342Y-82471902D02*
X57448866Y-82519521D01*
X57448866Y-82519521D02*
X57210771Y-82519521D01*
X57210771Y-82519521D02*
X57020295Y-82471902D01*
X57020295Y-82471902D02*
X56925057Y-82424283D01*
X56925057Y-82424283D02*
X56877438Y-82376664D01*
X56877438Y-82376664D02*
X56829819Y-82281426D01*
X56925057Y-81567140D02*
X56877438Y-81519521D01*
X56877438Y-81519521D02*
X56829819Y-81424283D01*
X56829819Y-81424283D02*
X56829819Y-81186188D01*
X56829819Y-81186188D02*
X56877438Y-81090950D01*
X56877438Y-81090950D02*
X56925057Y-81043331D01*
X56925057Y-81043331D02*
X57020295Y-80995712D01*
X57020295Y-80995712D02*
X57115533Y-80995712D01*
X57115533Y-80995712D02*
X57258390Y-81043331D01*
X57258390Y-81043331D02*
X57829819Y-81614759D01*
X57829819Y-81614759D02*
X57829819Y-80995712D01*
X60429819Y-88773333D02*
X61144104Y-88773333D01*
X61144104Y-88773333D02*
X61286961Y-88820952D01*
X61286961Y-88820952D02*
X61382200Y-88916190D01*
X61382200Y-88916190D02*
X61429819Y-89059047D01*
X61429819Y-89059047D02*
X61429819Y-89154285D01*
X60429819Y-87868571D02*
X60429819Y-88059047D01*
X60429819Y-88059047D02*
X60477438Y-88154285D01*
X60477438Y-88154285D02*
X60525057Y-88201904D01*
X60525057Y-88201904D02*
X60667914Y-88297142D01*
X60667914Y-88297142D02*
X60858390Y-88344761D01*
X60858390Y-88344761D02*
X61239342Y-88344761D01*
X61239342Y-88344761D02*
X61334580Y-88297142D01*
X61334580Y-88297142D02*
X61382200Y-88249523D01*
X61382200Y-88249523D02*
X61429819Y-88154285D01*
X61429819Y-88154285D02*
X61429819Y-87963809D01*
X61429819Y-87963809D02*
X61382200Y-87868571D01*
X61382200Y-87868571D02*
X61334580Y-87820952D01*
X61334580Y-87820952D02*
X61239342Y-87773333D01*
X61239342Y-87773333D02*
X61001247Y-87773333D01*
X61001247Y-87773333D02*
X60906009Y-87820952D01*
X60906009Y-87820952D02*
X60858390Y-87868571D01*
X60858390Y-87868571D02*
X60810771Y-87963809D01*
X60810771Y-87963809D02*
X60810771Y-88154285D01*
X60810771Y-88154285D02*
X60858390Y-88249523D01*
X60858390Y-88249523D02*
X60906009Y-88297142D01*
X60906009Y-88297142D02*
X61001247Y-88344761D01*
X112454819Y-67190475D02*
X111454819Y-67190475D01*
X111454819Y-67190475D02*
X111454819Y-66952380D01*
X111454819Y-66952380D02*
X111502438Y-66809523D01*
X111502438Y-66809523D02*
X111597676Y-66714285D01*
X111597676Y-66714285D02*
X111692914Y-66666666D01*
X111692914Y-66666666D02*
X111883390Y-66619047D01*
X111883390Y-66619047D02*
X112026247Y-66619047D01*
X112026247Y-66619047D02*
X112216723Y-66666666D01*
X112216723Y-66666666D02*
X112311961Y-66714285D01*
X112311961Y-66714285D02*
X112407200Y-66809523D01*
X112407200Y-66809523D02*
X112454819Y-66952380D01*
X112454819Y-66952380D02*
X112454819Y-67190475D01*
X112454819Y-65619047D02*
X111978628Y-65952380D01*
X112454819Y-66190475D02*
X111454819Y-66190475D01*
X111454819Y-66190475D02*
X111454819Y-65809523D01*
X111454819Y-65809523D02*
X111502438Y-65714285D01*
X111502438Y-65714285D02*
X111550057Y-65666666D01*
X111550057Y-65666666D02*
X111645295Y-65619047D01*
X111645295Y-65619047D02*
X111788152Y-65619047D01*
X111788152Y-65619047D02*
X111883390Y-65666666D01*
X111883390Y-65666666D02*
X111931009Y-65714285D01*
X111931009Y-65714285D02*
X111978628Y-65809523D01*
X111978628Y-65809523D02*
X111978628Y-66190475D01*
X111454819Y-65333332D02*
X112454819Y-64999999D01*
X112454819Y-64999999D02*
X111454819Y-64666666D01*
X111883390Y-64190475D02*
X111835771Y-64285713D01*
X111835771Y-64285713D02*
X111788152Y-64333332D01*
X111788152Y-64333332D02*
X111692914Y-64380951D01*
X111692914Y-64380951D02*
X111645295Y-64380951D01*
X111645295Y-64380951D02*
X111550057Y-64333332D01*
X111550057Y-64333332D02*
X111502438Y-64285713D01*
X111502438Y-64285713D02*
X111454819Y-64190475D01*
X111454819Y-64190475D02*
X111454819Y-63999999D01*
X111454819Y-63999999D02*
X111502438Y-63904761D01*
X111502438Y-63904761D02*
X111550057Y-63857142D01*
X111550057Y-63857142D02*
X111645295Y-63809523D01*
X111645295Y-63809523D02*
X111692914Y-63809523D01*
X111692914Y-63809523D02*
X111788152Y-63857142D01*
X111788152Y-63857142D02*
X111835771Y-63904761D01*
X111835771Y-63904761D02*
X111883390Y-63999999D01*
X111883390Y-63999999D02*
X111883390Y-64190475D01*
X111883390Y-64190475D02*
X111931009Y-64285713D01*
X111931009Y-64285713D02*
X111978628Y-64333332D01*
X111978628Y-64333332D02*
X112073866Y-64380951D01*
X112073866Y-64380951D02*
X112264342Y-64380951D01*
X112264342Y-64380951D02*
X112359580Y-64333332D01*
X112359580Y-64333332D02*
X112407200Y-64285713D01*
X112407200Y-64285713D02*
X112454819Y-64190475D01*
X112454819Y-64190475D02*
X112454819Y-63999999D01*
X112454819Y-63999999D02*
X112407200Y-63904761D01*
X112407200Y-63904761D02*
X112359580Y-63857142D01*
X112359580Y-63857142D02*
X112264342Y-63809523D01*
X112264342Y-63809523D02*
X112073866Y-63809523D01*
X112073866Y-63809523D02*
X111978628Y-63857142D01*
X111978628Y-63857142D02*
X111931009Y-63904761D01*
X111931009Y-63904761D02*
X111883390Y-63999999D01*
X111883390Y-63238094D02*
X111835771Y-63333332D01*
X111835771Y-63333332D02*
X111788152Y-63380951D01*
X111788152Y-63380951D02*
X111692914Y-63428570D01*
X111692914Y-63428570D02*
X111645295Y-63428570D01*
X111645295Y-63428570D02*
X111550057Y-63380951D01*
X111550057Y-63380951D02*
X111502438Y-63333332D01*
X111502438Y-63333332D02*
X111454819Y-63238094D01*
X111454819Y-63238094D02*
X111454819Y-63047618D01*
X111454819Y-63047618D02*
X111502438Y-62952380D01*
X111502438Y-62952380D02*
X111550057Y-62904761D01*
X111550057Y-62904761D02*
X111645295Y-62857142D01*
X111645295Y-62857142D02*
X111692914Y-62857142D01*
X111692914Y-62857142D02*
X111788152Y-62904761D01*
X111788152Y-62904761D02*
X111835771Y-62952380D01*
X111835771Y-62952380D02*
X111883390Y-63047618D01*
X111883390Y-63047618D02*
X111883390Y-63238094D01*
X111883390Y-63238094D02*
X111931009Y-63333332D01*
X111931009Y-63333332D02*
X111978628Y-63380951D01*
X111978628Y-63380951D02*
X112073866Y-63428570D01*
X112073866Y-63428570D02*
X112264342Y-63428570D01*
X112264342Y-63428570D02*
X112359580Y-63380951D01*
X112359580Y-63380951D02*
X112407200Y-63333332D01*
X112407200Y-63333332D02*
X112454819Y-63238094D01*
X112454819Y-63238094D02*
X112454819Y-63047618D01*
X112454819Y-63047618D02*
X112407200Y-62952380D01*
X112407200Y-62952380D02*
X112359580Y-62904761D01*
X112359580Y-62904761D02*
X112264342Y-62857142D01*
X112264342Y-62857142D02*
X112073866Y-62857142D01*
X112073866Y-62857142D02*
X111978628Y-62904761D01*
X111978628Y-62904761D02*
X111931009Y-62952380D01*
X111931009Y-62952380D02*
X111883390Y-63047618D01*
X111454819Y-62523808D02*
X111454819Y-61857142D01*
X111454819Y-61857142D02*
X112454819Y-62285713D01*
X111454819Y-61571427D02*
X111454819Y-60952380D01*
X111454819Y-60952380D02*
X111835771Y-61285713D01*
X111835771Y-61285713D02*
X111835771Y-61142856D01*
X111835771Y-61142856D02*
X111883390Y-61047618D01*
X111883390Y-61047618D02*
X111931009Y-60999999D01*
X111931009Y-60999999D02*
X112026247Y-60952380D01*
X112026247Y-60952380D02*
X112264342Y-60952380D01*
X112264342Y-60952380D02*
X112359580Y-60999999D01*
X112359580Y-60999999D02*
X112407200Y-61047618D01*
X112407200Y-61047618D02*
X112454819Y-61142856D01*
X112454819Y-61142856D02*
X112454819Y-61428570D01*
X112454819Y-61428570D02*
X112407200Y-61523808D01*
X112407200Y-61523808D02*
X112359580Y-61571427D01*
X112454819Y-60523808D02*
X111454819Y-60523808D01*
X111931009Y-60523808D02*
X111931009Y-59952380D01*
X112454819Y-59952380D02*
X111454819Y-59952380D01*
X112454819Y-59476189D02*
X111454819Y-59476189D01*
X111454819Y-59476189D02*
X111454819Y-59095237D01*
X111454819Y-59095237D02*
X111502438Y-58999999D01*
X111502438Y-58999999D02*
X111550057Y-58952380D01*
X111550057Y-58952380D02*
X111645295Y-58904761D01*
X111645295Y-58904761D02*
X111788152Y-58904761D01*
X111788152Y-58904761D02*
X111883390Y-58952380D01*
X111883390Y-58952380D02*
X111931009Y-58999999D01*
X111931009Y-58999999D02*
X111978628Y-59095237D01*
X111978628Y-59095237D02*
X111978628Y-59476189D01*
X111454819Y-58571427D02*
X112454819Y-58333332D01*
X112454819Y-58333332D02*
X111740533Y-58142856D01*
X111740533Y-58142856D02*
X112454819Y-57952380D01*
X112454819Y-57952380D02*
X111454819Y-57714285D01*
X112454819Y-57333332D02*
X111454819Y-57333332D01*
X111454819Y-57333332D02*
X111454819Y-56952380D01*
X111454819Y-56952380D02*
X111502438Y-56857142D01*
X111502438Y-56857142D02*
X111550057Y-56809523D01*
X111550057Y-56809523D02*
X111645295Y-56761904D01*
X111645295Y-56761904D02*
X111788152Y-56761904D01*
X111788152Y-56761904D02*
X111883390Y-56809523D01*
X111883390Y-56809523D02*
X111931009Y-56857142D01*
X111931009Y-56857142D02*
X111978628Y-56952380D01*
X111978628Y-56952380D02*
X111978628Y-57333332D01*
X112454819Y-55761904D02*
X111978628Y-56095237D01*
X112454819Y-56333332D02*
X111454819Y-56333332D01*
X111454819Y-56333332D02*
X111454819Y-55952380D01*
X111454819Y-55952380D02*
X111502438Y-55857142D01*
X111502438Y-55857142D02*
X111550057Y-55809523D01*
X111550057Y-55809523D02*
X111645295Y-55761904D01*
X111645295Y-55761904D02*
X111788152Y-55761904D01*
X111788152Y-55761904D02*
X111883390Y-55809523D01*
X111883390Y-55809523D02*
X111931009Y-55857142D01*
X111931009Y-55857142D02*
X111978628Y-55952380D01*
X111978628Y-55952380D02*
X111978628Y-56333332D01*
X112550057Y-54666666D02*
X112502438Y-54761904D01*
X112502438Y-54761904D02*
X112407200Y-54857142D01*
X112407200Y-54857142D02*
X112264342Y-54999999D01*
X112264342Y-54999999D02*
X112216723Y-55095237D01*
X112216723Y-55095237D02*
X112216723Y-55190475D01*
X112454819Y-55142856D02*
X112407200Y-55238094D01*
X112407200Y-55238094D02*
X112311961Y-55333332D01*
X112311961Y-55333332D02*
X112121485Y-55380951D01*
X112121485Y-55380951D02*
X111788152Y-55380951D01*
X111788152Y-55380951D02*
X111597676Y-55333332D01*
X111597676Y-55333332D02*
X111502438Y-55238094D01*
X111502438Y-55238094D02*
X111454819Y-55142856D01*
X111454819Y-55142856D02*
X111454819Y-54952380D01*
X111454819Y-54952380D02*
X111502438Y-54857142D01*
X111502438Y-54857142D02*
X111597676Y-54761904D01*
X111597676Y-54761904D02*
X111788152Y-54714285D01*
X111788152Y-54714285D02*
X112121485Y-54714285D01*
X112121485Y-54714285D02*
X112311961Y-54761904D01*
X112311961Y-54761904D02*
X112407200Y-54857142D01*
X112407200Y-54857142D02*
X112454819Y-54952380D01*
X112454819Y-54952380D02*
X112454819Y-55142856D01*
X112454819Y-53761904D02*
X112454819Y-54333332D01*
X112454819Y-54047618D02*
X111454819Y-54047618D01*
X111454819Y-54047618D02*
X111597676Y-54142856D01*
X111597676Y-54142856D02*
X111692914Y-54238094D01*
X111692914Y-54238094D02*
X111740533Y-54333332D01*
X125289580Y-111643334D02*
X125337200Y-111690953D01*
X125337200Y-111690953D02*
X125384819Y-111833810D01*
X125384819Y-111833810D02*
X125384819Y-111929048D01*
X125384819Y-111929048D02*
X125337200Y-112071905D01*
X125337200Y-112071905D02*
X125241961Y-112167143D01*
X125241961Y-112167143D02*
X125146723Y-112214762D01*
X125146723Y-112214762D02*
X124956247Y-112262381D01*
X124956247Y-112262381D02*
X124813390Y-112262381D01*
X124813390Y-112262381D02*
X124622914Y-112214762D01*
X124622914Y-112214762D02*
X124527676Y-112167143D01*
X124527676Y-112167143D02*
X124432438Y-112071905D01*
X124432438Y-112071905D02*
X124384819Y-111929048D01*
X124384819Y-111929048D02*
X124384819Y-111833810D01*
X124384819Y-111833810D02*
X124432438Y-111690953D01*
X124432438Y-111690953D02*
X124480057Y-111643334D01*
X125384819Y-111071905D02*
X125337200Y-111167143D01*
X125337200Y-111167143D02*
X125289580Y-111214762D01*
X125289580Y-111214762D02*
X125194342Y-111262381D01*
X125194342Y-111262381D02*
X124908628Y-111262381D01*
X124908628Y-111262381D02*
X124813390Y-111214762D01*
X124813390Y-111214762D02*
X124765771Y-111167143D01*
X124765771Y-111167143D02*
X124718152Y-111071905D01*
X124718152Y-111071905D02*
X124718152Y-110929048D01*
X124718152Y-110929048D02*
X124765771Y-110833810D01*
X124765771Y-110833810D02*
X124813390Y-110786191D01*
X124813390Y-110786191D02*
X124908628Y-110738572D01*
X124908628Y-110738572D02*
X125194342Y-110738572D01*
X125194342Y-110738572D02*
X125289580Y-110786191D01*
X125289580Y-110786191D02*
X125337200Y-110833810D01*
X125337200Y-110833810D02*
X125384819Y-110929048D01*
X125384819Y-110929048D02*
X125384819Y-111071905D01*
X124718152Y-110310000D02*
X125384819Y-110310000D01*
X124813390Y-110310000D02*
X124765771Y-110262381D01*
X124765771Y-110262381D02*
X124718152Y-110167143D01*
X124718152Y-110167143D02*
X124718152Y-110024286D01*
X124718152Y-110024286D02*
X124765771Y-109929048D01*
X124765771Y-109929048D02*
X124861009Y-109881429D01*
X124861009Y-109881429D02*
X125384819Y-109881429D01*
X124718152Y-109405238D02*
X125384819Y-109405238D01*
X124813390Y-109405238D02*
X124765771Y-109357619D01*
X124765771Y-109357619D02*
X124718152Y-109262381D01*
X124718152Y-109262381D02*
X124718152Y-109119524D01*
X124718152Y-109119524D02*
X124765771Y-109024286D01*
X124765771Y-109024286D02*
X124861009Y-108976667D01*
X124861009Y-108976667D02*
X125384819Y-108976667D01*
X125480057Y-108738572D02*
X125480057Y-107976667D01*
X124384819Y-107548095D02*
X124384819Y-107452857D01*
X124384819Y-107452857D02*
X124432438Y-107357619D01*
X124432438Y-107357619D02*
X124480057Y-107310000D01*
X124480057Y-107310000D02*
X124575295Y-107262381D01*
X124575295Y-107262381D02*
X124765771Y-107214762D01*
X124765771Y-107214762D02*
X125003866Y-107214762D01*
X125003866Y-107214762D02*
X125194342Y-107262381D01*
X125194342Y-107262381D02*
X125289580Y-107310000D01*
X125289580Y-107310000D02*
X125337200Y-107357619D01*
X125337200Y-107357619D02*
X125384819Y-107452857D01*
X125384819Y-107452857D02*
X125384819Y-107548095D01*
X125384819Y-107548095D02*
X125337200Y-107643333D01*
X125337200Y-107643333D02*
X125289580Y-107690952D01*
X125289580Y-107690952D02*
X125194342Y-107738571D01*
X125194342Y-107738571D02*
X125003866Y-107786190D01*
X125003866Y-107786190D02*
X124765771Y-107786190D01*
X124765771Y-107786190D02*
X124575295Y-107738571D01*
X124575295Y-107738571D02*
X124480057Y-107690952D01*
X124480057Y-107690952D02*
X124432438Y-107643333D01*
X124432438Y-107643333D02*
X124384819Y-107548095D01*
X125384819Y-106262381D02*
X125384819Y-106833809D01*
X125384819Y-106548095D02*
X124384819Y-106548095D01*
X124384819Y-106548095D02*
X124527676Y-106643333D01*
X124527676Y-106643333D02*
X124622914Y-106738571D01*
X124622914Y-106738571D02*
X124670533Y-106833809D01*
X125384819Y-105929047D02*
X124718152Y-105405238D01*
X124718152Y-105929047D02*
X125384819Y-105405238D01*
X124384819Y-104833809D02*
X124384819Y-104738571D01*
X124384819Y-104738571D02*
X124432438Y-104643333D01*
X124432438Y-104643333D02*
X124480057Y-104595714D01*
X124480057Y-104595714D02*
X124575295Y-104548095D01*
X124575295Y-104548095D02*
X124765771Y-104500476D01*
X124765771Y-104500476D02*
X125003866Y-104500476D01*
X125003866Y-104500476D02*
X125194342Y-104548095D01*
X125194342Y-104548095D02*
X125289580Y-104595714D01*
X125289580Y-104595714D02*
X125337200Y-104643333D01*
X125337200Y-104643333D02*
X125384819Y-104738571D01*
X125384819Y-104738571D02*
X125384819Y-104833809D01*
X125384819Y-104833809D02*
X125337200Y-104929047D01*
X125337200Y-104929047D02*
X125289580Y-104976666D01*
X125289580Y-104976666D02*
X125194342Y-105024285D01*
X125194342Y-105024285D02*
X125003866Y-105071904D01*
X125003866Y-105071904D02*
X124765771Y-105071904D01*
X124765771Y-105071904D02*
X124575295Y-105024285D01*
X124575295Y-105024285D02*
X124480057Y-104976666D01*
X124480057Y-104976666D02*
X124432438Y-104929047D01*
X124432438Y-104929047D02*
X124384819Y-104833809D01*
X124480057Y-104119523D02*
X124432438Y-104071904D01*
X124432438Y-104071904D02*
X124384819Y-103976666D01*
X124384819Y-103976666D02*
X124384819Y-103738571D01*
X124384819Y-103738571D02*
X124432438Y-103643333D01*
X124432438Y-103643333D02*
X124480057Y-103595714D01*
X124480057Y-103595714D02*
X124575295Y-103548095D01*
X124575295Y-103548095D02*
X124670533Y-103548095D01*
X124670533Y-103548095D02*
X124813390Y-103595714D01*
X124813390Y-103595714D02*
X125384819Y-104167142D01*
X125384819Y-104167142D02*
X125384819Y-103548095D01*
X125480057Y-103357619D02*
X125480057Y-102595714D01*
X125384819Y-102357618D02*
X124384819Y-102357618D01*
X124384819Y-102357618D02*
X124384819Y-101976666D01*
X124384819Y-101976666D02*
X124432438Y-101881428D01*
X124432438Y-101881428D02*
X124480057Y-101833809D01*
X124480057Y-101833809D02*
X124575295Y-101786190D01*
X124575295Y-101786190D02*
X124718152Y-101786190D01*
X124718152Y-101786190D02*
X124813390Y-101833809D01*
X124813390Y-101833809D02*
X124861009Y-101881428D01*
X124861009Y-101881428D02*
X124908628Y-101976666D01*
X124908628Y-101976666D02*
X124908628Y-102357618D01*
X125384819Y-101357618D02*
X124718152Y-101357618D01*
X124384819Y-101357618D02*
X124432438Y-101405237D01*
X124432438Y-101405237D02*
X124480057Y-101357618D01*
X124480057Y-101357618D02*
X124432438Y-101309999D01*
X124432438Y-101309999D02*
X124384819Y-101357618D01*
X124384819Y-101357618D02*
X124480057Y-101357618D01*
X124718152Y-100881428D02*
X125384819Y-100881428D01*
X124813390Y-100881428D02*
X124765771Y-100833809D01*
X124765771Y-100833809D02*
X124718152Y-100738571D01*
X124718152Y-100738571D02*
X124718152Y-100595714D01*
X124718152Y-100595714D02*
X124765771Y-100500476D01*
X124765771Y-100500476D02*
X124861009Y-100452857D01*
X124861009Y-100452857D02*
X125384819Y-100452857D01*
X125480057Y-100214762D02*
X125480057Y-99452857D01*
X125384819Y-98786190D02*
X124384819Y-98786190D01*
X125337200Y-98786190D02*
X125384819Y-98881428D01*
X125384819Y-98881428D02*
X125384819Y-99071904D01*
X125384819Y-99071904D02*
X125337200Y-99167142D01*
X125337200Y-99167142D02*
X125289580Y-99214761D01*
X125289580Y-99214761D02*
X125194342Y-99262380D01*
X125194342Y-99262380D02*
X124908628Y-99262380D01*
X124908628Y-99262380D02*
X124813390Y-99214761D01*
X124813390Y-99214761D02*
X124765771Y-99167142D01*
X124765771Y-99167142D02*
X124718152Y-99071904D01*
X124718152Y-99071904D02*
X124718152Y-98881428D01*
X124718152Y-98881428D02*
X124765771Y-98786190D01*
X125384819Y-98309999D02*
X124718152Y-98309999D01*
X124908628Y-98309999D02*
X124813390Y-98262380D01*
X124813390Y-98262380D02*
X124765771Y-98214761D01*
X124765771Y-98214761D02*
X124718152Y-98119523D01*
X124718152Y-98119523D02*
X124718152Y-98024285D01*
X124718152Y-97786189D02*
X125384819Y-97548094D01*
X125384819Y-97548094D02*
X124718152Y-97309999D01*
X53168571Y-40504819D02*
X53168571Y-39504819D01*
X53168571Y-39504819D02*
X53501904Y-40219104D01*
X53501904Y-40219104D02*
X53835237Y-39504819D01*
X53835237Y-39504819D02*
X53835237Y-40504819D01*
X54454285Y-40504819D02*
X54359047Y-40457200D01*
X54359047Y-40457200D02*
X54311428Y-40409580D01*
X54311428Y-40409580D02*
X54263809Y-40314342D01*
X54263809Y-40314342D02*
X54263809Y-40028628D01*
X54263809Y-40028628D02*
X54311428Y-39933390D01*
X54311428Y-39933390D02*
X54359047Y-39885771D01*
X54359047Y-39885771D02*
X54454285Y-39838152D01*
X54454285Y-39838152D02*
X54597142Y-39838152D01*
X54597142Y-39838152D02*
X54692380Y-39885771D01*
X54692380Y-39885771D02*
X54739999Y-39933390D01*
X54739999Y-39933390D02*
X54787618Y-40028628D01*
X54787618Y-40028628D02*
X54787618Y-40314342D01*
X54787618Y-40314342D02*
X54739999Y-40409580D01*
X54739999Y-40409580D02*
X54692380Y-40457200D01*
X54692380Y-40457200D02*
X54597142Y-40504819D01*
X54597142Y-40504819D02*
X54454285Y-40504819D01*
X55644761Y-39838152D02*
X55644761Y-40504819D01*
X55216190Y-39838152D02*
X55216190Y-40361961D01*
X55216190Y-40361961D02*
X55263809Y-40457200D01*
X55263809Y-40457200D02*
X55359047Y-40504819D01*
X55359047Y-40504819D02*
X55501904Y-40504819D01*
X55501904Y-40504819D02*
X55597142Y-40457200D01*
X55597142Y-40457200D02*
X55644761Y-40409580D01*
X56120952Y-39838152D02*
X56120952Y-40504819D01*
X56120952Y-39933390D02*
X56168571Y-39885771D01*
X56168571Y-39885771D02*
X56263809Y-39838152D01*
X56263809Y-39838152D02*
X56406666Y-39838152D01*
X56406666Y-39838152D02*
X56501904Y-39885771D01*
X56501904Y-39885771D02*
X56549523Y-39981009D01*
X56549523Y-39981009D02*
X56549523Y-40504819D01*
X56882857Y-39838152D02*
X57263809Y-39838152D01*
X57025714Y-39504819D02*
X57025714Y-40361961D01*
X57025714Y-40361961D02*
X57073333Y-40457200D01*
X57073333Y-40457200D02*
X57168571Y-40504819D01*
X57168571Y-40504819D02*
X57263809Y-40504819D01*
X57597143Y-40504819D02*
X57597143Y-39838152D01*
X57597143Y-39504819D02*
X57549524Y-39552438D01*
X57549524Y-39552438D02*
X57597143Y-39600057D01*
X57597143Y-39600057D02*
X57644762Y-39552438D01*
X57644762Y-39552438D02*
X57597143Y-39504819D01*
X57597143Y-39504819D02*
X57597143Y-39600057D01*
X58073333Y-39838152D02*
X58073333Y-40504819D01*
X58073333Y-39933390D02*
X58120952Y-39885771D01*
X58120952Y-39885771D02*
X58216190Y-39838152D01*
X58216190Y-39838152D02*
X58359047Y-39838152D01*
X58359047Y-39838152D02*
X58454285Y-39885771D01*
X58454285Y-39885771D02*
X58501904Y-39981009D01*
X58501904Y-39981009D02*
X58501904Y-40504819D01*
X59406666Y-39838152D02*
X59406666Y-40647676D01*
X59406666Y-40647676D02*
X59359047Y-40742914D01*
X59359047Y-40742914D02*
X59311428Y-40790533D01*
X59311428Y-40790533D02*
X59216190Y-40838152D01*
X59216190Y-40838152D02*
X59073333Y-40838152D01*
X59073333Y-40838152D02*
X58978095Y-40790533D01*
X59406666Y-40457200D02*
X59311428Y-40504819D01*
X59311428Y-40504819D02*
X59120952Y-40504819D01*
X59120952Y-40504819D02*
X59025714Y-40457200D01*
X59025714Y-40457200D02*
X58978095Y-40409580D01*
X58978095Y-40409580D02*
X58930476Y-40314342D01*
X58930476Y-40314342D02*
X58930476Y-40028628D01*
X58930476Y-40028628D02*
X58978095Y-39933390D01*
X58978095Y-39933390D02*
X59025714Y-39885771D01*
X59025714Y-39885771D02*
X59120952Y-39838152D01*
X59120952Y-39838152D02*
X59311428Y-39838152D01*
X59311428Y-39838152D02*
X59406666Y-39885771D01*
X59882857Y-40504819D02*
X59882857Y-39504819D01*
X59882857Y-39981009D02*
X60454285Y-39981009D01*
X60454285Y-40504819D02*
X60454285Y-39504819D01*
X61073333Y-40504819D02*
X60978095Y-40457200D01*
X60978095Y-40457200D02*
X60930476Y-40409580D01*
X60930476Y-40409580D02*
X60882857Y-40314342D01*
X60882857Y-40314342D02*
X60882857Y-40028628D01*
X60882857Y-40028628D02*
X60930476Y-39933390D01*
X60930476Y-39933390D02*
X60978095Y-39885771D01*
X60978095Y-39885771D02*
X61073333Y-39838152D01*
X61073333Y-39838152D02*
X61216190Y-39838152D01*
X61216190Y-39838152D02*
X61311428Y-39885771D01*
X61311428Y-39885771D02*
X61359047Y-39933390D01*
X61359047Y-39933390D02*
X61406666Y-40028628D01*
X61406666Y-40028628D02*
X61406666Y-40314342D01*
X61406666Y-40314342D02*
X61359047Y-40409580D01*
X61359047Y-40409580D02*
X61311428Y-40457200D01*
X61311428Y-40457200D02*
X61216190Y-40504819D01*
X61216190Y-40504819D02*
X61073333Y-40504819D01*
X61978095Y-40504819D02*
X61882857Y-40457200D01*
X61882857Y-40457200D02*
X61835238Y-40361961D01*
X61835238Y-40361961D02*
X61835238Y-39504819D01*
X62740000Y-40457200D02*
X62644762Y-40504819D01*
X62644762Y-40504819D02*
X62454286Y-40504819D01*
X62454286Y-40504819D02*
X62359048Y-40457200D01*
X62359048Y-40457200D02*
X62311429Y-40361961D01*
X62311429Y-40361961D02*
X62311429Y-39981009D01*
X62311429Y-39981009D02*
X62359048Y-39885771D01*
X62359048Y-39885771D02*
X62454286Y-39838152D01*
X62454286Y-39838152D02*
X62644762Y-39838152D01*
X62644762Y-39838152D02*
X62740000Y-39885771D01*
X62740000Y-39885771D02*
X62787619Y-39981009D01*
X62787619Y-39981009D02*
X62787619Y-40076247D01*
X62787619Y-40076247D02*
X62311429Y-40171485D01*
X62978096Y-40600057D02*
X63740000Y-40600057D01*
X63978096Y-40504819D02*
X63978096Y-39504819D01*
X63978096Y-39504819D02*
X64359048Y-39504819D01*
X64359048Y-39504819D02*
X64454286Y-39552438D01*
X64454286Y-39552438D02*
X64501905Y-39600057D01*
X64501905Y-39600057D02*
X64549524Y-39695295D01*
X64549524Y-39695295D02*
X64549524Y-39838152D01*
X64549524Y-39838152D02*
X64501905Y-39933390D01*
X64501905Y-39933390D02*
X64454286Y-39981009D01*
X64454286Y-39981009D02*
X64359048Y-40028628D01*
X64359048Y-40028628D02*
X63978096Y-40028628D01*
X65406667Y-40504819D02*
X65406667Y-39981009D01*
X65406667Y-39981009D02*
X65359048Y-39885771D01*
X65359048Y-39885771D02*
X65263810Y-39838152D01*
X65263810Y-39838152D02*
X65073334Y-39838152D01*
X65073334Y-39838152D02*
X64978096Y-39885771D01*
X65406667Y-40457200D02*
X65311429Y-40504819D01*
X65311429Y-40504819D02*
X65073334Y-40504819D01*
X65073334Y-40504819D02*
X64978096Y-40457200D01*
X64978096Y-40457200D02*
X64930477Y-40361961D01*
X64930477Y-40361961D02*
X64930477Y-40266723D01*
X64930477Y-40266723D02*
X64978096Y-40171485D01*
X64978096Y-40171485D02*
X65073334Y-40123866D01*
X65073334Y-40123866D02*
X65311429Y-40123866D01*
X65311429Y-40123866D02*
X65406667Y-40076247D01*
X66311429Y-40504819D02*
X66311429Y-39504819D01*
X66311429Y-40457200D02*
X66216191Y-40504819D01*
X66216191Y-40504819D02*
X66025715Y-40504819D01*
X66025715Y-40504819D02*
X65930477Y-40457200D01*
X65930477Y-40457200D02*
X65882858Y-40409580D01*
X65882858Y-40409580D02*
X65835239Y-40314342D01*
X65835239Y-40314342D02*
X65835239Y-40028628D01*
X65835239Y-40028628D02*
X65882858Y-39933390D01*
X65882858Y-39933390D02*
X65930477Y-39885771D01*
X65930477Y-39885771D02*
X66025715Y-39838152D01*
X66025715Y-39838152D02*
X66216191Y-39838152D01*
X66216191Y-39838152D02*
X66311429Y-39885771D01*
X58978095Y-44654819D02*
X58978095Y-43654819D01*
X58978095Y-44131009D02*
X59549523Y-44131009D01*
X59549523Y-44654819D02*
X59549523Y-43654819D01*
X59978095Y-43750057D02*
X60025714Y-43702438D01*
X60025714Y-43702438D02*
X60120952Y-43654819D01*
X60120952Y-43654819D02*
X60359047Y-43654819D01*
X60359047Y-43654819D02*
X60454285Y-43702438D01*
X60454285Y-43702438D02*
X60501904Y-43750057D01*
X60501904Y-43750057D02*
X60549523Y-43845295D01*
X60549523Y-43845295D02*
X60549523Y-43940533D01*
X60549523Y-43940533D02*
X60501904Y-44083390D01*
X60501904Y-44083390D02*
X59930476Y-44654819D01*
X59930476Y-44654819D02*
X60549523Y-44654819D01*
X94659047Y-139054819D02*
X94659047Y-138054819D01*
X94659047Y-138054819D02*
X94992380Y-138769104D01*
X94992380Y-138769104D02*
X95325713Y-138054819D01*
X95325713Y-138054819D02*
X95325713Y-139054819D01*
X95944761Y-139054819D02*
X95849523Y-139007200D01*
X95849523Y-139007200D02*
X95801904Y-138959580D01*
X95801904Y-138959580D02*
X95754285Y-138864342D01*
X95754285Y-138864342D02*
X95754285Y-138578628D01*
X95754285Y-138578628D02*
X95801904Y-138483390D01*
X95801904Y-138483390D02*
X95849523Y-138435771D01*
X95849523Y-138435771D02*
X95944761Y-138388152D01*
X95944761Y-138388152D02*
X96087618Y-138388152D01*
X96087618Y-138388152D02*
X96182856Y-138435771D01*
X96182856Y-138435771D02*
X96230475Y-138483390D01*
X96230475Y-138483390D02*
X96278094Y-138578628D01*
X96278094Y-138578628D02*
X96278094Y-138864342D01*
X96278094Y-138864342D02*
X96230475Y-138959580D01*
X96230475Y-138959580D02*
X96182856Y-139007200D01*
X96182856Y-139007200D02*
X96087618Y-139054819D01*
X96087618Y-139054819D02*
X95944761Y-139054819D01*
X96563809Y-138388152D02*
X96944761Y-138388152D01*
X96706666Y-138054819D02*
X96706666Y-138911961D01*
X96706666Y-138911961D02*
X96754285Y-139007200D01*
X96754285Y-139007200D02*
X96849523Y-139054819D01*
X96849523Y-139054819D02*
X96944761Y-139054819D01*
X97420952Y-139054819D02*
X97325714Y-139007200D01*
X97325714Y-139007200D02*
X97278095Y-138959580D01*
X97278095Y-138959580D02*
X97230476Y-138864342D01*
X97230476Y-138864342D02*
X97230476Y-138578628D01*
X97230476Y-138578628D02*
X97278095Y-138483390D01*
X97278095Y-138483390D02*
X97325714Y-138435771D01*
X97325714Y-138435771D02*
X97420952Y-138388152D01*
X97420952Y-138388152D02*
X97563809Y-138388152D01*
X97563809Y-138388152D02*
X97659047Y-138435771D01*
X97659047Y-138435771D02*
X97706666Y-138483390D01*
X97706666Y-138483390D02*
X97754285Y-138578628D01*
X97754285Y-138578628D02*
X97754285Y-138864342D01*
X97754285Y-138864342D02*
X97706666Y-138959580D01*
X97706666Y-138959580D02*
X97659047Y-139007200D01*
X97659047Y-139007200D02*
X97563809Y-139054819D01*
X97563809Y-139054819D02*
X97420952Y-139054819D01*
X98182857Y-139054819D02*
X98182857Y-138388152D01*
X98182857Y-138578628D02*
X98230476Y-138483390D01*
X98230476Y-138483390D02*
X98278095Y-138435771D01*
X98278095Y-138435771D02*
X98373333Y-138388152D01*
X98373333Y-138388152D02*
X98468571Y-138388152D01*
X99325714Y-139054819D02*
X98754286Y-139054819D01*
X99040000Y-139054819D02*
X99040000Y-138054819D01*
X99040000Y-138054819D02*
X98944762Y-138197676D01*
X98944762Y-138197676D02*
X98849524Y-138292914D01*
X98849524Y-138292914D02*
X98754286Y-138340533D01*
X99516191Y-139150057D02*
X100278095Y-139150057D01*
X100373334Y-138054819D02*
X100944762Y-138054819D01*
X100659048Y-139054819D02*
X100659048Y-138054819D01*
X101659048Y-139007200D02*
X101563810Y-139054819D01*
X101563810Y-139054819D02*
X101373334Y-139054819D01*
X101373334Y-139054819D02*
X101278096Y-139007200D01*
X101278096Y-139007200D02*
X101230477Y-138911961D01*
X101230477Y-138911961D02*
X101230477Y-138531009D01*
X101230477Y-138531009D02*
X101278096Y-138435771D01*
X101278096Y-138435771D02*
X101373334Y-138388152D01*
X101373334Y-138388152D02*
X101563810Y-138388152D01*
X101563810Y-138388152D02*
X101659048Y-138435771D01*
X101659048Y-138435771D02*
X101706667Y-138531009D01*
X101706667Y-138531009D02*
X101706667Y-138626247D01*
X101706667Y-138626247D02*
X101230477Y-138721485D01*
X102135239Y-139054819D02*
X102135239Y-138388152D01*
X102135239Y-138578628D02*
X102182858Y-138483390D01*
X102182858Y-138483390D02*
X102230477Y-138435771D01*
X102230477Y-138435771D02*
X102325715Y-138388152D01*
X102325715Y-138388152D02*
X102420953Y-138388152D01*
X102754287Y-139054819D02*
X102754287Y-138388152D01*
X102754287Y-138483390D02*
X102801906Y-138435771D01*
X102801906Y-138435771D02*
X102897144Y-138388152D01*
X102897144Y-138388152D02*
X103040001Y-138388152D01*
X103040001Y-138388152D02*
X103135239Y-138435771D01*
X103135239Y-138435771D02*
X103182858Y-138531009D01*
X103182858Y-138531009D02*
X103182858Y-139054819D01*
X103182858Y-138531009D02*
X103230477Y-138435771D01*
X103230477Y-138435771D02*
X103325715Y-138388152D01*
X103325715Y-138388152D02*
X103468572Y-138388152D01*
X103468572Y-138388152D02*
X103563811Y-138435771D01*
X103563811Y-138435771D02*
X103611430Y-138531009D01*
X103611430Y-138531009D02*
X103611430Y-139054819D01*
X104087620Y-139054819D02*
X104087620Y-138388152D01*
X104087620Y-138054819D02*
X104040001Y-138102438D01*
X104040001Y-138102438D02*
X104087620Y-138150057D01*
X104087620Y-138150057D02*
X104135239Y-138102438D01*
X104135239Y-138102438D02*
X104087620Y-138054819D01*
X104087620Y-138054819D02*
X104087620Y-138150057D01*
X104563810Y-138388152D02*
X104563810Y-139054819D01*
X104563810Y-138483390D02*
X104611429Y-138435771D01*
X104611429Y-138435771D02*
X104706667Y-138388152D01*
X104706667Y-138388152D02*
X104849524Y-138388152D01*
X104849524Y-138388152D02*
X104944762Y-138435771D01*
X104944762Y-138435771D02*
X104992381Y-138531009D01*
X104992381Y-138531009D02*
X104992381Y-139054819D01*
X105897143Y-139054819D02*
X105897143Y-138531009D01*
X105897143Y-138531009D02*
X105849524Y-138435771D01*
X105849524Y-138435771D02*
X105754286Y-138388152D01*
X105754286Y-138388152D02*
X105563810Y-138388152D01*
X105563810Y-138388152D02*
X105468572Y-138435771D01*
X105897143Y-139007200D02*
X105801905Y-139054819D01*
X105801905Y-139054819D02*
X105563810Y-139054819D01*
X105563810Y-139054819D02*
X105468572Y-139007200D01*
X105468572Y-139007200D02*
X105420953Y-138911961D01*
X105420953Y-138911961D02*
X105420953Y-138816723D01*
X105420953Y-138816723D02*
X105468572Y-138721485D01*
X105468572Y-138721485D02*
X105563810Y-138673866D01*
X105563810Y-138673866D02*
X105801905Y-138673866D01*
X105801905Y-138673866D02*
X105897143Y-138626247D01*
X106516191Y-139054819D02*
X106420953Y-139007200D01*
X106420953Y-139007200D02*
X106373334Y-138911961D01*
X106373334Y-138911961D02*
X106373334Y-138054819D01*
X100206666Y-135834819D02*
X100206666Y-136549104D01*
X100206666Y-136549104D02*
X100159047Y-136691961D01*
X100159047Y-136691961D02*
X100063809Y-136787200D01*
X100063809Y-136787200D02*
X99920952Y-136834819D01*
X99920952Y-136834819D02*
X99825714Y-136834819D01*
X101111428Y-136168152D02*
X101111428Y-136834819D01*
X100873333Y-135787200D02*
X100635238Y-136501485D01*
X100635238Y-136501485D02*
X101254285Y-136501485D01*
X55824819Y-59361904D02*
X55824819Y-58790476D01*
X56824819Y-59076190D02*
X55824819Y-59076190D01*
X56824819Y-58457142D02*
X55824819Y-58457142D01*
X55824819Y-58457142D02*
X55824819Y-58076190D01*
X55824819Y-58076190D02*
X55872438Y-57980952D01*
X55872438Y-57980952D02*
X55920057Y-57933333D01*
X55920057Y-57933333D02*
X56015295Y-57885714D01*
X56015295Y-57885714D02*
X56158152Y-57885714D01*
X56158152Y-57885714D02*
X56253390Y-57933333D01*
X56253390Y-57933333D02*
X56301009Y-57980952D01*
X56301009Y-57980952D02*
X56348628Y-58076190D01*
X56348628Y-58076190D02*
X56348628Y-58457142D01*
X55824819Y-57552380D02*
X55824819Y-56933333D01*
X55824819Y-56933333D02*
X56205771Y-57266666D01*
X56205771Y-57266666D02*
X56205771Y-57123809D01*
X56205771Y-57123809D02*
X56253390Y-57028571D01*
X56253390Y-57028571D02*
X56301009Y-56980952D01*
X56301009Y-56980952D02*
X56396247Y-56933333D01*
X56396247Y-56933333D02*
X56634342Y-56933333D01*
X56634342Y-56933333D02*
X56729580Y-56980952D01*
X56729580Y-56980952D02*
X56777200Y-57028571D01*
X56777200Y-57028571D02*
X56824819Y-57123809D01*
X56824819Y-57123809D02*
X56824819Y-57409523D01*
X56824819Y-57409523D02*
X56777200Y-57504761D01*
X56777200Y-57504761D02*
X56729580Y-57552380D01*
X55744819Y-72611904D02*
X55744819Y-72040476D01*
X56744819Y-72326190D02*
X55744819Y-72326190D01*
X56744819Y-71707142D02*
X55744819Y-71707142D01*
X55744819Y-71707142D02*
X55744819Y-71326190D01*
X55744819Y-71326190D02*
X55792438Y-71230952D01*
X55792438Y-71230952D02*
X55840057Y-71183333D01*
X55840057Y-71183333D02*
X55935295Y-71135714D01*
X55935295Y-71135714D02*
X56078152Y-71135714D01*
X56078152Y-71135714D02*
X56173390Y-71183333D01*
X56173390Y-71183333D02*
X56221009Y-71230952D01*
X56221009Y-71230952D02*
X56268628Y-71326190D01*
X56268628Y-71326190D02*
X56268628Y-71707142D01*
X56744819Y-70183333D02*
X56744819Y-70754761D01*
X56744819Y-70469047D02*
X55744819Y-70469047D01*
X55744819Y-70469047D02*
X55887676Y-70564285D01*
X55887676Y-70564285D02*
X55982914Y-70659523D01*
X55982914Y-70659523D02*
X56030533Y-70754761D01*
D10*
X77578571Y-71547149D02*
X77411905Y-71309054D01*
X77292857Y-71547149D02*
X77292857Y-71047149D01*
X77292857Y-71047149D02*
X77483333Y-71047149D01*
X77483333Y-71047149D02*
X77530952Y-71070959D01*
X77530952Y-71070959D02*
X77554762Y-71094768D01*
X77554762Y-71094768D02*
X77578571Y-71142387D01*
X77578571Y-71142387D02*
X77578571Y-71213816D01*
X77578571Y-71213816D02*
X77554762Y-71261435D01*
X77554762Y-71261435D02*
X77530952Y-71285244D01*
X77530952Y-71285244D02*
X77483333Y-71309054D01*
X77483333Y-71309054D02*
X77292857Y-71309054D01*
X78054762Y-71547149D02*
X77769048Y-71547149D01*
X77911905Y-71547149D02*
X77911905Y-71047149D01*
X77911905Y-71047149D02*
X77864286Y-71118578D01*
X77864286Y-71118578D02*
X77816667Y-71166197D01*
X77816667Y-71166197D02*
X77769048Y-71190006D01*
X78364285Y-71047149D02*
X78411904Y-71047149D01*
X78411904Y-71047149D02*
X78459523Y-71070959D01*
X78459523Y-71070959D02*
X78483333Y-71094768D01*
X78483333Y-71094768D02*
X78507142Y-71142387D01*
X78507142Y-71142387D02*
X78530952Y-71237625D01*
X78530952Y-71237625D02*
X78530952Y-71356673D01*
X78530952Y-71356673D02*
X78507142Y-71451911D01*
X78507142Y-71451911D02*
X78483333Y-71499530D01*
X78483333Y-71499530D02*
X78459523Y-71523340D01*
X78459523Y-71523340D02*
X78411904Y-71547149D01*
X78411904Y-71547149D02*
X78364285Y-71547149D01*
X78364285Y-71547149D02*
X78316666Y-71523340D01*
X78316666Y-71523340D02*
X78292857Y-71499530D01*
X78292857Y-71499530D02*
X78269047Y-71451911D01*
X78269047Y-71451911D02*
X78245238Y-71356673D01*
X78245238Y-71356673D02*
X78245238Y-71237625D01*
X78245238Y-71237625D02*
X78269047Y-71142387D01*
X78269047Y-71142387D02*
X78292857Y-71094768D01*
X78292857Y-71094768D02*
X78316666Y-71070959D01*
X78316666Y-71070959D02*
X78364285Y-71047149D01*
D11*
X112928571Y-139954819D02*
X112928571Y-138954819D01*
X112928571Y-138954819D02*
X113261904Y-139669104D01*
X113261904Y-139669104D02*
X113595237Y-138954819D01*
X113595237Y-138954819D02*
X113595237Y-139954819D01*
X114214285Y-139954819D02*
X114119047Y-139907200D01*
X114119047Y-139907200D02*
X114071428Y-139859580D01*
X114071428Y-139859580D02*
X114023809Y-139764342D01*
X114023809Y-139764342D02*
X114023809Y-139478628D01*
X114023809Y-139478628D02*
X114071428Y-139383390D01*
X114071428Y-139383390D02*
X114119047Y-139335771D01*
X114119047Y-139335771D02*
X114214285Y-139288152D01*
X114214285Y-139288152D02*
X114357142Y-139288152D01*
X114357142Y-139288152D02*
X114452380Y-139335771D01*
X114452380Y-139335771D02*
X114499999Y-139383390D01*
X114499999Y-139383390D02*
X114547618Y-139478628D01*
X114547618Y-139478628D02*
X114547618Y-139764342D01*
X114547618Y-139764342D02*
X114499999Y-139859580D01*
X114499999Y-139859580D02*
X114452380Y-139907200D01*
X114452380Y-139907200D02*
X114357142Y-139954819D01*
X114357142Y-139954819D02*
X114214285Y-139954819D01*
X115404761Y-139288152D02*
X115404761Y-139954819D01*
X114976190Y-139288152D02*
X114976190Y-139811961D01*
X114976190Y-139811961D02*
X115023809Y-139907200D01*
X115023809Y-139907200D02*
X115119047Y-139954819D01*
X115119047Y-139954819D02*
X115261904Y-139954819D01*
X115261904Y-139954819D02*
X115357142Y-139907200D01*
X115357142Y-139907200D02*
X115404761Y-139859580D01*
X115880952Y-139288152D02*
X115880952Y-139954819D01*
X115880952Y-139383390D02*
X115928571Y-139335771D01*
X115928571Y-139335771D02*
X116023809Y-139288152D01*
X116023809Y-139288152D02*
X116166666Y-139288152D01*
X116166666Y-139288152D02*
X116261904Y-139335771D01*
X116261904Y-139335771D02*
X116309523Y-139431009D01*
X116309523Y-139431009D02*
X116309523Y-139954819D01*
X116642857Y-139288152D02*
X117023809Y-139288152D01*
X116785714Y-138954819D02*
X116785714Y-139811961D01*
X116785714Y-139811961D02*
X116833333Y-139907200D01*
X116833333Y-139907200D02*
X116928571Y-139954819D01*
X116928571Y-139954819D02*
X117023809Y-139954819D01*
X117357143Y-139954819D02*
X117357143Y-139288152D01*
X117357143Y-138954819D02*
X117309524Y-139002438D01*
X117309524Y-139002438D02*
X117357143Y-139050057D01*
X117357143Y-139050057D02*
X117404762Y-139002438D01*
X117404762Y-139002438D02*
X117357143Y-138954819D01*
X117357143Y-138954819D02*
X117357143Y-139050057D01*
X117833333Y-139288152D02*
X117833333Y-139954819D01*
X117833333Y-139383390D02*
X117880952Y-139335771D01*
X117880952Y-139335771D02*
X117976190Y-139288152D01*
X117976190Y-139288152D02*
X118119047Y-139288152D01*
X118119047Y-139288152D02*
X118214285Y-139335771D01*
X118214285Y-139335771D02*
X118261904Y-139431009D01*
X118261904Y-139431009D02*
X118261904Y-139954819D01*
X119166666Y-139288152D02*
X119166666Y-140097676D01*
X119166666Y-140097676D02*
X119119047Y-140192914D01*
X119119047Y-140192914D02*
X119071428Y-140240533D01*
X119071428Y-140240533D02*
X118976190Y-140288152D01*
X118976190Y-140288152D02*
X118833333Y-140288152D01*
X118833333Y-140288152D02*
X118738095Y-140240533D01*
X119166666Y-139907200D02*
X119071428Y-139954819D01*
X119071428Y-139954819D02*
X118880952Y-139954819D01*
X118880952Y-139954819D02*
X118785714Y-139907200D01*
X118785714Y-139907200D02*
X118738095Y-139859580D01*
X118738095Y-139859580D02*
X118690476Y-139764342D01*
X118690476Y-139764342D02*
X118690476Y-139478628D01*
X118690476Y-139478628D02*
X118738095Y-139383390D01*
X118738095Y-139383390D02*
X118785714Y-139335771D01*
X118785714Y-139335771D02*
X118880952Y-139288152D01*
X118880952Y-139288152D02*
X119071428Y-139288152D01*
X119071428Y-139288152D02*
X119166666Y-139335771D01*
X119642857Y-139954819D02*
X119642857Y-138954819D01*
X119642857Y-139431009D02*
X120214285Y-139431009D01*
X120214285Y-139954819D02*
X120214285Y-138954819D01*
X120833333Y-139954819D02*
X120738095Y-139907200D01*
X120738095Y-139907200D02*
X120690476Y-139859580D01*
X120690476Y-139859580D02*
X120642857Y-139764342D01*
X120642857Y-139764342D02*
X120642857Y-139478628D01*
X120642857Y-139478628D02*
X120690476Y-139383390D01*
X120690476Y-139383390D02*
X120738095Y-139335771D01*
X120738095Y-139335771D02*
X120833333Y-139288152D01*
X120833333Y-139288152D02*
X120976190Y-139288152D01*
X120976190Y-139288152D02*
X121071428Y-139335771D01*
X121071428Y-139335771D02*
X121119047Y-139383390D01*
X121119047Y-139383390D02*
X121166666Y-139478628D01*
X121166666Y-139478628D02*
X121166666Y-139764342D01*
X121166666Y-139764342D02*
X121119047Y-139859580D01*
X121119047Y-139859580D02*
X121071428Y-139907200D01*
X121071428Y-139907200D02*
X120976190Y-139954819D01*
X120976190Y-139954819D02*
X120833333Y-139954819D01*
X121738095Y-139954819D02*
X121642857Y-139907200D01*
X121642857Y-139907200D02*
X121595238Y-139811961D01*
X121595238Y-139811961D02*
X121595238Y-138954819D01*
X122500000Y-139907200D02*
X122404762Y-139954819D01*
X122404762Y-139954819D02*
X122214286Y-139954819D01*
X122214286Y-139954819D02*
X122119048Y-139907200D01*
X122119048Y-139907200D02*
X122071429Y-139811961D01*
X122071429Y-139811961D02*
X122071429Y-139431009D01*
X122071429Y-139431009D02*
X122119048Y-139335771D01*
X122119048Y-139335771D02*
X122214286Y-139288152D01*
X122214286Y-139288152D02*
X122404762Y-139288152D01*
X122404762Y-139288152D02*
X122500000Y-139335771D01*
X122500000Y-139335771D02*
X122547619Y-139431009D01*
X122547619Y-139431009D02*
X122547619Y-139526247D01*
X122547619Y-139526247D02*
X122071429Y-139621485D01*
X122738096Y-140050057D02*
X123500000Y-140050057D01*
X123738096Y-139954819D02*
X123738096Y-138954819D01*
X123738096Y-138954819D02*
X124119048Y-138954819D01*
X124119048Y-138954819D02*
X124214286Y-139002438D01*
X124214286Y-139002438D02*
X124261905Y-139050057D01*
X124261905Y-139050057D02*
X124309524Y-139145295D01*
X124309524Y-139145295D02*
X124309524Y-139288152D01*
X124309524Y-139288152D02*
X124261905Y-139383390D01*
X124261905Y-139383390D02*
X124214286Y-139431009D01*
X124214286Y-139431009D02*
X124119048Y-139478628D01*
X124119048Y-139478628D02*
X123738096Y-139478628D01*
X125166667Y-139954819D02*
X125166667Y-139431009D01*
X125166667Y-139431009D02*
X125119048Y-139335771D01*
X125119048Y-139335771D02*
X125023810Y-139288152D01*
X125023810Y-139288152D02*
X124833334Y-139288152D01*
X124833334Y-139288152D02*
X124738096Y-139335771D01*
X125166667Y-139907200D02*
X125071429Y-139954819D01*
X125071429Y-139954819D02*
X124833334Y-139954819D01*
X124833334Y-139954819D02*
X124738096Y-139907200D01*
X124738096Y-139907200D02*
X124690477Y-139811961D01*
X124690477Y-139811961D02*
X124690477Y-139716723D01*
X124690477Y-139716723D02*
X124738096Y-139621485D01*
X124738096Y-139621485D02*
X124833334Y-139573866D01*
X124833334Y-139573866D02*
X125071429Y-139573866D01*
X125071429Y-139573866D02*
X125166667Y-139526247D01*
X126071429Y-139954819D02*
X126071429Y-138954819D01*
X126071429Y-139907200D02*
X125976191Y-139954819D01*
X125976191Y-139954819D02*
X125785715Y-139954819D01*
X125785715Y-139954819D02*
X125690477Y-139907200D01*
X125690477Y-139907200D02*
X125642858Y-139859580D01*
X125642858Y-139859580D02*
X125595239Y-139764342D01*
X125595239Y-139764342D02*
X125595239Y-139478628D01*
X125595239Y-139478628D02*
X125642858Y-139383390D01*
X125642858Y-139383390D02*
X125690477Y-139335771D01*
X125690477Y-139335771D02*
X125785715Y-139288152D01*
X125785715Y-139288152D02*
X125976191Y-139288152D01*
X125976191Y-139288152D02*
X126071429Y-139335771D01*
X118738095Y-134454819D02*
X118738095Y-133454819D01*
X118738095Y-133931009D02*
X119309523Y-133931009D01*
X119309523Y-134454819D02*
X119309523Y-133454819D01*
X120214285Y-133788152D02*
X120214285Y-134454819D01*
X119976190Y-133407200D02*
X119738095Y-134121485D01*
X119738095Y-134121485D02*
X120357142Y-134121485D01*
X91454819Y-123190475D02*
X90454819Y-123190475D01*
X90454819Y-123190475D02*
X90454819Y-122952380D01*
X90454819Y-122952380D02*
X90502438Y-122809523D01*
X90502438Y-122809523D02*
X90597676Y-122714285D01*
X90597676Y-122714285D02*
X90692914Y-122666666D01*
X90692914Y-122666666D02*
X90883390Y-122619047D01*
X90883390Y-122619047D02*
X91026247Y-122619047D01*
X91026247Y-122619047D02*
X91216723Y-122666666D01*
X91216723Y-122666666D02*
X91311961Y-122714285D01*
X91311961Y-122714285D02*
X91407200Y-122809523D01*
X91407200Y-122809523D02*
X91454819Y-122952380D01*
X91454819Y-122952380D02*
X91454819Y-123190475D01*
X91454819Y-121619047D02*
X90978628Y-121952380D01*
X91454819Y-122190475D02*
X90454819Y-122190475D01*
X90454819Y-122190475D02*
X90454819Y-121809523D01*
X90454819Y-121809523D02*
X90502438Y-121714285D01*
X90502438Y-121714285D02*
X90550057Y-121666666D01*
X90550057Y-121666666D02*
X90645295Y-121619047D01*
X90645295Y-121619047D02*
X90788152Y-121619047D01*
X90788152Y-121619047D02*
X90883390Y-121666666D01*
X90883390Y-121666666D02*
X90931009Y-121714285D01*
X90931009Y-121714285D02*
X90978628Y-121809523D01*
X90978628Y-121809523D02*
X90978628Y-122190475D01*
X90454819Y-121333332D02*
X91454819Y-120999999D01*
X91454819Y-120999999D02*
X90454819Y-120666666D01*
X90883390Y-120190475D02*
X90835771Y-120285713D01*
X90835771Y-120285713D02*
X90788152Y-120333332D01*
X90788152Y-120333332D02*
X90692914Y-120380951D01*
X90692914Y-120380951D02*
X90645295Y-120380951D01*
X90645295Y-120380951D02*
X90550057Y-120333332D01*
X90550057Y-120333332D02*
X90502438Y-120285713D01*
X90502438Y-120285713D02*
X90454819Y-120190475D01*
X90454819Y-120190475D02*
X90454819Y-119999999D01*
X90454819Y-119999999D02*
X90502438Y-119904761D01*
X90502438Y-119904761D02*
X90550057Y-119857142D01*
X90550057Y-119857142D02*
X90645295Y-119809523D01*
X90645295Y-119809523D02*
X90692914Y-119809523D01*
X90692914Y-119809523D02*
X90788152Y-119857142D01*
X90788152Y-119857142D02*
X90835771Y-119904761D01*
X90835771Y-119904761D02*
X90883390Y-119999999D01*
X90883390Y-119999999D02*
X90883390Y-120190475D01*
X90883390Y-120190475D02*
X90931009Y-120285713D01*
X90931009Y-120285713D02*
X90978628Y-120333332D01*
X90978628Y-120333332D02*
X91073866Y-120380951D01*
X91073866Y-120380951D02*
X91264342Y-120380951D01*
X91264342Y-120380951D02*
X91359580Y-120333332D01*
X91359580Y-120333332D02*
X91407200Y-120285713D01*
X91407200Y-120285713D02*
X91454819Y-120190475D01*
X91454819Y-120190475D02*
X91454819Y-119999999D01*
X91454819Y-119999999D02*
X91407200Y-119904761D01*
X91407200Y-119904761D02*
X91359580Y-119857142D01*
X91359580Y-119857142D02*
X91264342Y-119809523D01*
X91264342Y-119809523D02*
X91073866Y-119809523D01*
X91073866Y-119809523D02*
X90978628Y-119857142D01*
X90978628Y-119857142D02*
X90931009Y-119904761D01*
X90931009Y-119904761D02*
X90883390Y-119999999D01*
X90883390Y-119238094D02*
X90835771Y-119333332D01*
X90835771Y-119333332D02*
X90788152Y-119380951D01*
X90788152Y-119380951D02*
X90692914Y-119428570D01*
X90692914Y-119428570D02*
X90645295Y-119428570D01*
X90645295Y-119428570D02*
X90550057Y-119380951D01*
X90550057Y-119380951D02*
X90502438Y-119333332D01*
X90502438Y-119333332D02*
X90454819Y-119238094D01*
X90454819Y-119238094D02*
X90454819Y-119047618D01*
X90454819Y-119047618D02*
X90502438Y-118952380D01*
X90502438Y-118952380D02*
X90550057Y-118904761D01*
X90550057Y-118904761D02*
X90645295Y-118857142D01*
X90645295Y-118857142D02*
X90692914Y-118857142D01*
X90692914Y-118857142D02*
X90788152Y-118904761D01*
X90788152Y-118904761D02*
X90835771Y-118952380D01*
X90835771Y-118952380D02*
X90883390Y-119047618D01*
X90883390Y-119047618D02*
X90883390Y-119238094D01*
X90883390Y-119238094D02*
X90931009Y-119333332D01*
X90931009Y-119333332D02*
X90978628Y-119380951D01*
X90978628Y-119380951D02*
X91073866Y-119428570D01*
X91073866Y-119428570D02*
X91264342Y-119428570D01*
X91264342Y-119428570D02*
X91359580Y-119380951D01*
X91359580Y-119380951D02*
X91407200Y-119333332D01*
X91407200Y-119333332D02*
X91454819Y-119238094D01*
X91454819Y-119238094D02*
X91454819Y-119047618D01*
X91454819Y-119047618D02*
X91407200Y-118952380D01*
X91407200Y-118952380D02*
X91359580Y-118904761D01*
X91359580Y-118904761D02*
X91264342Y-118857142D01*
X91264342Y-118857142D02*
X91073866Y-118857142D01*
X91073866Y-118857142D02*
X90978628Y-118904761D01*
X90978628Y-118904761D02*
X90931009Y-118952380D01*
X90931009Y-118952380D02*
X90883390Y-119047618D01*
X90454819Y-118523808D02*
X90454819Y-117857142D01*
X90454819Y-117857142D02*
X91454819Y-118285713D01*
X90454819Y-117571427D02*
X90454819Y-116952380D01*
X90454819Y-116952380D02*
X90835771Y-117285713D01*
X90835771Y-117285713D02*
X90835771Y-117142856D01*
X90835771Y-117142856D02*
X90883390Y-117047618D01*
X90883390Y-117047618D02*
X90931009Y-116999999D01*
X90931009Y-116999999D02*
X91026247Y-116952380D01*
X91026247Y-116952380D02*
X91264342Y-116952380D01*
X91264342Y-116952380D02*
X91359580Y-116999999D01*
X91359580Y-116999999D02*
X91407200Y-117047618D01*
X91407200Y-117047618D02*
X91454819Y-117142856D01*
X91454819Y-117142856D02*
X91454819Y-117428570D01*
X91454819Y-117428570D02*
X91407200Y-117523808D01*
X91407200Y-117523808D02*
X91359580Y-117571427D01*
X91454819Y-116523808D02*
X90454819Y-116523808D01*
X90931009Y-116523808D02*
X90931009Y-115952380D01*
X91454819Y-115952380D02*
X90454819Y-115952380D01*
X91454819Y-115476189D02*
X90454819Y-115476189D01*
X90454819Y-115476189D02*
X90454819Y-115095237D01*
X90454819Y-115095237D02*
X90502438Y-114999999D01*
X90502438Y-114999999D02*
X90550057Y-114952380D01*
X90550057Y-114952380D02*
X90645295Y-114904761D01*
X90645295Y-114904761D02*
X90788152Y-114904761D01*
X90788152Y-114904761D02*
X90883390Y-114952380D01*
X90883390Y-114952380D02*
X90931009Y-114999999D01*
X90931009Y-114999999D02*
X90978628Y-115095237D01*
X90978628Y-115095237D02*
X90978628Y-115476189D01*
X90454819Y-114571427D02*
X91454819Y-114333332D01*
X91454819Y-114333332D02*
X90740533Y-114142856D01*
X90740533Y-114142856D02*
X91454819Y-113952380D01*
X91454819Y-113952380D02*
X90454819Y-113714285D01*
X91454819Y-113333332D02*
X90454819Y-113333332D01*
X90454819Y-113333332D02*
X90454819Y-112952380D01*
X90454819Y-112952380D02*
X90502438Y-112857142D01*
X90502438Y-112857142D02*
X90550057Y-112809523D01*
X90550057Y-112809523D02*
X90645295Y-112761904D01*
X90645295Y-112761904D02*
X90788152Y-112761904D01*
X90788152Y-112761904D02*
X90883390Y-112809523D01*
X90883390Y-112809523D02*
X90931009Y-112857142D01*
X90931009Y-112857142D02*
X90978628Y-112952380D01*
X90978628Y-112952380D02*
X90978628Y-113333332D01*
X91454819Y-111761904D02*
X90978628Y-112095237D01*
X91454819Y-112333332D02*
X90454819Y-112333332D01*
X90454819Y-112333332D02*
X90454819Y-111952380D01*
X90454819Y-111952380D02*
X90502438Y-111857142D01*
X90502438Y-111857142D02*
X90550057Y-111809523D01*
X90550057Y-111809523D02*
X90645295Y-111761904D01*
X90645295Y-111761904D02*
X90788152Y-111761904D01*
X90788152Y-111761904D02*
X90883390Y-111809523D01*
X90883390Y-111809523D02*
X90931009Y-111857142D01*
X90931009Y-111857142D02*
X90978628Y-111952380D01*
X90978628Y-111952380D02*
X90978628Y-112333332D01*
X91550057Y-110666666D02*
X91502438Y-110761904D01*
X91502438Y-110761904D02*
X91407200Y-110857142D01*
X91407200Y-110857142D02*
X91264342Y-110999999D01*
X91264342Y-110999999D02*
X91216723Y-111095237D01*
X91216723Y-111095237D02*
X91216723Y-111190475D01*
X91454819Y-111142856D02*
X91407200Y-111238094D01*
X91407200Y-111238094D02*
X91311961Y-111333332D01*
X91311961Y-111333332D02*
X91121485Y-111380951D01*
X91121485Y-111380951D02*
X90788152Y-111380951D01*
X90788152Y-111380951D02*
X90597676Y-111333332D01*
X90597676Y-111333332D02*
X90502438Y-111238094D01*
X90502438Y-111238094D02*
X90454819Y-111142856D01*
X90454819Y-111142856D02*
X90454819Y-110952380D01*
X90454819Y-110952380D02*
X90502438Y-110857142D01*
X90502438Y-110857142D02*
X90597676Y-110761904D01*
X90597676Y-110761904D02*
X90788152Y-110714285D01*
X90788152Y-110714285D02*
X91121485Y-110714285D01*
X91121485Y-110714285D02*
X91311961Y-110761904D01*
X91311961Y-110761904D02*
X91407200Y-110857142D01*
X91407200Y-110857142D02*
X91454819Y-110952380D01*
X91454819Y-110952380D02*
X91454819Y-111142856D01*
X91454819Y-109761904D02*
X91454819Y-110333332D01*
X91454819Y-110047618D02*
X90454819Y-110047618D01*
X90454819Y-110047618D02*
X90597676Y-110142856D01*
X90597676Y-110142856D02*
X90692914Y-110238094D01*
X90692914Y-110238094D02*
X90740533Y-110333332D01*
X112928571Y-40304819D02*
X112928571Y-39304819D01*
X112928571Y-39304819D02*
X113261904Y-40019104D01*
X113261904Y-40019104D02*
X113595237Y-39304819D01*
X113595237Y-39304819D02*
X113595237Y-40304819D01*
X114214285Y-40304819D02*
X114119047Y-40257200D01*
X114119047Y-40257200D02*
X114071428Y-40209580D01*
X114071428Y-40209580D02*
X114023809Y-40114342D01*
X114023809Y-40114342D02*
X114023809Y-39828628D01*
X114023809Y-39828628D02*
X114071428Y-39733390D01*
X114071428Y-39733390D02*
X114119047Y-39685771D01*
X114119047Y-39685771D02*
X114214285Y-39638152D01*
X114214285Y-39638152D02*
X114357142Y-39638152D01*
X114357142Y-39638152D02*
X114452380Y-39685771D01*
X114452380Y-39685771D02*
X114499999Y-39733390D01*
X114499999Y-39733390D02*
X114547618Y-39828628D01*
X114547618Y-39828628D02*
X114547618Y-40114342D01*
X114547618Y-40114342D02*
X114499999Y-40209580D01*
X114499999Y-40209580D02*
X114452380Y-40257200D01*
X114452380Y-40257200D02*
X114357142Y-40304819D01*
X114357142Y-40304819D02*
X114214285Y-40304819D01*
X115404761Y-39638152D02*
X115404761Y-40304819D01*
X114976190Y-39638152D02*
X114976190Y-40161961D01*
X114976190Y-40161961D02*
X115023809Y-40257200D01*
X115023809Y-40257200D02*
X115119047Y-40304819D01*
X115119047Y-40304819D02*
X115261904Y-40304819D01*
X115261904Y-40304819D02*
X115357142Y-40257200D01*
X115357142Y-40257200D02*
X115404761Y-40209580D01*
X115880952Y-39638152D02*
X115880952Y-40304819D01*
X115880952Y-39733390D02*
X115928571Y-39685771D01*
X115928571Y-39685771D02*
X116023809Y-39638152D01*
X116023809Y-39638152D02*
X116166666Y-39638152D01*
X116166666Y-39638152D02*
X116261904Y-39685771D01*
X116261904Y-39685771D02*
X116309523Y-39781009D01*
X116309523Y-39781009D02*
X116309523Y-40304819D01*
X116642857Y-39638152D02*
X117023809Y-39638152D01*
X116785714Y-39304819D02*
X116785714Y-40161961D01*
X116785714Y-40161961D02*
X116833333Y-40257200D01*
X116833333Y-40257200D02*
X116928571Y-40304819D01*
X116928571Y-40304819D02*
X117023809Y-40304819D01*
X117357143Y-40304819D02*
X117357143Y-39638152D01*
X117357143Y-39304819D02*
X117309524Y-39352438D01*
X117309524Y-39352438D02*
X117357143Y-39400057D01*
X117357143Y-39400057D02*
X117404762Y-39352438D01*
X117404762Y-39352438D02*
X117357143Y-39304819D01*
X117357143Y-39304819D02*
X117357143Y-39400057D01*
X117833333Y-39638152D02*
X117833333Y-40304819D01*
X117833333Y-39733390D02*
X117880952Y-39685771D01*
X117880952Y-39685771D02*
X117976190Y-39638152D01*
X117976190Y-39638152D02*
X118119047Y-39638152D01*
X118119047Y-39638152D02*
X118214285Y-39685771D01*
X118214285Y-39685771D02*
X118261904Y-39781009D01*
X118261904Y-39781009D02*
X118261904Y-40304819D01*
X119166666Y-39638152D02*
X119166666Y-40447676D01*
X119166666Y-40447676D02*
X119119047Y-40542914D01*
X119119047Y-40542914D02*
X119071428Y-40590533D01*
X119071428Y-40590533D02*
X118976190Y-40638152D01*
X118976190Y-40638152D02*
X118833333Y-40638152D01*
X118833333Y-40638152D02*
X118738095Y-40590533D01*
X119166666Y-40257200D02*
X119071428Y-40304819D01*
X119071428Y-40304819D02*
X118880952Y-40304819D01*
X118880952Y-40304819D02*
X118785714Y-40257200D01*
X118785714Y-40257200D02*
X118738095Y-40209580D01*
X118738095Y-40209580D02*
X118690476Y-40114342D01*
X118690476Y-40114342D02*
X118690476Y-39828628D01*
X118690476Y-39828628D02*
X118738095Y-39733390D01*
X118738095Y-39733390D02*
X118785714Y-39685771D01*
X118785714Y-39685771D02*
X118880952Y-39638152D01*
X118880952Y-39638152D02*
X119071428Y-39638152D01*
X119071428Y-39638152D02*
X119166666Y-39685771D01*
X119642857Y-40304819D02*
X119642857Y-39304819D01*
X119642857Y-39781009D02*
X120214285Y-39781009D01*
X120214285Y-40304819D02*
X120214285Y-39304819D01*
X120833333Y-40304819D02*
X120738095Y-40257200D01*
X120738095Y-40257200D02*
X120690476Y-40209580D01*
X120690476Y-40209580D02*
X120642857Y-40114342D01*
X120642857Y-40114342D02*
X120642857Y-39828628D01*
X120642857Y-39828628D02*
X120690476Y-39733390D01*
X120690476Y-39733390D02*
X120738095Y-39685771D01*
X120738095Y-39685771D02*
X120833333Y-39638152D01*
X120833333Y-39638152D02*
X120976190Y-39638152D01*
X120976190Y-39638152D02*
X121071428Y-39685771D01*
X121071428Y-39685771D02*
X121119047Y-39733390D01*
X121119047Y-39733390D02*
X121166666Y-39828628D01*
X121166666Y-39828628D02*
X121166666Y-40114342D01*
X121166666Y-40114342D02*
X121119047Y-40209580D01*
X121119047Y-40209580D02*
X121071428Y-40257200D01*
X121071428Y-40257200D02*
X120976190Y-40304819D01*
X120976190Y-40304819D02*
X120833333Y-40304819D01*
X121738095Y-40304819D02*
X121642857Y-40257200D01*
X121642857Y-40257200D02*
X121595238Y-40161961D01*
X121595238Y-40161961D02*
X121595238Y-39304819D01*
X122500000Y-40257200D02*
X122404762Y-40304819D01*
X122404762Y-40304819D02*
X122214286Y-40304819D01*
X122214286Y-40304819D02*
X122119048Y-40257200D01*
X122119048Y-40257200D02*
X122071429Y-40161961D01*
X122071429Y-40161961D02*
X122071429Y-39781009D01*
X122071429Y-39781009D02*
X122119048Y-39685771D01*
X122119048Y-39685771D02*
X122214286Y-39638152D01*
X122214286Y-39638152D02*
X122404762Y-39638152D01*
X122404762Y-39638152D02*
X122500000Y-39685771D01*
X122500000Y-39685771D02*
X122547619Y-39781009D01*
X122547619Y-39781009D02*
X122547619Y-39876247D01*
X122547619Y-39876247D02*
X122071429Y-39971485D01*
X122738096Y-40400057D02*
X123500000Y-40400057D01*
X123738096Y-40304819D02*
X123738096Y-39304819D01*
X123738096Y-39304819D02*
X124119048Y-39304819D01*
X124119048Y-39304819D02*
X124214286Y-39352438D01*
X124214286Y-39352438D02*
X124261905Y-39400057D01*
X124261905Y-39400057D02*
X124309524Y-39495295D01*
X124309524Y-39495295D02*
X124309524Y-39638152D01*
X124309524Y-39638152D02*
X124261905Y-39733390D01*
X124261905Y-39733390D02*
X124214286Y-39781009D01*
X124214286Y-39781009D02*
X124119048Y-39828628D01*
X124119048Y-39828628D02*
X123738096Y-39828628D01*
X125166667Y-40304819D02*
X125166667Y-39781009D01*
X125166667Y-39781009D02*
X125119048Y-39685771D01*
X125119048Y-39685771D02*
X125023810Y-39638152D01*
X125023810Y-39638152D02*
X124833334Y-39638152D01*
X124833334Y-39638152D02*
X124738096Y-39685771D01*
X125166667Y-40257200D02*
X125071429Y-40304819D01*
X125071429Y-40304819D02*
X124833334Y-40304819D01*
X124833334Y-40304819D02*
X124738096Y-40257200D01*
X124738096Y-40257200D02*
X124690477Y-40161961D01*
X124690477Y-40161961D02*
X124690477Y-40066723D01*
X124690477Y-40066723D02*
X124738096Y-39971485D01*
X124738096Y-39971485D02*
X124833334Y-39923866D01*
X124833334Y-39923866D02*
X125071429Y-39923866D01*
X125071429Y-39923866D02*
X125166667Y-39876247D01*
X126071429Y-40304819D02*
X126071429Y-39304819D01*
X126071429Y-40257200D02*
X125976191Y-40304819D01*
X125976191Y-40304819D02*
X125785715Y-40304819D01*
X125785715Y-40304819D02*
X125690477Y-40257200D01*
X125690477Y-40257200D02*
X125642858Y-40209580D01*
X125642858Y-40209580D02*
X125595239Y-40114342D01*
X125595239Y-40114342D02*
X125595239Y-39828628D01*
X125595239Y-39828628D02*
X125642858Y-39733390D01*
X125642858Y-39733390D02*
X125690477Y-39685771D01*
X125690477Y-39685771D02*
X125785715Y-39638152D01*
X125785715Y-39638152D02*
X125976191Y-39638152D01*
X125976191Y-39638152D02*
X126071429Y-39685771D01*
X118738095Y-44454819D02*
X118738095Y-43454819D01*
X118738095Y-43931009D02*
X119309523Y-43931009D01*
X119309523Y-44454819D02*
X119309523Y-43454819D01*
X120309523Y-44454819D02*
X119738095Y-44454819D01*
X120023809Y-44454819D02*
X120023809Y-43454819D01*
X120023809Y-43454819D02*
X119928571Y-43597676D01*
X119928571Y-43597676D02*
X119833333Y-43692914D01*
X119833333Y-43692914D02*
X119738095Y-43740533D01*
D10*
X94729166Y-52129530D02*
X94705357Y-52153340D01*
X94705357Y-52153340D02*
X94633928Y-52177149D01*
X94633928Y-52177149D02*
X94586309Y-52177149D01*
X94586309Y-52177149D02*
X94514881Y-52153340D01*
X94514881Y-52153340D02*
X94467262Y-52105720D01*
X94467262Y-52105720D02*
X94443452Y-52058101D01*
X94443452Y-52058101D02*
X94419643Y-51962863D01*
X94419643Y-51962863D02*
X94419643Y-51891435D01*
X94419643Y-51891435D02*
X94443452Y-51796197D01*
X94443452Y-51796197D02*
X94467262Y-51748578D01*
X94467262Y-51748578D02*
X94514881Y-51700959D01*
X94514881Y-51700959D02*
X94586309Y-51677149D01*
X94586309Y-51677149D02*
X94633928Y-51677149D01*
X94633928Y-51677149D02*
X94705357Y-51700959D01*
X94705357Y-51700959D02*
X94729166Y-51724768D01*
X94967262Y-52177149D02*
X95062500Y-52177149D01*
X95062500Y-52177149D02*
X95110119Y-52153340D01*
X95110119Y-52153340D02*
X95133928Y-52129530D01*
X95133928Y-52129530D02*
X95181547Y-52058101D01*
X95181547Y-52058101D02*
X95205357Y-51962863D01*
X95205357Y-51962863D02*
X95205357Y-51772387D01*
X95205357Y-51772387D02*
X95181547Y-51724768D01*
X95181547Y-51724768D02*
X95157738Y-51700959D01*
X95157738Y-51700959D02*
X95110119Y-51677149D01*
X95110119Y-51677149D02*
X95014881Y-51677149D01*
X95014881Y-51677149D02*
X94967262Y-51700959D01*
X94967262Y-51700959D02*
X94943452Y-51724768D01*
X94943452Y-51724768D02*
X94919643Y-51772387D01*
X94919643Y-51772387D02*
X94919643Y-51891435D01*
X94919643Y-51891435D02*
X94943452Y-51939054D01*
X94943452Y-51939054D02*
X94967262Y-51962863D01*
X94967262Y-51962863D02*
X95014881Y-51986673D01*
X95014881Y-51986673D02*
X95110119Y-51986673D01*
X95110119Y-51986673D02*
X95157738Y-51962863D01*
X95157738Y-51962863D02*
X95181547Y-51939054D01*
X95181547Y-51939054D02*
X95205357Y-51891435D01*
D12*
X75624318Y-90437381D02*
X74354318Y-90437381D01*
X74354318Y-90437381D02*
X74354318Y-90135000D01*
X74354318Y-90135000D02*
X74414794Y-89953571D01*
X74414794Y-89953571D02*
X74535746Y-89832619D01*
X74535746Y-89832619D02*
X74656699Y-89772142D01*
X74656699Y-89772142D02*
X74898603Y-89711666D01*
X74898603Y-89711666D02*
X75080032Y-89711666D01*
X75080032Y-89711666D02*
X75321937Y-89772142D01*
X75321937Y-89772142D02*
X75442889Y-89832619D01*
X75442889Y-89832619D02*
X75563842Y-89953571D01*
X75563842Y-89953571D02*
X75624318Y-90135000D01*
X75624318Y-90135000D02*
X75624318Y-90437381D01*
X74475270Y-89227857D02*
X74414794Y-89167381D01*
X74414794Y-89167381D02*
X74354318Y-89046428D01*
X74354318Y-89046428D02*
X74354318Y-88744047D01*
X74354318Y-88744047D02*
X74414794Y-88623095D01*
X74414794Y-88623095D02*
X74475270Y-88562619D01*
X74475270Y-88562619D02*
X74596222Y-88502142D01*
X74596222Y-88502142D02*
X74717175Y-88502142D01*
X74717175Y-88502142D02*
X74898603Y-88562619D01*
X74898603Y-88562619D02*
X75624318Y-89288333D01*
X75624318Y-89288333D02*
X75624318Y-88502142D01*
D10*
X77816666Y-76047149D02*
X77650000Y-75809054D01*
X77530952Y-76047149D02*
X77530952Y-75547149D01*
X77530952Y-75547149D02*
X77721428Y-75547149D01*
X77721428Y-75547149D02*
X77769047Y-75570959D01*
X77769047Y-75570959D02*
X77792857Y-75594768D01*
X77792857Y-75594768D02*
X77816666Y-75642387D01*
X77816666Y-75642387D02*
X77816666Y-75713816D01*
X77816666Y-75713816D02*
X77792857Y-75761435D01*
X77792857Y-75761435D02*
X77769047Y-75785244D01*
X77769047Y-75785244D02*
X77721428Y-75809054D01*
X77721428Y-75809054D02*
X77530952Y-75809054D01*
X78054762Y-76047149D02*
X78150000Y-76047149D01*
X78150000Y-76047149D02*
X78197619Y-76023340D01*
X78197619Y-76023340D02*
X78221428Y-75999530D01*
X78221428Y-75999530D02*
X78269047Y-75928101D01*
X78269047Y-75928101D02*
X78292857Y-75832863D01*
X78292857Y-75832863D02*
X78292857Y-75642387D01*
X78292857Y-75642387D02*
X78269047Y-75594768D01*
X78269047Y-75594768D02*
X78245238Y-75570959D01*
X78245238Y-75570959D02*
X78197619Y-75547149D01*
X78197619Y-75547149D02*
X78102381Y-75547149D01*
X78102381Y-75547149D02*
X78054762Y-75570959D01*
X78054762Y-75570959D02*
X78030952Y-75594768D01*
X78030952Y-75594768D02*
X78007143Y-75642387D01*
X78007143Y-75642387D02*
X78007143Y-75761435D01*
X78007143Y-75761435D02*
X78030952Y-75809054D01*
X78030952Y-75809054D02*
X78054762Y-75832863D01*
X78054762Y-75832863D02*
X78102381Y-75856673D01*
X78102381Y-75856673D02*
X78197619Y-75856673D01*
X78197619Y-75856673D02*
X78245238Y-75832863D01*
X78245238Y-75832863D02*
X78269047Y-75809054D01*
X78269047Y-75809054D02*
X78292857Y-75761435D01*
X68078571Y-76047149D02*
X67911905Y-75809054D01*
X67792857Y-76047149D02*
X67792857Y-75547149D01*
X67792857Y-75547149D02*
X67983333Y-75547149D01*
X67983333Y-75547149D02*
X68030952Y-75570959D01*
X68030952Y-75570959D02*
X68054762Y-75594768D01*
X68054762Y-75594768D02*
X68078571Y-75642387D01*
X68078571Y-75642387D02*
X68078571Y-75713816D01*
X68078571Y-75713816D02*
X68054762Y-75761435D01*
X68054762Y-75761435D02*
X68030952Y-75785244D01*
X68030952Y-75785244D02*
X67983333Y-75809054D01*
X67983333Y-75809054D02*
X67792857Y-75809054D01*
X68554762Y-76047149D02*
X68269048Y-76047149D01*
X68411905Y-76047149D02*
X68411905Y-75547149D01*
X68411905Y-75547149D02*
X68364286Y-75618578D01*
X68364286Y-75618578D02*
X68316667Y-75666197D01*
X68316667Y-75666197D02*
X68269048Y-75690006D01*
X68745238Y-75594768D02*
X68769047Y-75570959D01*
X68769047Y-75570959D02*
X68816666Y-75547149D01*
X68816666Y-75547149D02*
X68935714Y-75547149D01*
X68935714Y-75547149D02*
X68983333Y-75570959D01*
X68983333Y-75570959D02*
X69007142Y-75594768D01*
X69007142Y-75594768D02*
X69030952Y-75642387D01*
X69030952Y-75642387D02*
X69030952Y-75690006D01*
X69030952Y-75690006D02*
X69007142Y-75761435D01*
X69007142Y-75761435D02*
X68721428Y-76047149D01*
X68721428Y-76047149D02*
X69030952Y-76047149D01*
X64078571Y-70999530D02*
X64054762Y-71023340D01*
X64054762Y-71023340D02*
X63983333Y-71047149D01*
X63983333Y-71047149D02*
X63935714Y-71047149D01*
X63935714Y-71047149D02*
X63864286Y-71023340D01*
X63864286Y-71023340D02*
X63816667Y-70975720D01*
X63816667Y-70975720D02*
X63792857Y-70928101D01*
X63792857Y-70928101D02*
X63769048Y-70832863D01*
X63769048Y-70832863D02*
X63769048Y-70761435D01*
X63769048Y-70761435D02*
X63792857Y-70666197D01*
X63792857Y-70666197D02*
X63816667Y-70618578D01*
X63816667Y-70618578D02*
X63864286Y-70570959D01*
X63864286Y-70570959D02*
X63935714Y-70547149D01*
X63935714Y-70547149D02*
X63983333Y-70547149D01*
X63983333Y-70547149D02*
X64054762Y-70570959D01*
X64054762Y-70570959D02*
X64078571Y-70594768D01*
X64554762Y-71047149D02*
X64269048Y-71047149D01*
X64411905Y-71047149D02*
X64411905Y-70547149D01*
X64411905Y-70547149D02*
X64364286Y-70618578D01*
X64364286Y-70618578D02*
X64316667Y-70666197D01*
X64316667Y-70666197D02*
X64269048Y-70690006D01*
X64792857Y-71047149D02*
X64888095Y-71047149D01*
X64888095Y-71047149D02*
X64935714Y-71023340D01*
X64935714Y-71023340D02*
X64959523Y-70999530D01*
X64959523Y-70999530D02*
X65007142Y-70928101D01*
X65007142Y-70928101D02*
X65030952Y-70832863D01*
X65030952Y-70832863D02*
X65030952Y-70642387D01*
X65030952Y-70642387D02*
X65007142Y-70594768D01*
X65007142Y-70594768D02*
X64983333Y-70570959D01*
X64983333Y-70570959D02*
X64935714Y-70547149D01*
X64935714Y-70547149D02*
X64840476Y-70547149D01*
X64840476Y-70547149D02*
X64792857Y-70570959D01*
X64792857Y-70570959D02*
X64769047Y-70594768D01*
X64769047Y-70594768D02*
X64745238Y-70642387D01*
X64745238Y-70642387D02*
X64745238Y-70761435D01*
X64745238Y-70761435D02*
X64769047Y-70809054D01*
X64769047Y-70809054D02*
X64792857Y-70832863D01*
X64792857Y-70832863D02*
X64840476Y-70856673D01*
X64840476Y-70856673D02*
X64935714Y-70856673D01*
X64935714Y-70856673D02*
X64983333Y-70832863D01*
X64983333Y-70832863D02*
X65007142Y-70809054D01*
X65007142Y-70809054D02*
X65030952Y-70761435D01*
D11*
X53168571Y-138804819D02*
X53168571Y-137804819D01*
X53168571Y-137804819D02*
X53501904Y-138519104D01*
X53501904Y-138519104D02*
X53835237Y-137804819D01*
X53835237Y-137804819D02*
X53835237Y-138804819D01*
X54454285Y-138804819D02*
X54359047Y-138757200D01*
X54359047Y-138757200D02*
X54311428Y-138709580D01*
X54311428Y-138709580D02*
X54263809Y-138614342D01*
X54263809Y-138614342D02*
X54263809Y-138328628D01*
X54263809Y-138328628D02*
X54311428Y-138233390D01*
X54311428Y-138233390D02*
X54359047Y-138185771D01*
X54359047Y-138185771D02*
X54454285Y-138138152D01*
X54454285Y-138138152D02*
X54597142Y-138138152D01*
X54597142Y-138138152D02*
X54692380Y-138185771D01*
X54692380Y-138185771D02*
X54739999Y-138233390D01*
X54739999Y-138233390D02*
X54787618Y-138328628D01*
X54787618Y-138328628D02*
X54787618Y-138614342D01*
X54787618Y-138614342D02*
X54739999Y-138709580D01*
X54739999Y-138709580D02*
X54692380Y-138757200D01*
X54692380Y-138757200D02*
X54597142Y-138804819D01*
X54597142Y-138804819D02*
X54454285Y-138804819D01*
X55644761Y-138138152D02*
X55644761Y-138804819D01*
X55216190Y-138138152D02*
X55216190Y-138661961D01*
X55216190Y-138661961D02*
X55263809Y-138757200D01*
X55263809Y-138757200D02*
X55359047Y-138804819D01*
X55359047Y-138804819D02*
X55501904Y-138804819D01*
X55501904Y-138804819D02*
X55597142Y-138757200D01*
X55597142Y-138757200D02*
X55644761Y-138709580D01*
X56120952Y-138138152D02*
X56120952Y-138804819D01*
X56120952Y-138233390D02*
X56168571Y-138185771D01*
X56168571Y-138185771D02*
X56263809Y-138138152D01*
X56263809Y-138138152D02*
X56406666Y-138138152D01*
X56406666Y-138138152D02*
X56501904Y-138185771D01*
X56501904Y-138185771D02*
X56549523Y-138281009D01*
X56549523Y-138281009D02*
X56549523Y-138804819D01*
X56882857Y-138138152D02*
X57263809Y-138138152D01*
X57025714Y-137804819D02*
X57025714Y-138661961D01*
X57025714Y-138661961D02*
X57073333Y-138757200D01*
X57073333Y-138757200D02*
X57168571Y-138804819D01*
X57168571Y-138804819D02*
X57263809Y-138804819D01*
X57597143Y-138804819D02*
X57597143Y-138138152D01*
X57597143Y-137804819D02*
X57549524Y-137852438D01*
X57549524Y-137852438D02*
X57597143Y-137900057D01*
X57597143Y-137900057D02*
X57644762Y-137852438D01*
X57644762Y-137852438D02*
X57597143Y-137804819D01*
X57597143Y-137804819D02*
X57597143Y-137900057D01*
X58073333Y-138138152D02*
X58073333Y-138804819D01*
X58073333Y-138233390D02*
X58120952Y-138185771D01*
X58120952Y-138185771D02*
X58216190Y-138138152D01*
X58216190Y-138138152D02*
X58359047Y-138138152D01*
X58359047Y-138138152D02*
X58454285Y-138185771D01*
X58454285Y-138185771D02*
X58501904Y-138281009D01*
X58501904Y-138281009D02*
X58501904Y-138804819D01*
X59406666Y-138138152D02*
X59406666Y-138947676D01*
X59406666Y-138947676D02*
X59359047Y-139042914D01*
X59359047Y-139042914D02*
X59311428Y-139090533D01*
X59311428Y-139090533D02*
X59216190Y-139138152D01*
X59216190Y-139138152D02*
X59073333Y-139138152D01*
X59073333Y-139138152D02*
X58978095Y-139090533D01*
X59406666Y-138757200D02*
X59311428Y-138804819D01*
X59311428Y-138804819D02*
X59120952Y-138804819D01*
X59120952Y-138804819D02*
X59025714Y-138757200D01*
X59025714Y-138757200D02*
X58978095Y-138709580D01*
X58978095Y-138709580D02*
X58930476Y-138614342D01*
X58930476Y-138614342D02*
X58930476Y-138328628D01*
X58930476Y-138328628D02*
X58978095Y-138233390D01*
X58978095Y-138233390D02*
X59025714Y-138185771D01*
X59025714Y-138185771D02*
X59120952Y-138138152D01*
X59120952Y-138138152D02*
X59311428Y-138138152D01*
X59311428Y-138138152D02*
X59406666Y-138185771D01*
X59882857Y-138804819D02*
X59882857Y-137804819D01*
X59882857Y-138281009D02*
X60454285Y-138281009D01*
X60454285Y-138804819D02*
X60454285Y-137804819D01*
X61073333Y-138804819D02*
X60978095Y-138757200D01*
X60978095Y-138757200D02*
X60930476Y-138709580D01*
X60930476Y-138709580D02*
X60882857Y-138614342D01*
X60882857Y-138614342D02*
X60882857Y-138328628D01*
X60882857Y-138328628D02*
X60930476Y-138233390D01*
X60930476Y-138233390D02*
X60978095Y-138185771D01*
X60978095Y-138185771D02*
X61073333Y-138138152D01*
X61073333Y-138138152D02*
X61216190Y-138138152D01*
X61216190Y-138138152D02*
X61311428Y-138185771D01*
X61311428Y-138185771D02*
X61359047Y-138233390D01*
X61359047Y-138233390D02*
X61406666Y-138328628D01*
X61406666Y-138328628D02*
X61406666Y-138614342D01*
X61406666Y-138614342D02*
X61359047Y-138709580D01*
X61359047Y-138709580D02*
X61311428Y-138757200D01*
X61311428Y-138757200D02*
X61216190Y-138804819D01*
X61216190Y-138804819D02*
X61073333Y-138804819D01*
X61978095Y-138804819D02*
X61882857Y-138757200D01*
X61882857Y-138757200D02*
X61835238Y-138661961D01*
X61835238Y-138661961D02*
X61835238Y-137804819D01*
X62740000Y-138757200D02*
X62644762Y-138804819D01*
X62644762Y-138804819D02*
X62454286Y-138804819D01*
X62454286Y-138804819D02*
X62359048Y-138757200D01*
X62359048Y-138757200D02*
X62311429Y-138661961D01*
X62311429Y-138661961D02*
X62311429Y-138281009D01*
X62311429Y-138281009D02*
X62359048Y-138185771D01*
X62359048Y-138185771D02*
X62454286Y-138138152D01*
X62454286Y-138138152D02*
X62644762Y-138138152D01*
X62644762Y-138138152D02*
X62740000Y-138185771D01*
X62740000Y-138185771D02*
X62787619Y-138281009D01*
X62787619Y-138281009D02*
X62787619Y-138376247D01*
X62787619Y-138376247D02*
X62311429Y-138471485D01*
X62978096Y-138900057D02*
X63740000Y-138900057D01*
X63978096Y-138804819D02*
X63978096Y-137804819D01*
X63978096Y-137804819D02*
X64359048Y-137804819D01*
X64359048Y-137804819D02*
X64454286Y-137852438D01*
X64454286Y-137852438D02*
X64501905Y-137900057D01*
X64501905Y-137900057D02*
X64549524Y-137995295D01*
X64549524Y-137995295D02*
X64549524Y-138138152D01*
X64549524Y-138138152D02*
X64501905Y-138233390D01*
X64501905Y-138233390D02*
X64454286Y-138281009D01*
X64454286Y-138281009D02*
X64359048Y-138328628D01*
X64359048Y-138328628D02*
X63978096Y-138328628D01*
X65406667Y-138804819D02*
X65406667Y-138281009D01*
X65406667Y-138281009D02*
X65359048Y-138185771D01*
X65359048Y-138185771D02*
X65263810Y-138138152D01*
X65263810Y-138138152D02*
X65073334Y-138138152D01*
X65073334Y-138138152D02*
X64978096Y-138185771D01*
X65406667Y-138757200D02*
X65311429Y-138804819D01*
X65311429Y-138804819D02*
X65073334Y-138804819D01*
X65073334Y-138804819D02*
X64978096Y-138757200D01*
X64978096Y-138757200D02*
X64930477Y-138661961D01*
X64930477Y-138661961D02*
X64930477Y-138566723D01*
X64930477Y-138566723D02*
X64978096Y-138471485D01*
X64978096Y-138471485D02*
X65073334Y-138423866D01*
X65073334Y-138423866D02*
X65311429Y-138423866D01*
X65311429Y-138423866D02*
X65406667Y-138376247D01*
X66311429Y-138804819D02*
X66311429Y-137804819D01*
X66311429Y-138757200D02*
X66216191Y-138804819D01*
X66216191Y-138804819D02*
X66025715Y-138804819D01*
X66025715Y-138804819D02*
X65930477Y-138757200D01*
X65930477Y-138757200D02*
X65882858Y-138709580D01*
X65882858Y-138709580D02*
X65835239Y-138614342D01*
X65835239Y-138614342D02*
X65835239Y-138328628D01*
X65835239Y-138328628D02*
X65882858Y-138233390D01*
X65882858Y-138233390D02*
X65930477Y-138185771D01*
X65930477Y-138185771D02*
X66025715Y-138138152D01*
X66025715Y-138138152D02*
X66216191Y-138138152D01*
X66216191Y-138138152D02*
X66311429Y-138185771D01*
X58978095Y-134654819D02*
X58978095Y-133654819D01*
X58978095Y-134131009D02*
X59549523Y-134131009D01*
X59549523Y-134654819D02*
X59549523Y-133654819D01*
X59930476Y-133654819D02*
X60549523Y-133654819D01*
X60549523Y-133654819D02*
X60216190Y-134035771D01*
X60216190Y-134035771D02*
X60359047Y-134035771D01*
X60359047Y-134035771D02*
X60454285Y-134083390D01*
X60454285Y-134083390D02*
X60501904Y-134131009D01*
X60501904Y-134131009D02*
X60549523Y-134226247D01*
X60549523Y-134226247D02*
X60549523Y-134464342D01*
X60549523Y-134464342D02*
X60501904Y-134559580D01*
X60501904Y-134559580D02*
X60454285Y-134607200D01*
X60454285Y-134607200D02*
X60359047Y-134654819D01*
X60359047Y-134654819D02*
X60073333Y-134654819D01*
X60073333Y-134654819D02*
X59978095Y-134607200D01*
X59978095Y-134607200D02*
X59930476Y-134559580D01*
X55824819Y-65861904D02*
X55824819Y-65290476D01*
X56824819Y-65576190D02*
X55824819Y-65576190D01*
X56824819Y-64957142D02*
X55824819Y-64957142D01*
X55824819Y-64957142D02*
X55824819Y-64576190D01*
X55824819Y-64576190D02*
X55872438Y-64480952D01*
X55872438Y-64480952D02*
X55920057Y-64433333D01*
X55920057Y-64433333D02*
X56015295Y-64385714D01*
X56015295Y-64385714D02*
X56158152Y-64385714D01*
X56158152Y-64385714D02*
X56253390Y-64433333D01*
X56253390Y-64433333D02*
X56301009Y-64480952D01*
X56301009Y-64480952D02*
X56348628Y-64576190D01*
X56348628Y-64576190D02*
X56348628Y-64957142D01*
X55920057Y-64004761D02*
X55872438Y-63957142D01*
X55872438Y-63957142D02*
X55824819Y-63861904D01*
X55824819Y-63861904D02*
X55824819Y-63623809D01*
X55824819Y-63623809D02*
X55872438Y-63528571D01*
X55872438Y-63528571D02*
X55920057Y-63480952D01*
X55920057Y-63480952D02*
X56015295Y-63433333D01*
X56015295Y-63433333D02*
X56110533Y-63433333D01*
X56110533Y-63433333D02*
X56253390Y-63480952D01*
X56253390Y-63480952D02*
X56824819Y-64052380D01*
X56824819Y-64052380D02*
X56824819Y-63433333D01*
X94369047Y-39654819D02*
X94369047Y-38654819D01*
X94369047Y-38654819D02*
X94702380Y-39369104D01*
X94702380Y-39369104D02*
X95035713Y-38654819D01*
X95035713Y-38654819D02*
X95035713Y-39654819D01*
X95654761Y-39654819D02*
X95559523Y-39607200D01*
X95559523Y-39607200D02*
X95511904Y-39559580D01*
X95511904Y-39559580D02*
X95464285Y-39464342D01*
X95464285Y-39464342D02*
X95464285Y-39178628D01*
X95464285Y-39178628D02*
X95511904Y-39083390D01*
X95511904Y-39083390D02*
X95559523Y-39035771D01*
X95559523Y-39035771D02*
X95654761Y-38988152D01*
X95654761Y-38988152D02*
X95797618Y-38988152D01*
X95797618Y-38988152D02*
X95892856Y-39035771D01*
X95892856Y-39035771D02*
X95940475Y-39083390D01*
X95940475Y-39083390D02*
X95988094Y-39178628D01*
X95988094Y-39178628D02*
X95988094Y-39464342D01*
X95988094Y-39464342D02*
X95940475Y-39559580D01*
X95940475Y-39559580D02*
X95892856Y-39607200D01*
X95892856Y-39607200D02*
X95797618Y-39654819D01*
X95797618Y-39654819D02*
X95654761Y-39654819D01*
X96273809Y-38988152D02*
X96654761Y-38988152D01*
X96416666Y-38654819D02*
X96416666Y-39511961D01*
X96416666Y-39511961D02*
X96464285Y-39607200D01*
X96464285Y-39607200D02*
X96559523Y-39654819D01*
X96559523Y-39654819D02*
X96654761Y-39654819D01*
X97130952Y-39654819D02*
X97035714Y-39607200D01*
X97035714Y-39607200D02*
X96988095Y-39559580D01*
X96988095Y-39559580D02*
X96940476Y-39464342D01*
X96940476Y-39464342D02*
X96940476Y-39178628D01*
X96940476Y-39178628D02*
X96988095Y-39083390D01*
X96988095Y-39083390D02*
X97035714Y-39035771D01*
X97035714Y-39035771D02*
X97130952Y-38988152D01*
X97130952Y-38988152D02*
X97273809Y-38988152D01*
X97273809Y-38988152D02*
X97369047Y-39035771D01*
X97369047Y-39035771D02*
X97416666Y-39083390D01*
X97416666Y-39083390D02*
X97464285Y-39178628D01*
X97464285Y-39178628D02*
X97464285Y-39464342D01*
X97464285Y-39464342D02*
X97416666Y-39559580D01*
X97416666Y-39559580D02*
X97369047Y-39607200D01*
X97369047Y-39607200D02*
X97273809Y-39654819D01*
X97273809Y-39654819D02*
X97130952Y-39654819D01*
X97892857Y-39654819D02*
X97892857Y-38988152D01*
X97892857Y-39178628D02*
X97940476Y-39083390D01*
X97940476Y-39083390D02*
X97988095Y-39035771D01*
X97988095Y-39035771D02*
X98083333Y-38988152D01*
X98083333Y-38988152D02*
X98178571Y-38988152D01*
X98464286Y-38750057D02*
X98511905Y-38702438D01*
X98511905Y-38702438D02*
X98607143Y-38654819D01*
X98607143Y-38654819D02*
X98845238Y-38654819D01*
X98845238Y-38654819D02*
X98940476Y-38702438D01*
X98940476Y-38702438D02*
X98988095Y-38750057D01*
X98988095Y-38750057D02*
X99035714Y-38845295D01*
X99035714Y-38845295D02*
X99035714Y-38940533D01*
X99035714Y-38940533D02*
X98988095Y-39083390D01*
X98988095Y-39083390D02*
X98416667Y-39654819D01*
X98416667Y-39654819D02*
X99035714Y-39654819D01*
X99226191Y-39750057D02*
X99988095Y-39750057D01*
X100083334Y-38654819D02*
X100654762Y-38654819D01*
X100369048Y-39654819D02*
X100369048Y-38654819D01*
X101369048Y-39607200D02*
X101273810Y-39654819D01*
X101273810Y-39654819D02*
X101083334Y-39654819D01*
X101083334Y-39654819D02*
X100988096Y-39607200D01*
X100988096Y-39607200D02*
X100940477Y-39511961D01*
X100940477Y-39511961D02*
X100940477Y-39131009D01*
X100940477Y-39131009D02*
X100988096Y-39035771D01*
X100988096Y-39035771D02*
X101083334Y-38988152D01*
X101083334Y-38988152D02*
X101273810Y-38988152D01*
X101273810Y-38988152D02*
X101369048Y-39035771D01*
X101369048Y-39035771D02*
X101416667Y-39131009D01*
X101416667Y-39131009D02*
X101416667Y-39226247D01*
X101416667Y-39226247D02*
X100940477Y-39321485D01*
X101845239Y-39654819D02*
X101845239Y-38988152D01*
X101845239Y-39178628D02*
X101892858Y-39083390D01*
X101892858Y-39083390D02*
X101940477Y-39035771D01*
X101940477Y-39035771D02*
X102035715Y-38988152D01*
X102035715Y-38988152D02*
X102130953Y-38988152D01*
X102464287Y-39654819D02*
X102464287Y-38988152D01*
X102464287Y-39083390D02*
X102511906Y-39035771D01*
X102511906Y-39035771D02*
X102607144Y-38988152D01*
X102607144Y-38988152D02*
X102750001Y-38988152D01*
X102750001Y-38988152D02*
X102845239Y-39035771D01*
X102845239Y-39035771D02*
X102892858Y-39131009D01*
X102892858Y-39131009D02*
X102892858Y-39654819D01*
X102892858Y-39131009D02*
X102940477Y-39035771D01*
X102940477Y-39035771D02*
X103035715Y-38988152D01*
X103035715Y-38988152D02*
X103178572Y-38988152D01*
X103178572Y-38988152D02*
X103273811Y-39035771D01*
X103273811Y-39035771D02*
X103321430Y-39131009D01*
X103321430Y-39131009D02*
X103321430Y-39654819D01*
X103797620Y-39654819D02*
X103797620Y-38988152D01*
X103797620Y-38654819D02*
X103750001Y-38702438D01*
X103750001Y-38702438D02*
X103797620Y-38750057D01*
X103797620Y-38750057D02*
X103845239Y-38702438D01*
X103845239Y-38702438D02*
X103797620Y-38654819D01*
X103797620Y-38654819D02*
X103797620Y-38750057D01*
X104273810Y-38988152D02*
X104273810Y-39654819D01*
X104273810Y-39083390D02*
X104321429Y-39035771D01*
X104321429Y-39035771D02*
X104416667Y-38988152D01*
X104416667Y-38988152D02*
X104559524Y-38988152D01*
X104559524Y-38988152D02*
X104654762Y-39035771D01*
X104654762Y-39035771D02*
X104702381Y-39131009D01*
X104702381Y-39131009D02*
X104702381Y-39654819D01*
X105607143Y-39654819D02*
X105607143Y-39131009D01*
X105607143Y-39131009D02*
X105559524Y-39035771D01*
X105559524Y-39035771D02*
X105464286Y-38988152D01*
X105464286Y-38988152D02*
X105273810Y-38988152D01*
X105273810Y-38988152D02*
X105178572Y-39035771D01*
X105607143Y-39607200D02*
X105511905Y-39654819D01*
X105511905Y-39654819D02*
X105273810Y-39654819D01*
X105273810Y-39654819D02*
X105178572Y-39607200D01*
X105178572Y-39607200D02*
X105130953Y-39511961D01*
X105130953Y-39511961D02*
X105130953Y-39416723D01*
X105130953Y-39416723D02*
X105178572Y-39321485D01*
X105178572Y-39321485D02*
X105273810Y-39273866D01*
X105273810Y-39273866D02*
X105511905Y-39273866D01*
X105511905Y-39273866D02*
X105607143Y-39226247D01*
X106226191Y-39654819D02*
X106130953Y-39607200D01*
X106130953Y-39607200D02*
X106083334Y-39511961D01*
X106083334Y-39511961D02*
X106083334Y-38654819D01*
D10*
X72578571Y-76047149D02*
X72411905Y-75809054D01*
X72292857Y-76047149D02*
X72292857Y-75547149D01*
X72292857Y-75547149D02*
X72483333Y-75547149D01*
X72483333Y-75547149D02*
X72530952Y-75570959D01*
X72530952Y-75570959D02*
X72554762Y-75594768D01*
X72554762Y-75594768D02*
X72578571Y-75642387D01*
X72578571Y-75642387D02*
X72578571Y-75713816D01*
X72578571Y-75713816D02*
X72554762Y-75761435D01*
X72554762Y-75761435D02*
X72530952Y-75785244D01*
X72530952Y-75785244D02*
X72483333Y-75809054D01*
X72483333Y-75809054D02*
X72292857Y-75809054D01*
X73054762Y-76047149D02*
X72769048Y-76047149D01*
X72911905Y-76047149D02*
X72911905Y-75547149D01*
X72911905Y-75547149D02*
X72864286Y-75618578D01*
X72864286Y-75618578D02*
X72816667Y-75666197D01*
X72816667Y-75666197D02*
X72769048Y-75690006D01*
X73530952Y-76047149D02*
X73245238Y-76047149D01*
X73388095Y-76047149D02*
X73388095Y-75547149D01*
X73388095Y-75547149D02*
X73340476Y-75618578D01*
X73340476Y-75618578D02*
X73292857Y-75666197D01*
X73292857Y-75666197D02*
X73245238Y-75690006D01*
%TO.C,C6*%
D13*
X103062500Y-119685000D02*
X105062500Y-119685000D01*
X105062500Y-120935000D01*
X103062500Y-120935000D01*
X103062500Y-119685000D01*
%TO.C,C18*%
X77665000Y-66387500D02*
X76415000Y-66387500D01*
X76415000Y-68387500D01*
X77665000Y-68387500D01*
X77665000Y-66387500D01*
%TO.C,IC1*%
X74180000Y-111060000D02*
X76180000Y-111060000D01*
X74180000Y-112310000D02*
X74180000Y-111060000D01*
X75530000Y-111060000D02*
X76180000Y-111710000D01*
X76180000Y-111060000D02*
X76180000Y-112310000D01*
X76180000Y-112310000D02*
X74180000Y-112310000D01*
%TO.C,C2*%
X109175000Y-123927500D02*
X110425000Y-123927500D01*
X110425000Y-121927500D01*
X109175000Y-121927500D01*
X109175000Y-123927500D01*
%TO.C,J1*%
X119850000Y-76160000D02*
X122390000Y-76160000D01*
X119850000Y-95845000D02*
X119850000Y-76160000D01*
X120485000Y-96480000D02*
X119850000Y-95845000D01*
X122390000Y-76160000D02*
X122390000Y-96480000D01*
X122390000Y-96480000D02*
X120485000Y-96480000D01*
%TO.C,C10*%
X91395000Y-51675000D02*
X90145000Y-51675000D01*
X90145000Y-53675000D01*
X91395000Y-53675000D01*
X91395000Y-51675000D01*
%TO.C,R13*%
X61315000Y-63660000D02*
X62565000Y-63660000D01*
X62565000Y-61660000D01*
X61315000Y-61660000D01*
X61315000Y-63660000D01*
%TO.C,R1*%
X94695000Y-105395000D02*
X92695000Y-105395000D01*
X92695000Y-104145000D01*
X94695000Y-104145000D01*
X94695000Y-105395000D01*
%TO.C,J6*%
X57875000Y-87440000D02*
X58375000Y-86940000D01*
X57875000Y-92480000D02*
X57875000Y-87440000D01*
X58375000Y-86940000D02*
X58375000Y-92480000D01*
X58375000Y-86940000D02*
X64075000Y-86940000D01*
X61675000Y-89274000D02*
X60141000Y-87740000D01*
X61675000Y-91814000D02*
X60141000Y-90280000D01*
X61809000Y-89140000D02*
X60275000Y-87606000D01*
X61809000Y-91680000D02*
X60275000Y-90146000D01*
X63675000Y-86940000D02*
X63675000Y-92480000D01*
X64075000Y-86940000D02*
X64075000Y-92480000D01*
X64075000Y-92480000D02*
X57875000Y-92480000D01*
X62075000Y-88440000D02*
G75*
G02*
X59875000Y-88440000I-1100000J0D01*
G01*
X59875000Y-88440000D02*
G75*
G02*
X62075000Y-88440000I1100000J0D01*
G01*
X62075000Y-90980000D02*
G75*
G02*
X59875000Y-90980000I-1100000J0D01*
G01*
X59875000Y-90980000D02*
G75*
G02*
X62075000Y-90980000I1100000J0D01*
G01*
D14*
%TO.C,U2*%
X98740000Y-58750000D02*
X106640000Y-58750000D01*
X98740000Y-63250000D02*
X98740000Y-58750000D01*
X98740000Y-63250000D02*
X106640000Y-63250000D01*
X106640000Y-63250000D02*
X106640000Y-58750000D01*
D15*
X98805000Y-65440000D02*
G75*
G02*
X98605000Y-65440000I-100000J0D01*
G01*
X98605000Y-65440000D02*
G75*
G02*
X98805000Y-65440000I100000J0D01*
G01*
%TO.C,R2*%
D13*
X102500000Y-104875000D02*
X104500000Y-104875000D01*
X104500000Y-106125000D01*
X102500000Y-106125000D01*
X102500000Y-104875000D01*
%TO.C,C5*%
X107125000Y-109537500D02*
X105875000Y-109537500D01*
X105875000Y-111537500D01*
X107125000Y-111537500D01*
X107125000Y-109537500D01*
%TO.C,F1*%
X68805000Y-82290000D02*
X68805000Y-83840000D01*
X68805000Y-83840000D02*
X71905000Y-83840000D01*
X71905000Y-82290000D02*
X68805000Y-82290000D01*
X71905000Y-83840000D02*
X71905000Y-82290000D01*
%TO.C,J2*%
X119850000Y-100240000D02*
X122390000Y-100240000D01*
X119850000Y-104685000D02*
X119850000Y-100240000D01*
X120485000Y-105320000D02*
X119850000Y-104685000D01*
X122390000Y-100240000D02*
X122390000Y-105320000D01*
X122390000Y-105320000D02*
X120485000Y-105320000D01*
%TO.C,C17*%
X76142500Y-115810000D02*
X74142500Y-115810000D01*
X74142500Y-114560000D01*
X76142500Y-114560000D01*
X76142500Y-115810000D01*
%TO.C,J4*%
X97770000Y-131280000D02*
X103310000Y-131280000D01*
X97770000Y-131680000D02*
X103310000Y-131680000D01*
X97770000Y-136980000D02*
X97770000Y-131280000D01*
X97770000Y-136980000D02*
X103310000Y-136980000D01*
X98270000Y-137480000D02*
X97770000Y-136980000D01*
X99970000Y-133546000D02*
X98436000Y-135080000D01*
X100104000Y-133680000D02*
X98570000Y-135214000D01*
X102510000Y-133546000D02*
X100976000Y-135080000D01*
X102644000Y-133680000D02*
X101110000Y-135214000D01*
X103310000Y-131280000D02*
X103310000Y-137480000D01*
X103310000Y-137480000D02*
X98270000Y-137480000D01*
X100370000Y-134380000D02*
G75*
G02*
X98170000Y-134380000I-1100000J0D01*
G01*
X98170000Y-134380000D02*
G75*
G02*
X100370000Y-134380000I1100000J0D01*
G01*
X102910000Y-134380000D02*
G75*
G02*
X100710000Y-134380000I-1100000J0D01*
G01*
X100710000Y-134380000D02*
G75*
G02*
X102910000Y-134380000I1100000J0D01*
G01*
%TO.C,C7*%
X82110000Y-51580000D02*
X82110000Y-56530000D01*
X82110000Y-56530000D02*
X88710000Y-56530000D01*
X83760000Y-49930000D02*
X82110000Y-51580000D01*
X87060000Y-49930000D02*
X83760000Y-49930000D01*
X88710000Y-51580000D02*
X87060000Y-49930000D01*
X88710000Y-56530000D02*
X88710000Y-51580000D01*
%TO.C,C3*%
X105962500Y-125075000D02*
X103962500Y-125075000D01*
X103962500Y-123825000D01*
X105962500Y-123825000D01*
X105962500Y-125075000D01*
%TO.C,C16*%
X76252500Y-105200000D02*
X74252500Y-105200000D01*
X74252500Y-103950000D01*
X76252500Y-103950000D01*
X76252500Y-105200000D01*
%TO.C,C12*%
X97382500Y-55845000D02*
X95382500Y-55845000D01*
X95382500Y-54595000D01*
X97382500Y-54595000D01*
X97382500Y-55845000D01*
%TO.C,R10*%
X76900000Y-70695000D02*
X78900000Y-70695000D01*
X78900000Y-71945000D01*
X76900000Y-71945000D01*
X76900000Y-70695000D01*
%TO.C,C8*%
X107040000Y-54575000D02*
X109040000Y-54575000D01*
X109040000Y-55825000D01*
X107040000Y-55825000D01*
X107040000Y-54575000D01*
D14*
%TO.C,U1*%
X95900000Y-112950000D02*
X95900000Y-117450000D01*
X103800000Y-112950000D02*
X95900000Y-112950000D01*
X103800000Y-112950000D02*
X103800000Y-117450000D01*
X103800000Y-117450000D02*
X95900000Y-117450000D01*
D15*
X103935000Y-110760000D02*
G75*
G02*
X103735000Y-110760000I-100000J0D01*
G01*
X103735000Y-110760000D02*
G75*
G02*
X103935000Y-110760000I100000J0D01*
G01*
%TO.C,C11*%
D13*
X98165000Y-66237500D02*
X96915000Y-66237500D01*
X96915000Y-68237500D01*
X98165000Y-68237500D01*
X98165000Y-66237500D01*
%TO.C,R3*%
X94695000Y-109395000D02*
X92695000Y-109395000D01*
X92695000Y-108145000D01*
X94695000Y-108145000D01*
X94695000Y-109395000D01*
%TO.C,C15*%
X76252500Y-107850000D02*
X74252500Y-107850000D01*
X74252500Y-106600000D01*
X76252500Y-106600000D01*
X76252500Y-107850000D01*
%TO.C,C9*%
X93812500Y-51325000D02*
X95812500Y-51325000D01*
X95812500Y-52575000D01*
X93812500Y-52575000D01*
X93812500Y-51325000D01*
%TO.C,D2*%
X72000000Y-87350000D02*
X78100000Y-87350000D01*
X72000000Y-91650000D02*
X72000000Y-87350000D01*
X78100000Y-87350000D02*
X78100000Y-91650000D01*
X78100000Y-91650000D02*
X72000000Y-91650000D01*
%TO.C,R14*%
X64625000Y-56800000D02*
X65875000Y-56800000D01*
X65875000Y-54800000D01*
X64625000Y-54800000D01*
X64625000Y-56800000D01*
%TO.C,R9*%
X76900000Y-75195000D02*
X78900000Y-75195000D01*
X78900000Y-76445000D01*
X76900000Y-76445000D01*
X76900000Y-75195000D01*
%TO.C,C21*%
X61195000Y-56832500D02*
X62445000Y-56832500D01*
X62445000Y-54832500D01*
X61195000Y-54832500D01*
X61195000Y-56832500D01*
%TO.C,R12*%
X69400000Y-76445000D02*
X67400000Y-76445000D01*
X67400000Y-75195000D01*
X69400000Y-75195000D01*
X69400000Y-76445000D01*
%TO.C,C4*%
X94962500Y-121395000D02*
X92962500Y-121395000D01*
X92962500Y-120145000D01*
X94962500Y-120145000D01*
X94962500Y-121395000D01*
%TO.C,R8*%
X74250000Y-98730000D02*
X76250000Y-98730000D01*
X76250000Y-99980000D01*
X74250000Y-99980000D01*
X74250000Y-98730000D01*
%TO.C,R6*%
X107040000Y-66075000D02*
X109040000Y-66075000D01*
X109040000Y-67325000D01*
X107040000Y-67325000D01*
X107040000Y-66075000D01*
%TO.C,C19*%
X63400000Y-70195000D02*
X65400000Y-70195000D01*
X65400000Y-71445000D01*
X63400000Y-71445000D01*
X63400000Y-70195000D01*
%TO.C,C20*%
X73417500Y-55975000D02*
X75417500Y-55975000D01*
X75417500Y-57225000D01*
X73417500Y-57225000D01*
X73417500Y-55975000D01*
%TO.C,R5*%
X97500000Y-70575000D02*
X99500000Y-70575000D01*
X99500000Y-71825000D01*
X97500000Y-71825000D01*
X97500000Y-70575000D01*
%TO.C,C1*%
X111500000Y-119010000D02*
X111500000Y-123960000D01*
X111500000Y-123960000D02*
X113150000Y-125610000D01*
X113150000Y-125610000D02*
X116450000Y-125610000D01*
X116450000Y-125610000D02*
X118100000Y-123960000D01*
X118100000Y-119010000D02*
X111500000Y-119010000D01*
X118100000Y-123960000D02*
X118100000Y-119010000D01*
%TO.C,L1*%
X67500000Y-112855000D02*
X70000000Y-112855000D01*
X67500000Y-114855000D02*
X67500000Y-112855000D01*
X70000000Y-112855000D02*
X70000000Y-114855000D01*
X70000000Y-114855000D02*
X67500000Y-114855000D01*
%TO.C,U4*%
X64260000Y-60240000D02*
X74420000Y-60240000D01*
X64260000Y-66840000D02*
X64260000Y-60240000D01*
X65530000Y-66840000D02*
X64260000Y-65570000D01*
X74420000Y-60240000D02*
X74420000Y-66840000D01*
X74420000Y-66840000D02*
X64260000Y-66840000D01*
%TO.C,C13*%
X73512500Y-96125000D02*
X71512500Y-96125000D01*
X71512500Y-94875000D01*
X73512500Y-94875000D01*
X73512500Y-96125000D01*
%TO.C,R7*%
X76210000Y-102600000D02*
X74210000Y-102600000D01*
X74210000Y-101350000D01*
X76210000Y-101350000D01*
X76210000Y-102600000D01*
%TO.C,U3*%
X63800000Y-106305000D02*
X66700000Y-106305000D01*
X63800000Y-107905000D02*
X63800000Y-106305000D01*
X64750000Y-107905000D02*
X63800000Y-106955000D01*
X66700000Y-106305000D02*
X66700000Y-107905000D01*
X66700000Y-107905000D02*
X63800000Y-107905000D01*
%TO.C,J5*%
X97480000Y-40320000D02*
X102520000Y-40320000D01*
X97480000Y-46520000D02*
X97480000Y-40320000D01*
X98146000Y-44120000D02*
X99680000Y-42586000D01*
X98280000Y-44254000D02*
X99814000Y-42720000D01*
X100686000Y-44120000D02*
X102220000Y-42586000D01*
X100820000Y-44254000D02*
X102354000Y-42720000D01*
X102520000Y-40320000D02*
X103020000Y-40820000D01*
X103020000Y-40820000D02*
X97480000Y-40820000D01*
X103020000Y-40820000D02*
X103020000Y-46520000D01*
X103020000Y-46120000D02*
X97480000Y-46120000D01*
X103020000Y-46520000D02*
X97480000Y-46520000D01*
X100080000Y-43420000D02*
G75*
G02*
X97880000Y-43420000I-1100000J0D01*
G01*
X97880000Y-43420000D02*
G75*
G02*
X100080000Y-43420000I1100000J0D01*
G01*
X102620000Y-43420000D02*
G75*
G02*
X100420000Y-43420000I-1100000J0D01*
G01*
X100420000Y-43420000D02*
G75*
G02*
X102620000Y-43420000I1100000J0D01*
G01*
%TO.C,C14*%
X68287500Y-102230000D02*
X70287500Y-102230000D01*
X70287500Y-103480000D01*
X68287500Y-103480000D01*
X68287500Y-102230000D01*
%TO.C,D1*%
X66330000Y-87715000D02*
X68830000Y-87715000D01*
X66330000Y-91515000D02*
X66330000Y-87715000D01*
X67680000Y-87715000D02*
X68830000Y-88865000D01*
X68830000Y-87715000D02*
X68830000Y-91515000D01*
X68830000Y-91515000D02*
X66330000Y-91515000D01*
%TO.C,R4*%
X107040000Y-71575000D02*
X109040000Y-71575000D01*
X109040000Y-72825000D01*
X107040000Y-72825000D01*
X107040000Y-71575000D01*
%TO.C,R11*%
X71900000Y-75195000D02*
X73900000Y-75195000D01*
X73900000Y-76445000D01*
X71900000Y-76445000D01*
X71900000Y-75195000D01*
%TD*%
M02*
