%TF.GenerationSoftware,KiCad,Pcbnew,9.0.7*%
%TF.CreationDate,2026-04-23T15:57:12-03:00*%
%TF.ProjectId,drivers-mini-vehiculo-pcb,64726976-6572-4732-9d6d-696e692d7665,rev?*%
%TF.SameCoordinates,Original*%
%TF.FileFunction,Soldermask,Top*%
%TF.FilePolarity,Negative*%
%FSLAX46Y46*%
G04 Gerber Fmt 4.6, Leading zero omitted, Abs format (unit mm)*
G04 Created by KiCad (PCBNEW 9.0.7) date 2026-04-23 15:57:12*
%MOMM*%
%LPD*%
G01*
G04 APERTURE LIST*
G04 Aperture macros list*
%AMRoundRect*
0 Rectangle with rounded corners*
0 $1 Rounding radius*
0 $2 $3 $4 $5 $6 $7 $8 $9 X,Y pos of 4 corners*
0 Add a 4 corners polygon primitive as box body*
4,1,4,$2,$3,$4,$5,$6,$7,$8,$9,$2,$3,0*
0 Add four circle primitives for the rounded corners*
1,1,$1+$1,$2,$3*
1,1,$1+$1,$4,$5*
1,1,$1+$1,$6,$7*
1,1,$1+$1,$8,$9*
0 Add four rect primitives between the rounded corners*
20,1,$1+$1,$2,$3,$4,$5,0*
20,1,$1+$1,$4,$5,$6,$7,0*
20,1,$1+$1,$6,$7,$8,$9,0*
20,1,$1+$1,$8,$9,$2,$3,0*%
G04 Aperture macros list end*
%ADD10C,0.010000*%
%ADD11C,0.800000*%
%ADD12C,6.400000*%
%ADD13RoundRect,0.250000X-0.337500X-0.475000X0.337500X-0.475000X0.337500X0.475000X-0.337500X0.475000X0*%
%ADD14RoundRect,0.250000X-0.475000X0.337500X-0.475000X-0.337500X0.475000X-0.337500X0.475000X0.337500X0*%
%ADD15R,0.400000X1.200000*%
%ADD16RoundRect,0.250000X0.475000X-0.337500X0.475000X0.337500X-0.475000X0.337500X-0.475000X-0.337500X0*%
%ADD17R,1.700000X1.700000*%
%ADD18C,1.700000*%
%ADD19RoundRect,0.250000X0.450000X-0.350000X0.450000X0.350000X-0.450000X0.350000X-0.450000X-0.350000X0*%
%ADD20RoundRect,0.250000X0.350000X0.450000X-0.350000X0.450000X-0.350000X-0.450000X0.350000X-0.450000X0*%
%ADD21R,1.550000X1.920000*%
%ADD22C,1.100000*%
%ADD23RoundRect,0.249999X-0.850001X0.850001X-0.850001X-0.850001X0.850001X-0.850001X0.850001X0.850001X0*%
%ADD24C,2.200000*%
%ADD25RoundRect,0.076750X0.230250X-0.810250X0.230250X0.810250X-0.230250X0.810250X-0.230250X-0.810250X0*%
%ADD26RoundRect,0.250000X-0.350000X-0.450000X0.350000X-0.450000X0.350000X0.450000X-0.350000X0.450000X0*%
%ADD27RoundRect,0.250000X0.337500X0.475000X-0.337500X0.475000X-0.337500X-0.475000X0.337500X-0.475000X0*%
%ADD28RoundRect,0.249999X-0.850001X-0.850001X0.850001X-0.850001X0.850001X0.850001X-0.850001X0.850001X0*%
%ADD29R,1.850000X3.550000*%
%ADD30R,1.500000X1.500000*%
%ADD31RoundRect,0.076750X-0.230250X0.810250X-0.230250X-0.810250X0.230250X-0.810250X0.230250X0.810250X0*%
%ADD32R,1.270000X1.400000*%
%ADD33R,4.720000X4.800000*%
%ADD34R,1.150000X2.200000*%
%ADD35R,1.230000X1.230000*%
%ADD36C,1.230000*%
%ADD37R,0.600000X1.250000*%
%ADD38RoundRect,0.249999X0.850001X0.850001X-0.850001X0.850001X-0.850001X-0.850001X0.850001X-0.850001X0*%
%ADD39R,0.630000X2.300000*%
G04 APERTURE END LIST*
D10*
X105320000Y-62600000D02*
X100060000Y-62600000D01*
X100060000Y-59400000D01*
X105320000Y-59400000D01*
X105320000Y-62600000D01*
G36*
X105320000Y-62600000D02*
G01*
X100060000Y-62600000D01*
X100060000Y-59400000D01*
X105320000Y-59400000D01*
X105320000Y-62600000D01*
G37*
X102480000Y-116800000D02*
X97220000Y-116800000D01*
X97220000Y-113600000D01*
X102480000Y-113600000D01*
X102480000Y-116800000D01*
G36*
X102480000Y-116800000D02*
G01*
X97220000Y-116800000D01*
X97220000Y-113600000D01*
X102480000Y-113600000D01*
X102480000Y-116800000D01*
G37*
D11*
X60552944Y-134437056D03*
X59850000Y-136134112D03*
X59850000Y-132740000D03*
X58152944Y-136837056D03*
D12*
X58152944Y-134437056D03*
D11*
X58152944Y-132037056D03*
X56455888Y-136134112D03*
X56455888Y-132740000D03*
X55752944Y-134437056D03*
D13*
X103285000Y-120520000D03*
X105360000Y-120520000D03*
D14*
X77040000Y-66350000D03*
X77040000Y-68425000D03*
D15*
X75830000Y-110735000D03*
X75180000Y-110735000D03*
X74530000Y-110735000D03*
X74530000Y-112635000D03*
X75830000Y-112635000D03*
D16*
X109800000Y-123965000D03*
X109800000Y-121890000D03*
D17*
X121120000Y-95210000D03*
D18*
X121120000Y-92670000D03*
X121120000Y-90130000D03*
X121120000Y-87590000D03*
X121120000Y-85050000D03*
X121120000Y-82510000D03*
X121120000Y-79970000D03*
X121120000Y-77430000D03*
D14*
X90770000Y-51637500D03*
X90770000Y-53712500D03*
D19*
X61940000Y-63660000D03*
X61940000Y-61660000D03*
D20*
X94695000Y-104770000D03*
X92695000Y-104770000D03*
D21*
X69215000Y-82500000D03*
X71785000Y-82500000D03*
D22*
X58435000Y-88440000D03*
X58435000Y-90980000D03*
D23*
X60975000Y-88440000D03*
D24*
X60975000Y-90980000D03*
D25*
X99115000Y-63870000D03*
X99765000Y-63870000D03*
X100415000Y-63870000D03*
X101065000Y-63870000D03*
X101715000Y-63870000D03*
X102365000Y-63870000D03*
X103015000Y-63870000D03*
X103665000Y-63870000D03*
X104315000Y-63870000D03*
X104965000Y-63870000D03*
X105615000Y-63870000D03*
X106265000Y-63870000D03*
X106265000Y-58130000D03*
X105615000Y-58130000D03*
X104965000Y-58130000D03*
X104315000Y-58130000D03*
X103665000Y-58130000D03*
X103015000Y-58130000D03*
X102365000Y-58130000D03*
X101715000Y-58130000D03*
X101065000Y-58130000D03*
X100415000Y-58130000D03*
X99765000Y-58130000D03*
X99115000Y-58130000D03*
D26*
X102500000Y-105500000D03*
X104500000Y-105500000D03*
D14*
X106500000Y-109500000D03*
X106500000Y-111575000D03*
D17*
X121120000Y-104050000D03*
D18*
X121120000Y-101510000D03*
D11*
X60552944Y-43830000D03*
X59850000Y-45527056D03*
X59850000Y-42132944D03*
X58152944Y-46230000D03*
D12*
X58152944Y-43830000D03*
D11*
X58152944Y-41430000D03*
X56455888Y-45527056D03*
X56455888Y-42132944D03*
X55752944Y-43830000D03*
D27*
X76180000Y-115185000D03*
X74105000Y-115185000D03*
D22*
X99270000Y-136920000D03*
X101810000Y-136920000D03*
D28*
X99270000Y-134380000D03*
D24*
X101810000Y-134380000D03*
D29*
X85410000Y-50580000D03*
X85410000Y-55880000D03*
D30*
X58020000Y-58100000D03*
X57940000Y-71350000D03*
D27*
X106000000Y-124450000D03*
X103925000Y-124450000D03*
X76290000Y-104575000D03*
X74215000Y-104575000D03*
X97420000Y-55220000D03*
X95345000Y-55220000D03*
D26*
X76900000Y-71320000D03*
X78900000Y-71320000D03*
D13*
X107002500Y-55200000D03*
X109077500Y-55200000D03*
D11*
X118130000Y-134450000D03*
X118832944Y-132752944D03*
X118832944Y-136147056D03*
X120530000Y-132050000D03*
D12*
X120530000Y-134450000D03*
D11*
X120530000Y-136850000D03*
X122227056Y-132752944D03*
X122227056Y-136147056D03*
X122930000Y-134450000D03*
D31*
X103425000Y-112330000D03*
X102775000Y-112330000D03*
X102125000Y-112330000D03*
X101475000Y-112330000D03*
X100825000Y-112330000D03*
X100175000Y-112330000D03*
X99525000Y-112330000D03*
X98875000Y-112330000D03*
X98225000Y-112330000D03*
X97575000Y-112330000D03*
X96925000Y-112330000D03*
X96275000Y-112330000D03*
X96275000Y-118070000D03*
X96925000Y-118070000D03*
X97575000Y-118070000D03*
X98225000Y-118070000D03*
X98875000Y-118070000D03*
X99525000Y-118070000D03*
X100175000Y-118070000D03*
X100825000Y-118070000D03*
X101475000Y-118070000D03*
X102125000Y-118070000D03*
X102775000Y-118070000D03*
X103425000Y-118070000D03*
D11*
X122930000Y-43830000D03*
X122227056Y-45527056D03*
X122227056Y-42132944D03*
X120530000Y-46230000D03*
D12*
X120530000Y-43830000D03*
D11*
X120530000Y-41430000D03*
X118832944Y-45527056D03*
X118832944Y-42132944D03*
X118130000Y-43830000D03*
D14*
X97540000Y-66200000D03*
X97540000Y-68275000D03*
D20*
X94695000Y-108770000D03*
X92695000Y-108770000D03*
D27*
X76290000Y-107225000D03*
X74215000Y-107225000D03*
D13*
X93775000Y-51950000D03*
X95850000Y-51950000D03*
D32*
X72285000Y-90540000D03*
X72285000Y-88460000D03*
D33*
X76090000Y-89500000D03*
D19*
X65250000Y-56800000D03*
X65250000Y-54800000D03*
D26*
X76900000Y-75820000D03*
X78900000Y-75820000D03*
D16*
X61820000Y-56870000D03*
X61820000Y-54795000D03*
D20*
X69400000Y-75820000D03*
X67400000Y-75820000D03*
D27*
X95000000Y-120770000D03*
X92925000Y-120770000D03*
D26*
X74250000Y-99355000D03*
X76250000Y-99355000D03*
X107040000Y-66700000D03*
X109040000Y-66700000D03*
D13*
X63362500Y-70820000D03*
X65437500Y-70820000D03*
X73380000Y-56600000D03*
X75455000Y-56600000D03*
D26*
X97500000Y-71200000D03*
X99500000Y-71200000D03*
D29*
X114800000Y-124960000D03*
X114800000Y-119660000D03*
D34*
X67650000Y-113855000D03*
X69850000Y-113855000D03*
D35*
X65530000Y-67510000D03*
D36*
X68070000Y-67510000D03*
X70610000Y-67510000D03*
X73150000Y-67510000D03*
X73150000Y-59570000D03*
X70610000Y-59570000D03*
X68070000Y-59570000D03*
X65530000Y-59570000D03*
D27*
X73550000Y-95500000D03*
X71475000Y-95500000D03*
D30*
X58020000Y-64600000D03*
D20*
X76210000Y-101975000D03*
X74210000Y-101975000D03*
D37*
X64300000Y-108355000D03*
X65250000Y-108355000D03*
X66200000Y-108355000D03*
X66200000Y-105855000D03*
X65250000Y-105855000D03*
X64300000Y-105855000D03*
D22*
X101520000Y-40880000D03*
X98980000Y-40880000D03*
D38*
X101520000Y-43420000D03*
D24*
X98980000Y-43420000D03*
D13*
X68250000Y-102855000D03*
X70325000Y-102855000D03*
D39*
X67580000Y-88065000D03*
X67580000Y-91165000D03*
D26*
X107040000Y-72200000D03*
X109040000Y-72200000D03*
X71900000Y-75820000D03*
X73900000Y-75820000D03*
M02*
