M48
; DRILL file {KiCad 9.0.7} date 2026-04-23T15:57:02-0300
; FORMAT={-:-/ absolute / metric / decimal}
; #@! TF.CreationDate,2026-04-23T15:57:02-03:00
; #@! TF.GenerationSoftware,Kicad,Pcbnew,9.0.7
; #@! TF.FileFunction,Plated,1,2,PTH
FMAT,2
METRIC
; #@! TA.AperFunction,Plated,PTH,ViaDrill
T1C0.300
; #@! TA.AperFunction,Plated,PTH,ComponentDrill
T2C0.300
; #@! TA.AperFunction,Plated,PTH,ComponentDrill
T3C0.500
; #@! TA.AperFunction,Plated,PTH,ComponentDrill
T4C0.730
; #@! TA.AperFunction,Plated,PTH,ComponentDrill
T5C1.000
; #@! TA.AperFunction,Plated,PTH,ComponentDrill
T6C1.100
; #@! TA.AperFunction,Plated,PTH,ComponentDrill
T7C3.200
%
G90
G05
T1
X56.95Y-110.3
X56.95Y-115.38
X56.95Y-120.46
X56.95Y-125.54
X58.58Y-52.28
X59.74Y-112.73
X59.74Y-117.81
X59.74Y-122.89
X62.29Y-115.27
X62.34Y-120.36
X62.34Y-125.44
X62.42Y-50.08
X64.87Y-117.81
X64.88Y-122.9
X64.88Y-127.98
X65.69Y-43.43
X65.69Y-48.17
X67.22Y-52.63
X67.26Y-124.84
X67.42Y-120.36
X67.42Y-130.52
X67.42Y-135.83
X68.76Y-45.99
X68.76Y-50.73
X69.96Y-127.98
X69.96Y-133.06
X70.11Y-120.92
X71.79Y-43.45
X71.79Y-48.19
X71.79Y-53.27
X72.5Y-130.52
X72.5Y-135.83
X73.04Y-128.34
X74.02Y-119.82
X75.04Y-122.9
X75.04Y-127.98
X75.04Y-133.06
X75.2Y-45.99
X75.2Y-50.73
X77.0Y-62.3
X77.05Y-60.15
X78.17Y-131.42
X78.19Y-63.05
X78.2Y-135.8
X78.32Y-43.43
X78.32Y-48.17
X79.19Y-125.94
X80.12Y-127.98
X80.12Y-133.06
X80.21Y-124.37
X81.1Y-112.59
X82.1Y-134.8
X82.19Y-113.34
X82.31Y-45.97
X82.66Y-120.36
X82.66Y-125.44
X82.85Y-131.12
X84.82Y-122.12
X85.2Y-127.98
X85.2Y-133.06
X86.13Y-43.4
X87.01Y-71.32
X87.68Y-75.52
X87.68Y-80.6
X87.77Y-130.52
X87.77Y-135.6
X89.75Y-73.09
X89.75Y-78.17
X89.8Y-87.61
X89.8Y-92.69
X89.81Y-82.5
X92.33Y-48.84
X92.33Y-49.85
X92.72Y-85.05
X92.72Y-90.13
X92.74Y-74.98
X92.74Y-80.06
X92.8Y-126.4
X92.8Y-127.3
X92.82Y-47.38
X93.29Y-48.82
X93.29Y-49.82
X93.87Y-127.28
X93.88Y-126.37
X94.26Y-47.51
X94.36Y-48.79
X94.36Y-49.82
X94.8Y-127.31
X94.83Y-126.37
X95.26Y-82.51
X95.26Y-87.59
X95.3Y-77.55
X96.16Y-94.1
X96.57Y-108.73
X97.07Y-64.31
X97.5Y-94.05
X100.56Y-66.48
X101.45Y-80.1
X102.04Y-109.32
X105.7Y-103.29
X105.86Y-68.77
X106.13Y-128.54
X106.19Y-127.36
X106.21Y-126.47
X106.53Y-107.45
X106.94Y-103.25
X107.14Y-126.47
X107.17Y-127.37
X107.54Y-90.54
X107.8Y-42.49
X108.15Y-126.45
X108.15Y-127.35
X108.22Y-48.72
X108.22Y-49.65
X108.23Y-50.53
X108.26Y-128.61
X109.34Y-48.72
X109.34Y-49.65
X109.34Y-50.53
X110.22Y-44.32
X110.83Y-130.41
X112.1Y-132.94
X112.71Y-108.19
X112.71Y-113.16
X112.81Y-46.2
X112.85Y-56.81
X112.85Y-61.89
X112.85Y-66.77
X112.85Y-71.85
X112.85Y-76.93
X112.97Y-42.65
X114.01Y-130.85
X115.36Y-69.3
X115.36Y-74.38
X115.37Y-54.47
X115.37Y-59.55
X115.37Y-64.63
X115.43Y-49.33
X115.64Y-110.73
X115.64Y-115.7
X115.72Y-101.03
X118.08Y-113.16
X118.24Y-51.6
X118.24Y-56.68
X118.24Y-61.76
X118.24Y-66.76
X118.24Y-71.84
X120.4Y-110.73
X120.4Y-115.7
X121.12Y-64.16
X121.12Y-69.24
X121.12Y-74.32
X121.17Y-54.13
X121.17Y-59.21
X122.65Y-113.27
X122.65Y-118.24
X122.65Y-123.11
X122.65Y-128.19
T2
X96.6Y-113.9
X96.6Y-115.2
X96.6Y-116.5
X97.9Y-113.9
X97.9Y-115.2
X97.9Y-116.5
X99.2Y-113.9
X99.2Y-115.2
X99.2Y-116.5
X99.44Y-59.7
X99.44Y-61.0
X99.44Y-62.3
X100.5Y-113.9
X100.5Y-115.2
X100.5Y-116.5
X100.74Y-59.7
X100.74Y-61.0
X100.74Y-62.3
X101.8Y-113.9
X101.8Y-115.2
X101.8Y-116.5
X102.04Y-59.7
X102.04Y-61.0
X102.04Y-62.3
X103.1Y-113.9
X103.1Y-115.2
X103.1Y-116.5
X103.34Y-59.7
X103.34Y-61.0
X103.34Y-62.3
X104.64Y-59.7
X104.64Y-61.0
X104.64Y-62.3
X105.94Y-59.7
X105.94Y-61.0
X105.94Y-62.3
T3
X55.753Y-43.83
X55.753Y-134.437
X56.456Y-42.133
X56.456Y-45.527
X56.456Y-132.74
X56.456Y-136.134
X58.153Y-41.43
X58.153Y-46.23
X58.153Y-132.037
X58.153Y-136.837
X59.85Y-42.133
X59.85Y-45.527
X59.85Y-132.74
X59.85Y-136.134
X60.553Y-43.83
X60.553Y-134.437
X118.13Y-43.83
X118.13Y-134.45
X118.833Y-42.133
X118.833Y-45.527
X118.833Y-132.753
X118.833Y-136.147
X120.53Y-41.43
X120.53Y-46.23
X120.53Y-132.05
X120.53Y-136.85
X122.227Y-42.133
X122.227Y-45.527
X122.227Y-132.753
X122.227Y-136.147
X122.93Y-43.83
X122.93Y-134.45
T4
X65.53Y-59.57
X65.53Y-67.51
X68.07Y-59.57
X68.07Y-67.51
X70.61Y-59.57
X70.61Y-67.51
X73.15Y-59.57
X73.15Y-67.51
T5
X121.12Y-77.43
X121.12Y-79.97
X121.12Y-82.51
X121.12Y-85.05
X121.12Y-87.59
X121.12Y-90.13
X121.12Y-92.67
X121.12Y-95.21
X121.12Y-101.51
X121.12Y-104.05
T6
X60.975Y-88.44
X60.975Y-90.98
X98.98Y-43.42
X99.27Y-134.38
X101.52Y-43.42
X101.81Y-134.38
T7
X58.153Y-43.83
X58.153Y-134.437
X120.53Y-43.83
X120.53Y-134.45
M30
