%TF.GenerationSoftware,KiCad,Pcbnew,9.0.7*%
%TF.CreationDate,2026-04-20T10:39:29-03:00*%
%TF.ProjectId,drivers-mini-vehiculo-pcb,64726976-6572-4732-9d6d-696e692d7665,rev?*%
%TF.SameCoordinates,Original*%
%TF.FileFunction,AssemblyDrawing,Top*%
%FSLAX46Y46*%
G04 Gerber Fmt 4.6, Leading zero omitted, Abs format (unit mm)*
G04 Created by KiCad (PCBNEW 9.0.7) date 2026-04-20 10:39:29*
%MOMM*%
%LPD*%
G01*
G04 APERTURE LIST*
%ADD10C,0.080000*%
%ADD11C,0.150000*%
%ADD12C,0.254000*%
%ADD13C,0.100000*%
%ADD14C,0.127000*%
%ADD15C,0.200000*%
G04 APERTURE END LIST*
D10*
X77219530Y-67708928D02*
X77243340Y-67732737D01*
X77243340Y-67732737D02*
X77267149Y-67804166D01*
X77267149Y-67804166D02*
X77267149Y-67851785D01*
X77267149Y-67851785D02*
X77243340Y-67923213D01*
X77243340Y-67923213D02*
X77195720Y-67970832D01*
X77195720Y-67970832D02*
X77148101Y-67994642D01*
X77148101Y-67994642D02*
X77052863Y-68018451D01*
X77052863Y-68018451D02*
X76981435Y-68018451D01*
X76981435Y-68018451D02*
X76886197Y-67994642D01*
X76886197Y-67994642D02*
X76838578Y-67970832D01*
X76838578Y-67970832D02*
X76790959Y-67923213D01*
X76790959Y-67923213D02*
X76767149Y-67851785D01*
X76767149Y-67851785D02*
X76767149Y-67804166D01*
X76767149Y-67804166D02*
X76790959Y-67732737D01*
X76790959Y-67732737D02*
X76814768Y-67708928D01*
X77267149Y-67232737D02*
X77267149Y-67518451D01*
X77267149Y-67375594D02*
X76767149Y-67375594D01*
X76767149Y-67375594D02*
X76838578Y-67423213D01*
X76838578Y-67423213D02*
X76886197Y-67470832D01*
X76886197Y-67470832D02*
X76910006Y-67518451D01*
X76981435Y-66947023D02*
X76957625Y-66994642D01*
X76957625Y-66994642D02*
X76933816Y-67018452D01*
X76933816Y-67018452D02*
X76886197Y-67042261D01*
X76886197Y-67042261D02*
X76862387Y-67042261D01*
X76862387Y-67042261D02*
X76814768Y-67018452D01*
X76814768Y-67018452D02*
X76790959Y-66994642D01*
X76790959Y-66994642D02*
X76767149Y-66947023D01*
X76767149Y-66947023D02*
X76767149Y-66851785D01*
X76767149Y-66851785D02*
X76790959Y-66804166D01*
X76790959Y-66804166D02*
X76814768Y-66780357D01*
X76814768Y-66780357D02*
X76862387Y-66756547D01*
X76862387Y-66756547D02*
X76886197Y-66756547D01*
X76886197Y-66756547D02*
X76933816Y-66780357D01*
X76933816Y-66780357D02*
X76957625Y-66804166D01*
X76957625Y-66804166D02*
X76981435Y-66851785D01*
X76981435Y-66851785D02*
X76981435Y-66947023D01*
X76981435Y-66947023D02*
X77005244Y-66994642D01*
X77005244Y-66994642D02*
X77029054Y-67018452D01*
X77029054Y-67018452D02*
X77076673Y-67042261D01*
X77076673Y-67042261D02*
X77171911Y-67042261D01*
X77171911Y-67042261D02*
X77219530Y-67018452D01*
X77219530Y-67018452D02*
X77243340Y-66994642D01*
X77243340Y-66994642D02*
X77267149Y-66947023D01*
X77267149Y-66947023D02*
X77267149Y-66851785D01*
X77267149Y-66851785D02*
X77243340Y-66804166D01*
X77243340Y-66804166D02*
X77219530Y-66780357D01*
X77219530Y-66780357D02*
X77171911Y-66756547D01*
X77171911Y-66756547D02*
X77076673Y-66756547D01*
X77076673Y-66756547D02*
X77029054Y-66780357D01*
X77029054Y-66780357D02*
X77005244Y-66804166D01*
X77005244Y-66804166D02*
X76981435Y-66851785D01*
D11*
X118549580Y-94463334D02*
X118597200Y-94510953D01*
X118597200Y-94510953D02*
X118644819Y-94653810D01*
X118644819Y-94653810D02*
X118644819Y-94749048D01*
X118644819Y-94749048D02*
X118597200Y-94891905D01*
X118597200Y-94891905D02*
X118501961Y-94987143D01*
X118501961Y-94987143D02*
X118406723Y-95034762D01*
X118406723Y-95034762D02*
X118216247Y-95082381D01*
X118216247Y-95082381D02*
X118073390Y-95082381D01*
X118073390Y-95082381D02*
X117882914Y-95034762D01*
X117882914Y-95034762D02*
X117787676Y-94987143D01*
X117787676Y-94987143D02*
X117692438Y-94891905D01*
X117692438Y-94891905D02*
X117644819Y-94749048D01*
X117644819Y-94749048D02*
X117644819Y-94653810D01*
X117644819Y-94653810D02*
X117692438Y-94510953D01*
X117692438Y-94510953D02*
X117740057Y-94463334D01*
X118644819Y-93891905D02*
X118597200Y-93987143D01*
X118597200Y-93987143D02*
X118549580Y-94034762D01*
X118549580Y-94034762D02*
X118454342Y-94082381D01*
X118454342Y-94082381D02*
X118168628Y-94082381D01*
X118168628Y-94082381D02*
X118073390Y-94034762D01*
X118073390Y-94034762D02*
X118025771Y-93987143D01*
X118025771Y-93987143D02*
X117978152Y-93891905D01*
X117978152Y-93891905D02*
X117978152Y-93749048D01*
X117978152Y-93749048D02*
X118025771Y-93653810D01*
X118025771Y-93653810D02*
X118073390Y-93606191D01*
X118073390Y-93606191D02*
X118168628Y-93558572D01*
X118168628Y-93558572D02*
X118454342Y-93558572D01*
X118454342Y-93558572D02*
X118549580Y-93606191D01*
X118549580Y-93606191D02*
X118597200Y-93653810D01*
X118597200Y-93653810D02*
X118644819Y-93749048D01*
X118644819Y-93749048D02*
X118644819Y-93891905D01*
X117978152Y-93130000D02*
X118644819Y-93130000D01*
X118073390Y-93130000D02*
X118025771Y-93082381D01*
X118025771Y-93082381D02*
X117978152Y-92987143D01*
X117978152Y-92987143D02*
X117978152Y-92844286D01*
X117978152Y-92844286D02*
X118025771Y-92749048D01*
X118025771Y-92749048D02*
X118121009Y-92701429D01*
X118121009Y-92701429D02*
X118644819Y-92701429D01*
X117978152Y-92225238D02*
X118644819Y-92225238D01*
X118073390Y-92225238D02*
X118025771Y-92177619D01*
X118025771Y-92177619D02*
X117978152Y-92082381D01*
X117978152Y-92082381D02*
X117978152Y-91939524D01*
X117978152Y-91939524D02*
X118025771Y-91844286D01*
X118025771Y-91844286D02*
X118121009Y-91796667D01*
X118121009Y-91796667D02*
X118644819Y-91796667D01*
X118740057Y-91558572D02*
X118740057Y-90796667D01*
X117644819Y-90368095D02*
X117644819Y-90272857D01*
X117644819Y-90272857D02*
X117692438Y-90177619D01*
X117692438Y-90177619D02*
X117740057Y-90130000D01*
X117740057Y-90130000D02*
X117835295Y-90082381D01*
X117835295Y-90082381D02*
X118025771Y-90034762D01*
X118025771Y-90034762D02*
X118263866Y-90034762D01*
X118263866Y-90034762D02*
X118454342Y-90082381D01*
X118454342Y-90082381D02*
X118549580Y-90130000D01*
X118549580Y-90130000D02*
X118597200Y-90177619D01*
X118597200Y-90177619D02*
X118644819Y-90272857D01*
X118644819Y-90272857D02*
X118644819Y-90368095D01*
X118644819Y-90368095D02*
X118597200Y-90463333D01*
X118597200Y-90463333D02*
X118549580Y-90510952D01*
X118549580Y-90510952D02*
X118454342Y-90558571D01*
X118454342Y-90558571D02*
X118263866Y-90606190D01*
X118263866Y-90606190D02*
X118025771Y-90606190D01*
X118025771Y-90606190D02*
X117835295Y-90558571D01*
X117835295Y-90558571D02*
X117740057Y-90510952D01*
X117740057Y-90510952D02*
X117692438Y-90463333D01*
X117692438Y-90463333D02*
X117644819Y-90368095D01*
X118644819Y-89082381D02*
X118644819Y-89653809D01*
X118644819Y-89368095D02*
X117644819Y-89368095D01*
X117644819Y-89368095D02*
X117787676Y-89463333D01*
X117787676Y-89463333D02*
X117882914Y-89558571D01*
X117882914Y-89558571D02*
X117930533Y-89653809D01*
X118644819Y-88749047D02*
X117978152Y-88225238D01*
X117978152Y-88749047D02*
X118644819Y-88225238D01*
X117644819Y-87653809D02*
X117644819Y-87558571D01*
X117644819Y-87558571D02*
X117692438Y-87463333D01*
X117692438Y-87463333D02*
X117740057Y-87415714D01*
X117740057Y-87415714D02*
X117835295Y-87368095D01*
X117835295Y-87368095D02*
X118025771Y-87320476D01*
X118025771Y-87320476D02*
X118263866Y-87320476D01*
X118263866Y-87320476D02*
X118454342Y-87368095D01*
X118454342Y-87368095D02*
X118549580Y-87415714D01*
X118549580Y-87415714D02*
X118597200Y-87463333D01*
X118597200Y-87463333D02*
X118644819Y-87558571D01*
X118644819Y-87558571D02*
X118644819Y-87653809D01*
X118644819Y-87653809D02*
X118597200Y-87749047D01*
X118597200Y-87749047D02*
X118549580Y-87796666D01*
X118549580Y-87796666D02*
X118454342Y-87844285D01*
X118454342Y-87844285D02*
X118263866Y-87891904D01*
X118263866Y-87891904D02*
X118025771Y-87891904D01*
X118025771Y-87891904D02*
X117835295Y-87844285D01*
X117835295Y-87844285D02*
X117740057Y-87796666D01*
X117740057Y-87796666D02*
X117692438Y-87749047D01*
X117692438Y-87749047D02*
X117644819Y-87653809D01*
X118073390Y-86749047D02*
X118025771Y-86844285D01*
X118025771Y-86844285D02*
X117978152Y-86891904D01*
X117978152Y-86891904D02*
X117882914Y-86939523D01*
X117882914Y-86939523D02*
X117835295Y-86939523D01*
X117835295Y-86939523D02*
X117740057Y-86891904D01*
X117740057Y-86891904D02*
X117692438Y-86844285D01*
X117692438Y-86844285D02*
X117644819Y-86749047D01*
X117644819Y-86749047D02*
X117644819Y-86558571D01*
X117644819Y-86558571D02*
X117692438Y-86463333D01*
X117692438Y-86463333D02*
X117740057Y-86415714D01*
X117740057Y-86415714D02*
X117835295Y-86368095D01*
X117835295Y-86368095D02*
X117882914Y-86368095D01*
X117882914Y-86368095D02*
X117978152Y-86415714D01*
X117978152Y-86415714D02*
X118025771Y-86463333D01*
X118025771Y-86463333D02*
X118073390Y-86558571D01*
X118073390Y-86558571D02*
X118073390Y-86749047D01*
X118073390Y-86749047D02*
X118121009Y-86844285D01*
X118121009Y-86844285D02*
X118168628Y-86891904D01*
X118168628Y-86891904D02*
X118263866Y-86939523D01*
X118263866Y-86939523D02*
X118454342Y-86939523D01*
X118454342Y-86939523D02*
X118549580Y-86891904D01*
X118549580Y-86891904D02*
X118597200Y-86844285D01*
X118597200Y-86844285D02*
X118644819Y-86749047D01*
X118644819Y-86749047D02*
X118644819Y-86558571D01*
X118644819Y-86558571D02*
X118597200Y-86463333D01*
X118597200Y-86463333D02*
X118549580Y-86415714D01*
X118549580Y-86415714D02*
X118454342Y-86368095D01*
X118454342Y-86368095D02*
X118263866Y-86368095D01*
X118263866Y-86368095D02*
X118168628Y-86415714D01*
X118168628Y-86415714D02*
X118121009Y-86463333D01*
X118121009Y-86463333D02*
X118073390Y-86558571D01*
X118740057Y-86177619D02*
X118740057Y-85415714D01*
X118644819Y-85177618D02*
X117644819Y-85177618D01*
X117644819Y-85177618D02*
X117644819Y-84796666D01*
X117644819Y-84796666D02*
X117692438Y-84701428D01*
X117692438Y-84701428D02*
X117740057Y-84653809D01*
X117740057Y-84653809D02*
X117835295Y-84606190D01*
X117835295Y-84606190D02*
X117978152Y-84606190D01*
X117978152Y-84606190D02*
X118073390Y-84653809D01*
X118073390Y-84653809D02*
X118121009Y-84701428D01*
X118121009Y-84701428D02*
X118168628Y-84796666D01*
X118168628Y-84796666D02*
X118168628Y-85177618D01*
X118644819Y-84177618D02*
X117978152Y-84177618D01*
X117644819Y-84177618D02*
X117692438Y-84225237D01*
X117692438Y-84225237D02*
X117740057Y-84177618D01*
X117740057Y-84177618D02*
X117692438Y-84129999D01*
X117692438Y-84129999D02*
X117644819Y-84177618D01*
X117644819Y-84177618D02*
X117740057Y-84177618D01*
X117978152Y-83701428D02*
X118644819Y-83701428D01*
X118073390Y-83701428D02*
X118025771Y-83653809D01*
X118025771Y-83653809D02*
X117978152Y-83558571D01*
X117978152Y-83558571D02*
X117978152Y-83415714D01*
X117978152Y-83415714D02*
X118025771Y-83320476D01*
X118025771Y-83320476D02*
X118121009Y-83272857D01*
X118121009Y-83272857D02*
X118644819Y-83272857D01*
X118740057Y-83034762D02*
X118740057Y-82272857D01*
X118644819Y-81606190D02*
X117644819Y-81606190D01*
X118597200Y-81606190D02*
X118644819Y-81701428D01*
X118644819Y-81701428D02*
X118644819Y-81891904D01*
X118644819Y-81891904D02*
X118597200Y-81987142D01*
X118597200Y-81987142D02*
X118549580Y-82034761D01*
X118549580Y-82034761D02*
X118454342Y-82082380D01*
X118454342Y-82082380D02*
X118168628Y-82082380D01*
X118168628Y-82082380D02*
X118073390Y-82034761D01*
X118073390Y-82034761D02*
X118025771Y-81987142D01*
X118025771Y-81987142D02*
X117978152Y-81891904D01*
X117978152Y-81891904D02*
X117978152Y-81701428D01*
X117978152Y-81701428D02*
X118025771Y-81606190D01*
X118644819Y-81129999D02*
X117978152Y-81129999D01*
X118168628Y-81129999D02*
X118073390Y-81082380D01*
X118073390Y-81082380D02*
X118025771Y-81034761D01*
X118025771Y-81034761D02*
X117978152Y-80939523D01*
X117978152Y-80939523D02*
X117978152Y-80844285D01*
X117978152Y-80606189D02*
X118644819Y-80368094D01*
X118644819Y-80368094D02*
X117978152Y-80129999D01*
D10*
X62167149Y-62981428D02*
X61929054Y-63148094D01*
X62167149Y-63267142D02*
X61667149Y-63267142D01*
X61667149Y-63267142D02*
X61667149Y-63076666D01*
X61667149Y-63076666D02*
X61690959Y-63029047D01*
X61690959Y-63029047D02*
X61714768Y-63005237D01*
X61714768Y-63005237D02*
X61762387Y-62981428D01*
X61762387Y-62981428D02*
X61833816Y-62981428D01*
X61833816Y-62981428D02*
X61881435Y-63005237D01*
X61881435Y-63005237D02*
X61905244Y-63029047D01*
X61905244Y-63029047D02*
X61929054Y-63076666D01*
X61929054Y-63076666D02*
X61929054Y-63267142D01*
X62167149Y-62505237D02*
X62167149Y-62790951D01*
X62167149Y-62648094D02*
X61667149Y-62648094D01*
X61667149Y-62648094D02*
X61738578Y-62695713D01*
X61738578Y-62695713D02*
X61786197Y-62743332D01*
X61786197Y-62743332D02*
X61810006Y-62790951D01*
X61667149Y-62338571D02*
X61667149Y-62029047D01*
X61667149Y-62029047D02*
X61857625Y-62195714D01*
X61857625Y-62195714D02*
X61857625Y-62124285D01*
X61857625Y-62124285D02*
X61881435Y-62076666D01*
X61881435Y-62076666D02*
X61905244Y-62052857D01*
X61905244Y-62052857D02*
X61952863Y-62029047D01*
X61952863Y-62029047D02*
X62071911Y-62029047D01*
X62071911Y-62029047D02*
X62119530Y-62052857D01*
X62119530Y-62052857D02*
X62143340Y-62076666D01*
X62143340Y-62076666D02*
X62167149Y-62124285D01*
X62167149Y-62124285D02*
X62167149Y-62267142D01*
X62167149Y-62267142D02*
X62143340Y-62314761D01*
X62143340Y-62314761D02*
X62119530Y-62338571D01*
D11*
X57306009Y-98043334D02*
X57353628Y-97900477D01*
X57353628Y-97900477D02*
X57401247Y-97852858D01*
X57401247Y-97852858D02*
X57496485Y-97805239D01*
X57496485Y-97805239D02*
X57639342Y-97805239D01*
X57639342Y-97805239D02*
X57734580Y-97852858D01*
X57734580Y-97852858D02*
X57782200Y-97900477D01*
X57782200Y-97900477D02*
X57829819Y-97995715D01*
X57829819Y-97995715D02*
X57829819Y-98376667D01*
X57829819Y-98376667D02*
X56829819Y-98376667D01*
X56829819Y-98376667D02*
X56829819Y-98043334D01*
X56829819Y-98043334D02*
X56877438Y-97948096D01*
X56877438Y-97948096D02*
X56925057Y-97900477D01*
X56925057Y-97900477D02*
X57020295Y-97852858D01*
X57020295Y-97852858D02*
X57115533Y-97852858D01*
X57115533Y-97852858D02*
X57210771Y-97900477D01*
X57210771Y-97900477D02*
X57258390Y-97948096D01*
X57258390Y-97948096D02*
X57306009Y-98043334D01*
X57306009Y-98043334D02*
X57306009Y-98376667D01*
X57829819Y-96948096D02*
X57306009Y-96948096D01*
X57306009Y-96948096D02*
X57210771Y-96995715D01*
X57210771Y-96995715D02*
X57163152Y-97090953D01*
X57163152Y-97090953D02*
X57163152Y-97281429D01*
X57163152Y-97281429D02*
X57210771Y-97376667D01*
X57782200Y-96948096D02*
X57829819Y-97043334D01*
X57829819Y-97043334D02*
X57829819Y-97281429D01*
X57829819Y-97281429D02*
X57782200Y-97376667D01*
X57782200Y-97376667D02*
X57686961Y-97424286D01*
X57686961Y-97424286D02*
X57591723Y-97424286D01*
X57591723Y-97424286D02*
X57496485Y-97376667D01*
X57496485Y-97376667D02*
X57448866Y-97281429D01*
X57448866Y-97281429D02*
X57448866Y-97043334D01*
X57448866Y-97043334D02*
X57401247Y-96948096D01*
X57163152Y-96614762D02*
X57163152Y-96233810D01*
X56829819Y-96471905D02*
X57686961Y-96471905D01*
X57686961Y-96471905D02*
X57782200Y-96424286D01*
X57782200Y-96424286D02*
X57829819Y-96329048D01*
X57829819Y-96329048D02*
X57829819Y-96233810D01*
X57163152Y-96043333D02*
X57163152Y-95662381D01*
X56829819Y-95900476D02*
X57686961Y-95900476D01*
X57686961Y-95900476D02*
X57782200Y-95852857D01*
X57782200Y-95852857D02*
X57829819Y-95757619D01*
X57829819Y-95757619D02*
X57829819Y-95662381D01*
X57782200Y-94948095D02*
X57829819Y-95043333D01*
X57829819Y-95043333D02*
X57829819Y-95233809D01*
X57829819Y-95233809D02*
X57782200Y-95329047D01*
X57782200Y-95329047D02*
X57686961Y-95376666D01*
X57686961Y-95376666D02*
X57306009Y-95376666D01*
X57306009Y-95376666D02*
X57210771Y-95329047D01*
X57210771Y-95329047D02*
X57163152Y-95233809D01*
X57163152Y-95233809D02*
X57163152Y-95043333D01*
X57163152Y-95043333D02*
X57210771Y-94948095D01*
X57210771Y-94948095D02*
X57306009Y-94900476D01*
X57306009Y-94900476D02*
X57401247Y-94900476D01*
X57401247Y-94900476D02*
X57496485Y-95376666D01*
X57829819Y-94471904D02*
X57163152Y-94471904D01*
X57353628Y-94471904D02*
X57258390Y-94424285D01*
X57258390Y-94424285D02*
X57210771Y-94376666D01*
X57210771Y-94376666D02*
X57163152Y-94281428D01*
X57163152Y-94281428D02*
X57163152Y-94186190D01*
X57163152Y-93948094D02*
X57829819Y-93709999D01*
X57163152Y-93471904D02*
X57829819Y-93709999D01*
X57829819Y-93709999D02*
X58067914Y-93805237D01*
X58067914Y-93805237D02*
X58115533Y-93852856D01*
X58115533Y-93852856D02*
X58163152Y-93948094D01*
X57925057Y-93329047D02*
X57925057Y-92567142D01*
X56829819Y-92471903D02*
X56829819Y-91900475D01*
X57829819Y-92186189D02*
X56829819Y-92186189D01*
X57782200Y-91186189D02*
X57829819Y-91281427D01*
X57829819Y-91281427D02*
X57829819Y-91471903D01*
X57829819Y-91471903D02*
X57782200Y-91567141D01*
X57782200Y-91567141D02*
X57686961Y-91614760D01*
X57686961Y-91614760D02*
X57306009Y-91614760D01*
X57306009Y-91614760D02*
X57210771Y-91567141D01*
X57210771Y-91567141D02*
X57163152Y-91471903D01*
X57163152Y-91471903D02*
X57163152Y-91281427D01*
X57163152Y-91281427D02*
X57210771Y-91186189D01*
X57210771Y-91186189D02*
X57306009Y-91138570D01*
X57306009Y-91138570D02*
X57401247Y-91138570D01*
X57401247Y-91138570D02*
X57496485Y-91614760D01*
X57829819Y-90709998D02*
X57163152Y-90709998D01*
X57353628Y-90709998D02*
X57258390Y-90662379D01*
X57258390Y-90662379D02*
X57210771Y-90614760D01*
X57210771Y-90614760D02*
X57163152Y-90519522D01*
X57163152Y-90519522D02*
X57163152Y-90424284D01*
X57829819Y-90090950D02*
X57163152Y-90090950D01*
X57258390Y-90090950D02*
X57210771Y-90043331D01*
X57210771Y-90043331D02*
X57163152Y-89948093D01*
X57163152Y-89948093D02*
X57163152Y-89805236D01*
X57163152Y-89805236D02*
X57210771Y-89709998D01*
X57210771Y-89709998D02*
X57306009Y-89662379D01*
X57306009Y-89662379D02*
X57829819Y-89662379D01*
X57306009Y-89662379D02*
X57210771Y-89614760D01*
X57210771Y-89614760D02*
X57163152Y-89519522D01*
X57163152Y-89519522D02*
X57163152Y-89376665D01*
X57163152Y-89376665D02*
X57210771Y-89281426D01*
X57210771Y-89281426D02*
X57306009Y-89233807D01*
X57306009Y-89233807D02*
X57829819Y-89233807D01*
X57829819Y-88757617D02*
X57163152Y-88757617D01*
X56829819Y-88757617D02*
X56877438Y-88805236D01*
X56877438Y-88805236D02*
X56925057Y-88757617D01*
X56925057Y-88757617D02*
X56877438Y-88709998D01*
X56877438Y-88709998D02*
X56829819Y-88757617D01*
X56829819Y-88757617D02*
X56925057Y-88757617D01*
X57163152Y-88281427D02*
X57829819Y-88281427D01*
X57258390Y-88281427D02*
X57210771Y-88233808D01*
X57210771Y-88233808D02*
X57163152Y-88138570D01*
X57163152Y-88138570D02*
X57163152Y-87995713D01*
X57163152Y-87995713D02*
X57210771Y-87900475D01*
X57210771Y-87900475D02*
X57306009Y-87852856D01*
X57306009Y-87852856D02*
X57829819Y-87852856D01*
X57829819Y-86948094D02*
X57306009Y-86948094D01*
X57306009Y-86948094D02*
X57210771Y-86995713D01*
X57210771Y-86995713D02*
X57163152Y-87090951D01*
X57163152Y-87090951D02*
X57163152Y-87281427D01*
X57163152Y-87281427D02*
X57210771Y-87376665D01*
X57782200Y-86948094D02*
X57829819Y-87043332D01*
X57829819Y-87043332D02*
X57829819Y-87281427D01*
X57829819Y-87281427D02*
X57782200Y-87376665D01*
X57782200Y-87376665D02*
X57686961Y-87424284D01*
X57686961Y-87424284D02*
X57591723Y-87424284D01*
X57591723Y-87424284D02*
X57496485Y-87376665D01*
X57496485Y-87376665D02*
X57448866Y-87281427D01*
X57448866Y-87281427D02*
X57448866Y-87043332D01*
X57448866Y-87043332D02*
X57401247Y-86948094D01*
X57829819Y-86329046D02*
X57782200Y-86424284D01*
X57782200Y-86424284D02*
X57686961Y-86471903D01*
X57686961Y-86471903D02*
X56829819Y-86471903D01*
X57925057Y-86186189D02*
X57925057Y-85424284D01*
X56829819Y-84995712D02*
X56829819Y-84900474D01*
X56829819Y-84900474D02*
X56877438Y-84805236D01*
X56877438Y-84805236D02*
X56925057Y-84757617D01*
X56925057Y-84757617D02*
X57020295Y-84709998D01*
X57020295Y-84709998D02*
X57210771Y-84662379D01*
X57210771Y-84662379D02*
X57448866Y-84662379D01*
X57448866Y-84662379D02*
X57639342Y-84709998D01*
X57639342Y-84709998D02*
X57734580Y-84757617D01*
X57734580Y-84757617D02*
X57782200Y-84805236D01*
X57782200Y-84805236D02*
X57829819Y-84900474D01*
X57829819Y-84900474D02*
X57829819Y-84995712D01*
X57829819Y-84995712D02*
X57782200Y-85090950D01*
X57782200Y-85090950D02*
X57734580Y-85138569D01*
X57734580Y-85138569D02*
X57639342Y-85186188D01*
X57639342Y-85186188D02*
X57448866Y-85233807D01*
X57448866Y-85233807D02*
X57210771Y-85233807D01*
X57210771Y-85233807D02*
X57020295Y-85186188D01*
X57020295Y-85186188D02*
X56925057Y-85138569D01*
X56925057Y-85138569D02*
X56877438Y-85090950D01*
X56877438Y-85090950D02*
X56829819Y-84995712D01*
X57829819Y-83709998D02*
X57829819Y-84281426D01*
X57829819Y-83995712D02*
X56829819Y-83995712D01*
X56829819Y-83995712D02*
X56972676Y-84090950D01*
X56972676Y-84090950D02*
X57067914Y-84186188D01*
X57067914Y-84186188D02*
X57115533Y-84281426D01*
X57829819Y-83376664D02*
X57163152Y-82852855D01*
X57163152Y-83376664D02*
X57829819Y-82852855D01*
X56829819Y-82281426D02*
X56829819Y-82186188D01*
X56829819Y-82186188D02*
X56877438Y-82090950D01*
X56877438Y-82090950D02*
X56925057Y-82043331D01*
X56925057Y-82043331D02*
X57020295Y-81995712D01*
X57020295Y-81995712D02*
X57210771Y-81948093D01*
X57210771Y-81948093D02*
X57448866Y-81948093D01*
X57448866Y-81948093D02*
X57639342Y-81995712D01*
X57639342Y-81995712D02*
X57734580Y-82043331D01*
X57734580Y-82043331D02*
X57782200Y-82090950D01*
X57782200Y-82090950D02*
X57829819Y-82186188D01*
X57829819Y-82186188D02*
X57829819Y-82281426D01*
X57829819Y-82281426D02*
X57782200Y-82376664D01*
X57782200Y-82376664D02*
X57734580Y-82424283D01*
X57734580Y-82424283D02*
X57639342Y-82471902D01*
X57639342Y-82471902D02*
X57448866Y-82519521D01*
X57448866Y-82519521D02*
X57210771Y-82519521D01*
X57210771Y-82519521D02*
X57020295Y-82471902D01*
X57020295Y-82471902D02*
X56925057Y-82424283D01*
X56925057Y-82424283D02*
X56877438Y-82376664D01*
X56877438Y-82376664D02*
X56829819Y-82281426D01*
X56925057Y-81567140D02*
X56877438Y-81519521D01*
X56877438Y-81519521D02*
X56829819Y-81424283D01*
X56829819Y-81424283D02*
X56829819Y-81186188D01*
X56829819Y-81186188D02*
X56877438Y-81090950D01*
X56877438Y-81090950D02*
X56925057Y-81043331D01*
X56925057Y-81043331D02*
X57020295Y-80995712D01*
X57020295Y-80995712D02*
X57115533Y-80995712D01*
X57115533Y-80995712D02*
X57258390Y-81043331D01*
X57258390Y-81043331D02*
X57829819Y-81614759D01*
X57829819Y-81614759D02*
X57829819Y-80995712D01*
X60429819Y-88773333D02*
X61144104Y-88773333D01*
X61144104Y-88773333D02*
X61286961Y-88820952D01*
X61286961Y-88820952D02*
X61382200Y-88916190D01*
X61382200Y-88916190D02*
X61429819Y-89059047D01*
X61429819Y-89059047D02*
X61429819Y-89154285D01*
X60429819Y-87820952D02*
X60429819Y-88297142D01*
X60429819Y-88297142D02*
X60906009Y-88344761D01*
X60906009Y-88344761D02*
X60858390Y-88297142D01*
X60858390Y-88297142D02*
X60810771Y-88201904D01*
X60810771Y-88201904D02*
X60810771Y-87963809D01*
X60810771Y-87963809D02*
X60858390Y-87868571D01*
X60858390Y-87868571D02*
X60906009Y-87820952D01*
X60906009Y-87820952D02*
X61001247Y-87773333D01*
X61001247Y-87773333D02*
X61239342Y-87773333D01*
X61239342Y-87773333D02*
X61334580Y-87820952D01*
X61334580Y-87820952D02*
X61382200Y-87868571D01*
X61382200Y-87868571D02*
X61429819Y-87963809D01*
X61429819Y-87963809D02*
X61429819Y-88201904D01*
X61429819Y-88201904D02*
X61382200Y-88297142D01*
X61382200Y-88297142D02*
X61334580Y-88344761D01*
X112454819Y-67190475D02*
X111454819Y-67190475D01*
X111454819Y-67190475D02*
X111454819Y-66952380D01*
X111454819Y-66952380D02*
X111502438Y-66809523D01*
X111502438Y-66809523D02*
X111597676Y-66714285D01*
X111597676Y-66714285D02*
X111692914Y-66666666D01*
X111692914Y-66666666D02*
X111883390Y-66619047D01*
X111883390Y-66619047D02*
X112026247Y-66619047D01*
X112026247Y-66619047D02*
X112216723Y-66666666D01*
X112216723Y-66666666D02*
X112311961Y-66714285D01*
X112311961Y-66714285D02*
X112407200Y-66809523D01*
X112407200Y-66809523D02*
X112454819Y-66952380D01*
X112454819Y-66952380D02*
X112454819Y-67190475D01*
X112454819Y-65619047D02*
X111978628Y-65952380D01*
X112454819Y-66190475D02*
X111454819Y-66190475D01*
X111454819Y-66190475D02*
X111454819Y-65809523D01*
X111454819Y-65809523D02*
X111502438Y-65714285D01*
X111502438Y-65714285D02*
X111550057Y-65666666D01*
X111550057Y-65666666D02*
X111645295Y-65619047D01*
X111645295Y-65619047D02*
X111788152Y-65619047D01*
X111788152Y-65619047D02*
X111883390Y-65666666D01*
X111883390Y-65666666D02*
X111931009Y-65714285D01*
X111931009Y-65714285D02*
X111978628Y-65809523D01*
X111978628Y-65809523D02*
X111978628Y-66190475D01*
X111454819Y-65333332D02*
X112454819Y-64999999D01*
X112454819Y-64999999D02*
X111454819Y-64666666D01*
X111883390Y-64190475D02*
X111835771Y-64285713D01*
X111835771Y-64285713D02*
X111788152Y-64333332D01*
X111788152Y-64333332D02*
X111692914Y-64380951D01*
X111692914Y-64380951D02*
X111645295Y-64380951D01*
X111645295Y-64380951D02*
X111550057Y-64333332D01*
X111550057Y-64333332D02*
X111502438Y-64285713D01*
X111502438Y-64285713D02*
X111454819Y-64190475D01*
X111454819Y-64190475D02*
X111454819Y-63999999D01*
X111454819Y-63999999D02*
X111502438Y-63904761D01*
X111502438Y-63904761D02*
X111550057Y-63857142D01*
X111550057Y-63857142D02*
X111645295Y-63809523D01*
X111645295Y-63809523D02*
X111692914Y-63809523D01*
X111692914Y-63809523D02*
X111788152Y-63857142D01*
X111788152Y-63857142D02*
X111835771Y-63904761D01*
X111835771Y-63904761D02*
X111883390Y-63999999D01*
X111883390Y-63999999D02*
X111883390Y-64190475D01*
X111883390Y-64190475D02*
X111931009Y-64285713D01*
X111931009Y-64285713D02*
X111978628Y-64333332D01*
X111978628Y-64333332D02*
X112073866Y-64380951D01*
X112073866Y-64380951D02*
X112264342Y-64380951D01*
X112264342Y-64380951D02*
X112359580Y-64333332D01*
X112359580Y-64333332D02*
X112407200Y-64285713D01*
X112407200Y-64285713D02*
X112454819Y-64190475D01*
X112454819Y-64190475D02*
X112454819Y-63999999D01*
X112454819Y-63999999D02*
X112407200Y-63904761D01*
X112407200Y-63904761D02*
X112359580Y-63857142D01*
X112359580Y-63857142D02*
X112264342Y-63809523D01*
X112264342Y-63809523D02*
X112073866Y-63809523D01*
X112073866Y-63809523D02*
X111978628Y-63857142D01*
X111978628Y-63857142D02*
X111931009Y-63904761D01*
X111931009Y-63904761D02*
X111883390Y-63999999D01*
X111883390Y-63238094D02*
X111835771Y-63333332D01*
X111835771Y-63333332D02*
X111788152Y-63380951D01*
X111788152Y-63380951D02*
X111692914Y-63428570D01*
X111692914Y-63428570D02*
X111645295Y-63428570D01*
X111645295Y-63428570D02*
X111550057Y-63380951D01*
X111550057Y-63380951D02*
X111502438Y-63333332D01*
X111502438Y-63333332D02*
X111454819Y-63238094D01*
X111454819Y-63238094D02*
X111454819Y-63047618D01*
X111454819Y-63047618D02*
X111502438Y-62952380D01*
X111502438Y-62952380D02*
X111550057Y-62904761D01*
X111550057Y-62904761D02*
X111645295Y-62857142D01*
X111645295Y-62857142D02*
X111692914Y-62857142D01*
X111692914Y-62857142D02*
X111788152Y-62904761D01*
X111788152Y-62904761D02*
X111835771Y-62952380D01*
X111835771Y-62952380D02*
X111883390Y-63047618D01*
X111883390Y-63047618D02*
X111883390Y-63238094D01*
X111883390Y-63238094D02*
X111931009Y-63333332D01*
X111931009Y-63333332D02*
X111978628Y-63380951D01*
X111978628Y-63380951D02*
X112073866Y-63428570D01*
X112073866Y-63428570D02*
X112264342Y-63428570D01*
X112264342Y-63428570D02*
X112359580Y-63380951D01*
X112359580Y-63380951D02*
X112407200Y-63333332D01*
X112407200Y-63333332D02*
X112454819Y-63238094D01*
X112454819Y-63238094D02*
X112454819Y-63047618D01*
X112454819Y-63047618D02*
X112407200Y-62952380D01*
X112407200Y-62952380D02*
X112359580Y-62904761D01*
X112359580Y-62904761D02*
X112264342Y-62857142D01*
X112264342Y-62857142D02*
X112073866Y-62857142D01*
X112073866Y-62857142D02*
X111978628Y-62904761D01*
X111978628Y-62904761D02*
X111931009Y-62952380D01*
X111931009Y-62952380D02*
X111883390Y-63047618D01*
X111454819Y-62523808D02*
X111454819Y-61857142D01*
X111454819Y-61857142D02*
X112454819Y-62285713D01*
X111454819Y-61571427D02*
X111454819Y-60952380D01*
X111454819Y-60952380D02*
X111835771Y-61285713D01*
X111835771Y-61285713D02*
X111835771Y-61142856D01*
X111835771Y-61142856D02*
X111883390Y-61047618D01*
X111883390Y-61047618D02*
X111931009Y-60999999D01*
X111931009Y-60999999D02*
X112026247Y-60952380D01*
X112026247Y-60952380D02*
X112264342Y-60952380D01*
X112264342Y-60952380D02*
X112359580Y-60999999D01*
X112359580Y-60999999D02*
X112407200Y-61047618D01*
X112407200Y-61047618D02*
X112454819Y-61142856D01*
X112454819Y-61142856D02*
X112454819Y-61428570D01*
X112454819Y-61428570D02*
X112407200Y-61523808D01*
X112407200Y-61523808D02*
X112359580Y-61571427D01*
X112454819Y-60523808D02*
X111454819Y-60523808D01*
X111931009Y-60523808D02*
X111931009Y-59952380D01*
X112454819Y-59952380D02*
X111454819Y-59952380D01*
X112454819Y-59476189D02*
X111454819Y-59476189D01*
X111454819Y-59476189D02*
X111454819Y-59095237D01*
X111454819Y-59095237D02*
X111502438Y-58999999D01*
X111502438Y-58999999D02*
X111550057Y-58952380D01*
X111550057Y-58952380D02*
X111645295Y-58904761D01*
X111645295Y-58904761D02*
X111788152Y-58904761D01*
X111788152Y-58904761D02*
X111883390Y-58952380D01*
X111883390Y-58952380D02*
X111931009Y-58999999D01*
X111931009Y-58999999D02*
X111978628Y-59095237D01*
X111978628Y-59095237D02*
X111978628Y-59476189D01*
X111454819Y-58571427D02*
X112454819Y-58333332D01*
X112454819Y-58333332D02*
X111740533Y-58142856D01*
X111740533Y-58142856D02*
X112454819Y-57952380D01*
X112454819Y-57952380D02*
X111454819Y-57714285D01*
X112454819Y-57333332D02*
X111454819Y-57333332D01*
X111454819Y-57333332D02*
X111454819Y-56952380D01*
X111454819Y-56952380D02*
X111502438Y-56857142D01*
X111502438Y-56857142D02*
X111550057Y-56809523D01*
X111550057Y-56809523D02*
X111645295Y-56761904D01*
X111645295Y-56761904D02*
X111788152Y-56761904D01*
X111788152Y-56761904D02*
X111883390Y-56809523D01*
X111883390Y-56809523D02*
X111931009Y-56857142D01*
X111931009Y-56857142D02*
X111978628Y-56952380D01*
X111978628Y-56952380D02*
X111978628Y-57333332D01*
X112454819Y-55761904D02*
X111978628Y-56095237D01*
X112454819Y-56333332D02*
X111454819Y-56333332D01*
X111454819Y-56333332D02*
X111454819Y-55952380D01*
X111454819Y-55952380D02*
X111502438Y-55857142D01*
X111502438Y-55857142D02*
X111550057Y-55809523D01*
X111550057Y-55809523D02*
X111645295Y-55761904D01*
X111645295Y-55761904D02*
X111788152Y-55761904D01*
X111788152Y-55761904D02*
X111883390Y-55809523D01*
X111883390Y-55809523D02*
X111931009Y-55857142D01*
X111931009Y-55857142D02*
X111978628Y-55952380D01*
X111978628Y-55952380D02*
X111978628Y-56333332D01*
X112550057Y-54666666D02*
X112502438Y-54761904D01*
X112502438Y-54761904D02*
X112407200Y-54857142D01*
X112407200Y-54857142D02*
X112264342Y-54999999D01*
X112264342Y-54999999D02*
X112216723Y-55095237D01*
X112216723Y-55095237D02*
X112216723Y-55190475D01*
X112454819Y-55142856D02*
X112407200Y-55238094D01*
X112407200Y-55238094D02*
X112311961Y-55333332D01*
X112311961Y-55333332D02*
X112121485Y-55380951D01*
X112121485Y-55380951D02*
X111788152Y-55380951D01*
X111788152Y-55380951D02*
X111597676Y-55333332D01*
X111597676Y-55333332D02*
X111502438Y-55238094D01*
X111502438Y-55238094D02*
X111454819Y-55142856D01*
X111454819Y-55142856D02*
X111454819Y-54952380D01*
X111454819Y-54952380D02*
X111502438Y-54857142D01*
X111502438Y-54857142D02*
X111597676Y-54761904D01*
X111597676Y-54761904D02*
X111788152Y-54714285D01*
X111788152Y-54714285D02*
X112121485Y-54714285D01*
X112121485Y-54714285D02*
X112311961Y-54761904D01*
X112311961Y-54761904D02*
X112407200Y-54857142D01*
X112407200Y-54857142D02*
X112454819Y-54952380D01*
X112454819Y-54952380D02*
X112454819Y-55142856D01*
X112454819Y-53761904D02*
X112454819Y-54333332D01*
X112454819Y-54047618D02*
X111454819Y-54047618D01*
X111454819Y-54047618D02*
X111597676Y-54142856D01*
X111597676Y-54142856D02*
X111692914Y-54238094D01*
X111692914Y-54238094D02*
X111740533Y-54333332D01*
X58978095Y-44654819D02*
X58978095Y-43654819D01*
X58978095Y-44131009D02*
X59549523Y-44131009D01*
X59549523Y-44654819D02*
X59549523Y-43654819D01*
X59978095Y-43750057D02*
X60025714Y-43702438D01*
X60025714Y-43702438D02*
X60120952Y-43654819D01*
X60120952Y-43654819D02*
X60359047Y-43654819D01*
X60359047Y-43654819D02*
X60454285Y-43702438D01*
X60454285Y-43702438D02*
X60501904Y-43750057D01*
X60501904Y-43750057D02*
X60549523Y-43845295D01*
X60549523Y-43845295D02*
X60549523Y-43940533D01*
X60549523Y-43940533D02*
X60501904Y-44083390D01*
X60501904Y-44083390D02*
X59930476Y-44654819D01*
X59930476Y-44654819D02*
X60549523Y-44654819D01*
X55744819Y-72611904D02*
X55744819Y-72040476D01*
X56744819Y-72326190D02*
X55744819Y-72326190D01*
X56744819Y-71707142D02*
X55744819Y-71707142D01*
X55744819Y-71707142D02*
X55744819Y-71326190D01*
X55744819Y-71326190D02*
X55792438Y-71230952D01*
X55792438Y-71230952D02*
X55840057Y-71183333D01*
X55840057Y-71183333D02*
X55935295Y-71135714D01*
X55935295Y-71135714D02*
X56078152Y-71135714D01*
X56078152Y-71135714D02*
X56173390Y-71183333D01*
X56173390Y-71183333D02*
X56221009Y-71230952D01*
X56221009Y-71230952D02*
X56268628Y-71326190D01*
X56268628Y-71326190D02*
X56268628Y-71707142D01*
X56744819Y-70183333D02*
X56744819Y-70754761D01*
X56744819Y-70469047D02*
X55744819Y-70469047D01*
X55744819Y-70469047D02*
X55887676Y-70564285D01*
X55887676Y-70564285D02*
X55982914Y-70659523D01*
X55982914Y-70659523D02*
X56030533Y-70754761D01*
X55824819Y-59361904D02*
X55824819Y-58790476D01*
X56824819Y-59076190D02*
X55824819Y-59076190D01*
X56824819Y-58457142D02*
X55824819Y-58457142D01*
X55824819Y-58457142D02*
X55824819Y-58076190D01*
X55824819Y-58076190D02*
X55872438Y-57980952D01*
X55872438Y-57980952D02*
X55920057Y-57933333D01*
X55920057Y-57933333D02*
X56015295Y-57885714D01*
X56015295Y-57885714D02*
X56158152Y-57885714D01*
X56158152Y-57885714D02*
X56253390Y-57933333D01*
X56253390Y-57933333D02*
X56301009Y-57980952D01*
X56301009Y-57980952D02*
X56348628Y-58076190D01*
X56348628Y-58076190D02*
X56348628Y-58457142D01*
X55824819Y-57552380D02*
X55824819Y-56933333D01*
X55824819Y-56933333D02*
X56205771Y-57266666D01*
X56205771Y-57266666D02*
X56205771Y-57123809D01*
X56205771Y-57123809D02*
X56253390Y-57028571D01*
X56253390Y-57028571D02*
X56301009Y-56980952D01*
X56301009Y-56980952D02*
X56396247Y-56933333D01*
X56396247Y-56933333D02*
X56634342Y-56933333D01*
X56634342Y-56933333D02*
X56729580Y-56980952D01*
X56729580Y-56980952D02*
X56777200Y-57028571D01*
X56777200Y-57028571D02*
X56824819Y-57123809D01*
X56824819Y-57123809D02*
X56824819Y-57409523D01*
X56824819Y-57409523D02*
X56777200Y-57504761D01*
X56777200Y-57504761D02*
X56729580Y-57552380D01*
D10*
X77578571Y-71547149D02*
X77411905Y-71309054D01*
X77292857Y-71547149D02*
X77292857Y-71047149D01*
X77292857Y-71047149D02*
X77483333Y-71047149D01*
X77483333Y-71047149D02*
X77530952Y-71070959D01*
X77530952Y-71070959D02*
X77554762Y-71094768D01*
X77554762Y-71094768D02*
X77578571Y-71142387D01*
X77578571Y-71142387D02*
X77578571Y-71213816D01*
X77578571Y-71213816D02*
X77554762Y-71261435D01*
X77554762Y-71261435D02*
X77530952Y-71285244D01*
X77530952Y-71285244D02*
X77483333Y-71309054D01*
X77483333Y-71309054D02*
X77292857Y-71309054D01*
X78054762Y-71547149D02*
X77769048Y-71547149D01*
X77911905Y-71547149D02*
X77911905Y-71047149D01*
X77911905Y-71047149D02*
X77864286Y-71118578D01*
X77864286Y-71118578D02*
X77816667Y-71166197D01*
X77816667Y-71166197D02*
X77769048Y-71190006D01*
X78364285Y-71047149D02*
X78411904Y-71047149D01*
X78411904Y-71047149D02*
X78459523Y-71070959D01*
X78459523Y-71070959D02*
X78483333Y-71094768D01*
X78483333Y-71094768D02*
X78507142Y-71142387D01*
X78507142Y-71142387D02*
X78530952Y-71237625D01*
X78530952Y-71237625D02*
X78530952Y-71356673D01*
X78530952Y-71356673D02*
X78507142Y-71451911D01*
X78507142Y-71451911D02*
X78483333Y-71499530D01*
X78483333Y-71499530D02*
X78459523Y-71523340D01*
X78459523Y-71523340D02*
X78411904Y-71547149D01*
X78411904Y-71547149D02*
X78364285Y-71547149D01*
X78364285Y-71547149D02*
X78316666Y-71523340D01*
X78316666Y-71523340D02*
X78292857Y-71499530D01*
X78292857Y-71499530D02*
X78269047Y-71451911D01*
X78269047Y-71451911D02*
X78245238Y-71356673D01*
X78245238Y-71356673D02*
X78245238Y-71237625D01*
X78245238Y-71237625D02*
X78269047Y-71142387D01*
X78269047Y-71142387D02*
X78292857Y-71094768D01*
X78292857Y-71094768D02*
X78316666Y-71070959D01*
X78316666Y-71070959D02*
X78364285Y-71047149D01*
X94729166Y-52129530D02*
X94705357Y-52153340D01*
X94705357Y-52153340D02*
X94633928Y-52177149D01*
X94633928Y-52177149D02*
X94586309Y-52177149D01*
X94586309Y-52177149D02*
X94514881Y-52153340D01*
X94514881Y-52153340D02*
X94467262Y-52105720D01*
X94467262Y-52105720D02*
X94443452Y-52058101D01*
X94443452Y-52058101D02*
X94419643Y-51962863D01*
X94419643Y-51962863D02*
X94419643Y-51891435D01*
X94419643Y-51891435D02*
X94443452Y-51796197D01*
X94443452Y-51796197D02*
X94467262Y-51748578D01*
X94467262Y-51748578D02*
X94514881Y-51700959D01*
X94514881Y-51700959D02*
X94586309Y-51677149D01*
X94586309Y-51677149D02*
X94633928Y-51677149D01*
X94633928Y-51677149D02*
X94705357Y-51700959D01*
X94705357Y-51700959D02*
X94729166Y-51724768D01*
X94967262Y-52177149D02*
X95062500Y-52177149D01*
X95062500Y-52177149D02*
X95110119Y-52153340D01*
X95110119Y-52153340D02*
X95133928Y-52129530D01*
X95133928Y-52129530D02*
X95181547Y-52058101D01*
X95181547Y-52058101D02*
X95205357Y-51962863D01*
X95205357Y-51962863D02*
X95205357Y-51772387D01*
X95205357Y-51772387D02*
X95181547Y-51724768D01*
X95181547Y-51724768D02*
X95157738Y-51700959D01*
X95157738Y-51700959D02*
X95110119Y-51677149D01*
X95110119Y-51677149D02*
X95014881Y-51677149D01*
X95014881Y-51677149D02*
X94967262Y-51700959D01*
X94967262Y-51700959D02*
X94943452Y-51724768D01*
X94943452Y-51724768D02*
X94919643Y-51772387D01*
X94919643Y-51772387D02*
X94919643Y-51891435D01*
X94919643Y-51891435D02*
X94943452Y-51939054D01*
X94943452Y-51939054D02*
X94967262Y-51962863D01*
X94967262Y-51962863D02*
X95014881Y-51986673D01*
X95014881Y-51986673D02*
X95110119Y-51986673D01*
X95110119Y-51986673D02*
X95157738Y-51962863D01*
X95157738Y-51962863D02*
X95181547Y-51939054D01*
X95181547Y-51939054D02*
X95205357Y-51891435D01*
D11*
X91454819Y-123190475D02*
X90454819Y-123190475D01*
X90454819Y-123190475D02*
X90454819Y-122952380D01*
X90454819Y-122952380D02*
X90502438Y-122809523D01*
X90502438Y-122809523D02*
X90597676Y-122714285D01*
X90597676Y-122714285D02*
X90692914Y-122666666D01*
X90692914Y-122666666D02*
X90883390Y-122619047D01*
X90883390Y-122619047D02*
X91026247Y-122619047D01*
X91026247Y-122619047D02*
X91216723Y-122666666D01*
X91216723Y-122666666D02*
X91311961Y-122714285D01*
X91311961Y-122714285D02*
X91407200Y-122809523D01*
X91407200Y-122809523D02*
X91454819Y-122952380D01*
X91454819Y-122952380D02*
X91454819Y-123190475D01*
X91454819Y-121619047D02*
X90978628Y-121952380D01*
X91454819Y-122190475D02*
X90454819Y-122190475D01*
X90454819Y-122190475D02*
X90454819Y-121809523D01*
X90454819Y-121809523D02*
X90502438Y-121714285D01*
X90502438Y-121714285D02*
X90550057Y-121666666D01*
X90550057Y-121666666D02*
X90645295Y-121619047D01*
X90645295Y-121619047D02*
X90788152Y-121619047D01*
X90788152Y-121619047D02*
X90883390Y-121666666D01*
X90883390Y-121666666D02*
X90931009Y-121714285D01*
X90931009Y-121714285D02*
X90978628Y-121809523D01*
X90978628Y-121809523D02*
X90978628Y-122190475D01*
X90454819Y-121333332D02*
X91454819Y-120999999D01*
X91454819Y-120999999D02*
X90454819Y-120666666D01*
X90883390Y-120190475D02*
X90835771Y-120285713D01*
X90835771Y-120285713D02*
X90788152Y-120333332D01*
X90788152Y-120333332D02*
X90692914Y-120380951D01*
X90692914Y-120380951D02*
X90645295Y-120380951D01*
X90645295Y-120380951D02*
X90550057Y-120333332D01*
X90550057Y-120333332D02*
X90502438Y-120285713D01*
X90502438Y-120285713D02*
X90454819Y-120190475D01*
X90454819Y-120190475D02*
X90454819Y-119999999D01*
X90454819Y-119999999D02*
X90502438Y-119904761D01*
X90502438Y-119904761D02*
X90550057Y-119857142D01*
X90550057Y-119857142D02*
X90645295Y-119809523D01*
X90645295Y-119809523D02*
X90692914Y-119809523D01*
X90692914Y-119809523D02*
X90788152Y-119857142D01*
X90788152Y-119857142D02*
X90835771Y-119904761D01*
X90835771Y-119904761D02*
X90883390Y-119999999D01*
X90883390Y-119999999D02*
X90883390Y-120190475D01*
X90883390Y-120190475D02*
X90931009Y-120285713D01*
X90931009Y-120285713D02*
X90978628Y-120333332D01*
X90978628Y-120333332D02*
X91073866Y-120380951D01*
X91073866Y-120380951D02*
X91264342Y-120380951D01*
X91264342Y-120380951D02*
X91359580Y-120333332D01*
X91359580Y-120333332D02*
X91407200Y-120285713D01*
X91407200Y-120285713D02*
X91454819Y-120190475D01*
X91454819Y-120190475D02*
X91454819Y-119999999D01*
X91454819Y-119999999D02*
X91407200Y-119904761D01*
X91407200Y-119904761D02*
X91359580Y-119857142D01*
X91359580Y-119857142D02*
X91264342Y-119809523D01*
X91264342Y-119809523D02*
X91073866Y-119809523D01*
X91073866Y-119809523D02*
X90978628Y-119857142D01*
X90978628Y-119857142D02*
X90931009Y-119904761D01*
X90931009Y-119904761D02*
X90883390Y-119999999D01*
X90883390Y-119238094D02*
X90835771Y-119333332D01*
X90835771Y-119333332D02*
X90788152Y-119380951D01*
X90788152Y-119380951D02*
X90692914Y-119428570D01*
X90692914Y-119428570D02*
X90645295Y-119428570D01*
X90645295Y-119428570D02*
X90550057Y-119380951D01*
X90550057Y-119380951D02*
X90502438Y-119333332D01*
X90502438Y-119333332D02*
X90454819Y-119238094D01*
X90454819Y-119238094D02*
X90454819Y-119047618D01*
X90454819Y-119047618D02*
X90502438Y-118952380D01*
X90502438Y-118952380D02*
X90550057Y-118904761D01*
X90550057Y-118904761D02*
X90645295Y-118857142D01*
X90645295Y-118857142D02*
X90692914Y-118857142D01*
X90692914Y-118857142D02*
X90788152Y-118904761D01*
X90788152Y-118904761D02*
X90835771Y-118952380D01*
X90835771Y-118952380D02*
X90883390Y-119047618D01*
X90883390Y-119047618D02*
X90883390Y-119238094D01*
X90883390Y-119238094D02*
X90931009Y-119333332D01*
X90931009Y-119333332D02*
X90978628Y-119380951D01*
X90978628Y-119380951D02*
X91073866Y-119428570D01*
X91073866Y-119428570D02*
X91264342Y-119428570D01*
X91264342Y-119428570D02*
X91359580Y-119380951D01*
X91359580Y-119380951D02*
X91407200Y-119333332D01*
X91407200Y-119333332D02*
X91454819Y-119238094D01*
X91454819Y-119238094D02*
X91454819Y-119047618D01*
X91454819Y-119047618D02*
X91407200Y-118952380D01*
X91407200Y-118952380D02*
X91359580Y-118904761D01*
X91359580Y-118904761D02*
X91264342Y-118857142D01*
X91264342Y-118857142D02*
X91073866Y-118857142D01*
X91073866Y-118857142D02*
X90978628Y-118904761D01*
X90978628Y-118904761D02*
X90931009Y-118952380D01*
X90931009Y-118952380D02*
X90883390Y-119047618D01*
X90454819Y-118523808D02*
X90454819Y-117857142D01*
X90454819Y-117857142D02*
X91454819Y-118285713D01*
X90454819Y-117571427D02*
X90454819Y-116952380D01*
X90454819Y-116952380D02*
X90835771Y-117285713D01*
X90835771Y-117285713D02*
X90835771Y-117142856D01*
X90835771Y-117142856D02*
X90883390Y-117047618D01*
X90883390Y-117047618D02*
X90931009Y-116999999D01*
X90931009Y-116999999D02*
X91026247Y-116952380D01*
X91026247Y-116952380D02*
X91264342Y-116952380D01*
X91264342Y-116952380D02*
X91359580Y-116999999D01*
X91359580Y-116999999D02*
X91407200Y-117047618D01*
X91407200Y-117047618D02*
X91454819Y-117142856D01*
X91454819Y-117142856D02*
X91454819Y-117428570D01*
X91454819Y-117428570D02*
X91407200Y-117523808D01*
X91407200Y-117523808D02*
X91359580Y-117571427D01*
X91454819Y-116523808D02*
X90454819Y-116523808D01*
X90931009Y-116523808D02*
X90931009Y-115952380D01*
X91454819Y-115952380D02*
X90454819Y-115952380D01*
X91454819Y-115476189D02*
X90454819Y-115476189D01*
X90454819Y-115476189D02*
X90454819Y-115095237D01*
X90454819Y-115095237D02*
X90502438Y-114999999D01*
X90502438Y-114999999D02*
X90550057Y-114952380D01*
X90550057Y-114952380D02*
X90645295Y-114904761D01*
X90645295Y-114904761D02*
X90788152Y-114904761D01*
X90788152Y-114904761D02*
X90883390Y-114952380D01*
X90883390Y-114952380D02*
X90931009Y-114999999D01*
X90931009Y-114999999D02*
X90978628Y-115095237D01*
X90978628Y-115095237D02*
X90978628Y-115476189D01*
X90454819Y-114571427D02*
X91454819Y-114333332D01*
X91454819Y-114333332D02*
X90740533Y-114142856D01*
X90740533Y-114142856D02*
X91454819Y-113952380D01*
X91454819Y-113952380D02*
X90454819Y-113714285D01*
X91454819Y-113333332D02*
X90454819Y-113333332D01*
X90454819Y-113333332D02*
X90454819Y-112952380D01*
X90454819Y-112952380D02*
X90502438Y-112857142D01*
X90502438Y-112857142D02*
X90550057Y-112809523D01*
X90550057Y-112809523D02*
X90645295Y-112761904D01*
X90645295Y-112761904D02*
X90788152Y-112761904D01*
X90788152Y-112761904D02*
X90883390Y-112809523D01*
X90883390Y-112809523D02*
X90931009Y-112857142D01*
X90931009Y-112857142D02*
X90978628Y-112952380D01*
X90978628Y-112952380D02*
X90978628Y-113333332D01*
X91454819Y-111761904D02*
X90978628Y-112095237D01*
X91454819Y-112333332D02*
X90454819Y-112333332D01*
X90454819Y-112333332D02*
X90454819Y-111952380D01*
X90454819Y-111952380D02*
X90502438Y-111857142D01*
X90502438Y-111857142D02*
X90550057Y-111809523D01*
X90550057Y-111809523D02*
X90645295Y-111761904D01*
X90645295Y-111761904D02*
X90788152Y-111761904D01*
X90788152Y-111761904D02*
X90883390Y-111809523D01*
X90883390Y-111809523D02*
X90931009Y-111857142D01*
X90931009Y-111857142D02*
X90978628Y-111952380D01*
X90978628Y-111952380D02*
X90978628Y-112333332D01*
X91550057Y-110666666D02*
X91502438Y-110761904D01*
X91502438Y-110761904D02*
X91407200Y-110857142D01*
X91407200Y-110857142D02*
X91264342Y-110999999D01*
X91264342Y-110999999D02*
X91216723Y-111095237D01*
X91216723Y-111095237D02*
X91216723Y-111190475D01*
X91454819Y-111142856D02*
X91407200Y-111238094D01*
X91407200Y-111238094D02*
X91311961Y-111333332D01*
X91311961Y-111333332D02*
X91121485Y-111380951D01*
X91121485Y-111380951D02*
X90788152Y-111380951D01*
X90788152Y-111380951D02*
X90597676Y-111333332D01*
X90597676Y-111333332D02*
X90502438Y-111238094D01*
X90502438Y-111238094D02*
X90454819Y-111142856D01*
X90454819Y-111142856D02*
X90454819Y-110952380D01*
X90454819Y-110952380D02*
X90502438Y-110857142D01*
X90502438Y-110857142D02*
X90597676Y-110761904D01*
X90597676Y-110761904D02*
X90788152Y-110714285D01*
X90788152Y-110714285D02*
X91121485Y-110714285D01*
X91121485Y-110714285D02*
X91311961Y-110761904D01*
X91311961Y-110761904D02*
X91407200Y-110857142D01*
X91407200Y-110857142D02*
X91454819Y-110952380D01*
X91454819Y-110952380D02*
X91454819Y-111142856D01*
X91454819Y-109761904D02*
X91454819Y-110333332D01*
X91454819Y-110047618D02*
X90454819Y-110047618D01*
X90454819Y-110047618D02*
X90597676Y-110142856D01*
X90597676Y-110142856D02*
X90692914Y-110238094D01*
X90692914Y-110238094D02*
X90740533Y-110333332D01*
X118738095Y-134454819D02*
X118738095Y-133454819D01*
X118738095Y-133931009D02*
X119309523Y-133931009D01*
X119309523Y-134454819D02*
X119309523Y-133454819D01*
X120214285Y-133788152D02*
X120214285Y-134454819D01*
X119976190Y-133407200D02*
X119738095Y-134121485D01*
X119738095Y-134121485D02*
X120357142Y-134121485D01*
X118738095Y-44454819D02*
X118738095Y-43454819D01*
X118738095Y-43931009D02*
X119309523Y-43931009D01*
X119309523Y-44454819D02*
X119309523Y-43454819D01*
X120309523Y-44454819D02*
X119738095Y-44454819D01*
X120023809Y-44454819D02*
X120023809Y-43454819D01*
X120023809Y-43454819D02*
X119928571Y-43597676D01*
X119928571Y-43597676D02*
X119833333Y-43692914D01*
X119833333Y-43692914D02*
X119738095Y-43740533D01*
D12*
X75624318Y-90437381D02*
X74354318Y-90437381D01*
X74354318Y-90437381D02*
X74354318Y-90135000D01*
X74354318Y-90135000D02*
X74414794Y-89953571D01*
X74414794Y-89953571D02*
X74535746Y-89832619D01*
X74535746Y-89832619D02*
X74656699Y-89772142D01*
X74656699Y-89772142D02*
X74898603Y-89711666D01*
X74898603Y-89711666D02*
X75080032Y-89711666D01*
X75080032Y-89711666D02*
X75321937Y-89772142D01*
X75321937Y-89772142D02*
X75442889Y-89832619D01*
X75442889Y-89832619D02*
X75563842Y-89953571D01*
X75563842Y-89953571D02*
X75624318Y-90135000D01*
X75624318Y-90135000D02*
X75624318Y-90437381D01*
X74475270Y-89227857D02*
X74414794Y-89167381D01*
X74414794Y-89167381D02*
X74354318Y-89046428D01*
X74354318Y-89046428D02*
X74354318Y-88744047D01*
X74354318Y-88744047D02*
X74414794Y-88623095D01*
X74414794Y-88623095D02*
X74475270Y-88562619D01*
X74475270Y-88562619D02*
X74596222Y-88502142D01*
X74596222Y-88502142D02*
X74717175Y-88502142D01*
X74717175Y-88502142D02*
X74898603Y-88562619D01*
X74898603Y-88562619D02*
X75624318Y-89288333D01*
X75624318Y-89288333D02*
X75624318Y-88502142D01*
D10*
X77816666Y-76047149D02*
X77650000Y-75809054D01*
X77530952Y-76047149D02*
X77530952Y-75547149D01*
X77530952Y-75547149D02*
X77721428Y-75547149D01*
X77721428Y-75547149D02*
X77769047Y-75570959D01*
X77769047Y-75570959D02*
X77792857Y-75594768D01*
X77792857Y-75594768D02*
X77816666Y-75642387D01*
X77816666Y-75642387D02*
X77816666Y-75713816D01*
X77816666Y-75713816D02*
X77792857Y-75761435D01*
X77792857Y-75761435D02*
X77769047Y-75785244D01*
X77769047Y-75785244D02*
X77721428Y-75809054D01*
X77721428Y-75809054D02*
X77530952Y-75809054D01*
X78054762Y-76047149D02*
X78150000Y-76047149D01*
X78150000Y-76047149D02*
X78197619Y-76023340D01*
X78197619Y-76023340D02*
X78221428Y-75999530D01*
X78221428Y-75999530D02*
X78269047Y-75928101D01*
X78269047Y-75928101D02*
X78292857Y-75832863D01*
X78292857Y-75832863D02*
X78292857Y-75642387D01*
X78292857Y-75642387D02*
X78269047Y-75594768D01*
X78269047Y-75594768D02*
X78245238Y-75570959D01*
X78245238Y-75570959D02*
X78197619Y-75547149D01*
X78197619Y-75547149D02*
X78102381Y-75547149D01*
X78102381Y-75547149D02*
X78054762Y-75570959D01*
X78054762Y-75570959D02*
X78030952Y-75594768D01*
X78030952Y-75594768D02*
X78007143Y-75642387D01*
X78007143Y-75642387D02*
X78007143Y-75761435D01*
X78007143Y-75761435D02*
X78030952Y-75809054D01*
X78030952Y-75809054D02*
X78054762Y-75832863D01*
X78054762Y-75832863D02*
X78102381Y-75856673D01*
X78102381Y-75856673D02*
X78197619Y-75856673D01*
X78197619Y-75856673D02*
X78245238Y-75832863D01*
X78245238Y-75832863D02*
X78269047Y-75809054D01*
X78269047Y-75809054D02*
X78292857Y-75761435D01*
X68078571Y-76047149D02*
X67911905Y-75809054D01*
X67792857Y-76047149D02*
X67792857Y-75547149D01*
X67792857Y-75547149D02*
X67983333Y-75547149D01*
X67983333Y-75547149D02*
X68030952Y-75570959D01*
X68030952Y-75570959D02*
X68054762Y-75594768D01*
X68054762Y-75594768D02*
X68078571Y-75642387D01*
X68078571Y-75642387D02*
X68078571Y-75713816D01*
X68078571Y-75713816D02*
X68054762Y-75761435D01*
X68054762Y-75761435D02*
X68030952Y-75785244D01*
X68030952Y-75785244D02*
X67983333Y-75809054D01*
X67983333Y-75809054D02*
X67792857Y-75809054D01*
X68554762Y-76047149D02*
X68269048Y-76047149D01*
X68411905Y-76047149D02*
X68411905Y-75547149D01*
X68411905Y-75547149D02*
X68364286Y-75618578D01*
X68364286Y-75618578D02*
X68316667Y-75666197D01*
X68316667Y-75666197D02*
X68269048Y-75690006D01*
X68745238Y-75594768D02*
X68769047Y-75570959D01*
X68769047Y-75570959D02*
X68816666Y-75547149D01*
X68816666Y-75547149D02*
X68935714Y-75547149D01*
X68935714Y-75547149D02*
X68983333Y-75570959D01*
X68983333Y-75570959D02*
X69007142Y-75594768D01*
X69007142Y-75594768D02*
X69030952Y-75642387D01*
X69030952Y-75642387D02*
X69030952Y-75690006D01*
X69030952Y-75690006D02*
X69007142Y-75761435D01*
X69007142Y-75761435D02*
X68721428Y-76047149D01*
X68721428Y-76047149D02*
X69030952Y-76047149D01*
X64078571Y-70999530D02*
X64054762Y-71023340D01*
X64054762Y-71023340D02*
X63983333Y-71047149D01*
X63983333Y-71047149D02*
X63935714Y-71047149D01*
X63935714Y-71047149D02*
X63864286Y-71023340D01*
X63864286Y-71023340D02*
X63816667Y-70975720D01*
X63816667Y-70975720D02*
X63792857Y-70928101D01*
X63792857Y-70928101D02*
X63769048Y-70832863D01*
X63769048Y-70832863D02*
X63769048Y-70761435D01*
X63769048Y-70761435D02*
X63792857Y-70666197D01*
X63792857Y-70666197D02*
X63816667Y-70618578D01*
X63816667Y-70618578D02*
X63864286Y-70570959D01*
X63864286Y-70570959D02*
X63935714Y-70547149D01*
X63935714Y-70547149D02*
X63983333Y-70547149D01*
X63983333Y-70547149D02*
X64054762Y-70570959D01*
X64054762Y-70570959D02*
X64078571Y-70594768D01*
X64554762Y-71047149D02*
X64269048Y-71047149D01*
X64411905Y-71047149D02*
X64411905Y-70547149D01*
X64411905Y-70547149D02*
X64364286Y-70618578D01*
X64364286Y-70618578D02*
X64316667Y-70666197D01*
X64316667Y-70666197D02*
X64269048Y-70690006D01*
X64792857Y-71047149D02*
X64888095Y-71047149D01*
X64888095Y-71047149D02*
X64935714Y-71023340D01*
X64935714Y-71023340D02*
X64959523Y-70999530D01*
X64959523Y-70999530D02*
X65007142Y-70928101D01*
X65007142Y-70928101D02*
X65030952Y-70832863D01*
X65030952Y-70832863D02*
X65030952Y-70642387D01*
X65030952Y-70642387D02*
X65007142Y-70594768D01*
X65007142Y-70594768D02*
X64983333Y-70570959D01*
X64983333Y-70570959D02*
X64935714Y-70547149D01*
X64935714Y-70547149D02*
X64840476Y-70547149D01*
X64840476Y-70547149D02*
X64792857Y-70570959D01*
X64792857Y-70570959D02*
X64769047Y-70594768D01*
X64769047Y-70594768D02*
X64745238Y-70642387D01*
X64745238Y-70642387D02*
X64745238Y-70761435D01*
X64745238Y-70761435D02*
X64769047Y-70809054D01*
X64769047Y-70809054D02*
X64792857Y-70832863D01*
X64792857Y-70832863D02*
X64840476Y-70856673D01*
X64840476Y-70856673D02*
X64935714Y-70856673D01*
X64935714Y-70856673D02*
X64983333Y-70832863D01*
X64983333Y-70832863D02*
X65007142Y-70809054D01*
X65007142Y-70809054D02*
X65030952Y-70761435D01*
D12*
X68538333Y-114429318D02*
X67933571Y-114429318D01*
X67933571Y-114429318D02*
X67933571Y-113159318D01*
X69626905Y-114429318D02*
X68901190Y-114429318D01*
X69264047Y-114429318D02*
X69264047Y-113159318D01*
X69264047Y-113159318D02*
X69143095Y-113340746D01*
X69143095Y-113340746D02*
X69022143Y-113461699D01*
X69022143Y-113461699D02*
X68901190Y-113522175D01*
D11*
X58978095Y-134654819D02*
X58978095Y-133654819D01*
X58978095Y-134131009D02*
X59549523Y-134131009D01*
X59549523Y-134654819D02*
X59549523Y-133654819D01*
X59930476Y-133654819D02*
X60549523Y-133654819D01*
X60549523Y-133654819D02*
X60216190Y-134035771D01*
X60216190Y-134035771D02*
X60359047Y-134035771D01*
X60359047Y-134035771D02*
X60454285Y-134083390D01*
X60454285Y-134083390D02*
X60501904Y-134131009D01*
X60501904Y-134131009D02*
X60549523Y-134226247D01*
X60549523Y-134226247D02*
X60549523Y-134464342D01*
X60549523Y-134464342D02*
X60501904Y-134559580D01*
X60501904Y-134559580D02*
X60454285Y-134607200D01*
X60454285Y-134607200D02*
X60359047Y-134654819D01*
X60359047Y-134654819D02*
X60073333Y-134654819D01*
X60073333Y-134654819D02*
X59978095Y-134607200D01*
X59978095Y-134607200D02*
X59930476Y-134559580D01*
X55824819Y-65861904D02*
X55824819Y-65290476D01*
X56824819Y-65576190D02*
X55824819Y-65576190D01*
X56824819Y-64957142D02*
X55824819Y-64957142D01*
X55824819Y-64957142D02*
X55824819Y-64576190D01*
X55824819Y-64576190D02*
X55872438Y-64480952D01*
X55872438Y-64480952D02*
X55920057Y-64433333D01*
X55920057Y-64433333D02*
X56015295Y-64385714D01*
X56015295Y-64385714D02*
X56158152Y-64385714D01*
X56158152Y-64385714D02*
X56253390Y-64433333D01*
X56253390Y-64433333D02*
X56301009Y-64480952D01*
X56301009Y-64480952D02*
X56348628Y-64576190D01*
X56348628Y-64576190D02*
X56348628Y-64957142D01*
X55920057Y-64004761D02*
X55872438Y-63957142D01*
X55872438Y-63957142D02*
X55824819Y-63861904D01*
X55824819Y-63861904D02*
X55824819Y-63623809D01*
X55824819Y-63623809D02*
X55872438Y-63528571D01*
X55872438Y-63528571D02*
X55920057Y-63480952D01*
X55920057Y-63480952D02*
X56015295Y-63433333D01*
X56015295Y-63433333D02*
X56110533Y-63433333D01*
X56110533Y-63433333D02*
X56253390Y-63480952D01*
X56253390Y-63480952D02*
X56824819Y-64052380D01*
X56824819Y-64052380D02*
X56824819Y-63433333D01*
D10*
X72578571Y-76047149D02*
X72411905Y-75809054D01*
X72292857Y-76047149D02*
X72292857Y-75547149D01*
X72292857Y-75547149D02*
X72483333Y-75547149D01*
X72483333Y-75547149D02*
X72530952Y-75570959D01*
X72530952Y-75570959D02*
X72554762Y-75594768D01*
X72554762Y-75594768D02*
X72578571Y-75642387D01*
X72578571Y-75642387D02*
X72578571Y-75713816D01*
X72578571Y-75713816D02*
X72554762Y-75761435D01*
X72554762Y-75761435D02*
X72530952Y-75785244D01*
X72530952Y-75785244D02*
X72483333Y-75809054D01*
X72483333Y-75809054D02*
X72292857Y-75809054D01*
X73054762Y-76047149D02*
X72769048Y-76047149D01*
X72911905Y-76047149D02*
X72911905Y-75547149D01*
X72911905Y-75547149D02*
X72864286Y-75618578D01*
X72864286Y-75618578D02*
X72816667Y-75666197D01*
X72816667Y-75666197D02*
X72769048Y-75690006D01*
X73530952Y-76047149D02*
X73245238Y-76047149D01*
X73388095Y-76047149D02*
X73388095Y-75547149D01*
X73388095Y-75547149D02*
X73340476Y-75618578D01*
X73340476Y-75618578D02*
X73292857Y-75666197D01*
X73292857Y-75666197D02*
X73245238Y-75690006D01*
D13*
X103322500Y-119895000D02*
X105322500Y-119895000D01*
X105322500Y-121145000D01*
X103322500Y-121145000D01*
X103322500Y-119895000D01*
X77665000Y-66387500D02*
X76415000Y-66387500D01*
X76415000Y-68387500D01*
X77665000Y-68387500D01*
X77665000Y-66387500D01*
X74180000Y-111060000D02*
X76180000Y-111060000D01*
X74180000Y-112310000D02*
X74180000Y-111060000D01*
X75530000Y-111060000D02*
X76180000Y-111710000D01*
X76180000Y-111060000D02*
X76180000Y-112310000D01*
X76180000Y-112310000D02*
X74180000Y-112310000D01*
X109175000Y-123927500D02*
X110425000Y-123927500D01*
X110425000Y-121927500D01*
X109175000Y-121927500D01*
X109175000Y-123927500D01*
X119850000Y-76160000D02*
X122390000Y-76160000D01*
X119850000Y-95845000D02*
X119850000Y-76160000D01*
X120485000Y-96480000D02*
X119850000Y-95845000D01*
X122390000Y-76160000D02*
X122390000Y-96480000D01*
X122390000Y-96480000D02*
X120485000Y-96480000D01*
X91395000Y-51675000D02*
X90145000Y-51675000D01*
X90145000Y-53675000D01*
X91395000Y-53675000D01*
X91395000Y-51675000D01*
X61315000Y-63660000D02*
X62565000Y-63660000D01*
X62565000Y-61660000D01*
X61315000Y-61660000D01*
X61315000Y-63660000D01*
X94695000Y-105395000D02*
X92695000Y-105395000D01*
X92695000Y-104145000D01*
X94695000Y-104145000D01*
X94695000Y-105395000D01*
X68900000Y-81650000D02*
X72100000Y-81650000D01*
X68900000Y-83350000D02*
X68900000Y-81650000D01*
X72100000Y-81650000D02*
X72100000Y-83350000D01*
X72100000Y-83350000D02*
X68900000Y-83350000D01*
X57875000Y-87440000D02*
X58375000Y-86940000D01*
X57875000Y-92480000D02*
X57875000Y-87440000D01*
X58375000Y-86940000D02*
X58375000Y-92480000D01*
X58375000Y-86940000D02*
X64075000Y-86940000D01*
X61675000Y-89274000D02*
X60141000Y-87740000D01*
X61675000Y-91814000D02*
X60141000Y-90280000D01*
X61809000Y-89140000D02*
X60275000Y-87606000D01*
X61809000Y-91680000D02*
X60275000Y-90146000D01*
X63675000Y-86940000D02*
X63675000Y-92480000D01*
X64075000Y-86940000D02*
X64075000Y-92480000D01*
X64075000Y-92480000D02*
X57875000Y-92480000D01*
X62075000Y-88440000D02*
G75*
G02*
X59875000Y-88440000I-1100000J0D01*
G01*
X59875000Y-88440000D02*
G75*
G02*
X62075000Y-88440000I1100000J0D01*
G01*
X62075000Y-90980000D02*
G75*
G02*
X59875000Y-90980000I-1100000J0D01*
G01*
X59875000Y-90980000D02*
G75*
G02*
X62075000Y-90980000I1100000J0D01*
G01*
D14*
X98740000Y-58750000D02*
X106640000Y-58750000D01*
X98740000Y-63250000D02*
X98740000Y-58750000D01*
X98740000Y-63250000D02*
X106640000Y-63250000D01*
X106640000Y-63250000D02*
X106640000Y-58750000D01*
D15*
X98805000Y-65440000D02*
G75*
G02*
X98605000Y-65440000I-100000J0D01*
G01*
X98605000Y-65440000D02*
G75*
G02*
X98805000Y-65440000I100000J0D01*
G01*
D13*
X102500000Y-104875000D02*
X104500000Y-104875000D01*
X104500000Y-106125000D01*
X102500000Y-106125000D01*
X102500000Y-104875000D01*
X107125000Y-109537500D02*
X105875000Y-109537500D01*
X105875000Y-111537500D01*
X107125000Y-111537500D01*
X107125000Y-109537500D01*
X119850000Y-100240000D02*
X122390000Y-100240000D01*
X119850000Y-104685000D02*
X119850000Y-100240000D01*
X120485000Y-105320000D02*
X119850000Y-104685000D01*
X122390000Y-100240000D02*
X122390000Y-105320000D01*
X122390000Y-105320000D02*
X120485000Y-105320000D01*
X97382500Y-55845000D02*
X95382500Y-55845000D01*
X95382500Y-54595000D01*
X97382500Y-54595000D01*
X97382500Y-55845000D01*
X105962500Y-125075000D02*
X103962500Y-125075000D01*
X103962500Y-123825000D01*
X105962500Y-123825000D01*
X105962500Y-125075000D01*
X82110000Y-51580000D02*
X82110000Y-56530000D01*
X82110000Y-56530000D02*
X88710000Y-56530000D01*
X83760000Y-49930000D02*
X82110000Y-51580000D01*
X87060000Y-49930000D02*
X83760000Y-49930000D01*
X88710000Y-51580000D02*
X87060000Y-49930000D01*
X88710000Y-56530000D02*
X88710000Y-51580000D01*
X76252500Y-105200000D02*
X74252500Y-105200000D01*
X74252500Y-103950000D01*
X76252500Y-103950000D01*
X76252500Y-105200000D01*
X97770000Y-131280000D02*
X103310000Y-131280000D01*
X97770000Y-131680000D02*
X103310000Y-131680000D01*
X97770000Y-136980000D02*
X97770000Y-131280000D01*
X97770000Y-136980000D02*
X103310000Y-136980000D01*
X98270000Y-137480000D02*
X97770000Y-136980000D01*
X99970000Y-133546000D02*
X98436000Y-135080000D01*
X100104000Y-133680000D02*
X98570000Y-135214000D01*
X102510000Y-133546000D02*
X100976000Y-135080000D01*
X102644000Y-133680000D02*
X101110000Y-135214000D01*
X103310000Y-131280000D02*
X103310000Y-137480000D01*
X103310000Y-137480000D02*
X98270000Y-137480000D01*
X100370000Y-134380000D02*
G75*
G02*
X98170000Y-134380000I-1100000J0D01*
G01*
X98170000Y-134380000D02*
G75*
G02*
X100370000Y-134380000I1100000J0D01*
G01*
X102910000Y-134380000D02*
G75*
G02*
X100710000Y-134380000I-1100000J0D01*
G01*
X100710000Y-134380000D02*
G75*
G02*
X102910000Y-134380000I1100000J0D01*
G01*
X76900000Y-70695000D02*
X78900000Y-70695000D01*
X78900000Y-71945000D01*
X76900000Y-71945000D01*
X76900000Y-70695000D01*
X76142500Y-115810000D02*
X74142500Y-115810000D01*
X74142500Y-114560000D01*
X76142500Y-114560000D01*
X76142500Y-115810000D01*
X94695000Y-109395000D02*
X92695000Y-109395000D01*
X92695000Y-108145000D01*
X94695000Y-108145000D01*
X94695000Y-109395000D01*
X93812500Y-51325000D02*
X95812500Y-51325000D01*
X95812500Y-52575000D01*
X93812500Y-52575000D01*
X93812500Y-51325000D01*
X64625000Y-56800000D02*
X65875000Y-56800000D01*
X65875000Y-54800000D01*
X64625000Y-54800000D01*
X64625000Y-56800000D01*
X61195000Y-56832500D02*
X62445000Y-56832500D01*
X62445000Y-54832500D01*
X61195000Y-54832500D01*
X61195000Y-56832500D01*
X107040000Y-54575000D02*
X109040000Y-54575000D01*
X109040000Y-55825000D01*
X107040000Y-55825000D01*
X107040000Y-54575000D01*
D14*
X95900000Y-112950000D02*
X95900000Y-117450000D01*
X103800000Y-112950000D02*
X95900000Y-112950000D01*
X103800000Y-112950000D02*
X103800000Y-117450000D01*
X103800000Y-117450000D02*
X95900000Y-117450000D01*
D15*
X103935000Y-110760000D02*
G75*
G02*
X103735000Y-110760000I-100000J0D01*
G01*
X103735000Y-110760000D02*
G75*
G02*
X103935000Y-110760000I100000J0D01*
G01*
D13*
X98165000Y-66237500D02*
X96915000Y-66237500D01*
X96915000Y-68237500D01*
X98165000Y-68237500D01*
X98165000Y-66237500D01*
X76252500Y-107850000D02*
X74252500Y-107850000D01*
X74252500Y-106600000D01*
X76252500Y-106600000D01*
X76252500Y-107850000D01*
X72000000Y-87350000D02*
X78100000Y-87350000D01*
X72000000Y-91650000D02*
X72000000Y-87350000D01*
X78100000Y-87350000D02*
X78100000Y-91650000D01*
X78100000Y-91650000D02*
X72000000Y-91650000D01*
X76900000Y-75195000D02*
X78900000Y-75195000D01*
X78900000Y-76445000D01*
X76900000Y-76445000D01*
X76900000Y-75195000D01*
X94962500Y-121395000D02*
X92962500Y-121395000D01*
X92962500Y-120145000D01*
X94962500Y-120145000D01*
X94962500Y-121395000D01*
X74250000Y-98730000D02*
X76250000Y-98730000D01*
X76250000Y-99980000D01*
X74250000Y-99980000D01*
X74250000Y-98730000D01*
X107040000Y-66075000D02*
X109040000Y-66075000D01*
X109040000Y-67325000D01*
X107040000Y-67325000D01*
X107040000Y-66075000D01*
X69400000Y-76445000D02*
X67400000Y-76445000D01*
X67400000Y-75195000D01*
X69400000Y-75195000D01*
X69400000Y-76445000D01*
X63400000Y-70195000D02*
X65400000Y-70195000D01*
X65400000Y-71445000D01*
X63400000Y-71445000D01*
X63400000Y-70195000D01*
X73417500Y-55975000D02*
X75417500Y-55975000D01*
X75417500Y-57225000D01*
X73417500Y-57225000D01*
X73417500Y-55975000D01*
X67500000Y-112855000D02*
X70000000Y-112855000D01*
X67500000Y-114855000D02*
X67500000Y-112855000D01*
X70000000Y-112855000D02*
X70000000Y-114855000D01*
X70000000Y-114855000D02*
X67500000Y-114855000D01*
X97480000Y-40320000D02*
X102520000Y-40320000D01*
X97480000Y-46520000D02*
X97480000Y-40320000D01*
X98146000Y-44120000D02*
X99680000Y-42586000D01*
X98280000Y-44254000D02*
X99814000Y-42720000D01*
X100686000Y-44120000D02*
X102220000Y-42586000D01*
X100820000Y-44254000D02*
X102354000Y-42720000D01*
X102520000Y-40320000D02*
X103020000Y-40820000D01*
X103020000Y-40820000D02*
X97480000Y-40820000D01*
X103020000Y-40820000D02*
X103020000Y-46520000D01*
X103020000Y-46120000D02*
X97480000Y-46120000D01*
X103020000Y-46520000D02*
X97480000Y-46520000D01*
X100080000Y-43420000D02*
G75*
G02*
X97880000Y-43420000I-1100000J0D01*
G01*
X97880000Y-43420000D02*
G75*
G02*
X100080000Y-43420000I1100000J0D01*
G01*
X102620000Y-43420000D02*
G75*
G02*
X100420000Y-43420000I-1100000J0D01*
G01*
X100420000Y-43420000D02*
G75*
G02*
X102620000Y-43420000I1100000J0D01*
G01*
X76210000Y-102600000D02*
X74210000Y-102600000D01*
X74210000Y-101350000D01*
X76210000Y-101350000D01*
X76210000Y-102600000D01*
X64260000Y-60240000D02*
X74420000Y-60240000D01*
X64260000Y-66840000D02*
X64260000Y-60240000D01*
X65530000Y-66840000D02*
X64260000Y-65570000D01*
X74420000Y-60240000D02*
X74420000Y-66840000D01*
X74420000Y-66840000D02*
X64260000Y-66840000D01*
X97500000Y-70575000D02*
X99500000Y-70575000D01*
X99500000Y-71825000D01*
X97500000Y-71825000D01*
X97500000Y-70575000D01*
X73512500Y-96125000D02*
X71512500Y-96125000D01*
X71512500Y-94875000D01*
X73512500Y-94875000D01*
X73512500Y-96125000D01*
X63800000Y-106305000D02*
X66700000Y-106305000D01*
X63800000Y-107905000D02*
X63800000Y-106305000D01*
X64750000Y-107905000D02*
X63800000Y-106955000D01*
X66700000Y-106305000D02*
X66700000Y-107905000D01*
X66700000Y-107905000D02*
X63800000Y-107905000D01*
X111500000Y-119010000D02*
X111500000Y-123960000D01*
X111500000Y-123960000D02*
X113150000Y-125610000D01*
X113150000Y-125610000D02*
X116450000Y-125610000D01*
X116450000Y-125610000D02*
X118100000Y-123960000D01*
X118100000Y-119010000D02*
X111500000Y-119010000D01*
X118100000Y-123960000D02*
X118100000Y-119010000D01*
X66330000Y-87715000D02*
X68830000Y-87715000D01*
X66330000Y-91515000D02*
X66330000Y-87715000D01*
X67680000Y-87715000D02*
X68830000Y-88865000D01*
X68830000Y-87715000D02*
X68830000Y-91515000D01*
X68830000Y-91515000D02*
X66330000Y-91515000D01*
X107040000Y-71575000D02*
X109040000Y-71575000D01*
X109040000Y-72825000D01*
X107040000Y-72825000D01*
X107040000Y-71575000D01*
X68287500Y-102230000D02*
X70287500Y-102230000D01*
X70287500Y-103480000D01*
X68287500Y-103480000D01*
X68287500Y-102230000D01*
X71900000Y-75195000D02*
X73900000Y-75195000D01*
X73900000Y-76445000D01*
X71900000Y-76445000D01*
X71900000Y-75195000D01*
M02*
