ISO-10303-21;
HEADER;
FILE_DESCRIPTION (( 'STEP AP214' ),
    '1' );
FILE_NAME ('U2J-Q3-24-0805DG.STEP',
    '2024-08-09T08:23:04',
    ( '' ),
    ( '' ),
    'SwSTEP 2.0',
    'SolidWorks 2021',
    '' );
FILE_SCHEMA (( 'AUTOMOTIVE_DESIGN' ));
ENDSEC;

DATA;
#1 = CIRCLE ( 'NONE', #99, 0.05000000000000002359 ) ;
#2 = EDGE_CURVE ( 'NONE', #711, #334, #706, .T. ) ;
#3 = ORIENTED_EDGE ( 'NONE', *, *, #57, .F. ) ;
#4 = DIRECTION ( 'NONE',  ( 1.734723475976807094E-16, -0.000000000000000000, -1.000000000000000000 ) ) ;
#5 = LINE ( 'NONE', #971, #451 ) ;
#6 = DIRECTION ( 'NONE',  ( 0.000000000000000000, 0.000000000000000000, 1.000000000000000000 ) ) ;
#7 = DIRECTION ( 'NONE',  ( 1.000000000000000000, -0.000000000000000000, -1.734723475976807094E-16 ) ) ;
#8 = DIRECTION ( 'NONE',  ( 0.000000000000000000, 0.000000000000000000, -1.000000000000000000 ) ) ;
#9 = DIRECTION ( 'NONE',  ( 0.000000000000000000, 1.000000000000000000, 0.000000000000000000 ) ) ;
#10 = EDGE_LOOP ( 'NONE', ( #264, #1197, #573, #452 ) ) ;
#11 = CARTESIAN_POINT ( 'NONE',  ( 0.4999999999999997780, 0.04999999999999991257, -0.5749999999999995115 ) ) ;
#12 = DIRECTION ( 'NONE',  ( 0.000000000000000000, 0.000000000000000000, -1.000000000000000000 ) ) ;
#13 = AXIS2_PLACEMENT_3D ( 'NONE', #185, #583, #577 ) ;
#14 = VERTEX_POINT ( 'NONE', #1184 ) ;
#15 = FACE_OUTER_BOUND ( 'NONE', #165, .T. ) ;
#16 = EDGE_CURVE ( 'NONE', #60, #437, #1145, .T. ) ;
#17 = VERTEX_POINT ( 'NONE', #839 ) ;
#18 = DIRECTION ( 'NONE',  ( 0.000000000000000000, -1.000000000000000000, 0.000000000000000000 ) ) ;
#19 = DIRECTION ( 'NONE',  ( -1.000000000000000000, -0.000000000000000000, -0.000000000000000000 ) ) ;
#20 = ORIENTED_EDGE ( 'NONE', *, *, #642, .T. ) ;
#21 = ORIENTED_EDGE ( 'NONE', *, *, #57, .T. ) ;
#22 = CARTESIAN_POINT ( 'NONE',  ( 0.9999999999999995559, 1.350000000000000089, 0.5750000000000003997 ) ) ;
#23 = CARTESIAN_POINT ( 'NONE',  ( 500000.0000000000582, 0.04999999999999991951, -0.6083333333767009243 ) ) ;
#24 = EDGE_CURVE ( 'NONE', #463, #14, #933, .T. ) ;
#25 = AXIS2_PLACEMENT_3D ( 'NONE', #376, #786, #283 ) ;
#26 = EDGE_CURVE ( 'NONE', #1019, #239, #1006, .T. ) ;
#27 = CLOSED_SHELL ( 'NONE', ( #519, #396, #1092, #1215, #406, #1025, #115, #442, #561, #808, #122, #813, #1038, #1138, #420, #674, #332, #939 ) ) ;
#28 = ORIENTED_EDGE ( 'NONE', *, *, #528, .T. ) ;
#29 =( LENGTH_UNIT ( ) NAMED_UNIT ( * ) SI_UNIT ( .MILLI., .METRE. ) );
#30 = EDGE_LOOP ( 'NONE', ( #248, #232, #1235, #994 ) ) ;
#31 = CARTESIAN_POINT ( 'NONE',  ( 0.000000000000000000, 1.350000000000000089, 0.5750000000000003997 ) ) ;
#32 = LINE ( 'NONE', #411, #75 ) ;
#33 = EDGE_CURVE ( 'NONE', #1109, #844, #654, .T. ) ;
#34 = PLANE ( 'NONE',  #1093 ) ;
#35 = EDGE_LOOP ( 'NONE', ( #313, #439, #1123, #675 ) ) ;
#36 = DIRECTION ( 'NONE',  ( 1.000000000000000000, 0.000000000000000000, 1.734723475976807094E-16 ) ) ;
#37 = LINE ( 'NONE', #621, #418 ) ;
#38 = DIRECTION ( 'NONE',  ( 0.000000000000000000, 0.000000000000000000, 1.000000000000000000 ) ) ;
#39 = CIRCLE ( 'NONE', #878, 0.03333333333333334675 ) ;
#40 = VERTEX_POINT ( 'NONE', #22 ) ;
#41 = AXIS2_PLACEMENT_3D ( 'NONE', #803, #188, #721 ) ;
#42 = EDGE_LOOP ( 'NONE', ( #1103, #940, #73, #850 ) ) ;
#43 = FACE_OUTER_BOUND ( 'NONE', #289, .T. ) ;
#44 = DIRECTION ( 'NONE',  ( 0.000000000000000000, 0.000000000000000000, -1.000000000000000000 ) ) ;
#45 = LINE ( 'NONE', #425, #435 ) ;
#46 = EDGE_LOOP ( 'NONE', ( #235, #460, #541 ) ) ;
#47 = UNCERTAINTY_MEASURE_WITH_UNIT (LENGTH_MEASURE( 1.000000000000000082E-05 ), #29, 'distance_accuracy_value', 'NONE');
#48 = DIRECTION ( 'NONE',  ( 0.000000000000000000, -1.000000000000000000, 0.000000000000000000 ) ) ;
#49 = ADVANCED_FACE ( 'NONE', ( #309 ), #698, .T. ) ;
#50 = ORIENTED_EDGE ( 'NONE', *, *, #982, .F. ) ;
#51 = DIRECTION ( 'NONE',  ( -1.000000000000000000, 0.000000000000000000, 0.000000000000000000 ) ) ;
#52 = CARTESIAN_POINT ( 'NONE',  ( -0.9999999999999995559, 1.350000000000000089, 0.6250000000000004441 ) ) ;
#53 = DIRECTION ( 'NONE',  ( 0.000000000000000000, -0.000000000000000000, 1.000000000000000000 ) ) ;
#54 = VECTOR ( 'NONE', #770, 1000.000000000000000 ) ;
#55 = LINE ( 'NONE', #539, #585 ) ;
#56 = ORIENTED_EDGE ( 'NONE', *, *, #612, .T. ) ;
#57 = EDGE_CURVE ( 'NONE', #1161, #1042, #606, .T. ) ;
#58 = CARTESIAN_POINT ( 'NONE',  ( -0.9999999999999995559, 0.04999999999999991257, 0.6250000000000004441 ) ) ;
#59 = CARTESIAN_POINT ( 'NONE',  ( -0.4999999999999997780, 1.399999999999999911, -0.6249999999999995559 ) ) ;
#60 = VERTEX_POINT ( 'NONE', #815 ) ;
#61 = CIRCLE ( 'NONE', #97, 0.05000000000000002359 ) ;
#62 = FACE_OUTER_BOUND ( 'NONE', #582, .T. ) ;
#63 = VECTOR ( 'NONE', #338, 1000.000000000000000 ) ;
#64 = EDGE_LOOP ( 'NONE', ( #414, #175, #170, #1277 ) ) ;
#65 = CARTESIAN_POINT ( 'NONE',  ( -0.9499999999999995115, 1.399999999999999911, 0.5750000000000003997 ) ) ;
#66 = CARTESIAN_POINT ( 'NONE',  ( 0.9999999999999995559, 1.399999999999999911, -0.6249999999999995559 ) ) ;
#67 = CARTESIAN_POINT ( 'NONE',  ( -0.9499999999999995115, 1.399999999999999911, 0.6250000000000004441 ) ) ;
#68 = EDGE_CURVE ( 'NONE', #820, #76, #397, .T. ) ;
#69 = ORIENTED_EDGE ( 'NONE', *, *, #179, .T. ) ;
#70 = DIRECTION ( 'NONE',  ( 0.000000000000000000, 0.000000000000000000, 1.000000000000000000 ) ) ;
#71 = DIRECTION ( 'NONE',  ( 0.000000000000000000, -0.000000000000000000, -1.000000000000000000 ) ) ;
#72 = EDGE_CURVE ( 'NONE', #437, #1019, #1198, .T. ) ;
#73 = ORIENTED_EDGE ( 'NONE', *, *, #499, .T. ) ;
#74 = CARTESIAN_POINT ( 'NONE',  ( 0.4999999999999995559, 1.399999999999999911, 0.6250000000000004441 ) ) ;
#75 = VECTOR ( 'NONE', #484, 1000.000000000000000 ) ;
#76 = VERTEX_POINT ( 'NONE', #717 ) ;
#77 = DIRECTION ( 'NONE',  ( 0.000000000000000000, -1.000000000000000000, 0.000000000000000000 ) ) ;
#78 = CARTESIAN_POINT ( 'NONE',  ( 500000.0000000000582, 0.04999999999999991257, -0.5750000000433674874 ) ) ;
#79 = ORIENTED_EDGE ( 'NONE', *, *, #275, .T. ) ;
#80 = EDGE_CURVE ( 'NONE', #998, #953, #708, .T. ) ;
#81 = DIRECTION ( 'NONE',  ( -1.000000000000000000, 0.000000000000000000, 0.000000000000000000 ) ) ;
#82 = AXIS2_PLACEMENT_3D ( 'NONE', #321, #822, #227 ) ;
#83 = CARTESIAN_POINT ( 'NONE',  ( 0.9499999999999995115, 0.05000000000000000278, -0.5749999999999995115 ) ) ;
#84 = EDGE_CURVE ( 'NONE', #820, #1161, #39, .T. ) ;
#85 = DIRECTION ( 'NONE',  ( 0.000000000000000000, -1.000000000000000000, 0.000000000000000000 ) ) ;
#86 = CARTESIAN_POINT ( 'NONE',  ( 0.000000000000000000, 0.000000000000000000, 0.000000000000000000 ) ) ;
#87 = LINE ( 'NONE', #1208, #1182 ) ;
#88 = ADVANCED_FACE ( 'NONE', ( #914 ), #1013, .F. ) ;
#89 =( GEOMETRIC_REPRESENTATION_CONTEXT ( 3 ) GLOBAL_UNCERTAINTY_ASSIGNED_CONTEXT ( ( #529 ) ) GLOBAL_UNIT_ASSIGNED_CONTEXT ( ( #830, #436, #746 ) ) REPRESENTATION_CONTEXT ( 'NONE', 'WORKASPACE' ) );
#90 = EDGE_LOOP ( 'NONE', ( #866, #480, #961, #1094 ) ) ;
#91 = DIRECTION ( 'NONE',  ( 1.000000000000000000, 0.000000000000000000, 0.000000000000000000 ) ) ;
#92 = CARTESIAN_POINT ( 'NONE',  ( -0.9999999999999995559, 1.399999999999999911, -0.6249999999999995559 ) ) ;
#93 = COLOUR_RGB ( '',0.4862745098039215619, 0.2352941176470588203, 0.01568627450980392135 ) ;
#94 = CARTESIAN_POINT ( 'NONE',  ( 0.9499999999999995115, 1.399999999999999911, 0.6250000000000004441 ) ) ;
#95 = ORIENTED_EDGE ( 'NONE', *, *, #528, .F. ) ;
#96 = LINE ( 'NONE', #481, #470 ) ;
#97 = AXIS2_PLACEMENT_3D ( 'NONE', #574, #1179, #1077 ) ;
#98 = DIRECTION ( 'NONE',  ( 0.000000000000000000, -1.000000000000000000, 0.000000000000000000 ) ) ;
#99 = AXIS2_PLACEMENT_3D ( 'NONE', #198, #1116, #226 ) ;
#100 = CIRCLE ( 'NONE', #1195, 0.03333333333333324267 ) ;
#101 = EDGE_LOOP ( 'NONE', ( #1140, #1202, #722, #324 ) ) ;
#102 = DIRECTION ( 'NONE',  ( 1.000000000000000000, 0.000000000000000000, 1.734723475976807094E-16 ) ) ;
#103 = DIRECTION ( 'NONE',  ( -1.000000000000000000, 0.000000000000000000, 8.673617379884036705E-17 ) ) ;
#104 = PRODUCT_DEFINITION_FORMATION_WITH_SPECIFIED_SOURCE ( 'ANY', '', #1082, .NOT_KNOWN. ) ;
#105 = EDGE_CURVE ( 'NONE', #522, #644, #889, .T. ) ;
#106 = ORIENTED_EDGE ( 'NONE', *, *, #1276, .T. ) ;
#107 = EDGE_LOOP ( 'NONE', ( #618, #261, #298, #1248 ) ) ;
#108 = DIRECTION ( 'NONE',  ( 1.000000000000000000, 0.000000000000000000, 0.000000000000000000 ) ) ;
#109 = CARTESIAN_POINT ( 'NONE',  ( 500000.0000000000582, 1.383333333333333526, -0.5750000000433674874 ) ) ;
#110 = EDGE_CURVE ( 'NONE', #17, #1264, #1091, .T. ) ;
#111 = ORIENTED_EDGE ( 'NONE', *, *, #1041, .F. ) ;
#112 = FILL_AREA_STYLE_COLOUR ( '', #265 ) ;
#113 = EDGE_CURVE ( 'NONE', #1188, #898, #725, .T. ) ;
#114 = CARTESIAN_POINT ( 'NONE',  ( 0.9499999999999995115, 1.350000000000000089, 0.5750000000000003997 ) ) ;
#115 = ADVANCED_FACE ( 'NONE', ( #1110 ), #1008, .T. ) ;
#116 = DIRECTION ( 'NONE',  ( 0.000000000000000000, 0.000000000000000000, 1.000000000000000000 ) ) ;
#117 = CIRCLE ( 'NONE', #500, 0.05000000000000002359 ) ;
#118 = VECTOR ( 'NONE', #410, 1000.000000000000000 ) ;
#119 = ORIENTED_EDGE ( 'NONE', *, *, #571, .T. ) ;
#120 = DIRECTION ( 'NONE',  ( -0.000000000000000000, -1.000000000000000000, -0.000000000000000000 ) ) ;
#121 = ORIENTED_EDGE ( 'NONE', *, *, #970, .T. ) ;
#122 = ADVANCED_FACE ( 'NONE', ( #127 ), #1217, .T. ) ;
#123 = DIRECTION ( 'NONE',  ( -1.000000000000000000, -0.000000000000000000, 8.673617379884036705E-17 ) ) ;
#124 = DIRECTION ( 'NONE',  ( 1.000000000000000000, 0.000000000000000000, -8.673617379884036705E-17 ) ) ;
#125 = FACE_OUTER_BOUND ( 'NONE', #336, .T. ) ;
#126 = ORIENTED_EDGE ( 'NONE', *, *, #1000, .T. ) ;
#127 = FACE_OUTER_BOUND ( 'NONE', #1048, .T. ) ;
#128 = DIRECTION ( 'NONE',  ( 1.000000000000000000, 0.000000000000000000, 0.000000000000000000 ) ) ;
#129 = CARTESIAN_POINT ( 'NONE',  ( 0.4999999999881765689, 1.350000000000000089, -0.6083333333333328374 ) ) ;
#130 = VERTEX_POINT ( 'NONE', #510 ) ;
#131 = CARTESIAN_POINT ( 'NONE',  ( 500000.0000000000582, 1.350000000000000089, -0.5750000000433674874 ) ) ;
#132 = CARTESIAN_POINT ( 'NONE',  ( 0.9499999999999995115, 0.04999999999999991257, 0.6250000000000004441 ) ) ;
#133 = DIRECTION ( 'NONE',  ( 0.000000000000000000, 0.000000000000000000, -1.000000000000000000 ) ) ;
#134 = AXIS2_PLACEMENT_3D ( 'NONE', #1249, #1046, #154 ) ;
#135 = LINE ( 'NONE', #841, #1142 ) ;
#136 = DIRECTION ( 'NONE',  ( 0.000000000000000000, 0.000000000000000000, -1.000000000000000000 ) ) ;
#137 = ORIENTED_EDGE ( 'NONE', *, *, #247, .T. ) ;
#138 = LINE ( 'NONE', #448, #986 ) ;
#139 = CYLINDRICAL_SURFACE ( 'NONE', #566, 0.05000000000000002359 ) ;
#140 =( LENGTH_UNIT ( ) NAMED_UNIT ( * ) SI_UNIT ( .MILLI., .METRE. ) );
#141 = ORIENTED_EDGE ( 'NONE', *, *, #1017, .F. ) ;
#142 = CARTESIAN_POINT ( 'NONE',  ( -0.9499999999999995115, 1.399999999999999911, 0.5750000000000003997 ) ) ;
#143 = FILL_AREA_STYLE_COLOUR ( '', #246 ) ;
#144 = VECTOR ( 'NONE', #719, 1000.000000000000000 ) ;
#145 = EDGE_CURVE ( 'NONE', #908, #556, #632, .T. ) ;
#146 = EDGE_LOOP ( 'NONE', ( #350, #749, #531, #768, #605, #1088, #738, #589 ) ) ;
#147 = UNCERTAINTY_MEASURE_WITH_UNIT (LENGTH_MEASURE( 1.000000000000000082E-05 ), #593, 'distance_accuracy_value', 'NONE');
#148 = CARTESIAN_POINT ( 'NONE',  ( 0.000000000000000000, 0.000000000000000000, 0.5750000000000003997 ) ) ;
#149 = EDGE_LOOP ( 'NONE', ( #564, #1018, #430, #814 ) ) ;
#150 = CARTESIAN_POINT ( 'NONE',  ( -0.9999999999999995559, 0.04999999999999991257, 0.5750000000000003997 ) ) ;
#151 = SHAPE_DEFINITION_REPRESENTATION ( #1273, #952 ) ;
#152 = PLANE ( 'NONE',  #1035 ) ;
#153 = VECTOR ( 'NONE', #478, 1000.000000000000000 ) ;
#154 = DIRECTION ( 'NONE',  ( 0.000000000000000000, -0.000000000000000000, 1.000000000000000000 ) ) ;
#155 = ORIENTED_EDGE ( 'NONE', *, *, #984, .F. ) ;
#156 = SURFACE_STYLE_USAGE ( .BOTH. , #554 ) ;
#157 = DIRECTION ( 'NONE',  ( 0.000000000000000000, 1.000000000000000000, 0.000000000000000000 ) ) ;
#158 = ORIENTED_EDGE ( 'NONE', *, *, #1130, .F. ) ;
#159 = CYLINDRICAL_SURFACE ( 'NONE', #899, 0.03333333333333324267 ) ;
#160 = AXIS2_PLACEMENT_3D ( 'NONE', #206, #729, #293 ) ;
#161 = ORIENTED_EDGE ( 'NONE', *, *, #342, .F. ) ;
#162 = CARTESIAN_POINT ( 'NONE',  ( -0.9499999999999995115, 0.04999999999999991257, -0.5749999999999995115 ) ) ;
#163 = EDGE_CURVE ( 'NONE', #978, #256, #1, .T. ) ;
#164 = CYLINDRICAL_SURFACE ( 'NONE', #1120, 0.05000000000000002359 ) ;
#165 = EDGE_LOOP ( 'NONE', ( #552, #305, #657, #428 ) ) ;
#166 = CARTESIAN_POINT ( 'NONE',  ( 0.4999999999881765689, 0.01666666666666666644, -0.5749999999999992895 ) ) ;
#167 = ORIENTED_EDGE ( 'NONE', *, *, #883, .T. ) ;
#168 = SPHERICAL_SURFACE ( 'NONE', #1010, 0.05000000000000000278 ) ;
#169 = DIRECTION ( 'NONE',  ( -1.000000000000000000, 0.000000000000000000, 0.000000000000000000 ) ) ;
#170 = ORIENTED_EDGE ( 'NONE', *, *, #1263, .F. ) ;
#171 = CYLINDRICAL_SURFACE ( 'NONE', #1004, 0.05000000000000002359 ) ;
#172 = STYLED_ITEM ( 'NONE', ( #601 ), #692 ) ;
#173 = CARTESIAN_POINT ( 'NONE',  ( 0.4999999999881765689, 0.04999999999999991951, -0.6083333333333328374 ) ) ;
#174 = ADVANCED_FACE ( 'NONE', ( #620 ), #1002, .T. ) ;
#175 = ORIENTED_EDGE ( 'NONE', *, *, #1260, .F. ) ;
#176 = DIRECTION ( 'NONE',  ( 1.000000000000000000, 0.000000000000000000, 1.734723475976807094E-16 ) ) ;
#177 = DIRECTION ( 'NONE',  ( 0.000000000000000000, 0.000000000000000000, -1.000000000000000000 ) ) ;
#178 = DIRECTION ( 'NONE',  ( 1.000000000000000000, 0.000000000000000000, 1.734723475976807094E-16 ) ) ;
#179 = EDGE_CURVE ( 'NONE', #908, #130, #1223, .T. ) ;
#180 = AXIS2_PLACEMENT_3D ( 'NONE', #906, #408, #506 ) ;
#181 = DIRECTION ( 'NONE',  ( -1.000000000000000000, -0.000000000000000000, 8.673617379884036705E-17 ) ) ;
#182 = DIRECTION ( 'NONE',  ( 0.000000000000000000, 1.000000000000000000, 0.000000000000000000 ) ) ;
#183 = CYLINDRICAL_SURFACE ( 'NONE', #852, 0.05000000000000002359 ) ;
#184 = VERTEX_POINT ( 'NONE', #440 ) ;
#185 = CARTESIAN_POINT ( 'NONE',  ( 500000.0000000000582, 1.350000000000000089, 0.5749999999566324238 ) ) ;
#186 = ORIENTED_EDGE ( 'NONE', *, *, #571, .F. ) ;
#187 = PLANE ( 'NONE',  #983 ) ;
#188 = DIRECTION ( 'NONE',  ( 0.000000000000000000, 0.000000000000000000, -1.000000000000000000 ) ) ;
#189 = AXIS2_PLACEMENT_3D ( 'NONE', #969, #182, #91 ) ;
#190 = EDGE_CURVE ( 'NONE', #14, #522, #921, .T. ) ;
#191 = VECTOR ( 'NONE', #221, 1000.000000000000000 ) ;
#192 = AXIS2_PLACEMENT_3D ( 'NONE', #1037, #331, #1233 ) ;
#193 = ORIENTED_EDGE ( 'NONE', *, *, #701, .T. ) ;
#194 = LINE ( 'NONE', #608, #367 ) ;
#195 = ADVANCED_FACE ( 'NONE', ( #1049 ), #948, .T. ) ;
#196 = FACE_OUTER_BOUND ( 'NONE', #810, .T. ) ;
#197 = ORIENTED_EDGE ( 'NONE', *, *, #893, .T. ) ;
#198 = CARTESIAN_POINT ( 'NONE',  ( 0.4999999999999997780, 1.350000000000000089, -0.5749999999999995115 ) ) ;
#199 = SURFACE_SIDE_STYLE ('',( #709 ) ) ;
#200 = PRESENTATION_LAYER_ASSIGNMENT (  '', '', ( #512 ) ) ;
#201 = ORIENTED_EDGE ( 'NONE', *, *, #426, .F. ) ;
#202 = DIRECTION ( 'NONE',  ( 1.000000000000000000, 0.000000000000000000, -8.673617379884036705E-17 ) ) ;
#203 = ADVANCED_FACE ( 'NONE', ( #455 ), #1246, .T. ) ;
#204 = CARTESIAN_POINT ( 'NONE',  ( 0.9999999999999995559, 1.399999999999999911, 0.6250000000000004441 ) ) ;
#205 = ORIENTED_EDGE ( 'NONE', *, *, #84, .T. ) ;
#206 = CARTESIAN_POINT ( 'NONE',  ( 0.9499999999999995115, 0.05000000000000000278, 0.5750000000000003997 ) ) ;
#207 = CARTESIAN_POINT ( 'NONE',  ( -0.9499999999999995115, 0.05000000000000000278, -0.5749999999999995115 ) ) ;
#208 = VECTOR ( 'NONE', #181, 1000.000000000000000 ) ;
#209 = ORIENTED_EDGE ( 'NONE', *, *, #594, .T. ) ;
#210 = DIRECTION ( 'NONE',  ( -1.000000000000000000, 0.000000000000000000, 0.000000000000000000 ) ) ;
#211 = EDGE_CURVE ( 'NONE', #1264, #578, #138, .T. ) ;
#212 = DIRECTION ( 'NONE',  ( 1.000000000000000000, 0.000000000000000000, 0.000000000000000000 ) ) ;
#213 = EDGE_LOOP ( 'NONE', ( #79, #56, #697 ) ) ;
#214 = DIRECTION ( 'NONE',  ( 1.000000000000000000, 0.000000000000000000, 1.734723475976807094E-16 ) ) ;
#215 = DIRECTION ( 'NONE',  ( 1.000000000000000000, 0.000000000000000000, 0.000000000000000000 ) ) ;
#216 = AXIS2_PLACEMENT_3D ( 'NONE', #733, #354, #960 ) ;
#217 = VECTOR ( 'NONE', #942, 1000.000000000000000 ) ;
#218 = DIRECTION ( 'NONE',  ( -1.000000000000000000, -0.000000000000000000, 8.673617379884036705E-17 ) ) ;
#219 = DIRECTION ( 'NONE',  ( 0.000000000000000000, 0.000000000000000000, 1.000000000000000000 ) ) ;
#220 = ORIENTED_EDGE ( 'NONE', *, *, #1130, .T. ) ;
#221 = DIRECTION ( 'NONE',  ( -0.000000000000000000, 1.000000000000000000, -0.000000000000000000 ) ) ;
#222 = CARTESIAN_POINT ( 'NONE',  ( 0.4999999999999997780, 1.399999999999999911, -0.6249999999999995559 ) ) ;
#223 = CYLINDRICAL_SURFACE ( 'NONE', #1266, 0.05000000000000002359 ) ;
#224 = VERTEX_POINT ( 'NONE', #744 ) ;
#225 = ORIENTED_EDGE ( 'NONE', *, *, #1080, .T. ) ;
#226 = DIRECTION ( 'NONE',  ( 0.000000000000000000, 0.000000000000000000, 1.000000000000000000 ) ) ;
#227 = DIRECTION ( 'NONE',  ( 1.000000000000000000, 0.000000000000000000, 0.000000000000000000 ) ) ;
#228 = DIRECTION ( 'NONE',  ( 0.000000000000000000, 0.000000000000000000, -1.000000000000000000 ) ) ;
#229 = VECTOR ( 'NONE', #989, 1000.000000000000000 ) ;
#230 = CARTESIAN_POINT ( 'NONE',  ( -0.4999999999999996669, 0.04999999999999991257, -0.6083333333333327264 ) ) ;
#231 = DIRECTION ( 'NONE',  ( 1.000000000000000000, -0.000000000000000000, -0.000000000000000000 ) ) ;
#232 = ORIENTED_EDGE ( 'NONE', *, *, #1253, .T. ) ;
#233 = LINE ( 'NONE', #58, #316 ) ;
#234 = DIRECTION ( 'NONE',  ( 0.000000000000000000, 0.000000000000000000, 1.000000000000000000 ) ) ;
#235 = ORIENTED_EDGE ( 'NONE', *, *, #633, .F. ) ;
#236 = LINE ( 'NONE', #788, #54 ) ;
#237 = EDGE_CURVE ( 'NONE', #936, #60, #233, .T. ) ;
#238 = VECTOR ( 'NONE', #231, 1000.000000000000000 ) ;
#239 = VERTEX_POINT ( 'NONE', #242 ) ;
#240 = LINE ( 'NONE', #843, #1257 ) ;
#241 = ORIENTED_EDGE ( 'NONE', *, *, #1031, .F. ) ;
#242 = CARTESIAN_POINT ( 'NONE',  ( -0.4999999999999997780, 0.04999999999999991257, -0.6249999999999995559 ) ) ;
#243 =( NAMED_UNIT ( * ) PLANE_ANGLE_UNIT ( ) SI_UNIT ( $, .RADIAN. ) );
#244 = CYLINDRICAL_SURFACE ( 'NONE', #468, 0.05000000000000002359 ) ;
#245 = CIRCLE ( 'NONE', #1200, 0.05000000000000002359 ) ;
#246 = COLOUR_RGB ( '',0.7921568627450980005, 0.8196078431372548767, 0.9333333333333333481 ) ;
#247 = EDGE_CURVE ( 'NONE', #1161, #602, #638, .T. ) ;
#248 = ORIENTED_EDGE ( 'NONE', *, *, #1276, .F. ) ;
#249 = CARTESIAN_POINT ( 'NONE',  ( 0.9499999999999995115, 1.399999999999999911, -0.5749999999999995115 ) ) ;
#250 = VERTEX_POINT ( 'NONE', #1144 ) ;
#251 = SURFACE_STYLE_FILL_AREA ( #956 ) ;
#252 = DIRECTION ( 'NONE',  ( 1.734723475976807094E-16, 0.000000000000000000, -1.000000000000000000 ) ) ;
#253 = ORIENTED_EDGE ( 'NONE', *, *, #576, .T. ) ;
#254 = DIRECTION ( 'NONE',  ( 0.000000000000000000, -1.000000000000000000, -0.000000000000000000 ) ) ;
#255 = EDGE_CURVE ( 'NONE', #1221, #578, #346, .T. ) ;
#256 = VERTEX_POINT ( 'NONE', #1230 ) ;
#257 = DIRECTION ( 'NONE',  ( 0.000000000000000000, 0.000000000000000000, -1.000000000000000000 ) ) ;
#258 = VECTOR ( 'NONE', #1122, 1000.000000000000000 ) ;
#259 = FACE_OUTER_BOUND ( 'NONE', #387, .T. ) ;
#260 = AXIS2_PLACEMENT_3D ( 'NONE', #1203, #108, #415 ) ;
#261 = ORIENTED_EDGE ( 'NONE', *, *, #110, .T. ) ;
#262 = AXIS2_PLACEMENT_3D ( 'NONE', #550, #853, #951 ) ;
#263 = FACE_OUTER_BOUND ( 'NONE', #728, .T. ) ;
#264 = ORIENTED_EDGE ( 'NONE', *, *, #465, .F. ) ;
#265 = COLOUR_RGB ( '',0.7921568627450980005, 0.8196078431372548767, 0.9333333333333333481 ) ;
#266 = PLANE ( 'NONE',  #864 ) ;
#267 = MANIFOLD_SOLID_BREP ( 'Mirror2', #27 ) ;
#268 = ORIENTED_EDGE ( 'NONE', *, *, #383, .F. ) ;
#269 = DIRECTION ( 'NONE',  ( -1.000000000000000000, -0.000000000000000000, 8.673617379884036705E-17 ) ) ;
#270 = EDGE_CURVE ( 'NONE', #556, #998, #1055, .T. ) ;
#271 = ORIENTED_EDGE ( 'NONE', *, *, #664, .F. ) ;
#272 = DIRECTION ( 'NONE',  ( 0.000000000000000000, 1.000000000000000000, 0.000000000000000000 ) ) ;
#273 = CIRCLE ( 'NONE', #311, 0.05000000000000002359 ) ;
#274 = CYLINDRICAL_SURFACE ( 'NONE', #686, 0.05000000000000002359 ) ;
#275 = EDGE_CURVE ( 'NONE', #908, #806, #245, .T. ) ;
#276 = CARTESIAN_POINT ( 'NONE',  ( 0.4999999999999997780, 1.399999999999999911, -0.6249999999999995559 ) ) ;
#277 = FACE_OUTER_BOUND ( 'NONE', #792, .T. ) ;
#278 = CARTESIAN_POINT ( 'NONE',  ( -0.9499999999999995115, 1.350000000000000089, -0.5749999999999995115 ) ) ;
#279 = ORIENTED_EDGE ( 'NONE', *, *, #710, .T. ) ;
#280 = DIRECTION ( 'NONE',  ( -1.000000000000000000, 0.000000000000000000, 0.000000000000000000 ) ) ;
#281 = VERTEX_POINT ( 'NONE', #762 ) ;
#282 = DIRECTION ( 'NONE',  ( -0.000000000000000000, -1.000000000000000000, -0.000000000000000000 ) ) ;
#283 = DIRECTION ( 'NONE',  ( 1.000000000000000000, 0.000000000000000000, 0.000000000000000000 ) ) ;
#284 =( GEOMETRIC_REPRESENTATION_CONTEXT ( 3 ) GLOBAL_UNCERTAINTY_ASSIGNED_CONTEXT ( ( #147 ) ) GLOBAL_UNIT_ASSIGNED_CONTEXT ( ( #593, #700, #816 ) ) REPRESENTATION_CONTEXT ( 'NONE', 'WORKASPACE' ) );
#285 = ADVANCED_FACE ( 'NONE', ( #43 ), #1155, .F. ) ;
#286 = ORIENTED_EDGE ( 'NONE', *, *, #868, .F. ) ;
#287 = ADVANCED_FACE ( 'NONE', ( #369 ), #1259, .T. ) ;
#288 = DIRECTION ( 'NONE',  ( 1.000000000000000000, 0.000000000000000000, 1.734723475976807094E-16 ) ) ;
#289 = EDGE_LOOP ( 'NONE', ( #567, #509, #355, #1222 ) ) ;
#290 = LINE ( 'NONE', #992, #752 ) ;
#291 = CARTESIAN_POINT ( 'NONE',  ( -0.4999999999999995559, 0.000000000000000000, 0.5750000000000005107 ) ) ;
#292 = VECTOR ( 'NONE', #849, 1000.000000000000000 ) ;
#293 = DIRECTION ( 'NONE',  ( -1.000000000000000000, 0.000000000000000000, 0.000000000000000000 ) ) ;
#294 = DIRECTION ( 'NONE',  ( -1.734723475976807094E-16, 0.000000000000000000, 1.000000000000000000 ) ) ;
#295 = PRESENTATION_LAYER_ASSIGNMENT (  '', '', ( #1214 ) ) ;
#296 = EDGE_CURVE ( 'NONE', #644, #591, #780, .T. ) ;
#297 = AXIS2_PLACEMENT_3D ( 'NONE', #449, #1057, #829 ) ;
#298 = ORIENTED_EDGE ( 'NONE', *, *, #211, .T. ) ;
#299 = CARTESIAN_POINT ( 'NONE',  ( -0.9499999999999995115, 0.000000000000000000, 0.5750000000000003997 ) ) ;
#300 = FACE_OUTER_BOUND ( 'NONE', #35, .T. ) ;
#301 = DIRECTION ( 'NONE',  ( 0.000000000000000000, 0.000000000000000000, 1.000000000000000000 ) ) ;
#302 = SPHERICAL_SURFACE ( 'NONE', #560, 0.05000000000000000278 ) ;
#303 = AXIS2_PLACEMENT_3D ( 'NONE', #900, #807, #915 ) ;
#304 = ADVANCED_FACE ( 'NONE', ( #575 ), #678, .F. ) ;
#305 = ORIENTED_EDGE ( 'NONE', *, *, #1079, .F. ) ;
#306 = CARTESIAN_POINT ( 'NONE',  ( 500000.0000000000582, 0.01666666666666666644, -0.5750000000433673764 ) ) ;
#307 = DIRECTION ( 'NONE',  ( 0.000000000000000000, 0.000000000000000000, 1.000000000000000000 ) ) ;
#308 = VERTEX_POINT ( 'NONE', #1180 ) ;
#309 = FACE_OUTER_BOUND ( 'NONE', #10, .T. ) ;
#310 = CARTESIAN_POINT ( 'NONE',  ( 0.4999999999999995559, 1.399999999999999911, 0.5750000000000005107 ) ) ;
#311 = AXIS2_PLACEMENT_3D ( 'NONE', #996, #19, #6 ) ;
#312 = CARTESIAN_POINT ( 'NONE',  ( 0.9499999999999995115, 0.04999999999999991257, -0.6249999999999995559 ) ) ;
#313 = ORIENTED_EDGE ( 'NONE', *, *, #113, .T. ) ;
#314 = DIRECTION ( 'NONE',  ( 0.000000000000000000, 0.000000000000000000, 1.000000000000000000 ) ) ;
#315 = CARTESIAN_POINT ( 'NONE',  ( 0.9999999999999995559, 1.350000000000000089, -0.5749999999999995115 ) ) ;
#316 = VECTOR ( 'NONE', #532, 1000.000000000000000 ) ;
#317 = LINE ( 'NONE', #306, #487 ) ;
#318 = DIRECTION ( 'NONE',  ( -8.673617379884036705E-17, 0.000000000000000000, -1.000000000000000000 ) ) ;
#319 = ORIENTED_EDGE ( 'NONE', *, *, #880, .F. ) ;
#320 = DIRECTION ( 'NONE',  ( 0.000000000000000000, 0.000000000000000000, 1.000000000000000000 ) ) ;
#321 = CARTESIAN_POINT ( 'NONE',  ( -0.9499999999999995115, 1.350000000000000089, -0.5749999999999995115 ) ) ;
#322 = MECHANICAL_DESIGN_GEOMETRIC_PRESENTATION_REPRESENTATION (  '', ( #882 ), #1061 ) ;
#323 = DIRECTION ( 'NONE',  ( -0.000000000000000000, 1.000000000000000000, -0.000000000000000000 ) ) ;
#324 = ORIENTED_EDGE ( 'NONE', *, *, #247, .F. ) ;
#325 = DIRECTION ( 'NONE',  ( -0.000000000000000000, 1.000000000000000000, -0.000000000000000000 ) ) ;
#326 = EDGE_LOOP ( 'NONE', ( #475, #1209, #716, #891 ) ) ;
#327 = ADVANCED_FACE ( 'NONE', ( #363 ), #183, .T. ) ;
#328 =( LENGTH_UNIT ( ) NAMED_UNIT ( * ) SI_UNIT ( .MILLI., .METRE. ) );
#329 = FACE_OUTER_BOUND ( 'NONE', #929, .T. ) ;
#330 = ORIENTED_EDGE ( 'NONE', *, *, #855, .T. ) ;
#331 = DIRECTION ( 'NONE',  ( 1.000000000000000000, 0.000000000000000000, -8.673617379884036705E-17 ) ) ;
#332 = ADVANCED_FACE ( 'NONE', ( #482 ), #168, .T. ) ;
#333 = DIRECTION ( 'NONE',  ( -0.000000000000000000, 1.000000000000000000, -0.000000000000000000 ) ) ;
#334 = VERTEX_POINT ( 'NONE', #1069 ) ;
#335 = DIRECTION ( 'NONE',  ( 1.000000000000000000, -0.000000000000000000, -0.000000000000000000 ) ) ;
#336 = EDGE_LOOP ( 'NONE', ( #1036, #225, #220, #1051 ) ) ;
#337 = DIRECTION ( 'NONE',  ( 1.000000000000000000, -0.000000000000000000, 0.000000000000000000 ) ) ;
#338 = DIRECTION ( 'NONE',  ( -1.000000000000000000, -0.000000000000000000, -0.000000000000000000 ) ) ;
#339 = EDGE_CURVE ( 'NONE', #256, #711, #5, .T. ) ;
#340 = PLANE ( 'NONE',  #1158 ) ;
#341 = VECTOR ( 'NONE', #48, 1000.000000000000000 ) ;
#342 = EDGE_CURVE ( 'NONE', #711, #308, #87, .T. ) ;
#343 = VERTEX_POINT ( 'NONE', #609 ) ;
#344 = LINE ( 'NONE', #67, #292 ) ;
#345 = EDGE_LOOP ( 'NONE', ( #141, #727, #422, #584 ) ) ;
#346 = LINE ( 'NONE', #542, #1056 ) ;
#347 = CARTESIAN_POINT ( 'NONE',  ( 0.4999999999881765689, 0.01666666666666666644, 0.5749999998698964720 ) ) ;
#348 = ADVANCED_FACE ( 'NONE', ( #196 ), #705, .F. ) ;
#349 = CARTESIAN_POINT ( 'NONE',  ( -0.4999999999999997780, 1.350000000000000089, -0.6249999999999995559 ) ) ;
#350 = ORIENTED_EDGE ( 'NONE', *, *, #72, .T. ) ;
#351 = SURFACE_SIDE_STYLE ('',( #251 ) ) ;
#352 = PLANE ( 'NONE',  #922 ) ;
#353 = EDGE_LOOP ( 'NONE', ( #1238, #985, #391, #1101 ) ) ;
#354 = DIRECTION ( 'NONE',  ( 0.000000000000000000, -1.000000000000000000, -0.000000000000000000 ) ) ;
#355 = ORIENTED_EDGE ( 'NONE', *, *, #1231, .F. ) ;
#356 = CARTESIAN_POINT ( 'NONE',  ( 0.000000000000000000, 0.000000000000000000, 0.000000000000000000 ) ) ;
#357 = DIRECTION ( 'NONE',  ( -1.000000000000000000, 0.000000000000000000, 0.000000000000000000 ) ) ;
#358 = AXIS2_PLACEMENT_3D ( 'NONE', #524, #1218, #128 ) ;
#359 = EDGE_LOOP ( 'NONE', ( #378, #155, #1178, #241 ) ) ;
#360 = DIRECTION ( 'NONE',  ( 0.000000000000000000, 0.000000000000000000, 1.000000000000000000 ) ) ;
#361 = AXIS2_PLACEMENT_3D ( 'NONE', #549, #1060, #627 ) ;
#362 = ORIENTED_EDGE ( 'NONE', *, *, #1047, .F. ) ;
#363 = FACE_OUTER_BOUND ( 'NONE', #538, .T. ) ;
#364 = AXIS2_PLACEMENT_3D ( 'NONE', #739, #840, #631 ) ;
#365 = CARTESIAN_POINT ( 'NONE',  ( -0.4999999999999996669, 0.01666666666666662133, 0.5750000000000006217 ) ) ;
#366 = ORIENTED_EDGE ( 'NONE', *, *, #1163, .F. ) ;
#367 = VECTOR ( 'NONE', #912, 1000.000000000000000 ) ;
#368 = FACE_OUTER_BOUND ( 'NONE', #359, .T. ) ;
#369 = FACE_OUTER_BOUND ( 'NONE', #732, .T. ) ;
#370 = EDGE_CURVE ( 'NONE', #1171, #591, #1139, .T. ) ;
#371 = ORIENTED_EDGE ( 'NONE', *, *, #984, .T. ) ;
#372 = DIRECTION ( 'NONE',  ( 0.000000000000000000, 0.000000000000000000, 1.000000000000000000 ) ) ;
#373 = ORIENTED_EDGE ( 'NONE', *, *, #576, .F. ) ;
#374 = CARTESIAN_POINT ( 'NONE',  ( -0.9999999999999995559, 0.04999999999999991257, -0.6249999999999995559 ) ) ;
#375 = AXIS2_PLACEMENT_3D ( 'NONE', #679, #685, #764 ) ;
#376 = CARTESIAN_POINT ( 'NONE',  ( -0.9499999999999995115, 1.350000000000000089, 0.5750000000000003997 ) ) ;
#377 = LINE ( 'NONE', #672, #1168 ) ;
#378 = ORIENTED_EDGE ( 'NONE', *, *, #1080, .F. ) ;
#379 = DIRECTION ( 'NONE',  ( 0.000000000000000000, 0.000000000000000000, 1.000000000000000000 ) ) ;
#380 = AXIS2_PLACEMENT_3D ( 'NONE', #11, #214, #301 ) ;
#381 = ORIENTED_EDGE ( 'NONE', *, *, #782, .F. ) ;
#382 = DIRECTION ( 'NONE',  ( -0.000000000000000000, -0.000000000000000000, 1.000000000000000000 ) ) ;
#383 = EDGE_CURVE ( 'NONE', #860, #702, #513, .T. ) ;
#384 = DIRECTION ( 'NONE',  ( -1.000000000000000000, -0.000000000000000000, -0.000000000000000000 ) ) ;
#385 = CARTESIAN_POINT ( 'NONE',  ( 0.4999999999999995559, 0.04999999999999991257, 0.5750000000000003997 ) ) ;
#386 = CARTESIAN_POINT ( 'NONE',  ( 0.9499999999999995115, 0.000000000000000000, 0.5750000000000003997 ) ) ;
#387 = EDGE_LOOP ( 'NONE', ( #991, #421, #1032, #680 ) ) ;
#388 = CARTESIAN_POINT ( 'NONE',  ( -0.9499999999999995115, 1.350000000000000089, 0.5750000000000003997 ) ) ;
#389 = CYLINDRICAL_SURFACE ( 'NONE', #767, 0.05000000000000002359 ) ;
#390 = AXIS2_PLACEMENT_3D ( 'NONE', #1280, #71, #280 ) ;
#391 = ORIENTED_EDGE ( 'NONE', *, *, #426, .T. ) ;
#392 = CARTESIAN_POINT ( 'NONE',  ( 0.4999999999881765689, 1.350000000000000089, -0.5749999999999994005 ) ) ;
#393 = ORIENTED_EDGE ( 'NONE', *, *, #893, .F. ) ;
#394 = VECTOR ( 'NONE', #861, 1000.000000000000000 ) ;
#395 = EDGE_LOOP ( 'NONE', ( #773, #1154, #69, #1159 ) ) ;
#396 = ADVANCED_FACE ( 'NONE', ( #1196 ), #409, .F. ) ;
#397 = LINE ( 'NONE', #403, #784 ) ;
#398 = DIRECTION ( 'NONE',  ( 0.000000000000000000, -0.000000000000000000, -1.000000000000000000 ) ) ;
#399 = ORIENTED_EDGE ( 'NONE', *, *, #211, .F. ) ;
#400 = LINE ( 'NONE', #590, #534 ) ;
#401 = DIRECTION ( 'NONE',  ( -1.000000000000000000, 0.000000000000000000, 0.000000000000000000 ) ) ;
#402 = ORIENTED_EDGE ( 'NONE', *, *, #72, .F. ) ;
#403 = CARTESIAN_POINT ( 'NONE',  ( 500000.0000000000582, 1.383333333333333526, 0.5749999999566324238 ) ) ;
#404 = PLANE ( 'NONE',  #492 ) ;
#405 = CIRCLE ( 'NONE', #870, 0.03333333333333324267 ) ;
#406 = ADVANCED_FACE ( 'NONE', ( #488 ), #413, .T. ) ;
#407 = ORIENTED_EDGE ( 'NONE', *, *, #1115, .F. ) ;
#408 = DIRECTION ( 'NONE',  ( 0.000000000000000000, -0.000000000000000000, 1.000000000000000000 ) ) ;
#409 = PLANE ( 'NONE',  #975 ) ;
#410 = DIRECTION ( 'NONE',  ( 1.000000000000000000, -0.000000000000000000, 0.000000000000000000 ) ) ;
#411 = CARTESIAN_POINT ( 'NONE',  ( -0.9999999999999995559, 1.350000000000000089, -0.6249999999999995559 ) ) ;
#412 = DIRECTION ( 'NONE',  ( -1.000000000000000000, 0.000000000000000000, 0.000000000000000000 ) ) ;
#413 = PLANE ( 'NONE',  #682 ) ;
#414 = ORIENTED_EDGE ( 'NONE', *, *, #950, .F. ) ;
#415 = DIRECTION ( 'NONE',  ( 0.000000000000000000, 0.000000000000000000, -1.000000000000000000 ) ) ;
#416 = ADVANCED_FACE ( 'NONE', ( #15 ), #714, .T. ) ;
#417 = SPHERICAL_SURFACE ( 'NONE', #82, 0.05000000000000000278 ) ;
#418 = VECTOR ( 'NONE', #1021, 1000.000000000000000 ) ;
#419 = CARTESIAN_POINT ( 'NONE',  ( -0.4999999999999995559, 1.350000000000000089, 0.6250000000000004441 ) ) ;
#420 = ADVANCED_FACE ( 'NONE', ( #300 ), #389, .T. ) ;
#421 = ORIENTED_EDGE ( 'NONE', *, *, #1170, .T. ) ;
#422 = ORIENTED_EDGE ( 'NONE', *, *, #1163, .T. ) ;
#423 = DIRECTION ( 'NONE',  ( 0.000000000000000000, 1.000000000000000000, 0.000000000000000000 ) ) ;
#424 = DIRECTION ( 'NONE',  ( -1.000000000000000000, 0.000000000000000000, 0.000000000000000000 ) ) ;
#425 = CARTESIAN_POINT ( 'NONE',  ( 0.4999999999999995559, 1.399999999999999911, 0.5750000000000003997 ) ) ;
#426 = EDGE_CURVE ( 'NONE', #40, #343, #1262, .T. ) ;
#427 = DIRECTION ( 'NONE',  ( 1.000000000000000000, 0.000000000000000000, 0.000000000000000000 ) ) ;
#428 = ORIENTED_EDGE ( 'NONE', *, *, #795, .F. ) ;
#429 = LINE ( 'NONE', #1228, #1071 ) ;
#430 = ORIENTED_EDGE ( 'NONE', *, *, #1079, .T. ) ;
#431 = DIRECTION ( 'NONE',  ( 0.000000000000000000, 0.000000000000000000, 1.000000000000000000 ) ) ;
#432 = CARTESIAN_POINT ( 'NONE',  ( -0.9999999999999995559, 1.350000000000000089, -0.5749999999999995115 ) ) ;
#433 = DIRECTION ( 'NONE',  ( 1.000000000000000000, -0.000000000000000000, -1.734723475976807094E-16 ) ) ;
#434 = DIRECTION ( 'NONE',  ( 1.000000000000000000, -0.000000000000000000, -1.734723475976807094E-16 ) ) ;
#435 = VECTOR ( 'NONE', #1127, 1000.000000000000000 ) ;
#436 =( NAMED_UNIT ( * ) PLANE_ANGLE_UNIT ( ) SI_UNIT ( $, .RADIAN. ) );
#437 = VERTEX_POINT ( 'NONE', #291 ) ;
#438 = CARTESIAN_POINT ( 'NONE',  ( 0.4999999999999997780, 0.04999999999999991257, -0.6249999999999995559 ) ) ;
#439 = ORIENTED_EDGE ( 'NONE', *, *, #1270, .T. ) ;
#440 = CARTESIAN_POINT ( 'NONE',  ( 0.4999999999999995559, 1.350000000000000089, 0.6250000000000004441 ) ) ;
#441 = DIRECTION ( 'NONE',  ( 1.000000000000000000, 0.000000000000000000, 0.000000000000000000 ) ) ;
#442 = ADVANCED_FACE ( 'NONE', ( #507 ), #244, .T. ) ;
#443 = CARTESIAN_POINT ( 'NONE',  ( -0.4999999999999996669, 0.01666666666666666644, -0.5749999999999992895 ) ) ;
#444 = CIRCLE ( 'NONE', #604, 0.05000000000000002359 ) ;
#445 = VECTOR ( 'NONE', #18, 1000.000000000000000 ) ;
#446 = CARTESIAN_POINT ( 'NONE',  ( -0.4999999999999996669, 1.350000000000000089, 0.6083333333333338366 ) ) ;
#447 = ORIENTED_EDGE ( 'NONE', *, *, #163, .T. ) ;
#448 = CARTESIAN_POINT ( 'NONE',  ( -0.4999999999999996669, 0.04999999999999991951, -0.6083333333333328374 ) ) ;
#449 = CARTESIAN_POINT ( 'NONE',  ( -0.9499999999999995115, 0.04999999999999991257, 0.5750000000000003997 ) ) ;
#450 = PRODUCT_RELATED_PRODUCT_CATEGORY ( 'part', '', ( #1082 ) ) ;
#451 = VECTOR ( 'NONE', #569, 1000.000000000000000 ) ;
#452 = ORIENTED_EDGE ( 'NONE', *, *, #24, .F. ) ;
#453 = CARTESIAN_POINT ( 'NONE',  ( 500000.0000000000582, 0.04999999999999991257, 0.5749999999566324238 ) ) ;
#454 = ORIENTED_EDGE ( 'NONE', *, *, #499, .F. ) ;
#455 = FACE_OUTER_BOUND ( 'NONE', #661, .T. ) ;
#456 = CARTESIAN_POINT ( 'NONE',  ( -0.9499999999999995115, 1.350000000000000089, -0.5749999999999995115 ) ) ;
#457 = CIRCLE ( 'NONE', #874, 0.03333333333333334675 ) ;
#458 = VERTEX_POINT ( 'NONE', #443 ) ;
#459 = CARTESIAN_POINT ( 'NONE',  ( 0.4999999999999997780, 1.350000000000000089, -0.6249999999999995559 ) ) ;
#460 = ORIENTED_EDGE ( 'NONE', *, *, #902, .T. ) ;
#461 = CARTESIAN_POINT ( 'NONE',  ( -0.4999999999999995559, 1.399999999999999911, 0.5750000000000005107 ) ) ;
#462 = VECTOR ( 'NONE', #254, 1000.000000000000000 ) ;
#463 = VERTEX_POINT ( 'NONE', #419 ) ;
#464 = CARTESIAN_POINT ( 'NONE',  ( 0.9999999999999995559, 0.04999999999999991257, 0.5750000000000003997 ) ) ;
#465 = EDGE_CURVE ( 'NONE', #644, #463, #1090, .T. ) ;
#466 = AXIS2_PLACEMENT_3D ( 'NONE', #592, #1097, #909 ) ;
#467 = DIRECTION ( 'NONE',  ( -1.000000000000000000, 0.000000000000000000, 0.000000000000000000 ) ) ;
#468 = AXIS2_PLACEMENT_3D ( 'NONE', #536, #923, #257 ) ;
#469 = DIRECTION ( 'NONE',  ( -1.000000000000000000, 0.000000000000000000, 0.000000000000000000 ) ) ;
#470 = VECTOR ( 'NONE', #4, 1000.000000000000000 ) ;
#471 = DIRECTION ( 'NONE',  ( 1.000000000000000000, 0.000000000000000000, 0.000000000000000000 ) ) ;
#472 = CLOSED_SHELL ( 'NONE', ( #720, #658, #763, #669, #943, #932, #348, #659, #760, #174 ) ) ;
#473 = CARTESIAN_POINT ( 'NONE',  ( -0.4999999999999996669, 1.350000000000000089, -0.6083333333333328374 ) ) ;
#474 = ADVANCED_FACE ( 'NONE', ( #1225 ), #352, .F. ) ;
#475 = ORIENTED_EDGE ( 'NONE', *, *, #970, .F. ) ;
#476 = DIRECTION ( 'NONE',  ( -1.000000000000000000, -0.000000000000000000, -0.000000000000000000 ) ) ;
#477 = AXIS2_PLACEMENT_3D ( 'NONE', #78, #269, #1261 ) ;
#478 = DIRECTION ( 'NONE',  ( 0.000000000000000000, -1.000000000000000000, 0.000000000000000000 ) ) ;
#479 = EDGE_CURVE ( 'NONE', #1255, #998, #1216, .T. ) ;
#480 = ORIENTED_EDGE ( 'NONE', *, *, #179, .F. ) ;
#481 = CARTESIAN_POINT ( 'NONE',  ( 0.4999999999999997780, 1.399999999999999911, -0.6249999999999995559 ) ) ;
#482 = FACE_OUTER_BOUND ( 'NONE', #611, .T. ) ;
#483 = COLOUR_RGB ( '',0.7921568627450980005, 0.8196078431372548767, 0.9333333333333333481 ) ;
#484 = DIRECTION ( 'NONE',  ( 0.000000000000000000, -0.000000000000000000, -1.000000000000000000 ) ) ;
#485 = EDGE_LOOP ( 'NONE', ( #253, #209, #402, #167 ) ) ;
#486 = CARTESIAN_POINT ( 'NONE',  ( 0.4999999999881765689, 0.04999999999999991257, -0.5749999999999994005 ) ) ;
#487 = VECTOR ( 'NONE', #1207, 1000.000000000000000 ) ;
#488 = FACE_OUTER_BOUND ( 'NONE', #1007, .T. ) ;
#489 = ORIENTED_EDGE ( 'NONE', *, *, #270, .T. ) ;
#490 =( NAMED_UNIT ( * ) PLANE_ANGLE_UNIT ( ) SI_UNIT ( $, .RADIAN. ) );
#491 = ADVANCED_FACE ( 'NONE', ( #934 ), #152, .T. ) ;
#492 = AXIS2_PLACEMENT_3D ( 'NONE', #222, #288, #294 ) ;
#493 = ORIENTED_EDGE ( 'NONE', *, *, #1115, .T. ) ;
#494 = DIRECTION ( 'NONE',  ( 0.000000000000000000, 0.000000000000000000, -1.000000000000000000 ) ) ;
#495 = FILL_AREA_STYLE_COLOUR ( '', #93 ) ;
#496 = VERTEX_POINT ( 'NONE', #526 ) ;
#497 = CARTESIAN_POINT ( 'NONE',  ( -0.4999999999999996669, 0.04999999999999991257, -0.5749999999999994005 ) ) ;
#498 = DIRECTION ( 'NONE',  ( -0.000000000000000000, -1.000000000000000000, -0.000000000000000000 ) ) ;
#499 = EDGE_CURVE ( 'NONE', #578, #224, #655, .T. ) ;
#500 = AXIS2_PLACEMENT_3D ( 'NONE', #278, #663, #1278 ) ;
#501 = ORIENTED_EDGE ( 'NONE', *, *, #799, .T. ) ;
#502 = CARTESIAN_POINT ( 'NONE',  ( -0.4999999999999995559, 1.399999999999999911, 0.5750000000000003997 ) ) ;
#503 = DIRECTION ( 'NONE',  ( 1.000000000000000000, 0.000000000000000000, 1.734723475976807094E-16 ) ) ;
#504 = APPLICATION_CONTEXT ( 'automotive_design' ) ;
#505 = ORIENTED_EDGE ( 'NONE', *, *, #615, .T. ) ;
#506 = DIRECTION ( 'NONE',  ( 1.000000000000000000, 0.000000000000000000, 0.000000000000000000 ) ) ;
#507 = FACE_OUTER_BOUND ( 'NONE', #353, .T. ) ;
#508 = VECTOR ( 'NONE', #431, 1000.000000000000000 ) ;
#509 = ORIENTED_EDGE ( 'NONE', *, *, #237, .T. ) ;
#510 = CARTESIAN_POINT ( 'NONE',  ( -0.9499999999999995115, 1.350000000000000089, -0.6249999999999995559 ) ) ;
#511 = FACE_OUTER_BOUND ( 'NONE', #213, .T. ) ;
#512 = STYLED_ITEM ( 'NONE', ( #726 ), #1128 ) ;
#513 = LINE ( 'NONE', #894, #1129 ) ;
#514 = ORIENTED_EDGE ( 'NONE', *, *, #713, .F. ) ;
#515 = CIRCLE ( 'NONE', #1016, 0.03333333333333334675 ) ;
#516 = DIRECTION ( 'NONE',  ( 0.000000000000000000, 0.000000000000000000, 1.000000000000000000 ) ) ;
#517 = FACE_OUTER_BOUND ( 'NONE', #926, .T. ) ;
#518 = ADVANCED_FACE ( 'NONE', ( #1050 ), #757, .F. ) ;
#519 = ADVANCED_FACE ( 'NONE', ( #544 ), #340, .F. ) ;
#520 = CARTESIAN_POINT ( 'NONE',  ( 0.4999999999999997780, 1.350000000000000089, -0.6249999999999995559 ) ) ;
#521 = ORIENTED_EDGE ( 'NONE', *, *, #339, .T. ) ;
#522 = VERTEX_POINT ( 'NONE', #142 ) ;
#523 = DIRECTION ( 'NONE',  ( 0.000000000000000000, -1.000000000000000000, 0.000000000000000000 ) ) ;
#524 = CARTESIAN_POINT ( 'NONE',  ( -0.9499999999999995115, 0.04999999999999991257, -0.6249999999999995559 ) ) ;
#525 = AXIS2_PLACEMENT_3D ( 'NONE', #748, #1052, #530 ) ;
#526 = CARTESIAN_POINT ( 'NONE',  ( -0.9499999999999995115, 1.399999999999999911, -0.5749999999999995115 ) ) ;
#527 = AXIS2_PLACEMENT_3D ( 'NONE', #65, #523, #1033 ) ;
#528 = EDGE_CURVE ( 'NONE', #281, #684, #100, .T. ) ;
#529 = UNCERTAINTY_MEASURE_WITH_UNIT (LENGTH_MEASURE( 1.000000000000000082E-05 ), #830, 'distance_accuracy_value', 'NONE');
#530 = DIRECTION ( 'NONE',  ( 0.000000000000000000, 0.000000000000000000, 1.000000000000000000 ) ) ;
#531 = ORIENTED_EDGE ( 'NONE', *, *, #1213, .F. ) ;
#532 = DIRECTION ( 'NONE',  ( 1.000000000000000000, -0.000000000000000000, 0.000000000000000000 ) ) ;
#533 = FACE_OUTER_BOUND ( 'NONE', #862, .T. ) ;
#534 = VECTOR ( 'NONE', #892, 1000.000000000000000 ) ;
#535 = CARTESIAN_POINT ( 'NONE',  ( 0.9499999999999995115, 1.350000000000000089, -0.5749999999999995115 ) ) ;
#536 = CARTESIAN_POINT ( 'NONE',  ( 0.9499999999999995115, 1.399999999999999911, 0.5750000000000003997 ) ) ;
#537 = FILL_AREA_STYLE ('',( #143 ) ) ;
#538 = EDGE_LOOP ( 'NONE', ( #871, #286, #1126, #1267 ) ) ;
#539 = CARTESIAN_POINT ( 'NONE',  ( 0.9999999999999995559, 1.399999999999999911, -0.5749999999999995115 ) ) ;
#540 = EDGE_CURVE ( 'NONE', #1255, #936, #824, .T. ) ;
#541 = ORIENTED_EDGE ( 'NONE', *, *, #2, .F. ) ;
#542 = CARTESIAN_POINT ( 'NONE',  ( 500000.0000000000582, 1.350000000000000089, -0.6083333333767009243 ) ) ;
#543 = APPLICATION_PROTOCOL_DEFINITION ( 'draft international standard', 'automotive_design', 1998, #504 ) ;
#544 = FACE_OUTER_BOUND ( 'NONE', #964, .T. ) ;
#545 = AXIS2_PLACEMENT_3D ( 'NONE', #565, #372, #357 ) ;
#546 = LINE ( 'NONE', #74, #462 ) ;
#547 = VERTEX_POINT ( 'NONE', #753 ) ;
#548 = EDGE_CURVE ( 'NONE', #637, #888, #848, .T. ) ;
#549 = CARTESIAN_POINT ( 'NONE',  ( -0.9499999999999995115, 1.350000000000000089, 0.5750000000000003997 ) ) ;
#550 = CARTESIAN_POINT ( 'NONE',  ( -0.9499999999999995115, 0.05000000000000000278, 0.5750000000000003997 ) ) ;
#551 = DIRECTION ( 'NONE',  ( -1.000000000000000000, -0.000000000000000000, 8.673617379884036705E-17 ) ) ;
#552 = ORIENTED_EDGE ( 'NONE', *, *, #1177, .T. ) ;
#553 = DIRECTION ( 'NONE',  ( -1.000000000000000000, -0.000000000000000000, -0.000000000000000000 ) ) ;
#554 = SURFACE_SIDE_STYLE ('',( #935 ) ) ;
#555 = CARTESIAN_POINT ( 'NONE',  ( 0.9999999999999995559, 0.04999999999999991257, 0.5750000000000003997 ) ) ;
#556 = VERTEX_POINT ( 'NONE', #645 ) ;
#557 = DIRECTION ( 'NONE',  ( -1.734723475976807094E-16, 0.000000000000000000, 1.000000000000000000 ) ) ;
#558 = VERTEX_POINT ( 'NONE', #958 ) ;
#559 = DIRECTION ( 'NONE',  ( 0.000000000000000000, 0.000000000000000000, 1.000000000000000000 ) ) ;
#560 = AXIS2_PLACEMENT_3D ( 'NONE', #207, #881, #215 ) ;
#561 = ADVANCED_FACE ( 'NONE', ( #1247 ), #164, .T. ) ;
#562 = LINE ( 'NONE', #867, #652 ) ;
#563 = EDGE_CURVE ( 'NONE', #860, #1003, #715, .T. ) ;
#564 = ORIENTED_EDGE ( 'NONE', *, *, #296, .T. ) ;
#565 = CARTESIAN_POINT ( 'NONE',  ( 0.9499999999999995115, 0.04999999999999991257, 0.5750000000000003997 ) ) ;
#566 = AXIS2_PLACEMENT_3D ( 'NONE', #614, #51, #838 ) ;
#567 = ORIENTED_EDGE ( 'NONE', *, *, #880, .T. ) ;
#568 = EDGE_CURVE ( 'NONE', #936, #998, #835, .T. ) ;
#569 = DIRECTION ( 'NONE',  ( 1.000000000000000000, 0.000000000000000000, 0.000000000000000000 ) ) ;
#570 = FACE_OUTER_BOUND ( 'NONE', #46, .T. ) ;
#571 = EDGE_CURVE ( 'NONE', #308, #734, #45, .T. ) ;
#572 =( GEOMETRIC_REPRESENTATION_CONTEXT ( 3 ) GLOBAL_UNCERTAINTY_ASSIGNED_CONTEXT ( ( #832 ) ) GLOBAL_UNIT_ASSIGNED_CONTEXT ( ( #328, #858, #1150 ) ) REPRESENTATION_CONTEXT ( 'NONE', 'WORKASPACE' ) );
#573 = ORIENTED_EDGE ( 'NONE', *, *, #190, .F. ) ;
#574 = CARTESIAN_POINT ( 'NONE',  ( 0.4999999999999995559, 1.350000000000000089, 0.5750000000000003997 ) ) ;
#575 = FACE_OUTER_BOUND ( 'NONE', #395, .T. ) ;
#576 = EDGE_CURVE ( 'NONE', #1255, #806, #236, .T. ) ;
#577 = DIRECTION ( 'NONE',  ( 0.000000000000000000, 0.000000000000000000, 1.000000000000000000 ) ) ;
#578 = VERTEX_POINT ( 'NONE', #473 ) ;
#579 = DIRECTION ( 'NONE',  ( 0.000000000000000000, 0.000000000000000000, 1.000000000000000000 ) ) ;
#580 = CARTESIAN_POINT ( 'NONE',  ( 0.000000000000000000, 1.350000000000000089, -0.5749999999999995115 ) ) ;
#581 = EDGE_CURVE ( 'NONE', #754, #1003, #668, .T. ) ;
#582 = EDGE_LOOP ( 'NONE', ( #959, #1227, #1201, #1135 ) ) ;
#583 = DIRECTION ( 'NONE',  ( -1.000000000000000000, -0.000000000000000000, 8.673617379884036705E-17 ) ) ;
#584 = ORIENTED_EDGE ( 'NONE', *, *, #110, .F. ) ;
#585 = VECTOR ( 'NONE', #1134, 1000.000000000000000 ) ;
#586 = DIRECTION ( 'NONE',  ( -1.734723475976807094E-16, 0.000000000000000000, 1.000000000000000000 ) ) ;
#587 = AXIS2_PLACEMENT_3D ( 'NONE', #641, #434, #651 ) ;
#588 = PLANE ( 'NONE',  #1205 ) ;
#589 = ORIENTED_EDGE ( 'NONE', *, *, #16, .T. ) ;
#590 = CARTESIAN_POINT ( 'NONE',  ( 0.9999999999999995559, 1.350000000000000089, -0.6249999999999995559 ) ) ;
#591 = VERTEX_POINT ( 'NONE', #781 ) ;
#592 = CARTESIAN_POINT ( 'NONE',  ( 0.000000000000000000, 1.350000000000000089, 0.5750000000000003997 ) ) ;
#593 =( LENGTH_UNIT ( ) NAMED_UNIT ( * ) SI_UNIT ( .MILLI., .METRE. ) );
#594 = EDGE_CURVE ( 'NONE', #806, #1019, #377, .T. ) ;
#595 = ORIENTED_EDGE ( 'NONE', *, *, #944, .F. ) ;
#596 = CARTESIAN_POINT ( 'NONE',  ( 0.9999999999999995559, 1.399999999999999911, -0.6249999999999995559 ) ) ;
#597 = CARTESIAN_POINT ( 'NONE',  ( -0.4999999999999997780, 1.350000000000000089, -0.5749999999999995115 ) ) ;
#598 = CIRCLE ( 'NONE', #777, 0.05000000000000002359 ) ;
#599 = ORIENTED_EDGE ( 'NONE', *, *, #275, .F. ) ;
#600 = CARTESIAN_POINT ( 'NONE',  ( -0.9499999999999995115, 0.04999999999999991257, -0.5749999999999995115 ) ) ;
#601 = PRESENTATION_STYLE_ASSIGNMENT (( #1009 ) ) ;
#602 = VERTEX_POINT ( 'NONE', #876 ) ;
#603 = CARTESIAN_POINT ( 'NONE',  ( -0.4999999999999995559, 1.399999999999999911, 0.6250000000000004441 ) ) ;
#604 = AXIS2_PLACEMENT_3D ( 'NONE', #785, #282, #360 ) ;
#605 = ORIENTED_EDGE ( 'NONE', *, *, #296, .F. ) ;
#606 = LINE ( 'NONE', #723, #445 ) ;
#607 = CARTESIAN_POINT ( 'NONE',  ( -0.4999999999999996669, 1.350000000000000089, 0.5750000000000005107 ) ) ;
#608 = CARTESIAN_POINT ( 'NONE',  ( -0.4999999999999997780, 1.399999999999999911, -0.6249999999999995559 ) ) ;
#609 = CARTESIAN_POINT ( 'NONE',  ( 0.9499999999999995115, 1.350000000000000089, 0.6250000000000004441 ) ) ;
#610 = AXIS2_PLACEMENT_3D ( 'NONE', #993, #318, #103 ) ;
#611 = EDGE_LOOP ( 'NONE', ( #624, #1193, #158 ) ) ;
#612 = EDGE_CURVE ( 'NONE', #806, #556, #941, .T. ) ;
#613 = DIRECTION ( 'NONE',  ( -1.000000000000000000, 0.000000000000000000, 0.000000000000000000 ) ) ;
#614 = CARTESIAN_POINT ( 'NONE',  ( 0.000000000000000000, 1.350000000000000089, -0.5749999999999995115 ) ) ;
#615 = EDGE_CURVE ( 'NONE', #17, #1221, #1183, .T. ) ;
#616 = DIRECTION ( 'NONE',  ( 1.000000000000000000, 0.000000000000000000, 0.000000000000000000 ) ) ;
#617 = EDGE_LOOP ( 'NONE', ( #690, #371, #501, #1114 ) ) ;
#618 = ORIENTED_EDGE ( 'NONE', *, *, #615, .F. ) ;
#619 = AXIS2_PLACEMENT_3D ( 'NONE', #109, #98, #398 ) ;
#620 = FACE_OUTER_BOUND ( 'NONE', #42, .T. ) ;
#621 = CARTESIAN_POINT ( 'NONE',  ( 0.9999999999999995559, 1.350000000000000089, 0.6250000000000004441 ) ) ;
#622 = CARTESIAN_POINT ( 'NONE',  ( -0.9499999999999995115, 0.04999999999999991257, 0.5750000000000003997 ) ) ;
#623 = LINE ( 'NONE', #520, #990 ) ;
#624 = ORIENTED_EDGE ( 'NONE', *, *, #33, .F. ) ;
#625 = CARTESIAN_POINT ( 'NONE',  ( 0.4999999999881765689, 0.04999999999999991257, 0.5750000000000005107 ) ) ;
#626 = ORIENTED_EDGE ( 'NONE', *, *, #581, .T. ) ;
#627 = DIRECTION ( 'NONE',  ( 0.000000000000000000, 0.000000000000000000, 1.000000000000000000 ) ) ;
#628 = CARTESIAN_POINT ( 'NONE',  ( 0.9499999999999995115, 1.350000000000000089, 0.5750000000000003997 ) ) ;
#629 = VECTOR ( 'NONE', #557, 1000.000000000000000 ) ;
#630 = EDGE_LOOP ( 'NONE', ( #741, #319, #1143, #1245 ) ) ;
#631 = DIRECTION ( 'NONE',  ( 0.000000000000000000, -0.000000000000000000, 1.000000000000000000 ) ) ;
#632 = CIRCLE ( 'NONE', #1176, 0.05000000000000002359 ) ;
#633 = EDGE_CURVE ( 'NONE', #687, #711, #598, .T. ) ;
#634 = AXIS2_PLACEMENT_3D ( 'NONE', #114, #498, #307 ) ;
#635 = ORIENTED_EDGE ( 'NONE', *, *, #944, .T. ) ;
#636 = CARTESIAN_POINT ( 'NONE',  ( -0.9999999999999995559, 0.04999999999999991257, 0.5750000000000003997 ) ) ;
#637 = VERTEX_POINT ( 'NONE', #1074 ) ;
#638 = LINE ( 'NONE', #1043, #696 ) ;
#639 = DIRECTION ( 'NONE',  ( 0.000000000000000000, 0.000000000000000000, 1.000000000000000000 ) ) ;
#640 = CIRCLE ( 'NONE', #681, 0.05000000000000002359 ) ;
#641 = CARTESIAN_POINT ( 'NONE',  ( -0.4999999999999995559, 1.350000000000000089, 0.5750000000000003997 ) ) ;
#642 = EDGE_CURVE ( 'NONE', #800, #496, #890, .T. ) ;
#643 = PLANE ( 'NONE',  #134 ) ;
#644 = VERTEX_POINT ( 'NONE', #461 ) ;
#645 = CARTESIAN_POINT ( 'NONE',  ( -0.9999999999999995559, 0.04999999999999991257, -0.5749999999999995115 ) ) ;
#646 = AXIS2_PLACEMENT_3D ( 'NONE', #456, #869, #1070 ) ;
#647 = ORIENTED_EDGE ( 'NONE', *, *, #1066, .F. ) ;
#648 = DIRECTION ( 'NONE',  ( 0.000000000000000000, 0.000000000000000000, 1.000000000000000000 ) ) ;
#649 = ORIENTED_EDGE ( 'NONE', *, *, #1112, .F. ) ;
#650 = DIRECTION ( 'NONE',  ( -1.000000000000000000, -0.000000000000000000, 8.673617379884036705E-17 ) ) ;
#651 = DIRECTION ( 'NONE',  ( 0.000000000000000000, 0.000000000000000000, 1.000000000000000000 ) ) ;
#652 = VECTOR ( 'NONE', #1167, 1000.000000000000000 ) ;
#653 = EDGE_CURVE ( 'NONE', #250, #224, #775, .T. ) ;
#654 = CIRCLE ( 'NONE', #676, 0.05000000000000002359 ) ;
#655 = CIRCLE ( 'NONE', #192, 0.03333333333333334675 ) ;
#656 = CARTESIAN_POINT ( 'NONE',  ( -0.9499999999999995115, 0.04999999999999991257, -0.6249999999999995559 ) ) ;
#657 = ORIENTED_EDGE ( 'NONE', *, *, #642, .F. ) ;
#658 = ADVANCED_FACE ( 'NONE', ( #277 ), #1254, .F. ) ;
#659 = ADVANCED_FACE ( 'NONE', ( #1081 ), #1269, .T. ) ;
#660 = AXIS2_PLACEMENT_3D ( 'NONE', #356, #639, #441 ) ;
#661 = EDGE_LOOP ( 'NONE', ( #1059, #918, #670, #743 ) ) ;
#662 = EDGE_CURVE ( 'NONE', #1042, #281, #1275, .T. ) ;
#663 = DIRECTION ( 'NONE',  ( -1.000000000000000000, 0.000000000000000000, 0.000000000000000000 ) ) ;
#664 = EDGE_CURVE ( 'NONE', #343, #860, #977, .T. ) ;
#665 = ORIENTED_EDGE ( 'NONE', *, *, #1177, .F. ) ;
#666 = DIRECTION ( 'NONE',  ( 1.000000000000000000, 0.000000000000000000, 0.000000000000000000 ) ) ;
#667 = ADVANCED_FACE ( 'NONE', ( #263 ), #274, .T. ) ;
#668 = CIRCLE ( 'NONE', #545, 0.05000000000000002359 ) ;
#669 = ADVANCED_FACE ( 'NONE', ( #963 ), #1169, .T. ) ;
#670 = ORIENTED_EDGE ( 'NONE', *, *, #540, .F. ) ;
#671 = CARTESIAN_POINT ( 'NONE',  ( 0.9499999999999995115, 0.000000000000000000, 0.000000000000000000 ) ) ;
#672 = CARTESIAN_POINT ( 'NONE',  ( 0.000000000000000000, 0.000000000000000000, -0.5749999999999995115 ) ) ;
#673 = AXIS2_PLACEMENT_3D ( 'NONE', #790, #1063, #1068 ) ;
#674 = ADVANCED_FACE ( 'NONE', ( #570 ), #1065, .T. ) ;
#675 = ORIENTED_EDGE ( 'NONE', *, *, #1031, .T. ) ;
#676 = AXIS2_PLACEMENT_3D ( 'NONE', #1210, #613, #314 ) ;
#677 = DIRECTION ( 'NONE',  ( 0.000000000000000000, 0.000000000000000000, -1.000000000000000000 ) ) ;
#678 = PLANE ( 'NONE',  #972 ) ;
#679 = CARTESIAN_POINT ( 'NONE',  ( -0.4999999999999996669, 1.350000000000000089, -0.5749999999999994005 ) ) ;
#680 = ORIENTED_EDGE ( 'NONE', *, *, #1119, .F. ) ;
#681 = AXIS2_PLACEMENT_3D ( 'NONE', #1234, #38, #1131 ) ;
#682 = AXIS2_PLACEMENT_3D ( 'NONE', #818, #9, #1085 ) ;
#683 = CARTESIAN_POINT ( 'NONE',  ( 0.4999999999881765689, 0.04999999999999991257, 0.6083333333333338366 ) ) ;
#684 = VERTEX_POINT ( 'NONE', #365 ) ;
#685 = DIRECTION ( 'NONE',  ( 1.000000000000000000, 0.000000000000000000, -8.673617379884036705E-17 ) ) ;
#686 = AXIS2_PLACEMENT_3D ( 'NONE', #1062, #169, #559 ) ;
#687 = VERTEX_POINT ( 'NONE', #315 ) ;
#688 = FACE_OUTER_BOUND ( 'NONE', #30, .T. ) ;
#689 = DIRECTION ( 'NONE',  ( 1.000000000000000000, 0.000000000000000000, -0.000000000000000000 ) ) ;
#690 = ORIENTED_EDGE ( 'NONE', *, *, #1112, .T. ) ;
#691 = CARTESIAN_POINT ( 'NONE',  ( 0.9499999999999995115, 0.05000000000000000278, 0.5750000000000003997 ) ) ;
#692 = MANIFOLD_SOLID_BREP ( 'Boss-Extrude2', #472 ) ;
#693 = DIRECTION ( 'NONE',  ( 0.000000000000000000, 0.000000000000000000, 1.000000000000000000 ) ) ;
#694 = CIRCLE ( 'NONE', #216, 0.05000000000000002359 ) ;
#695 = DIRECTION ( 'NONE',  ( -0.000000000000000000, 0.000000000000000000, -1.000000000000000000 ) ) ;
#696 = VECTOR ( 'NONE', #650, 1000.000000000000000 ) ;
#697 = ORIENTED_EDGE ( 'NONE', *, *, #145, .F. ) ;
#698 = CYLINDRICAL_SURFACE ( 'NONE', #847, 0.05000000000000002359 ) ;
#699 = AXIS2_PLACEMENT_3D ( 'NONE', #691, #1086, #234 ) ;
#700 =( NAMED_UNIT ( * ) PLANE_ANGLE_UNIT ( ) SI_UNIT ( $, .RADIAN. ) );
#701 = EDGE_CURVE ( 'NONE', #1221, #250, #457, .T. ) ;
#702 = VERTEX_POINT ( 'NONE', #904 ) ;
#703 = FACE_OUTER_BOUND ( 'NONE', #90, .T. ) ;
#704 = AXIS2_PLACEMENT_3D ( 'NONE', #385, #102, #579 ) ;
#705 = PLANE ( 'NONE',  #610 ) ;
#706 = CIRCLE ( 'NONE', #809, 0.05000000000000002359 ) ;
#707 = ORIENTED_EDGE ( 'NONE', *, *, #799, .F. ) ;
#708 = LINE ( 'NONE', #811, #191 ) ;
#709 = SURFACE_STYLE_FILL_AREA ( #718 ) ;
#710 = EDGE_CURVE ( 'NONE', #343, #308, #273, .T. ) ;
#711 = VERTEX_POINT ( 'NONE', #1211 ) ;
#712 = DIRECTION ( 'NONE',  ( 0.000000000000000000, 0.000000000000000000, 1.000000000000000000 ) ) ;
#713 = EDGE_CURVE ( 'NONE', #224, #76, #724, .T. ) ;
#714 = CYLINDRICAL_SURFACE ( 'NONE', #41, 0.05000000000000002359 ) ;
#715 = CIRCLE ( 'NONE', #1226, 0.05000000000000002359 ) ;
#716 = ORIENTED_EDGE ( 'NONE', *, *, #713, .T. ) ;
#717 = CARTESIAN_POINT ( 'NONE',  ( -0.4999999999999996669, 1.383333333333333526, 0.5750000000000005107 ) ) ;
#718 = FILL_AREA_STYLE ('',( #495 ) ) ;
#719 = DIRECTION ( 'NONE',  ( 0.000000000000000000, -1.000000000000000000, 0.000000000000000000 ) ) ;
#720 = ADVANCED_FACE ( 'NONE', ( #798 ), #404, .T. ) ;
#721 = DIRECTION ( 'NONE',  ( -1.000000000000000000, 0.000000000000000000, 0.000000000000000000 ) ) ;
#722 = ORIENTED_EDGE ( 'NONE', *, *, #782, .T. ) ;
#723 = CARTESIAN_POINT ( 'NONE',  ( 0.4999999999881765689, 1.350000000000000089, 0.6083333333333338366 ) ) ;
#724 = LINE ( 'NONE', #1204, #1064 ) ;
#725 = CIRCLE ( 'NONE', #380, 0.05000000000000002359 ) ;
#726 = PRESENTATION_STYLE_ASSIGNMENT (( #1106 ) ) ;
#727 = ORIENTED_EDGE ( 'NONE', *, *, #1119, .T. ) ;
#728 = EDGE_LOOP ( 'NONE', ( #1045, #1181, #599, #111 ) ) ;
#729 = DIRECTION ( 'NONE',  ( 0.000000000000000000, -1.000000000000000000, 0.000000000000000000 ) ) ;
#730 = CARTESIAN_POINT ( 'NONE',  ( -0.4999999999999996669, 0.01666666666666666644, 0.5750000000000006217 ) ) ;
#731 = CARTESIAN_POINT ( 'NONE',  ( 0.9499999999999995115, 0.04999999999999991257, 0.5750000000000003997 ) ) ;
#732 = EDGE_LOOP ( 'NONE', ( #875, #1132, #665 ) ) ;
#733 = CARTESIAN_POINT ( 'NONE',  ( 0.9499999999999995115, 0.04999999999999991257, -0.5749999999999995115 ) ) ;
#734 = VERTEX_POINT ( 'NONE', #310 ) ;
#735 = AXIS2_PLACEMENT_3D ( 'NONE', #622, #1022, #133 ) ;
#736 = CARTESIAN_POINT ( 'NONE',  ( -0.9999999999999995559, 1.399999999999999911, 0.6250000000000004441 ) ) ;
#737 = CARTESIAN_POINT ( 'NONE',  ( 0.9499999999999995115, 0.000000000000000000, -0.5749999999999995115 ) ) ;
#738 = ORIENTED_EDGE ( 'NONE', *, *, #1231, .T. ) ;
#739 = CARTESIAN_POINT ( 'NONE',  ( 0.000000000000000000, 0.000000000000000000, 0.000000000000000000 ) ) ;
#740 = DIRECTION ( 'NONE',  ( -1.000000000000000000, -0.000000000000000000, -0.000000000000000000 ) ) ;
#741 = ORIENTED_EDGE ( 'NONE', *, *, #568, .F. ) ;
#742 = CYLINDRICAL_SURFACE ( 'NONE', #1133, 0.05000000000000002359 ) ;
#743 = ORIENTED_EDGE ( 'NONE', *, *, #883, .F. ) ;
#744 = CARTESIAN_POINT ( 'NONE',  ( -0.4999999999999996669, 1.383333333333333526, -0.5749999999999994005 ) ) ;
#745 = DIRECTION ( 'NONE',  ( -1.000000000000000000, 0.000000000000000000, 0.000000000000000000 ) ) ;
#746 =( NAMED_UNIT ( * ) SI_UNIT ( $, .STERADIAN. ) SOLID_ANGLE_UNIT ( ) );
#747 = ORIENTED_EDGE ( 'NONE', *, *, #710, .F. ) ;
#748 = CARTESIAN_POINT ( 'NONE',  ( 0.9499999999999995115, 1.350000000000000089, -0.5749999999999995115 ) ) ;
#749 = ORIENTED_EDGE ( 'NONE', *, *, #26, .T. ) ;
#750 = CARTESIAN_POINT ( 'NONE',  ( -0.9499999999999995115, 1.399999999999999911, -0.6249999999999995559 ) ) ;
#751 = VECTOR ( 'NONE', #1173, 1000.000000000000000 ) ;
#752 = VECTOR ( 'NONE', #218, 1000.000000000000000 ) ;
#753 = CARTESIAN_POINT ( 'NONE',  ( 0.4999999999999995559, 0.000000000000000000, 0.5750000000000005107 ) ) ;
#754 = VERTEX_POINT ( 'NONE', #386 ) ;
#755 = CARTESIAN_POINT ( 'NONE',  ( 0.9999999999999995559, 0.04999999999999991257, -0.6249999999999995559 ) ) ;
#756 = ORIENTED_EDGE ( 'NONE', *, *, #1017, .T. ) ;
#757 = PLANE ( 'NONE',  #364 ) ;
#758 = ORIENTED_EDGE ( 'NONE', *, *, #982, .T. ) ;
#759 = CARTESIAN_POINT ( 'NONE',  ( 0.4999999999999997780, 1.399999999999999911, -0.6249999999999995559 ) ) ;
#760 = ADVANCED_FACE ( 'NONE', ( #1098 ), #981, .F. ) ;
#761 = ORIENTED_EDGE ( 'NONE', *, *, #805, .F. ) ;
#762 = CARTESIAN_POINT ( 'NONE',  ( -0.4999999999999996669, 0.04999999999999991257, 0.6083333333333338366 ) ) ;
#763 = ADVANCED_FACE ( 'NONE', ( #1105 ), #588, .F. ) ;
#764 = DIRECTION ( 'NONE',  ( -8.673617379884036705E-17, 0.000000000000000000, -1.000000000000000000 ) ) ;
#765 = VECTOR ( 'NONE', #81, 1000.000000000000000 ) ;
#766 = VECTOR ( 'NONE', #123, 1000.000000000000000 ) ;
#767 = AXIS2_PLACEMENT_3D ( 'NONE', #1108, #1001, #794 ) ;
#768 = ORIENTED_EDGE ( 'NONE', *, *, #370, .T. ) ;
#769 = CARTESIAN_POINT ( 'NONE',  ( 0.9499999999999995115, 0.04999999999999991257, -0.6249999999999995559 ) ) ;
#770 = DIRECTION ( 'NONE',  ( -0.000000000000000000, 0.000000000000000000, -1.000000000000000000 ) ) ;
#771 = VECTOR ( 'NONE', #120, 1000.000000000000000 ) ;
#772 = AXIS2_PLACEMENT_3D ( 'NONE', #884, #7, #693 ) ;
#773 = ORIENTED_EDGE ( 'NONE', *, *, #1213, .T. ) ;
#774 = LINE ( 'NONE', #374, #765 ) ;
#775 = LINE ( 'NONE', #859, #208 ) ;
#776 = ADVANCED_FACE ( 'NONE', ( #511 ), #302, .T. ) ;
#777 = AXIS2_PLACEMENT_3D ( 'NONE', #973, #382, #873 ) ;
#778 = EDGE_LOOP ( 'NONE', ( #50, #1251, #28, #895 ) ) ;
#779 = CARTESIAN_POINT ( 'NONE',  ( -0.9499999999999995115, 1.399999999999999911, 0.6250000000000004441 ) ) ;
#780 = LINE ( 'NONE', #1078, #751 ) ;
#781 = CARTESIAN_POINT ( 'NONE',  ( -0.4999999999999997780, 1.399999999999999911, -0.5749999999999995115 ) ) ;
#782 = EDGE_CURVE ( 'NONE', #76, #602, #515, .T. ) ;
#783 = AXIS2_PLACEMENT_3D ( 'NONE', #625, #1030, #136 ) ;
#784 = VECTOR ( 'NONE', #995, 1000.000000000000000 ) ;
#785 = CARTESIAN_POINT ( 'NONE',  ( -0.9499999999999995115, 1.350000000000000089, -0.5749999999999995115 ) ) ;
#786 = DIRECTION ( 'NONE',  ( 0.000000000000000000, 1.000000000000000000, 0.000000000000000000 ) ) ;
#787 = ORIENTED_EDGE ( 'NONE', *, *, #479, .T. ) ;
#788 = CARTESIAN_POINT ( 'NONE',  ( -0.9499999999999995115, 0.000000000000000000, 0.000000000000000000 ) ) ;
#789 = DIRECTION ( 'NONE',  ( 0.000000000000000000, 0.000000000000000000, 1.000000000000000000 ) ) ;
#790 = CARTESIAN_POINT ( 'NONE',  ( -0.9499999999999995115, 1.350000000000000089, 0.5750000000000003997 ) ) ;
#791 = LINE ( 'NONE', #1186, #229 ) ;
#792 = EDGE_LOOP ( 'NONE', ( #454, #399, #366, #761, #95, #595, #381, #514 ) ) ;
#793 = LINE ( 'NONE', #603, #771 ) ;
#794 = DIRECTION ( 'NONE',  ( 0.000000000000000000, 0.000000000000000000, 1.000000000000000000 ) ) ;
#795 = EDGE_CURVE ( 'NONE', #953, #800, #32, .T. ) ;
#796 = EDGE_CURVE ( 'NONE', #591, #496, #791, .T. ) ;
#797 = DIRECTION ( 'NONE',  ( 0.000000000000000000, 1.000000000000000000, 0.000000000000000000 ) ) ;
#798 = FACE_OUTER_BOUND ( 'NONE', #877, .T. ) ;
#799 = EDGE_CURVE ( 'NONE', #754, #860, #1250, .T. ) ;
#800 = VERTEX_POINT ( 'NONE', #432 ) ;
#801 = CIRCLE ( 'NONE', #783, 0.03333333333333324267 ) ;
#802 = CARTESIAN_POINT ( 'NONE',  ( -0.4999999999999997780, 1.350000000000000089, -0.6249999999999995559 ) ) ;
#803 = CARTESIAN_POINT ( 'NONE',  ( -0.9499999999999995115, 1.350000000000000089, 0.000000000000000000 ) ) ;
#804 = DIRECTION ( 'NONE',  ( -1.000000000000000000, 0.000000000000000000, 0.000000000000000000 ) ) ;
#805 = EDGE_CURVE ( 'NONE', #684, #458, #1117, .T. ) ;
#806 = VERTEX_POINT ( 'NONE', #1125 ) ;
#807 = DIRECTION ( 'NONE',  ( 0.000000000000000000, -1.000000000000000000, 0.000000000000000000 ) ) ;
#808 = ADVANCED_FACE ( 'NONE', ( #533 ), #920, .T. ) ;
#809 = AXIS2_PLACEMENT_3D ( 'NONE', #535, #384, #789 ) ;
#810 = EDGE_LOOP ( 'NONE', ( #3, #137, #635, #1012 ) ) ;
#811 = CARTESIAN_POINT ( 'NONE',  ( -0.9999999999999995559, 1.399999999999999911, 0.5750000000000005107 ) ) ;
#812 = DIRECTION ( 'NONE',  ( 8.673617379884036705E-17, -0.000000000000000000, 1.000000000000000000 ) ) ;
#813 = ADVANCED_FACE ( 'NONE', ( #931 ), #139, .T. ) ;
#814 = ORIENTED_EDGE ( 'NONE', *, *, #105, .T. ) ;
#815 = CARTESIAN_POINT ( 'NONE',  ( -0.4999999999999995559, 0.04999999999999991257, 0.6250000000000004441 ) ) ;
#816 =( NAMED_UNIT ( * ) SI_UNIT ( $, .STERADIAN. ) SOLID_ANGLE_UNIT ( ) );
#817 = SURFACE_STYLE_FILL_AREA ( #885 ) ;
#818 = CARTESIAN_POINT ( 'NONE',  ( 0.000000000000000000, 1.399999999999999911, 0.000000000000000000 ) ) ;
#819 = VECTOR ( 'NONE', #879, 1000.000000000000000 ) ;
#820 = VERTEX_POINT ( 'NONE', #828 ) ;
#821 = CARTESIAN_POINT ( 'NONE',  ( 500000.0000000000582, 0.04999999999999991257, -0.6083333333767008133 ) ) ;
#822 = DIRECTION ( 'NONE',  ( 0.000000000000000000, 1.000000000000000000, 0.000000000000000000 ) ) ;
#823 = VECTOR ( 'NONE', #1020, 1000.000000000000000 ) ;
#824 = CIRCLE ( 'NONE', #262, 0.05000000000000002359 ) ;
#825 = DIRECTION ( 'NONE',  ( -1.000000000000000000, 0.000000000000000000, 0.000000000000000000 ) ) ;
#826 = ORIENTED_EDGE ( 'NONE', *, *, #795, .T. ) ;
#827 = EDGE_LOOP ( 'NONE', ( #271, #1206, #197, #268 ) ) ;
#828 = CARTESIAN_POINT ( 'NONE',  ( 0.4999999999881765689, 1.383333333333333526, 0.5750000000000005107 ) ) ;
#829 = DIRECTION ( 'NONE',  ( 1.000000000000000000, 0.000000000000000000, 0.000000000000000000 ) ) ;
#830 =( LENGTH_UNIT ( ) NAMED_UNIT ( * ) SI_UNIT ( .MILLI., .METRE. ) );
#831 = ORIENTED_EDGE ( 'NONE', *, *, #612, .F. ) ;
#832 = UNCERTAINTY_MEASURE_WITH_UNIT (LENGTH_MEASURE( 1.000000000000000082E-05 ), #328, 'distance_accuracy_value', 'NONE');
#833 = LINE ( 'NONE', #349, #238 ) ;
#834 = ORIENTED_EDGE ( 'NONE', *, *, #911, .F. ) ;
#835 = CIRCLE ( 'NONE', #735, 0.05000000000000002359 ) ;
#836 = ADVANCED_FACE ( 'NONE', ( #329 ), #1014, .T. ) ;
#837 = DIRECTION ( 'NONE',  ( 0.000000000000000000, 0.000000000000000000, -1.000000000000000000 ) ) ;
#838 = DIRECTION ( 'NONE',  ( 0.000000000000000000, 0.000000000000000000, -1.000000000000000000 ) ) ;
#839 = CARTESIAN_POINT ( 'NONE',  ( 0.4999999999881765689, 0.04999999999999991257, -0.6083333333333327264 ) ) ;
#840 = DIRECTION ( 'NONE',  ( 0.000000000000000000, 1.000000000000000000, 0.000000000000000000 ) ) ;
#841 = CARTESIAN_POINT ( 'NONE',  ( 0.9499999999999995115, 1.399999999999999911, -0.6249999999999995559 ) ) ;
#842 = ORIENTED_EDGE ( 'NONE', *, *, #1260, .T. ) ;
#843 = CARTESIAN_POINT ( 'NONE',  ( 0.9999999999999995559, 1.399999999999999911, 0.5750000000000005107 ) ) ;
#844 = VERTEX_POINT ( 'NONE', #737 ) ;
#845 = CARTESIAN_POINT ( 'NONE',  ( -0.9999999999999995559, 0.04999999999999991257, -0.6249999999999995559 ) ) ;
#846 = VECTOR ( 'NONE', #476, 1000.000000000000000 ) ;
#847 = AXIS2_PLACEMENT_3D ( 'NONE', #31, #804, #320 ) ;
#848 = LINE ( 'NONE', #347, #988 ) ;
#849 = DIRECTION ( 'NONE',  ( 0.000000000000000000, -1.000000000000000000, 0.000000000000000000 ) ) ;
#850 = ORIENTED_EDGE ( 'NONE', *, *, #653, .F. ) ;
#851 = DIRECTION ( 'NONE',  ( -1.000000000000000000, -0.000000000000000000, 8.673617379884036705E-17 ) ) ;
#852 = AXIS2_PLACEMENT_3D ( 'NONE', #580, #666, #177 ) ;
#853 = DIRECTION ( 'NONE',  ( -1.000000000000000000, 0.000000000000000000, 0.000000000000000000 ) ) ;
#854 = ADVANCED_FACE ( 'NONE', ( #517 ), #417, .T. ) ;
#855 = EDGE_CURVE ( 'NONE', #184, #343, #37, .T. ) ;
#856 = LINE ( 'NONE', #1058, #629 ) ;
#857 = ORIENTED_EDGE ( 'NONE', *, *, #163, .F. ) ;
#858 =( NAMED_UNIT ( * ) PLANE_ANGLE_UNIT ( ) SI_UNIT ( $, .RADIAN. ) );
#859 = CARTESIAN_POINT ( 'NONE',  ( 500000.0000000000582, 1.383333333333333526, -0.5750000000433674874 ) ) ;
#860 = VERTEX_POINT ( 'NONE', #132 ) ;
#861 = DIRECTION ( 'NONE',  ( -1.000000000000000000, 0.000000000000000000, -0.000000000000000000 ) ) ;
#862 = EDGE_LOOP ( 'NONE', ( #201, #106, #747 ) ) ;
#863 = DIRECTION ( 'NONE',  ( -0.000000000000000000, 1.000000000000000000, 0.000000000000000000 ) ) ;
#864 = AXIS2_PLACEMENT_3D ( 'NONE', #86, #272, #379 ) ;
#865 = AXIS2_PLACEMENT_3D ( 'NONE', #131, #897, #116 ) ;
#866 = ORIENTED_EDGE ( 'NONE', *, *, #1047, .T. ) ;
#867 = CARTESIAN_POINT ( 'NONE',  ( 0.4999999999999997780, 0.000000000000000000, -0.6249999999999995559 ) ) ;
#868 = EDGE_CURVE ( 'NONE', #130, #1171, #833, .T. ) ;
#869 = DIRECTION ( 'NONE',  ( 0.000000000000000000, 0.000000000000000000, -1.000000000000000000 ) ) ;
#870 = AXIS2_PLACEMENT_3D ( 'NONE', #497, #202, #8 ) ;
#871 = ORIENTED_EDGE ( 'NONE', *, *, #370, .F. ) ;
#872 = PRODUCT_DEFINITION ( 'UNKNOWN', '', #104, #937 ) ;
#873 = DIRECTION ( 'NONE',  ( 1.000000000000000000, 0.000000000000000000, 0.000000000000000000 ) ) ;
#874 = AXIS2_PLACEMENT_3D ( 'NONE', #392, #503, #12 ) ;
#875 = ORIENTED_EDGE ( 'NONE', *, *, #1023, .T. ) ;
#876 = CARTESIAN_POINT ( 'NONE',  ( -0.4999999999999996669, 1.350000000000000089, 0.6083333333333338366 ) ) ;
#877 = EDGE_LOOP ( 'NONE', ( #193, #121, #205, #21, #758, #1076, #756, #505 ) ) ;
#878 = AXIS2_PLACEMENT_3D ( 'NONE', #1104, #36, #1191 ) ;
#879 = DIRECTION ( 'NONE',  ( -0.000000000000000000, -0.000000000000000000, -1.000000000000000000 ) ) ;
#880 = EDGE_CURVE ( 'NONE', #14, #936, #344, .T. ) ;
#881 = DIRECTION ( 'NONE',  ( 0.000000000000000000, 1.000000000000000000, 0.000000000000000000 ) ) ;
#882 = STYLED_ITEM ( 'NONE', ( #1240 ), #952 ) ;
#883 = EDGE_CURVE ( 'NONE', #437, #1255, #938, .T. ) ;
#884 = CARTESIAN_POINT ( 'NONE',  ( -0.4999999999999995559, 0.04999999999999991257, 0.5750000000000003997 ) ) ;
#885 = FILL_AREA_STYLE ('',( #112 ) ) ;
#886 = EDGE_CURVE ( 'NONE', #687, #558, #55, .T. ) ;
#887 = DIRECTION ( 'NONE',  ( 0.000000000000000000, 0.000000000000000000, 1.000000000000000000 ) ) ;
#888 = VERTEX_POINT ( 'NONE', #166 ) ;
#889 = LINE ( 'NONE', #502, #118 ) ;
#890 = CIRCLE ( 'NONE', #646, 0.05000000000000002359 ) ;
#891 = ORIENTED_EDGE ( 'NONE', *, *, #68, .F. ) ;
#892 = DIRECTION ( 'NONE',  ( -0.000000000000000000, -0.000000000000000000, -1.000000000000000000 ) ) ;
#893 = EDGE_CURVE ( 'NONE', #184, #702, #546, .T. ) ;
#894 = CARTESIAN_POINT ( 'NONE',  ( 0.9999999999999995559, 0.04999999999999991257, 0.6250000000000004441 ) ) ;
#895 = ORIENTED_EDGE ( 'NONE', *, *, #1170, .F. ) ;
#896 = EDGE_CURVE ( 'NONE', #558, #1003, #927, .T. ) ;
#897 = DIRECTION ( 'NONE',  ( -1.000000000000000000, -0.000000000000000000, 8.673617379884036705E-17 ) ) ;
#898 = VERTEX_POINT ( 'NONE', #438 ) ;
#899 = AXIS2_PLACEMENT_3D ( 'NONE', #453, #551, #1141 ) ;
#900 = CARTESIAN_POINT ( 'NONE',  ( -0.9499999999999995115, 1.399999999999999911, -0.5749999999999995115 ) ) ;
#901 = EDGE_LOOP ( 'NONE', ( #1258, #330, #279, #119 ) ) ;
#902 = EDGE_CURVE ( 'NONE', #687, #334, #1087, .T. ) ;
#903 = CARTESIAN_POINT ( 'NONE',  ( -0.4999999999999997780, 0.000000000000000000, -0.6249999999999995559 ) ) ;
#904 = CARTESIAN_POINT ( 'NONE',  ( 0.4999999999999995559, 0.04999999999999991257, 0.6250000000000004441 ) ) ;
#905 = ORIENTED_EDGE ( 'NONE', *, *, #568, .T. ) ;
#906 = CARTESIAN_POINT ( 'NONE',  ( 0.9499999999999995115, 0.05000000000000000278, -0.5749999999999995115 ) ) ;
#907 =( GEOMETRIC_REPRESENTATION_CONTEXT ( 3 ) GLOBAL_UNCERTAINTY_ASSIGNED_CONTEXT ( ( #47 ) ) GLOBAL_UNIT_ASSIGNED_CONTEXT ( ( #29, #490, #1212 ) ) REPRESENTATION_CONTEXT ( 'NONE', 'WORKASPACE' ) );
#908 = VERTEX_POINT ( 'NONE', #656 ) ;
#909 = DIRECTION ( 'NONE',  ( 0.000000000000000000, 0.000000000000000000, 1.000000000000000000 ) ) ;
#910 = DIRECTION ( 'NONE',  ( 0.000000000000000000, 0.000000000000000000, -1.000000000000000000 ) ) ;
#911 = EDGE_CURVE ( 'NONE', #1003, #40, #240, .T. ) ;
#912 = DIRECTION ( 'NONE',  ( -0.000000000000000000, -1.000000000000000000, -0.000000000000000000 ) ) ;
#913 = ORIENTED_EDGE ( 'NONE', *, *, #80, .T. ) ;
#914 = FACE_OUTER_BOUND ( 'NONE', #1242, .T. ) ;
#915 = DIRECTION ( 'NONE',  ( 0.000000000000000000, 0.000000000000000000, -1.000000000000000000 ) ) ;
#916 = ORIENTED_EDGE ( 'NONE', *, *, #886, .F. ) ;
#917 = VECTOR ( 'NONE', #44, 1000.000000000000000 ) ;
#918 = ORIENTED_EDGE ( 'NONE', *, *, #237, .F. ) ;
#919 = DIRECTION ( 'NONE',  ( 0.000000000000000000, 0.000000000000000000, -1.000000000000000000 ) ) ;
#920 = SPHERICAL_SURFACE ( 'NONE', #1028, 0.05000000000000000278 ) ;
#921 = CIRCLE ( 'NONE', #361, 0.05000000000000002359 ) ;
#922 = AXIS2_PLACEMENT_3D ( 'NONE', #59, #1044, #1137 ) ;
#923 = DIRECTION ( 'NONE',  ( 0.000000000000000000, -1.000000000000000000, 0.000000000000000000 ) ) ;
#924 = LINE ( 'NONE', #1026, #1075 ) ;
#925 = EDGE_CURVE ( 'NONE', #1109, #558, #694, .T. ) ;
#926 = EDGE_LOOP ( 'NONE', ( #20, #126, #362 ) ) ;
#927 = LINE ( 'NONE', #755, #1192 ) ;
#928 = AXIS2_PLACEMENT_3D ( 'NONE', #388, #695, #616 ) ;
#929 = EDGE_LOOP ( 'NONE', ( #787, #1067, #831, #373 ) ) ;
#930 = FILL_AREA_STYLE_COLOUR ( '', #483 ) ;
#931 = FACE_OUTER_BOUND ( 'NONE', #1165, .T. ) ;
#932 = ADVANCED_FACE ( 'NONE', ( #946 ), #159, .T. ) ;
#933 = LINE ( 'NONE', #52, #63 ) ;
#934 = FACE_OUTER_BOUND ( 'NONE', #149, .T. ) ;
#935 = SURFACE_STYLE_FILL_AREA ( #537 ) ;
#936 = VERTEX_POINT ( 'NONE', #1040 ) ;
#937 = PRODUCT_DEFINITION_CONTEXT ( 'detailed design', #504, 'design' ) ;
#938 = LINE ( 'NONE', #148, #394 ) ;
#939 = ADVANCED_FACE ( 'NONE', ( #62 ), #742, .T. ) ;
#940 = ORIENTED_EDGE ( 'NONE', *, *, #255, .T. ) ;
#941 = CIRCLE ( 'NONE', #390, 0.05000000000000002359 ) ;
#942 = DIRECTION ( 'NONE',  ( -0.000000000000000000, 1.000000000000000000, -0.000000000000000000 ) ) ;
#943 = ADVANCED_FACE ( 'NONE', ( #259 ), #643, .F. ) ;
#944 = EDGE_CURVE ( 'NONE', #602, #281, #954, .T. ) ;
#945 = DIRECTION ( 'NONE',  ( 0.000000000000000000, 0.000000000000000000, -1.000000000000000000 ) ) ;
#946 = FACE_OUTER_BOUND ( 'NONE', #778, .T. ) ;
#947 = ORIENTED_EDGE ( 'NONE', *, *, #1166, .T. ) ;
#948 = CYLINDRICAL_SURFACE ( 'NONE', #527, 0.05000000000000002359 ) ;
#949 = APPLICATION_PROTOCOL_DEFINITION ( 'draft international standard', 'automotive_design', 1998, #1252 ) ;
#950 = EDGE_CURVE ( 'NONE', #978, #898, #1243, .T. ) ;
#951 = DIRECTION ( 'NONE',  ( 0.000000000000000000, 0.000000000000000000, 1.000000000000000000 ) ) ;
#952 = ADVANCED_BREP_SHAPE_REPRESENTATION ( 'U2J-Q3-24-0805DG', ( #1128, #267, #692, #660 ), #89 ) ;
#953 = VERTEX_POINT ( 'NONE', #1148 ) ;
#954 = LINE ( 'NONE', #446, #341 ) ;
#955 = ORIENTED_EDGE ( 'NONE', *, *, #896, .F. ) ;
#956 = FILL_AREA_STYLE ('',( #930 ) ) ;
#957 = PRODUCT_CONTEXT ( 'NONE', #1252, 'mechanical' ) ;
#958 = CARTESIAN_POINT ( 'NONE',  ( 0.9999999999999995559, 0.04999999999999991257, -0.5749999999999995115 ) ) ;
#959 = ORIENTED_EDGE ( 'NONE', *, *, #902, .F. ) ;
#960 = DIRECTION ( 'NONE',  ( 0.000000000000000000, 0.000000000000000000, -1.000000000000000000 ) ) ;
#961 = ORIENTED_EDGE ( 'NONE', *, *, #145, .T. ) ;
#962 = PRESENTATION_LAYER_ASSIGNMENT (  '', '', ( #172 ) ) ;
#963 = FACE_OUTER_BOUND ( 'NONE', #345, .T. ) ;
#964 = EDGE_LOOP ( 'NONE', ( #1083, #834, #955, #916 ) ) ;
#965 = DIRECTION ( 'NONE',  ( 0.000000000000000000, 0.000000000000000000, -1.000000000000000000 ) ) ;
#966 = DIRECTION ( 'NONE',  ( -1.000000000000000000, 0.000000000000000000, -0.000000000000000000 ) ) ;
#967 = CARTESIAN_POINT ( 'NONE',  ( 0.9499999999999995115, 1.350000000000000089, -0.5749999999999995115 ) ) ;
#968 = CIRCLE ( 'NONE', #1236, 0.03333333333333324267 ) ;
#969 = CARTESIAN_POINT ( 'NONE',  ( -0.9499999999999995115, 0.05000000000000000278, 0.5750000000000003997 ) ) ;
#970 = EDGE_CURVE ( 'NONE', #250, #820, #856, .T. ) ;
#971 = CARTESIAN_POINT ( 'NONE',  ( 0.9999999999999995559, 1.399999999999999911, -0.5749999999999995115 ) ) ;
#972 = AXIS2_PLACEMENT_3D ( 'NONE', #92, #1279, #689 ) ;
#973 = CARTESIAN_POINT ( 'NONE',  ( 0.9499999999999995115, 1.350000000000000089, -0.5749999999999995115 ) ) ;
#974 = CIRCLE ( 'NONE', #180, 0.05000000000000002359 ) ;
#975 = AXIS2_PLACEMENT_3D ( 'NONE', #204, #1102, #212 ) ;
#976 = SPHERICAL_SURFACE ( 'NONE', #189, 0.05000000000000000278 ) ;
#977 = LINE ( 'NONE', #94, #153 ) ;
#978 = VERTEX_POINT ( 'NONE', #459 ) ;
#979 = CARTESIAN_POINT ( 'NONE',  ( 0.000000000000000000, 0.000000000000000000, -0.5749999999999995115 ) ) ;
#980 = ORIENTED_EDGE ( 'NONE', *, *, #950, .T. ) ;
#981 = PLANE ( 'NONE',  #619 ) ;
#982 = EDGE_CURVE ( 'NONE', #1042, #637, #801, .T. ) ;
#983 = AXIS2_PLACEMENT_3D ( 'NONE', #276, #176, #586 ) ;
#984 = EDGE_CURVE ( 'NONE', #547, #754, #429, .T. ) ;
#985 = ORIENTED_EDGE ( 'NONE', *, *, #911, .T. ) ;
#986 = VECTOR ( 'NONE', #423, 1000.000000000000000 ) ;
#987 = CARTESIAN_POINT ( 'NONE',  ( -0.4999999999999997780, 0.000000000000000000, -0.5749999999999995115 ) ) ;
#988 = VECTOR ( 'NONE', #252, 1000.000000000000000 ) ;
#989 = DIRECTION ( 'NONE',  ( -1.000000000000000000, 0.000000000000000000, 0.000000000000000000 ) ) ;
#990 = VECTOR ( 'NONE', #740, 1000.000000000000000 ) ;
#991 = ORIENTED_EDGE ( 'NONE', *, *, #548, .F. ) ;
#992 = CARTESIAN_POINT ( 'NONE',  ( 500000.0000000000582, 0.01666666666666662133, 0.5749999999566325348 ) ) ;
#993 = CARTESIAN_POINT ( 'NONE',  ( 500000.0000000000582, 1.350000000000000089, 0.6083333332899657497 ) ) ;
#994 = ORIENTED_EDGE ( 'NONE', *, *, #342, .T. ) ;
#995 = DIRECTION ( 'NONE',  ( -1.000000000000000000, -0.000000000000000000, 8.673617379884036705E-17 ) ) ;
#996 = CARTESIAN_POINT ( 'NONE',  ( 0.9499999999999995115, 1.350000000000000089, 0.5750000000000003997 ) ) ;
#997 = AXIS2_PLACEMENT_3D ( 'NONE', #967, #85, #469 ) ;
#998 = VERTEX_POINT ( 'NONE', #636 ) ;
#999 = CYLINDRICAL_SURFACE ( 'NONE', #303, 0.05000000000000002359 ) ;
#1000 = EDGE_CURVE ( 'NONE', #496, #130, #117, .T. ) ;
#1001 = DIRECTION ( 'NONE',  ( 1.000000000000000000, 0.000000000000000000, 0.000000000000000000 ) ) ;
#1002 = CYLINDRICAL_SURFACE ( 'NONE', #865, 0.03333333333333334675 ) ;
#1003 = VERTEX_POINT ( 'NONE', #464 ) ;
#1004 = AXIS2_PLACEMENT_3D ( 'NONE', #1185, #677, #471 ) ;
#1005 = CARTESIAN_POINT ( 'NONE',  ( -0.9999999999999995559, 1.399999999999999911, -0.5749999999999995115 ) ) ;
#1006 = CIRCLE ( 'NONE', #1156, 0.05000000000000002359 ) ;
#1007 = EDGE_LOOP ( 'NONE', ( #407, #186, #161, #1053 ) ) ;
#1008 = CYLINDRICAL_SURFACE ( 'NONE', #466, 0.05000000000000002359 ) ;
#1009 = SURFACE_STYLE_USAGE ( .BOTH. , #199 ) ;
#1010 = AXIS2_PLACEMENT_3D ( 'NONE', #83, #77, #467 ) ;
#1011 = CARTESIAN_POINT ( 'NONE',  ( 0.4999999999999997780, 0.000000000000000000, -0.5749999999999995115 ) ) ;
#1012 = ORIENTED_EDGE ( 'NONE', *, *, #662, .F. ) ;
#1013 = PLANE ( 'NONE',  #260 ) ;
#1014 = CYLINDRICAL_SURFACE ( 'NONE', #358, 0.05000000000000002359 ) ;
#1015 = LINE ( 'NONE', #1005, #144 ) ;
#1016 = AXIS2_PLACEMENT_3D ( 'NONE', #607, #124, #910 ) ;
#1017 = EDGE_CURVE ( 'NONE', #888, #17, #968, .T. ) ;
#1018 = ORIENTED_EDGE ( 'NONE', *, *, #796, .T. ) ;
#1019 = VERTEX_POINT ( 'NONE', #987 ) ;
#1020 = DIRECTION ( 'NONE',  ( -1.734723475976807094E-16, -0.000000000000000000, -1.000000000000000000 ) ) ;
#1021 = DIRECTION ( 'NONE',  ( 1.000000000000000000, -0.000000000000000000, -0.000000000000000000 ) ) ;
#1022 = DIRECTION ( 'NONE',  ( 0.000000000000000000, -1.000000000000000000, 0.000000000000000000 ) ) ;
#1023 = EDGE_CURVE ( 'NONE', #953, #14, #1175, .T. ) ;
#1024 = AXIS2_PLACEMENT_3D ( 'NONE', #597, #1190, #219 ) ;
#1025 = ADVANCED_FACE ( 'NONE', ( #368 ), #266, .F. ) ;
#1026 = CARTESIAN_POINT ( 'NONE',  ( 0.9999999999999995559, 0.04999999999999991257, -0.6249999999999995559 ) ) ;
#1027 = ORIENTED_EDGE ( 'NONE', *, *, #540, .T. ) ;
#1028 = AXIS2_PLACEMENT_3D ( 'NONE', #628, #1224, #424 ) ;
#1029 = UNCERTAINTY_MEASURE_WITH_UNIT (LENGTH_MEASURE( 1.000000000000000082E-05 ), #140, 'distance_accuracy_value', 'NONE');
#1030 = DIRECTION ( 'NONE',  ( 1.000000000000000000, 0.000000000000000000, 1.734723475976807094E-16 ) ) ;
#1031 = EDGE_CURVE ( 'NONE', #844, #1188, #1272, .T. ) ;
#1032 = ORIENTED_EDGE ( 'NONE', *, *, #805, .T. ) ;
#1033 = DIRECTION ( 'NONE',  ( 0.000000000000000000, 0.000000000000000000, -1.000000000000000000 ) ) ;
#1034 = MECHANICAL_DESIGN_GEOMETRIC_PRESENTATION_REPRESENTATION (  '', ( #1214 ), #572 ) ;
#1035 = AXIS2_PLACEMENT_3D ( 'NONE', #1118, #157, #53 ) ;
#1036 = ORIENTED_EDGE ( 'NONE', *, *, #581, .F. ) ;
#1037 = CARTESIAN_POINT ( 'NONE',  ( -0.4999999999999996669, 1.350000000000000089, -0.5749999999999994005 ) ) ;
#1038 = ADVANCED_FACE ( 'NONE', ( #688 ), #171, .T. ) ;
#1039 = EDGE_LOOP ( 'NONE', ( #1027, #905, #1149 ) ) ;
#1040 = CARTESIAN_POINT ( 'NONE',  ( -0.9499999999999995115, 0.04999999999999991257, 0.6250000000000004441 ) ) ;
#1041 = EDGE_CURVE ( 'NONE', #239, #908, #774, .T. ) ;
#1042 = VERTEX_POINT ( 'NONE', #683 ) ;
#1043 = CARTESIAN_POINT ( 'NONE',  ( 500000.0000000000582, 1.350000000000000089, 0.6083333332899657497 ) ) ;
#1044 = DIRECTION ( 'NONE',  ( -1.000000000000000000, 0.000000000000000000, 1.734723475976807094E-16 ) ) ;
#1045 = ORIENTED_EDGE ( 'NONE', *, *, #26, .F. ) ;
#1046 = DIRECTION ( 'NONE',  ( 0.000000000000000000, 1.000000000000000000, 0.000000000000000000 ) ) ;
#1047 = EDGE_CURVE ( 'NONE', #800, #130, #444, .T. ) ;
#1048 = EDGE_LOOP ( 'NONE', ( #707, #626, #1271 ) ) ;
#1049 = FACE_OUTER_BOUND ( 'NONE', #630, .T. ) ;
#1050 = FACE_OUTER_BOUND ( 'NONE', #485, .T. ) ;
#1051 = ORIENTED_EDGE ( 'NONE', *, *, #896, .T. ) ;
#1052 = DIRECTION ( 'NONE',  ( 0.000000000000000000, 1.000000000000000000, 0.000000000000000000 ) ) ;
#1053 = ORIENTED_EDGE ( 'NONE', *, *, #339, .F. ) ;
#1054 = EDGE_CURVE ( 'NONE', #547, #1188, #562, .T. ) ;
#1055 = LINE ( 'NONE', #845, #508 ) ;
#1056 = VECTOR ( 'NONE', #851, 1000.000000000000000 ) ;
#1057 = DIRECTION ( 'NONE',  ( -0.000000000000000000, -0.000000000000000000, -1.000000000000000000 ) ) ;
#1058 = CARTESIAN_POINT ( 'NONE',  ( 0.4999999999881765689, 1.383333333333333526, -0.5750000001301035502 ) ) ;
#1059 = ORIENTED_EDGE ( 'NONE', *, *, #16, .F. ) ;
#1060 = DIRECTION ( 'NONE',  ( -1.000000000000000000, 0.000000000000000000, 0.000000000000000000 ) ) ;
#1061 =( GEOMETRIC_REPRESENTATION_CONTEXT ( 3 ) GLOBAL_UNCERTAINTY_ASSIGNED_CONTEXT ( ( #1029 ) ) GLOBAL_UNIT_ASSIGNED_CONTEXT ( ( #140, #243, #1136 ) ) REPRESENTATION_CONTEXT ( 'NONE', 'WORKASPACE' ) );
#1062 = CARTESIAN_POINT ( 'NONE',  ( -0.9999999999999995559, 0.04999999999999991257, -0.5749999999999995115 ) ) ;
#1063 = DIRECTION ( 'NONE',  ( 0.000000000000000000, 1.000000000000000000, -0.000000000000000000 ) ) ;
#1064 = VECTOR ( 'NONE', #1111, 1000.000000000000000 ) ;
#1065 = SPHERICAL_SURFACE ( 'NONE', #997, 0.05000000000000000278 ) ;
#1066 = EDGE_CURVE ( 'NONE', #734, #184, #61, .T. ) ;
#1067 = ORIENTED_EDGE ( 'NONE', *, *, #270, .F. ) ;
#1068 = DIRECTION ( 'NONE',  ( 0.000000000000000000, 0.000000000000000000, 1.000000000000000000 ) ) ;
#1069 = CARTESIAN_POINT ( 'NONE',  ( 0.9499999999999995115, 1.350000000000000089, -0.6249999999999995559 ) ) ;
#1070 = DIRECTION ( 'NONE',  ( -1.000000000000000000, 0.000000000000000000, 0.000000000000000000 ) ) ;
#1071 = VECTOR ( 'NONE', #335, 1000.000000000000000 ) ;
#1072 = FACE_OUTER_BOUND ( 'NONE', #1039, .T. ) ;
#1073 = AXIS2_PLACEMENT_3D ( 'NONE', #736, #837, #966 ) ;
#1074 = CARTESIAN_POINT ( 'NONE',  ( 0.4999999999881765689, 0.01666666666666662133, 0.5750000000000006217 ) ) ;
#1075 = VECTOR ( 'NONE', #427, 1000.000000000000000 ) ;
#1076 = ORIENTED_EDGE ( 'NONE', *, *, #548, .T. ) ;
#1077 = DIRECTION ( 'NONE',  ( 0.000000000000000000, 0.000000000000000000, 1.000000000000000000 ) ) ;
#1078 = CARTESIAN_POINT ( 'NONE',  ( -0.4999999999999997780, 1.399999999999999911, -0.6249999999999995559 ) ) ;
#1079 = EDGE_CURVE ( 'NONE', #496, #522, #1084, .T. ) ;
#1080 = EDGE_CURVE ( 'NONE', #754, #844, #1172, .T. ) ;
#1081 = FACE_OUTER_BOUND ( 'NONE', #101, .T. ) ;
#1082 = PRODUCT ( 'U2J-Q3-24-0805DG', 'U2J-Q3-24-0805DG', '', ( #957 ) ) ;
#1083 = ORIENTED_EDGE ( 'NONE', *, *, #1253, .F. ) ;
#1084 = LINE ( 'NONE', #779, #1153 ) ;
#1085 = DIRECTION ( 'NONE',  ( 0.000000000000000000, 0.000000000000000000, 1.000000000000000000 ) ) ;
#1086 = DIRECTION ( 'NONE',  ( -1.000000000000000000, -0.000000000000000000, -0.000000000000000000 ) ) ;
#1087 = CIRCLE ( 'NONE', #525, 0.05000000000000002359 ) ;
#1088 = ORIENTED_EDGE ( 'NONE', *, *, #465, .T. ) ;
#1089 = DIRECTION ( 'NONE',  ( 0.000000000000000000, 0.000000000000000000, 1.000000000000000000 ) ) ;
#1090 = CIRCLE ( 'NONE', #587, 0.05000000000000002359 ) ;
#1091 = LINE ( 'NONE', #821, #766 ) ;
#1092 = ADVANCED_FACE ( 'NONE', ( #1160 ), #187, .F. ) ;
#1093 = AXIS2_PLACEMENT_3D ( 'NONE', #596, #1089, #412 ) ;
#1094 = ORIENTED_EDGE ( 'NONE', *, *, #1166, .F. ) ;
#1095 = CARTESIAN_POINT ( 'NONE',  ( 0.4999999999881765689, 1.350000000000000089, 0.6083333333333338366 ) ) ;
#1096 = EDGE_LOOP ( 'NONE', ( #1121, #649, #393, #647, #493, #857, #980, #1229 ) ) ;
#1097 = DIRECTION ( 'NONE',  ( 1.000000000000000000, 0.000000000000000000, 0.000000000000000000 ) ) ;
#1098 = FACE_OUTER_BOUND ( 'NONE', #326, .T. ) ;
#1099 = VECTOR ( 'NONE', #1157, 1000.000000000000000 ) ;
#1100 = ADVANCED_FACE ( 'NONE', ( #1072 ), #976, .T. ) ;
#1101 = ORIENTED_EDGE ( 'NONE', *, *, #664, .T. ) ;
#1102 = DIRECTION ( 'NONE',  ( 0.000000000000000000, 0.000000000000000000, -1.000000000000000000 ) ) ;
#1103 = ORIENTED_EDGE ( 'NONE', *, *, #701, .F. ) ;
#1104 = CARTESIAN_POINT ( 'NONE',  ( 0.4999999999881765689, 1.350000000000000089, 0.5750000000000005107 ) ) ;
#1105 = FACE_OUTER_BOUND ( 'NONE', #107, .T. ) ;
#1106 = SURFACE_STYLE_USAGE ( .BOTH. , #1189 ) ;
#1107 = AXIS2_PLACEMENT_3D ( 'NONE', #150, #337, #919 ) ;
#1108 = CARTESIAN_POINT ( 'NONE',  ( 0.9999999999999995559, 0.04999999999999991257, -0.5749999999999995115 ) ) ;
#1109 = VERTEX_POINT ( 'NONE', #769 ) ;
#1110 = FACE_OUTER_BOUND ( 'NONE', #901, .T. ) ;
#1111 = DIRECTION ( 'NONE',  ( 0.000000000000000000, 0.000000000000000000, 1.000000000000000000 ) ) ;
#1112 = EDGE_CURVE ( 'NONE', #702, #547, #1113, .T. ) ;
#1113 = CIRCLE ( 'NONE', #704, 0.05000000000000002359 ) ;
#1114 = ORIENTED_EDGE ( 'NONE', *, *, #383, .T. ) ;
#1115 = EDGE_CURVE ( 'NONE', #734, #256, #96, .T. ) ;
#1116 = DIRECTION ( 'NONE',  ( 1.000000000000000000, 0.000000000000000000, 1.734723475976807094E-16 ) ) ;
#1117 = LINE ( 'NONE', #730, #917 ) ;
#1118 = CARTESIAN_POINT ( 'NONE',  ( 0.000000000000000000, 1.399999999999999911, 0.000000000000000000 ) ) ;
#1119 = EDGE_CURVE ( 'NONE', #888, #458, #317, .T. ) ;
#1120 = AXIS2_PLACEMENT_3D ( 'NONE', #555, #825, #1219 ) ;
#1121 = ORIENTED_EDGE ( 'NONE', *, *, #1054, .F. ) ;
#1122 = DIRECTION ( 'NONE',  ( 0.000000000000000000, -1.000000000000000000, -0.000000000000000000 ) ) ;
#1123 = ORIENTED_EDGE ( 'NONE', *, *, #33, .T. ) ;
#1124 = PRESENTATION_STYLE_ASSIGNMENT (( #1239 ) ) ;
#1125 = CARTESIAN_POINT ( 'NONE',  ( -0.9499999999999995115, 0.000000000000000000, -0.5749999999999995115 ) ) ;
#1126 = ORIENTED_EDGE ( 'NONE', *, *, #1000, .F. ) ;
#1127 = DIRECTION ( 'NONE',  ( -1.000000000000000000, 0.000000000000000000, 0.000000000000000000 ) ) ;
#1128 = MANIFOLD_SOLID_BREP ( 'Fillet1', #1268 ) ;
#1129 = VECTOR ( 'NONE', #401, 1000.000000000000000 ) ;
#1130 = EDGE_CURVE ( 'NONE', #844, #558, #974, .T. ) ;
#1131 = DIRECTION ( 'NONE',  ( -1.000000000000000000, 0.000000000000000000, 0.000000000000000000 ) ) ;
#1132 = ORIENTED_EDGE ( 'NONE', *, *, #190, .T. ) ;
#1133 = AXIS2_PLACEMENT_3D ( 'NONE', #249, #1237, #1152 ) ;
#1134 = DIRECTION ( 'NONE',  ( 0.000000000000000000, -1.000000000000000000, 0.000000000000000000 ) ) ;
#1135 = ORIENTED_EDGE ( 'NONE', *, *, #1263, .T. ) ;
#1136 =( NAMED_UNIT ( * ) SI_UNIT ( $, .STERADIAN. ) SOLID_ANGLE_UNIT ( ) );
#1137 = DIRECTION ( 'NONE',  ( 1.734723475976807094E-16, 0.000000000000000000, 1.000000000000000000 ) ) ;
#1138 = ADVANCED_FACE ( 'NONE', ( #125 ), #223, .T. ) ;
#1139 = CIRCLE ( 'NONE', #1024, 0.05000000000000002359 ) ;
#1140 = ORIENTED_EDGE ( 'NONE', *, *, #84, .F. ) ;
#1141 = DIRECTION ( 'NONE',  ( 0.000000000000000000, 0.000000000000000000, 1.000000000000000000 ) ) ;
#1142 = VECTOR ( 'NONE', #333, 1000.000000000000000 ) ;
#1143 = ORIENTED_EDGE ( 'NONE', *, *, #1023, .F. ) ;
#1144 = CARTESIAN_POINT ( 'NONE',  ( 0.4999999999881765689, 1.383333333333333526, -0.5749999999999994005 ) ) ;
#1145 = CIRCLE ( 'NONE', #772, 0.05000000000000002359 ) ;
#1146 = CARTESIAN_POINT ( 'NONE',  ( -0.4999999999999996669, 0.04999999999999991257, 0.5750000000000005107 ) ) ;
#1147 = ORIENTED_EDGE ( 'NONE', *, *, #2, .T. ) ;
#1148 = CARTESIAN_POINT ( 'NONE',  ( -0.9999999999999995559, 1.350000000000000089, 0.5750000000000003997 ) ) ;
#1149 = ORIENTED_EDGE ( 'NONE', *, *, #479, .F. ) ;
#1150 =( NAMED_UNIT ( * ) SI_UNIT ( $, .STERADIAN. ) SOLID_ANGLE_UNIT ( ) );
#1151 = DIRECTION ( 'NONE',  ( 0.000000000000000000, 0.000000000000000000, -1.000000000000000000 ) ) ;
#1152 = DIRECTION ( 'NONE',  ( 0.000000000000000000, 0.000000000000000000, -1.000000000000000000 ) ) ;
#1153 = VECTOR ( 'NONE', #1265, 1000.000000000000000 ) ;
#1154 = ORIENTED_EDGE ( 'NONE', *, *, #1041, .T. ) ;
#1155 = PLANE ( 'NONE',  #1073 ) ;
#1156 = AXIS2_PLACEMENT_3D ( 'NONE', #1232, #433, #516 ) ;
#1157 = DIRECTION ( 'NONE',  ( -1.000000000000000000, -0.000000000000000000, 8.673617379884036705E-17 ) ) ;
#1158 = AXIS2_PLACEMENT_3D ( 'NONE', #66, #745, #945 ) ;
#1159 = ORIENTED_EDGE ( 'NONE', *, *, #868, .T. ) ;
#1160 = FACE_OUTER_BOUND ( 'NONE', #1096, .T. ) ;
#1161 = VERTEX_POINT ( 'NONE', #1095 ) ;
#1162 = MECHANICAL_DESIGN_GEOMETRIC_PRESENTATION_REPRESENTATION (  '', ( #512 ), #907 ) ;
#1163 = EDGE_CURVE ( 'NONE', #458, #1264, #405, .T. ) ;
#1164 = CARTESIAN_POINT ( 'NONE',  ( 500000.0000000000582, 0.04999999999999991257, 0.6083333332899657497 ) ) ;
#1165 = EDGE_LOOP ( 'NONE', ( #447, #521, #1147, #842 ) ) ;
#1166 = EDGE_CURVE ( 'NONE', #800, #556, #1015, .T. ) ;
#1167 = DIRECTION ( 'NONE',  ( 1.734723475976807094E-16, -0.000000000000000000, -1.000000000000000000 ) ) ;
#1168 = VECTOR ( 'NONE', #1174, 1000.000000000000000 ) ;
#1169 = CYLINDRICAL_SURFACE ( 'NONE', #477, 0.03333333333333324267 ) ;
#1170 = EDGE_CURVE ( 'NONE', #637, #684, #290, .T. ) ;
#1171 = VERTEX_POINT ( 'NONE', #802 ) ;
#1172 = LINE ( 'NONE', #671, #819 ) ;
#1173 = DIRECTION ( 'NONE',  ( -1.734723475976807094E-16, -0.000000000000000000, -1.000000000000000000 ) ) ;
#1174 = DIRECTION ( 'NONE',  ( 1.000000000000000000, -0.000000000000000000, -0.000000000000000000 ) ) ;
#1175 = CIRCLE ( 'NONE', #673, 0.05000000000000002359 ) ;
#1176 = AXIS2_PLACEMENT_3D ( 'NONE', #600, #797, #494 ) ;
#1177 = EDGE_CURVE ( 'NONE', #953, #522, #1244, .T. ) ;
#1178 = ORIENTED_EDGE ( 'NONE', *, *, #1054, .T. ) ;
#1179 = DIRECTION ( 'NONE',  ( 1.000000000000000000, 0.000000000000000000, 1.734723475976807094E-16 ) ) ;
#1180 = CARTESIAN_POINT ( 'NONE',  ( 0.9499999999999995115, 1.399999999999999911, 0.5750000000000003997 ) ) ;
#1181 = ORIENTED_EDGE ( 'NONE', *, *, #594, .F. ) ;
#1182 = VECTOR ( 'NONE', #887, 1000.000000000000000 ) ;
#1183 = LINE ( 'NONE', #173, #1187 ) ;
#1184 = CARTESIAN_POINT ( 'NONE',  ( -0.9499999999999995115, 1.350000000000000089, 0.6250000000000004441 ) ) ;
#1185 = CARTESIAN_POINT ( 'NONE',  ( 0.9499999999999995115, 1.350000000000000089, 0.000000000000000000 ) ) ;
#1186 = CARTESIAN_POINT ( 'NONE',  ( -0.9999999999999995559, 1.399999999999999911, -0.5749999999999995115 ) ) ;
#1187 = VECTOR ( 'NONE', #863, 1000.000000000000000 ) ;
#1188 = VERTEX_POINT ( 'NONE', #1011 ) ;
#1189 = SURFACE_SIDE_STYLE ('',( #817 ) ) ;
#1190 = DIRECTION ( 'NONE',  ( 1.000000000000000000, -0.000000000000000000, -1.734723475976807094E-16 ) ) ;
#1191 = DIRECTION ( 'NONE',  ( 0.000000000000000000, 0.000000000000000000, -1.000000000000000000 ) ) ;
#1192 = VECTOR ( 'NONE', #648, 1000.000000000000000 ) ;
#1193 = ORIENTED_EDGE ( 'NONE', *, *, #925, .T. ) ;
#1194 = FACE_OUTER_BOUND ( 'NONE', #64, .T. ) ;
#1195 = AXIS2_PLACEMENT_3D ( 'NONE', #1146, #1241, #1151 ) ;
#1196 = FACE_OUTER_BOUND ( 'NONE', #827, .T. ) ;
#1197 = ORIENTED_EDGE ( 'NONE', *, *, #105, .F. ) ;
#1198 = LINE ( 'NONE', #903, #823 ) ;
#1199 = DIRECTION ( 'NONE',  ( 1.000000000000000000, 0.000000000000000000, -8.673617379884036705E-17 ) ) ;
#1200 = AXIS2_PLACEMENT_3D ( 'NONE', #162, #553, #70 ) ;
#1201 = ORIENTED_EDGE ( 'NONE', *, *, #925, .F. ) ;
#1202 = ORIENTED_EDGE ( 'NONE', *, *, #68, .T. ) ;
#1203 = CARTESIAN_POINT ( 'NONE',  ( -0.9999999999999995559, 1.399999999999999911, -0.6249999999999995559 ) ) ;
#1204 = CARTESIAN_POINT ( 'NONE',  ( -0.4999999999999996669, 1.383333333333333526, -0.5749999999999994005 ) ) ;
#1205 = AXIS2_PLACEMENT_3D ( 'NONE', #23, #812, #1199 ) ;
#1206 = ORIENTED_EDGE ( 'NONE', *, *, #855, .F. ) ;
#1207 = DIRECTION ( 'NONE',  ( -1.000000000000000000, -0.000000000000000000, 8.673617379884036705E-17 ) ) ;
#1208 = CARTESIAN_POINT ( 'NONE',  ( 0.9499999999999995115, 1.399999999999999911, 0.6250000000000004441 ) ) ;
#1209 = ORIENTED_EDGE ( 'NONE', *, *, #653, .T. ) ;
#1210 = CARTESIAN_POINT ( 'NONE',  ( 0.9499999999999995115, 0.04999999999999991257, -0.5749999999999995115 ) ) ;
#1211 = CARTESIAN_POINT ( 'NONE',  ( 0.9499999999999995115, 1.399999999999999911, -0.5749999999999995115 ) ) ;
#1212 =( NAMED_UNIT ( * ) SI_UNIT ( $, .STERADIAN. ) SOLID_ANGLE_UNIT ( ) );
#1213 = EDGE_CURVE ( 'NONE', #1171, #239, #194, .T. ) ;
#1214 = STYLED_ITEM ( 'NONE', ( #1124 ), #267 ) ;
#1215 = ADVANCED_FACE ( 'NONE', ( #1194 ), #34, .F. ) ;
#1216 = CIRCLE ( 'NONE', #297, 0.05000000000000002359 ) ;
#1217 = SPHERICAL_SURFACE ( 'NONE', #160, 0.05000000000000000278 ) ;
#1218 = DIRECTION ( 'NONE',  ( 0.000000000000000000, 0.000000000000000000, 1.000000000000000000 ) ) ;
#1219 = DIRECTION ( 'NONE',  ( 0.000000000000000000, 0.000000000000000000, -1.000000000000000000 ) ) ;
#1220 = PRESENTATION_LAYER_ASSIGNMENT (  '', '', ( #882 ) ) ;
#1221 = VERTEX_POINT ( 'NONE', #129 ) ;
#1222 = ORIENTED_EDGE ( 'NONE', *, *, #24, .T. ) ;
#1223 = LINE ( 'NONE', #750, #217 ) ;
#1224 = DIRECTION ( 'NONE',  ( 0.000000000000000000, -1.000000000000000000, 0.000000000000000000 ) ) ;
#1225 = FACE_OUTER_BOUND ( 'NONE', #146, .T. ) ;
#1226 = AXIS2_PLACEMENT_3D ( 'NONE', #731, #323, #228 ) ;
#1227 = ORIENTED_EDGE ( 'NONE', *, *, #886, .T. ) ;
#1228 = CARTESIAN_POINT ( 'NONE',  ( 0.000000000000000000, 0.000000000000000000, 0.5750000000000003997 ) ) ;
#1229 = ORIENTED_EDGE ( 'NONE', *, *, #113, .F. ) ;
#1230 = CARTESIAN_POINT ( 'NONE',  ( 0.4999999999999997780, 1.399999999999999911, -0.5749999999999995115 ) ) ;
#1231 = EDGE_CURVE ( 'NONE', #463, #60, #793, .T. ) ;
#1232 = CARTESIAN_POINT ( 'NONE',  ( -0.4999999999999997780, 0.04999999999999991257, -0.5749999999999995115 ) ) ;
#1233 = DIRECTION ( 'NONE',  ( 0.000000000000000000, 0.000000000000000000, -1.000000000000000000 ) ) ;
#1234 = CARTESIAN_POINT ( 'NONE',  ( 0.9499999999999995115, 1.350000000000000089, 0.5750000000000003997 ) ) ;
#1235 = ORIENTED_EDGE ( 'NONE', *, *, #633, .T. ) ;
#1236 = AXIS2_PLACEMENT_3D ( 'NONE', #486, #178, #965 ) ;
#1237 = DIRECTION ( 'NONE',  ( 0.000000000000000000, -1.000000000000000000, 0.000000000000000000 ) ) ;
#1238 = ORIENTED_EDGE ( 'NONE', *, *, #563, .T. ) ;
#1239 = SURFACE_STYLE_USAGE ( .BOTH. , #351 ) ;
#1240 = PRESENTATION_STYLE_ASSIGNMENT (( #156 ) ) ;
#1241 = DIRECTION ( 'NONE',  ( 1.000000000000000000, 0.000000000000000000, -8.673617379884036705E-17 ) ) ;
#1242 = EDGE_LOOP ( 'NONE', ( #826, #947, #489, #913 ) ) ;
#1243 = LINE ( 'NONE', #759, #258 ) ;
#1244 = CIRCLE ( 'NONE', #928, 0.05000000000000002359 ) ;
#1245 = ORIENTED_EDGE ( 'NONE', *, *, #80, .F. ) ;
#1246 = CYLINDRICAL_SURFACE ( 'NONE', #1107, 0.05000000000000002359 ) ;
#1247 = FACE_OUTER_BOUND ( 'NONE', #617, .T. ) ;
#1248 = ORIENTED_EDGE ( 'NONE', *, *, #255, .F. ) ;
#1249 = CARTESIAN_POINT ( 'NONE',  ( 500000.0000000000582, 0.01666666666666666644, 0.5749999999566325348 ) ) ;
#1250 = CIRCLE ( 'NONE', #699, 0.05000000000000002359 ) ;
#1251 = ORIENTED_EDGE ( 'NONE', *, *, #662, .T. ) ;
#1252 = APPLICATION_CONTEXT ( 'automotive_design' ) ;
#1253 = EDGE_CURVE ( 'NONE', #40, #687, #400, .T. ) ;
#1254 = PLANE ( 'NONE',  #375 ) ;
#1255 = VERTEX_POINT ( 'NONE', #299 ) ;
#1256 = ADVANCED_FACE ( 'NONE', ( #703 ), #999, .T. ) ;
#1257 = VECTOR ( 'NONE', #325, 1000.000000000000000 ) ;
#1258 = ORIENTED_EDGE ( 'NONE', *, *, #1066, .T. ) ;
#1259 = SPHERICAL_SURFACE ( 'NONE', #25, 0.05000000000000000278 ) ;
#1260 = EDGE_CURVE ( 'NONE', #334, #978, #623, .T. ) ;
#1261 = DIRECTION ( 'NONE',  ( 0.000000000000000000, 0.000000000000000000, 1.000000000000000000 ) ) ;
#1262 = CIRCLE ( 'NONE', #634, 0.05000000000000002359 ) ;
#1263 = EDGE_CURVE ( 'NONE', #1109, #334, #135, .T. ) ;
#1264 = VERTEX_POINT ( 'NONE', #230 ) ;
#1265 = DIRECTION ( 'NONE',  ( -0.000000000000000000, 0.000000000000000000, 1.000000000000000000 ) ) ;
#1266 = AXIS2_PLACEMENT_3D ( 'NONE', #312, #712, #210 ) ;
#1267 = ORIENTED_EDGE ( 'NONE', *, *, #796, .F. ) ;
#1268 = CLOSED_SHELL ( 'NONE', ( #88, #285, #474, #304, #491, #518, #49, #195, #203, #287, #1100, #327, #416, #836, #667, #854, #776, #1256 ) ) ;
#1269 = CYLINDRICAL_SURFACE ( 'NONE', #13, 0.03333333333333334675 ) ;
#1270 = EDGE_CURVE ( 'NONE', #898, #1109, #924, .T. ) ;
#1271 = ORIENTED_EDGE ( 'NONE', *, *, #563, .F. ) ;
#1272 = LINE ( 'NONE', #979, #846 ) ;
#1273 = PRODUCT_DEFINITION_SHAPE ( 'NONE', 'NONE',  #872 ) ;
#1274 = MECHANICAL_DESIGN_GEOMETRIC_PRESENTATION_REPRESENTATION (  '', ( #172 ), #284 ) ;
#1275 = LINE ( 'NONE', #1164, #1099 ) ;
#1276 = EDGE_CURVE ( 'NONE', #40, #308, #640, .T. ) ;
#1277 = ORIENTED_EDGE ( 'NONE', *, *, #1270, .F. ) ;
#1278 = DIRECTION ( 'NONE',  ( 0.000000000000000000, 0.000000000000000000, 1.000000000000000000 ) ) ;
#1279 = DIRECTION ( 'NONE',  ( 0.000000000000000000, 0.000000000000000000, 1.000000000000000000 ) ) ;
#1280 = CARTESIAN_POINT ( 'NONE',  ( -0.9499999999999995115, 0.05000000000000000278, -0.5749999999999995115 ) ) ;
ENDSEC;
END-ISO-10303-21;
