%TF.GenerationSoftware,KiCad,Pcbnew,9.0.7*%
%TF.CreationDate,2026-04-14T10:45:30-03:00*%
%TF.ProjectId,mini-vehiculo-exploracion-pcb,6d696e69-2d76-4656-9869-63756c6f2d65,rev?*%
%TF.SameCoordinates,Original*%
%TF.FileFunction,Other,User*%
%FSLAX46Y46*%
G04 Gerber Fmt 4.6, Leading zero omitted, Abs format (unit mm)*
G04 Created by KiCad (PCBNEW 9.0.7) date 2026-04-14 10:45:30*
%MOMM*%
%LPD*%
G01*
G04 APERTURE LIST*
%ADD10C,0.050000*%
%ADD11C,0.152400*%
%ADD12C,0.100000*%
G04 APERTURE END LIST*
%TO.C,C6*%
D10*
X87890000Y-91530000D02*
X89850000Y-91530000D01*
X89850000Y-87770000D01*
X87890000Y-87770000D01*
X87890000Y-91530000D01*
D11*
%TO.C,D2*%
X144517840Y-60330140D02*
X146829240Y-60330140D01*
X144517840Y-64470340D02*
X144517840Y-60330140D01*
X146829240Y-60330140D02*
X146829240Y-64470340D01*
X146829240Y-64470340D02*
X144517840Y-64470340D01*
D10*
%TO.C,TP3*%
X171820000Y-59230000D02*
X171820000Y-61730000D01*
X171820000Y-59230000D02*
X174320000Y-59230000D01*
X174320000Y-61730000D02*
X171820000Y-61730000D01*
X174320000Y-61730000D02*
X174320000Y-59230000D01*
%TO.C,AUX1*%
X136530000Y-94255000D02*
X145180000Y-94255000D01*
X136530000Y-97805000D02*
X136530000Y-94255000D01*
X145180000Y-94255000D02*
X145180000Y-97805000D01*
X145180000Y-97805000D02*
X136530000Y-97805000D01*
%TO.C,C2*%
X89870000Y-67292500D02*
X91830000Y-67292500D01*
X91830000Y-63532500D01*
X89870000Y-63532500D01*
X89870000Y-67292500D01*
%TO.C,C13*%
X150153540Y-60613040D02*
X148193540Y-60613040D01*
X148193540Y-64373040D01*
X150153540Y-64373040D01*
X150153540Y-60613040D01*
%TO.C,N8R8*%
X107110000Y-28370000D02*
X107110000Y-49370000D01*
X107110000Y-49370000D02*
X121360000Y-49370000D01*
X121360000Y-69570000D02*
X121360000Y-49370000D01*
X121360000Y-69570000D02*
X140860000Y-69570000D01*
X140860000Y-49370000D02*
X140860000Y-69570000D01*
X140860000Y-49370000D02*
X155110000Y-49370000D01*
X155110000Y-28370000D02*
X107110000Y-28370000D01*
X155110000Y-49370000D02*
X155110000Y-28370000D01*
%TO.C,R20*%
X157660000Y-55292500D02*
X159560000Y-55292500D01*
X159560000Y-51592500D01*
X157660000Y-51592500D01*
X157660000Y-55292500D01*
%TO.C,C4*%
X104620000Y-73020000D02*
X108380000Y-73020000D01*
X108380000Y-74980000D01*
X104620000Y-74980000D01*
X104620000Y-73020000D01*
%TO.C,R1*%
X97332500Y-88570000D02*
X95432500Y-88570000D01*
X95432500Y-92270000D01*
X97332500Y-92270000D01*
X97332500Y-88570000D01*
%TO.C,C12*%
X95340000Y-56750000D02*
X97300000Y-56750000D01*
X97300000Y-52990000D01*
X95340000Y-52990000D01*
X95340000Y-56750000D01*
D12*
%TO.C,D5*%
X123137500Y-88570000D02*
X129437500Y-88570000D01*
X123137500Y-97770000D02*
X123137500Y-88570000D01*
X129437500Y-88570000D02*
X129437500Y-97770000D01*
X129437500Y-97770000D02*
X123137500Y-97770000D01*
D10*
%TO.C,H2*%
X175332944Y-46312944D02*
G75*
G02*
X168432944Y-46312944I-3450000J0D01*
G01*
X168432944Y-46312944D02*
G75*
G02*
X175332944Y-46312944I3450000J0D01*
G01*
%TO.C,H1*%
X93082944Y-46312944D02*
G75*
G02*
X86182944Y-46312944I-3450000J0D01*
G01*
X86182944Y-46312944D02*
G75*
G02*
X93082944Y-46312944I3450000J0D01*
G01*
%TO.C,D6*%
X149360000Y-54322500D02*
X147460000Y-54322500D01*
X147460000Y-57682500D01*
X149360000Y-57682500D01*
X149360000Y-54322500D01*
%TO.C,MOTORES1*%
X164100000Y-94255000D02*
X170200000Y-94255000D01*
X164100000Y-97805000D02*
X164100000Y-94255000D01*
X170200000Y-94255000D02*
X170200000Y-97805000D01*
X170200000Y-97805000D02*
X164100000Y-97805000D01*
%TO.C,RC1*%
X146250000Y-94255000D02*
X157450000Y-94255000D01*
X146250000Y-97805000D02*
X146250000Y-94255000D01*
X157450000Y-94255000D02*
X157450000Y-97805000D01*
X157450000Y-97805000D02*
X146250000Y-97805000D01*
D11*
%TO.C,F1*%
X104957000Y-52638600D02*
X107243000Y-52638600D01*
X104957000Y-57261400D02*
X104957000Y-52638600D01*
X107243000Y-52638600D02*
X107243000Y-57261400D01*
X107243000Y-57261400D02*
X104957000Y-57261400D01*
%TO.C,R14*%
D10*
X120011250Y-103045000D02*
X118111250Y-103045000D01*
X118111250Y-106745000D01*
X120011250Y-106745000D01*
X120011250Y-103045000D01*
%TO.C,C9*%
X110120000Y-57300000D02*
X108160000Y-57300000D01*
X108160000Y-61060000D01*
X110120000Y-61060000D01*
X110120000Y-57300000D01*
%TO.C,C24*%
X173293000Y-79637500D02*
X171333000Y-79637500D01*
X171333000Y-83397500D01*
X173293000Y-83397500D01*
X173293000Y-79637500D01*
%TO.C,C17*%
X162630000Y-55322500D02*
X164590000Y-55322500D01*
X164590000Y-51562500D01*
X162630000Y-51562500D01*
X162630000Y-55322500D01*
%TO.C,DRDE1*%
X146250000Y-86760000D02*
X157450000Y-86760000D01*
X146250000Y-90310000D02*
X146250000Y-86760000D01*
X157450000Y-86760000D02*
X157450000Y-90310000D01*
X157450000Y-90310000D02*
X146250000Y-90310000D01*
%TO.C,TP1*%
X171820000Y-66230000D02*
X171820000Y-68730000D01*
X171820000Y-66230000D02*
X174320000Y-66230000D01*
X174320000Y-68730000D02*
X171820000Y-68730000D01*
X174320000Y-68730000D02*
X174320000Y-66230000D01*
%TO.C,C3*%
X89144000Y-74842500D02*
X91104000Y-74842500D01*
X91104000Y-71082500D01*
X89144000Y-71082500D01*
X89144000Y-74842500D01*
%TO.C,R16*%
X163220000Y-71322500D02*
X165120000Y-71322500D01*
X165120000Y-67622500D01*
X163220000Y-67622500D01*
X163220000Y-71322500D01*
%TO.C,R12*%
X151723540Y-64380540D02*
X153623540Y-64380540D01*
X153623540Y-60680540D01*
X151723540Y-60680540D01*
X151723540Y-64380540D01*
%TO.C,C22*%
X155070000Y-71360000D02*
X157030000Y-71360000D01*
X157030000Y-67600000D01*
X155070000Y-67600000D01*
X155070000Y-71360000D01*
%TO.C,H4*%
X93082944Y-104080000D02*
G75*
G02*
X86182944Y-104080000I-3450000J0D01*
G01*
X86182944Y-104080000D02*
G75*
G02*
X93082944Y-104080000I3450000J0D01*
G01*
%TO.C,R10*%
X104370000Y-53020000D02*
X102470000Y-53020000D01*
X102470000Y-56720000D01*
X104370000Y-56720000D01*
X104370000Y-53020000D01*
D12*
%TO.C,D4*%
X109640000Y-97800000D02*
X115940000Y-97800000D01*
X109640000Y-107000000D02*
X109640000Y-97800000D01*
X115940000Y-97800000D02*
X115940000Y-107000000D01*
X115940000Y-107000000D02*
X109640000Y-107000000D01*
%TO.C,C23*%
D10*
X162780000Y-81120000D02*
X160820000Y-81120000D01*
X160820000Y-84880000D01*
X162780000Y-84880000D01*
X162780000Y-81120000D01*
%TO.C,C19*%
X126103375Y-87342500D02*
X128063375Y-87342500D01*
X128063375Y-83582500D01*
X126103375Y-83582500D01*
X126103375Y-87342500D01*
D11*
%TO.C,FB1*%
X105122100Y-57925500D02*
X107077900Y-57925500D01*
X105122100Y-61354500D02*
X105122100Y-57925500D01*
X107077900Y-57925500D02*
X107077900Y-61354500D01*
X107077900Y-61354500D02*
X105122100Y-61354500D01*
D12*
%TO.C,BME690*%
X90080000Y-89420000D02*
X90080000Y-94420000D01*
X90080000Y-94420000D02*
X95080000Y-94420000D01*
X95080000Y-89420000D02*
X90080000Y-89420000D01*
X95080000Y-94420000D02*
X95080000Y-89420000D01*
%TO.C,R21*%
D10*
X168080000Y-51630000D02*
X166180000Y-51630000D01*
X166180000Y-55330000D01*
X168080000Y-55330000D01*
X168080000Y-51630000D01*
%TO.C,R8*%
X89174000Y-79850000D02*
X91074000Y-79850000D01*
X91074000Y-76150000D01*
X89174000Y-76150000D01*
X89174000Y-79850000D01*
%TO.C,J1*%
X135380000Y-76770000D02*
X156700000Y-76770000D01*
X156700000Y-83570000D01*
X135380000Y-83570000D01*
X135380000Y-76770000D01*
%TO.C,R18*%
X149960000Y-57790000D02*
X151860000Y-57790000D01*
X151860000Y-54090000D01*
X149960000Y-54090000D01*
X149960000Y-57790000D01*
%TO.C,TR1*%
X163225000Y-79280000D02*
X171075000Y-79280000D01*
X163225000Y-84880000D02*
X163225000Y-79280000D01*
X171075000Y-79280000D02*
X171075000Y-84880000D01*
X171075000Y-84880000D02*
X163225000Y-84880000D01*
%TO.C,DRIZ1*%
X133980000Y-86760000D02*
X145180000Y-86760000D01*
X133980000Y-90310000D02*
X133980000Y-86760000D01*
X145180000Y-86760000D02*
X145180000Y-90310000D01*
X145180000Y-90310000D02*
X133980000Y-90310000D01*
%TO.C,C20*%
X122063375Y-83582500D02*
X120103375Y-83582500D01*
X120103375Y-87342500D01*
X122063375Y-87342500D01*
X122063375Y-83582500D01*
%TO.C,H3*%
X175332944Y-104080000D02*
G75*
G02*
X168432944Y-104080000I-3450000J0D01*
G01*
X168432944Y-104080000D02*
G75*
G02*
X175332944Y-104080000I3450000J0D01*
G01*
%TO.C,R7*%
X95262000Y-67400000D02*
X93362000Y-67400000D01*
X93362000Y-71100000D01*
X95262000Y-71100000D01*
X95262000Y-67400000D01*
%TO.C,C8*%
X120163540Y-50633040D02*
X118203540Y-50633040D01*
X118203540Y-54393040D01*
X120163540Y-54393040D01*
X120163540Y-50633040D01*
%TO.C,R11*%
X93080000Y-53030000D02*
X91180000Y-53030000D01*
X91180000Y-56730000D01*
X93080000Y-56730000D01*
X93080000Y-53030000D01*
D12*
%TO.C,BNO086*%
X91662000Y-71150000D02*
X97462000Y-71150000D01*
X91662000Y-78350000D02*
X91662000Y-71150000D01*
X97462000Y-71150000D02*
X97462000Y-78350000D01*
X97462000Y-78350000D02*
X91662000Y-78350000D01*
%TO.C,C11*%
D10*
X116663540Y-50633040D02*
X114703540Y-50633040D01*
X114703540Y-54393040D01*
X116663540Y-54393040D01*
X116663540Y-50633040D01*
%TO.C,C15*%
X122270000Y-98620000D02*
X120310000Y-98620000D01*
X120310000Y-102380000D01*
X122270000Y-102380000D01*
X122270000Y-98620000D01*
D12*
%TO.C,F3*%
X102731250Y-98580000D02*
X109331250Y-98580000D01*
X102731250Y-106980000D02*
X102731250Y-98580000D01*
X109331250Y-98580000D02*
X109331250Y-106980000D01*
X109331250Y-106980000D02*
X102731250Y-106980000D01*
%TO.C,C18*%
D10*
X162010000Y-51600000D02*
X160050000Y-51600000D01*
X160050000Y-55360000D01*
X162010000Y-55360000D01*
X162010000Y-51600000D01*
%TO.C,U4*%
X121415000Y-103175000D02*
X125665000Y-103175000D01*
X121415000Y-106725000D02*
X121415000Y-103175000D01*
X125665000Y-103175000D02*
X125665000Y-106725000D01*
X125665000Y-106725000D02*
X121415000Y-106725000D01*
%TO.C,J8*%
X162825000Y-86760000D02*
X171475000Y-86760000D01*
X162825000Y-90310000D02*
X162825000Y-86760000D01*
X171475000Y-86760000D02*
X171475000Y-90310000D01*
X171475000Y-90310000D02*
X162825000Y-90310000D01*
%TO.C,TP2*%
X171820000Y-62730000D02*
X171820000Y-65230000D01*
X171820000Y-62730000D02*
X174320000Y-62730000D01*
X174320000Y-65230000D02*
X171820000Y-65230000D01*
X174320000Y-65230000D02*
X174320000Y-62730000D01*
D11*
%TO.C,D1*%
X107750650Y-61996700D02*
X107941150Y-61996700D01*
X107750650Y-64003300D02*
X107750650Y-61996700D01*
X107941150Y-61691900D02*
X112055950Y-61691900D01*
X107941150Y-61996700D02*
X107941150Y-61691900D01*
X107941150Y-64003300D02*
X107750650Y-64003300D01*
X107941150Y-64308100D02*
X107941150Y-64003300D01*
X112055950Y-61691900D02*
X112055950Y-61996700D01*
X112055950Y-61996700D02*
X112246450Y-61996700D01*
X112055950Y-64003300D02*
X112055950Y-64308100D01*
X112055950Y-64308100D02*
X107941150Y-64308100D01*
X112246450Y-61996700D02*
X112246450Y-64003300D01*
X112246450Y-64003300D02*
X112055950Y-64003300D01*
%TO.C,R6*%
D10*
X95362000Y-83100000D02*
X97262000Y-83100000D01*
X97262000Y-79400000D01*
X95362000Y-79400000D01*
X95362000Y-83100000D01*
%TO.C,R13*%
X129742500Y-98687500D02*
X127842500Y-98687500D01*
X127842500Y-102387500D01*
X129742500Y-102387500D01*
X129742500Y-98687500D01*
%TO.C,R5*%
X100074000Y-74150000D02*
X98174000Y-74150000D01*
X98174000Y-77850000D01*
X100074000Y-77850000D01*
X100074000Y-74150000D01*
%TO.C,R4*%
X159500000Y-67630000D02*
X157600000Y-67630000D01*
X157600000Y-71330000D01*
X159500000Y-71330000D01*
X159500000Y-67630000D01*
D12*
%TO.C,CRISTAL1*%
X99437500Y-67050000D02*
X110137500Y-67050000D01*
X99437500Y-72950000D02*
X99437500Y-67050000D01*
X110137500Y-67050000D02*
X110137500Y-72950000D01*
X110137500Y-72950000D02*
X99437500Y-72950000D01*
%TO.C,C16*%
D10*
X118770000Y-98620000D02*
X116810000Y-98620000D01*
X116810000Y-102380000D01*
X118770000Y-102380000D01*
X118770000Y-98620000D01*
%TO.C,C21*%
X170150000Y-67592500D02*
X168190000Y-67592500D01*
X168190000Y-71352500D01*
X170150000Y-71352500D01*
X170150000Y-67592500D01*
%TO.C,D3*%
X112002500Y-94000000D02*
X117702500Y-94000000D01*
X112002500Y-97000000D02*
X112002500Y-94000000D01*
X117702500Y-94000000D02*
X117702500Y-97000000D01*
X117702500Y-97000000D02*
X112002500Y-97000000D01*
D11*
%TO.C,CR1*%
X98392000Y-53729700D02*
X98686600Y-53729700D01*
X98392000Y-55990300D02*
X98392000Y-53729700D01*
X98686600Y-52751800D02*
X98686600Y-53729700D01*
X98686600Y-52751800D02*
X101653400Y-52751800D01*
X98686600Y-55990300D02*
X98392000Y-55990300D01*
X98686600Y-56968200D02*
X98686600Y-55990300D01*
X101653400Y-52751800D02*
X101653400Y-53729700D01*
X101653400Y-53729700D02*
X101948000Y-53729700D01*
X101653400Y-56968200D02*
X98686600Y-56968200D01*
X101653400Y-56968200D02*
X101653400Y-55990300D01*
X101948000Y-53729700D02*
X101948000Y-55990300D01*
X101948000Y-55990300D02*
X101653400Y-55990300D01*
%TO.C,C14*%
D10*
X126310000Y-106780000D02*
X128270000Y-106780000D01*
X128270000Y-103020000D01*
X126310000Y-103020000D01*
X126310000Y-106780000D01*
D12*
%TO.C,J3*%
X93270000Y-42024000D02*
X107010000Y-42024000D01*
X93270000Y-51954000D02*
X93270000Y-42024000D01*
X107010000Y-42024000D02*
X107010000Y-51954000D01*
X107010000Y-51954000D02*
X93270000Y-51954000D01*
%TO.C,R3*%
D10*
X113133540Y-50700540D02*
X111233540Y-50700540D01*
X111233540Y-54400540D01*
X113133540Y-54400540D01*
X113133540Y-50700540D01*
%TO.C,C5*%
X99620000Y-65020000D02*
X103380000Y-65020000D01*
X103380000Y-66980000D01*
X99620000Y-66980000D01*
X99620000Y-65020000D01*
%TO.C,IC3*%
X122493375Y-83750000D02*
X125193375Y-83750000D01*
X122493375Y-87350000D02*
X122493375Y-83750000D01*
X125193375Y-83750000D02*
X125193375Y-87350000D01*
X125193375Y-87350000D02*
X122493375Y-87350000D01*
%TO.C,BATER\u00CDA1*%
X95792500Y-99850625D02*
X102332500Y-99850625D01*
X102332500Y-107050625D01*
X95792500Y-107050625D01*
X95792500Y-99850625D01*
%TO.C,L2*%
X123940000Y-98512500D02*
X126640000Y-98512500D01*
X123940000Y-102362500D02*
X123940000Y-98512500D01*
X126640000Y-98512500D02*
X126640000Y-102362500D01*
X126640000Y-102362500D02*
X123940000Y-102362500D01*
%TO.C,R17*%
X165720000Y-71322500D02*
X167620000Y-71322500D01*
X167620000Y-67622500D01*
X165720000Y-67622500D01*
X165720000Y-71322500D01*
%TO.C,R15*%
X160100000Y-71330000D02*
X162000000Y-71330000D01*
X162000000Y-67630000D01*
X160100000Y-67630000D01*
X160100000Y-71330000D01*
%TO.C,R9*%
X92862000Y-83100000D02*
X94762000Y-83100000D01*
X94762000Y-79400000D01*
X92862000Y-79400000D01*
X92862000Y-83100000D01*
%TO.C,R2*%
X95432500Y-96270000D02*
X97332500Y-96270000D01*
X97332500Y-92570000D01*
X95432500Y-92570000D01*
X95432500Y-96270000D01*
%TO.C,C7*%
X89862500Y-91865000D02*
X87902500Y-91865000D01*
X87902500Y-95625000D01*
X89862500Y-95625000D01*
X89862500Y-91865000D01*
%TO.C,R19*%
X120227500Y-96850000D02*
X122127500Y-96850000D01*
X122127500Y-93150000D01*
X120227500Y-93150000D01*
X120227500Y-96850000D01*
%TO.C,C1*%
X93332000Y-67330000D02*
X95292000Y-67330000D01*
X95292000Y-63570000D01*
X93332000Y-63570000D01*
X93332000Y-67330000D01*
%TO.C,C10*%
X108160000Y-56630000D02*
X110120000Y-56630000D01*
X110120000Y-52870000D01*
X108160000Y-52870000D01*
X108160000Y-56630000D01*
%TO.C,U3*%
X156970000Y-57005000D02*
X167630000Y-57005000D01*
X156970000Y-66895000D02*
X156970000Y-57005000D01*
X167630000Y-57005000D02*
X167630000Y-66895000D01*
X167630000Y-66895000D02*
X156970000Y-66895000D01*
%TO.C,Q1*%
X119827500Y-88795000D02*
X122527500Y-88795000D01*
X119827500Y-92445000D02*
X119827500Y-88795000D01*
X122527500Y-88795000D02*
X122527500Y-92445000D01*
X122527500Y-92445000D02*
X119827500Y-92445000D01*
%TD*%
M02*
