M48
; DRILL file {KiCad 9.0.7} date 2026-04-23T16:03:11-0300
; FORMAT={-:-/ absolute / metric / decimal}
; #@! TF.CreationDate,2026-04-23T16:03:11-03:00
; #@! TF.GenerationSoftware,Kicad,Pcbnew,9.0.7
; #@! TF.FileFunction,Plated,1,3,Blind
FMAT,2
METRIC
; #@! TA.AperFunction,Plated,Buried,ViaDrill
T1C0.300
%
G90
G05
T1
X119.094Y-92.092
X120.72Y-51.8
X123.14Y-98.45
X127.203Y-98.451
X128.65Y-78.0
X129.25Y-82.4
X130.47Y-94.47
X130.8Y-81.26
X130.81Y-80.34
X133.015Y-70.98
X143.28Y-61.03
X143.99Y-59.68
X144.05Y-57.4
X144.61Y-55.97
X149.85Y-84.1
X151.12Y-59.96
X152.27Y-73.68
X154.34Y-54.94
X160.215Y-79.865
X162.45Y-75.42
X162.45Y-78.91
X173.775Y-84.605
M30
