%TF.GenerationSoftware,KiCad,Pcbnew,9.0.7*%
%TF.CreationDate,2026-04-14T10:45:30-03:00*%
%TF.ProjectId,mini-vehiculo-exploracion-pcb,6d696e69-2d76-4656-9869-63756c6f2d65,rev?*%
%TF.SameCoordinates,Original*%
%TF.FileFunction,AssemblyDrawing,Top*%
%FSLAX46Y46*%
G04 Gerber Fmt 4.6, Leading zero omitted, Abs format (unit mm)*
G04 Created by KiCad (PCBNEW 9.0.7) date 2026-04-14 10:45:30*
%MOMM*%
%LPD*%
G01*
G04 APERTURE LIST*
%ADD10C,0.080000*%
%ADD11C,0.150000*%
%ADD12C,0.254000*%
%ADD13C,0.100000*%
%ADD14C,0.025400*%
G04 APERTURE END LIST*
D10*
X89049530Y-89733333D02*
X89073340Y-89757142D01*
X89073340Y-89757142D02*
X89097149Y-89828571D01*
X89097149Y-89828571D02*
X89097149Y-89876190D01*
X89097149Y-89876190D02*
X89073340Y-89947618D01*
X89073340Y-89947618D02*
X89025720Y-89995237D01*
X89025720Y-89995237D02*
X88978101Y-90019047D01*
X88978101Y-90019047D02*
X88882863Y-90042856D01*
X88882863Y-90042856D02*
X88811435Y-90042856D01*
X88811435Y-90042856D02*
X88716197Y-90019047D01*
X88716197Y-90019047D02*
X88668578Y-89995237D01*
X88668578Y-89995237D02*
X88620959Y-89947618D01*
X88620959Y-89947618D02*
X88597149Y-89876190D01*
X88597149Y-89876190D02*
X88597149Y-89828571D01*
X88597149Y-89828571D02*
X88620959Y-89757142D01*
X88620959Y-89757142D02*
X88644768Y-89733333D01*
X88597149Y-89304761D02*
X88597149Y-89399999D01*
X88597149Y-89399999D02*
X88620959Y-89447618D01*
X88620959Y-89447618D02*
X88644768Y-89471428D01*
X88644768Y-89471428D02*
X88716197Y-89519047D01*
X88716197Y-89519047D02*
X88811435Y-89542856D01*
X88811435Y-89542856D02*
X89001911Y-89542856D01*
X89001911Y-89542856D02*
X89049530Y-89519047D01*
X89049530Y-89519047D02*
X89073340Y-89495237D01*
X89073340Y-89495237D02*
X89097149Y-89447618D01*
X89097149Y-89447618D02*
X89097149Y-89352380D01*
X89097149Y-89352380D02*
X89073340Y-89304761D01*
X89073340Y-89304761D02*
X89049530Y-89280952D01*
X89049530Y-89280952D02*
X89001911Y-89257142D01*
X89001911Y-89257142D02*
X88882863Y-89257142D01*
X88882863Y-89257142D02*
X88835244Y-89280952D01*
X88835244Y-89280952D02*
X88811435Y-89304761D01*
X88811435Y-89304761D02*
X88787625Y-89352380D01*
X88787625Y-89352380D02*
X88787625Y-89447618D01*
X88787625Y-89447618D02*
X88811435Y-89495237D01*
X88811435Y-89495237D02*
X88835244Y-89519047D01*
X88835244Y-89519047D02*
X88882863Y-89542856D01*
D11*
X139155714Y-96174104D02*
X139631904Y-96174104D01*
X139060476Y-96459819D02*
X139393809Y-95459819D01*
X139393809Y-95459819D02*
X139727142Y-96459819D01*
X140060476Y-95459819D02*
X140060476Y-96269342D01*
X140060476Y-96269342D02*
X140108095Y-96364580D01*
X140108095Y-96364580D02*
X140155714Y-96412200D01*
X140155714Y-96412200D02*
X140250952Y-96459819D01*
X140250952Y-96459819D02*
X140441428Y-96459819D01*
X140441428Y-96459819D02*
X140536666Y-96412200D01*
X140536666Y-96412200D02*
X140584285Y-96364580D01*
X140584285Y-96364580D02*
X140631904Y-96269342D01*
X140631904Y-96269342D02*
X140631904Y-95459819D01*
X141012857Y-95459819D02*
X141679523Y-96459819D01*
X141679523Y-95459819D02*
X141012857Y-96459819D01*
X142584285Y-96459819D02*
X142012857Y-96459819D01*
X142298571Y-96459819D02*
X142298571Y-95459819D01*
X142298571Y-95459819D02*
X142203333Y-95602676D01*
X142203333Y-95602676D02*
X142108095Y-95697914D01*
X142108095Y-95697914D02*
X142012857Y-95745533D01*
D10*
X91029530Y-65495833D02*
X91053340Y-65519642D01*
X91053340Y-65519642D02*
X91077149Y-65591071D01*
X91077149Y-65591071D02*
X91077149Y-65638690D01*
X91077149Y-65638690D02*
X91053340Y-65710118D01*
X91053340Y-65710118D02*
X91005720Y-65757737D01*
X91005720Y-65757737D02*
X90958101Y-65781547D01*
X90958101Y-65781547D02*
X90862863Y-65805356D01*
X90862863Y-65805356D02*
X90791435Y-65805356D01*
X90791435Y-65805356D02*
X90696197Y-65781547D01*
X90696197Y-65781547D02*
X90648578Y-65757737D01*
X90648578Y-65757737D02*
X90600959Y-65710118D01*
X90600959Y-65710118D02*
X90577149Y-65638690D01*
X90577149Y-65638690D02*
X90577149Y-65591071D01*
X90577149Y-65591071D02*
X90600959Y-65519642D01*
X90600959Y-65519642D02*
X90624768Y-65495833D01*
X90624768Y-65305356D02*
X90600959Y-65281547D01*
X90600959Y-65281547D02*
X90577149Y-65233928D01*
X90577149Y-65233928D02*
X90577149Y-65114880D01*
X90577149Y-65114880D02*
X90600959Y-65067261D01*
X90600959Y-65067261D02*
X90624768Y-65043452D01*
X90624768Y-65043452D02*
X90672387Y-65019642D01*
X90672387Y-65019642D02*
X90720006Y-65019642D01*
X90720006Y-65019642D02*
X90791435Y-65043452D01*
X90791435Y-65043452D02*
X91077149Y-65329166D01*
X91077149Y-65329166D02*
X91077149Y-65019642D01*
X149353070Y-62814468D02*
X149376880Y-62838277D01*
X149376880Y-62838277D02*
X149400689Y-62909706D01*
X149400689Y-62909706D02*
X149400689Y-62957325D01*
X149400689Y-62957325D02*
X149376880Y-63028753D01*
X149376880Y-63028753D02*
X149329260Y-63076372D01*
X149329260Y-63076372D02*
X149281641Y-63100182D01*
X149281641Y-63100182D02*
X149186403Y-63123991D01*
X149186403Y-63123991D02*
X149114975Y-63123991D01*
X149114975Y-63123991D02*
X149019737Y-63100182D01*
X149019737Y-63100182D02*
X148972118Y-63076372D01*
X148972118Y-63076372D02*
X148924499Y-63028753D01*
X148924499Y-63028753D02*
X148900689Y-62957325D01*
X148900689Y-62957325D02*
X148900689Y-62909706D01*
X148900689Y-62909706D02*
X148924499Y-62838277D01*
X148924499Y-62838277D02*
X148948308Y-62814468D01*
X149400689Y-62338277D02*
X149400689Y-62623991D01*
X149400689Y-62481134D02*
X148900689Y-62481134D01*
X148900689Y-62481134D02*
X148972118Y-62528753D01*
X148972118Y-62528753D02*
X149019737Y-62576372D01*
X149019737Y-62576372D02*
X149043546Y-62623991D01*
X148900689Y-62171611D02*
X148900689Y-61862087D01*
X148900689Y-61862087D02*
X149091165Y-62028754D01*
X149091165Y-62028754D02*
X149091165Y-61957325D01*
X149091165Y-61957325D02*
X149114975Y-61909706D01*
X149114975Y-61909706D02*
X149138784Y-61885897D01*
X149138784Y-61885897D02*
X149186403Y-61862087D01*
X149186403Y-61862087D02*
X149305451Y-61862087D01*
X149305451Y-61862087D02*
X149353070Y-61885897D01*
X149353070Y-61885897D02*
X149376880Y-61909706D01*
X149376880Y-61909706D02*
X149400689Y-61957325D01*
X149400689Y-61957325D02*
X149400689Y-62100182D01*
X149400689Y-62100182D02*
X149376880Y-62147801D01*
X149376880Y-62147801D02*
X149353070Y-62171611D01*
D11*
X122990953Y-70651009D02*
X123324286Y-70651009D01*
X123467143Y-71174819D02*
X122990953Y-71174819D01*
X122990953Y-71174819D02*
X122990953Y-70174819D01*
X122990953Y-70174819D02*
X123467143Y-70174819D01*
X123848096Y-71127200D02*
X123990953Y-71174819D01*
X123990953Y-71174819D02*
X124229048Y-71174819D01*
X124229048Y-71174819D02*
X124324286Y-71127200D01*
X124324286Y-71127200D02*
X124371905Y-71079580D01*
X124371905Y-71079580D02*
X124419524Y-70984342D01*
X124419524Y-70984342D02*
X124419524Y-70889104D01*
X124419524Y-70889104D02*
X124371905Y-70793866D01*
X124371905Y-70793866D02*
X124324286Y-70746247D01*
X124324286Y-70746247D02*
X124229048Y-70698628D01*
X124229048Y-70698628D02*
X124038572Y-70651009D01*
X124038572Y-70651009D02*
X123943334Y-70603390D01*
X123943334Y-70603390D02*
X123895715Y-70555771D01*
X123895715Y-70555771D02*
X123848096Y-70460533D01*
X123848096Y-70460533D02*
X123848096Y-70365295D01*
X123848096Y-70365295D02*
X123895715Y-70270057D01*
X123895715Y-70270057D02*
X123943334Y-70222438D01*
X123943334Y-70222438D02*
X124038572Y-70174819D01*
X124038572Y-70174819D02*
X124276667Y-70174819D01*
X124276667Y-70174819D02*
X124419524Y-70222438D01*
X124848096Y-71174819D02*
X124848096Y-70174819D01*
X124848096Y-70174819D02*
X125229048Y-70174819D01*
X125229048Y-70174819D02*
X125324286Y-70222438D01*
X125324286Y-70222438D02*
X125371905Y-70270057D01*
X125371905Y-70270057D02*
X125419524Y-70365295D01*
X125419524Y-70365295D02*
X125419524Y-70508152D01*
X125419524Y-70508152D02*
X125371905Y-70603390D01*
X125371905Y-70603390D02*
X125324286Y-70651009D01*
X125324286Y-70651009D02*
X125229048Y-70698628D01*
X125229048Y-70698628D02*
X124848096Y-70698628D01*
X125752858Y-70174819D02*
X126371905Y-70174819D01*
X126371905Y-70174819D02*
X126038572Y-70555771D01*
X126038572Y-70555771D02*
X126181429Y-70555771D01*
X126181429Y-70555771D02*
X126276667Y-70603390D01*
X126276667Y-70603390D02*
X126324286Y-70651009D01*
X126324286Y-70651009D02*
X126371905Y-70746247D01*
X126371905Y-70746247D02*
X126371905Y-70984342D01*
X126371905Y-70984342D02*
X126324286Y-71079580D01*
X126324286Y-71079580D02*
X126276667Y-71127200D01*
X126276667Y-71127200D02*
X126181429Y-71174819D01*
X126181429Y-71174819D02*
X125895715Y-71174819D01*
X125895715Y-71174819D02*
X125800477Y-71127200D01*
X125800477Y-71127200D02*
X125752858Y-71079580D01*
X126752858Y-70270057D02*
X126800477Y-70222438D01*
X126800477Y-70222438D02*
X126895715Y-70174819D01*
X126895715Y-70174819D02*
X127133810Y-70174819D01*
X127133810Y-70174819D02*
X127229048Y-70222438D01*
X127229048Y-70222438D02*
X127276667Y-70270057D01*
X127276667Y-70270057D02*
X127324286Y-70365295D01*
X127324286Y-70365295D02*
X127324286Y-70460533D01*
X127324286Y-70460533D02*
X127276667Y-70603390D01*
X127276667Y-70603390D02*
X126705239Y-71174819D01*
X126705239Y-71174819D02*
X127324286Y-71174819D01*
X127752858Y-70793866D02*
X128514763Y-70793866D01*
X128943334Y-71127200D02*
X129086191Y-71174819D01*
X129086191Y-71174819D02*
X129324286Y-71174819D01*
X129324286Y-71174819D02*
X129419524Y-71127200D01*
X129419524Y-71127200D02*
X129467143Y-71079580D01*
X129467143Y-71079580D02*
X129514762Y-70984342D01*
X129514762Y-70984342D02*
X129514762Y-70889104D01*
X129514762Y-70889104D02*
X129467143Y-70793866D01*
X129467143Y-70793866D02*
X129419524Y-70746247D01*
X129419524Y-70746247D02*
X129324286Y-70698628D01*
X129324286Y-70698628D02*
X129133810Y-70651009D01*
X129133810Y-70651009D02*
X129038572Y-70603390D01*
X129038572Y-70603390D02*
X128990953Y-70555771D01*
X128990953Y-70555771D02*
X128943334Y-70460533D01*
X128943334Y-70460533D02*
X128943334Y-70365295D01*
X128943334Y-70365295D02*
X128990953Y-70270057D01*
X128990953Y-70270057D02*
X129038572Y-70222438D01*
X129038572Y-70222438D02*
X129133810Y-70174819D01*
X129133810Y-70174819D02*
X129371905Y-70174819D01*
X129371905Y-70174819D02*
X129514762Y-70222438D01*
X129848096Y-70174819D02*
X130467143Y-70174819D01*
X130467143Y-70174819D02*
X130133810Y-70555771D01*
X130133810Y-70555771D02*
X130276667Y-70555771D01*
X130276667Y-70555771D02*
X130371905Y-70603390D01*
X130371905Y-70603390D02*
X130419524Y-70651009D01*
X130419524Y-70651009D02*
X130467143Y-70746247D01*
X130467143Y-70746247D02*
X130467143Y-70984342D01*
X130467143Y-70984342D02*
X130419524Y-71079580D01*
X130419524Y-71079580D02*
X130371905Y-71127200D01*
X130371905Y-71127200D02*
X130276667Y-71174819D01*
X130276667Y-71174819D02*
X129990953Y-71174819D01*
X129990953Y-71174819D02*
X129895715Y-71127200D01*
X129895715Y-71127200D02*
X129848096Y-71079580D01*
X130895715Y-70793866D02*
X131657620Y-70793866D01*
X132038572Y-70174819D02*
X132276667Y-71174819D01*
X132276667Y-71174819D02*
X132467143Y-70460533D01*
X132467143Y-70460533D02*
X132657619Y-71174819D01*
X132657619Y-71174819D02*
X132895715Y-70174819D01*
X133848095Y-71174819D02*
X133514762Y-70698628D01*
X133276667Y-71174819D02*
X133276667Y-70174819D01*
X133276667Y-70174819D02*
X133657619Y-70174819D01*
X133657619Y-70174819D02*
X133752857Y-70222438D01*
X133752857Y-70222438D02*
X133800476Y-70270057D01*
X133800476Y-70270057D02*
X133848095Y-70365295D01*
X133848095Y-70365295D02*
X133848095Y-70508152D01*
X133848095Y-70508152D02*
X133800476Y-70603390D01*
X133800476Y-70603390D02*
X133752857Y-70651009D01*
X133752857Y-70651009D02*
X133657619Y-70698628D01*
X133657619Y-70698628D02*
X133276667Y-70698628D01*
X134467143Y-70174819D02*
X134657619Y-70174819D01*
X134657619Y-70174819D02*
X134752857Y-70222438D01*
X134752857Y-70222438D02*
X134848095Y-70317676D01*
X134848095Y-70317676D02*
X134895714Y-70508152D01*
X134895714Y-70508152D02*
X134895714Y-70841485D01*
X134895714Y-70841485D02*
X134848095Y-71031961D01*
X134848095Y-71031961D02*
X134752857Y-71127200D01*
X134752857Y-71127200D02*
X134657619Y-71174819D01*
X134657619Y-71174819D02*
X134467143Y-71174819D01*
X134467143Y-71174819D02*
X134371905Y-71127200D01*
X134371905Y-71127200D02*
X134276667Y-71031961D01*
X134276667Y-71031961D02*
X134229048Y-70841485D01*
X134229048Y-70841485D02*
X134229048Y-70508152D01*
X134229048Y-70508152D02*
X134276667Y-70317676D01*
X134276667Y-70317676D02*
X134371905Y-70222438D01*
X134371905Y-70222438D02*
X134467143Y-70174819D01*
X135514762Y-70174819D02*
X135705238Y-70174819D01*
X135705238Y-70174819D02*
X135800476Y-70222438D01*
X135800476Y-70222438D02*
X135895714Y-70317676D01*
X135895714Y-70317676D02*
X135943333Y-70508152D01*
X135943333Y-70508152D02*
X135943333Y-70841485D01*
X135943333Y-70841485D02*
X135895714Y-71031961D01*
X135895714Y-71031961D02*
X135800476Y-71127200D01*
X135800476Y-71127200D02*
X135705238Y-71174819D01*
X135705238Y-71174819D02*
X135514762Y-71174819D01*
X135514762Y-71174819D02*
X135419524Y-71127200D01*
X135419524Y-71127200D02*
X135324286Y-71031961D01*
X135324286Y-71031961D02*
X135276667Y-70841485D01*
X135276667Y-70841485D02*
X135276667Y-70508152D01*
X135276667Y-70508152D02*
X135324286Y-70317676D01*
X135324286Y-70317676D02*
X135419524Y-70222438D01*
X135419524Y-70222438D02*
X135514762Y-70174819D01*
X136371905Y-71174819D02*
X136371905Y-70174819D01*
X136371905Y-70174819D02*
X136705238Y-70889104D01*
X136705238Y-70889104D02*
X137038571Y-70174819D01*
X137038571Y-70174819D02*
X137038571Y-71174819D01*
X137514762Y-70793866D02*
X138276667Y-70793866D01*
X139276666Y-71174819D02*
X138705238Y-71174819D01*
X138990952Y-71174819D02*
X138990952Y-70174819D01*
X138990952Y-70174819D02*
X138895714Y-70317676D01*
X138895714Y-70317676D02*
X138800476Y-70412914D01*
X138800476Y-70412914D02*
X138705238Y-70460533D01*
X129371905Y-55974819D02*
X129371905Y-54974819D01*
X129371905Y-54974819D02*
X129943333Y-55974819D01*
X129943333Y-55974819D02*
X129943333Y-54974819D01*
X130562381Y-55403390D02*
X130467143Y-55355771D01*
X130467143Y-55355771D02*
X130419524Y-55308152D01*
X130419524Y-55308152D02*
X130371905Y-55212914D01*
X130371905Y-55212914D02*
X130371905Y-55165295D01*
X130371905Y-55165295D02*
X130419524Y-55070057D01*
X130419524Y-55070057D02*
X130467143Y-55022438D01*
X130467143Y-55022438D02*
X130562381Y-54974819D01*
X130562381Y-54974819D02*
X130752857Y-54974819D01*
X130752857Y-54974819D02*
X130848095Y-55022438D01*
X130848095Y-55022438D02*
X130895714Y-55070057D01*
X130895714Y-55070057D02*
X130943333Y-55165295D01*
X130943333Y-55165295D02*
X130943333Y-55212914D01*
X130943333Y-55212914D02*
X130895714Y-55308152D01*
X130895714Y-55308152D02*
X130848095Y-55355771D01*
X130848095Y-55355771D02*
X130752857Y-55403390D01*
X130752857Y-55403390D02*
X130562381Y-55403390D01*
X130562381Y-55403390D02*
X130467143Y-55451009D01*
X130467143Y-55451009D02*
X130419524Y-55498628D01*
X130419524Y-55498628D02*
X130371905Y-55593866D01*
X130371905Y-55593866D02*
X130371905Y-55784342D01*
X130371905Y-55784342D02*
X130419524Y-55879580D01*
X130419524Y-55879580D02*
X130467143Y-55927200D01*
X130467143Y-55927200D02*
X130562381Y-55974819D01*
X130562381Y-55974819D02*
X130752857Y-55974819D01*
X130752857Y-55974819D02*
X130848095Y-55927200D01*
X130848095Y-55927200D02*
X130895714Y-55879580D01*
X130895714Y-55879580D02*
X130943333Y-55784342D01*
X130943333Y-55784342D02*
X130943333Y-55593866D01*
X130943333Y-55593866D02*
X130895714Y-55498628D01*
X130895714Y-55498628D02*
X130848095Y-55451009D01*
X130848095Y-55451009D02*
X130752857Y-55403390D01*
X131943333Y-55974819D02*
X131610000Y-55498628D01*
X131371905Y-55974819D02*
X131371905Y-54974819D01*
X131371905Y-54974819D02*
X131752857Y-54974819D01*
X131752857Y-54974819D02*
X131848095Y-55022438D01*
X131848095Y-55022438D02*
X131895714Y-55070057D01*
X131895714Y-55070057D02*
X131943333Y-55165295D01*
X131943333Y-55165295D02*
X131943333Y-55308152D01*
X131943333Y-55308152D02*
X131895714Y-55403390D01*
X131895714Y-55403390D02*
X131848095Y-55451009D01*
X131848095Y-55451009D02*
X131752857Y-55498628D01*
X131752857Y-55498628D02*
X131371905Y-55498628D01*
X132514762Y-55403390D02*
X132419524Y-55355771D01*
X132419524Y-55355771D02*
X132371905Y-55308152D01*
X132371905Y-55308152D02*
X132324286Y-55212914D01*
X132324286Y-55212914D02*
X132324286Y-55165295D01*
X132324286Y-55165295D02*
X132371905Y-55070057D01*
X132371905Y-55070057D02*
X132419524Y-55022438D01*
X132419524Y-55022438D02*
X132514762Y-54974819D01*
X132514762Y-54974819D02*
X132705238Y-54974819D01*
X132705238Y-54974819D02*
X132800476Y-55022438D01*
X132800476Y-55022438D02*
X132848095Y-55070057D01*
X132848095Y-55070057D02*
X132895714Y-55165295D01*
X132895714Y-55165295D02*
X132895714Y-55212914D01*
X132895714Y-55212914D02*
X132848095Y-55308152D01*
X132848095Y-55308152D02*
X132800476Y-55355771D01*
X132800476Y-55355771D02*
X132705238Y-55403390D01*
X132705238Y-55403390D02*
X132514762Y-55403390D01*
X132514762Y-55403390D02*
X132419524Y-55451009D01*
X132419524Y-55451009D02*
X132371905Y-55498628D01*
X132371905Y-55498628D02*
X132324286Y-55593866D01*
X132324286Y-55593866D02*
X132324286Y-55784342D01*
X132324286Y-55784342D02*
X132371905Y-55879580D01*
X132371905Y-55879580D02*
X132419524Y-55927200D01*
X132419524Y-55927200D02*
X132514762Y-55974819D01*
X132514762Y-55974819D02*
X132705238Y-55974819D01*
X132705238Y-55974819D02*
X132800476Y-55927200D01*
X132800476Y-55927200D02*
X132848095Y-55879580D01*
X132848095Y-55879580D02*
X132895714Y-55784342D01*
X132895714Y-55784342D02*
X132895714Y-55593866D01*
X132895714Y-55593866D02*
X132848095Y-55498628D01*
X132848095Y-55498628D02*
X132800476Y-55451009D01*
X132800476Y-55451009D02*
X132705238Y-55403390D01*
D10*
X158837149Y-53763928D02*
X158599054Y-53930594D01*
X158837149Y-54049642D02*
X158337149Y-54049642D01*
X158337149Y-54049642D02*
X158337149Y-53859166D01*
X158337149Y-53859166D02*
X158360959Y-53811547D01*
X158360959Y-53811547D02*
X158384768Y-53787737D01*
X158384768Y-53787737D02*
X158432387Y-53763928D01*
X158432387Y-53763928D02*
X158503816Y-53763928D01*
X158503816Y-53763928D02*
X158551435Y-53787737D01*
X158551435Y-53787737D02*
X158575244Y-53811547D01*
X158575244Y-53811547D02*
X158599054Y-53859166D01*
X158599054Y-53859166D02*
X158599054Y-54049642D01*
X158384768Y-53573451D02*
X158360959Y-53549642D01*
X158360959Y-53549642D02*
X158337149Y-53502023D01*
X158337149Y-53502023D02*
X158337149Y-53382975D01*
X158337149Y-53382975D02*
X158360959Y-53335356D01*
X158360959Y-53335356D02*
X158384768Y-53311547D01*
X158384768Y-53311547D02*
X158432387Y-53287737D01*
X158432387Y-53287737D02*
X158480006Y-53287737D01*
X158480006Y-53287737D02*
X158551435Y-53311547D01*
X158551435Y-53311547D02*
X158837149Y-53597261D01*
X158837149Y-53597261D02*
X158837149Y-53287737D01*
X158337149Y-52978214D02*
X158337149Y-52930595D01*
X158337149Y-52930595D02*
X158360959Y-52882976D01*
X158360959Y-52882976D02*
X158384768Y-52859166D01*
X158384768Y-52859166D02*
X158432387Y-52835357D01*
X158432387Y-52835357D02*
X158527625Y-52811547D01*
X158527625Y-52811547D02*
X158646673Y-52811547D01*
X158646673Y-52811547D02*
X158741911Y-52835357D01*
X158741911Y-52835357D02*
X158789530Y-52859166D01*
X158789530Y-52859166D02*
X158813340Y-52882976D01*
X158813340Y-52882976D02*
X158837149Y-52930595D01*
X158837149Y-52930595D02*
X158837149Y-52978214D01*
X158837149Y-52978214D02*
X158813340Y-53025833D01*
X158813340Y-53025833D02*
X158789530Y-53049642D01*
X158789530Y-53049642D02*
X158741911Y-53073452D01*
X158741911Y-53073452D02*
X158646673Y-53097261D01*
X158646673Y-53097261D02*
X158527625Y-53097261D01*
X158527625Y-53097261D02*
X158432387Y-53073452D01*
X158432387Y-53073452D02*
X158384768Y-53049642D01*
X158384768Y-53049642D02*
X158360959Y-53025833D01*
X158360959Y-53025833D02*
X158337149Y-52978214D01*
X96609649Y-90503333D02*
X96371554Y-90669999D01*
X96609649Y-90789047D02*
X96109649Y-90789047D01*
X96109649Y-90789047D02*
X96109649Y-90598571D01*
X96109649Y-90598571D02*
X96133459Y-90550952D01*
X96133459Y-90550952D02*
X96157268Y-90527142D01*
X96157268Y-90527142D02*
X96204887Y-90503333D01*
X96204887Y-90503333D02*
X96276316Y-90503333D01*
X96276316Y-90503333D02*
X96323935Y-90527142D01*
X96323935Y-90527142D02*
X96347744Y-90550952D01*
X96347744Y-90550952D02*
X96371554Y-90598571D01*
X96371554Y-90598571D02*
X96371554Y-90789047D01*
X96609649Y-90027142D02*
X96609649Y-90312856D01*
X96609649Y-90169999D02*
X96109649Y-90169999D01*
X96109649Y-90169999D02*
X96181078Y-90217618D01*
X96181078Y-90217618D02*
X96228697Y-90265237D01*
X96228697Y-90265237D02*
X96252506Y-90312856D01*
X96499530Y-55191428D02*
X96523340Y-55215237D01*
X96523340Y-55215237D02*
X96547149Y-55286666D01*
X96547149Y-55286666D02*
X96547149Y-55334285D01*
X96547149Y-55334285D02*
X96523340Y-55405713D01*
X96523340Y-55405713D02*
X96475720Y-55453332D01*
X96475720Y-55453332D02*
X96428101Y-55477142D01*
X96428101Y-55477142D02*
X96332863Y-55500951D01*
X96332863Y-55500951D02*
X96261435Y-55500951D01*
X96261435Y-55500951D02*
X96166197Y-55477142D01*
X96166197Y-55477142D02*
X96118578Y-55453332D01*
X96118578Y-55453332D02*
X96070959Y-55405713D01*
X96070959Y-55405713D02*
X96047149Y-55334285D01*
X96047149Y-55334285D02*
X96047149Y-55286666D01*
X96047149Y-55286666D02*
X96070959Y-55215237D01*
X96070959Y-55215237D02*
X96094768Y-55191428D01*
X96547149Y-54715237D02*
X96547149Y-55000951D01*
X96547149Y-54858094D02*
X96047149Y-54858094D01*
X96047149Y-54858094D02*
X96118578Y-54905713D01*
X96118578Y-54905713D02*
X96166197Y-54953332D01*
X96166197Y-54953332D02*
X96190006Y-55000951D01*
X96094768Y-54524761D02*
X96070959Y-54500952D01*
X96070959Y-54500952D02*
X96047149Y-54453333D01*
X96047149Y-54453333D02*
X96047149Y-54334285D01*
X96047149Y-54334285D02*
X96070959Y-54286666D01*
X96070959Y-54286666D02*
X96094768Y-54262857D01*
X96094768Y-54262857D02*
X96142387Y-54239047D01*
X96142387Y-54239047D02*
X96190006Y-54239047D01*
X96190006Y-54239047D02*
X96261435Y-54262857D01*
X96261435Y-54262857D02*
X96547149Y-54548571D01*
X96547149Y-54548571D02*
X96547149Y-54239047D01*
D11*
X171121039Y-46767763D02*
X171121039Y-45767763D01*
X171121039Y-46243953D02*
X171692467Y-46243953D01*
X171692467Y-46767763D02*
X171692467Y-45767763D01*
X172121039Y-45863001D02*
X172168658Y-45815382D01*
X172168658Y-45815382D02*
X172263896Y-45767763D01*
X172263896Y-45767763D02*
X172501991Y-45767763D01*
X172501991Y-45767763D02*
X172597229Y-45815382D01*
X172597229Y-45815382D02*
X172644848Y-45863001D01*
X172644848Y-45863001D02*
X172692467Y-45958239D01*
X172692467Y-45958239D02*
X172692467Y-46053477D01*
X172692467Y-46053477D02*
X172644848Y-46196334D01*
X172644848Y-46196334D02*
X172073420Y-46767763D01*
X172073420Y-46767763D02*
X172692467Y-46767763D01*
X88871039Y-46767763D02*
X88871039Y-45767763D01*
X88871039Y-46243953D02*
X89442467Y-46243953D01*
X89442467Y-46767763D02*
X89442467Y-45767763D01*
X90442467Y-46767763D02*
X89871039Y-46767763D01*
X90156753Y-46767763D02*
X90156753Y-45767763D01*
X90156753Y-45767763D02*
X90061515Y-45910620D01*
X90061515Y-45910620D02*
X89966277Y-46005858D01*
X89966277Y-46005858D02*
X89871039Y-46053477D01*
D10*
X148637149Y-56371547D02*
X148137149Y-56371547D01*
X148137149Y-56371547D02*
X148137149Y-56252499D01*
X148137149Y-56252499D02*
X148160959Y-56181071D01*
X148160959Y-56181071D02*
X148208578Y-56133452D01*
X148208578Y-56133452D02*
X148256197Y-56109642D01*
X148256197Y-56109642D02*
X148351435Y-56085833D01*
X148351435Y-56085833D02*
X148422863Y-56085833D01*
X148422863Y-56085833D02*
X148518101Y-56109642D01*
X148518101Y-56109642D02*
X148565720Y-56133452D01*
X148565720Y-56133452D02*
X148613340Y-56181071D01*
X148613340Y-56181071D02*
X148637149Y-56252499D01*
X148637149Y-56252499D02*
X148637149Y-56371547D01*
X148137149Y-55657261D02*
X148137149Y-55752499D01*
X148137149Y-55752499D02*
X148160959Y-55800118D01*
X148160959Y-55800118D02*
X148184768Y-55823928D01*
X148184768Y-55823928D02*
X148256197Y-55871547D01*
X148256197Y-55871547D02*
X148351435Y-55895356D01*
X148351435Y-55895356D02*
X148541911Y-55895356D01*
X148541911Y-55895356D02*
X148589530Y-55871547D01*
X148589530Y-55871547D02*
X148613340Y-55847737D01*
X148613340Y-55847737D02*
X148637149Y-55800118D01*
X148637149Y-55800118D02*
X148637149Y-55704880D01*
X148637149Y-55704880D02*
X148613340Y-55657261D01*
X148613340Y-55657261D02*
X148589530Y-55633452D01*
X148589530Y-55633452D02*
X148541911Y-55609642D01*
X148541911Y-55609642D02*
X148422863Y-55609642D01*
X148422863Y-55609642D02*
X148375244Y-55633452D01*
X148375244Y-55633452D02*
X148351435Y-55657261D01*
X148351435Y-55657261D02*
X148327625Y-55704880D01*
X148327625Y-55704880D02*
X148327625Y-55800118D01*
X148327625Y-55800118D02*
X148351435Y-55847737D01*
X148351435Y-55847737D02*
X148375244Y-55871547D01*
X148375244Y-55871547D02*
X148422863Y-55895356D01*
X119288399Y-105216428D02*
X119050304Y-105383094D01*
X119288399Y-105502142D02*
X118788399Y-105502142D01*
X118788399Y-105502142D02*
X118788399Y-105311666D01*
X118788399Y-105311666D02*
X118812209Y-105264047D01*
X118812209Y-105264047D02*
X118836018Y-105240237D01*
X118836018Y-105240237D02*
X118883637Y-105216428D01*
X118883637Y-105216428D02*
X118955066Y-105216428D01*
X118955066Y-105216428D02*
X119002685Y-105240237D01*
X119002685Y-105240237D02*
X119026494Y-105264047D01*
X119026494Y-105264047D02*
X119050304Y-105311666D01*
X119050304Y-105311666D02*
X119050304Y-105502142D01*
X119288399Y-104740237D02*
X119288399Y-105025951D01*
X119288399Y-104883094D02*
X118788399Y-104883094D01*
X118788399Y-104883094D02*
X118859828Y-104930713D01*
X118859828Y-104930713D02*
X118907447Y-104978332D01*
X118907447Y-104978332D02*
X118931256Y-105025951D01*
X118955066Y-104311666D02*
X119288399Y-104311666D01*
X118764590Y-104430714D02*
X119121732Y-104549761D01*
X119121732Y-104549761D02*
X119121732Y-104240238D01*
X172492530Y-81838928D02*
X172516340Y-81862737D01*
X172516340Y-81862737D02*
X172540149Y-81934166D01*
X172540149Y-81934166D02*
X172540149Y-81981785D01*
X172540149Y-81981785D02*
X172516340Y-82053213D01*
X172516340Y-82053213D02*
X172468720Y-82100832D01*
X172468720Y-82100832D02*
X172421101Y-82124642D01*
X172421101Y-82124642D02*
X172325863Y-82148451D01*
X172325863Y-82148451D02*
X172254435Y-82148451D01*
X172254435Y-82148451D02*
X172159197Y-82124642D01*
X172159197Y-82124642D02*
X172111578Y-82100832D01*
X172111578Y-82100832D02*
X172063959Y-82053213D01*
X172063959Y-82053213D02*
X172040149Y-81981785D01*
X172040149Y-81981785D02*
X172040149Y-81934166D01*
X172040149Y-81934166D02*
X172063959Y-81862737D01*
X172063959Y-81862737D02*
X172087768Y-81838928D01*
X172087768Y-81648451D02*
X172063959Y-81624642D01*
X172063959Y-81624642D02*
X172040149Y-81577023D01*
X172040149Y-81577023D02*
X172040149Y-81457975D01*
X172040149Y-81457975D02*
X172063959Y-81410356D01*
X172063959Y-81410356D02*
X172087768Y-81386547D01*
X172087768Y-81386547D02*
X172135387Y-81362737D01*
X172135387Y-81362737D02*
X172183006Y-81362737D01*
X172183006Y-81362737D02*
X172254435Y-81386547D01*
X172254435Y-81386547D02*
X172540149Y-81672261D01*
X172540149Y-81672261D02*
X172540149Y-81362737D01*
X172206816Y-80934166D02*
X172540149Y-80934166D01*
X172016340Y-81053214D02*
X172373482Y-81172261D01*
X172373482Y-81172261D02*
X172373482Y-80862738D01*
X163789530Y-53763928D02*
X163813340Y-53787737D01*
X163813340Y-53787737D02*
X163837149Y-53859166D01*
X163837149Y-53859166D02*
X163837149Y-53906785D01*
X163837149Y-53906785D02*
X163813340Y-53978213D01*
X163813340Y-53978213D02*
X163765720Y-54025832D01*
X163765720Y-54025832D02*
X163718101Y-54049642D01*
X163718101Y-54049642D02*
X163622863Y-54073451D01*
X163622863Y-54073451D02*
X163551435Y-54073451D01*
X163551435Y-54073451D02*
X163456197Y-54049642D01*
X163456197Y-54049642D02*
X163408578Y-54025832D01*
X163408578Y-54025832D02*
X163360959Y-53978213D01*
X163360959Y-53978213D02*
X163337149Y-53906785D01*
X163337149Y-53906785D02*
X163337149Y-53859166D01*
X163337149Y-53859166D02*
X163360959Y-53787737D01*
X163360959Y-53787737D02*
X163384768Y-53763928D01*
X163837149Y-53287737D02*
X163837149Y-53573451D01*
X163837149Y-53430594D02*
X163337149Y-53430594D01*
X163337149Y-53430594D02*
X163408578Y-53478213D01*
X163408578Y-53478213D02*
X163456197Y-53525832D01*
X163456197Y-53525832D02*
X163480006Y-53573451D01*
X163337149Y-53121071D02*
X163337149Y-52787738D01*
X163337149Y-52787738D02*
X163837149Y-53002023D01*
D11*
X149649524Y-89014819D02*
X149649524Y-88014819D01*
X149649524Y-88014819D02*
X149887619Y-88014819D01*
X149887619Y-88014819D02*
X150030476Y-88062438D01*
X150030476Y-88062438D02*
X150125714Y-88157676D01*
X150125714Y-88157676D02*
X150173333Y-88252914D01*
X150173333Y-88252914D02*
X150220952Y-88443390D01*
X150220952Y-88443390D02*
X150220952Y-88586247D01*
X150220952Y-88586247D02*
X150173333Y-88776723D01*
X150173333Y-88776723D02*
X150125714Y-88871961D01*
X150125714Y-88871961D02*
X150030476Y-88967200D01*
X150030476Y-88967200D02*
X149887619Y-89014819D01*
X149887619Y-89014819D02*
X149649524Y-89014819D01*
X151220952Y-89014819D02*
X150887619Y-88538628D01*
X150649524Y-89014819D02*
X150649524Y-88014819D01*
X150649524Y-88014819D02*
X151030476Y-88014819D01*
X151030476Y-88014819D02*
X151125714Y-88062438D01*
X151125714Y-88062438D02*
X151173333Y-88110057D01*
X151173333Y-88110057D02*
X151220952Y-88205295D01*
X151220952Y-88205295D02*
X151220952Y-88348152D01*
X151220952Y-88348152D02*
X151173333Y-88443390D01*
X151173333Y-88443390D02*
X151125714Y-88491009D01*
X151125714Y-88491009D02*
X151030476Y-88538628D01*
X151030476Y-88538628D02*
X150649524Y-88538628D01*
X151649524Y-89014819D02*
X151649524Y-88014819D01*
X151649524Y-88014819D02*
X151887619Y-88014819D01*
X151887619Y-88014819D02*
X152030476Y-88062438D01*
X152030476Y-88062438D02*
X152125714Y-88157676D01*
X152125714Y-88157676D02*
X152173333Y-88252914D01*
X152173333Y-88252914D02*
X152220952Y-88443390D01*
X152220952Y-88443390D02*
X152220952Y-88586247D01*
X152220952Y-88586247D02*
X152173333Y-88776723D01*
X152173333Y-88776723D02*
X152125714Y-88871961D01*
X152125714Y-88871961D02*
X152030476Y-88967200D01*
X152030476Y-88967200D02*
X151887619Y-89014819D01*
X151887619Y-89014819D02*
X151649524Y-89014819D01*
X152649524Y-88491009D02*
X152982857Y-88491009D01*
X153125714Y-89014819D02*
X152649524Y-89014819D01*
X152649524Y-89014819D02*
X152649524Y-88014819D01*
X152649524Y-88014819D02*
X153125714Y-88014819D01*
X154078095Y-89014819D02*
X153506667Y-89014819D01*
X153792381Y-89014819D02*
X153792381Y-88014819D01*
X153792381Y-88014819D02*
X153697143Y-88157676D01*
X153697143Y-88157676D02*
X153601905Y-88252914D01*
X153601905Y-88252914D02*
X153506667Y-88300533D01*
D10*
X90303530Y-73045833D02*
X90327340Y-73069642D01*
X90327340Y-73069642D02*
X90351149Y-73141071D01*
X90351149Y-73141071D02*
X90351149Y-73188690D01*
X90351149Y-73188690D02*
X90327340Y-73260118D01*
X90327340Y-73260118D02*
X90279720Y-73307737D01*
X90279720Y-73307737D02*
X90232101Y-73331547D01*
X90232101Y-73331547D02*
X90136863Y-73355356D01*
X90136863Y-73355356D02*
X90065435Y-73355356D01*
X90065435Y-73355356D02*
X89970197Y-73331547D01*
X89970197Y-73331547D02*
X89922578Y-73307737D01*
X89922578Y-73307737D02*
X89874959Y-73260118D01*
X89874959Y-73260118D02*
X89851149Y-73188690D01*
X89851149Y-73188690D02*
X89851149Y-73141071D01*
X89851149Y-73141071D02*
X89874959Y-73069642D01*
X89874959Y-73069642D02*
X89898768Y-73045833D01*
X89851149Y-72879166D02*
X89851149Y-72569642D01*
X89851149Y-72569642D02*
X90041625Y-72736309D01*
X90041625Y-72736309D02*
X90041625Y-72664880D01*
X90041625Y-72664880D02*
X90065435Y-72617261D01*
X90065435Y-72617261D02*
X90089244Y-72593452D01*
X90089244Y-72593452D02*
X90136863Y-72569642D01*
X90136863Y-72569642D02*
X90255911Y-72569642D01*
X90255911Y-72569642D02*
X90303530Y-72593452D01*
X90303530Y-72593452D02*
X90327340Y-72617261D01*
X90327340Y-72617261D02*
X90351149Y-72664880D01*
X90351149Y-72664880D02*
X90351149Y-72807737D01*
X90351149Y-72807737D02*
X90327340Y-72855356D01*
X90327340Y-72855356D02*
X90303530Y-72879166D01*
X164397149Y-69793928D02*
X164159054Y-69960594D01*
X164397149Y-70079642D02*
X163897149Y-70079642D01*
X163897149Y-70079642D02*
X163897149Y-69889166D01*
X163897149Y-69889166D02*
X163920959Y-69841547D01*
X163920959Y-69841547D02*
X163944768Y-69817737D01*
X163944768Y-69817737D02*
X163992387Y-69793928D01*
X163992387Y-69793928D02*
X164063816Y-69793928D01*
X164063816Y-69793928D02*
X164111435Y-69817737D01*
X164111435Y-69817737D02*
X164135244Y-69841547D01*
X164135244Y-69841547D02*
X164159054Y-69889166D01*
X164159054Y-69889166D02*
X164159054Y-70079642D01*
X164397149Y-69317737D02*
X164397149Y-69603451D01*
X164397149Y-69460594D02*
X163897149Y-69460594D01*
X163897149Y-69460594D02*
X163968578Y-69508213D01*
X163968578Y-69508213D02*
X164016197Y-69555832D01*
X164016197Y-69555832D02*
X164040006Y-69603451D01*
X163897149Y-68889166D02*
X163897149Y-68984404D01*
X163897149Y-68984404D02*
X163920959Y-69032023D01*
X163920959Y-69032023D02*
X163944768Y-69055833D01*
X163944768Y-69055833D02*
X164016197Y-69103452D01*
X164016197Y-69103452D02*
X164111435Y-69127261D01*
X164111435Y-69127261D02*
X164301911Y-69127261D01*
X164301911Y-69127261D02*
X164349530Y-69103452D01*
X164349530Y-69103452D02*
X164373340Y-69079642D01*
X164373340Y-69079642D02*
X164397149Y-69032023D01*
X164397149Y-69032023D02*
X164397149Y-68936785D01*
X164397149Y-68936785D02*
X164373340Y-68889166D01*
X164373340Y-68889166D02*
X164349530Y-68865357D01*
X164349530Y-68865357D02*
X164301911Y-68841547D01*
X164301911Y-68841547D02*
X164182863Y-68841547D01*
X164182863Y-68841547D02*
X164135244Y-68865357D01*
X164135244Y-68865357D02*
X164111435Y-68889166D01*
X164111435Y-68889166D02*
X164087625Y-68936785D01*
X164087625Y-68936785D02*
X164087625Y-69032023D01*
X164087625Y-69032023D02*
X164111435Y-69079642D01*
X164111435Y-69079642D02*
X164135244Y-69103452D01*
X164135244Y-69103452D02*
X164182863Y-69127261D01*
X152900689Y-62851968D02*
X152662594Y-63018634D01*
X152900689Y-63137682D02*
X152400689Y-63137682D01*
X152400689Y-63137682D02*
X152400689Y-62947206D01*
X152400689Y-62947206D02*
X152424499Y-62899587D01*
X152424499Y-62899587D02*
X152448308Y-62875777D01*
X152448308Y-62875777D02*
X152495927Y-62851968D01*
X152495927Y-62851968D02*
X152567356Y-62851968D01*
X152567356Y-62851968D02*
X152614975Y-62875777D01*
X152614975Y-62875777D02*
X152638784Y-62899587D01*
X152638784Y-62899587D02*
X152662594Y-62947206D01*
X152662594Y-62947206D02*
X152662594Y-63137682D01*
X152900689Y-62375777D02*
X152900689Y-62661491D01*
X152900689Y-62518634D02*
X152400689Y-62518634D01*
X152400689Y-62518634D02*
X152472118Y-62566253D01*
X152472118Y-62566253D02*
X152519737Y-62613872D01*
X152519737Y-62613872D02*
X152543546Y-62661491D01*
X152448308Y-62185301D02*
X152424499Y-62161492D01*
X152424499Y-62161492D02*
X152400689Y-62113873D01*
X152400689Y-62113873D02*
X152400689Y-61994825D01*
X152400689Y-61994825D02*
X152424499Y-61947206D01*
X152424499Y-61947206D02*
X152448308Y-61923397D01*
X152448308Y-61923397D02*
X152495927Y-61899587D01*
X152495927Y-61899587D02*
X152543546Y-61899587D01*
X152543546Y-61899587D02*
X152614975Y-61923397D01*
X152614975Y-61923397D02*
X152900689Y-62209111D01*
X152900689Y-62209111D02*
X152900689Y-61899587D01*
X156229530Y-69801428D02*
X156253340Y-69825237D01*
X156253340Y-69825237D02*
X156277149Y-69896666D01*
X156277149Y-69896666D02*
X156277149Y-69944285D01*
X156277149Y-69944285D02*
X156253340Y-70015713D01*
X156253340Y-70015713D02*
X156205720Y-70063332D01*
X156205720Y-70063332D02*
X156158101Y-70087142D01*
X156158101Y-70087142D02*
X156062863Y-70110951D01*
X156062863Y-70110951D02*
X155991435Y-70110951D01*
X155991435Y-70110951D02*
X155896197Y-70087142D01*
X155896197Y-70087142D02*
X155848578Y-70063332D01*
X155848578Y-70063332D02*
X155800959Y-70015713D01*
X155800959Y-70015713D02*
X155777149Y-69944285D01*
X155777149Y-69944285D02*
X155777149Y-69896666D01*
X155777149Y-69896666D02*
X155800959Y-69825237D01*
X155800959Y-69825237D02*
X155824768Y-69801428D01*
X155824768Y-69610951D02*
X155800959Y-69587142D01*
X155800959Y-69587142D02*
X155777149Y-69539523D01*
X155777149Y-69539523D02*
X155777149Y-69420475D01*
X155777149Y-69420475D02*
X155800959Y-69372856D01*
X155800959Y-69372856D02*
X155824768Y-69349047D01*
X155824768Y-69349047D02*
X155872387Y-69325237D01*
X155872387Y-69325237D02*
X155920006Y-69325237D01*
X155920006Y-69325237D02*
X155991435Y-69349047D01*
X155991435Y-69349047D02*
X156277149Y-69634761D01*
X156277149Y-69634761D02*
X156277149Y-69325237D01*
X155824768Y-69134761D02*
X155800959Y-69110952D01*
X155800959Y-69110952D02*
X155777149Y-69063333D01*
X155777149Y-69063333D02*
X155777149Y-68944285D01*
X155777149Y-68944285D02*
X155800959Y-68896666D01*
X155800959Y-68896666D02*
X155824768Y-68872857D01*
X155824768Y-68872857D02*
X155872387Y-68849047D01*
X155872387Y-68849047D02*
X155920006Y-68849047D01*
X155920006Y-68849047D02*
X155991435Y-68872857D01*
X155991435Y-68872857D02*
X156277149Y-69158571D01*
X156277149Y-69158571D02*
X156277149Y-68849047D01*
D11*
X88871039Y-104534819D02*
X88871039Y-103534819D01*
X88871039Y-104011009D02*
X89442467Y-104011009D01*
X89442467Y-104534819D02*
X89442467Y-103534819D01*
X90347229Y-103868152D02*
X90347229Y-104534819D01*
X90109134Y-103487200D02*
X89871039Y-104201485D01*
X89871039Y-104201485D02*
X90490086Y-104201485D01*
D10*
X103647149Y-55191428D02*
X103409054Y-55358094D01*
X103647149Y-55477142D02*
X103147149Y-55477142D01*
X103147149Y-55477142D02*
X103147149Y-55286666D01*
X103147149Y-55286666D02*
X103170959Y-55239047D01*
X103170959Y-55239047D02*
X103194768Y-55215237D01*
X103194768Y-55215237D02*
X103242387Y-55191428D01*
X103242387Y-55191428D02*
X103313816Y-55191428D01*
X103313816Y-55191428D02*
X103361435Y-55215237D01*
X103361435Y-55215237D02*
X103385244Y-55239047D01*
X103385244Y-55239047D02*
X103409054Y-55286666D01*
X103409054Y-55286666D02*
X103409054Y-55477142D01*
X103647149Y-54715237D02*
X103647149Y-55000951D01*
X103647149Y-54858094D02*
X103147149Y-54858094D01*
X103147149Y-54858094D02*
X103218578Y-54905713D01*
X103218578Y-54905713D02*
X103266197Y-54953332D01*
X103266197Y-54953332D02*
X103290006Y-55000951D01*
X103147149Y-54405714D02*
X103147149Y-54358095D01*
X103147149Y-54358095D02*
X103170959Y-54310476D01*
X103170959Y-54310476D02*
X103194768Y-54286666D01*
X103194768Y-54286666D02*
X103242387Y-54262857D01*
X103242387Y-54262857D02*
X103337625Y-54239047D01*
X103337625Y-54239047D02*
X103456673Y-54239047D01*
X103456673Y-54239047D02*
X103551911Y-54262857D01*
X103551911Y-54262857D02*
X103599530Y-54286666D01*
X103599530Y-54286666D02*
X103623340Y-54310476D01*
X103623340Y-54310476D02*
X103647149Y-54358095D01*
X103647149Y-54358095D02*
X103647149Y-54405714D01*
X103647149Y-54405714D02*
X103623340Y-54453333D01*
X103623340Y-54453333D02*
X103599530Y-54477142D01*
X103599530Y-54477142D02*
X103551911Y-54500952D01*
X103551911Y-54500952D02*
X103456673Y-54524761D01*
X103456673Y-54524761D02*
X103337625Y-54524761D01*
X103337625Y-54524761D02*
X103242387Y-54500952D01*
X103242387Y-54500952D02*
X103194768Y-54477142D01*
X103194768Y-54477142D02*
X103170959Y-54453333D01*
X103170959Y-54453333D02*
X103147149Y-54405714D01*
D12*
X111852618Y-102974318D02*
X111852618Y-101704318D01*
X111852618Y-101704318D02*
X112154999Y-101704318D01*
X112154999Y-101704318D02*
X112336428Y-101764794D01*
X112336428Y-101764794D02*
X112457380Y-101885746D01*
X112457380Y-101885746D02*
X112517857Y-102006699D01*
X112517857Y-102006699D02*
X112578333Y-102248603D01*
X112578333Y-102248603D02*
X112578333Y-102430032D01*
X112578333Y-102430032D02*
X112517857Y-102671937D01*
X112517857Y-102671937D02*
X112457380Y-102792889D01*
X112457380Y-102792889D02*
X112336428Y-102913842D01*
X112336428Y-102913842D02*
X112154999Y-102974318D01*
X112154999Y-102974318D02*
X111852618Y-102974318D01*
X113666904Y-102127651D02*
X113666904Y-102974318D01*
X113364523Y-101643842D02*
X113062142Y-102550984D01*
X113062142Y-102550984D02*
X113848333Y-102550984D01*
D10*
X161979530Y-83321428D02*
X162003340Y-83345237D01*
X162003340Y-83345237D02*
X162027149Y-83416666D01*
X162027149Y-83416666D02*
X162027149Y-83464285D01*
X162027149Y-83464285D02*
X162003340Y-83535713D01*
X162003340Y-83535713D02*
X161955720Y-83583332D01*
X161955720Y-83583332D02*
X161908101Y-83607142D01*
X161908101Y-83607142D02*
X161812863Y-83630951D01*
X161812863Y-83630951D02*
X161741435Y-83630951D01*
X161741435Y-83630951D02*
X161646197Y-83607142D01*
X161646197Y-83607142D02*
X161598578Y-83583332D01*
X161598578Y-83583332D02*
X161550959Y-83535713D01*
X161550959Y-83535713D02*
X161527149Y-83464285D01*
X161527149Y-83464285D02*
X161527149Y-83416666D01*
X161527149Y-83416666D02*
X161550959Y-83345237D01*
X161550959Y-83345237D02*
X161574768Y-83321428D01*
X161574768Y-83130951D02*
X161550959Y-83107142D01*
X161550959Y-83107142D02*
X161527149Y-83059523D01*
X161527149Y-83059523D02*
X161527149Y-82940475D01*
X161527149Y-82940475D02*
X161550959Y-82892856D01*
X161550959Y-82892856D02*
X161574768Y-82869047D01*
X161574768Y-82869047D02*
X161622387Y-82845237D01*
X161622387Y-82845237D02*
X161670006Y-82845237D01*
X161670006Y-82845237D02*
X161741435Y-82869047D01*
X161741435Y-82869047D02*
X162027149Y-83154761D01*
X162027149Y-83154761D02*
X162027149Y-82845237D01*
X161527149Y-82678571D02*
X161527149Y-82369047D01*
X161527149Y-82369047D02*
X161717625Y-82535714D01*
X161717625Y-82535714D02*
X161717625Y-82464285D01*
X161717625Y-82464285D02*
X161741435Y-82416666D01*
X161741435Y-82416666D02*
X161765244Y-82392857D01*
X161765244Y-82392857D02*
X161812863Y-82369047D01*
X161812863Y-82369047D02*
X161931911Y-82369047D01*
X161931911Y-82369047D02*
X161979530Y-82392857D01*
X161979530Y-82392857D02*
X162003340Y-82416666D01*
X162003340Y-82416666D02*
X162027149Y-82464285D01*
X162027149Y-82464285D02*
X162027149Y-82607142D01*
X162027149Y-82607142D02*
X162003340Y-82654761D01*
X162003340Y-82654761D02*
X161979530Y-82678571D01*
X127262905Y-85783928D02*
X127286715Y-85807737D01*
X127286715Y-85807737D02*
X127310524Y-85879166D01*
X127310524Y-85879166D02*
X127310524Y-85926785D01*
X127310524Y-85926785D02*
X127286715Y-85998213D01*
X127286715Y-85998213D02*
X127239095Y-86045832D01*
X127239095Y-86045832D02*
X127191476Y-86069642D01*
X127191476Y-86069642D02*
X127096238Y-86093451D01*
X127096238Y-86093451D02*
X127024810Y-86093451D01*
X127024810Y-86093451D02*
X126929572Y-86069642D01*
X126929572Y-86069642D02*
X126881953Y-86045832D01*
X126881953Y-86045832D02*
X126834334Y-85998213D01*
X126834334Y-85998213D02*
X126810524Y-85926785D01*
X126810524Y-85926785D02*
X126810524Y-85879166D01*
X126810524Y-85879166D02*
X126834334Y-85807737D01*
X126834334Y-85807737D02*
X126858143Y-85783928D01*
X127310524Y-85307737D02*
X127310524Y-85593451D01*
X127310524Y-85450594D02*
X126810524Y-85450594D01*
X126810524Y-85450594D02*
X126881953Y-85498213D01*
X126881953Y-85498213D02*
X126929572Y-85545832D01*
X126929572Y-85545832D02*
X126953381Y-85593451D01*
X127310524Y-85069642D02*
X127310524Y-84974404D01*
X127310524Y-84974404D02*
X127286715Y-84926785D01*
X127286715Y-84926785D02*
X127262905Y-84902976D01*
X127262905Y-84902976D02*
X127191476Y-84855357D01*
X127191476Y-84855357D02*
X127096238Y-84831547D01*
X127096238Y-84831547D02*
X126905762Y-84831547D01*
X126905762Y-84831547D02*
X126858143Y-84855357D01*
X126858143Y-84855357D02*
X126834334Y-84879166D01*
X126834334Y-84879166D02*
X126810524Y-84926785D01*
X126810524Y-84926785D02*
X126810524Y-85022023D01*
X126810524Y-85022023D02*
X126834334Y-85069642D01*
X126834334Y-85069642D02*
X126858143Y-85093452D01*
X126858143Y-85093452D02*
X126905762Y-85117261D01*
X126905762Y-85117261D02*
X127024810Y-85117261D01*
X127024810Y-85117261D02*
X127072429Y-85093452D01*
X127072429Y-85093452D02*
X127096238Y-85069642D01*
X127096238Y-85069642D02*
X127120048Y-85022023D01*
X127120048Y-85022023D02*
X127120048Y-84926785D01*
X127120048Y-84926785D02*
X127096238Y-84879166D01*
X127096238Y-84879166D02*
X127072429Y-84855357D01*
X127072429Y-84855357D02*
X127024810Y-84831547D01*
X167357149Y-53801428D02*
X167119054Y-53968094D01*
X167357149Y-54087142D02*
X166857149Y-54087142D01*
X166857149Y-54087142D02*
X166857149Y-53896666D01*
X166857149Y-53896666D02*
X166880959Y-53849047D01*
X166880959Y-53849047D02*
X166904768Y-53825237D01*
X166904768Y-53825237D02*
X166952387Y-53801428D01*
X166952387Y-53801428D02*
X167023816Y-53801428D01*
X167023816Y-53801428D02*
X167071435Y-53825237D01*
X167071435Y-53825237D02*
X167095244Y-53849047D01*
X167095244Y-53849047D02*
X167119054Y-53896666D01*
X167119054Y-53896666D02*
X167119054Y-54087142D01*
X166904768Y-53610951D02*
X166880959Y-53587142D01*
X166880959Y-53587142D02*
X166857149Y-53539523D01*
X166857149Y-53539523D02*
X166857149Y-53420475D01*
X166857149Y-53420475D02*
X166880959Y-53372856D01*
X166880959Y-53372856D02*
X166904768Y-53349047D01*
X166904768Y-53349047D02*
X166952387Y-53325237D01*
X166952387Y-53325237D02*
X167000006Y-53325237D01*
X167000006Y-53325237D02*
X167071435Y-53349047D01*
X167071435Y-53349047D02*
X167357149Y-53634761D01*
X167357149Y-53634761D02*
X167357149Y-53325237D01*
X167357149Y-52849047D02*
X167357149Y-53134761D01*
X167357149Y-52991904D02*
X166857149Y-52991904D01*
X166857149Y-52991904D02*
X166928578Y-53039523D01*
X166928578Y-53039523D02*
X166976197Y-53087142D01*
X166976197Y-53087142D02*
X167000006Y-53134761D01*
X90351149Y-78083333D02*
X90113054Y-78249999D01*
X90351149Y-78369047D02*
X89851149Y-78369047D01*
X89851149Y-78369047D02*
X89851149Y-78178571D01*
X89851149Y-78178571D02*
X89874959Y-78130952D01*
X89874959Y-78130952D02*
X89898768Y-78107142D01*
X89898768Y-78107142D02*
X89946387Y-78083333D01*
X89946387Y-78083333D02*
X90017816Y-78083333D01*
X90017816Y-78083333D02*
X90065435Y-78107142D01*
X90065435Y-78107142D02*
X90089244Y-78130952D01*
X90089244Y-78130952D02*
X90113054Y-78178571D01*
X90113054Y-78178571D02*
X90113054Y-78369047D01*
X90065435Y-77797618D02*
X90041625Y-77845237D01*
X90041625Y-77845237D02*
X90017816Y-77869047D01*
X90017816Y-77869047D02*
X89970197Y-77892856D01*
X89970197Y-77892856D02*
X89946387Y-77892856D01*
X89946387Y-77892856D02*
X89898768Y-77869047D01*
X89898768Y-77869047D02*
X89874959Y-77845237D01*
X89874959Y-77845237D02*
X89851149Y-77797618D01*
X89851149Y-77797618D02*
X89851149Y-77702380D01*
X89851149Y-77702380D02*
X89874959Y-77654761D01*
X89874959Y-77654761D02*
X89898768Y-77630952D01*
X89898768Y-77630952D02*
X89946387Y-77607142D01*
X89946387Y-77607142D02*
X89970197Y-77607142D01*
X89970197Y-77607142D02*
X90017816Y-77630952D01*
X90017816Y-77630952D02*
X90041625Y-77654761D01*
X90041625Y-77654761D02*
X90065435Y-77702380D01*
X90065435Y-77702380D02*
X90065435Y-77797618D01*
X90065435Y-77797618D02*
X90089244Y-77845237D01*
X90089244Y-77845237D02*
X90113054Y-77869047D01*
X90113054Y-77869047D02*
X90160673Y-77892856D01*
X90160673Y-77892856D02*
X90255911Y-77892856D01*
X90255911Y-77892856D02*
X90303530Y-77869047D01*
X90303530Y-77869047D02*
X90327340Y-77845237D01*
X90327340Y-77845237D02*
X90351149Y-77797618D01*
X90351149Y-77797618D02*
X90351149Y-77702380D01*
X90351149Y-77702380D02*
X90327340Y-77654761D01*
X90327340Y-77654761D02*
X90303530Y-77630952D01*
X90303530Y-77630952D02*
X90255911Y-77607142D01*
X90255911Y-77607142D02*
X90160673Y-77607142D01*
X90160673Y-77607142D02*
X90113054Y-77630952D01*
X90113054Y-77630952D02*
X90089244Y-77654761D01*
X90089244Y-77654761D02*
X90065435Y-77702380D01*
X151137149Y-56261428D02*
X150899054Y-56428094D01*
X151137149Y-56547142D02*
X150637149Y-56547142D01*
X150637149Y-56547142D02*
X150637149Y-56356666D01*
X150637149Y-56356666D02*
X150660959Y-56309047D01*
X150660959Y-56309047D02*
X150684768Y-56285237D01*
X150684768Y-56285237D02*
X150732387Y-56261428D01*
X150732387Y-56261428D02*
X150803816Y-56261428D01*
X150803816Y-56261428D02*
X150851435Y-56285237D01*
X150851435Y-56285237D02*
X150875244Y-56309047D01*
X150875244Y-56309047D02*
X150899054Y-56356666D01*
X150899054Y-56356666D02*
X150899054Y-56547142D01*
X151137149Y-55785237D02*
X151137149Y-56070951D01*
X151137149Y-55928094D02*
X150637149Y-55928094D01*
X150637149Y-55928094D02*
X150708578Y-55975713D01*
X150708578Y-55975713D02*
X150756197Y-56023332D01*
X150756197Y-56023332D02*
X150780006Y-56070951D01*
X150851435Y-55499523D02*
X150827625Y-55547142D01*
X150827625Y-55547142D02*
X150803816Y-55570952D01*
X150803816Y-55570952D02*
X150756197Y-55594761D01*
X150756197Y-55594761D02*
X150732387Y-55594761D01*
X150732387Y-55594761D02*
X150684768Y-55570952D01*
X150684768Y-55570952D02*
X150660959Y-55547142D01*
X150660959Y-55547142D02*
X150637149Y-55499523D01*
X150637149Y-55499523D02*
X150637149Y-55404285D01*
X150637149Y-55404285D02*
X150660959Y-55356666D01*
X150660959Y-55356666D02*
X150684768Y-55332857D01*
X150684768Y-55332857D02*
X150732387Y-55309047D01*
X150732387Y-55309047D02*
X150756197Y-55309047D01*
X150756197Y-55309047D02*
X150803816Y-55332857D01*
X150803816Y-55332857D02*
X150827625Y-55356666D01*
X150827625Y-55356666D02*
X150851435Y-55404285D01*
X150851435Y-55404285D02*
X150851435Y-55499523D01*
X150851435Y-55499523D02*
X150875244Y-55547142D01*
X150875244Y-55547142D02*
X150899054Y-55570952D01*
X150899054Y-55570952D02*
X150946673Y-55594761D01*
X150946673Y-55594761D02*
X151041911Y-55594761D01*
X151041911Y-55594761D02*
X151089530Y-55570952D01*
X151089530Y-55570952D02*
X151113340Y-55547142D01*
X151113340Y-55547142D02*
X151137149Y-55499523D01*
X151137149Y-55499523D02*
X151137149Y-55404285D01*
X151137149Y-55404285D02*
X151113340Y-55356666D01*
X151113340Y-55356666D02*
X151089530Y-55332857D01*
X151089530Y-55332857D02*
X151041911Y-55309047D01*
X151041911Y-55309047D02*
X150946673Y-55309047D01*
X150946673Y-55309047D02*
X150899054Y-55332857D01*
X150899054Y-55332857D02*
X150875244Y-55356666D01*
X150875244Y-55356666D02*
X150851435Y-55404285D01*
D11*
X137637619Y-88964819D02*
X137637619Y-87964819D01*
X137637619Y-87964819D02*
X137875714Y-87964819D01*
X137875714Y-87964819D02*
X138018571Y-88012438D01*
X138018571Y-88012438D02*
X138113809Y-88107676D01*
X138113809Y-88107676D02*
X138161428Y-88202914D01*
X138161428Y-88202914D02*
X138209047Y-88393390D01*
X138209047Y-88393390D02*
X138209047Y-88536247D01*
X138209047Y-88536247D02*
X138161428Y-88726723D01*
X138161428Y-88726723D02*
X138113809Y-88821961D01*
X138113809Y-88821961D02*
X138018571Y-88917200D01*
X138018571Y-88917200D02*
X137875714Y-88964819D01*
X137875714Y-88964819D02*
X137637619Y-88964819D01*
X139209047Y-88964819D02*
X138875714Y-88488628D01*
X138637619Y-88964819D02*
X138637619Y-87964819D01*
X138637619Y-87964819D02*
X139018571Y-87964819D01*
X139018571Y-87964819D02*
X139113809Y-88012438D01*
X139113809Y-88012438D02*
X139161428Y-88060057D01*
X139161428Y-88060057D02*
X139209047Y-88155295D01*
X139209047Y-88155295D02*
X139209047Y-88298152D01*
X139209047Y-88298152D02*
X139161428Y-88393390D01*
X139161428Y-88393390D02*
X139113809Y-88441009D01*
X139113809Y-88441009D02*
X139018571Y-88488628D01*
X139018571Y-88488628D02*
X138637619Y-88488628D01*
X139637619Y-88964819D02*
X139637619Y-87964819D01*
X140018571Y-87964819D02*
X140685237Y-87964819D01*
X140685237Y-87964819D02*
X140018571Y-88964819D01*
X140018571Y-88964819D02*
X140685237Y-88964819D01*
X141589999Y-88964819D02*
X141018571Y-88964819D01*
X141304285Y-88964819D02*
X141304285Y-87964819D01*
X141304285Y-87964819D02*
X141209047Y-88107676D01*
X141209047Y-88107676D02*
X141113809Y-88202914D01*
X141113809Y-88202914D02*
X141018571Y-88250533D01*
D10*
X121262905Y-85783928D02*
X121286715Y-85807737D01*
X121286715Y-85807737D02*
X121310524Y-85879166D01*
X121310524Y-85879166D02*
X121310524Y-85926785D01*
X121310524Y-85926785D02*
X121286715Y-85998213D01*
X121286715Y-85998213D02*
X121239095Y-86045832D01*
X121239095Y-86045832D02*
X121191476Y-86069642D01*
X121191476Y-86069642D02*
X121096238Y-86093451D01*
X121096238Y-86093451D02*
X121024810Y-86093451D01*
X121024810Y-86093451D02*
X120929572Y-86069642D01*
X120929572Y-86069642D02*
X120881953Y-86045832D01*
X120881953Y-86045832D02*
X120834334Y-85998213D01*
X120834334Y-85998213D02*
X120810524Y-85926785D01*
X120810524Y-85926785D02*
X120810524Y-85879166D01*
X120810524Y-85879166D02*
X120834334Y-85807737D01*
X120834334Y-85807737D02*
X120858143Y-85783928D01*
X120858143Y-85593451D02*
X120834334Y-85569642D01*
X120834334Y-85569642D02*
X120810524Y-85522023D01*
X120810524Y-85522023D02*
X120810524Y-85402975D01*
X120810524Y-85402975D02*
X120834334Y-85355356D01*
X120834334Y-85355356D02*
X120858143Y-85331547D01*
X120858143Y-85331547D02*
X120905762Y-85307737D01*
X120905762Y-85307737D02*
X120953381Y-85307737D01*
X120953381Y-85307737D02*
X121024810Y-85331547D01*
X121024810Y-85331547D02*
X121310524Y-85617261D01*
X121310524Y-85617261D02*
X121310524Y-85307737D01*
X120810524Y-84998214D02*
X120810524Y-84950595D01*
X120810524Y-84950595D02*
X120834334Y-84902976D01*
X120834334Y-84902976D02*
X120858143Y-84879166D01*
X120858143Y-84879166D02*
X120905762Y-84855357D01*
X120905762Y-84855357D02*
X121001000Y-84831547D01*
X121001000Y-84831547D02*
X121120048Y-84831547D01*
X121120048Y-84831547D02*
X121215286Y-84855357D01*
X121215286Y-84855357D02*
X121262905Y-84879166D01*
X121262905Y-84879166D02*
X121286715Y-84902976D01*
X121286715Y-84902976D02*
X121310524Y-84950595D01*
X121310524Y-84950595D02*
X121310524Y-84998214D01*
X121310524Y-84998214D02*
X121286715Y-85045833D01*
X121286715Y-85045833D02*
X121262905Y-85069642D01*
X121262905Y-85069642D02*
X121215286Y-85093452D01*
X121215286Y-85093452D02*
X121120048Y-85117261D01*
X121120048Y-85117261D02*
X121001000Y-85117261D01*
X121001000Y-85117261D02*
X120905762Y-85093452D01*
X120905762Y-85093452D02*
X120858143Y-85069642D01*
X120858143Y-85069642D02*
X120834334Y-85045833D01*
X120834334Y-85045833D02*
X120810524Y-84998214D01*
D11*
X171121039Y-104534819D02*
X171121039Y-103534819D01*
X171121039Y-104011009D02*
X171692467Y-104011009D01*
X171692467Y-104534819D02*
X171692467Y-103534819D01*
X172073420Y-103534819D02*
X172692467Y-103534819D01*
X172692467Y-103534819D02*
X172359134Y-103915771D01*
X172359134Y-103915771D02*
X172501991Y-103915771D01*
X172501991Y-103915771D02*
X172597229Y-103963390D01*
X172597229Y-103963390D02*
X172644848Y-104011009D01*
X172644848Y-104011009D02*
X172692467Y-104106247D01*
X172692467Y-104106247D02*
X172692467Y-104344342D01*
X172692467Y-104344342D02*
X172644848Y-104439580D01*
X172644848Y-104439580D02*
X172597229Y-104487200D01*
X172597229Y-104487200D02*
X172501991Y-104534819D01*
X172501991Y-104534819D02*
X172216277Y-104534819D01*
X172216277Y-104534819D02*
X172121039Y-104487200D01*
X172121039Y-104487200D02*
X172073420Y-104439580D01*
D10*
X94539149Y-69333333D02*
X94301054Y-69499999D01*
X94539149Y-69619047D02*
X94039149Y-69619047D01*
X94039149Y-69619047D02*
X94039149Y-69428571D01*
X94039149Y-69428571D02*
X94062959Y-69380952D01*
X94062959Y-69380952D02*
X94086768Y-69357142D01*
X94086768Y-69357142D02*
X94134387Y-69333333D01*
X94134387Y-69333333D02*
X94205816Y-69333333D01*
X94205816Y-69333333D02*
X94253435Y-69357142D01*
X94253435Y-69357142D02*
X94277244Y-69380952D01*
X94277244Y-69380952D02*
X94301054Y-69428571D01*
X94301054Y-69428571D02*
X94301054Y-69619047D01*
X94039149Y-69166666D02*
X94039149Y-68833333D01*
X94039149Y-68833333D02*
X94539149Y-69047618D01*
X119363070Y-52596373D02*
X119386880Y-52620182D01*
X119386880Y-52620182D02*
X119410689Y-52691611D01*
X119410689Y-52691611D02*
X119410689Y-52739230D01*
X119410689Y-52739230D02*
X119386880Y-52810658D01*
X119386880Y-52810658D02*
X119339260Y-52858277D01*
X119339260Y-52858277D02*
X119291641Y-52882087D01*
X119291641Y-52882087D02*
X119196403Y-52905896D01*
X119196403Y-52905896D02*
X119124975Y-52905896D01*
X119124975Y-52905896D02*
X119029737Y-52882087D01*
X119029737Y-52882087D02*
X118982118Y-52858277D01*
X118982118Y-52858277D02*
X118934499Y-52810658D01*
X118934499Y-52810658D02*
X118910689Y-52739230D01*
X118910689Y-52739230D02*
X118910689Y-52691611D01*
X118910689Y-52691611D02*
X118934499Y-52620182D01*
X118934499Y-52620182D02*
X118958308Y-52596373D01*
X119124975Y-52310658D02*
X119101165Y-52358277D01*
X119101165Y-52358277D02*
X119077356Y-52382087D01*
X119077356Y-52382087D02*
X119029737Y-52405896D01*
X119029737Y-52405896D02*
X119005927Y-52405896D01*
X119005927Y-52405896D02*
X118958308Y-52382087D01*
X118958308Y-52382087D02*
X118934499Y-52358277D01*
X118934499Y-52358277D02*
X118910689Y-52310658D01*
X118910689Y-52310658D02*
X118910689Y-52215420D01*
X118910689Y-52215420D02*
X118934499Y-52167801D01*
X118934499Y-52167801D02*
X118958308Y-52143992D01*
X118958308Y-52143992D02*
X119005927Y-52120182D01*
X119005927Y-52120182D02*
X119029737Y-52120182D01*
X119029737Y-52120182D02*
X119077356Y-52143992D01*
X119077356Y-52143992D02*
X119101165Y-52167801D01*
X119101165Y-52167801D02*
X119124975Y-52215420D01*
X119124975Y-52215420D02*
X119124975Y-52310658D01*
X119124975Y-52310658D02*
X119148784Y-52358277D01*
X119148784Y-52358277D02*
X119172594Y-52382087D01*
X119172594Y-52382087D02*
X119220213Y-52405896D01*
X119220213Y-52405896D02*
X119315451Y-52405896D01*
X119315451Y-52405896D02*
X119363070Y-52382087D01*
X119363070Y-52382087D02*
X119386880Y-52358277D01*
X119386880Y-52358277D02*
X119410689Y-52310658D01*
X119410689Y-52310658D02*
X119410689Y-52215420D01*
X119410689Y-52215420D02*
X119386880Y-52167801D01*
X119386880Y-52167801D02*
X119363070Y-52143992D01*
X119363070Y-52143992D02*
X119315451Y-52120182D01*
X119315451Y-52120182D02*
X119220213Y-52120182D01*
X119220213Y-52120182D02*
X119172594Y-52143992D01*
X119172594Y-52143992D02*
X119148784Y-52167801D01*
X119148784Y-52167801D02*
X119124975Y-52215420D01*
X92357149Y-55201428D02*
X92119054Y-55368094D01*
X92357149Y-55487142D02*
X91857149Y-55487142D01*
X91857149Y-55487142D02*
X91857149Y-55296666D01*
X91857149Y-55296666D02*
X91880959Y-55249047D01*
X91880959Y-55249047D02*
X91904768Y-55225237D01*
X91904768Y-55225237D02*
X91952387Y-55201428D01*
X91952387Y-55201428D02*
X92023816Y-55201428D01*
X92023816Y-55201428D02*
X92071435Y-55225237D01*
X92071435Y-55225237D02*
X92095244Y-55249047D01*
X92095244Y-55249047D02*
X92119054Y-55296666D01*
X92119054Y-55296666D02*
X92119054Y-55487142D01*
X92357149Y-54725237D02*
X92357149Y-55010951D01*
X92357149Y-54868094D02*
X91857149Y-54868094D01*
X91857149Y-54868094D02*
X91928578Y-54915713D01*
X91928578Y-54915713D02*
X91976197Y-54963332D01*
X91976197Y-54963332D02*
X92000006Y-55010951D01*
X92357149Y-54249047D02*
X92357149Y-54534761D01*
X92357149Y-54391904D02*
X91857149Y-54391904D01*
X91857149Y-54391904D02*
X91928578Y-54439523D01*
X91928578Y-54439523D02*
X91976197Y-54487142D01*
X91976197Y-54487142D02*
X92000006Y-54534761D01*
X115863070Y-52834468D02*
X115886880Y-52858277D01*
X115886880Y-52858277D02*
X115910689Y-52929706D01*
X115910689Y-52929706D02*
X115910689Y-52977325D01*
X115910689Y-52977325D02*
X115886880Y-53048753D01*
X115886880Y-53048753D02*
X115839260Y-53096372D01*
X115839260Y-53096372D02*
X115791641Y-53120182D01*
X115791641Y-53120182D02*
X115696403Y-53143991D01*
X115696403Y-53143991D02*
X115624975Y-53143991D01*
X115624975Y-53143991D02*
X115529737Y-53120182D01*
X115529737Y-53120182D02*
X115482118Y-53096372D01*
X115482118Y-53096372D02*
X115434499Y-53048753D01*
X115434499Y-53048753D02*
X115410689Y-52977325D01*
X115410689Y-52977325D02*
X115410689Y-52929706D01*
X115410689Y-52929706D02*
X115434499Y-52858277D01*
X115434499Y-52858277D02*
X115458308Y-52834468D01*
X115910689Y-52358277D02*
X115910689Y-52643991D01*
X115910689Y-52501134D02*
X115410689Y-52501134D01*
X115410689Y-52501134D02*
X115482118Y-52548753D01*
X115482118Y-52548753D02*
X115529737Y-52596372D01*
X115529737Y-52596372D02*
X115553546Y-52643991D01*
X115910689Y-51882087D02*
X115910689Y-52167801D01*
X115910689Y-52024944D02*
X115410689Y-52024944D01*
X115410689Y-52024944D02*
X115482118Y-52072563D01*
X115482118Y-52072563D02*
X115529737Y-52120182D01*
X115529737Y-52120182D02*
X115553546Y-52167801D01*
X161209530Y-53801428D02*
X161233340Y-53825237D01*
X161233340Y-53825237D02*
X161257149Y-53896666D01*
X161257149Y-53896666D02*
X161257149Y-53944285D01*
X161257149Y-53944285D02*
X161233340Y-54015713D01*
X161233340Y-54015713D02*
X161185720Y-54063332D01*
X161185720Y-54063332D02*
X161138101Y-54087142D01*
X161138101Y-54087142D02*
X161042863Y-54110951D01*
X161042863Y-54110951D02*
X160971435Y-54110951D01*
X160971435Y-54110951D02*
X160876197Y-54087142D01*
X160876197Y-54087142D02*
X160828578Y-54063332D01*
X160828578Y-54063332D02*
X160780959Y-54015713D01*
X160780959Y-54015713D02*
X160757149Y-53944285D01*
X160757149Y-53944285D02*
X160757149Y-53896666D01*
X160757149Y-53896666D02*
X160780959Y-53825237D01*
X160780959Y-53825237D02*
X160804768Y-53801428D01*
X161257149Y-53325237D02*
X161257149Y-53610951D01*
X161257149Y-53468094D02*
X160757149Y-53468094D01*
X160757149Y-53468094D02*
X160828578Y-53515713D01*
X160828578Y-53515713D02*
X160876197Y-53563332D01*
X160876197Y-53563332D02*
X160900006Y-53610951D01*
X160971435Y-53039523D02*
X160947625Y-53087142D01*
X160947625Y-53087142D02*
X160923816Y-53110952D01*
X160923816Y-53110952D02*
X160876197Y-53134761D01*
X160876197Y-53134761D02*
X160852387Y-53134761D01*
X160852387Y-53134761D02*
X160804768Y-53110952D01*
X160804768Y-53110952D02*
X160780959Y-53087142D01*
X160780959Y-53087142D02*
X160757149Y-53039523D01*
X160757149Y-53039523D02*
X160757149Y-52944285D01*
X160757149Y-52944285D02*
X160780959Y-52896666D01*
X160780959Y-52896666D02*
X160804768Y-52872857D01*
X160804768Y-52872857D02*
X160852387Y-52849047D01*
X160852387Y-52849047D02*
X160876197Y-52849047D01*
X160876197Y-52849047D02*
X160923816Y-52872857D01*
X160923816Y-52872857D02*
X160947625Y-52896666D01*
X160947625Y-52896666D02*
X160971435Y-52944285D01*
X160971435Y-52944285D02*
X160971435Y-53039523D01*
X160971435Y-53039523D02*
X160995244Y-53087142D01*
X160995244Y-53087142D02*
X161019054Y-53110952D01*
X161019054Y-53110952D02*
X161066673Y-53134761D01*
X161066673Y-53134761D02*
X161161911Y-53134761D01*
X161161911Y-53134761D02*
X161209530Y-53110952D01*
X161209530Y-53110952D02*
X161233340Y-53087142D01*
X161233340Y-53087142D02*
X161257149Y-53039523D01*
X161257149Y-53039523D02*
X161257149Y-52944285D01*
X161257149Y-52944285D02*
X161233340Y-52896666D01*
X161233340Y-52896666D02*
X161209530Y-52872857D01*
X161209530Y-52872857D02*
X161161911Y-52849047D01*
X161161911Y-52849047D02*
X161066673Y-52849047D01*
X161066673Y-52849047D02*
X161019054Y-52872857D01*
X161019054Y-52872857D02*
X160995244Y-52896666D01*
X160995244Y-52896666D02*
X160971435Y-52944285D01*
D11*
X166801666Y-88014819D02*
X166801666Y-88729104D01*
X166801666Y-88729104D02*
X166754047Y-88871961D01*
X166754047Y-88871961D02*
X166658809Y-88967200D01*
X166658809Y-88967200D02*
X166515952Y-89014819D01*
X166515952Y-89014819D02*
X166420714Y-89014819D01*
X167420714Y-88443390D02*
X167325476Y-88395771D01*
X167325476Y-88395771D02*
X167277857Y-88348152D01*
X167277857Y-88348152D02*
X167230238Y-88252914D01*
X167230238Y-88252914D02*
X167230238Y-88205295D01*
X167230238Y-88205295D02*
X167277857Y-88110057D01*
X167277857Y-88110057D02*
X167325476Y-88062438D01*
X167325476Y-88062438D02*
X167420714Y-88014819D01*
X167420714Y-88014819D02*
X167611190Y-88014819D01*
X167611190Y-88014819D02*
X167706428Y-88062438D01*
X167706428Y-88062438D02*
X167754047Y-88110057D01*
X167754047Y-88110057D02*
X167801666Y-88205295D01*
X167801666Y-88205295D02*
X167801666Y-88252914D01*
X167801666Y-88252914D02*
X167754047Y-88348152D01*
X167754047Y-88348152D02*
X167706428Y-88395771D01*
X167706428Y-88395771D02*
X167611190Y-88443390D01*
X167611190Y-88443390D02*
X167420714Y-88443390D01*
X167420714Y-88443390D02*
X167325476Y-88491009D01*
X167325476Y-88491009D02*
X167277857Y-88538628D01*
X167277857Y-88538628D02*
X167230238Y-88633866D01*
X167230238Y-88633866D02*
X167230238Y-88824342D01*
X167230238Y-88824342D02*
X167277857Y-88919580D01*
X167277857Y-88919580D02*
X167325476Y-88967200D01*
X167325476Y-88967200D02*
X167420714Y-89014819D01*
X167420714Y-89014819D02*
X167611190Y-89014819D01*
X167611190Y-89014819D02*
X167706428Y-88967200D01*
X167706428Y-88967200D02*
X167754047Y-88919580D01*
X167754047Y-88919580D02*
X167801666Y-88824342D01*
X167801666Y-88824342D02*
X167801666Y-88633866D01*
X167801666Y-88633866D02*
X167754047Y-88538628D01*
X167754047Y-88538628D02*
X167706428Y-88491009D01*
X167706428Y-88491009D02*
X167611190Y-88443390D01*
D10*
X96539149Y-81333333D02*
X96301054Y-81499999D01*
X96539149Y-81619047D02*
X96039149Y-81619047D01*
X96039149Y-81619047D02*
X96039149Y-81428571D01*
X96039149Y-81428571D02*
X96062959Y-81380952D01*
X96062959Y-81380952D02*
X96086768Y-81357142D01*
X96086768Y-81357142D02*
X96134387Y-81333333D01*
X96134387Y-81333333D02*
X96205816Y-81333333D01*
X96205816Y-81333333D02*
X96253435Y-81357142D01*
X96253435Y-81357142D02*
X96277244Y-81380952D01*
X96277244Y-81380952D02*
X96301054Y-81428571D01*
X96301054Y-81428571D02*
X96301054Y-81619047D01*
X96039149Y-80904761D02*
X96039149Y-80999999D01*
X96039149Y-80999999D02*
X96062959Y-81047618D01*
X96062959Y-81047618D02*
X96086768Y-81071428D01*
X96086768Y-81071428D02*
X96158197Y-81119047D01*
X96158197Y-81119047D02*
X96253435Y-81142856D01*
X96253435Y-81142856D02*
X96443911Y-81142856D01*
X96443911Y-81142856D02*
X96491530Y-81119047D01*
X96491530Y-81119047D02*
X96515340Y-81095237D01*
X96515340Y-81095237D02*
X96539149Y-81047618D01*
X96539149Y-81047618D02*
X96539149Y-80952380D01*
X96539149Y-80952380D02*
X96515340Y-80904761D01*
X96515340Y-80904761D02*
X96491530Y-80880952D01*
X96491530Y-80880952D02*
X96443911Y-80857142D01*
X96443911Y-80857142D02*
X96324863Y-80857142D01*
X96324863Y-80857142D02*
X96277244Y-80880952D01*
X96277244Y-80880952D02*
X96253435Y-80904761D01*
X96253435Y-80904761D02*
X96229625Y-80952380D01*
X96229625Y-80952380D02*
X96229625Y-81047618D01*
X96229625Y-81047618D02*
X96253435Y-81095237D01*
X96253435Y-81095237D02*
X96277244Y-81119047D01*
X96277244Y-81119047D02*
X96324863Y-81142856D01*
X129019649Y-100858928D02*
X128781554Y-101025594D01*
X129019649Y-101144642D02*
X128519649Y-101144642D01*
X128519649Y-101144642D02*
X128519649Y-100954166D01*
X128519649Y-100954166D02*
X128543459Y-100906547D01*
X128543459Y-100906547D02*
X128567268Y-100882737D01*
X128567268Y-100882737D02*
X128614887Y-100858928D01*
X128614887Y-100858928D02*
X128686316Y-100858928D01*
X128686316Y-100858928D02*
X128733935Y-100882737D01*
X128733935Y-100882737D02*
X128757744Y-100906547D01*
X128757744Y-100906547D02*
X128781554Y-100954166D01*
X128781554Y-100954166D02*
X128781554Y-101144642D01*
X129019649Y-100382737D02*
X129019649Y-100668451D01*
X129019649Y-100525594D02*
X128519649Y-100525594D01*
X128519649Y-100525594D02*
X128591078Y-100573213D01*
X128591078Y-100573213D02*
X128638697Y-100620832D01*
X128638697Y-100620832D02*
X128662506Y-100668451D01*
X128519649Y-100216071D02*
X128519649Y-99906547D01*
X128519649Y-99906547D02*
X128710125Y-100073214D01*
X128710125Y-100073214D02*
X128710125Y-100001785D01*
X128710125Y-100001785D02*
X128733935Y-99954166D01*
X128733935Y-99954166D02*
X128757744Y-99930357D01*
X128757744Y-99930357D02*
X128805363Y-99906547D01*
X128805363Y-99906547D02*
X128924411Y-99906547D01*
X128924411Y-99906547D02*
X128972030Y-99930357D01*
X128972030Y-99930357D02*
X128995840Y-99954166D01*
X128995840Y-99954166D02*
X129019649Y-100001785D01*
X129019649Y-100001785D02*
X129019649Y-100144642D01*
X129019649Y-100144642D02*
X128995840Y-100192261D01*
X128995840Y-100192261D02*
X128972030Y-100216071D01*
X99351149Y-76083333D02*
X99113054Y-76249999D01*
X99351149Y-76369047D02*
X98851149Y-76369047D01*
X98851149Y-76369047D02*
X98851149Y-76178571D01*
X98851149Y-76178571D02*
X98874959Y-76130952D01*
X98874959Y-76130952D02*
X98898768Y-76107142D01*
X98898768Y-76107142D02*
X98946387Y-76083333D01*
X98946387Y-76083333D02*
X99017816Y-76083333D01*
X99017816Y-76083333D02*
X99065435Y-76107142D01*
X99065435Y-76107142D02*
X99089244Y-76130952D01*
X99089244Y-76130952D02*
X99113054Y-76178571D01*
X99113054Y-76178571D02*
X99113054Y-76369047D01*
X98851149Y-75630952D02*
X98851149Y-75869047D01*
X98851149Y-75869047D02*
X99089244Y-75892856D01*
X99089244Y-75892856D02*
X99065435Y-75869047D01*
X99065435Y-75869047D02*
X99041625Y-75821428D01*
X99041625Y-75821428D02*
X99041625Y-75702380D01*
X99041625Y-75702380D02*
X99065435Y-75654761D01*
X99065435Y-75654761D02*
X99089244Y-75630952D01*
X99089244Y-75630952D02*
X99136863Y-75607142D01*
X99136863Y-75607142D02*
X99255911Y-75607142D01*
X99255911Y-75607142D02*
X99303530Y-75630952D01*
X99303530Y-75630952D02*
X99327340Y-75654761D01*
X99327340Y-75654761D02*
X99351149Y-75702380D01*
X99351149Y-75702380D02*
X99351149Y-75821428D01*
X99351149Y-75821428D02*
X99327340Y-75869047D01*
X99327340Y-75869047D02*
X99303530Y-75892856D01*
X158777149Y-69563333D02*
X158539054Y-69729999D01*
X158777149Y-69849047D02*
X158277149Y-69849047D01*
X158277149Y-69849047D02*
X158277149Y-69658571D01*
X158277149Y-69658571D02*
X158300959Y-69610952D01*
X158300959Y-69610952D02*
X158324768Y-69587142D01*
X158324768Y-69587142D02*
X158372387Y-69563333D01*
X158372387Y-69563333D02*
X158443816Y-69563333D01*
X158443816Y-69563333D02*
X158491435Y-69587142D01*
X158491435Y-69587142D02*
X158515244Y-69610952D01*
X158515244Y-69610952D02*
X158539054Y-69658571D01*
X158539054Y-69658571D02*
X158539054Y-69849047D01*
X158443816Y-69134761D02*
X158777149Y-69134761D01*
X158253340Y-69253809D02*
X158610482Y-69372856D01*
X158610482Y-69372856D02*
X158610482Y-69063333D01*
X117969530Y-100821428D02*
X117993340Y-100845237D01*
X117993340Y-100845237D02*
X118017149Y-100916666D01*
X118017149Y-100916666D02*
X118017149Y-100964285D01*
X118017149Y-100964285D02*
X117993340Y-101035713D01*
X117993340Y-101035713D02*
X117945720Y-101083332D01*
X117945720Y-101083332D02*
X117898101Y-101107142D01*
X117898101Y-101107142D02*
X117802863Y-101130951D01*
X117802863Y-101130951D02*
X117731435Y-101130951D01*
X117731435Y-101130951D02*
X117636197Y-101107142D01*
X117636197Y-101107142D02*
X117588578Y-101083332D01*
X117588578Y-101083332D02*
X117540959Y-101035713D01*
X117540959Y-101035713D02*
X117517149Y-100964285D01*
X117517149Y-100964285D02*
X117517149Y-100916666D01*
X117517149Y-100916666D02*
X117540959Y-100845237D01*
X117540959Y-100845237D02*
X117564768Y-100821428D01*
X118017149Y-100345237D02*
X118017149Y-100630951D01*
X118017149Y-100488094D02*
X117517149Y-100488094D01*
X117517149Y-100488094D02*
X117588578Y-100535713D01*
X117588578Y-100535713D02*
X117636197Y-100583332D01*
X117636197Y-100583332D02*
X117660006Y-100630951D01*
X117517149Y-99916666D02*
X117517149Y-100011904D01*
X117517149Y-100011904D02*
X117540959Y-100059523D01*
X117540959Y-100059523D02*
X117564768Y-100083333D01*
X117564768Y-100083333D02*
X117636197Y-100130952D01*
X117636197Y-100130952D02*
X117731435Y-100154761D01*
X117731435Y-100154761D02*
X117921911Y-100154761D01*
X117921911Y-100154761D02*
X117969530Y-100130952D01*
X117969530Y-100130952D02*
X117993340Y-100107142D01*
X117993340Y-100107142D02*
X118017149Y-100059523D01*
X118017149Y-100059523D02*
X118017149Y-99964285D01*
X118017149Y-99964285D02*
X117993340Y-99916666D01*
X117993340Y-99916666D02*
X117969530Y-99892857D01*
X117969530Y-99892857D02*
X117921911Y-99869047D01*
X117921911Y-99869047D02*
X117802863Y-99869047D01*
X117802863Y-99869047D02*
X117755244Y-99892857D01*
X117755244Y-99892857D02*
X117731435Y-99916666D01*
X117731435Y-99916666D02*
X117707625Y-99964285D01*
X117707625Y-99964285D02*
X117707625Y-100059523D01*
X117707625Y-100059523D02*
X117731435Y-100107142D01*
X117731435Y-100107142D02*
X117755244Y-100130952D01*
X117755244Y-100130952D02*
X117802863Y-100154761D01*
X169349530Y-69793928D02*
X169373340Y-69817737D01*
X169373340Y-69817737D02*
X169397149Y-69889166D01*
X169397149Y-69889166D02*
X169397149Y-69936785D01*
X169397149Y-69936785D02*
X169373340Y-70008213D01*
X169373340Y-70008213D02*
X169325720Y-70055832D01*
X169325720Y-70055832D02*
X169278101Y-70079642D01*
X169278101Y-70079642D02*
X169182863Y-70103451D01*
X169182863Y-70103451D02*
X169111435Y-70103451D01*
X169111435Y-70103451D02*
X169016197Y-70079642D01*
X169016197Y-70079642D02*
X168968578Y-70055832D01*
X168968578Y-70055832D02*
X168920959Y-70008213D01*
X168920959Y-70008213D02*
X168897149Y-69936785D01*
X168897149Y-69936785D02*
X168897149Y-69889166D01*
X168897149Y-69889166D02*
X168920959Y-69817737D01*
X168920959Y-69817737D02*
X168944768Y-69793928D01*
X168944768Y-69603451D02*
X168920959Y-69579642D01*
X168920959Y-69579642D02*
X168897149Y-69532023D01*
X168897149Y-69532023D02*
X168897149Y-69412975D01*
X168897149Y-69412975D02*
X168920959Y-69365356D01*
X168920959Y-69365356D02*
X168944768Y-69341547D01*
X168944768Y-69341547D02*
X168992387Y-69317737D01*
X168992387Y-69317737D02*
X169040006Y-69317737D01*
X169040006Y-69317737D02*
X169111435Y-69341547D01*
X169111435Y-69341547D02*
X169397149Y-69627261D01*
X169397149Y-69627261D02*
X169397149Y-69317737D01*
X169397149Y-68841547D02*
X169397149Y-69127261D01*
X169397149Y-68984404D02*
X168897149Y-68984404D01*
X168897149Y-68984404D02*
X168968578Y-69032023D01*
X168968578Y-69032023D02*
X169016197Y-69079642D01*
X169016197Y-69079642D02*
X169040006Y-69127261D01*
X127469530Y-105221428D02*
X127493340Y-105245237D01*
X127493340Y-105245237D02*
X127517149Y-105316666D01*
X127517149Y-105316666D02*
X127517149Y-105364285D01*
X127517149Y-105364285D02*
X127493340Y-105435713D01*
X127493340Y-105435713D02*
X127445720Y-105483332D01*
X127445720Y-105483332D02*
X127398101Y-105507142D01*
X127398101Y-105507142D02*
X127302863Y-105530951D01*
X127302863Y-105530951D02*
X127231435Y-105530951D01*
X127231435Y-105530951D02*
X127136197Y-105507142D01*
X127136197Y-105507142D02*
X127088578Y-105483332D01*
X127088578Y-105483332D02*
X127040959Y-105435713D01*
X127040959Y-105435713D02*
X127017149Y-105364285D01*
X127017149Y-105364285D02*
X127017149Y-105316666D01*
X127017149Y-105316666D02*
X127040959Y-105245237D01*
X127040959Y-105245237D02*
X127064768Y-105221428D01*
X127517149Y-104745237D02*
X127517149Y-105030951D01*
X127517149Y-104888094D02*
X127017149Y-104888094D01*
X127017149Y-104888094D02*
X127088578Y-104935713D01*
X127088578Y-104935713D02*
X127136197Y-104983332D01*
X127136197Y-104983332D02*
X127160006Y-105030951D01*
X127183816Y-104316666D02*
X127517149Y-104316666D01*
X126993340Y-104435714D02*
X127350482Y-104554761D01*
X127350482Y-104554761D02*
X127350482Y-104245238D01*
D12*
X99716667Y-46293318D02*
X99716667Y-47200461D01*
X99716667Y-47200461D02*
X99656190Y-47381889D01*
X99656190Y-47381889D02*
X99535238Y-47502842D01*
X99535238Y-47502842D02*
X99353809Y-47563318D01*
X99353809Y-47563318D02*
X99232857Y-47563318D01*
X100200476Y-46293318D02*
X100986667Y-46293318D01*
X100986667Y-46293318D02*
X100563333Y-46777127D01*
X100563333Y-46777127D02*
X100744762Y-46777127D01*
X100744762Y-46777127D02*
X100865714Y-46837603D01*
X100865714Y-46837603D02*
X100926190Y-46898080D01*
X100926190Y-46898080D02*
X100986667Y-47019032D01*
X100986667Y-47019032D02*
X100986667Y-47321413D01*
X100986667Y-47321413D02*
X100926190Y-47442365D01*
X100926190Y-47442365D02*
X100865714Y-47502842D01*
X100865714Y-47502842D02*
X100744762Y-47563318D01*
X100744762Y-47563318D02*
X100381905Y-47563318D01*
X100381905Y-47563318D02*
X100260952Y-47502842D01*
X100260952Y-47502842D02*
X100200476Y-47442365D01*
D10*
X112410689Y-52633873D02*
X112172594Y-52800539D01*
X112410689Y-52919587D02*
X111910689Y-52919587D01*
X111910689Y-52919587D02*
X111910689Y-52729111D01*
X111910689Y-52729111D02*
X111934499Y-52681492D01*
X111934499Y-52681492D02*
X111958308Y-52657682D01*
X111958308Y-52657682D02*
X112005927Y-52633873D01*
X112005927Y-52633873D02*
X112077356Y-52633873D01*
X112077356Y-52633873D02*
X112124975Y-52657682D01*
X112124975Y-52657682D02*
X112148784Y-52681492D01*
X112148784Y-52681492D02*
X112172594Y-52729111D01*
X112172594Y-52729111D02*
X112172594Y-52919587D01*
X111910689Y-52467206D02*
X111910689Y-52157682D01*
X111910689Y-52157682D02*
X112101165Y-52324349D01*
X112101165Y-52324349D02*
X112101165Y-52252920D01*
X112101165Y-52252920D02*
X112124975Y-52205301D01*
X112124975Y-52205301D02*
X112148784Y-52181492D01*
X112148784Y-52181492D02*
X112196403Y-52157682D01*
X112196403Y-52157682D02*
X112315451Y-52157682D01*
X112315451Y-52157682D02*
X112363070Y-52181492D01*
X112363070Y-52181492D02*
X112386880Y-52205301D01*
X112386880Y-52205301D02*
X112410689Y-52252920D01*
X112410689Y-52252920D02*
X112410689Y-52395777D01*
X112410689Y-52395777D02*
X112386880Y-52443396D01*
X112386880Y-52443396D02*
X112363070Y-52467206D01*
X166897149Y-69793928D02*
X166659054Y-69960594D01*
X166897149Y-70079642D02*
X166397149Y-70079642D01*
X166397149Y-70079642D02*
X166397149Y-69889166D01*
X166397149Y-69889166D02*
X166420959Y-69841547D01*
X166420959Y-69841547D02*
X166444768Y-69817737D01*
X166444768Y-69817737D02*
X166492387Y-69793928D01*
X166492387Y-69793928D02*
X166563816Y-69793928D01*
X166563816Y-69793928D02*
X166611435Y-69817737D01*
X166611435Y-69817737D02*
X166635244Y-69841547D01*
X166635244Y-69841547D02*
X166659054Y-69889166D01*
X166659054Y-69889166D02*
X166659054Y-70079642D01*
X166897149Y-69317737D02*
X166897149Y-69603451D01*
X166897149Y-69460594D02*
X166397149Y-69460594D01*
X166397149Y-69460594D02*
X166468578Y-69508213D01*
X166468578Y-69508213D02*
X166516197Y-69555832D01*
X166516197Y-69555832D02*
X166540006Y-69603451D01*
X166397149Y-69151071D02*
X166397149Y-68817738D01*
X166397149Y-68817738D02*
X166897149Y-69032023D01*
X161277149Y-69801428D02*
X161039054Y-69968094D01*
X161277149Y-70087142D02*
X160777149Y-70087142D01*
X160777149Y-70087142D02*
X160777149Y-69896666D01*
X160777149Y-69896666D02*
X160800959Y-69849047D01*
X160800959Y-69849047D02*
X160824768Y-69825237D01*
X160824768Y-69825237D02*
X160872387Y-69801428D01*
X160872387Y-69801428D02*
X160943816Y-69801428D01*
X160943816Y-69801428D02*
X160991435Y-69825237D01*
X160991435Y-69825237D02*
X161015244Y-69849047D01*
X161015244Y-69849047D02*
X161039054Y-69896666D01*
X161039054Y-69896666D02*
X161039054Y-70087142D01*
X161277149Y-69325237D02*
X161277149Y-69610951D01*
X161277149Y-69468094D02*
X160777149Y-69468094D01*
X160777149Y-69468094D02*
X160848578Y-69515713D01*
X160848578Y-69515713D02*
X160896197Y-69563332D01*
X160896197Y-69563332D02*
X160920006Y-69610951D01*
X160777149Y-68872857D02*
X160777149Y-69110952D01*
X160777149Y-69110952D02*
X161015244Y-69134761D01*
X161015244Y-69134761D02*
X160991435Y-69110952D01*
X160991435Y-69110952D02*
X160967625Y-69063333D01*
X160967625Y-69063333D02*
X160967625Y-68944285D01*
X160967625Y-68944285D02*
X160991435Y-68896666D01*
X160991435Y-68896666D02*
X161015244Y-68872857D01*
X161015244Y-68872857D02*
X161062863Y-68849047D01*
X161062863Y-68849047D02*
X161181911Y-68849047D01*
X161181911Y-68849047D02*
X161229530Y-68872857D01*
X161229530Y-68872857D02*
X161253340Y-68896666D01*
X161253340Y-68896666D02*
X161277149Y-68944285D01*
X161277149Y-68944285D02*
X161277149Y-69063333D01*
X161277149Y-69063333D02*
X161253340Y-69110952D01*
X161253340Y-69110952D02*
X161229530Y-69134761D01*
X94039149Y-81333333D02*
X93801054Y-81499999D01*
X94039149Y-81619047D02*
X93539149Y-81619047D01*
X93539149Y-81619047D02*
X93539149Y-81428571D01*
X93539149Y-81428571D02*
X93562959Y-81380952D01*
X93562959Y-81380952D02*
X93586768Y-81357142D01*
X93586768Y-81357142D02*
X93634387Y-81333333D01*
X93634387Y-81333333D02*
X93705816Y-81333333D01*
X93705816Y-81333333D02*
X93753435Y-81357142D01*
X93753435Y-81357142D02*
X93777244Y-81380952D01*
X93777244Y-81380952D02*
X93801054Y-81428571D01*
X93801054Y-81428571D02*
X93801054Y-81619047D01*
X94039149Y-81095237D02*
X94039149Y-80999999D01*
X94039149Y-80999999D02*
X94015340Y-80952380D01*
X94015340Y-80952380D02*
X93991530Y-80928571D01*
X93991530Y-80928571D02*
X93920101Y-80880952D01*
X93920101Y-80880952D02*
X93824863Y-80857142D01*
X93824863Y-80857142D02*
X93634387Y-80857142D01*
X93634387Y-80857142D02*
X93586768Y-80880952D01*
X93586768Y-80880952D02*
X93562959Y-80904761D01*
X93562959Y-80904761D02*
X93539149Y-80952380D01*
X93539149Y-80952380D02*
X93539149Y-81047618D01*
X93539149Y-81047618D02*
X93562959Y-81095237D01*
X93562959Y-81095237D02*
X93586768Y-81119047D01*
X93586768Y-81119047D02*
X93634387Y-81142856D01*
X93634387Y-81142856D02*
X93753435Y-81142856D01*
X93753435Y-81142856D02*
X93801054Y-81119047D01*
X93801054Y-81119047D02*
X93824863Y-81095237D01*
X93824863Y-81095237D02*
X93848673Y-81047618D01*
X93848673Y-81047618D02*
X93848673Y-80952380D01*
X93848673Y-80952380D02*
X93824863Y-80904761D01*
X93824863Y-80904761D02*
X93801054Y-80880952D01*
X93801054Y-80880952D02*
X93753435Y-80857142D01*
X96609649Y-94503333D02*
X96371554Y-94669999D01*
X96609649Y-94789047D02*
X96109649Y-94789047D01*
X96109649Y-94789047D02*
X96109649Y-94598571D01*
X96109649Y-94598571D02*
X96133459Y-94550952D01*
X96133459Y-94550952D02*
X96157268Y-94527142D01*
X96157268Y-94527142D02*
X96204887Y-94503333D01*
X96204887Y-94503333D02*
X96276316Y-94503333D01*
X96276316Y-94503333D02*
X96323935Y-94527142D01*
X96323935Y-94527142D02*
X96347744Y-94550952D01*
X96347744Y-94550952D02*
X96371554Y-94598571D01*
X96371554Y-94598571D02*
X96371554Y-94789047D01*
X96157268Y-94312856D02*
X96133459Y-94289047D01*
X96133459Y-94289047D02*
X96109649Y-94241428D01*
X96109649Y-94241428D02*
X96109649Y-94122380D01*
X96109649Y-94122380D02*
X96133459Y-94074761D01*
X96133459Y-94074761D02*
X96157268Y-94050952D01*
X96157268Y-94050952D02*
X96204887Y-94027142D01*
X96204887Y-94027142D02*
X96252506Y-94027142D01*
X96252506Y-94027142D02*
X96323935Y-94050952D01*
X96323935Y-94050952D02*
X96609649Y-94336666D01*
X96609649Y-94336666D02*
X96609649Y-94027142D01*
X89062030Y-93828333D02*
X89085840Y-93852142D01*
X89085840Y-93852142D02*
X89109649Y-93923571D01*
X89109649Y-93923571D02*
X89109649Y-93971190D01*
X89109649Y-93971190D02*
X89085840Y-94042618D01*
X89085840Y-94042618D02*
X89038220Y-94090237D01*
X89038220Y-94090237D02*
X88990601Y-94114047D01*
X88990601Y-94114047D02*
X88895363Y-94137856D01*
X88895363Y-94137856D02*
X88823935Y-94137856D01*
X88823935Y-94137856D02*
X88728697Y-94114047D01*
X88728697Y-94114047D02*
X88681078Y-94090237D01*
X88681078Y-94090237D02*
X88633459Y-94042618D01*
X88633459Y-94042618D02*
X88609649Y-93971190D01*
X88609649Y-93971190D02*
X88609649Y-93923571D01*
X88609649Y-93923571D02*
X88633459Y-93852142D01*
X88633459Y-93852142D02*
X88657268Y-93828333D01*
X88609649Y-93661666D02*
X88609649Y-93328333D01*
X88609649Y-93328333D02*
X89109649Y-93542618D01*
X121404649Y-95321428D02*
X121166554Y-95488094D01*
X121404649Y-95607142D02*
X120904649Y-95607142D01*
X120904649Y-95607142D02*
X120904649Y-95416666D01*
X120904649Y-95416666D02*
X120928459Y-95369047D01*
X120928459Y-95369047D02*
X120952268Y-95345237D01*
X120952268Y-95345237D02*
X120999887Y-95321428D01*
X120999887Y-95321428D02*
X121071316Y-95321428D01*
X121071316Y-95321428D02*
X121118935Y-95345237D01*
X121118935Y-95345237D02*
X121142744Y-95369047D01*
X121142744Y-95369047D02*
X121166554Y-95416666D01*
X121166554Y-95416666D02*
X121166554Y-95607142D01*
X121404649Y-94845237D02*
X121404649Y-95130951D01*
X121404649Y-94988094D02*
X120904649Y-94988094D01*
X120904649Y-94988094D02*
X120976078Y-95035713D01*
X120976078Y-95035713D02*
X121023697Y-95083332D01*
X121023697Y-95083332D02*
X121047506Y-95130951D01*
X121404649Y-94607142D02*
X121404649Y-94511904D01*
X121404649Y-94511904D02*
X121380840Y-94464285D01*
X121380840Y-94464285D02*
X121357030Y-94440476D01*
X121357030Y-94440476D02*
X121285601Y-94392857D01*
X121285601Y-94392857D02*
X121190363Y-94369047D01*
X121190363Y-94369047D02*
X120999887Y-94369047D01*
X120999887Y-94369047D02*
X120952268Y-94392857D01*
X120952268Y-94392857D02*
X120928459Y-94416666D01*
X120928459Y-94416666D02*
X120904649Y-94464285D01*
X120904649Y-94464285D02*
X120904649Y-94559523D01*
X120904649Y-94559523D02*
X120928459Y-94607142D01*
X120928459Y-94607142D02*
X120952268Y-94630952D01*
X120952268Y-94630952D02*
X120999887Y-94654761D01*
X120999887Y-94654761D02*
X121118935Y-94654761D01*
X121118935Y-94654761D02*
X121166554Y-94630952D01*
X121166554Y-94630952D02*
X121190363Y-94607142D01*
X121190363Y-94607142D02*
X121214173Y-94559523D01*
X121214173Y-94559523D02*
X121214173Y-94464285D01*
X121214173Y-94464285D02*
X121190363Y-94416666D01*
X121190363Y-94416666D02*
X121166554Y-94392857D01*
X121166554Y-94392857D02*
X121118935Y-94369047D01*
X94491530Y-65533333D02*
X94515340Y-65557142D01*
X94515340Y-65557142D02*
X94539149Y-65628571D01*
X94539149Y-65628571D02*
X94539149Y-65676190D01*
X94539149Y-65676190D02*
X94515340Y-65747618D01*
X94515340Y-65747618D02*
X94467720Y-65795237D01*
X94467720Y-65795237D02*
X94420101Y-65819047D01*
X94420101Y-65819047D02*
X94324863Y-65842856D01*
X94324863Y-65842856D02*
X94253435Y-65842856D01*
X94253435Y-65842856D02*
X94158197Y-65819047D01*
X94158197Y-65819047D02*
X94110578Y-65795237D01*
X94110578Y-65795237D02*
X94062959Y-65747618D01*
X94062959Y-65747618D02*
X94039149Y-65676190D01*
X94039149Y-65676190D02*
X94039149Y-65628571D01*
X94039149Y-65628571D02*
X94062959Y-65557142D01*
X94062959Y-65557142D02*
X94086768Y-65533333D01*
X94539149Y-65057142D02*
X94539149Y-65342856D01*
X94539149Y-65199999D02*
X94039149Y-65199999D01*
X94039149Y-65199999D02*
X94110578Y-65247618D01*
X94110578Y-65247618D02*
X94158197Y-65295237D01*
X94158197Y-65295237D02*
X94182006Y-65342856D01*
X109319530Y-55071428D02*
X109343340Y-55095237D01*
X109343340Y-55095237D02*
X109367149Y-55166666D01*
X109367149Y-55166666D02*
X109367149Y-55214285D01*
X109367149Y-55214285D02*
X109343340Y-55285713D01*
X109343340Y-55285713D02*
X109295720Y-55333332D01*
X109295720Y-55333332D02*
X109248101Y-55357142D01*
X109248101Y-55357142D02*
X109152863Y-55380951D01*
X109152863Y-55380951D02*
X109081435Y-55380951D01*
X109081435Y-55380951D02*
X108986197Y-55357142D01*
X108986197Y-55357142D02*
X108938578Y-55333332D01*
X108938578Y-55333332D02*
X108890959Y-55285713D01*
X108890959Y-55285713D02*
X108867149Y-55214285D01*
X108867149Y-55214285D02*
X108867149Y-55166666D01*
X108867149Y-55166666D02*
X108890959Y-55095237D01*
X108890959Y-55095237D02*
X108914768Y-55071428D01*
X109367149Y-54595237D02*
X109367149Y-54880951D01*
X109367149Y-54738094D02*
X108867149Y-54738094D01*
X108867149Y-54738094D02*
X108938578Y-54785713D01*
X108938578Y-54785713D02*
X108986197Y-54833332D01*
X108986197Y-54833332D02*
X109010006Y-54880951D01*
X108867149Y-54285714D02*
X108867149Y-54238095D01*
X108867149Y-54238095D02*
X108890959Y-54190476D01*
X108890959Y-54190476D02*
X108914768Y-54166666D01*
X108914768Y-54166666D02*
X108962387Y-54142857D01*
X108962387Y-54142857D02*
X109057625Y-54119047D01*
X109057625Y-54119047D02*
X109176673Y-54119047D01*
X109176673Y-54119047D02*
X109271911Y-54142857D01*
X109271911Y-54142857D02*
X109319530Y-54166666D01*
X109319530Y-54166666D02*
X109343340Y-54190476D01*
X109343340Y-54190476D02*
X109367149Y-54238095D01*
X109367149Y-54238095D02*
X109367149Y-54285714D01*
X109367149Y-54285714D02*
X109343340Y-54333333D01*
X109343340Y-54333333D02*
X109319530Y-54357142D01*
X109319530Y-54357142D02*
X109271911Y-54380952D01*
X109271911Y-54380952D02*
X109176673Y-54404761D01*
X109176673Y-54404761D02*
X109057625Y-54404761D01*
X109057625Y-54404761D02*
X108962387Y-54380952D01*
X108962387Y-54380952D02*
X108914768Y-54357142D01*
X108914768Y-54357142D02*
X108890959Y-54333333D01*
X108890959Y-54333333D02*
X108867149Y-54285714D01*
D12*
X161604318Y-62917619D02*
X162632413Y-62917619D01*
X162632413Y-62917619D02*
X162753365Y-62857142D01*
X162753365Y-62857142D02*
X162813842Y-62796666D01*
X162813842Y-62796666D02*
X162874318Y-62675714D01*
X162874318Y-62675714D02*
X162874318Y-62433809D01*
X162874318Y-62433809D02*
X162813842Y-62312857D01*
X162813842Y-62312857D02*
X162753365Y-62252380D01*
X162753365Y-62252380D02*
X162632413Y-62191904D01*
X162632413Y-62191904D02*
X161604318Y-62191904D01*
X161604318Y-61708095D02*
X161604318Y-60921904D01*
X161604318Y-60921904D02*
X162088127Y-61345238D01*
X162088127Y-61345238D02*
X162088127Y-61163809D01*
X162088127Y-61163809D02*
X162148603Y-61042857D01*
X162148603Y-61042857D02*
X162209080Y-60982381D01*
X162209080Y-60982381D02*
X162330032Y-60921904D01*
X162330032Y-60921904D02*
X162632413Y-60921904D01*
X162632413Y-60921904D02*
X162753365Y-60982381D01*
X162753365Y-60982381D02*
X162813842Y-61042857D01*
X162813842Y-61042857D02*
X162874318Y-61163809D01*
X162874318Y-61163809D02*
X162874318Y-61526666D01*
X162874318Y-61526666D02*
X162813842Y-61647619D01*
X162813842Y-61647619D02*
X162753365Y-61708095D01*
%TO.C,C6*%
D13*
X88245000Y-90650000D02*
X89495000Y-90650000D01*
X89495000Y-88650000D01*
X88245000Y-88650000D01*
X88245000Y-90650000D01*
D12*
%TO.C,BOOT1*%
X145673540Y-64990540D02*
X151673540Y-64990540D01*
X145673540Y-71290540D02*
X145673540Y-64990540D01*
X151673540Y-64990540D02*
X151673540Y-71290540D01*
X151673540Y-71290540D02*
X145673540Y-71290540D01*
D14*
%TO.C,D2*%
X145051240Y-61396940D02*
X145051240Y-61701740D01*
X145051240Y-61396940D02*
X145051240Y-63403540D01*
X145051240Y-61701740D02*
X146295840Y-61701740D01*
X145051240Y-63098740D02*
X145051240Y-63403540D01*
X145051240Y-63403540D02*
X146295840Y-63403540D01*
X145051240Y-63403540D02*
X146295840Y-63403540D01*
X146295840Y-61396940D02*
X145051240Y-61396940D01*
X146295840Y-61396940D02*
X145051240Y-61396940D01*
X146295840Y-61701740D02*
X146295840Y-61396940D01*
X146295840Y-63098740D02*
X145051240Y-63098740D01*
X146295840Y-63403540D02*
X146295840Y-61396940D01*
X146295840Y-63403540D02*
X146295840Y-63098740D01*
X145749740Y-61396940D02*
G75*
G02*
X145597340Y-61396940I-76200J0D01*
G01*
X145597340Y-61396940D02*
G75*
G02*
X145749740Y-61396940I76200J0D01*
G01*
D13*
%TO.C,AUX1*%
X137060000Y-95370000D02*
X137695000Y-94735000D01*
X137060000Y-97275000D02*
X137060000Y-95370000D01*
X137695000Y-94735000D02*
X144680000Y-94735000D01*
X144680000Y-94735000D02*
X144680000Y-97275000D01*
X144680000Y-97275000D02*
X137060000Y-97275000D01*
%TO.C,C2*%
X90225000Y-66412500D02*
X91475000Y-66412500D01*
X91475000Y-64412500D01*
X90225000Y-64412500D01*
X90225000Y-66412500D01*
%TO.C,C13*%
X149798540Y-61493040D02*
X148548540Y-61493040D01*
X148548540Y-63493040D01*
X149798540Y-63493040D01*
X149798540Y-61493040D01*
%TO.C,N8R8*%
X122110000Y-43370000D02*
X140110000Y-43370000D01*
X122110000Y-49370000D02*
X140110000Y-49370000D01*
X122110000Y-68870000D02*
X122110000Y-43370000D01*
X122110000Y-68870000D02*
X140110000Y-68870000D01*
X140110000Y-68870000D02*
X140110000Y-43370000D01*
%TO.C,R20*%
X157985000Y-54442500D02*
X159235000Y-54442500D01*
X159235000Y-52442500D01*
X157985000Y-52442500D01*
X157985000Y-54442500D01*
%TO.C,C4*%
X105500000Y-73375000D02*
X107500000Y-73375000D01*
X107500000Y-74625000D01*
X105500000Y-74625000D01*
X105500000Y-73375000D01*
%TO.C,R1*%
X97007500Y-89420000D02*
X95757500Y-89420000D01*
X95757500Y-91420000D01*
X97007500Y-91420000D01*
X97007500Y-89420000D01*
%TO.C,C12*%
X95695000Y-55870000D02*
X96945000Y-55870000D01*
X96945000Y-53870000D01*
X95695000Y-53870000D01*
X95695000Y-55870000D01*
%TO.C,D5*%
X124137500Y-90270000D02*
X124137500Y-96070000D01*
X124137500Y-96070000D02*
X128437500Y-96070000D01*
X128437500Y-90270000D02*
X124137500Y-90270000D01*
X128437500Y-96070000D02*
X128437500Y-90270000D01*
%TO.C,D6*%
X147810000Y-55002500D02*
X147810000Y-57002500D01*
X147810000Y-57002500D02*
X149010000Y-57002500D01*
X148710000Y-55002500D02*
X147810000Y-55002500D01*
X149010000Y-55302500D02*
X148710000Y-55002500D01*
X149010000Y-57002500D02*
X149010000Y-55302500D01*
%TO.C,MOTORES1*%
X164590000Y-94785000D02*
X169670000Y-94785000D01*
X164590000Y-97325000D02*
X164590000Y-94785000D01*
X169035000Y-97325000D02*
X164590000Y-97325000D01*
X169670000Y-94785000D02*
X169670000Y-96690000D01*
X169670000Y-96690000D02*
X169035000Y-97325000D01*
%TO.C,RC1*%
X146760000Y-94785000D02*
X156920000Y-94785000D01*
X146760000Y-97325000D02*
X146760000Y-94785000D01*
X156285000Y-97325000D02*
X146760000Y-97325000D01*
X156920000Y-94785000D02*
X156920000Y-96690000D01*
X156920000Y-96690000D02*
X156285000Y-97325000D01*
D14*
%TO.C,F1*%
X105211000Y-53248200D02*
X105211000Y-54162600D01*
X105211000Y-53248200D02*
X105211000Y-56651800D01*
X105211000Y-54162600D02*
X106989000Y-54162600D01*
X105211000Y-55737400D02*
X105211000Y-56651800D01*
X105211000Y-56651800D02*
X106989000Y-56651800D01*
X105211000Y-56651800D02*
X106989000Y-56651800D01*
X106989000Y-53248200D02*
X105211000Y-53248200D01*
X106989000Y-53248200D02*
X105211000Y-53248200D01*
X106989000Y-54162600D02*
X106989000Y-53248200D01*
X106989000Y-55737400D02*
X105211000Y-55737400D01*
X106989000Y-56651800D02*
X106989000Y-53248200D01*
X106989000Y-56651800D02*
X106989000Y-55737400D01*
X106100001Y-53502200D02*
X106100001Y-53502200D01*
X106100001Y-53502200D01*
X106100001Y-53502200D01*
X106100001Y-53502200D01*
X106100001Y-53502200D01*
X106100001Y-53502201D01*
X106100001Y-53502201D01*
X106100001Y-53502201D01*
X106100001Y-53502201D01*
X106100001Y-53502201D01*
X106100001Y-53502201D01*
X106100001Y-53502201D01*
X106100000Y-53502201D01*
X106100000Y-53502201D01*
X106100000Y-53502201D01*
X106100000Y-53502201D01*
X106100000Y-53502201D01*
X106100000Y-53502201D01*
X106100000Y-53502201D01*
X106100000Y-53502201D01*
X106100000Y-53502201D01*
X106100000Y-53502201D01*
X106100000Y-53502201D01*
X106100000Y-53502201D01*
X106099999Y-53502201D01*
X106099999Y-53502201D01*
X106099999Y-53502201D01*
X106099999Y-53502201D01*
X106099999Y-53502201D01*
X106099999Y-53502201D01*
X106099999Y-53502200D01*
X106099999Y-53502200D01*
X106099999Y-53502200D01*
X106099999Y-53502200D01*
X106099999Y-53502200D01*
X106099999Y-53502200D01*
X106099999Y-53502200D02*
X106099999Y-53502200D01*
X106099999Y-53502200D01*
X106099999Y-53502200D01*
X106099999Y-53502200D01*
X106099999Y-53502200D01*
X106099999Y-53502200D01*
X106099999Y-53502199D01*
X106099999Y-53502199D01*
X106099999Y-53502199D01*
X106099999Y-53502199D01*
X106099999Y-53502199D01*
X106100000Y-53502199D01*
X106100000Y-53502199D01*
X106100000Y-53502199D01*
X106100000Y-53502199D01*
X106100000Y-53502199D01*
X106100000Y-53502199D01*
X106100000Y-53502199D01*
X106100000Y-53502199D01*
X106100000Y-53502199D01*
X106100000Y-53502199D01*
X106100000Y-53502199D01*
X106100000Y-53502199D01*
X106100001Y-53502199D01*
X106100001Y-53502199D01*
X106100001Y-53502199D01*
X106100001Y-53502199D01*
X106100001Y-53502199D01*
X106100001Y-53502199D01*
X106100001Y-53502200D01*
X106100001Y-53502200D01*
X106100001Y-53502200D01*
X106100001Y-53502200D01*
X106100001Y-53502200D01*
X106100001Y-53502200D01*
X106100001Y-53502200D01*
%TO.C,R14*%
D13*
X119686250Y-103895000D02*
X118436250Y-103895000D01*
X118436250Y-105895000D01*
X119686250Y-105895000D01*
X119686250Y-103895000D01*
%TO.C,C9*%
X109765000Y-58180000D02*
X108515000Y-58180000D01*
X108515000Y-60180000D01*
X109765000Y-60180000D01*
X109765000Y-58180000D01*
%TO.C,C24*%
X172938000Y-80517500D02*
X171688000Y-80517500D01*
X171688000Y-82517500D01*
X172938000Y-82517500D01*
X172938000Y-80517500D01*
%TO.C,C17*%
X162985000Y-54442500D02*
X164235000Y-54442500D01*
X164235000Y-52442500D01*
X162985000Y-52442500D01*
X162985000Y-54442500D01*
%TO.C,DRDE1*%
X146760000Y-87290000D02*
X156920000Y-87290000D01*
X146760000Y-89830000D02*
X146760000Y-87290000D01*
X156285000Y-89830000D02*
X146760000Y-89830000D01*
X156920000Y-87290000D02*
X156920000Y-89195000D01*
X156920000Y-89195000D02*
X156285000Y-89830000D01*
%TO.C,C3*%
X89499000Y-73962500D02*
X90749000Y-73962500D01*
X90749000Y-71962500D01*
X89499000Y-71962500D01*
X89499000Y-73962500D01*
%TO.C,R16*%
X163545000Y-70472500D02*
X164795000Y-70472500D01*
X164795000Y-68472500D01*
X163545000Y-68472500D01*
X163545000Y-70472500D01*
%TO.C,R12*%
X152048540Y-63530540D02*
X153298540Y-63530540D01*
X153298540Y-61530540D01*
X152048540Y-61530540D01*
X152048540Y-63530540D01*
%TO.C,C22*%
X155425000Y-70480000D02*
X156675000Y-70480000D01*
X156675000Y-68480000D01*
X155425000Y-68480000D01*
X155425000Y-70480000D01*
%TO.C,R10*%
X104045000Y-53870000D02*
X102795000Y-53870000D01*
X102795000Y-55870000D01*
X104045000Y-55870000D01*
X104045000Y-53870000D01*
%TO.C,D4*%
X110640000Y-99500000D02*
X110640000Y-105300000D01*
X110640000Y-105300000D02*
X114940000Y-105300000D01*
X114940000Y-99500000D02*
X110640000Y-99500000D01*
X114940000Y-105300000D02*
X114940000Y-99500000D01*
%TO.C,C23*%
X162425000Y-82000000D02*
X161175000Y-82000000D01*
X161175000Y-84000000D01*
X162425000Y-84000000D01*
X162425000Y-82000000D01*
%TO.C,C19*%
X126458375Y-86462500D02*
X127708375Y-86462500D01*
X127708375Y-84462500D01*
X126458375Y-84462500D01*
X126458375Y-86462500D01*
D14*
%TO.C,FB1*%
X105376100Y-58535100D02*
X105376100Y-59246300D01*
X105376100Y-58535100D02*
X105376100Y-60744900D01*
X105376100Y-59246300D02*
X106823900Y-59246300D01*
X105376100Y-60033700D02*
X105376100Y-60744900D01*
X105376100Y-60744900D02*
X106823900Y-60744900D01*
X105376100Y-60744900D02*
X106823900Y-60744900D01*
X106823900Y-58535100D02*
X105376100Y-58535100D01*
X106823900Y-58535100D02*
X105376100Y-58535100D01*
X106823900Y-59246300D02*
X106823900Y-58535100D01*
X106823900Y-60033700D02*
X105376100Y-60033700D01*
X106823900Y-60744900D02*
X106823900Y-58535100D01*
X106823900Y-60744900D02*
X106823900Y-60033700D01*
X106100001Y-58839900D02*
X106100001Y-58839900D01*
X106100001Y-58839900D01*
X106100001Y-58839900D01*
X106100001Y-58839900D01*
X106100001Y-58839900D01*
X106100001Y-58839901D01*
X106100001Y-58839901D01*
X106100001Y-58839901D01*
X106100001Y-58839901D01*
X106100001Y-58839901D01*
X106100001Y-58839901D01*
X106100001Y-58839901D01*
X106100000Y-58839901D01*
X106100000Y-58839901D01*
X106100000Y-58839901D01*
X106100000Y-58839901D01*
X106100000Y-58839901D01*
X106100000Y-58839901D01*
X106100000Y-58839901D01*
X106100000Y-58839901D01*
X106100000Y-58839901D01*
X106100000Y-58839901D01*
X106100000Y-58839901D01*
X106100000Y-58839901D01*
X106099999Y-58839901D01*
X106099999Y-58839901D01*
X106099999Y-58839901D01*
X106099999Y-58839901D01*
X106099999Y-58839901D01*
X106099999Y-58839901D01*
X106099999Y-58839900D01*
X106099999Y-58839900D01*
X106099999Y-58839900D01*
X106099999Y-58839900D01*
X106099999Y-58839900D01*
X106099999Y-58839900D01*
X106099999Y-58839900D02*
X106099999Y-58839900D01*
X106099999Y-58839900D01*
X106099999Y-58839900D01*
X106099999Y-58839900D01*
X106099999Y-58839900D01*
X106099999Y-58839900D01*
X106099999Y-58839899D01*
X106099999Y-58839899D01*
X106099999Y-58839899D01*
X106099999Y-58839899D01*
X106099999Y-58839899D01*
X106100000Y-58839899D01*
X106100000Y-58839899D01*
X106100000Y-58839899D01*
X106100000Y-58839899D01*
X106100000Y-58839899D01*
X106100000Y-58839899D01*
X106100000Y-58839899D01*
X106100000Y-58839899D01*
X106100000Y-58839899D01*
X106100000Y-58839899D01*
X106100000Y-58839899D01*
X106100000Y-58839899D01*
X106100001Y-58839899D01*
X106100001Y-58839899D01*
X106100001Y-58839899D01*
X106100001Y-58839899D01*
X106100001Y-58839899D01*
X106100001Y-58839899D01*
X106100001Y-58839900D01*
X106100001Y-58839900D01*
X106100001Y-58839900D01*
X106100001Y-58839900D01*
X106100001Y-58839900D01*
X106100001Y-58839900D01*
X106100001Y-58839900D01*
D13*
%TO.C,BME690*%
X91080000Y-90420000D02*
X91080000Y-93420000D01*
X91080000Y-93420000D02*
X94080000Y-93420000D01*
X94080000Y-90420000D02*
X91080000Y-90420000D01*
X94080000Y-93420000D02*
X94080000Y-90420000D01*
%TO.C,R21*%
X167755000Y-52480000D02*
X166505000Y-52480000D01*
X166505000Y-54480000D01*
X167755000Y-54480000D01*
X167755000Y-52480000D01*
%TO.C,R8*%
X89499000Y-79000000D02*
X90749000Y-79000000D01*
X90749000Y-77000000D01*
X89499000Y-77000000D01*
X89499000Y-79000000D01*
%TO.C,J1*%
X135880000Y-79690000D02*
X136587107Y-80190000D01*
X136587107Y-80190000D02*
X135880000Y-80690000D01*
X135880000Y-77270000D02*
X156200000Y-77270000D01*
X156200000Y-83070000D01*
X135880000Y-83070000D01*
X135880000Y-77270000D01*
%TO.C,R18*%
X150285000Y-56940000D02*
X151535000Y-56940000D01*
X151535000Y-54940000D01*
X150285000Y-54940000D01*
X150285000Y-56940000D01*
%TO.C,TR1*%
X164950000Y-79580000D02*
X169350000Y-79580000D01*
X164950000Y-80230000D02*
X165600000Y-79580000D01*
X164950000Y-84580000D02*
X164950000Y-79580000D01*
X169350000Y-79580000D02*
X169350000Y-84580000D01*
X169350000Y-84580000D02*
X164950000Y-84580000D01*
%TO.C,DRIZ1*%
X134510000Y-87875000D02*
X135145000Y-87240000D01*
X134510000Y-89780000D02*
X134510000Y-87875000D01*
X135145000Y-87240000D02*
X144670000Y-87240000D01*
X144670000Y-87240000D02*
X144670000Y-89780000D01*
X144670000Y-89780000D02*
X134510000Y-89780000D01*
%TO.C,C20*%
X121708375Y-84462500D02*
X120458375Y-84462500D01*
X120458375Y-86462500D01*
X121708375Y-86462500D01*
X121708375Y-84462500D01*
%TO.C,R7*%
X94937000Y-68250000D02*
X93687000Y-68250000D01*
X93687000Y-70250000D01*
X94937000Y-70250000D01*
X94937000Y-68250000D01*
%TO.C,C8*%
X119808540Y-51513040D02*
X118558540Y-51513040D01*
X118558540Y-53513040D01*
X119808540Y-53513040D01*
X119808540Y-51513040D01*
%TO.C,R11*%
X92755000Y-53880000D02*
X91505000Y-53880000D01*
X91505000Y-55880000D01*
X92755000Y-55880000D01*
X92755000Y-53880000D01*
%TO.C,BNO086*%
X92662000Y-72150000D02*
X92662000Y-77350000D01*
X92662000Y-77350000D02*
X96462000Y-77350000D01*
X96462000Y-72150000D02*
X92662000Y-72150000D01*
X96462000Y-77350000D02*
X96462000Y-72150000D01*
%TO.C,C11*%
X116308540Y-51513040D02*
X115058540Y-51513040D01*
X115058540Y-53513040D01*
X116308540Y-53513040D01*
X116308540Y-51513040D01*
%TO.C,C15*%
X121915000Y-99500000D02*
X120665000Y-99500000D01*
X120665000Y-101500000D01*
X121915000Y-101500000D01*
X121915000Y-99500000D01*
%TO.C,F3*%
X103754250Y-100240000D02*
X108308250Y-100240000D01*
X103754250Y-105320000D02*
X103754250Y-100240000D01*
X108308250Y-100240000D02*
X108308250Y-105320000D01*
X108308250Y-105320000D02*
X103754250Y-105320000D01*
%TO.C,C18*%
X161655000Y-52480000D02*
X160405000Y-52480000D01*
X160405000Y-54480000D01*
X161655000Y-54480000D01*
X161655000Y-52480000D01*
%TO.C,U4*%
X122740000Y-103500000D02*
X124340000Y-103500000D01*
X122740000Y-104450000D02*
X123690000Y-103500000D01*
X122740000Y-106400000D02*
X122740000Y-103500000D01*
X124340000Y-103500000D02*
X124340000Y-106400000D01*
X124340000Y-106400000D02*
X122740000Y-106400000D01*
%TO.C,J8*%
X163325000Y-87290000D02*
X170945000Y-87290000D01*
X163325000Y-89830000D02*
X163325000Y-87290000D01*
X170310000Y-89830000D02*
X163325000Y-89830000D01*
X170945000Y-87290000D02*
X170945000Y-89195000D01*
X170945000Y-89195000D02*
X170310000Y-89830000D01*
D14*
%TO.C,D1*%
X108195150Y-61945900D02*
X108195150Y-64054100D01*
X108195150Y-64054100D02*
X111801950Y-64054100D01*
X111801950Y-61945900D02*
X108195150Y-61945900D01*
X111801950Y-64054100D02*
X111801950Y-61945900D01*
X113262450Y-63635000D02*
X113262450Y-62365000D01*
%TO.C,R6*%
D13*
X95687000Y-82250000D02*
X96937000Y-82250000D01*
X96937000Y-80250000D01*
X95687000Y-80250000D01*
X95687000Y-82250000D01*
%TO.C,R13*%
X129417500Y-99537500D02*
X128167500Y-99537500D01*
X128167500Y-101537500D01*
X129417500Y-101537500D01*
X129417500Y-99537500D01*
%TO.C,R5*%
X99749000Y-75000000D02*
X98499000Y-75000000D01*
X98499000Y-77000000D01*
X99749000Y-77000000D01*
X99749000Y-75000000D01*
%TO.C,R4*%
X159175000Y-68480000D02*
X157925000Y-68480000D01*
X157925000Y-70480000D01*
X159175000Y-70480000D01*
X159175000Y-68480000D01*
%TO.C,CRISTAL1*%
X100437500Y-68200000D02*
X109137500Y-68200000D01*
X100437500Y-71800000D02*
X100437500Y-68200000D01*
X109137500Y-68200000D02*
X109137500Y-71800000D01*
X109137500Y-71800000D02*
X100437500Y-71800000D01*
%TO.C,C16*%
X118415000Y-99500000D02*
X117165000Y-99500000D01*
X117165000Y-101500000D01*
X118415000Y-101500000D01*
X118415000Y-99500000D01*
%TO.C,C21*%
X169795000Y-68472500D02*
X168545000Y-68472500D01*
X168545000Y-70472500D01*
X169795000Y-70472500D01*
X169795000Y-68472500D01*
%TO.C,D3*%
X112952500Y-94250000D02*
X116752500Y-94250000D01*
X112952500Y-95400000D02*
X114102500Y-94250000D01*
X112952500Y-96750000D02*
X112952500Y-94250000D01*
X116752500Y-94250000D02*
X116752500Y-96750000D01*
X116752500Y-96750000D02*
X112952500Y-96750000D01*
D14*
%TO.C,CR1*%
X98646000Y-53983700D02*
X98646000Y-55736300D01*
X98646000Y-55736300D02*
X101694000Y-55736300D01*
X98966000Y-53361400D02*
X98966000Y-53983700D01*
X98966000Y-53983700D02*
X99474000Y-53983700D01*
X98966000Y-55736300D02*
X98966000Y-56358600D01*
X98966000Y-56358600D02*
X99474000Y-56358600D01*
X99474000Y-53361400D02*
X98966000Y-53361400D01*
X99474000Y-53983700D02*
X99474000Y-53361400D01*
X99474000Y-55736300D02*
X98966000Y-55736300D01*
X99474000Y-56358600D02*
X99474000Y-55736300D01*
X99916000Y-53361400D02*
X99916000Y-53983700D01*
X99916000Y-53983700D02*
X100424000Y-53983700D01*
X99916000Y-55736300D02*
X99916000Y-56358600D01*
X99916000Y-56358600D02*
X100424000Y-56358600D01*
X100424000Y-53361400D02*
X99916000Y-53361400D01*
X100424000Y-53983700D02*
X100424000Y-53361400D01*
X100424000Y-55736300D02*
X99916000Y-55736300D01*
X100424000Y-56358600D02*
X100424000Y-55736300D01*
X100866000Y-53361400D02*
X100866000Y-53983700D01*
X100866000Y-53983700D02*
X101374000Y-53983700D01*
X100866000Y-55736300D02*
X100866000Y-56358600D01*
X100866000Y-56358600D02*
X101374000Y-56358600D01*
X101374000Y-53361400D02*
X100866000Y-53361400D01*
X101374000Y-53983700D02*
X101374000Y-53361400D01*
X101374000Y-55736300D02*
X100866000Y-55736300D01*
X101374000Y-56358600D02*
X101374000Y-55736300D01*
X101694000Y-53983700D02*
X98646000Y-53983700D01*
X101694000Y-55736300D02*
X101694000Y-53983700D01*
X101694000Y-55164800D02*
G75*
G02*
X101694000Y-54555200I0J304800D01*
G01*
%TO.C,C14*%
D13*
X126665000Y-105900000D02*
X127915000Y-105900000D01*
X127915000Y-103900000D01*
X126665000Y-103900000D01*
X126665000Y-105900000D01*
%TO.C,J3*%
X95670000Y-43024000D02*
X104610000Y-43024000D01*
X95670000Y-50375000D02*
X95670000Y-43024000D01*
X104610000Y-43024000D02*
X104610000Y-50375000D01*
X104610000Y-50375000D02*
X95670000Y-50375000D01*
%TO.C,R3*%
X112808540Y-51550540D02*
X111558540Y-51550540D01*
X111558540Y-53550540D01*
X112808540Y-53550540D01*
X112808540Y-51550540D01*
%TO.C,C5*%
X100500000Y-65375000D02*
X102500000Y-65375000D01*
X102500000Y-66625000D01*
X100500000Y-66625000D01*
X100500000Y-65375000D01*
%TO.C,IC3*%
X122843375Y-84925000D02*
X124843375Y-84925000D01*
X122843375Y-86175000D02*
X122843375Y-84925000D01*
X123493375Y-86175000D02*
X122843375Y-85525000D01*
X124843375Y-84925000D02*
X124843375Y-86175000D01*
X124843375Y-86175000D02*
X122843375Y-86175000D01*
%TO.C,BATER\u00CDA1*%
X96292500Y-100350625D02*
X101832500Y-100350625D01*
X96292500Y-100750625D02*
X101832500Y-100750625D01*
X96292500Y-106050625D02*
X96292500Y-100350625D01*
X96292500Y-106050625D02*
X101832500Y-106050625D01*
X96792500Y-106550625D02*
X96292500Y-106050625D01*
X98492500Y-102616625D02*
X96958500Y-104150625D01*
X98626500Y-102750625D02*
X97092500Y-104284625D01*
X101032500Y-102616625D02*
X99498500Y-104150625D01*
X101166500Y-102750625D02*
X99632500Y-104284625D01*
X101832500Y-100350625D02*
X101832500Y-106550625D01*
X101832500Y-106550625D02*
X96792500Y-106550625D01*
X98892500Y-103450625D02*
G75*
G02*
X96692500Y-103450625I-1100000J0D01*
G01*
X96692500Y-103450625D02*
G75*
G02*
X98892500Y-103450625I1100000J0D01*
G01*
X101432500Y-103450625D02*
G75*
G02*
X99232500Y-103450625I-1100000J0D01*
G01*
X99232500Y-103450625D02*
G75*
G02*
X101432500Y-103450625I1100000J0D01*
G01*
%TO.C,L2*%
X124290000Y-99187500D02*
X126290000Y-99187500D01*
X124290000Y-101687500D02*
X124290000Y-99187500D01*
X126290000Y-99187500D02*
X126290000Y-101687500D01*
X126290000Y-101687500D02*
X124290000Y-101687500D01*
%TO.C,R17*%
X166045000Y-70472500D02*
X167295000Y-70472500D01*
X167295000Y-68472500D01*
X166045000Y-68472500D01*
X166045000Y-70472500D01*
%TO.C,R15*%
X160425000Y-70480000D02*
X161675000Y-70480000D01*
X161675000Y-68480000D01*
X160425000Y-68480000D01*
X160425000Y-70480000D01*
%TO.C,R9*%
X93187000Y-82250000D02*
X94437000Y-82250000D01*
X94437000Y-80250000D01*
X93187000Y-80250000D01*
X93187000Y-82250000D01*
%TO.C,R2*%
X95757500Y-95420000D02*
X97007500Y-95420000D01*
X97007500Y-93420000D01*
X95757500Y-93420000D01*
X95757500Y-95420000D01*
%TO.C,C7*%
X89507500Y-92745000D02*
X88257500Y-92745000D01*
X88257500Y-94745000D01*
X89507500Y-94745000D01*
X89507500Y-92745000D01*
%TO.C,R19*%
X120552500Y-96000000D02*
X121802500Y-96000000D01*
X121802500Y-94000000D01*
X120552500Y-94000000D01*
X120552500Y-96000000D01*
D12*
%TO.C,S1*%
X112200000Y-55020000D02*
X118200000Y-55020000D01*
X112200000Y-61320000D02*
X112200000Y-55020000D01*
X118200000Y-55020000D02*
X118200000Y-61320000D01*
X118200000Y-61320000D02*
X112200000Y-61320000D01*
%TO.C,C1*%
D13*
X93687000Y-66450000D02*
X94937000Y-66450000D01*
X94937000Y-64450000D01*
X93687000Y-64450000D01*
X93687000Y-66450000D01*
%TO.C,C10*%
X108515000Y-55750000D02*
X109765000Y-55750000D01*
X109765000Y-53750000D01*
X108515000Y-53750000D01*
X108515000Y-55750000D01*
%TO.C,U3*%
X157220000Y-58650000D02*
X167380000Y-58650000D01*
X157220000Y-65250000D02*
X157220000Y-58650000D01*
X158490000Y-65250000D02*
X157220000Y-63980000D01*
X167380000Y-58650000D02*
X167380000Y-65250000D01*
X167380000Y-65250000D02*
X157220000Y-65250000D01*
%TO.C,Q1*%
X120177500Y-89995000D02*
X122177500Y-89995000D01*
X120177500Y-91245000D02*
X120177500Y-89995000D01*
X120827500Y-91245000D02*
X120177500Y-90595000D01*
X122177500Y-89995000D02*
X122177500Y-91245000D01*
X122177500Y-91245000D02*
X120177500Y-91245000D01*
%TD*%
M02*
