%TF.GenerationSoftware,KiCad,Pcbnew,9.0.7*%
%TF.CreationDate,2026-04-14T10:45:30-03:00*%
%TF.ProjectId,mini-vehiculo-exploracion-pcb,6d696e69-2d76-4656-9869-63756c6f2d65,rev?*%
%TF.SameCoordinates,Original*%
%TF.FileFunction,Copper,L4,Bot*%
%TF.FilePolarity,Positive*%
%FSLAX46Y46*%
G04 Gerber Fmt 4.6, Leading zero omitted, Abs format (unit mm)*
G04 Created by KiCad (PCBNEW 9.0.7) date 2026-04-14 10:45:30*
%MOMM*%
%LPD*%
G01*
G04 APERTURE LIST*
G04 Aperture macros list*
%AMRoundRect*
0 Rectangle with rounded corners*
0 $1 Rounding radius*
0 $2 $3 $4 $5 $6 $7 $8 $9 X,Y pos of 4 corners*
0 Add a 4 corners polygon primitive as box body*
4,1,4,$2,$3,$4,$5,$6,$7,$8,$9,$2,$3,0*
0 Add four circle primitives for the rounded corners*
1,1,$1+$1,$2,$3*
1,1,$1+$1,$4,$5*
1,1,$1+$1,$6,$7*
1,1,$1+$1,$8,$9*
0 Add four rect primitives between the rounded corners*
20,1,$1+$1,$2,$3,$4,$5,0*
20,1,$1+$1,$4,$5,$6,$7,0*
20,1,$1+$1,$6,$7,$8,$9,0*
20,1,$1+$1,$8,$9,$2,$3,0*%
G04 Aperture macros list end*
%TA.AperFunction,Conductor*%
%ADD10C,0.200000*%
%TD*%
%TA.AperFunction,ComponentPad*%
%ADD11R,1.700000X1.700000*%
%TD*%
%TA.AperFunction,ComponentPad*%
%ADD12C,1.700000*%
%TD*%
%TA.AperFunction,HeatsinkPad*%
%ADD13C,0.800000*%
%TD*%
%TA.AperFunction,ComponentPad*%
%ADD14C,0.800000*%
%TD*%
%TA.AperFunction,ComponentPad*%
%ADD15C,6.400000*%
%TD*%
%TA.AperFunction,ComponentPad*%
%ADD16O,1.740000X2.190000*%
%TD*%
%TA.AperFunction,ComponentPad*%
%ADD17RoundRect,0.249999X-0.850001X-0.850001X0.850001X-0.850001X0.850001X0.850001X-0.850001X0.850001X0*%
%TD*%
%TA.AperFunction,ComponentPad*%
%ADD18C,2.200000*%
%TD*%
%TA.AperFunction,ComponentPad*%
%ADD19R,1.130000X1.130000*%
%TD*%
%TA.AperFunction,ComponentPad*%
%ADD20C,1.130000*%
%TD*%
%TA.AperFunction,ViaPad*%
%ADD21C,0.700000*%
%TD*%
%TA.AperFunction,Conductor*%
%ADD22C,0.400000*%
%TD*%
G04 APERTURE END LIST*
D10*
%TO.N,GND*%
X85840000Y-107820000D02*
X175840000Y-107820000D01*
X175840000Y-107820000D02*
X175840000Y-42820000D01*
X85840000Y-42820000D02*
X106640000Y-42810000D01*
X85840000Y-42820000D02*
X85840000Y-107820000D01*
X106640000Y-42810000D02*
X106640000Y-50000000D01*
X175840000Y-42820000D02*
X156240000Y-42820000D01*
X156240000Y-42820000D02*
X156240000Y-50000000D01*
X106640000Y-50000000D02*
X156240000Y-50000000D01*
%TD*%
D11*
%TO.P,AUX1,1,Pin_1*%
%TO.N,/PIN_AUX1*%
X138330000Y-96005000D03*
D12*
%TO.P,AUX1,2,Pin_2*%
%TO.N,/PIN_AUX2*%
X140870000Y-96005000D03*
%TO.P,AUX1,3,Pin_3*%
%TO.N,GND*%
X143410000Y-96005000D03*
%TD*%
D13*
%TO.P,N8R8,41,GND*%
%TO.N,GND*%
X128210000Y-57880000D03*
X128210000Y-59280000D03*
X128910000Y-57180000D03*
X128910000Y-58580000D03*
X128910000Y-59980000D03*
X129610000Y-57880000D03*
X129610000Y-59280000D03*
X130310000Y-57180000D03*
X130310000Y-58580000D03*
X130310000Y-59980000D03*
X131010000Y-57880000D03*
X131010000Y-59280000D03*
%TD*%
D14*
%TO.P,H2,1,1*%
%TO.N,GND*%
X169482944Y-46312944D03*
X170185888Y-44615888D03*
X170185888Y-48010000D03*
X171882944Y-43912944D03*
D15*
X171882944Y-46312944D03*
D14*
X171882944Y-48712944D03*
X173580000Y-44615888D03*
X173580000Y-48010000D03*
X174282944Y-46312944D03*
%TD*%
%TO.P,H1,1,1*%
%TO.N,GND*%
X87232944Y-46312944D03*
X87935888Y-44615888D03*
X87935888Y-48010000D03*
X89632944Y-43912944D03*
D15*
X89632944Y-46312944D03*
D14*
X89632944Y-48712944D03*
X91330000Y-44615888D03*
X91330000Y-48010000D03*
X92032944Y-46312944D03*
%TD*%
D11*
%TO.P,MOTORES1,1,Pin_1*%
%TO.N,/M1_nFAULT*%
X168400000Y-96055000D03*
D12*
%TO.P,MOTORES1,2,Pin_2*%
%TO.N,/M2_nFAULT*%
X165860000Y-96055000D03*
%TD*%
D11*
%TO.P,RC1,1,Pin_1*%
%TO.N,+3.3V*%
X155650000Y-96055000D03*
D12*
%TO.P,RC1,2,Pin_2*%
%TO.N,/TX_RC*%
X153110000Y-96055000D03*
%TO.P,RC1,3,Pin_3*%
%TO.N,/RX_RC*%
X150570000Y-96055000D03*
%TO.P,RC1,4,Pin_4*%
%TO.N,GND*%
X148030000Y-96055000D03*
%TD*%
D11*
%TO.P,DRDE1,1,Pin_1*%
%TO.N,/M1_IN1*%
X155650000Y-88560000D03*
D12*
%TO.P,DRDE1,2,Pin_2*%
%TO.N,/M1_IN2*%
X153110000Y-88560000D03*
%TO.P,DRDE1,3,Pin_3*%
%TO.N,/M1_DISABLE*%
X150570000Y-88560000D03*
%TO.P,DRDE1,4,Pin_4*%
%TO.N,/ADC_BAT2*%
X148030000Y-88560000D03*
%TD*%
D14*
%TO.P,H4,1,1*%
%TO.N,GND*%
X87232944Y-104080000D03*
X87935888Y-102382944D03*
X87935888Y-105777056D03*
X89632944Y-101680000D03*
D15*
X89632944Y-104080000D03*
D14*
X89632944Y-106480000D03*
X91330000Y-102382944D03*
X91330000Y-105777056D03*
X92032944Y-104080000D03*
%TD*%
D16*
%TO.P,J1,1,CS*%
%TO.N,/CS_cam*%
X137150000Y-80190000D03*
%TO.P,J1,2,MOSI*%
%TO.N,/MOSI_cam*%
X139690000Y-80190000D03*
%TO.P,J1,3,MISO*%
%TO.N,/MISO_cam*%
X142230000Y-80190000D03*
%TO.P,J1,4,SCK*%
%TO.N,/SCK_cam*%
X144770000Y-80190000D03*
%TO.P,J1,5,GND*%
%TO.N,GND*%
X147310000Y-80190000D03*
%TO.P,J1,6,VCC*%
%TO.N,+3.3V*%
X149850000Y-80190000D03*
%TO.P,J1,7,SDA*%
%TO.N,/SDA_cam*%
X152390000Y-80190000D03*
%TO.P,J1,8,SCL*%
%TO.N,/SCL_cam*%
X154930000Y-80190000D03*
%TD*%
D11*
%TO.P,DRIZ1,1,Pin_1*%
%TO.N,/M2_IN1*%
X135780000Y-88510000D03*
D12*
%TO.P,DRIZ1,2,Pin_2*%
%TO.N,/M2_IN2*%
X138320000Y-88510000D03*
%TO.P,DRIZ1,3,Pin_3*%
%TO.N,/M2_DISABLE*%
X140860000Y-88510000D03*
%TO.P,DRIZ1,4,Pin_4*%
%TO.N,GND*%
X143400000Y-88510000D03*
%TD*%
D14*
%TO.P,H3,1,1*%
%TO.N,GND*%
X169482944Y-104080000D03*
X170185888Y-102382944D03*
X170185888Y-105777056D03*
X171882944Y-101680000D03*
D15*
X171882944Y-104080000D03*
D14*
X171882944Y-106480000D03*
X173580000Y-102382944D03*
X173580000Y-105777056D03*
X174282944Y-104080000D03*
%TD*%
D11*
%TO.P,J8,1,Pin_1*%
%TO.N,GND*%
X169675000Y-88560000D03*
D12*
%TO.P,J8,2,Pin_2*%
%TO.N,V_BAT*%
X167135000Y-88560000D03*
%TO.P,J8,3,Pin_3*%
%TO.N,/SERVO_SAL*%
X164595000Y-88560000D03*
%TD*%
D17*
%TO.P,BATER\u00CDA1,1,Pin_1*%
%TO.N,ENT_BAT*%
X97792500Y-103450625D03*
D18*
%TO.P,BATER\u00CDA1,2,Pin_2*%
%TO.N,GND*%
X100332500Y-103450625D03*
%TD*%
D19*
%TO.P,U3,1*%
%TO.N,/Battery_sensor/OP1_OUT*%
X158490000Y-65920000D03*
D20*
%TO.P,U3,2,-*%
X161030000Y-65920000D03*
%TO.P,U3,3,+*%
%TO.N,Net-(U3A-+)*%
X163570000Y-65920000D03*
%TO.P,U3,4,V-*%
%TO.N,GND*%
X166110000Y-65920000D03*
%TO.P,U3,5,+*%
%TO.N,Net-(U3B-+)*%
X166110000Y-57980000D03*
%TO.P,U3,6,-*%
%TO.N,ADC_BAT*%
X163570000Y-57980000D03*
%TO.P,U3,7*%
X161030000Y-57980000D03*
%TO.P,U3,8,V+*%
%TO.N,+3.3V*%
X158490000Y-57980000D03*
%TD*%
D21*
%TO.N,GND*%
X87200000Y-81460000D03*
X89000000Y-54180000D03*
X161200000Y-47400000D03*
X173600000Y-53060000D03*
X116400000Y-88260000D03*
X147650000Y-60340000D03*
X90000000Y-81460000D03*
X95400000Y-62000000D03*
X98000000Y-59460000D03*
X92470000Y-70570000D03*
X133400000Y-102660000D03*
X89000000Y-59260000D03*
X104200000Y-93200000D03*
X159200000Y-95800000D03*
X145250000Y-54610000D03*
X114000000Y-90060000D03*
X113200000Y-77060000D03*
X92130000Y-57690000D03*
X158000000Y-47400000D03*
X164800000Y-44860000D03*
X94400000Y-102060000D03*
X87800000Y-96860000D03*
X171800000Y-71400000D03*
X94400000Y-104600000D03*
X159200000Y-93260000D03*
X119000000Y-79600000D03*
X111070000Y-58120000D03*
X133400000Y-105200000D03*
X145250000Y-52750000D03*
X119000000Y-77060000D03*
X162000000Y-95800000D03*
X89000000Y-56720000D03*
X116200000Y-79600000D03*
X164800000Y-47400000D03*
X165200000Y-105800000D03*
X98000000Y-62000000D03*
X91000000Y-99400000D03*
X171000000Y-55600000D03*
X100800000Y-93200000D03*
X94400000Y-96860000D03*
X92200000Y-61800000D03*
X91000000Y-96860000D03*
X94310000Y-52820000D03*
X104200000Y-90660000D03*
X87200000Y-84000000D03*
X90000000Y-84000000D03*
X173600000Y-55600000D03*
X92670000Y-88780000D03*
X114000000Y-92600000D03*
X172400000Y-78400000D03*
X87800000Y-99400000D03*
X118400000Y-86860000D03*
X165200000Y-103260000D03*
X116400000Y-90800000D03*
X89000000Y-51640000D03*
X89000000Y-61800000D03*
X92200000Y-59260000D03*
X123060000Y-100960000D03*
X116410000Y-93320000D03*
X161200000Y-44860000D03*
X113200000Y-79600000D03*
X95400000Y-59460000D03*
X118400000Y-89400000D03*
X116200000Y-77060000D03*
X94400000Y-99400000D03*
X171000000Y-53060000D03*
X162000000Y-93260000D03*
X158000000Y-44860000D03*
X100800000Y-90660000D03*
%TO.N,/XTAL_N*%
X97940000Y-73620000D03*
X103830000Y-74000000D03*
%TO.N,/XTAL_P*%
X98690000Y-65980000D03*
X97961171Y-72720247D03*
%TO.N,V_BUS*%
X113390000Y-63570000D03*
X100190000Y-57530000D03*
X96230000Y-57340000D03*
%TO.N,V_BAT*%
X119550000Y-98330000D03*
%TO.N,/SDA1*%
X98630000Y-91420000D03*
X124470000Y-55980000D03*
%TO.N,/SCL1*%
X123810000Y-57230000D03*
X98050000Y-93440000D03*
%TO.N,/SCK_cam*%
X130470000Y-70450000D03*
%TO.N,/MISO_cam*%
X131750000Y-71070000D03*
%TO.N,/SCL_cam*%
X137944620Y-70305380D03*
%TO.N,/SDA_cam*%
X140259620Y-72339620D03*
%TO.N,/MOSI_cam*%
X129210000Y-70700000D03*
%TO.N,/M2_DISABLE*%
X120580000Y-61010000D03*
%TO.N,/M1_IN1*%
X119480000Y-58490000D03*
%TO.N,/M1_IN2*%
X119943406Y-64513406D03*
%TO.N,/M2_IN2*%
X120580000Y-59750000D03*
%TO.N,/M2_nFAULT*%
X142220000Y-64170000D03*
%TO.N,/TX_1*%
X98170000Y-78430000D03*
X120760000Y-62290000D03*
X100670000Y-77480000D03*
%TO.N,/RX_1*%
X98300000Y-79650000D03*
X120750000Y-63560000D03*
X96400000Y-78820000D03*
%TO.N,Net-(BNO086-ENV_SCL)*%
X90970000Y-75410000D03*
X90120000Y-75460000D03*
%TO.N,/RST_BTTN*%
X91880000Y-75000000D03*
X120800000Y-54670000D03*
%TO.N,Net-(BNO086-ENV_SDA)*%
X92120000Y-78870000D03*
X93090000Y-78870000D03*
%TO.N,/BNO_INT*%
X91910000Y-75980000D03*
X138440000Y-52130000D03*
%TO.N,/MCU_Peripherals/V_BUS1*%
X108210000Y-51100000D03*
X92800000Y-51200000D03*
%TD*%
D22*
%TO.N,GND*%
X147650000Y-60340000D02*
X147650000Y-57010000D01*
X118412075Y-58120000D02*
X126282075Y-50250000D01*
D10*
X87720000Y-51520000D02*
X89550000Y-49690000D01*
D22*
X118180000Y-91550000D02*
X140360000Y-91550000D01*
X138455000Y-100960000D02*
X143410000Y-96005000D01*
X123060000Y-100960000D02*
X138455000Y-100960000D01*
X111070000Y-58120000D02*
X118412075Y-58120000D01*
X147650000Y-57010000D02*
X145250000Y-54610000D01*
D10*
X89550000Y-49690000D02*
X89550000Y-46500000D01*
D22*
X92670000Y-88780000D02*
X89580000Y-91870000D01*
X145250000Y-54610000D02*
X145250000Y-52840000D01*
D10*
X87720000Y-69810000D02*
X87720000Y-51520000D01*
X89250000Y-48795888D02*
X90592944Y-47452944D01*
D22*
X126282075Y-50250000D02*
X147840000Y-50250000D01*
D10*
X88480000Y-70570000D02*
X87720000Y-69810000D01*
D22*
X147840000Y-50250000D02*
X169830000Y-50250000D01*
X89580000Y-91870000D02*
X89580000Y-104110000D01*
X140360000Y-91550000D02*
X143400000Y-88510000D01*
D10*
X92470000Y-70570000D02*
X88480000Y-70570000D01*
D22*
X172100000Y-47980000D02*
X172100000Y-46530000D01*
X169830000Y-50250000D02*
X172100000Y-47980000D01*
X145250000Y-52840000D02*
X147840000Y-50250000D01*
X116410000Y-93320000D02*
X118180000Y-91550000D01*
D10*
%TO.N,/XTAL_N*%
X103450000Y-73620000D02*
X103830000Y-74000000D01*
X97940000Y-73620000D02*
X103450000Y-73620000D01*
%TO.N,/XTAL_P*%
X97961171Y-72720247D02*
X97940000Y-72699076D01*
X97940000Y-66730000D02*
X98690000Y-65980000D01*
X97940000Y-72699076D02*
X97940000Y-66730000D01*
%TO.N,/SDA1*%
X124470000Y-61473152D02*
X124470000Y-55980000D01*
X98000000Y-87943152D02*
X124470000Y-61473152D01*
X98630000Y-91420000D02*
X98000000Y-90790000D01*
X98000000Y-90790000D02*
X98000000Y-87943152D01*
%TO.N,/SCL1*%
X98050000Y-93440000D02*
X97600000Y-92990000D01*
X97600000Y-92990000D02*
X97600000Y-87776052D01*
X123810000Y-61566052D02*
X123810000Y-57230000D01*
X97600000Y-87776052D02*
X123810000Y-61566052D01*
%TO.N,/SCK_cam*%
X130501000Y-70419000D02*
X137139000Y-70419000D01*
X144770000Y-78050000D02*
X144770000Y-80190000D01*
X137139000Y-70419000D02*
X144770000Y-78050000D01*
X130470000Y-70450000D02*
X130501000Y-70419000D01*
%TO.N,/MISO_cam*%
X131750000Y-71070000D02*
X135340000Y-71070000D01*
X142230000Y-77960000D02*
X142230000Y-80190000D01*
X135340000Y-71070000D02*
X142230000Y-77960000D01*
%TO.N,/SCL_cam*%
X137999240Y-70360000D02*
X146910000Y-70360000D01*
X154930000Y-78380000D02*
X154930000Y-80190000D01*
X137944620Y-70305380D02*
X137999240Y-70360000D01*
X146910000Y-70360000D02*
X154930000Y-78380000D01*
%TO.N,/SDA_cam*%
X140259620Y-72339620D02*
X144060000Y-76140000D01*
X150680000Y-76140000D02*
X152390000Y-77850000D01*
X152390000Y-77850000D02*
X152390000Y-80190000D01*
X144060000Y-76140000D02*
X150680000Y-76140000D01*
%TO.N,/MOSI_cam*%
X138100000Y-76140000D02*
X134650000Y-76140000D01*
X138100000Y-76170000D02*
X139690000Y-77760000D01*
X134650000Y-76140000D02*
X129210000Y-70700000D01*
X139690000Y-77760000D02*
X139690000Y-80190000D01*
%TO.N,/TX_1*%
X120340000Y-62290000D02*
X105150000Y-77480000D01*
X120760000Y-62290000D02*
X120340000Y-62290000D01*
X105150000Y-77480000D02*
X100670000Y-77480000D01*
X99720000Y-78430000D02*
X98170000Y-78430000D01*
X100670000Y-77480000D02*
X99720000Y-78430000D01*
%TO.N,/RX_1*%
X98300000Y-79650000D02*
X97230000Y-79650000D01*
X103750000Y-79650000D02*
X98300000Y-79650000D01*
X119840000Y-63560000D02*
X103750000Y-79650000D01*
X120750000Y-63560000D02*
X119840000Y-63560000D01*
X97230000Y-79650000D02*
X96400000Y-78820000D01*
%TO.N,Net-(BNO086-ENV_SCL)*%
X90680000Y-75520000D02*
X90620000Y-75460000D01*
X90970000Y-75410000D02*
X90860000Y-75520000D01*
X90620000Y-75460000D02*
X90120000Y-75460000D01*
X90860000Y-75520000D02*
X90680000Y-75520000D01*
%TO.N,/RST_BTTN*%
X96830000Y-70050000D02*
X91880000Y-75000000D01*
X109079346Y-54670000D02*
X96830000Y-66919346D01*
X96830000Y-66919346D02*
X96830000Y-70050000D01*
X120800000Y-54670000D02*
X109079346Y-54670000D01*
%TO.N,Net-(BNO086-ENV_SDA)*%
X93090000Y-78870000D02*
X92120000Y-78870000D01*
%TO.N,/BNO_INT*%
X127120000Y-52140000D02*
X138430000Y-52140000D01*
X103280000Y-75980000D02*
X127120000Y-52140000D01*
X138430000Y-52140000D02*
X138440000Y-52130000D01*
X91910000Y-75980000D02*
X103280000Y-75980000D01*
%TD*%
%TA.AperFunction,Conductor*%
%TO.N,GND*%
G36*
X150446942Y-76760185D02*
G01*
X150467584Y-76776819D01*
X151753181Y-78062416D01*
X151786666Y-78123739D01*
X151789500Y-78150097D01*
X151789500Y-78656833D01*
X151769815Y-78723872D01*
X151721796Y-78767317D01*
X151671703Y-78792841D01*
X151616618Y-78832863D01*
X151497179Y-78919641D01*
X151497177Y-78919643D01*
X151497176Y-78919643D01*
X151344643Y-79072176D01*
X151344643Y-79072177D01*
X151344641Y-79072179D01*
X151267729Y-79178038D01*
X151220318Y-79243294D01*
X151164988Y-79285959D01*
X151095374Y-79291938D01*
X151033579Y-79259332D01*
X151019682Y-79243294D01*
X150997435Y-79212674D01*
X150895359Y-79072179D01*
X150742821Y-78919641D01*
X150568299Y-78792843D01*
X150376089Y-78694908D01*
X150170926Y-78628246D01*
X150170924Y-78628245D01*
X150170922Y-78628245D01*
X149957866Y-78594500D01*
X149957861Y-78594500D01*
X149742139Y-78594500D01*
X149742134Y-78594500D01*
X149529077Y-78628245D01*
X149323908Y-78694909D01*
X149131700Y-78792843D01*
X149076618Y-78832863D01*
X148957179Y-78919641D01*
X148957177Y-78919643D01*
X148957176Y-78919643D01*
X148804642Y-79072177D01*
X148680008Y-79243720D01*
X148624677Y-79286385D01*
X148555064Y-79292364D01*
X148493269Y-79259758D01*
X148479372Y-79243720D01*
X148354974Y-79072503D01*
X148354974Y-79072502D01*
X148202497Y-78920025D01*
X148028036Y-78793271D01*
X147835899Y-78695372D01*
X147630805Y-78628733D01*
X147560000Y-78617518D01*
X147560000Y-79647290D01*
X147539661Y-79635548D01*
X147388333Y-79595000D01*
X147231667Y-79595000D01*
X147080339Y-79635548D01*
X147060000Y-79647290D01*
X147060000Y-78617518D01*
X147059999Y-78617518D01*
X146989194Y-78628733D01*
X146784100Y-78695372D01*
X146591963Y-78793271D01*
X146417503Y-78920025D01*
X146417502Y-78920025D01*
X146265024Y-79072503D01*
X146140627Y-79243720D01*
X146085296Y-79286385D01*
X146015683Y-79292364D01*
X145953888Y-79259758D01*
X145939991Y-79243720D01*
X145815359Y-79072179D01*
X145662821Y-78919641D01*
X145488299Y-78792843D01*
X145488298Y-78792842D01*
X145488296Y-78792841D01*
X145438204Y-78767317D01*
X145387408Y-78719342D01*
X145370500Y-78656833D01*
X145370500Y-78139060D01*
X145370501Y-78139047D01*
X145370501Y-77970944D01*
X145370114Y-77969500D01*
X145329577Y-77818216D01*
X145302282Y-77770939D01*
X145250524Y-77681290D01*
X145250518Y-77681282D01*
X144521417Y-76952181D01*
X144487932Y-76890858D01*
X144492916Y-76821166D01*
X144534788Y-76765233D01*
X144600252Y-76740816D01*
X144609098Y-76740500D01*
X150379903Y-76740500D01*
X150446942Y-76760185D01*
G37*
%TD.AperFunction*%
%TA.AperFunction,Conductor*%
G36*
X106582989Y-42829711D02*
G01*
X106628770Y-42882493D01*
X106640000Y-42934059D01*
X106640000Y-50000000D01*
X156240000Y-50000000D01*
X156240000Y-42944000D01*
X156259685Y-42876961D01*
X156312489Y-42831206D01*
X156364000Y-42820000D01*
X175716000Y-42820000D01*
X175783039Y-42839685D01*
X175828794Y-42892489D01*
X175840000Y-42944000D01*
X175840000Y-107696000D01*
X175820315Y-107763039D01*
X175767511Y-107808794D01*
X175716000Y-107820000D01*
X85964000Y-107820000D01*
X85896961Y-107800315D01*
X85851206Y-107747511D01*
X85840000Y-107696000D01*
X85840000Y-102550607D01*
X96192000Y-102550607D01*
X96192000Y-104350642D01*
X96202500Y-104453421D01*
X96202501Y-104453423D01*
X96257686Y-104619960D01*
X96349788Y-104769281D01*
X96473844Y-104893337D01*
X96623165Y-104985439D01*
X96789702Y-105040624D01*
X96892490Y-105051125D01*
X96892495Y-105051125D01*
X97348925Y-105051125D01*
X97415964Y-105070810D01*
X97461719Y-105123614D01*
X97471663Y-105192772D01*
X97442638Y-105256328D01*
X97417816Y-105278227D01*
X97282211Y-105368835D01*
X97282207Y-105368838D01*
X97170713Y-105480332D01*
X97170710Y-105480336D01*
X97083109Y-105611439D01*
X97083102Y-105611452D01*
X97022764Y-105757123D01*
X97022761Y-105757135D01*
X96992000Y-105911778D01*
X96992000Y-106069471D01*
X97022761Y-106224114D01*
X97022764Y-106224126D01*
X97083102Y-106369797D01*
X97083109Y-106369810D01*
X97170710Y-106500913D01*
X97170713Y-106500917D01*
X97282207Y-106612411D01*
X97282211Y-106612414D01*
X97413314Y-106700015D01*
X97413327Y-106700022D01*
X97558998Y-106760360D01*
X97559003Y-106760362D01*
X97713653Y-106791124D01*
X97713656Y-106791125D01*
X97713658Y-106791125D01*
X97871344Y-106791125D01*
X97871345Y-106791124D01*
X98025997Y-106760362D01*
X98171679Y-106700019D01*
X98302789Y-106612414D01*
X98414289Y-106500914D01*
X98501894Y-106369804D01*
X98562237Y-106224122D01*
X98593000Y-106069467D01*
X98593000Y-105911783D01*
X98593000Y-105911780D01*
X98592999Y-105911778D01*
X98562238Y-105757135D01*
X98562237Y-105757128D01*
X98562235Y-105757123D01*
X98501897Y-105611452D01*
X98501890Y-105611439D01*
X98414289Y-105480336D01*
X98414286Y-105480332D01*
X98302792Y-105368838D01*
X98302788Y-105368835D01*
X98167184Y-105278227D01*
X98122379Y-105224615D01*
X98113672Y-105155290D01*
X98143826Y-105092262D01*
X98203270Y-105055543D01*
X98236075Y-105051125D01*
X98692505Y-105051125D01*
X98692510Y-105051125D01*
X98795298Y-105040624D01*
X98961835Y-104985439D01*
X99111156Y-104893337D01*
X99235212Y-104769281D01*
X99235212Y-104769280D01*
X99240319Y-104764174D01*
X99242828Y-104766683D01*
X99286222Y-104735077D01*
X99355973Y-104731005D01*
X99400916Y-104751498D01*
X99493916Y-104819067D01*
X99718315Y-104933405D01*
X99957831Y-105011228D01*
X99991850Y-105016616D01*
X100054985Y-105046545D01*
X100091917Y-105105856D01*
X100090919Y-105175719D01*
X100052310Y-105233951D01*
X100019906Y-105253650D01*
X99953324Y-105281229D01*
X99953314Y-105281234D01*
X99822211Y-105368835D01*
X99822207Y-105368838D01*
X99710713Y-105480332D01*
X99710710Y-105480336D01*
X99623109Y-105611439D01*
X99623102Y-105611452D01*
X99562764Y-105757123D01*
X99562761Y-105757135D01*
X99532000Y-105911778D01*
X99532000Y-106069471D01*
X99562761Y-106224114D01*
X99562764Y-106224126D01*
X99623102Y-106369797D01*
X99623109Y-106369810D01*
X99710710Y-106500913D01*
X99710713Y-106500917D01*
X99822207Y-106612411D01*
X99822211Y-106612414D01*
X99953314Y-106700015D01*
X99953327Y-106700022D01*
X100098998Y-106760360D01*
X100099003Y-106760362D01*
X100253653Y-106791124D01*
X100253656Y-106791125D01*
X100253658Y-106791125D01*
X100411344Y-106791125D01*
X100411345Y-106791124D01*
X100565997Y-106760362D01*
X100711679Y-106700019D01*
X100842789Y-106612414D01*
X100954289Y-106500914D01*
X101041894Y-106369804D01*
X101102237Y-106224122D01*
X101133000Y-106069467D01*
X101133000Y-105911783D01*
X101133000Y-105911780D01*
X101132999Y-105911778D01*
X101102238Y-105757135D01*
X101102237Y-105757128D01*
X101102235Y-105757123D01*
X101041897Y-105611452D01*
X101041890Y-105611439D01*
X100954289Y-105480336D01*
X100954286Y-105480332D01*
X100842792Y-105368838D01*
X100842788Y-105368835D01*
X100711685Y-105281234D01*
X100711676Y-105281229D01*
X100645093Y-105253650D01*
X100590690Y-105209809D01*
X100568625Y-105143515D01*
X100585904Y-105075816D01*
X100637041Y-105028205D01*
X100673149Y-105016615D01*
X100707174Y-105011226D01*
X100946684Y-104933405D01*
X101171075Y-104819071D01*
X101171081Y-104819067D01*
X101273197Y-104744875D01*
X101273198Y-104744875D01*
X100502734Y-103974412D01*
X100544792Y-103963143D01*
X100670208Y-103890735D01*
X100772610Y-103788333D01*
X100845018Y-103662917D01*
X100856287Y-103620860D01*
X101626750Y-104391323D01*
X101626750Y-104391322D01*
X101700942Y-104289206D01*
X101700946Y-104289200D01*
X101815280Y-104064809D01*
X101893102Y-103825294D01*
X101932500Y-103576553D01*
X101932500Y-103324696D01*
X101893102Y-103075955D01*
X101815280Y-102836440D01*
X101700942Y-102612041D01*
X101626750Y-102509926D01*
X101626750Y-102509925D01*
X100856287Y-103280389D01*
X100845018Y-103238333D01*
X100772610Y-103112917D01*
X100670208Y-103010515D01*
X100544792Y-102938107D01*
X100502733Y-102926837D01*
X101273198Y-102156373D01*
X101171083Y-102082182D01*
X100946684Y-101967844D01*
X100707169Y-101890022D01*
X100458428Y-101850625D01*
X100206572Y-101850625D01*
X99957830Y-101890022D01*
X99718315Y-101967844D01*
X99493913Y-102082184D01*
X99400915Y-102149751D01*
X99335109Y-102173231D01*
X99267055Y-102157405D01*
X99241704Y-102135690D01*
X99240319Y-102137076D01*
X99111157Y-102007914D01*
X99111156Y-102007913D01*
X98961835Y-101915811D01*
X98795298Y-101860626D01*
X98795296Y-101860625D01*
X98692517Y-101850125D01*
X98692510Y-101850125D01*
X96892490Y-101850125D01*
X96892482Y-101850125D01*
X96789703Y-101860625D01*
X96789702Y-101860626D01*
X96707169Y-101887974D01*
X96623167Y-101915810D01*
X96623162Y-101915812D01*
X96473842Y-102007914D01*
X96349789Y-102131967D01*
X96257687Y-102281287D01*
X96257686Y-102281290D01*
X96202501Y-102447827D01*
X96202501Y-102447828D01*
X96202500Y-102447828D01*
X96192000Y-102550607D01*
X85840000Y-102550607D01*
X85840000Y-98246228D01*
X118699500Y-98246228D01*
X118699500Y-98413771D01*
X118732182Y-98578074D01*
X118732184Y-98578082D01*
X118796295Y-98732860D01*
X118889373Y-98872162D01*
X119007837Y-98990626D01*
X119100494Y-99052537D01*
X119147137Y-99083703D01*
X119301918Y-99147816D01*
X119466228Y-99180499D01*
X119466232Y-99180500D01*
X119466233Y-99180500D01*
X119633768Y-99180500D01*
X119633769Y-99180499D01*
X119798082Y-99147816D01*
X119952863Y-99083703D01*
X120092162Y-98990626D01*
X120210626Y-98872162D01*
X120303703Y-98732863D01*
X120367816Y-98578082D01*
X120400500Y-98413767D01*
X120400500Y-98246233D01*
X120367816Y-98081918D01*
X120303703Y-97927137D01*
X120272537Y-97880494D01*
X120210626Y-97787837D01*
X120092162Y-97669373D01*
X119952860Y-97576295D01*
X119798082Y-97512184D01*
X119798074Y-97512182D01*
X119633771Y-97479500D01*
X119633767Y-97479500D01*
X119466233Y-97479500D01*
X119466228Y-97479500D01*
X119301925Y-97512182D01*
X119301917Y-97512184D01*
X119147139Y-97576295D01*
X119007837Y-97669373D01*
X118889373Y-97787837D01*
X118796295Y-97927139D01*
X118732184Y-98081917D01*
X118732182Y-98081925D01*
X118699500Y-98246228D01*
X85840000Y-98246228D01*
X85840000Y-95107135D01*
X136979500Y-95107135D01*
X136979500Y-96902870D01*
X136979501Y-96902876D01*
X136985908Y-96962483D01*
X137036202Y-97097328D01*
X137036206Y-97097335D01*
X137122452Y-97212544D01*
X137122455Y-97212547D01*
X137237664Y-97298793D01*
X137237671Y-97298797D01*
X137372517Y-97349091D01*
X137372516Y-97349091D01*
X137379444Y-97349835D01*
X137432127Y-97355500D01*
X139227872Y-97355499D01*
X139287483Y-97349091D01*
X139422331Y-97298796D01*
X139537546Y-97212546D01*
X139623796Y-97097331D01*
X139672810Y-96965916D01*
X139714681Y-96909984D01*
X139780145Y-96885566D01*
X139848418Y-96900417D01*
X139876673Y-96921569D01*
X139990213Y-97035109D01*
X140162179Y-97160048D01*
X140162181Y-97160049D01*
X140162184Y-97160051D01*
X140351588Y-97256557D01*
X140553757Y-97322246D01*
X140763713Y-97355500D01*
X140763714Y-97355500D01*
X140976286Y-97355500D01*
X140976287Y-97355500D01*
X141186243Y-97322246D01*
X141388412Y-97256557D01*
X141577816Y-97160051D01*
X141664138Y-97097335D01*
X141749786Y-97035109D01*
X141749788Y-97035106D01*
X141749792Y-97035104D01*
X141900104Y-96884792D01*
X141900106Y-96884788D01*
X141900109Y-96884786D01*
X141985890Y-96766717D01*
X142025051Y-96712816D01*
X142029793Y-96703508D01*
X142077763Y-96652711D01*
X142145583Y-96635911D01*
X142211719Y-96658445D01*
X142250763Y-96703500D01*
X142255373Y-96712547D01*
X142294728Y-96766716D01*
X142927037Y-96134408D01*
X142944075Y-96197993D01*
X143009901Y-96312007D01*
X143102993Y-96405099D01*
X143217007Y-96470925D01*
X143280590Y-96487962D01*
X142648282Y-97120269D01*
X142648282Y-97120270D01*
X142702449Y-97159624D01*
X142891782Y-97256095D01*
X143093870Y-97321757D01*
X143303754Y-97355000D01*
X143516246Y-97355000D01*
X143726127Y-97321757D01*
X143726130Y-97321757D01*
X143928217Y-97256095D01*
X144117554Y-97159622D01*
X144171716Y-97120270D01*
X144171717Y-97120270D01*
X143539408Y-96487962D01*
X143602993Y-96470925D01*
X143717007Y-96405099D01*
X143810099Y-96312007D01*
X143875925Y-96197993D01*
X143892962Y-96134409D01*
X144525270Y-96766717D01*
X144525270Y-96766716D01*
X144564622Y-96712554D01*
X144661095Y-96523217D01*
X144726757Y-96321130D01*
X144726757Y-96321127D01*
X144760000Y-96111246D01*
X144760000Y-95948753D01*
X146680000Y-95948753D01*
X146680000Y-96161246D01*
X146713242Y-96371127D01*
X146713242Y-96371130D01*
X146778904Y-96573217D01*
X146875375Y-96762550D01*
X146914728Y-96816716D01*
X147547037Y-96184408D01*
X147564075Y-96247993D01*
X147629901Y-96362007D01*
X147722993Y-96455099D01*
X147837007Y-96520925D01*
X147900590Y-96537962D01*
X147268282Y-97170269D01*
X147268282Y-97170270D01*
X147322449Y-97209624D01*
X147511782Y-97306095D01*
X147713870Y-97371757D01*
X147923754Y-97405000D01*
X148136246Y-97405000D01*
X148346127Y-97371757D01*
X148346130Y-97371757D01*
X148548217Y-97306095D01*
X148737554Y-97209622D01*
X148791716Y-97170270D01*
X148791717Y-97170270D01*
X148159408Y-96537962D01*
X148222993Y-96520925D01*
X148337007Y-96455099D01*
X148430099Y-96362007D01*
X148495925Y-96247993D01*
X148512962Y-96184409D01*
X149145270Y-96816717D01*
X149145270Y-96816716D01*
X149184622Y-96762555D01*
X149189232Y-96753507D01*
X149237205Y-96702709D01*
X149305025Y-96685912D01*
X149371161Y-96708447D01*
X149410204Y-96753504D01*
X149414949Y-96762817D01*
X149539890Y-96934786D01*
X149690213Y-97085109D01*
X149862179Y-97210048D01*
X149862181Y-97210049D01*
X149862184Y-97210051D01*
X150051588Y-97306557D01*
X150253757Y-97372246D01*
X150463713Y-97405500D01*
X150463714Y-97405500D01*
X150676286Y-97405500D01*
X150676287Y-97405500D01*
X150886243Y-97372246D01*
X151088412Y-97306557D01*
X151277816Y-97210051D01*
X151346640Y-97160048D01*
X151449786Y-97085109D01*
X151449788Y-97085106D01*
X151449792Y-97085104D01*
X151600104Y-96934792D01*
X151600106Y-96934788D01*
X151600109Y-96934786D01*
X151722217Y-96766717D01*
X151725051Y-96762816D01*
X151729514Y-96754054D01*
X151777488Y-96703259D01*
X151845308Y-96686463D01*
X151911444Y-96708999D01*
X151950486Y-96754056D01*
X151954951Y-96762820D01*
X152079890Y-96934786D01*
X152230213Y-97085109D01*
X152402179Y-97210048D01*
X152402181Y-97210049D01*
X152402184Y-97210051D01*
X152591588Y-97306557D01*
X152793757Y-97372246D01*
X153003713Y-97405500D01*
X153003714Y-97405500D01*
X153216286Y-97405500D01*
X153216287Y-97405500D01*
X153426243Y-97372246D01*
X153628412Y-97306557D01*
X153817816Y-97210051D01*
X153941391Y-97120269D01*
X153989784Y-97085110D01*
X153989784Y-97085109D01*
X153989792Y-97085104D01*
X154103329Y-96971566D01*
X154164648Y-96938084D01*
X154234340Y-96943068D01*
X154290274Y-96984939D01*
X154307189Y-97015917D01*
X154356202Y-97147328D01*
X154356206Y-97147335D01*
X154442452Y-97262544D01*
X154442455Y-97262547D01*
X154557664Y-97348793D01*
X154557671Y-97348797D01*
X154692517Y-97399091D01*
X154692516Y-97399091D01*
X154699444Y-97399835D01*
X154752127Y-97405500D01*
X156547872Y-97405499D01*
X156607483Y-97399091D01*
X156742331Y-97348796D01*
X156857546Y-97262546D01*
X156943796Y-97147331D01*
X156994091Y-97012483D01*
X157000500Y-96952873D01*
X157000499Y-95948713D01*
X164509500Y-95948713D01*
X164509500Y-96161286D01*
X164542735Y-96371127D01*
X164542754Y-96371243D01*
X164586214Y-96505000D01*
X164608444Y-96573414D01*
X164704951Y-96762820D01*
X164829890Y-96934786D01*
X164980213Y-97085109D01*
X165152179Y-97210048D01*
X165152181Y-97210049D01*
X165152184Y-97210051D01*
X165341588Y-97306557D01*
X165543757Y-97372246D01*
X165753713Y-97405500D01*
X165753714Y-97405500D01*
X165966286Y-97405500D01*
X165966287Y-97405500D01*
X166176243Y-97372246D01*
X166378412Y-97306557D01*
X166567816Y-97210051D01*
X166691391Y-97120269D01*
X166739784Y-97085110D01*
X166739784Y-97085109D01*
X166739792Y-97085104D01*
X166853329Y-96971566D01*
X166914648Y-96938084D01*
X166984340Y-96943068D01*
X167040274Y-96984939D01*
X167057189Y-97015917D01*
X167106202Y-97147328D01*
X167106206Y-97147335D01*
X167192452Y-97262544D01*
X167192455Y-97262547D01*
X167307664Y-97348793D01*
X167307671Y-97348797D01*
X167442517Y-97399091D01*
X167442516Y-97399091D01*
X167449444Y-97399835D01*
X167502127Y-97405500D01*
X169297872Y-97405499D01*
X169357483Y-97399091D01*
X169492331Y-97348796D01*
X169607546Y-97262546D01*
X169693796Y-97147331D01*
X169744091Y-97012483D01*
X169750500Y-96952873D01*
X169750499Y-95157128D01*
X169744091Y-95097517D01*
X169742810Y-95094083D01*
X169693797Y-94962671D01*
X169693793Y-94962664D01*
X169607547Y-94847455D01*
X169607544Y-94847452D01*
X169492335Y-94761206D01*
X169492328Y-94761202D01*
X169357482Y-94710908D01*
X169357483Y-94710908D01*
X169297883Y-94704501D01*
X169297881Y-94704500D01*
X169297873Y-94704500D01*
X169297864Y-94704500D01*
X167502129Y-94704500D01*
X167502123Y-94704501D01*
X167442516Y-94710908D01*
X167307671Y-94761202D01*
X167307664Y-94761206D01*
X167192455Y-94847452D01*
X167192452Y-94847455D01*
X167106206Y-94962664D01*
X167106203Y-94962669D01*
X167057189Y-95094083D01*
X167015317Y-95150016D01*
X166949853Y-95174433D01*
X166881580Y-95159581D01*
X166853326Y-95138430D01*
X166739786Y-95024890D01*
X166567820Y-94899951D01*
X166378414Y-94803444D01*
X166378413Y-94803443D01*
X166378412Y-94803443D01*
X166176243Y-94737754D01*
X166176241Y-94737753D01*
X166176240Y-94737753D01*
X166008601Y-94711202D01*
X165966287Y-94704500D01*
X165753713Y-94704500D01*
X165711399Y-94711202D01*
X165543760Y-94737753D01*
X165341585Y-94803444D01*
X165152179Y-94899951D01*
X164980213Y-95024890D01*
X164829890Y-95175213D01*
X164704951Y-95347179D01*
X164608444Y-95536585D01*
X164542753Y-95738760D01*
X164509500Y-95948713D01*
X157000499Y-95948713D01*
X157000499Y-95157128D01*
X156994091Y-95097517D01*
X156992810Y-95094083D01*
X156943797Y-94962671D01*
X156943793Y-94962664D01*
X156857547Y-94847455D01*
X156857544Y-94847452D01*
X156742335Y-94761206D01*
X156742328Y-94761202D01*
X156607482Y-94710908D01*
X156607483Y-94710908D01*
X156547883Y-94704501D01*
X156547881Y-94704500D01*
X156547873Y-94704500D01*
X156547864Y-94704500D01*
X154752129Y-94704500D01*
X154752123Y-94704501D01*
X154692516Y-94710908D01*
X154557671Y-94761202D01*
X154557664Y-94761206D01*
X154442455Y-94847452D01*
X154442452Y-94847455D01*
X154356206Y-94962664D01*
X154356203Y-94962669D01*
X154307189Y-95094083D01*
X154265317Y-95150016D01*
X154199853Y-95174433D01*
X154131580Y-95159581D01*
X154103326Y-95138430D01*
X153989786Y-95024890D01*
X153817820Y-94899951D01*
X153628414Y-94803444D01*
X153628413Y-94803443D01*
X153628412Y-94803443D01*
X153426243Y-94737754D01*
X153426241Y-94737753D01*
X153426240Y-94737753D01*
X153258601Y-94711202D01*
X153216287Y-94704500D01*
X153003713Y-94704500D01*
X152961399Y-94711202D01*
X152793760Y-94737753D01*
X152591585Y-94803444D01*
X152402179Y-94899951D01*
X152230213Y-95024890D01*
X152079890Y-95175213D01*
X151954949Y-95347182D01*
X151950484Y-95355946D01*
X151902509Y-95406742D01*
X151834688Y-95423536D01*
X151768553Y-95400998D01*
X151729516Y-95355946D01*
X151725050Y-95347182D01*
X151600109Y-95175213D01*
X151449786Y-95024890D01*
X151277820Y-94899951D01*
X151088414Y-94803444D01*
X151088413Y-94803443D01*
X151088412Y-94803443D01*
X150886243Y-94737754D01*
X150886241Y-94737753D01*
X150886240Y-94737753D01*
X150718601Y-94711202D01*
X150676287Y-94704500D01*
X150463713Y-94704500D01*
X150421399Y-94711202D01*
X150253760Y-94737753D01*
X150051585Y-94803444D01*
X149862179Y-94899951D01*
X149690213Y-95024890D01*
X149539890Y-95175213D01*
X149414949Y-95347182D01*
X149410202Y-95356499D01*
X149362227Y-95407293D01*
X149294405Y-95424087D01*
X149228271Y-95401548D01*
X149189234Y-95356495D01*
X149184626Y-95347452D01*
X149145270Y-95293282D01*
X149145269Y-95293282D01*
X148512962Y-95925590D01*
X148495925Y-95862007D01*
X148430099Y-95747993D01*
X148337007Y-95654901D01*
X148222993Y-95589075D01*
X148159409Y-95572037D01*
X148791716Y-94939728D01*
X148737550Y-94900375D01*
X148548217Y-94803904D01*
X148346129Y-94738242D01*
X148136246Y-94705000D01*
X147923754Y-94705000D01*
X147713872Y-94738242D01*
X147713869Y-94738242D01*
X147511782Y-94803904D01*
X147322439Y-94900380D01*
X147268282Y-94939727D01*
X147268282Y-94939728D01*
X147900591Y-95572037D01*
X147837007Y-95589075D01*
X147722993Y-95654901D01*
X147629901Y-95747993D01*
X147564075Y-95862007D01*
X147547037Y-95925591D01*
X146914728Y-95293282D01*
X146914727Y-95293282D01*
X146875380Y-95347439D01*
X146778904Y-95536782D01*
X146713242Y-95738869D01*
X146713242Y-95738872D01*
X146680000Y-95948753D01*
X144760000Y-95948753D01*
X144760000Y-95898753D01*
X144726757Y-95688872D01*
X144726757Y-95688869D01*
X144661095Y-95486782D01*
X144564624Y-95297449D01*
X144525270Y-95243282D01*
X144525269Y-95243282D01*
X143892962Y-95875590D01*
X143875925Y-95812007D01*
X143810099Y-95697993D01*
X143717007Y-95604901D01*
X143602993Y-95539075D01*
X143539409Y-95522037D01*
X144162139Y-94899306D01*
X144171716Y-94889728D01*
X144117550Y-94850375D01*
X143928217Y-94753904D01*
X143726129Y-94688242D01*
X143516246Y-94655000D01*
X143303754Y-94655000D01*
X143093872Y-94688242D01*
X143093869Y-94688242D01*
X142891782Y-94753904D01*
X142702439Y-94850380D01*
X142648282Y-94889727D01*
X142648282Y-94889728D01*
X143280591Y-95522037D01*
X143217007Y-95539075D01*
X143102993Y-95604901D01*
X143009901Y-95697993D01*
X142944075Y-95812007D01*
X142927037Y-95875591D01*
X142294728Y-95243282D01*
X142294727Y-95243282D01*
X142255380Y-95297440D01*
X142255376Y-95297446D01*
X142250760Y-95306505D01*
X142202781Y-95357297D01*
X142134959Y-95374087D01*
X142068826Y-95351543D01*
X142029794Y-95306493D01*
X142025051Y-95297184D01*
X142025049Y-95297181D01*
X142025048Y-95297179D01*
X141900109Y-95125213D01*
X141749786Y-94974890D01*
X141577820Y-94849951D01*
X141388414Y-94753444D01*
X141388413Y-94753443D01*
X141388412Y-94753443D01*
X141186243Y-94687754D01*
X141186241Y-94687753D01*
X141186240Y-94687753D01*
X141024957Y-94662208D01*
X140976287Y-94654500D01*
X140763713Y-94654500D01*
X140715042Y-94662208D01*
X140553760Y-94687753D01*
X140351585Y-94753444D01*
X140162179Y-94849951D01*
X139990215Y-94974889D01*
X139876673Y-95088431D01*
X139815350Y-95121915D01*
X139745658Y-95116931D01*
X139689725Y-95075059D01*
X139672810Y-95044082D01*
X139623797Y-94912671D01*
X139623793Y-94912664D01*
X139537547Y-94797455D01*
X139537544Y-94797452D01*
X139422335Y-94711206D01*
X139422328Y-94711202D01*
X139287482Y-94660908D01*
X139287483Y-94660908D01*
X139227883Y-94654501D01*
X139227881Y-94654500D01*
X139227873Y-94654500D01*
X139227864Y-94654500D01*
X137432129Y-94654500D01*
X137432123Y-94654501D01*
X137372516Y-94660908D01*
X137237671Y-94711202D01*
X137237664Y-94711206D01*
X137122455Y-94797452D01*
X137122452Y-94797455D01*
X137036206Y-94912664D01*
X137036202Y-94912671D01*
X136985908Y-95047517D01*
X136979501Y-95107116D01*
X136979500Y-95107135D01*
X85840000Y-95107135D01*
X85840000Y-78786228D01*
X91269500Y-78786228D01*
X91269500Y-78953771D01*
X91302182Y-79118074D01*
X91302184Y-79118082D01*
X91366295Y-79272860D01*
X91459373Y-79412162D01*
X91577837Y-79530626D01*
X91670494Y-79592537D01*
X91717137Y-79623703D01*
X91717138Y-79623703D01*
X91717139Y-79623704D01*
X91745733Y-79635548D01*
X91871918Y-79687816D01*
X92002962Y-79713882D01*
X92036228Y-79720499D01*
X92036232Y-79720500D01*
X92036233Y-79720500D01*
X92203768Y-79720500D01*
X92203769Y-79720499D01*
X92368082Y-79687816D01*
X92522863Y-79623703D01*
X92536110Y-79614851D01*
X92602782Y-79593973D01*
X92670163Y-79612455D01*
X92673822Y-79614806D01*
X92687137Y-79623703D01*
X92841918Y-79687816D01*
X92972962Y-79713882D01*
X93006228Y-79720499D01*
X93006232Y-79720500D01*
X93006233Y-79720500D01*
X93173768Y-79720500D01*
X93173769Y-79720499D01*
X93338082Y-79687816D01*
X93492863Y-79623703D01*
X93632162Y-79530626D01*
X93750626Y-79412162D01*
X93843703Y-79272863D01*
X93907816Y-79118082D01*
X93940500Y-78953767D01*
X93940500Y-78786233D01*
X93907816Y-78621918D01*
X93843703Y-78467137D01*
X93792975Y-78391217D01*
X93750626Y-78327837D01*
X93632162Y-78209373D01*
X93492860Y-78116295D01*
X93338082Y-78052184D01*
X93338074Y-78052182D01*
X93173771Y-78019500D01*
X93173767Y-78019500D01*
X93006233Y-78019500D01*
X93006228Y-78019500D01*
X92841925Y-78052182D01*
X92841917Y-78052184D01*
X92687140Y-78116295D01*
X92687130Y-78116300D01*
X92673891Y-78125147D01*
X92607213Y-78146025D01*
X92539833Y-78127540D01*
X92536109Y-78125147D01*
X92522869Y-78116300D01*
X92522859Y-78116295D01*
X92368082Y-78052184D01*
X92368074Y-78052182D01*
X92203771Y-78019500D01*
X92203767Y-78019500D01*
X92036233Y-78019500D01*
X92036228Y-78019500D01*
X91871925Y-78052182D01*
X91871917Y-78052184D01*
X91717139Y-78116295D01*
X91577837Y-78209373D01*
X91459373Y-78327837D01*
X91366295Y-78467139D01*
X91302184Y-78621917D01*
X91302182Y-78621925D01*
X91269500Y-78786228D01*
X85840000Y-78786228D01*
X85840000Y-75376228D01*
X89269500Y-75376228D01*
X89269500Y-75543771D01*
X89302182Y-75708074D01*
X89302184Y-75708082D01*
X89366295Y-75862860D01*
X89459373Y-76002162D01*
X89577837Y-76120626D01*
X89654000Y-76171516D01*
X89717137Y-76213703D01*
X89871918Y-76277816D01*
X90036228Y-76310499D01*
X90036232Y-76310500D01*
X90036233Y-76310500D01*
X90203768Y-76310500D01*
X90203769Y-76310499D01*
X90368082Y-76277816D01*
X90522863Y-76213703D01*
X90530887Y-76208341D01*
X90597561Y-76187461D01*
X90647232Y-76196879D01*
X90721918Y-76227816D01*
X90886228Y-76260499D01*
X90886232Y-76260500D01*
X91022758Y-76260500D01*
X91089797Y-76280185D01*
X91135552Y-76332989D01*
X91137319Y-76337047D01*
X91156295Y-76382860D01*
X91249373Y-76522162D01*
X91367837Y-76640626D01*
X91456064Y-76699577D01*
X91507137Y-76733703D01*
X91507138Y-76733703D01*
X91507139Y-76733704D01*
X91524208Y-76740774D01*
X91661918Y-76797816D01*
X91826228Y-76830499D01*
X91826232Y-76830500D01*
X91826233Y-76830500D01*
X91993768Y-76830500D01*
X91993769Y-76830499D01*
X92158082Y-76797816D01*
X92312863Y-76733703D01*
X92452162Y-76640626D01*
X92463288Y-76629500D01*
X92475970Y-76616819D01*
X92537293Y-76583334D01*
X92563651Y-76580500D01*
X100076565Y-76580500D01*
X100143604Y-76600185D01*
X100189359Y-76652989D01*
X100199303Y-76722147D01*
X100170278Y-76785703D01*
X100145456Y-76807601D01*
X100140886Y-76810655D01*
X100127835Y-76819375D01*
X100009373Y-76937837D01*
X99916295Y-77077139D01*
X99852184Y-77231917D01*
X99852182Y-77231925D01*
X99819500Y-77396228D01*
X99819500Y-77429903D01*
X99799815Y-77496942D01*
X99783181Y-77517584D01*
X99507584Y-77793181D01*
X99446261Y-77826666D01*
X99419903Y-77829500D01*
X98823651Y-77829500D01*
X98756612Y-77809815D01*
X98735970Y-77793181D01*
X98712162Y-77769373D01*
X98572860Y-77676295D01*
X98418082Y-77612184D01*
X98418074Y-77612182D01*
X98253771Y-77579500D01*
X98253767Y-77579500D01*
X98086233Y-77579500D01*
X98086228Y-77579500D01*
X97921925Y-77612182D01*
X97921917Y-77612184D01*
X97767139Y-77676295D01*
X97627837Y-77769373D01*
X97509373Y-77887837D01*
X97416295Y-78027139D01*
X97352184Y-78181917D01*
X97352182Y-78181923D01*
X97328999Y-78298472D01*
X97296614Y-78360383D01*
X97235898Y-78394957D01*
X97166128Y-78391217D01*
X97109457Y-78350350D01*
X97104287Y-78343181D01*
X97060626Y-78277838D01*
X97060625Y-78277837D01*
X97060624Y-78277835D01*
X96942162Y-78159373D01*
X96802860Y-78066295D01*
X96648082Y-78002184D01*
X96648074Y-78002182D01*
X96483771Y-77969500D01*
X96483767Y-77969500D01*
X96316233Y-77969500D01*
X96316228Y-77969500D01*
X96151925Y-78002182D01*
X96151917Y-78002184D01*
X95997139Y-78066295D01*
X95857837Y-78159373D01*
X95739373Y-78277837D01*
X95646295Y-78417139D01*
X95582184Y-78571917D01*
X95582182Y-78571925D01*
X95549500Y-78736228D01*
X95549500Y-78903771D01*
X95582182Y-79068074D01*
X95582184Y-79068082D01*
X95646295Y-79222860D01*
X95739373Y-79362162D01*
X95857837Y-79480626D01*
X95932668Y-79530626D01*
X95997137Y-79573703D01*
X96151918Y-79637816D01*
X96316228Y-79670499D01*
X96316232Y-79670500D01*
X96316233Y-79670500D01*
X96349903Y-79670500D01*
X96416942Y-79690185D01*
X96437584Y-79706819D01*
X96745139Y-80014374D01*
X96745149Y-80014385D01*
X96749479Y-80018715D01*
X96749480Y-80018716D01*
X96861284Y-80130520D01*
X96948095Y-80180639D01*
X96948097Y-80180641D01*
X96987629Y-80203465D01*
X96998215Y-80209577D01*
X97150942Y-80250500D01*
X97150943Y-80250500D01*
X97646349Y-80250500D01*
X97713388Y-80270185D01*
X97734030Y-80286819D01*
X97757837Y-80310626D01*
X97838680Y-80364643D01*
X97897137Y-80403703D01*
X98051918Y-80467816D01*
X98216228Y-80500499D01*
X98216232Y-80500500D01*
X98216233Y-80500500D01*
X98383768Y-80500500D01*
X98383769Y-80500499D01*
X98548082Y-80467816D01*
X98702863Y-80403703D01*
X98842162Y-80310626D01*
X98842165Y-80310623D01*
X98865970Y-80286819D01*
X98927293Y-80253334D01*
X98953651Y-80250500D01*
X103663331Y-80250500D01*
X103663347Y-80250501D01*
X103670943Y-80250501D01*
X103829054Y-80250501D01*
X103829057Y-80250501D01*
X103981785Y-80209577D01*
X103981786Y-80209576D01*
X103989636Y-80207473D01*
X103990226Y-80209678D01*
X104047959Y-80203465D01*
X104110442Y-80234733D01*
X104146101Y-80294818D01*
X104143615Y-80364643D01*
X104113637Y-80413178D01*
X97231286Y-87295530D01*
X97119481Y-87407334D01*
X97119480Y-87407336D01*
X97087555Y-87462632D01*
X97040423Y-87544267D01*
X96999499Y-87696995D01*
X96999499Y-87696997D01*
X96999499Y-87865098D01*
X96999500Y-87865111D01*
X96999500Y-92903330D01*
X96999499Y-92903348D01*
X96999499Y-93069054D01*
X96999498Y-93069054D01*
X96999499Y-93069057D01*
X97040423Y-93221785D01*
X97056861Y-93250256D01*
X97119480Y-93358716D01*
X97170603Y-93409839D01*
X97176672Y-93418403D01*
X97184750Y-93441918D01*
X97196666Y-93463740D01*
X97198678Y-93482461D01*
X97199373Y-93484482D01*
X97199041Y-93485834D01*
X97199500Y-93490098D01*
X97199500Y-93523771D01*
X97232182Y-93688074D01*
X97232184Y-93688082D01*
X97296295Y-93842860D01*
X97389373Y-93982162D01*
X97507837Y-94100626D01*
X97600494Y-94162537D01*
X97647137Y-94193703D01*
X97801918Y-94257816D01*
X97966228Y-94290499D01*
X97966232Y-94290500D01*
X97966233Y-94290500D01*
X98133768Y-94290500D01*
X98133769Y-94290499D01*
X98298082Y-94257816D01*
X98452863Y-94193703D01*
X98592162Y-94100626D01*
X98710626Y-93982162D01*
X98803703Y-93842863D01*
X98867816Y-93688082D01*
X98900500Y-93523767D01*
X98900500Y-93356233D01*
X98867816Y-93191918D01*
X98803703Y-93037137D01*
X98714296Y-92903330D01*
X98710626Y-92897837D01*
X98592162Y-92779373D01*
X98452860Y-92686295D01*
X98298080Y-92622183D01*
X98292248Y-92620414D01*
X98292772Y-92618686D01*
X98272171Y-92607908D01*
X98243297Y-92594722D01*
X98241437Y-92591829D01*
X98238391Y-92590235D01*
X98222686Y-92562651D01*
X98205523Y-92535944D01*
X98204861Y-92531342D01*
X98203822Y-92529517D01*
X98200500Y-92501009D01*
X98200500Y-92348249D01*
X98220185Y-92281210D01*
X98272989Y-92235455D01*
X98342147Y-92225511D01*
X98371948Y-92233686D01*
X98381918Y-92237816D01*
X98546228Y-92270499D01*
X98546232Y-92270500D01*
X98546233Y-92270500D01*
X98713768Y-92270500D01*
X98713769Y-92270499D01*
X98878082Y-92237816D01*
X99032863Y-92173703D01*
X99172162Y-92080626D01*
X99290626Y-91962162D01*
X99383703Y-91822863D01*
X99447816Y-91668082D01*
X99480500Y-91503767D01*
X99480500Y-91336233D01*
X99447816Y-91171918D01*
X99383703Y-91017137D01*
X99352537Y-90970494D01*
X99290626Y-90877837D01*
X99172162Y-90759373D01*
X99032860Y-90666295D01*
X98878082Y-90602184D01*
X98878074Y-90602182D01*
X98713771Y-90569500D01*
X98712346Y-90569360D01*
X98711647Y-90569077D01*
X98707792Y-90568311D01*
X98707937Y-90567579D01*
X98647559Y-90543199D01*
X98607200Y-90486165D01*
X98600500Y-90445957D01*
X98600500Y-88243248D01*
X98620185Y-88176209D01*
X98636814Y-88155572D01*
X99180251Y-87612135D01*
X134429500Y-87612135D01*
X134429500Y-89407870D01*
X134429501Y-89407876D01*
X134435908Y-89467483D01*
X134486202Y-89602328D01*
X134486206Y-89602335D01*
X134572452Y-89717544D01*
X134572455Y-89717547D01*
X134687664Y-89803793D01*
X134687671Y-89803797D01*
X134822517Y-89854091D01*
X134822516Y-89854091D01*
X134829444Y-89854835D01*
X134882127Y-89860500D01*
X136677872Y-89860499D01*
X136737483Y-89854091D01*
X136872331Y-89803796D01*
X136987546Y-89717546D01*
X137073796Y-89602331D01*
X137122810Y-89470916D01*
X137164681Y-89414984D01*
X137230145Y-89390566D01*
X137298418Y-89405417D01*
X137326673Y-89426569D01*
X137440213Y-89540109D01*
X137612179Y-89665048D01*
X137612181Y-89665049D01*
X137612184Y-89665051D01*
X137801588Y-89761557D01*
X138003757Y-89827246D01*
X138213713Y-89860500D01*
X138213714Y-89860500D01*
X138426286Y-89860500D01*
X138426287Y-89860500D01*
X138636243Y-89827246D01*
X138838412Y-89761557D01*
X139027816Y-89665051D01*
X139114138Y-89602335D01*
X139199786Y-89540109D01*
X139199788Y-89540106D01*
X139199792Y-89540104D01*
X139350104Y-89389792D01*
X139350106Y-89389788D01*
X139350109Y-89389786D01*
X139475048Y-89217820D01*
X139475047Y-89217820D01*
X139475051Y-89217816D01*
X139479514Y-89209054D01*
X139527488Y-89158259D01*
X139595308Y-89141463D01*
X139661444Y-89163999D01*
X139700486Y-89209056D01*
X139704951Y-89217820D01*
X139829890Y-89389786D01*
X139980213Y-89540109D01*
X140152179Y-89665048D01*
X140152181Y-89665049D01*
X140152184Y-89665051D01*
X140341588Y-89761557D01*
X140543757Y-89827246D01*
X140753713Y-89860500D01*
X140753714Y-89860500D01*
X140966286Y-89860500D01*
X140966287Y-89860500D01*
X141176243Y-89827246D01*
X141378412Y-89761557D01*
X141567816Y-89665051D01*
X141654138Y-89602335D01*
X141739786Y-89540109D01*
X141739788Y-89540106D01*
X141739792Y-89540104D01*
X141890104Y-89389792D01*
X141890106Y-89389788D01*
X141890109Y-89389786D01*
X141975890Y-89271717D01*
X142015051Y-89217816D01*
X142019793Y-89208508D01*
X142067763Y-89157711D01*
X142135583Y-89140911D01*
X142201719Y-89163445D01*
X142240763Y-89208500D01*
X142245373Y-89217547D01*
X142284728Y-89271716D01*
X142917037Y-88639408D01*
X142934075Y-88702993D01*
X142999901Y-88817007D01*
X143092993Y-88910099D01*
X143207007Y-88975925D01*
X143270590Y-88992962D01*
X142638282Y-89625269D01*
X142638282Y-89625270D01*
X142692449Y-89664624D01*
X142881782Y-89761095D01*
X143083870Y-89826757D01*
X143293754Y-89860000D01*
X143506246Y-89860000D01*
X143716127Y-89826757D01*
X143716130Y-89826757D01*
X143918217Y-89761095D01*
X144107554Y-89664622D01*
X144161716Y-89625270D01*
X144161717Y-89625270D01*
X143529408Y-88992962D01*
X143592993Y-88975925D01*
X143707007Y-88910099D01*
X143800099Y-88817007D01*
X143865925Y-88702993D01*
X143882962Y-88639409D01*
X144515270Y-89271717D01*
X144515270Y-89271716D01*
X144554622Y-89217554D01*
X144651095Y-89028217D01*
X144716757Y-88826130D01*
X144716757Y-88826127D01*
X144750000Y-88616246D01*
X144750000Y-88453713D01*
X146679500Y-88453713D01*
X146679500Y-88666286D01*
X146704834Y-88826243D01*
X146712754Y-88876243D01*
X146756214Y-89010000D01*
X146778444Y-89078414D01*
X146874951Y-89267820D01*
X146999890Y-89439786D01*
X147150213Y-89590109D01*
X147322179Y-89715048D01*
X147322181Y-89715049D01*
X147322184Y-89715051D01*
X147511588Y-89811557D01*
X147713757Y-89877246D01*
X147923713Y-89910500D01*
X147923714Y-89910500D01*
X148136286Y-89910500D01*
X148136287Y-89910500D01*
X148346243Y-89877246D01*
X148548412Y-89811557D01*
X148737816Y-89715051D01*
X148806640Y-89665048D01*
X148909786Y-89590109D01*
X148909788Y-89590106D01*
X148909792Y-89590104D01*
X149060104Y-89439792D01*
X149060106Y-89439788D01*
X149060109Y-89439786D01*
X149182217Y-89271717D01*
X149185051Y-89267816D01*
X149189514Y-89259054D01*
X149237488Y-89208259D01*
X149305308Y-89191463D01*
X149371444Y-89213999D01*
X149410486Y-89259056D01*
X149414951Y-89267820D01*
X149539890Y-89439786D01*
X149690213Y-89590109D01*
X149862179Y-89715048D01*
X149862181Y-89715049D01*
X149862184Y-89715051D01*
X150051588Y-89811557D01*
X150253757Y-89877246D01*
X150463713Y-89910500D01*
X150463714Y-89910500D01*
X150676286Y-89910500D01*
X150676287Y-89910500D01*
X150886243Y-89877246D01*
X151088412Y-89811557D01*
X151277816Y-89715051D01*
X151346640Y-89665048D01*
X151449786Y-89590109D01*
X151449788Y-89590106D01*
X151449792Y-89590104D01*
X151600104Y-89439792D01*
X151600106Y-89439788D01*
X151600109Y-89439786D01*
X151722217Y-89271717D01*
X151725051Y-89267816D01*
X151729514Y-89259054D01*
X151777488Y-89208259D01*
X151845308Y-89191463D01*
X151911444Y-89213999D01*
X151950486Y-89259056D01*
X151954951Y-89267820D01*
X152079890Y-89439786D01*
X152230213Y-89590109D01*
X152402179Y-89715048D01*
X152402181Y-89715049D01*
X152402184Y-89715051D01*
X152591588Y-89811557D01*
X152793757Y-89877246D01*
X153003713Y-89910500D01*
X153003714Y-89910500D01*
X153216286Y-89910500D01*
X153216287Y-89910500D01*
X153426243Y-89877246D01*
X153628412Y-89811557D01*
X153817816Y-89715051D01*
X153904478Y-89652088D01*
X153989784Y-89590110D01*
X153989784Y-89590109D01*
X153989792Y-89590104D01*
X154103329Y-89476566D01*
X154164648Y-89443084D01*
X154234340Y-89448068D01*
X154290274Y-89489939D01*
X154307189Y-89520917D01*
X154356202Y-89652328D01*
X154356206Y-89652335D01*
X154442452Y-89767544D01*
X154442455Y-89767547D01*
X154557664Y-89853793D01*
X154557671Y-89853797D01*
X154692517Y-89904091D01*
X154692516Y-89904091D01*
X154699444Y-89904835D01*
X154752127Y-89910500D01*
X156547872Y-89910499D01*
X156607483Y-89904091D01*
X156742331Y-89853796D01*
X156857546Y-89767546D01*
X156943796Y-89652331D01*
X156994091Y-89517483D01*
X157000500Y-89457873D01*
X157000499Y-88453713D01*
X163244500Y-88453713D01*
X163244500Y-88666286D01*
X163269834Y-88826243D01*
X163277754Y-88876243D01*
X163321214Y-89010000D01*
X163343444Y-89078414D01*
X163439951Y-89267820D01*
X163564890Y-89439786D01*
X163715213Y-89590109D01*
X163887179Y-89715048D01*
X163887181Y-89715049D01*
X163887184Y-89715051D01*
X164076588Y-89811557D01*
X164278757Y-89877246D01*
X164488713Y-89910500D01*
X164488714Y-89910500D01*
X164701286Y-89910500D01*
X164701287Y-89910500D01*
X164911243Y-89877246D01*
X165113412Y-89811557D01*
X165302816Y-89715051D01*
X165371640Y-89665048D01*
X165474786Y-89590109D01*
X165474788Y-89590106D01*
X165474792Y-89590104D01*
X165625104Y-89439792D01*
X165625106Y-89439788D01*
X165625109Y-89439786D01*
X165747217Y-89271717D01*
X165750051Y-89267816D01*
X165754514Y-89259054D01*
X165802488Y-89208259D01*
X165870308Y-89191463D01*
X165936444Y-89213999D01*
X165975486Y-89259056D01*
X165979951Y-89267820D01*
X166104890Y-89439786D01*
X166255213Y-89590109D01*
X166427179Y-89715048D01*
X166427181Y-89715049D01*
X166427184Y-89715051D01*
X166616588Y-89811557D01*
X166818757Y-89877246D01*
X167028713Y-89910500D01*
X167028714Y-89910500D01*
X167241286Y-89910500D01*
X167241287Y-89910500D01*
X167451243Y-89877246D01*
X167653412Y-89811557D01*
X167842816Y-89715051D01*
X167929478Y-89652088D01*
X168014784Y-89590110D01*
X168014784Y-89590109D01*
X168014792Y-89590104D01*
X168128717Y-89476178D01*
X168190036Y-89442696D01*
X168259728Y-89447680D01*
X168315662Y-89489551D01*
X168332577Y-89520528D01*
X168381646Y-89652088D01*
X168381649Y-89652093D01*
X168467809Y-89767187D01*
X168467812Y-89767190D01*
X168582906Y-89853350D01*
X168582913Y-89853354D01*
X168717620Y-89903596D01*
X168717627Y-89903598D01*
X168777155Y-89909999D01*
X168777172Y-89910000D01*
X169425000Y-89910000D01*
X169425000Y-88993012D01*
X169482007Y-89025925D01*
X169609174Y-89060000D01*
X169740826Y-89060000D01*
X169867993Y-89025925D01*
X169925000Y-88993012D01*
X169925000Y-89910000D01*
X170572828Y-89910000D01*
X170572844Y-89909999D01*
X170632372Y-89903598D01*
X170632379Y-89903596D01*
X170767086Y-89853354D01*
X170767093Y-89853350D01*
X170882187Y-89767190D01*
X170882190Y-89767187D01*
X170968350Y-89652093D01*
X170968354Y-89652086D01*
X171018596Y-89517379D01*
X171018598Y-89517372D01*
X171024999Y-89457844D01*
X171025000Y-89457827D01*
X171025000Y-88810000D01*
X170108012Y-88810000D01*
X170140925Y-88752993D01*
X170175000Y-88625826D01*
X170175000Y-88494174D01*
X170140925Y-88367007D01*
X170108012Y-88310000D01*
X171025000Y-88310000D01*
X171025000Y-87662172D01*
X171024999Y-87662155D01*
X171018598Y-87602627D01*
X171018596Y-87602620D01*
X170968354Y-87467913D01*
X170968350Y-87467906D01*
X170882190Y-87352812D01*
X170882187Y-87352809D01*
X170767093Y-87266649D01*
X170767086Y-87266645D01*
X170632379Y-87216403D01*
X170632372Y-87216401D01*
X170572844Y-87210000D01*
X169925000Y-87210000D01*
X169925000Y-88126988D01*
X169867993Y-88094075D01*
X169740826Y-88060000D01*
X169609174Y-88060000D01*
X169482007Y-88094075D01*
X169425000Y-88126988D01*
X169425000Y-87210000D01*
X168777155Y-87210000D01*
X168717627Y-87216401D01*
X168717620Y-87216403D01*
X168582913Y-87266645D01*
X168582906Y-87266649D01*
X168467812Y-87352809D01*
X168467809Y-87352812D01*
X168381649Y-87467906D01*
X168381646Y-87467912D01*
X168332577Y-87599471D01*
X168290705Y-87655404D01*
X168225241Y-87679821D01*
X168156968Y-87664969D01*
X168128714Y-87643818D01*
X168014786Y-87529890D01*
X167842820Y-87404951D01*
X167653414Y-87308444D01*
X167653413Y-87308443D01*
X167653412Y-87308443D01*
X167451243Y-87242754D01*
X167451241Y-87242753D01*
X167451240Y-87242753D01*
X167289957Y-87217208D01*
X167241287Y-87209500D01*
X167028713Y-87209500D01*
X166980042Y-87217208D01*
X166818760Y-87242753D01*
X166616585Y-87308444D01*
X166427179Y-87404951D01*
X166255213Y-87529890D01*
X166104890Y-87680213D01*
X165979949Y-87852182D01*
X165975484Y-87860946D01*
X165927509Y-87911742D01*
X165859688Y-87928536D01*
X165793553Y-87905998D01*
X165754516Y-87860946D01*
X165750050Y-87852182D01*
X165625109Y-87680213D01*
X165474786Y-87529890D01*
X165302820Y-87404951D01*
X165113414Y-87308444D01*
X165113413Y-87308443D01*
X165113412Y-87308443D01*
X164911243Y-87242754D01*
X164911241Y-87242753D01*
X164911240Y-87242753D01*
X164749957Y-87217208D01*
X164701287Y-87209500D01*
X164488713Y-87209500D01*
X164440042Y-87217208D01*
X164278760Y-87242753D01*
X164076585Y-87308444D01*
X163887179Y-87404951D01*
X163715213Y-87529890D01*
X163564890Y-87680213D01*
X163439951Y-87852179D01*
X163343444Y-88041585D01*
X163277753Y-88243760D01*
X163244500Y-88453713D01*
X157000499Y-88453713D01*
X157000499Y-87662128D01*
X156994091Y-87602517D01*
X156992810Y-87599083D01*
X156943797Y-87467671D01*
X156943793Y-87467664D01*
X156857547Y-87352455D01*
X156857544Y-87352452D01*
X156742335Y-87266206D01*
X156742328Y-87266202D01*
X156607482Y-87215908D01*
X156607483Y-87215908D01*
X156547883Y-87209501D01*
X156547881Y-87209500D01*
X156547873Y-87209500D01*
X156547864Y-87209500D01*
X154752129Y-87209500D01*
X154752123Y-87209501D01*
X154692516Y-87215908D01*
X154557671Y-87266202D01*
X154557664Y-87266206D01*
X154442455Y-87352452D01*
X154442452Y-87352455D01*
X154356206Y-87467664D01*
X154356203Y-87467669D01*
X154307189Y-87599083D01*
X154265317Y-87655016D01*
X154199853Y-87679433D01*
X154131580Y-87664581D01*
X154103326Y-87643430D01*
X153989786Y-87529890D01*
X153817820Y-87404951D01*
X153628414Y-87308444D01*
X153628413Y-87308443D01*
X153628412Y-87308443D01*
X153426243Y-87242754D01*
X153426241Y-87242753D01*
X153426240Y-87242753D01*
X153264957Y-87217208D01*
X153216287Y-87209500D01*
X153003713Y-87209500D01*
X152955042Y-87217208D01*
X152793760Y-87242753D01*
X152591585Y-87308444D01*
X152402179Y-87404951D01*
X152230213Y-87529890D01*
X152079890Y-87680213D01*
X151954949Y-87852182D01*
X151950484Y-87860946D01*
X151902509Y-87911742D01*
X151834688Y-87928536D01*
X151768553Y-87905998D01*
X151729516Y-87860946D01*
X151725050Y-87852182D01*
X151600109Y-87680213D01*
X151449786Y-87529890D01*
X151277820Y-87404951D01*
X151088414Y-87308444D01*
X151088413Y-87308443D01*
X151088412Y-87308443D01*
X150886243Y-87242754D01*
X150886241Y-87242753D01*
X150886240Y-87242753D01*
X150724957Y-87217208D01*
X150676287Y-87209500D01*
X150463713Y-87209500D01*
X150415042Y-87217208D01*
X150253760Y-87242753D01*
X150051585Y-87308444D01*
X149862179Y-87404951D01*
X149690213Y-87529890D01*
X149539890Y-87680213D01*
X149414949Y-87852182D01*
X149410484Y-87860946D01*
X149362509Y-87911742D01*
X149294688Y-87928536D01*
X149228553Y-87905998D01*
X149189516Y-87860946D01*
X149185050Y-87852182D01*
X149060109Y-87680213D01*
X148909786Y-87529890D01*
X148737820Y-87404951D01*
X148548414Y-87308444D01*
X148548413Y-87308443D01*
X148548412Y-87308443D01*
X148346243Y-87242754D01*
X148346241Y-87242753D01*
X148346240Y-87242753D01*
X148184957Y-87217208D01*
X148136287Y-87209500D01*
X147923713Y-87209500D01*
X147875042Y-87217208D01*
X147713760Y-87242753D01*
X147511585Y-87308444D01*
X147322179Y-87404951D01*
X147150213Y-87529890D01*
X146999890Y-87680213D01*
X146874951Y-87852179D01*
X146778444Y-88041585D01*
X146712753Y-88243760D01*
X146679500Y-88453713D01*
X144750000Y-88453713D01*
X144750000Y-88403753D01*
X144716757Y-88193872D01*
X144716757Y-88193869D01*
X144651095Y-87991782D01*
X144554624Y-87802449D01*
X144515270Y-87748282D01*
X144515269Y-87748282D01*
X143882962Y-88380590D01*
X143865925Y-88317007D01*
X143800099Y-88202993D01*
X143707007Y-88109901D01*
X143592993Y-88044075D01*
X143529409Y-88027037D01*
X144161716Y-87394728D01*
X144107550Y-87355375D01*
X143918217Y-87258904D01*
X143716129Y-87193242D01*
X143506246Y-87160000D01*
X143293754Y-87160000D01*
X143083872Y-87193242D01*
X143083869Y-87193242D01*
X142881782Y-87258904D01*
X142692439Y-87355380D01*
X142638282Y-87394727D01*
X142638282Y-87394728D01*
X143270591Y-88027037D01*
X143207007Y-88044075D01*
X143092993Y-88109901D01*
X142999901Y-88202993D01*
X142934075Y-88317007D01*
X142917037Y-88380591D01*
X142284728Y-87748282D01*
X142284727Y-87748282D01*
X142245380Y-87802440D01*
X142245376Y-87802446D01*
X142240760Y-87811505D01*
X142192781Y-87862297D01*
X142124959Y-87879087D01*
X142058826Y-87856543D01*
X142019794Y-87811493D01*
X142015051Y-87802184D01*
X142015049Y-87802181D01*
X142015048Y-87802179D01*
X141890109Y-87630213D01*
X141739786Y-87479890D01*
X141567820Y-87354951D01*
X141378414Y-87258444D01*
X141378413Y-87258443D01*
X141378412Y-87258443D01*
X141176243Y-87192754D01*
X141176241Y-87192753D01*
X141176240Y-87192753D01*
X141014957Y-87167208D01*
X140966287Y-87159500D01*
X140753713Y-87159500D01*
X140705042Y-87167208D01*
X140543760Y-87192753D01*
X140341585Y-87258444D01*
X140152179Y-87354951D01*
X139980213Y-87479890D01*
X139829890Y-87630213D01*
X139704949Y-87802182D01*
X139700484Y-87810946D01*
X139652509Y-87861742D01*
X139584688Y-87878536D01*
X139518553Y-87855998D01*
X139479516Y-87810946D01*
X139475050Y-87802182D01*
X139350109Y-87630213D01*
X139199786Y-87479890D01*
X139027820Y-87354951D01*
X138838414Y-87258444D01*
X138838413Y-87258443D01*
X138838412Y-87258443D01*
X138636243Y-87192754D01*
X138636241Y-87192753D01*
X138636240Y-87192753D01*
X138474957Y-87167208D01*
X138426287Y-87159500D01*
X138213713Y-87159500D01*
X138165042Y-87167208D01*
X138003760Y-87192753D01*
X137801585Y-87258444D01*
X137612179Y-87354951D01*
X137440215Y-87479889D01*
X137326673Y-87593431D01*
X137265350Y-87626915D01*
X137195658Y-87621931D01*
X137139725Y-87580059D01*
X137122810Y-87549082D01*
X137073797Y-87417671D01*
X137073793Y-87417664D01*
X136987547Y-87302455D01*
X136987544Y-87302452D01*
X136872335Y-87216206D01*
X136872328Y-87216202D01*
X136737482Y-87165908D01*
X136737483Y-87165908D01*
X136677883Y-87159501D01*
X136677881Y-87159500D01*
X136677873Y-87159500D01*
X136677864Y-87159500D01*
X134882129Y-87159500D01*
X134882123Y-87159501D01*
X134822516Y-87165908D01*
X134687671Y-87216202D01*
X134687664Y-87216206D01*
X134572455Y-87302452D01*
X134572452Y-87302455D01*
X134486206Y-87417664D01*
X134486202Y-87417671D01*
X134435908Y-87552517D01*
X134429501Y-87612116D01*
X134429500Y-87612135D01*
X99180251Y-87612135D01*
X116176157Y-70616228D01*
X128359500Y-70616228D01*
X128359500Y-70783771D01*
X128392182Y-70948074D01*
X128392184Y-70948082D01*
X128456295Y-71102860D01*
X128549373Y-71242162D01*
X128667837Y-71360626D01*
X128760494Y-71422537D01*
X128807137Y-71453703D01*
X128961918Y-71517816D01*
X129126228Y-71550499D01*
X129126232Y-71550500D01*
X129126233Y-71550500D01*
X129159903Y-71550500D01*
X129226942Y-71570185D01*
X129247583Y-71586818D01*
X134281284Y-76620520D01*
X134281286Y-76620521D01*
X134281290Y-76620524D01*
X134368561Y-76670909D01*
X134418216Y-76699577D01*
X134570943Y-76740501D01*
X134570945Y-76740501D01*
X134736654Y-76740501D01*
X134736670Y-76740500D01*
X137769903Y-76740500D01*
X137836942Y-76760185D01*
X137857584Y-76776819D01*
X139053181Y-77972416D01*
X139086666Y-78033739D01*
X139089500Y-78060097D01*
X139089500Y-78656833D01*
X139069815Y-78723872D01*
X139021796Y-78767317D01*
X138971703Y-78792841D01*
X138916618Y-78832863D01*
X138797179Y-78919641D01*
X138797177Y-78919643D01*
X138797176Y-78919643D01*
X138644643Y-79072176D01*
X138644643Y-79072177D01*
X138644641Y-79072179D01*
X138567729Y-79178038D01*
X138520318Y-79243294D01*
X138464988Y-79285959D01*
X138395374Y-79291938D01*
X138333579Y-79259332D01*
X138319682Y-79243294D01*
X138297435Y-79212674D01*
X138195359Y-79072179D01*
X138042821Y-78919641D01*
X137868299Y-78792843D01*
X137676089Y-78694908D01*
X137470926Y-78628246D01*
X137470924Y-78628245D01*
X137470922Y-78628245D01*
X137257866Y-78594500D01*
X137257861Y-78594500D01*
X137042139Y-78594500D01*
X137042134Y-78594500D01*
X136829077Y-78628245D01*
X136623908Y-78694909D01*
X136431700Y-78792843D01*
X136376618Y-78832863D01*
X136257179Y-78919641D01*
X136257177Y-78919643D01*
X136257176Y-78919643D01*
X136104643Y-79072176D01*
X136104643Y-79072177D01*
X136104641Y-79072179D01*
X136050186Y-79147129D01*
X135977843Y-79246700D01*
X135879909Y-79438908D01*
X135813245Y-79644077D01*
X135779500Y-79857133D01*
X135779500Y-80522866D01*
X135813245Y-80735922D01*
X135813246Y-80735926D01*
X135879908Y-80941089D01*
X135977843Y-81133299D01*
X136104641Y-81307821D01*
X136257179Y-81460359D01*
X136431701Y-81587157D01*
X136623911Y-81685092D01*
X136829074Y-81751754D01*
X136896796Y-81762480D01*
X137042134Y-81785500D01*
X137042139Y-81785500D01*
X137257866Y-81785500D01*
X137376230Y-81766752D01*
X137470926Y-81751754D01*
X137676089Y-81685092D01*
X137868299Y-81587157D01*
X138042821Y-81460359D01*
X138195359Y-81307821D01*
X138319682Y-81136704D01*
X138375012Y-81094040D01*
X138444626Y-81088061D01*
X138506420Y-81120667D01*
X138520315Y-81136702D01*
X138644641Y-81307821D01*
X138797179Y-81460359D01*
X138971701Y-81587157D01*
X139163911Y-81685092D01*
X139369074Y-81751754D01*
X139436796Y-81762480D01*
X139582134Y-81785500D01*
X139582139Y-81785500D01*
X139797866Y-81785500D01*
X139916230Y-81766752D01*
X140010926Y-81751754D01*
X140216089Y-81685092D01*
X140408299Y-81587157D01*
X140582821Y-81460359D01*
X140735359Y-81307821D01*
X140859682Y-81136704D01*
X140915012Y-81094040D01*
X140984626Y-81088061D01*
X141046420Y-81120667D01*
X141060315Y-81136702D01*
X141184641Y-81307821D01*
X141337179Y-81460359D01*
X141511701Y-81587157D01*
X141703911Y-81685092D01*
X141909074Y-81751754D01*
X141976796Y-81762480D01*
X142122134Y-81785500D01*
X142122139Y-81785500D01*
X142337866Y-81785500D01*
X142456230Y-81766752D01*
X142550926Y-81751754D01*
X142756089Y-81685092D01*
X142948299Y-81587157D01*
X143122821Y-81460359D01*
X143275359Y-81307821D01*
X143399682Y-81136704D01*
X143455012Y-81094040D01*
X143524626Y-81088061D01*
X143586420Y-81120667D01*
X143600315Y-81136702D01*
X143724641Y-81307821D01*
X143877179Y-81460359D01*
X144051701Y-81587157D01*
X144243911Y-81685092D01*
X144449074Y-81751754D01*
X144516796Y-81762480D01*
X144662134Y-81785500D01*
X144662139Y-81785500D01*
X144877866Y-81785500D01*
X144996230Y-81766752D01*
X145090926Y-81751754D01*
X145296089Y-81685092D01*
X145488299Y-81587157D01*
X145662821Y-81460359D01*
X145815359Y-81307821D01*
X145939991Y-81136279D01*
X145995321Y-81093614D01*
X146064934Y-81087635D01*
X146126729Y-81120241D01*
X146140627Y-81136279D01*
X146265025Y-81307496D01*
X146265025Y-81307497D01*
X146417502Y-81459974D01*
X146591963Y-81586728D01*
X146784098Y-81684627D01*
X146989190Y-81751266D01*
X147060000Y-81762481D01*
X147060000Y-80732709D01*
X147080339Y-80744452D01*
X147231667Y-80785000D01*
X147388333Y-80785000D01*
X147539661Y-80744452D01*
X147560000Y-80732709D01*
X147560000Y-81762480D01*
X147630809Y-81751266D01*
X147835901Y-81684627D01*
X148028036Y-81586728D01*
X148202496Y-81459974D01*
X148202497Y-81459974D01*
X148354974Y-81307497D01*
X148354979Y-81307491D01*
X148479372Y-81136280D01*
X148534702Y-81093614D01*
X148604315Y-81087635D01*
X148666110Y-81120241D01*
X148680008Y-81136279D01*
X148804641Y-81307821D01*
X148957179Y-81460359D01*
X149131701Y-81587157D01*
X149323911Y-81685092D01*
X149529074Y-81751754D01*
X149596796Y-81762480D01*
X149742134Y-81785500D01*
X149742139Y-81785500D01*
X149957866Y-81785500D01*
X150076230Y-81766752D01*
X150170926Y-81751754D01*
X150376089Y-81685092D01*
X150568299Y-81587157D01*
X150742821Y-81460359D01*
X150895359Y-81307821D01*
X151019682Y-81136704D01*
X151075012Y-81094040D01*
X151144626Y-81088061D01*
X151206420Y-81120667D01*
X151220315Y-81136702D01*
X151344641Y-81307821D01*
X151497179Y-81460359D01*
X151671701Y-81587157D01*
X151863911Y-81685092D01*
X152069074Y-81751754D01*
X152136796Y-81762480D01*
X152282134Y-81785500D01*
X152282139Y-81785500D01*
X152497866Y-81785500D01*
X152616230Y-81766752D01*
X152710926Y-81751754D01*
X152916089Y-81685092D01*
X153108299Y-81587157D01*
X153282821Y-81460359D01*
X153435359Y-81307821D01*
X153559682Y-81136704D01*
X153615012Y-81094040D01*
X153684626Y-81088061D01*
X153746420Y-81120667D01*
X153760315Y-81136702D01*
X153884641Y-81307821D01*
X154037179Y-81460359D01*
X154211701Y-81587157D01*
X154403911Y-81685092D01*
X154609074Y-81751754D01*
X154676796Y-81762480D01*
X154822134Y-81785500D01*
X154822139Y-81785500D01*
X155037866Y-81785500D01*
X155156230Y-81766752D01*
X155250926Y-81751754D01*
X155456089Y-81685092D01*
X155648299Y-81587157D01*
X155822821Y-81460359D01*
X155975359Y-81307821D01*
X156102157Y-81133299D01*
X156200092Y-80941089D01*
X156266754Y-80735926D01*
X156281752Y-80641230D01*
X156300500Y-80522866D01*
X156300500Y-79857133D01*
X156266754Y-79644077D01*
X156266754Y-79644074D01*
X156200092Y-79438911D01*
X156102157Y-79246701D01*
X155975359Y-79072179D01*
X155822821Y-78919641D01*
X155648299Y-78792843D01*
X155648298Y-78792842D01*
X155648296Y-78792841D01*
X155598204Y-78767317D01*
X155587140Y-78756868D01*
X155573297Y-78750546D01*
X155562255Y-78733364D01*
X155547408Y-78719342D01*
X155543166Y-78703661D01*
X155535523Y-78691768D01*
X155530500Y-78656833D01*
X155530500Y-78469060D01*
X155530501Y-78469047D01*
X155530501Y-78300944D01*
X155524310Y-78277838D01*
X155489577Y-78148216D01*
X155471450Y-78116819D01*
X155410524Y-78011290D01*
X155410518Y-78011282D01*
X147397590Y-69998355D01*
X147397588Y-69998352D01*
X147278717Y-69879481D01*
X147278716Y-69879480D01*
X147172601Y-69818215D01*
X147172600Y-69818214D01*
X147141783Y-69800422D01*
X147085881Y-69785443D01*
X146989057Y-69759499D01*
X146830943Y-69759499D01*
X146823347Y-69759499D01*
X146823331Y-69759500D01*
X138652890Y-69759500D01*
X138585851Y-69739815D01*
X138565213Y-69723185D01*
X138486782Y-69644754D01*
X138486781Y-69644753D01*
X138486780Y-69644752D01*
X138347480Y-69551675D01*
X138192702Y-69487564D01*
X138192694Y-69487562D01*
X138028391Y-69454880D01*
X138028387Y-69454880D01*
X137860853Y-69454880D01*
X137860848Y-69454880D01*
X137696545Y-69487562D01*
X137696537Y-69487564D01*
X137541759Y-69551675D01*
X137402459Y-69644752D01*
X137324031Y-69723181D01*
X137283994Y-69763218D01*
X137283877Y-69763392D01*
X137283794Y-69763461D01*
X137280127Y-69767930D01*
X137279279Y-69767234D01*
X137277788Y-69768481D01*
X137274491Y-69775701D01*
X137251361Y-69790565D01*
X137230266Y-69808195D01*
X137220893Y-69810146D01*
X137215713Y-69813476D01*
X137180780Y-69818498D01*
X137180778Y-69818499D01*
X137059943Y-69818499D01*
X137059939Y-69818499D01*
X137052332Y-69818500D01*
X137052331Y-69818499D01*
X137052331Y-69818500D01*
X131092021Y-69818500D01*
X131024982Y-69798815D01*
X131013361Y-69790357D01*
X131012165Y-69789376D01*
X130872860Y-69696295D01*
X130718082Y-69632184D01*
X130718074Y-69632182D01*
X130553771Y-69599500D01*
X130553767Y-69599500D01*
X130386233Y-69599500D01*
X130386228Y-69599500D01*
X130221925Y-69632182D01*
X130221917Y-69632184D01*
X130067139Y-69696295D01*
X129927837Y-69789373D01*
X129809376Y-69907834D01*
X129809370Y-69907842D01*
X129799840Y-69922104D01*
X129746226Y-69966907D01*
X129676901Y-69975612D01*
X129627849Y-69956310D01*
X129619995Y-69951062D01*
X129612865Y-69946298D01*
X129612859Y-69946295D01*
X129458082Y-69882184D01*
X129458074Y-69882182D01*
X129293771Y-69849500D01*
X129293767Y-69849500D01*
X129126233Y-69849500D01*
X129126228Y-69849500D01*
X128961925Y-69882182D01*
X128961917Y-69882184D01*
X128807139Y-69946295D01*
X128667837Y-70039373D01*
X128549373Y-70157837D01*
X128456295Y-70297139D01*
X128392184Y-70451917D01*
X128392182Y-70451925D01*
X128359500Y-70616228D01*
X116176157Y-70616228D01*
X121485250Y-65307135D01*
X157424500Y-65307135D01*
X157424500Y-66532870D01*
X157424501Y-66532876D01*
X157430908Y-66592483D01*
X157481202Y-66727328D01*
X157481206Y-66727335D01*
X157567452Y-66842544D01*
X157567455Y-66842547D01*
X157682664Y-66928793D01*
X157682671Y-66928797D01*
X157817517Y-66979091D01*
X157817516Y-66979091D01*
X157824444Y-66979835D01*
X157877127Y-66985500D01*
X159102872Y-66985499D01*
X159162483Y-66979091D01*
X159297331Y-66928796D01*
X159412546Y-66842546D01*
X159498796Y-66727331D01*
X159549091Y-66592483D01*
X159555500Y-66532873D01*
X159555500Y-66024945D01*
X159964499Y-66024945D01*
X160005445Y-66230789D01*
X160005447Y-66230795D01*
X160085765Y-66424701D01*
X160202373Y-66599218D01*
X160350781Y-66747626D01*
X160525298Y-66864234D01*
X160622251Y-66904393D01*
X160719205Y-66944553D01*
X160719209Y-66944553D01*
X160719210Y-66944554D01*
X160925054Y-66985500D01*
X160925057Y-66985500D01*
X161134945Y-66985500D01*
X161273433Y-66957952D01*
X161340795Y-66944553D01*
X161534703Y-66864233D01*
X161709216Y-66747628D01*
X161857628Y-66599216D01*
X161974233Y-66424703D01*
X162054553Y-66230795D01*
X162087777Y-66063768D01*
X162095500Y-66024945D01*
X162504499Y-66024945D01*
X162545445Y-66230789D01*
X162545447Y-66230795D01*
X162625765Y-66424701D01*
X162742373Y-66599218D01*
X162890781Y-66747626D01*
X163065298Y-66864234D01*
X163162251Y-66904393D01*
X163259205Y-66944553D01*
X163259209Y-66944553D01*
X163259210Y-66944554D01*
X163465054Y-66985500D01*
X163465057Y-66985500D01*
X163674945Y-66985500D01*
X163813433Y-66957952D01*
X163880795Y-66944553D01*
X164074703Y-66864233D01*
X164249216Y-66747628D01*
X164269516Y-66727328D01*
X164301303Y-66695542D01*
X164397625Y-66599219D01*
X164397626Y-66599218D01*
X164397628Y-66599216D01*
X164514233Y-66424703D01*
X164594553Y-66230795D01*
X164627777Y-66063768D01*
X164635500Y-66024945D01*
X164635500Y-65815102D01*
X165045000Y-65815102D01*
X165045000Y-66024897D01*
X165085925Y-66230641D01*
X165085927Y-66230649D01*
X165166207Y-66424464D01*
X165200563Y-66475882D01*
X165745000Y-65931445D01*
X165745000Y-65968053D01*
X165769874Y-66060885D01*
X165817927Y-66144116D01*
X165885884Y-66212073D01*
X165969115Y-66260126D01*
X166061947Y-66285000D01*
X166098553Y-66285000D01*
X165554116Y-66829434D01*
X165554117Y-66829435D01*
X165605528Y-66863788D01*
X165605534Y-66863791D01*
X165799350Y-66944072D01*
X165799358Y-66944074D01*
X166005102Y-66984999D01*
X166005106Y-66985000D01*
X166214894Y-66985000D01*
X166214897Y-66984999D01*
X166420641Y-66944074D01*
X166420649Y-66944072D01*
X166614465Y-66863791D01*
X166614473Y-66863787D01*
X166665881Y-66829435D01*
X166665882Y-66829434D01*
X166121448Y-66285000D01*
X166158053Y-66285000D01*
X166250885Y-66260126D01*
X166334116Y-66212073D01*
X166402073Y-66144116D01*
X166450126Y-66060885D01*
X166475000Y-65968053D01*
X166475000Y-65931447D01*
X167019434Y-66475882D01*
X167019435Y-66475881D01*
X167053787Y-66424473D01*
X167053791Y-66424465D01*
X167134072Y-66230649D01*
X167134074Y-66230641D01*
X167174999Y-66024897D01*
X167175000Y-66024894D01*
X167175000Y-65815106D01*
X167174999Y-65815102D01*
X167134074Y-65609358D01*
X167134072Y-65609350D01*
X167053791Y-65415534D01*
X167053788Y-65415528D01*
X167019435Y-65364117D01*
X167019434Y-65364116D01*
X166475000Y-65908551D01*
X166475000Y-65871947D01*
X166450126Y-65779115D01*
X166402073Y-65695884D01*
X166334116Y-65627927D01*
X166250885Y-65579874D01*
X166158053Y-65555000D01*
X166121447Y-65555000D01*
X166665882Y-65010563D01*
X166614464Y-64976207D01*
X166420649Y-64895927D01*
X166420641Y-64895925D01*
X166214897Y-64855000D01*
X166005102Y-64855000D01*
X165799358Y-64895925D01*
X165799350Y-64895927D01*
X165605535Y-64976207D01*
X165605532Y-64976209D01*
X165554117Y-65010564D01*
X166098554Y-65555000D01*
X166061947Y-65555000D01*
X165969115Y-65579874D01*
X165885884Y-65627927D01*
X165817927Y-65695884D01*
X165769874Y-65779115D01*
X165745000Y-65871947D01*
X165745000Y-65908553D01*
X165200564Y-65364117D01*
X165166209Y-65415532D01*
X165166207Y-65415535D01*
X165085927Y-65609350D01*
X165085925Y-65609358D01*
X165045000Y-65815102D01*
X164635500Y-65815102D01*
X164635500Y-65815054D01*
X164594554Y-65609210D01*
X164594553Y-65609209D01*
X164594553Y-65609205D01*
X164523570Y-65437838D01*
X164514234Y-65415298D01*
X164397626Y-65240781D01*
X164249218Y-65092373D01*
X164074701Y-64975765D01*
X163880795Y-64895447D01*
X163880789Y-64895445D01*
X163674945Y-64854500D01*
X163674943Y-64854500D01*
X163465057Y-64854500D01*
X163465055Y-64854500D01*
X163259210Y-64895445D01*
X163259204Y-64895447D01*
X163065298Y-64975765D01*
X162890781Y-65092373D01*
X162742373Y-65240781D01*
X162625765Y-65415298D01*
X162545447Y-65609204D01*
X162545445Y-65609210D01*
X162504500Y-65815054D01*
X162504500Y-65815057D01*
X162504500Y-66024943D01*
X162504500Y-66024945D01*
X162504499Y-66024945D01*
X162095500Y-66024945D01*
X162095500Y-65815054D01*
X162054554Y-65609210D01*
X162054553Y-65609209D01*
X162054553Y-65609205D01*
X161983570Y-65437838D01*
X161974234Y-65415298D01*
X161857626Y-65240781D01*
X161709218Y-65092373D01*
X161534701Y-64975765D01*
X161340795Y-64895447D01*
X161340789Y-64895445D01*
X161134945Y-64854500D01*
X161134943Y-64854500D01*
X160925057Y-64854500D01*
X160925055Y-64854500D01*
X160719210Y-64895445D01*
X160719204Y-64895447D01*
X160525298Y-64975765D01*
X160350781Y-65092373D01*
X160202373Y-65240781D01*
X160085765Y-65415298D01*
X160005447Y-65609204D01*
X160005445Y-65609210D01*
X159964500Y-65815054D01*
X159964500Y-65815057D01*
X159964500Y-66024943D01*
X159964500Y-66024945D01*
X159964499Y-66024945D01*
X159555500Y-66024945D01*
X159555499Y-65307128D01*
X159549091Y-65247517D01*
X159498796Y-65112669D01*
X159498795Y-65112668D01*
X159498793Y-65112664D01*
X159412547Y-64997455D01*
X159412544Y-64997452D01*
X159297335Y-64911206D01*
X159297328Y-64911202D01*
X159162482Y-64860908D01*
X159162483Y-64860908D01*
X159102883Y-64854501D01*
X159102881Y-64854500D01*
X159102873Y-64854500D01*
X159102864Y-64854500D01*
X157877129Y-64854500D01*
X157877123Y-64854501D01*
X157817516Y-64860908D01*
X157682671Y-64911202D01*
X157682664Y-64911206D01*
X157567455Y-64997452D01*
X157567452Y-64997455D01*
X157481206Y-65112664D01*
X157481202Y-65112671D01*
X157430908Y-65247517D01*
X157430081Y-65255214D01*
X157424501Y-65307123D01*
X157424500Y-65307135D01*
X121485250Y-65307135D01*
X122706157Y-64086228D01*
X141369500Y-64086228D01*
X141369500Y-64253771D01*
X141402182Y-64418074D01*
X141402184Y-64418082D01*
X141466295Y-64572860D01*
X141559373Y-64712162D01*
X141677837Y-64830626D01*
X141770494Y-64892537D01*
X141817137Y-64923703D01*
X141971918Y-64987816D01*
X142136228Y-65020499D01*
X142136232Y-65020500D01*
X142136233Y-65020500D01*
X142303768Y-65020500D01*
X142303769Y-65020499D01*
X142468082Y-64987816D01*
X142622863Y-64923703D01*
X142762162Y-64830626D01*
X142880626Y-64712162D01*
X142973703Y-64572863D01*
X143037816Y-64418082D01*
X143070500Y-64253767D01*
X143070500Y-64086233D01*
X143037816Y-63921918D01*
X142973703Y-63767137D01*
X142897952Y-63653768D01*
X142880626Y-63627837D01*
X142762162Y-63509373D01*
X142622860Y-63416295D01*
X142468082Y-63352184D01*
X142468074Y-63352182D01*
X142303771Y-63319500D01*
X142303767Y-63319500D01*
X142136233Y-63319500D01*
X142136228Y-63319500D01*
X141971925Y-63352182D01*
X141971917Y-63352184D01*
X141817139Y-63416295D01*
X141677837Y-63509373D01*
X141559373Y-63627837D01*
X141466295Y-63767139D01*
X141402184Y-63921917D01*
X141402182Y-63921925D01*
X141369500Y-64086228D01*
X122706157Y-64086228D01*
X124828506Y-61963879D01*
X124828511Y-61963876D01*
X124838714Y-61953672D01*
X124838716Y-61953672D01*
X124950520Y-61841868D01*
X125014862Y-61730423D01*
X125029577Y-61704937D01*
X125070501Y-61552209D01*
X125070501Y-61394095D01*
X125070501Y-61386500D01*
X125070500Y-61386482D01*
X125070500Y-58084945D01*
X157424499Y-58084945D01*
X157465445Y-58290789D01*
X157465447Y-58290795D01*
X157545765Y-58484701D01*
X157662373Y-58659218D01*
X157810781Y-58807626D01*
X157985298Y-58924234D01*
X158082251Y-58964393D01*
X158179205Y-59004553D01*
X158179209Y-59004553D01*
X158179210Y-59004554D01*
X158385054Y-59045500D01*
X158385057Y-59045500D01*
X158594945Y-59045500D01*
X158733433Y-59017952D01*
X158800795Y-59004553D01*
X158994703Y-58924233D01*
X159169216Y-58807628D01*
X159317628Y-58659216D01*
X159434233Y-58484703D01*
X159514553Y-58290795D01*
X159541004Y-58157817D01*
X159555500Y-58084945D01*
X159964499Y-58084945D01*
X160005445Y-58290789D01*
X160005447Y-58290795D01*
X160085765Y-58484701D01*
X160202373Y-58659218D01*
X160350781Y-58807626D01*
X160525298Y-58924234D01*
X160622251Y-58964393D01*
X160719205Y-59004553D01*
X160719209Y-59004553D01*
X160719210Y-59004554D01*
X160925054Y-59045500D01*
X160925057Y-59045500D01*
X161134945Y-59045500D01*
X161273433Y-59017952D01*
X161340795Y-59004553D01*
X161534703Y-58924233D01*
X161709216Y-58807628D01*
X161857628Y-58659216D01*
X161974233Y-58484703D01*
X162054553Y-58290795D01*
X162081004Y-58157817D01*
X162095500Y-58084945D01*
X162504499Y-58084945D01*
X162545445Y-58290789D01*
X162545447Y-58290795D01*
X162625765Y-58484701D01*
X162742373Y-58659218D01*
X162890781Y-58807626D01*
X163065298Y-58924234D01*
X163162251Y-58964393D01*
X163259205Y-59004553D01*
X163259209Y-59004553D01*
X163259210Y-59004554D01*
X163465054Y-59045500D01*
X163465057Y-59045500D01*
X163674945Y-59045500D01*
X163813433Y-59017952D01*
X163880795Y-59004553D01*
X164074703Y-58924233D01*
X164249216Y-58807628D01*
X164397628Y-58659216D01*
X164514233Y-58484703D01*
X164594553Y-58290795D01*
X164621004Y-58157817D01*
X164635500Y-58084945D01*
X165044499Y-58084945D01*
X165085445Y-58290789D01*
X165085447Y-58290795D01*
X165165765Y-58484701D01*
X165282373Y-58659218D01*
X165430781Y-58807626D01*
X165605298Y-58924234D01*
X165702251Y-58964393D01*
X165799205Y-59004553D01*
X165799209Y-59004553D01*
X165799210Y-59004554D01*
X166005054Y-59045500D01*
X166005057Y-59045500D01*
X166214945Y-59045500D01*
X166353433Y-59017952D01*
X166420795Y-59004553D01*
X166614703Y-58924233D01*
X166789216Y-58807628D01*
X166937628Y-58659216D01*
X167054233Y-58484703D01*
X167134553Y-58290795D01*
X167161004Y-58157817D01*
X167175500Y-58084945D01*
X167175500Y-57875054D01*
X167134554Y-57669210D01*
X167134553Y-57669209D01*
X167134553Y-57669205D01*
X167055387Y-57478082D01*
X167054234Y-57475298D01*
X166937626Y-57300781D01*
X166789218Y-57152373D01*
X166614701Y-57035765D01*
X166420795Y-56955447D01*
X166420789Y-56955445D01*
X166214945Y-56914500D01*
X166214943Y-56914500D01*
X166005057Y-56914500D01*
X166005055Y-56914500D01*
X165799210Y-56955445D01*
X165799204Y-56955447D01*
X165605298Y-57035765D01*
X165430781Y-57152373D01*
X165282373Y-57300781D01*
X165165765Y-57475298D01*
X165085447Y-57669204D01*
X165085445Y-57669210D01*
X165044500Y-57875054D01*
X165044500Y-57875057D01*
X165044500Y-58084943D01*
X165044500Y-58084945D01*
X165044499Y-58084945D01*
X164635500Y-58084945D01*
X164635500Y-57875054D01*
X164594554Y-57669210D01*
X164594553Y-57669209D01*
X164594553Y-57669205D01*
X164515387Y-57478082D01*
X164514234Y-57475298D01*
X164397626Y-57300781D01*
X164249218Y-57152373D01*
X164074701Y-57035765D01*
X163880795Y-56955447D01*
X163880789Y-56955445D01*
X163674945Y-56914500D01*
X163674943Y-56914500D01*
X163465057Y-56914500D01*
X163465055Y-56914500D01*
X163259210Y-56955445D01*
X163259204Y-56955447D01*
X163065298Y-57035765D01*
X162890781Y-57152373D01*
X162742373Y-57300781D01*
X162625765Y-57475298D01*
X162545447Y-57669204D01*
X162545445Y-57669210D01*
X162504500Y-57875054D01*
X162504500Y-57875057D01*
X162504500Y-58084943D01*
X162504500Y-58084945D01*
X162504499Y-58084945D01*
X162095500Y-58084945D01*
X162095500Y-57875054D01*
X162054554Y-57669210D01*
X162054553Y-57669209D01*
X162054553Y-57669205D01*
X161975387Y-57478082D01*
X161974234Y-57475298D01*
X161857626Y-57300781D01*
X161709218Y-57152373D01*
X161534701Y-57035765D01*
X161340795Y-56955447D01*
X161340789Y-56955445D01*
X161134945Y-56914500D01*
X161134943Y-56914500D01*
X160925057Y-56914500D01*
X160925055Y-56914500D01*
X160719210Y-56955445D01*
X160719204Y-56955447D01*
X160525298Y-57035765D01*
X160350781Y-57152373D01*
X160202373Y-57300781D01*
X160085765Y-57475298D01*
X160005447Y-57669204D01*
X160005445Y-57669210D01*
X159964500Y-57875054D01*
X159964500Y-57875057D01*
X159964500Y-58084943D01*
X159964500Y-58084945D01*
X159964499Y-58084945D01*
X159555500Y-58084945D01*
X159555500Y-57875054D01*
X159514554Y-57669210D01*
X159514553Y-57669209D01*
X159514553Y-57669205D01*
X159435387Y-57478082D01*
X159434234Y-57475298D01*
X159317626Y-57300781D01*
X159169218Y-57152373D01*
X158994701Y-57035765D01*
X158800795Y-56955447D01*
X158800789Y-56955445D01*
X158594945Y-56914500D01*
X158594943Y-56914500D01*
X158385057Y-56914500D01*
X158385055Y-56914500D01*
X158179210Y-56955445D01*
X158179204Y-56955447D01*
X157985298Y-57035765D01*
X157810781Y-57152373D01*
X157662373Y-57300781D01*
X157545765Y-57475298D01*
X157465447Y-57669204D01*
X157465445Y-57669210D01*
X157424500Y-57875054D01*
X157424500Y-57875057D01*
X157424500Y-58084943D01*
X157424500Y-58084945D01*
X157424499Y-58084945D01*
X125070500Y-58084945D01*
X125070500Y-56633650D01*
X125090185Y-56566611D01*
X125106815Y-56545972D01*
X125130626Y-56522162D01*
X125223703Y-56382863D01*
X125287816Y-56228082D01*
X125320500Y-56063767D01*
X125320500Y-55896233D01*
X125287816Y-55731918D01*
X125223703Y-55577137D01*
X125164021Y-55487817D01*
X125130626Y-55437837D01*
X125012164Y-55319375D01*
X125004532Y-55314276D01*
X124959727Y-55260664D01*
X124951018Y-55191339D01*
X124981172Y-55128312D01*
X124985722Y-55123512D01*
X127332416Y-52776819D01*
X127393739Y-52743334D01*
X127420097Y-52740500D01*
X137796349Y-52740500D01*
X137863388Y-52760185D01*
X137884030Y-52776819D01*
X137897837Y-52790626D01*
X137990494Y-52852537D01*
X138037137Y-52883703D01*
X138191918Y-52947816D01*
X138356228Y-52980499D01*
X138356232Y-52980500D01*
X138356233Y-52980500D01*
X138523768Y-52980500D01*
X138523769Y-52980499D01*
X138688082Y-52947816D01*
X138842863Y-52883703D01*
X138982162Y-52790626D01*
X139100626Y-52672162D01*
X139193703Y-52532863D01*
X139257816Y-52378082D01*
X139290500Y-52213767D01*
X139290500Y-52046233D01*
X139257816Y-51881918D01*
X139193703Y-51727137D01*
X139148493Y-51659475D01*
X139100626Y-51587837D01*
X138982162Y-51469373D01*
X138842860Y-51376295D01*
X138688082Y-51312184D01*
X138688074Y-51312182D01*
X138523771Y-51279500D01*
X138523767Y-51279500D01*
X138356233Y-51279500D01*
X138356228Y-51279500D01*
X138191925Y-51312182D01*
X138191917Y-51312184D01*
X138037139Y-51376295D01*
X137897837Y-51469373D01*
X137897834Y-51469376D01*
X137864032Y-51503180D01*
X137802710Y-51536666D01*
X137776350Y-51539500D01*
X127040940Y-51539500D01*
X127000019Y-51550464D01*
X127000019Y-51550465D01*
X126962751Y-51560451D01*
X126888214Y-51580423D01*
X126888209Y-51580426D01*
X126751290Y-51659475D01*
X126751282Y-51659481D01*
X126639478Y-51771286D01*
X120376561Y-58034202D01*
X120315238Y-58067687D01*
X120245546Y-58062703D01*
X120189613Y-58020831D01*
X120185778Y-58015412D01*
X120140626Y-57947838D01*
X120140623Y-57947834D01*
X120022162Y-57829373D01*
X119882860Y-57736295D01*
X119728082Y-57672184D01*
X119728074Y-57672182D01*
X119563771Y-57639500D01*
X119563767Y-57639500D01*
X119396233Y-57639500D01*
X119396228Y-57639500D01*
X119231925Y-57672182D01*
X119231917Y-57672184D01*
X119077139Y-57736295D01*
X118937837Y-57829373D01*
X118819373Y-57947837D01*
X118726295Y-58087139D01*
X118662184Y-58241917D01*
X118662182Y-58241925D01*
X118629500Y-58406228D01*
X118629500Y-58573771D01*
X118662182Y-58738074D01*
X118662184Y-58738082D01*
X118726295Y-58892860D01*
X118819373Y-59032162D01*
X118937834Y-59150623D01*
X118937838Y-59150626D01*
X119005412Y-59195778D01*
X119050217Y-59249390D01*
X119058924Y-59318715D01*
X119028769Y-59381743D01*
X119024202Y-59386561D01*
X114376476Y-64034287D01*
X114315153Y-64067772D01*
X114245461Y-64062788D01*
X114189528Y-64020916D01*
X114165111Y-63955452D01*
X114174233Y-63899157D01*
X114207816Y-63818082D01*
X114240500Y-63653767D01*
X114240500Y-63486233D01*
X114207816Y-63321918D01*
X114143703Y-63167137D01*
X114083339Y-63076796D01*
X114050626Y-63027837D01*
X113932162Y-62909373D01*
X113792860Y-62816295D01*
X113638082Y-62752184D01*
X113638074Y-62752182D01*
X113473771Y-62719500D01*
X113473767Y-62719500D01*
X113306233Y-62719500D01*
X113306228Y-62719500D01*
X113141925Y-62752182D01*
X113141917Y-62752184D01*
X112987139Y-62816295D01*
X112847837Y-62909373D01*
X112729373Y-63027837D01*
X112636295Y-63167139D01*
X112572184Y-63321917D01*
X112572182Y-63321925D01*
X112539500Y-63486228D01*
X112539500Y-63653771D01*
X112572182Y-63818074D01*
X112572184Y-63818082D01*
X112636295Y-63972860D01*
X112729373Y-64112162D01*
X112847837Y-64230626D01*
X112940494Y-64292537D01*
X112987137Y-64323703D01*
X113141918Y-64387816D01*
X113294037Y-64418074D01*
X113306228Y-64420499D01*
X113306232Y-64420500D01*
X113306233Y-64420500D01*
X113473768Y-64420500D01*
X113473769Y-64420499D01*
X113638082Y-64387816D01*
X113719156Y-64354233D01*
X113788621Y-64346765D01*
X113851101Y-64378039D01*
X113886754Y-64438128D01*
X113884261Y-64507953D01*
X113854287Y-64556476D01*
X104782016Y-73628747D01*
X104720693Y-73662232D01*
X104651001Y-73657248D01*
X104595068Y-73615376D01*
X104584982Y-73599529D01*
X104583705Y-73597140D01*
X104490626Y-73457837D01*
X104372162Y-73339373D01*
X104232860Y-73246295D01*
X104078082Y-73182184D01*
X104078074Y-73182182D01*
X103913771Y-73149500D01*
X103913767Y-73149500D01*
X103869297Y-73149500D01*
X103853809Y-73145350D01*
X103840063Y-73146005D01*
X103807297Y-73132887D01*
X103694548Y-73067792D01*
X103694546Y-73067791D01*
X103681785Y-73060423D01*
X103529057Y-73019499D01*
X103370943Y-73019499D01*
X103363347Y-73019499D01*
X103363331Y-73019500D01*
X98919903Y-73019500D01*
X98852864Y-72999815D01*
X98807109Y-72947011D01*
X98797165Y-72877853D01*
X98798286Y-72871309D01*
X98811670Y-72804018D01*
X98811671Y-72804015D01*
X98811671Y-72636479D01*
X98811670Y-72636475D01*
X98778988Y-72472172D01*
X98778987Y-72472165D01*
X98714874Y-72317384D01*
X98673760Y-72255853D01*
X98621797Y-72178084D01*
X98576819Y-72133106D01*
X98543334Y-72071783D01*
X98540500Y-72045425D01*
X98540500Y-67030097D01*
X98549144Y-67000656D01*
X98555668Y-66970670D01*
X98559422Y-66965654D01*
X98560185Y-66963058D01*
X98576819Y-66942416D01*
X98652416Y-66866819D01*
X98713739Y-66833334D01*
X98740097Y-66830500D01*
X98773768Y-66830500D01*
X98773769Y-66830499D01*
X98938082Y-66797816D01*
X99092863Y-66733703D01*
X99232162Y-66640626D01*
X99350626Y-66522162D01*
X99443703Y-66382863D01*
X99507816Y-66228082D01*
X99540500Y-66063767D01*
X99540500Y-65896233D01*
X99507816Y-65731918D01*
X99443703Y-65577137D01*
X99412537Y-65530494D01*
X99350626Y-65437837D01*
X99343365Y-65430576D01*
X99309880Y-65369253D01*
X99314864Y-65299561D01*
X99343363Y-65255216D01*
X109291762Y-55306819D01*
X109353085Y-55273334D01*
X109379443Y-55270500D01*
X120146349Y-55270500D01*
X120213388Y-55290185D01*
X120234030Y-55306819D01*
X120257837Y-55330626D01*
X120350494Y-55392537D01*
X120397137Y-55423703D01*
X120551918Y-55487816D01*
X120716228Y-55520499D01*
X120716232Y-55520500D01*
X120716233Y-55520500D01*
X120883768Y-55520500D01*
X120883769Y-55520499D01*
X121048082Y-55487816D01*
X121202863Y-55423703D01*
X121342162Y-55330626D01*
X121460626Y-55212162D01*
X121553703Y-55072863D01*
X121617816Y-54918082D01*
X121650500Y-54753767D01*
X121650500Y-54586233D01*
X121617816Y-54421918D01*
X121553703Y-54267137D01*
X121460627Y-54127839D01*
X121460626Y-54127837D01*
X121342162Y-54009373D01*
X121202860Y-53916295D01*
X121048082Y-53852184D01*
X121048074Y-53852182D01*
X120883771Y-53819500D01*
X120883767Y-53819500D01*
X120716233Y-53819500D01*
X120716228Y-53819500D01*
X120551925Y-53852182D01*
X120551917Y-53852184D01*
X120397139Y-53916295D01*
X120257837Y-54009373D01*
X120257834Y-54009376D01*
X120234030Y-54033181D01*
X120172707Y-54066666D01*
X120146349Y-54069500D01*
X109158403Y-54069500D01*
X109000288Y-54069500D01*
X108847561Y-54110423D01*
X108823771Y-54124158D01*
X108817396Y-54127839D01*
X108817395Y-54127838D01*
X108710633Y-54189477D01*
X108710628Y-54189481D01*
X96349481Y-66550628D01*
X96349479Y-66550631D01*
X96299361Y-66637440D01*
X96299359Y-66637442D01*
X96270425Y-66687555D01*
X96270424Y-66687556D01*
X96270423Y-66687561D01*
X96229499Y-66840289D01*
X96229499Y-66840291D01*
X96229499Y-67008392D01*
X96229500Y-67008405D01*
X96229500Y-69749903D01*
X96209815Y-69816942D01*
X96193181Y-69837584D01*
X91917584Y-74113181D01*
X91856261Y-74146666D01*
X91829903Y-74149500D01*
X91796228Y-74149500D01*
X91631925Y-74182182D01*
X91631917Y-74182184D01*
X91477139Y-74246295D01*
X91337837Y-74339373D01*
X91219374Y-74457836D01*
X91186015Y-74507761D01*
X91132402Y-74552565D01*
X91063077Y-74561271D01*
X91058728Y-74560486D01*
X91053772Y-74559500D01*
X91053767Y-74559500D01*
X90886233Y-74559500D01*
X90886228Y-74559500D01*
X90721925Y-74592182D01*
X90721917Y-74592184D01*
X90567137Y-74656296D01*
X90559107Y-74661662D01*
X90492429Y-74682538D01*
X90442767Y-74673119D01*
X90368086Y-74642185D01*
X90368074Y-74642182D01*
X90203771Y-74609500D01*
X90203767Y-74609500D01*
X90036233Y-74609500D01*
X90036228Y-74609500D01*
X89871925Y-74642182D01*
X89871917Y-74642184D01*
X89717139Y-74706295D01*
X89577837Y-74799373D01*
X89459373Y-74917837D01*
X89366295Y-75057139D01*
X89302184Y-75211917D01*
X89302182Y-75211925D01*
X89269500Y-75376228D01*
X85840000Y-75376228D01*
X85840000Y-57256228D01*
X95379500Y-57256228D01*
X95379500Y-57423771D01*
X95412182Y-57588074D01*
X95412184Y-57588082D01*
X95476295Y-57742860D01*
X95569373Y-57882162D01*
X95687837Y-58000626D01*
X95780494Y-58062537D01*
X95827137Y-58093703D01*
X95981918Y-58157816D01*
X96146228Y-58190499D01*
X96146232Y-58190500D01*
X96146233Y-58190500D01*
X96313768Y-58190500D01*
X96313769Y-58190499D01*
X96478082Y-58157816D01*
X96632863Y-58093703D01*
X96772162Y-58000626D01*
X96890626Y-57882162D01*
X96983703Y-57742863D01*
X97047816Y-57588082D01*
X97076031Y-57446233D01*
X97076032Y-57446228D01*
X99339500Y-57446228D01*
X99339500Y-57613771D01*
X99372182Y-57778074D01*
X99372184Y-57778082D01*
X99436295Y-57932860D01*
X99529373Y-58072162D01*
X99647837Y-58190626D01*
X99724612Y-58241925D01*
X99787137Y-58283703D01*
X99941918Y-58347816D01*
X100106228Y-58380499D01*
X100106232Y-58380500D01*
X100106233Y-58380500D01*
X100273768Y-58380500D01*
X100273769Y-58380499D01*
X100438082Y-58347816D01*
X100592863Y-58283703D01*
X100732162Y-58190626D01*
X100850626Y-58072162D01*
X100943703Y-57932863D01*
X101007816Y-57778082D01*
X101040500Y-57613767D01*
X101040500Y-57446233D01*
X101007816Y-57281918D01*
X100954156Y-57152372D01*
X100943704Y-57127139D01*
X100850626Y-56987837D01*
X100732162Y-56869373D01*
X100592860Y-56776295D01*
X100438082Y-56712184D01*
X100438074Y-56712182D01*
X100273771Y-56679500D01*
X100273767Y-56679500D01*
X100106233Y-56679500D01*
X100106228Y-56679500D01*
X99941925Y-56712182D01*
X99941917Y-56712184D01*
X99787139Y-56776295D01*
X99647837Y-56869373D01*
X99529373Y-56987837D01*
X99436295Y-57127139D01*
X99372184Y-57281917D01*
X99372182Y-57281925D01*
X99339500Y-57446228D01*
X97076032Y-57446228D01*
X97080498Y-57423778D01*
X97080499Y-57423771D01*
X97080500Y-57423767D01*
X97080500Y-57256233D01*
X97047816Y-57091918D01*
X96991287Y-56955447D01*
X96983704Y-56937139D01*
X96890626Y-56797837D01*
X96772162Y-56679373D01*
X96632860Y-56586295D01*
X96478082Y-56522184D01*
X96478074Y-56522182D01*
X96313771Y-56489500D01*
X96313767Y-56489500D01*
X96146233Y-56489500D01*
X96146228Y-56489500D01*
X95981925Y-56522182D01*
X95981917Y-56522184D01*
X95827139Y-56586295D01*
X95687837Y-56679373D01*
X95569373Y-56797837D01*
X95476295Y-56937139D01*
X95412184Y-57091917D01*
X95412182Y-57091925D01*
X95379500Y-57256228D01*
X85840000Y-57256228D01*
X85840000Y-51116228D01*
X91949500Y-51116228D01*
X91949500Y-51283771D01*
X91982182Y-51448074D01*
X91982184Y-51448082D01*
X92046295Y-51602860D01*
X92139373Y-51742162D01*
X92257837Y-51860626D01*
X92343430Y-51917817D01*
X92397137Y-51953703D01*
X92551918Y-52017816D01*
X92694756Y-52046228D01*
X92716228Y-52050499D01*
X92716232Y-52050500D01*
X92716233Y-52050500D01*
X92883768Y-52050500D01*
X92883769Y-52050499D01*
X93048082Y-52017816D01*
X93202863Y-51953703D01*
X93342162Y-51860626D01*
X93460626Y-51742162D01*
X93553703Y-51602863D01*
X93617816Y-51448082D01*
X93650500Y-51283767D01*
X93650500Y-51116233D01*
X93634209Y-51034331D01*
X93634209Y-51034328D01*
X93630609Y-51016228D01*
X107359500Y-51016228D01*
X107359500Y-51183771D01*
X107392182Y-51348074D01*
X107392184Y-51348082D01*
X107456295Y-51502860D01*
X107549373Y-51642162D01*
X107667837Y-51760626D01*
X107760494Y-51822537D01*
X107807137Y-51853703D01*
X107961918Y-51917816D01*
X108126228Y-51950499D01*
X108126232Y-51950500D01*
X108126233Y-51950500D01*
X108293768Y-51950500D01*
X108293769Y-51950499D01*
X108458082Y-51917816D01*
X108612863Y-51853703D01*
X108752162Y-51760626D01*
X108870626Y-51642162D01*
X108963703Y-51502863D01*
X109027816Y-51348082D01*
X109060500Y-51183767D01*
X109060500Y-51016233D01*
X109027816Y-50851918D01*
X108963703Y-50697137D01*
X108932537Y-50650494D01*
X108870626Y-50557837D01*
X108752162Y-50439373D01*
X108612860Y-50346295D01*
X108458082Y-50282184D01*
X108458074Y-50282182D01*
X108293771Y-50249500D01*
X108293767Y-50249500D01*
X108126233Y-50249500D01*
X108126228Y-50249500D01*
X107961925Y-50282182D01*
X107961917Y-50282184D01*
X107807139Y-50346295D01*
X107667837Y-50439373D01*
X107549373Y-50557837D01*
X107456295Y-50697139D01*
X107392184Y-50851917D01*
X107392182Y-50851925D01*
X107359500Y-51016228D01*
X93630609Y-51016228D01*
X93617817Y-50951923D01*
X93617816Y-50951922D01*
X93617816Y-50951918D01*
X93553703Y-50797137D01*
X93522537Y-50750494D01*
X93460626Y-50657837D01*
X93342162Y-50539373D01*
X93202860Y-50446295D01*
X93048082Y-50382184D01*
X93048074Y-50382182D01*
X92883771Y-50349500D01*
X92883767Y-50349500D01*
X92716233Y-50349500D01*
X92716228Y-50349500D01*
X92551925Y-50382182D01*
X92551917Y-50382184D01*
X92397139Y-50446295D01*
X92257837Y-50539373D01*
X92139373Y-50657837D01*
X92046295Y-50797139D01*
X91982184Y-50951917D01*
X91982182Y-50951925D01*
X91949500Y-51116228D01*
X85840000Y-51116228D01*
X85840000Y-49229234D01*
X96674500Y-49229234D01*
X96674500Y-49380765D01*
X96713719Y-49527136D01*
X96740928Y-49574263D01*
X96789485Y-49658365D01*
X96896635Y-49765515D01*
X97010281Y-49831129D01*
X97025488Y-49839909D01*
X97027865Y-49841281D01*
X97174234Y-49880500D01*
X97174236Y-49880500D01*
X97325764Y-49880500D01*
X97325766Y-49880500D01*
X97472135Y-49841281D01*
X97603365Y-49765515D01*
X97710515Y-49658365D01*
X97786281Y-49527135D01*
X97825500Y-49380766D01*
X97825500Y-49229234D01*
X102454500Y-49229234D01*
X102454500Y-49380765D01*
X102493719Y-49527136D01*
X102520928Y-49574263D01*
X102569485Y-49658365D01*
X102676635Y-49765515D01*
X102790281Y-49831129D01*
X102805488Y-49839909D01*
X102807865Y-49841281D01*
X102954234Y-49880500D01*
X102954236Y-49880500D01*
X103105764Y-49880500D01*
X103105766Y-49880500D01*
X103252135Y-49841281D01*
X103383365Y-49765515D01*
X103490515Y-49658365D01*
X103566281Y-49527135D01*
X103605500Y-49380766D01*
X103605500Y-49229234D01*
X103566281Y-49082865D01*
X103490515Y-48951635D01*
X103383365Y-48844485D01*
X103272028Y-48780204D01*
X103252136Y-48768719D01*
X103178950Y-48749109D01*
X103105766Y-48729500D01*
X102954234Y-48729500D01*
X102807863Y-48768719D01*
X102676635Y-48844485D01*
X102676632Y-48844487D01*
X102569487Y-48951632D01*
X102569485Y-48951635D01*
X102493719Y-49082863D01*
X102454500Y-49229234D01*
X97825500Y-49229234D01*
X97786281Y-49082865D01*
X97710515Y-48951635D01*
X97603365Y-48844485D01*
X97492028Y-48780204D01*
X97472136Y-48768719D01*
X97398950Y-48749109D01*
X97325766Y-48729500D01*
X97174234Y-48729500D01*
X97027863Y-48768719D01*
X96896635Y-48844485D01*
X96896632Y-48844487D01*
X96789487Y-48951632D01*
X96789485Y-48951635D01*
X96713719Y-49082863D01*
X96674500Y-49229234D01*
X85840000Y-49229234D01*
X85840000Y-42943940D01*
X85859685Y-42876901D01*
X85912489Y-42831146D01*
X85963938Y-42819940D01*
X106515942Y-42810059D01*
X106582989Y-42829711D01*
G37*
%TD.AperFunction*%
%TD*%
M02*
