%TF.GenerationSoftware,KiCad,Pcbnew,9.0.7*%
%TF.CreationDate,2026-04-14T10:45:30-03:00*%
%TF.ProjectId,mini-vehiculo-exploracion-pcb,6d696e69-2d76-4656-9869-63756c6f2d65,rev?*%
%TF.SameCoordinates,Original*%
%TF.FileFunction,Soldermask,Bot*%
%TF.FilePolarity,Negative*%
%FSLAX46Y46*%
G04 Gerber Fmt 4.6, Leading zero omitted, Abs format (unit mm)*
G04 Created by KiCad (PCBNEW 9.0.7) date 2026-04-14 10:45:30*
%MOMM*%
%LPD*%
G01*
G04 APERTURE LIST*
G04 Aperture macros list*
%AMRoundRect*
0 Rectangle with rounded corners*
0 $1 Rounding radius*
0 $2 $3 $4 $5 $6 $7 $8 $9 X,Y pos of 4 corners*
0 Add a 4 corners polygon primitive as box body*
4,1,4,$2,$3,$4,$5,$6,$7,$8,$9,$2,$3,0*
0 Add four circle primitives for the rounded corners*
1,1,$1+$1,$2,$3*
1,1,$1+$1,$4,$5*
1,1,$1+$1,$6,$7*
1,1,$1+$1,$8,$9*
0 Add four rect primitives between the rounded corners*
20,1,$1+$1,$2,$3,$4,$5,0*
20,1,$1+$1,$4,$5,$6,$7,0*
20,1,$1+$1,$6,$7,$8,$9,0*
20,1,$1+$1,$8,$9,$2,$3,0*%
G04 Aperture macros list end*
%ADD10R,1.700000X1.700000*%
%ADD11C,1.700000*%
%ADD12C,0.800000*%
%ADD13C,6.400000*%
%ADD14O,1.740000X2.190000*%
%ADD15C,0.650000*%
%ADD16C,1.100000*%
%ADD17RoundRect,0.249999X-0.850001X-0.850001X0.850001X-0.850001X0.850001X0.850001X-0.850001X0.850001X0*%
%ADD18C,2.200000*%
%ADD19R,1.130000X1.130000*%
%ADD20C,1.130000*%
G04 APERTURE END LIST*
D10*
%TO.C,AUX1*%
X138330000Y-96005000D03*
D11*
X140870000Y-96005000D03*
X143410000Y-96005000D03*
%TD*%
D12*
%TO.C,H2*%
X169482944Y-46312944D03*
X170185888Y-44615888D03*
X170185888Y-48010000D03*
X171882944Y-43912944D03*
D13*
X171882944Y-46312944D03*
D12*
X171882944Y-48712944D03*
X173580000Y-44615888D03*
X173580000Y-48010000D03*
X174282944Y-46312944D03*
%TD*%
%TO.C,H1*%
X87232944Y-46312944D03*
X87935888Y-44615888D03*
X87935888Y-48010000D03*
X89632944Y-43912944D03*
D13*
X89632944Y-46312944D03*
D12*
X89632944Y-48712944D03*
X91330000Y-44615888D03*
X91330000Y-48010000D03*
X92032944Y-46312944D03*
%TD*%
D10*
%TO.C,MOTORES1*%
X168400000Y-96055000D03*
D11*
X165860000Y-96055000D03*
%TD*%
D10*
%TO.C,RC1*%
X155650000Y-96055000D03*
D11*
X153110000Y-96055000D03*
X150570000Y-96055000D03*
X148030000Y-96055000D03*
%TD*%
D10*
%TO.C,DRDE1*%
X155650000Y-88560000D03*
D11*
X153110000Y-88560000D03*
X150570000Y-88560000D03*
X148030000Y-88560000D03*
%TD*%
D12*
%TO.C,H4*%
X87232944Y-104080000D03*
X87935888Y-102382944D03*
X87935888Y-105777056D03*
X89632944Y-101680000D03*
D13*
X89632944Y-104080000D03*
D12*
X89632944Y-106480000D03*
X91330000Y-102382944D03*
X91330000Y-105777056D03*
X92032944Y-104080000D03*
%TD*%
D14*
%TO.C,J1*%
X137150000Y-80190000D03*
X139690000Y-80190000D03*
X142230000Y-80190000D03*
X144770000Y-80190000D03*
X147310000Y-80190000D03*
X149850000Y-80190000D03*
X152390000Y-80190000D03*
X154930000Y-80190000D03*
%TD*%
D10*
%TO.C,DRIZ1*%
X135780000Y-88510000D03*
D11*
X138320000Y-88510000D03*
X140860000Y-88510000D03*
X143400000Y-88510000D03*
%TD*%
D12*
%TO.C,H3*%
X169482944Y-104080000D03*
X170185888Y-102382944D03*
X170185888Y-105777056D03*
X171882944Y-101680000D03*
D13*
X171882944Y-104080000D03*
D12*
X171882944Y-106480000D03*
X173580000Y-102382944D03*
X173580000Y-105777056D03*
X174282944Y-104080000D03*
%TD*%
D10*
%TO.C,J8*%
X169675000Y-88560000D03*
D11*
X167135000Y-88560000D03*
X164595000Y-88560000D03*
%TD*%
D15*
%TO.C,J3*%
X103030000Y-49305000D03*
X97250000Y-49305000D03*
%TD*%
D16*
%TO.C,BATER\u00CDA1*%
X97792500Y-105990625D03*
X100332500Y-105990625D03*
D17*
X97792500Y-103450625D03*
D18*
X100332500Y-103450625D03*
%TD*%
D19*
%TO.C,U3*%
X158490000Y-65920000D03*
D20*
X161030000Y-65920000D03*
X163570000Y-65920000D03*
X166110000Y-65920000D03*
X166110000Y-57980000D03*
X163570000Y-57980000D03*
X161030000Y-57980000D03*
X158490000Y-57980000D03*
%TD*%
M02*
