M48
; DRILL file {KiCad 9.0.7} date 2026-04-23T16:03:11-0300
; FORMAT={-:-/ absolute / metric / decimal}
; #@! TF.CreationDate,2026-04-23T16:03:11-03:00
; #@! TF.GenerationSoftware,Kicad,Pcbnew,9.0.7
; #@! TF.FileFunction,Plated,1,4,PTH
FMAT,2
METRIC
; #@! TA.AperFunction,Plated,PTH,ViaDrill
T1C0.300
; #@! TA.AperFunction,Plated,PTH,ComponentDrill
T2C0.300
; #@! TA.AperFunction,Plated,PTH,ComponentDrill
T3C0.500
; #@! TA.AperFunction,Plated,PTH,ComponentDrill
T4C0.730
; #@! TA.AperFunction,Plated,PTH,ComponentDrill
T5C1.000
; #@! TA.AperFunction,Plated,PTH,ComponentDrill
T6C1.100
; #@! TA.AperFunction,Plated,PTH,ComponentDrill
T7C1.190
; #@! TA.AperFunction,Plated,PTH,ComponentDrill
T8C3.200
%
G90
G05
T1
X87.2Y-81.9
X87.2Y-84.0
X87.26Y-91.65
X87.412Y-90.688
X87.8Y-96.86
X87.8Y-99.4
X89.0Y-51.64
X89.0Y-54.18
X89.0Y-57.35
X89.0Y-59.6
X89.0Y-61.8
X89.89Y-67.95
X90.0Y-84.0
X90.1Y-81.9
X90.124Y-80.676
X90.3Y-75.4
X90.95Y-50.55
X91.0Y-96.86
X91.0Y-99.4
X91.02Y-71.9
X91.2Y-68.0
X91.87Y-72.4
X91.88Y-75.0
X91.9Y-75.97
X92.13Y-57.45
X92.2Y-59.6
X92.2Y-61.8
X92.47Y-70.57
X92.67Y-88.78
X92.8Y-51.2
X94.12Y-74.3
X94.26Y-75.57
X94.4Y-96.86
X94.4Y-99.4
X94.4Y-102.06
X94.4Y-104.6
X94.65Y-53.0
X94.96Y-74.97
X95.05Y-57.47
X95.4Y-62.0
X95.8Y-67.4
X96.23Y-57.15
X96.29Y-66.19
X96.4Y-86.35
X96.4Y-87.5
X96.9Y-78.8
X97.015Y-70.785
X97.85Y-68.95
X98.0Y-62.0
X98.05Y-93.44
X98.2Y-81.8
X98.3Y-79.65
X98.3Y-95.5
X98.63Y-91.42
X99.9Y-78.6
X99.95Y-68.95
X100.0Y-81.8
X100.0Y-95.5
X100.19Y-57.53
X100.67Y-77.48
X100.8Y-90.66
X100.8Y-93.2
X101.4Y-75.33
X102.75Y-57.95
X104.0Y-76.4
X104.2Y-90.66
X104.2Y-93.2
X108.21Y-51.1
X109.35Y-51.06
X111.07Y-58.12
X113.2Y-77.06
X113.2Y-79.6
X113.39Y-63.57
X113.75Y-62.53
X114.0Y-93.25
X114.6Y-91.15
X116.2Y-77.06
X116.2Y-79.6
X116.4Y-88.26
X116.41Y-93.32
X116.65Y-90.6
X118.2Y-84.45
X118.4Y-86.86
X118.815Y-61.865
X118.84Y-90.83
X119.2Y-57.45
X119.3Y-84.45
X119.48Y-58.49
X119.55Y-98.33
X119.658Y-64.798
X119.9Y-100.2
X120.58Y-59.75
X120.58Y-61.01
X120.75Y-50.55
X120.75Y-63.56
X120.76Y-62.29
X120.8Y-54.67
X120.85Y-56.95
X121.0Y-68.65
X123.06Y-100.96
X123.81Y-57.23
X124.47Y-55.98
X125.55Y-59.1
X125.65Y-57.5
X125.95Y-56.15
X127.3Y-100.1
X127.6Y-82.05
X128.1Y-76.3
X129.21Y-70.7
X129.31Y-71.84
X130.47Y-70.45
X130.9Y-78.55
X131.3Y-83.35
X131.75Y-71.07
X131.781Y-71.969
X132.5Y-94.5
X133.4Y-102.66
X133.4Y-105.2
X133.713Y-71.72
X137.945Y-70.305
X138.44Y-52.13
X139.55Y-69.65
X140.26Y-72.34
X142.22Y-64.17
X142.25Y-62.85
X142.29Y-60.96
X143.0Y-59.75
X143.46Y-55.94
X145.25Y-52.75
X145.25Y-54.61
X145.8Y-56.4
X147.65Y-60.34
X149.85Y-85.5
X149.95Y-59.9
X152.22Y-60.08
X152.94Y-74.33
X154.35Y-56.45
X155.65Y-98.5
X155.9Y-55.0
X157.0Y-72.15
X157.5Y-98.5
X158.0Y-44.86
X158.0Y-47.4
X159.05Y-78.5
X159.2Y-93.26
X159.2Y-95.8
X160.6Y-74.6
X161.2Y-44.86
X161.2Y-47.4
X161.25Y-77.65
X162.0Y-93.26
X162.0Y-95.8
X162.85Y-71.95
X164.2Y-75.25
X164.8Y-44.86
X164.8Y-47.4
X165.2Y-103.26
X165.2Y-105.8
X165.25Y-71.95
X168.1Y-72.0
X171.0Y-53.06
X171.0Y-55.6
X171.8Y-71.4
X172.0Y-84.6
X172.4Y-78.4
X173.0Y-86.6
X173.6Y-53.06
X173.6Y-55.6
T2
X128.21Y-57.88
X128.21Y-59.28
X128.91Y-57.18
X128.91Y-58.58
X128.91Y-59.98
X129.61Y-57.88
X129.61Y-59.28
X130.31Y-57.18
X130.31Y-58.58
X130.31Y-59.98
X131.01Y-57.88
X131.01Y-59.28
T3
X87.233Y-46.313
X87.233Y-104.08
X87.936Y-44.616
X87.936Y-48.01
X87.936Y-102.383
X87.936Y-105.777
X89.633Y-43.913
X89.633Y-48.713
X89.633Y-101.68
X89.633Y-106.48
X91.33Y-44.616
X91.33Y-48.01
X91.33Y-102.383
X91.33Y-105.777
X92.033Y-46.313
X92.033Y-104.08
X169.483Y-46.313
X169.483Y-104.08
X170.186Y-44.616
X170.186Y-48.01
X170.186Y-102.383
X170.186Y-105.777
X171.883Y-43.913
X171.883Y-48.713
X171.883Y-101.68
X171.883Y-106.48
X173.58Y-44.616
X173.58Y-48.01
X173.58Y-102.383
X173.58Y-105.777
X174.283Y-46.313
X174.283Y-104.08
T4
X158.49Y-57.98
X158.49Y-65.92
X161.03Y-57.98
X161.03Y-65.92
X163.57Y-57.98
X163.57Y-65.92
X166.11Y-57.98
X166.11Y-65.92
T5
X135.78Y-88.51
X138.32Y-88.51
X138.33Y-96.005
X140.86Y-88.51
X140.87Y-96.005
X143.4Y-88.51
X143.41Y-96.005
X148.03Y-88.56
X148.03Y-96.055
X150.57Y-88.56
X150.57Y-96.055
X153.11Y-88.56
X153.11Y-96.055
X155.65Y-88.56
X155.65Y-96.055
X164.595Y-88.56
X165.86Y-96.055
X167.135Y-88.56
X168.4Y-96.055
X169.675Y-88.56
T6
X97.792Y-103.451
X100.332Y-103.451
T7
X137.15Y-80.19
X139.69Y-80.19
X142.23Y-80.19
X144.77Y-80.19
X147.31Y-80.19
X149.85Y-80.19
X152.39Y-80.19
X154.93Y-80.19
T8
X89.633Y-46.313
X89.633Y-104.08
X171.883Y-46.313
X171.883Y-104.08
M30
