%TF.GenerationSoftware,KiCad,Pcbnew,9.0.7*%
%TF.CreationDate,2026-04-23T15:57:12-03:00*%
%TF.ProjectId,drivers-mini-vehiculo-pcb,64726976-6572-4732-9d6d-696e692d7665,rev?*%
%TF.SameCoordinates,Original*%
%TF.FileFunction,Soldermask,Bot*%
%TF.FilePolarity,Negative*%
%FSLAX46Y46*%
G04 Gerber Fmt 4.6, Leading zero omitted, Abs format (unit mm)*
G04 Created by KiCad (PCBNEW 9.0.7) date 2026-04-23 15:57:12*
%MOMM*%
%LPD*%
G01*
G04 APERTURE LIST*
G04 Aperture macros list*
%AMRoundRect*
0 Rectangle with rounded corners*
0 $1 Rounding radius*
0 $2 $3 $4 $5 $6 $7 $8 $9 X,Y pos of 4 corners*
0 Add a 4 corners polygon primitive as box body*
4,1,4,$2,$3,$4,$5,$6,$7,$8,$9,$2,$3,0*
0 Add four circle primitives for the rounded corners*
1,1,$1+$1,$2,$3*
1,1,$1+$1,$4,$5*
1,1,$1+$1,$6,$7*
1,1,$1+$1,$8,$9*
0 Add four rect primitives between the rounded corners*
20,1,$1+$1,$2,$3,$4,$5,0*
20,1,$1+$1,$4,$5,$6,$7,0*
20,1,$1+$1,$6,$7,$8,$9,0*
20,1,$1+$1,$8,$9,$2,$3,0*%
G04 Aperture macros list end*
%ADD10C,0.800000*%
%ADD11C,6.400000*%
%ADD12R,1.700000X1.700000*%
%ADD13C,1.700000*%
%ADD14C,1.100000*%
%ADD15RoundRect,0.249999X-0.850001X0.850001X-0.850001X-0.850001X0.850001X-0.850001X0.850001X0.850001X0*%
%ADD16C,2.200000*%
%ADD17RoundRect,0.249999X-0.850001X-0.850001X0.850001X-0.850001X0.850001X0.850001X-0.850001X0.850001X0*%
%ADD18R,1.230000X1.230000*%
%ADD19C,1.230000*%
%ADD20RoundRect,0.249999X0.850001X0.850001X-0.850001X0.850001X-0.850001X-0.850001X0.850001X-0.850001X0*%
G04 APERTURE END LIST*
D10*
X60552944Y-134437056D03*
X59850000Y-136134112D03*
X59850000Y-132740000D03*
X58152944Y-136837056D03*
D11*
X58152944Y-134437056D03*
D10*
X58152944Y-132037056D03*
X56455888Y-136134112D03*
X56455888Y-132740000D03*
X55752944Y-134437056D03*
D12*
X121120000Y-95210000D03*
D13*
X121120000Y-92670000D03*
X121120000Y-90130000D03*
X121120000Y-87590000D03*
X121120000Y-85050000D03*
X121120000Y-82510000D03*
X121120000Y-79970000D03*
X121120000Y-77430000D03*
D14*
X58435000Y-88440000D03*
X58435000Y-90980000D03*
D15*
X60975000Y-88440000D03*
D16*
X60975000Y-90980000D03*
D12*
X121120000Y-104050000D03*
D13*
X121120000Y-101510000D03*
D10*
X60552944Y-43830000D03*
X59850000Y-45527056D03*
X59850000Y-42132944D03*
X58152944Y-46230000D03*
D11*
X58152944Y-43830000D03*
D10*
X58152944Y-41430000D03*
X56455888Y-45527056D03*
X56455888Y-42132944D03*
X55752944Y-43830000D03*
D14*
X99270000Y-136920000D03*
X101810000Y-136920000D03*
D17*
X99270000Y-134380000D03*
D16*
X101810000Y-134380000D03*
D10*
X118130000Y-134450000D03*
X118832944Y-132752944D03*
X118832944Y-136147056D03*
X120530000Y-132050000D03*
D11*
X120530000Y-134450000D03*
D10*
X120530000Y-136850000D03*
X122227056Y-132752944D03*
X122227056Y-136147056D03*
X122930000Y-134450000D03*
X122930000Y-43830000D03*
X122227056Y-45527056D03*
X122227056Y-42132944D03*
X120530000Y-46230000D03*
D11*
X120530000Y-43830000D03*
D10*
X120530000Y-41430000D03*
X118832944Y-45527056D03*
X118832944Y-42132944D03*
X118130000Y-43830000D03*
D18*
X65530000Y-67510000D03*
D19*
X68070000Y-67510000D03*
X70610000Y-67510000D03*
X73150000Y-67510000D03*
X73150000Y-59570000D03*
X70610000Y-59570000D03*
X68070000Y-59570000D03*
X65530000Y-59570000D03*
D14*
X101520000Y-40880000D03*
X98980000Y-40880000D03*
D20*
X101520000Y-43420000D03*
D16*
X98980000Y-43420000D03*
M02*
